<?xml version="1.0" encoding="UTF-8" standalone="no"?>
<svg xmlns="http://www.w3.org/2000/svg" xml:space="preserve" viewBox="0 0 27.6 50.6" version="1.1" y="0px" x="0px" xmlns:xlink="http://www.w3.org/1999/xlink" enable-background="new 0 0 27.6 50.6">
	<path d="m13.7 24.6c-0.5 0-0.9-0.4-0.9-0.9v-8.1c0-0.5 0.4-0.9 0.9-0.9s0.9 0.4 0.9 0.9v8.1c0 0.6-0.4 0.9-0.9 0.9z" fill="#3C9CC6"/>
	<path d="m18.1 37.5h-0.7c0.2 0 0.4 0.2 0.4 0.4v11c0 0.2-0.2 0.4-0.4 0.4h0.7c0.2 0 0.4-0.2 0.4-0.4v-11c0-0.3-0.2-0.4-0.4-0.4z" fill="none"/>
	<path d="m18.1 37.5h-0.5v-6.5c0-0.2-0.2-0.4-0.4-0.4h-0.4v-5.1c0-0.2-0.2-0.4-0.4-0.4h-0.4v-8.9c0-0.2-0.1-0.3-0.3-0.3h-1.1-0.1v-0.8c0-0.2-0.1-0.3-0.3-0.3h-0.4v2.1h-0.2c-0.1 0-0.2 0-0.3 0.1s-0.1 0.2-0.1 0.3v6.1h-0.6c-0.2 0-0.4 0.2-0.4 0.4v12.2c-0.1-0.1-0.2-0.1-0.3-0.1h-1.2c-0.2 0-0.4 0.2-0.4 0.4v11c0 0.2 0.2 0.4 0.4 0.4h1.3c0.2 0 0.3-0.1 0.4-0.3 0.1 0.1 0.2 0.2 0.3 0.2h1.2 0.2 0.8v1.3c0 0.2 0.2 0.4 0.4 0.4h0.5c0.1 0.1 0.1 0.1 0.2 0.1h0.7c0.1 0 0.1 0.1 0.2 0.1h1.2c0.2 0 0.4-0.2 0.4-0.4v-11c0-0.5-0.2-0.6-0.4-0.6z" fill="#519CAD"/>
	<path d="m12 35.8h-0.7c0.2 0 0.4 0.2 0.4 0.4v11c0 0.2-0.2 0.4-0.4 0.4h0.7c0.2 0 0.4-0.2 0.4-0.4v-11c0-0.2-0.2-0.4-0.4-0.4z" fill="none"/>
	<path d="m16.9 37.5v-6.9h-0.8v-5.5h-0.9v-9.2h0.2v-4.7c0-0.1-0.1-0.3-0.2-0.3v-3.4h-0.4v-0.7-0.1-4c0-0.1 0-0.1-0.1-0.1s-0.1 0-0.1 0.1v3.8h-0.3v4.3h-0.2c-0.2 0-0.4 0.2-0.4 0.4v3.6h-0.5c-0.2 0-0.3 0.1-0.3 0.3v8.3h-0.1c-0.2 0-0.4 0.2-0.4 0.4v5.1h-0.6c-0.2 0-0.4 0.2-0.4 0.4v6.5h-0.6c-0.2 0-0.4 0.2-0.4 0.4v11c0 0.2 0.2 0.4 0.4 0.4h0.9v-11.8h0.3c0.2 0 0.4 0.2 0.4 0.4v11c0 0.1-0.1 0.3-0.2 0.3h0.4v-18.6h0.4c0.2 0 0.4 0.2 0.4 0.4v17.9c0 0.1-0.1 0.2-0.2 0.3h0.4v-22.9h0.3v-9.8h0.4c0.2 0 0.3 0.1 0.3 0.3v0.8h0.1v33h0.3c0.1 0.1 0.2 0.2 0.3 0.2h0.5c0.1 0.1 0.2 0.1 0.2 0.1h0.7c0.1 0 0.1 0.1 0.2 0.1h0.9v-11.8h-0.9zm-1.3 10.5c0 0.2-0.1 0.3-0.3 0.3s-0.3-0.1-0.3-0.3v-19.1c0-0.2 0.1-0.3 0.3-0.3s0.3 0.1 0.3 0.3v19.1zm1.1-1c0 0.2-0.1 0.3-0.3 0.3s-0.3-0.1-0.3-0.3v-11.4c0-0.2 0.1-0.3 0.3-0.3s0.3 0.1 0.3 0.3v11.4z" fill="#7FC4D6"/>
<g fill="#ABE4ED">
	<path d="m12.5 46.5s-0.1 0 0 0l-0.1 0.7c0 0.1-0.1 0.3-0.2 0.3h0.4v-1.1c0 0.1 0 0.1-0.1 0.1z"/>
		<polygon points="14.6 14.5 14.6 14.5"/>
		<path d="m14.3 14.4h0.2 0.1-0.1-0.2z"/>
		<path d="m13 28v0.9c0.1 0 0.3 0.1 0.3 0.2 0.1 0 0.1-0.1 0.1-0.2v-0.8l-0.2-0.1h-0.2z"/>
		<path d="m12.5 34.3h0.2v-5.4h-0.3v0.1 5.4l0.1-0.1z"/>
		<path d="m11.6 43.2v-7.4h-0.4v7.4h0.4z"/>
		<path d="m11.2 44v2.8c0 0.1 0.1 0.2 0.2 0.2s0.2-0.1 0.2-0.2v-2.8h-0.4z"/>
		<polygon points="13.4 23.4 13 23.4 13 27.2 13.4 27.3"/>
		<path d="m12.6 44.1h-0.2v2.4h0.1c0.1 0 0.1 0 0.2-0.1l-0.1-2.3z"/>
		<path d="m12.5 43.3h0.2v-8.2h-0.1-0.2-0.1v0.8c0.1 0.1 0.1 0.2 0.1 0.3l0.1 7.1z"/>
		<path d="m14.3 14.4h0.2 0.1 0.1v-0.1-3.5h-0.4v3.6z"/>
		<path d="m12.3 35.9z"/>
		<polygon points="13.3 28.1 13.4 28.1 13.4 27.3 13 27.2 13 28"/>
		<path d="m12.5 43.3l-0.1 0.8h0.2 0.1v-0.8h-0.2z"/>
		<path d="m11.2 43.2v0.8h0.4v-0.8h-0.4z"/>
		<path d="m12.6 35.1l0.1-0.8h-0.2-0.1-0.1v0.8h0.1 0.2z"/>
		<path d="m14.6 14.5z"/>
		<polygon points="14.3 14.4 14.3 14.4"/>
		<path d="m14.6 14.5l0.1 0.1-0.1-0.1c0.1 0 0 0 0 0z"/>
</g>
	<g fill="#145972">
		<polygon points="5.7 46.9 5.7 44.5 5 44.5 5 44.1 4.1 44.1 4.1 41.2 2.8 40.8 2.8 49.7 4.2 49.7 5.7 49.7 5.7 47.7 5.6 47.7"/>
		<polygon points="7.1 41.8 6.1 41.8 6.1 42.7 5.7 42.7 5.7 46.5 5.7 46.9 5.7 47.7 6.2 47.7 7.9 47.7 7.9 43 7.1 43"/>
		<rect y="38.7" width="2.2" height="11.9"/>
		<path d="m26.6 38.6c-0.2-1-1.7-2.9-1.7-2.9s-0.5 0.5-1 1.4c-0.2 0.4-0.4 0.9-0.5 1.4-1.1-0.1-1.4-0.2-1.4-0.2v1l-1.8 0.5v6.2h5.4v-1.3l1-0.1c0 0.1 0.2-4.9 0-6z"/>
	</g>
</svg>
