<?xml version="1.0" encoding="utf-8"?>
<!-- Generator: Adobe Illustrator 19.2.1, SVG Export Plug-In . SVG Version: 6.00 Build 0)  -->
<svg version="1.1" id="Layer_1" xmlns="http://www.w3.org/2000/svg" xmlns:xlink="http://www.w3.org/1999/xlink" x="0px" y="0px" viewBox="0 0 27.6 50.6" enable-background="new 0 0 27.6 50.6" xml:space="preserve">
<g>
	<path fill="#3C9CC6" d="M13.7,24.6L13.7,24.6c-0.5,0-0.9-0.4-0.9-0.9v-8.1c0-0.5,0.4-0.9,0.9-0.9h0c0.5,0,0.9,0.4,0.9,0.9v8.1
		C14.6,24.3,14.2,24.6,13.7,24.6z"/>
	<path fill="none" d="M18.1,37.5h-0.7c0.2,0,0.4,0.2,0.4,0.4v11c0,0.2-0.2,0.4-0.4,0.4h0.7c0.2,0,0.4-0.2,0.4-0.4v-11
		C18.5,37.6,18.3,37.5,18.1,37.5z"/>
	<path fill="#519CAD" d="M18.1,37.5h-0.5V31c0-0.2-0.2-0.4-0.4-0.4h-0.4v-5.1c0-0.2-0.2-0.4-0.4-0.4h-0.4v-8.9
		c0-0.2-0.1-0.3-0.3-0.3h-1.1c0,0,0,0-0.1,0v-0.8c0-0.2-0.1-0.3-0.3-0.3h-0.4v2.1h-0.2c-0.1,0-0.2,0-0.3,0.1
		c-0.1,0.1-0.1,0.2-0.1,0.3v6.1h-0.6c-0.2,0-0.4,0.2-0.4,0.4v12.2c-0.1-0.1-0.2-0.1-0.3-0.1h-1.2c-0.2,0-0.4,0.2-0.4,0.4v11
		c0,0.2,0.2,0.4,0.4,0.4H12c0.2,0,0.3-0.1,0.4-0.3c0.1,0.1,0.2,0.2,0.3,0.2h1.2c0.1,0,0.1,0,0.2,0h0.5h0.3v1.3
		c0,0.2,0.2,0.4,0.4,0.4h0.5c0.1,0.1,0.1,0.1,0.2,0.1h0.7c0.1,0,0.1,0.1,0.2,0.1h1.2c0.2,0,0.4-0.2,0.4-0.4v-11
		C18.5,37.6,18.3,37.5,18.1,37.5z"/>
	<path fill="none" d="M12,35.8h-0.7c0.2,0,0.4,0.2,0.4,0.4v11c0,0.2-0.2,0.4-0.4,0.4H12c0.2,0,0.4-0.2,0.4-0.4v-11
		C12.4,36,12.2,35.8,12,35.8z"/>
	<path fill="#7FC4D6" d="M16.9,37.5v-6.9h-0.8v-5.5h-0.9c0,0,0,0,0,0v-9.2h0.2v-4.7c0-0.1-0.1-0.3-0.2-0.3V7.5c0,0,0,0,0,0h-0.4V6.8
		c0,0,0,0,0-0.1V2.7c0-0.1,0-0.1-0.1-0.1c-0.1,0-0.1,0-0.1,0.1v3.8h-0.3c0,0,0,0,0,0v4.3h-0.2c-0.2,0-0.4,0.2-0.4,0.4v3.6h-0.5
		c-0.2,0-0.3,0.1-0.3,0.3v8.3h-0.1c-0.2,0-0.4,0.2-0.4,0.4v5.1h-0.6c-0.2,0-0.4,0.2-0.4,0.4v6.5h-0.6c-0.2,0-0.4,0.2-0.4,0.4v11
		c0,0.2,0.2,0.4,0.4,0.4l0.9,0V35.8H12c0.2,0,0.4,0.2,0.4,0.4v11c0,0.1-0.1,0.3-0.2,0.3l0.4,0V28.9H13c0.2,0,0.4,0.2,0.4,0.4v17.9
		c0,0.1-0.1,0.2-0.2,0.3l0.4,0V24.6h0.3v-8.1v-1.7h0.4c0.2,0,0.3,0.1,0.3,0.3v0.8c0,0,0,0,0.1,0v33h0.3c0.1,0.1,0.2,0.2,0.3,0.2
		l0.5,0c0.1,0.1,0.2,0.1,0.2,0.1l0.7,0c0.1,0,0.1,0.1,0.2,0.1l0.9,0V37.5H16.9z M15.6,48c0,0.2-0.1,0.3-0.3,0.3
		c-0.2,0-0.3-0.1-0.3-0.3V28.9c0-0.2,0.1-0.3,0.3-0.3c0.2,0,0.3,0.1,0.3,0.3V48z M16.7,47c0,0.2-0.1,0.3-0.3,0.3s-0.3-0.1-0.3-0.3
		V35.6c0-0.2,0.1-0.3,0.3-0.3s0.3,0.1,0.3,0.3V47z"/>
</g>
<g>
	<path fill="#ABE4ED" d="M12.5,46.5C12.5,46.5,12.4,46.5,12.5,46.5l-0.1,0.7c0,0.1-0.1,0.3-0.2,0.3l0.4,0v-1.1
		C12.6,46.5,12.6,46.5,12.5,46.5z"/>
	<g>
		<polygon fill="#ABE4ED" points="14.6,14.5 14.6,14.5 14.6,14.5 		"/>
		<path fill="#ABE4ED" d="M14.3,14.4L14.3,14.4l0.2,0c0,0,0.1,0,0.1,0l-0.1,0H14.3z"/>
		<path fill="#ABE4ED" d="M13,28v0.9h0c0.1,0,0.3,0.1,0.3,0.2c0.1,0,0.1-0.1,0.1-0.2v-0.8l-0.2-0.1L13,28z"/>
		<path fill="#ABE4ED" d="M12.5,34.3c0.1,0,0.1,0,0.2,0v-5.4h-0.3h0c0,0,0,0,0,0.1v5.4L12.5,34.3L12.5,34.3z"/>
		<path fill="#ABE4ED" d="M11.6,43.2v-7.4h-0.2h-0.2v7.4C11.3,43.2,11.5,43.2,11.6,43.2z"/>
		<path fill="#ABE4ED" d="M11.2,44L11.2,44l0,2.8c0,0.1,0.1,0.2,0.2,0.2s0.2-0.1,0.2-0.2V44C11.5,44,11.3,44,11.2,44z"/>
		<polygon fill="#ABE4ED" points="13.4,23.4 13,23.4 13,27.2 13.4,27.3 		"/>
		<path fill="#ABE4ED" d="M12.6,44.1L12.6,44.1c-0.1,0-0.1,0-0.2,0v2.4c0,0,0.1,0,0.1,0c0.1,0,0.1,0,0.2-0.1L12.6,44.1L12.6,44.1
			C12.6,44.1,12.6,44.1,12.6,44.1z"/>
		<path fill="#ABE4ED" d="M12.5,43.3c0.1,0,0.1,0,0.2,0v-8.2l-0.1,0c0,0,0,0,0,0l0,0c-0.1,0-0.1,0-0.2,0l-0.1,0v0.8
			c0.1,0.1,0.1,0.2,0.1,0.3L12.5,43.3L12.5,43.3L12.5,43.3z"/>
		<path fill="#ABE4ED" d="M14.3,14.4h0.2l0.1,0c0,0,0,0,0,0l0,0l0,0c0,0,0,0,0.1,0l0,0l0,0l0-0.1v-3.5h-0.4L14.3,14.4L14.3,14.4
			L14.3,14.4z"/>
		<path fill="#ABE4ED" d="M12.3,35.9C12.3,35.9,12.3,35.9,12.3,35.9C12.3,35.9,12.3,35.9,12.3,35.9z"/>
		<polygon fill="#ABE4ED" points="13.3,28.1 13.4,28.1 13.4,27.3 13,27.2 13,28 		"/>
		<path fill="#ABE4ED" d="M12.5,43.3L12.5,43.3L12.5,43.3l-0.1,0.8c0.1,0,0.1,0,0.2,0l0,0c0,0,0,0,0,0l0.1,0v-0.8
			C12.6,43.3,12.5,43.3,12.5,43.3z"/>
		<path fill="#ABE4ED" d="M11.2,43.2V44l0,0c0.1,0,0.3,0,0.4,0v-0.8C11.5,43.2,11.3,43.2,11.2,43.2z"/>
		<path fill="#ABE4ED" d="M12.6,35.1L12.6,35.1C12.6,35.1,12.6,35.1,12.6,35.1L12.6,35.1l0.1-0.8c-0.1,0-0.1,0-0.2,0l-0.1,0l-0.1,0
			v0.8l0.1,0C12.4,35.1,12.5,35.1,12.6,35.1z"/>
		<path fill="#ABE4ED" d="M14.6,14.5C14.6,14.5,14.6,14.5,14.6,14.5L14.6,14.5z"/>
		<polygon fill="#ABE4ED" points="14.3,14.4 14.3,14.4 14.3,14.4 		"/>
		<path fill="#ABE4ED" d="M14.6,14.5l0.1,0.1L14.6,14.5C14.7,14.5,14.6,14.5,14.6,14.5z"/>
	</g>
</g>
<g>
	<g>
		<polygon fill="#145972" points="5.7,46.9 5.7,44.5 5,44.5 5,44.1 4.1,44.1 4.1,41.2 2.8,40.8 2.8,49.7 4.2,49.7 5.7,49.7
			5.7,47.7 5.6,47.7 		"/>
		<polygon fill="#145972" points="7.1,41.8 6.1,41.8 6.1,42.7 5.7,42.7 5.7,46.5 5.7,46.9 5.7,47.7 6.2,47.7 7.9,47.7 7.9,43
			7.1,43 		"/>
		<rect y="38.7" fill="#145972" width="2.2" height="11.9"/>
		<path fill="#145972" d="M26.6,38.6c-0.2-1-1.7-2.9-1.7-2.9s-0.5,0.5-1,1.4c-0.2,0.4-0.4,0.9-0.5,1.4c-1.1-0.1-1.4-0.2-1.4-0.2v1
			l-1.8,0.5V46h5.4v-1.3l1-0.1C26.6,44.7,26.8,39.7,26.6,38.6z"/>
	</g>
</g>
</svg>
