<?xml version="1.0" encoding="UTF-8" standalone="no"?>
<svg id="Euromillions" xmlns="http://www.w3.org/2000/svg" xml:space="preserve" viewBox="0 0 300 108.5" version="1.1" y="0px" x="0px" xmlns:xlink="http://www.w3.org/1999/xlink" enable-background="new 0 0 300 108.5">
<path id="Coin_Edge" d="m182 3.6s0.8 1.1 0.9 1.1c1 1.3-2.3 5.6-7.4 9.6-4.7 3.7-9.3 5.9-10.8 5.2l-0.2-0.1-0.1-0.1-0.9-1.1-1.7-2.2 18.5-14.6 2 2.2zm-2 36.9l-11.8-12.4-1.5 1.4-0.7 0.7-0.1 0.1-0.1 0.1c-0.4 1.1 1.5 4.3 4.5 7.5 3.3 3.4 6.6 5.5 7.5 4.7l0.8-0.7 1-1.4zm-105 47.3l-12.3 0.9 0.1 1.4 0.1 0.7v0.1 0.1c0.4 0.7 3.1 1.1 6.2 0.9 3.4-0.2 6.1-1.1 6-2l-0.1-0.8v-1.3zm76.3-61.8l-17 3 0.4 2 0.2 1v0.1l0.1 0.1c0.7 1 4.4 1.1 8.7 0.3 4.6-0.8 8.2-2.5 8-3.6 0-0.1-0.2-1-0.2-1v-1.9zm101 29.1l-9.5 7.5 0.9 1.1 0.4 0.5 0.1 0.1 0.1 0.1c0.8 0.4 3.1-0.8 5.6-2.7 2.6-2.1 4.3-4.3 3.8-4.9l-0.5-0.6v-1.1zm-198-39.8l-10.4-6.3-0.7 1.2s-0.3 0.6-0.4 0.6v0.1 0.1c-0.1 0.8 1.8 2.7 4.4 4.3 2.9 1.7 5.5 2.6 6 1.9l0.4-0.6 0.7-1.3zm145 76.1l-5.4 4.3 0.5 0.6s0.2 0.3 0.3 0.3h0.1c0.4 0.2 1.8-0.4 3.2-1.5 1.5-1.2 2.5-2.4 2.2-2.8l-0.3-0.3v-0.6z" fill="#D8B86F"/>
<path id="Coin_Ridges" d="m180 3.3l2.9 3.7c0 0.1-0.1 0.1-0.1 0.2l-3-3.8v-0.1zm0-0.3l2.8 3.6c0-0.1 0.1-0.1 0.1-0.2l-2.7-3.5v0.1zm1-0.4l2.6 3.3c0-0.1 0-0.2 0.1-0.3l-2.5-3.1-1 0.1zm-6 4.7l3.7 4.7c0.1 0 0.1-0.1 0.2-0.1l-3.7-4.7v0.1zm1-0.4l3.7 4.7c0.1 0 0.1-0.1 0.2-0.1l-3.7-4.7v0.1zm1-1.1l3.6 4.5c0-0.1 0.1-0.1 0.1-0.2l-3.5-4.5-1 0.2zm1-0.8l3.4 4.3c0-0.1 0.1-0.1 0.1-0.2l-3.4-4.3v0.2zm1-0.8l3.2 4.1c0-0.1 0.1-0.1 0.1-0.2l-3.2-4.1v0.2zm-1 1.2l3.5 4.4c0-0.1 0.1-0.1 0.1-0.2l-3.5-4.4v0.2zm0-0.8l3.3 4.2c0-0.1 0.1-0.1 0.1-0.2l-3.3-4.2v0.2zm2-0.8l3.1 4c0-0.1 0.1-0.1 0.1-0.2l-3.1-3.9v0.1zm-4 2.4l3.6 4.6c0-0.1 0.1-0.1 0.1-0.2l-3-4.6-1 0.2zm-2 1.5l3.8 4.8c0.1 0 0.1-0.1 0.2-0.1l-3.8-4.8v0.1zm2-1.2l3.7 4.6c0.1 0 0.1-0.1 0.2-0.1l-3.6-4.6v0.1zm-4 3.2l3.8 4.9c0.1 0 0.1-0.1 0.2-0.1l-3.8-4.9v0.1zm-4 3.1l3.6 4.6c0.1 0 0.1-0.1 0.2-0.1l-3.6-4.6v0.1zm-2 1.6l3.4 4.3c0.1 0 0.1-0.1 0.2-0.1l-3.4-4.3v0.1zm2-1.2l3.6 4.5c0.1 0 0.1-0.1 0.2-0.1l-3.6-4.6v0.2zm-2 1.6l3.3 4.1c0.1 0 0.1-0.1 0.2-0.1l-3.3-4.2v0.2zm1-1.2l3.5 4.5c0.1 0 0.1-0.1 0.2-0.1l-3.5-4.5 1 0.1zm-1 0.4l3.4 4.4c0.1 0 0.1-0.1 0.2-0.1l-3.5-4.4v0.1zm-1 1.2l3.1 4c0.1 0 0.1-0.1 0.2-0.1l-3.2-4v0.1zm-1 1.1l2.6 3.3h0.2l-2.7-3.4v0.1zm-1 0.4l2.2 2.8c0.1 0 0.2 0.1 0.3 0.1l-2.4-3v0.1zm1-0.8l2.8 3.6c0.1 0 0.1 0 0.2-0.1l-2.9-3.7v0.2zm0-0.3l3 3.8c0.1 0 0.1 0 0.2-0.1l-3.1-3.9v0.2zm6-4l3.7 4.8c0.1 0 0.1-0.1 0.2-0.1l-3.8-4.8v0.1zm2-2.3l3.8 4.9c0.1 0 0.1-0.1 0.2-0.1l-3.8-4.8zm0 0.8l3.8 4.8c0.1 0 0.1-0.1 0.2-0.1l-3.8-4.8v0.1zm1-1.2l3.8 4.8c0.1 0 0.1-0.1 0.2-0.1l-3.8-4.8v0.1zm1-0.4l3.8 4.8c0.1 0 0.1-0.1 0.2-0.1l-3.8-4.8v0.1zm-6 3.9l3.7 4.7c0.1 0 0.1-0.1 0.2-0.1l-3.7-4.7v0.1zm3-1.9l3.8 4.8c0.1 0 0.1-0.1 0.2-0.1l-3.8-4.8v0.1zm-1 0.4l3.8 4.8c0.1 0 0.1-0.1 0.2-0.1l-3.8-4.8v0.1zm4-2.8l3.8 4.8c0.1 0 0.1-0.1 0.2-0.1l-4-4.8v0.1zm-5 3.9l3.7 4.7c0.1 0 0.1-0.1 0.2-0.1l-3.7-4.7v0.1zm1-0.8l3.8 4.8c0.1 0 0.1-0.1 0.2-0.1l-3.8-4.8v0.1zm-20 15.6l0.6 3.4-0.1 0.1-0.6-3.5zl0.6 3.3 0.1-0.1-0.6-3.2zm1-0.1l0.5 3c0-0.1 0.1-0.1 0.1-0.2l-0.5-2.9-1 0.1zm-6 1l0.8 4.3h0.1l-0.8-4.3zm1-0.1l0.8 4.3h0.1l-0.8-4.3zm1-0.3l0.7 4.1s0.1 0 0.1-0.1l-0.7-4.1v0.1zm1-0.1l0.7 4s0.1 0 0.1-0.1l-0.7-3.9zm1-0.2l0.7 3.7s0.1 0 0.1-0.1l-0.7-3.7v0.1zm-2 0.3l0.7 4s0.1 0 0.1-0.1l-0.7-4v0.1zm1-0.2l1 3.9s0.1 0 0.1-0.1l-0.7-3.8zm1-0.2l0.7 3.6 0.1-0.1-0.6-3.6v0.1zm-3 0.5l0.8 4.2h0.1l-0.8-4.2zm-1 0.4l0.8 4.4h0.1l-0.8-4.3v-0.1zm1-0.3l0.8 4.2h0.1l-0.8-4.2zm-4 0.7l0.8 4.4h0.2l-0.8-4.4zm-3 0.6l0.8 4.2h0.2l-0.8-4.2zm-2 0.4l0.7 3.9h0.2l-0.7-3.9zm1-0.3l0.8 4.1h0.2l-0.8-4.2v0.1zm-2 0.3l0.7 3.8h0.2l-0.7-3.8zm2-0.2l0.7 4.1h0.2l-1-4.1zm-1 0.1l0.7 4h0.2l-0.7-4zm-1 0.2l0.7 3.6h0.2l-0.7-3.7v0.1zm-1 0.3l0.6 3c0.1 0 0.1 0 0.2 0.1l-0.6-3.1zm-1 0.1l0.5 2.6c0 0.1 0.1 0.1 0.2 0.2l-0.5-2.8zm1-0.2l0.6 3.3h0.2l-0.6-3.4v0.1zm1-0.1l0.6 3.5h0.2l-0.6-3.5zm4-0.8l0.8 4.3h0.2l-0.8-4.3zm3-0.5l0.8 4.4h0.2l-0.8-4.4zm-1 0.1l0.8 4.4h0.2l-0.8-4.4zm1-0.2l0.8 4.4h0.2l-0.8-4.4zm1-0.1l0.8 4.4h0.2l-0.8-4.4zm-5 0.8l1 4.3h0.2l-0.8-4.3zm3-0.4l0.8 4.4h0.2l-0.8-4.4zm-1 0.1l0.8 4.4h0.2l-0.8-4.4zm3-0.6l0.8 4.4h0.1l-0.8-4.4zm-4 0.9l0.8 4.3h0.2l-0.8-4.3zm1-0.2l0.8 4.4h0.2l-0.8-4.4zm37 11.5l-2.5 2.4s-0.1 0-0.2-0.1l2.5-2.4v0.1zm0 0.3l-2.4 2.3c0.1 0 0.1 0 0.2 0.1l2.3-2.2v-0.2zm1 0.3l-2.2 2.1h0.2l2.1-2v-0.1zm-4-4l-3.2 3 0.1 0.1 3.2-3v-0.1zm0 0.3l-3.2 3 0.1 0.1 3.1-3v-0.1zm1 1l-3 2.9 0.1 0.1 3-2.9v-0.1zm1 0.7l-2.9 2.8 0.1 0.1 2.9-2.8v-0.1zm1 0.7l-2.8 2.6 0.1 0.1 2.7-2.6v-0.1zm-1-1l-3 2.8 0.1 0.1 3-2.8v-0.1zm0 0.6l-2.8 2.7 0.1 0.1 2.8-2.7v-0.1zm1 0.7l-2.7 2.5 0.1 0.1 2.6-2.5v-0.1zm-2-2l-3.1 2.9 0.1 0.1 3.1-2.9v-0.1zm-1-1.3l-3.2 3.1 0.1 0.1 3.2-3v-0.2zm1 1l-3.1 3 0.1 0.1 3.1-3v-0.1zm-3-2.7l-3.3 3.1 0.1 0.1 3.3-3.1v-0.1zm-2-2.7l-3.1 2.9 0.1 0.1 3.1-2.9v-0.1zm-2-1.3l-2.9 2.7 0.1 0.1 2.9-2.7v-0.1zm1 1l-3 2.9 0.1 0.1 3.1-2.9v-0.1zm-1-1.4l-2.8 2.6 0.1 0.1 2.8-2.7zm1 1l-3 2.8 0.1 0.1 3-2.9zm0-0.3l-2.9 2.8 0.1 0.1 2.9-2.8v-0.1zm-1-1l-2.7 2.5s0 0.1 0.1 0.1l2.7-2.6zm-1-1l-2.2 2.1v0.2l2.3-2.2v-0.1zm-1-0.3l-1.9 1.8c0 0.1 0 0.2-0.1 0.3l2-1.9v-0.2zm1 0.6l-2.4 2.3c0 0.1 0 0.1 0.1 0.2l2.5-2.4v-0.1zm0 0.4l-2.6 2.4s0 0.1 0.1 0.2l2.6-2.5v-0.1zm4 3.3l-3.2 3 0.1 0.1 3.2-3v-0.1zm1 2l-3.3 3.1 0.1 0.1 3.3-3.1v-0.1zm0-0.7l-3.3 3.1 0.1 0.1 3.3-3.1v-0.1zm1 1.1l-3.3 3.1 0.1 0.1 3.3-3.1v-0.1zm0 0.3l-3.2 3.1 0.1 0.1 3.2-3.1v-0.1zm-3-3.4l-3.1 3 0.1 0.1 3.1-3v-0.1zm1 1.7l-3.2 3.1 0.1 0.1 3.2-3.1v-0.1zm0-0.3l-3.2 3.1 0.1 0.1 3.2-3.1v-0.1zm2 2.3l-3.2 3.1 0.1 0.1 3.2-3.1v-0.1zm-3-3.3l-3.2 3 0.1 0.1 3.2-3v-0.1zm1 0.6l-3.2 3.1 0.1 0.1 3.2-3.1v-0.1zm27 58.7l0.9 1.1v0.1l-1-1.2zm0-0.1l0.8 1v-0.1l-1-0.9zm0-0.1l0.8 1v-0.1l-1-0.9zm-2 1.4l1.1 1.4-1-1.4zm1-0.1l1.1 1.4-1-1.4zm0-0.4l1 1.3-1-1.3zm0-0.2l1 1.3-1-1.3zm0-0.2l1 1.2v-0.1l-1-1.1zm0 0.3l1 1.3-1-1.3zm0-0.2l1 1.2v-0.1l-1-1.1zm1-0.2l0.9 1.2v-0.1l-1-1.1zm-1 0.7l1.1 1.3-1-1.3zm-1 0.4l1.1 1.4-1-1.4zm1-0.3l1.1 1.4-1-1.4zm-2 0.9l1.1 1.4-1-1.4zm-1 0.9l1.1 1.4h0.1l-1-1.4zm0 0.5l1 1.3h0.1l-1-1.3zm0-0.4l1 1.3h0.1l-1-1.3zm-1 0.5l1 1.2h0.1l-1-1.2zm1-0.4l1 1.3h0.1l-1-1.3zm0 0.2l1 1.3h0.1l-1-1.3zm-1 0.3l0.9 1.2h0.1l-1-1.2zm0 0.4l0.8 1h0.1l-1-1zm0 0.1l0.6 0.8h0.1l-1-0.8zm0-0.3l0.8 1.1h0.1l-1-1.1zm0-0.1l0.9 1.1h0.1l-1-1.1zm2-1.1l1.1 1.4h0.1l-1-1.4zm1-0.7l1.1 1.4-1-1.4zm-1 0.2l1.1 1.4-1-1.4zm1-0.3l1.1 1.4-1-1.4zm0-0.2l1.1 1.4-1-1.4zm-2 1.2l1.1 1.4h0.1l-1-1.4zm1-0.6l1.1 1.4-1-1.4zm0 0.1l1.1 1.4h0.1l-1-1.4zm1-0.8l1.1 1.4-1-1.4zm-1 1.2l1.1 1.4h0.1l-1-1.4zm0-0.2l1.1 1.4h0.1l-1-1.4zm55-38.3l1.5 1.9s0 0.1-0.1 0.1l-1-2zm0-0.2l1.5 1.8v-0.1l-1-1.7zm1-0.2l1.3 1.7v-0.1l-1-1.6zm-4 2.5l1.9 2.4s0.1 0 0.1-0.1l-2-2.3zm1-0.2l1.9 2.4 0.1-0.1-2-2.3zm1-0.7l1.8 2.3s0-0.1 0.1-0.1l-2-2.2zm0-0.4l1.8 2.2s0-0.1 0.1-0.1l-2-2.1zm1-0.4l1.7 2.1s0-0.1 0.1-0.1l-2-2zm-1 0.6l1.8 2.3s0-0.1 0.1-0.1l-2-2.2zm0-0.4l1.7 2.2s0-0.1 0.1-0.1l-2-2.1zm1-0.4l1.6 2s0-0.1 0.1-0.1l-2-1.9zm-2 1.2l1.9 2.4 0.1-0.1-2-2.3zm-1 0.9l1.9 2.5s0.1 0 0.1-0.1l-2-2.4zm1-0.6l1.9 2.4 0.1-0.1-2-2.3zm-2 1.6l2 2.5s0.1 0 0.1-0.1l-2-2.4zm-2 1.6l1.9 2.4s0.1 0 0.1-0.1l-2-2.3zm-1 0.8l1.7 2.2h0.1l-2-2.2zm1-0.6l1.8 2.3s0.1 0 0.1-0.1l-2-2.2zm-1 0.8l1.7 2.1h0.1l-2-2.1zm0-0.6l1.8 2.3s0.1 0 0.1-0.1l-2-2.2zm0 0.2l1.8 2.2s0.1 0 0.1-0.1l-2-2.1zm-1 0.6l1.6 2.1h0.1l-2-2.1zm0 0.6l1.4 1.7h0.1l-1-1.7zm-1 0.2l1.1 1.4c0.1 0 0.1 0 0.2 0.1l-1-1.5zm1-0.4l1.5 1.9h0.1l-1-1.9zm0-0.2l1.6 2h0.1l-2-2zm3-2l1.9 2.5s0.1 0 0.1-0.1l-2-2.4zm1-1.2l2 2.5s0.1 0 0.1-0.1l-2-2.4zm0 0.4l2 2.5s0.1 0 0.1-0.1l-2-2.4zm1-0.6l2 2.5s0.1 0 0.1-0.1l-2-2.4zm0-0.2l2 2.5s0.1 0 0.1-0.1l-2-2.4zm-3 2l1.9 2.4s0.1 0 0.1-0.1l-2-2.3zm1-1l2 2.5s0.1 0 0.1-0.1l-2-2.4zm0 0.2l2 2.5s0.1 0 0.1-0.1l-2-2.4zm2-1.4l2 2.5s0.1 0 0.1-0.1l-2-2.4zm-2 2l1.9 2.4s0.1 0 0.1-0.1l-2-2.3zm0-0.4l1.9 2.5s0.1 0 0.1-0.1l-2-2.4zm-172 28.2l0.2 2.5s-0.1 0-0.1 0.1l-0.2-2.5 0.1-0.1zm0.2 0l0.2 2.4s0.1 0 0.1-0.1l-0.2-2.3h-0.1zm0.3-0.1l0.2 2.2 0.1-0.1-0.2-2.1h-0.1zm-3.9 0.3l0.2 3.2h0.1l-0.2-3.2h-0.1zm0.3 0l0.2 3.1h0.1l-0.2-3.1h-0.1zm1-0.1l0.2 3h0.1l-0.2-3h-0.1zm0.6 0l0.2 2.9h0.1l-0.2-2.9h-0.1zm0.7-0.1l0.2 2.7h0.1l-0.2-2.7h-0.1zm-1 0.1l0.2 3h0.1l-0.2-2.9-0.1-0.1zm0.7 0l0.2 2.8h0.1l-0.2-2.8h-0.1zm0.6-0.1l0.2 2.6h0.1l-0.2-2.6h-0.1zm-1.9 0.2l0.2 3.1h0.1l-0.2-3-0.1-0.1zm-1.4 0.1l0.2 3.2h0.1l-0.2-3.2h-0.1zm1-0.1l0.2 3.1h0.1l-0.2-3.1h-0.1zm-2.6 0.2l0.2 3.2h0.1l-0.2-3.2h-0.1zm-2.7 0.2l0.2 3.1h0.1l-0.2-3.1h-0.1zm-1.3 0.1l0.2 2.8h0.1l-0.2-2.8h-0.1zm1-0.1l0.2 3h0.1l-0.2-3h-0.1zm-1.3 0.1l0.2 2.8h0.1l-0.2-2.8h-0.1zm1-0.1l0.2 3h0.1l-0.2-3h-0.1zm-0.4 0l0.2 2.9h0.1l-0.2-2.9h-0.1zm-1 0.1l0.2 2.7h0.1l-0.2-2.7h-0.1zm-1 0.1l0.2 2.2s0.1 0 0.1 0.1l-0.2-2.3h-0.1zm-0.3 0l0.1 1.9c0 0.1 0.1 0.1 0.1 0.1l-0.1-2h-0.1zm0.7 0l0.2 2.4h0.1l-0.2-2.5-0.1 0.1zm0.3-0.1l0.2 2.5h0.1l-0.2-2.5h-0.1zm3.3-0.2l0.2 3.2h0.1l-0.2-3.2h-0.1zm2-0.2l0.2 3.2h0.1l-0.2-3.2h-0.1zm-0.7 0.1l0.2 3.2h0.1l-0.2-3.2h-0.1zm1-0.1l0.2 3.2h0.1l-0.2-3.2h-0.1zm0.4 0l0.2 3.2h0.1l-0.2-3.2h-0.1zm-3.4 0.2l0.2 3.1h0.1l-0.2-3.1h-0.1zm1.7-0.1l0.2 3.2h0.1l-0.2-3.2h-0.1zm-0.3 0l0.2 3.2h0.1l-0.2-3.2h-0.1zm2.3-0.1l0.2 3.2h0.1l-0.2-3.2h-0.1zm-3.3 0.2l0.2 3.1h0.1l-0.2-3.1h-0.1zm0.6 0l0.2 3.2h0.1l-0.2-3.2h-0.1zm-14.3-73.5l-1.3 2.1h-0.1l1.4-2.1zm0.2 0.1l-1.2 2h0.1l1.1-2zm0.3 0.2l-1.1 1.8h0.1l1-1.8zm-3.4-2.1l-1.6 2.7h0.1l1.5-2.7zm0.3 0.2l-1.6 2.6h0.1l1.5-2.6zm0.9 0.5l-1.5 2.5h0.1l1.4-2.5zm0.5 0.3l-1.5 2.5h0.1l1.4-2.5zm0.6 0.4l-1.4 2.3h0.1l1.3-2.3zm-0.9-0.5l-1.5 2.5h0.1l1.4-2.5zm0.6 0.3l-1.4 2.4h0.1l1.3-2.4zm0.6 0.3l-1.4 2.2h0.1l1.3-2.2zm-1.7-1l-1.6 2.6h0.1l1.5-2.6zm-1.1-0.7l-1.7 2.7s0.1 0 0.1 0.1l1.6-2.8zm0.8 0.6l-1.6 2.6h0.1l1.5-2.6zm-2.2-1.4l-1.7 2.7s0.1 0 0.1 0.1l1.6-2.8zm-2.3-1.4l-1.6 2.6s0.1 0 0.1 0.1l1.5-2.7zm-1.1-0.6l-1.5 2.4 0.1 0.1 1.4-2.5zm0.9 0.5l-1.5 2.5s0.1 0 0.1 0.1l1.4-2.6zm-1.2-0.7l-1.4 2.3 0.1 0.1 1.3-2.4zm0.9 0.5l-1.5 2.5s0.1 0 0.1 0.1l1.4-2.6zm-0.3-0.2l-1.5 2.4s0.1 0 0.1 0.1l1.4-2.5zm-0.8-0.5l-1.4 2.2s0 0.1 0.1 0.1l1.3-2.3zm-0.9-0.5l-1.1 1.9s0 0.1 0.1 0.1l1-2zm-0.2-0.2l-1 1.6v0.2l1-1.8zm0.5 0.4l-1.2 2s0 0.1 0.1 0.1l1.1-2.1zm0.3 0.1l-1.3 2.1s0 0.1 0.1 0.1l1.2-2.2zm2.8 1.7l-1.6 2.7s0.1 0 0.1 0.1l1.5-2.8zm1.7 1.1l-1.7 2.7s0.1 0 0.1 0.1l1.6-2.8zm-0.6-0.4l-1.7 2.7s0.1 0 0.1 0.1l1.6-2.8zm0.8 0.5l-1.7 2.7s0.1 0 0.1 0.1l1.6-2.8zm0.3 0.2l-1.7 2.7s0.1 0 0.1 0.1l1.6-2.8zm-2.8-1.7l-1.6 2.6s0.1 0 0.1 0.1l1.5-2.7zm1.4 0.9l-1.7 2.7s0.1 0 0.1 0.1l1.6-2.8zm-0.3-0.2l-1.6 2.7s0.1 0 0.1 0.1l1.5-2.8zm2 1.2l-1.6 2.7s0.1 0 0.1 0.1l1.5-2.8zm-2.8-1.7l-1.6 2.6s0.1 0 0.1 0.1l1.5-2.7zm0.6 0.3l-1.6 2.7s0.1 0 0.1 0.1l1.5-2.8z" fill="#AA8D52"/>
<path id="Coin_Loight" d="m181 1.7c1 1.3-2.3 5.6-7.4 9.6s-10.1 6.2-11.1 5 2.3-5.6 7.4-9.6c5-4.1 10-6.3 11-5zm-6 31.2c-3.3-3.4-6.6-5.5-7.5-4.7s1.1 4.3 4.3 7.7c3.3 3.4 6.6 5.5 7.5 4.7 0-0.9-2-4.3-5-7.7zm-107 53.8c-3.4 0.2-6.1 1.1-6 2s2.9 1.3 6.3 1.1 6.1-1.1 6-2c-0.1-0.8-2.9-1.3-6.3-1.1zm73.6-61.2c-4.6 0.8-8.2 2.5-8 3.6 0.2 1.2 4.2 1.4 8.8 0.6s8.2-2.5 8-3.6-4-1.5-9-0.6zm104 32.2c-2.6 2.1-4.3 4.3-3.8 4.9s3.1-0.5 5.7-2.6 4.3-4.3 3.8-4.9-4 0.5-6 2.6zm-197-46.8c-2.9-1.7-5.5-2.6-6-1.9s1.5 2.7 4.4 4.5 5.5 2.6 6 1.9c0.4-0.7-1.5-2.7-4.4-4.5zm147 82c-1.5 1.2-2.5 2.4-2.2 2.8s1.8-0.3 3.3-1.5 2.5-2.4 2.2-2.8c0-0.3-2 0.3-3 1.5z" fill="#E7DE8F"/>
</svg>
