<svg version="1.1" id="Layer_1" xmlns="http://www.w3.org/2000/svg" xmlns:xlink="http://www.w3.org/1999/xlink" x="0px" y="0px"
	 width="300px" height="100px" viewBox="0 0 300 100" enable-background="new 0 0 300 100" xml:space="preserve">
<path id="Coin_Edge" fill="#D8B86F" d="M179,2.1c0,0,0.7,1,0.8,1c0.9,1.1-2,4.9-6.6,8.5c-4.2,3.3-8.2,5.2-9.5,4.6l-0.2-0.1
	c0,0-0.1-0.1-0.1-0.1c0,0-0.8-0.9-0.8-0.9l-1.5-1.9l16.4-12.9L179,2.1z M176.4,34.8l-10.5-11l-1.3,1.2c0,0-0.6,0.6-0.6,0.6
	c0,0,0,0-0.1,0.1l-0.1,0.1c-0.4,1,1.3,3.8,4,6.6c2.9,3,5.8,4.9,6.6,4.2c0,0,0.7-0.6,0.7-0.6L176.4,34.8z M83.4,76.7l-10.9,0.8
	l0.1,1.3c0,0,0.1,0.6,0.1,0.6c0,0,0,0,0,0.1l0,0.1c0.4,0.7,2.7,1,5.5,0.8c3-0.2,5.4-1,5.4-1.8c0,0,0-0.7,0-0.7L83.4,76.7z
	 M150.9,21.9l-15,2.7l0.3,1.7c0,0,0.2,0.8,0.2,0.9c0,0,0,0.1,0,0.1l0.1,0.1c0.6,0.8,3.9,1,7.7,0.3c4.1-0.7,7.3-2.2,7.1-3.2
	c0-0.1-0.2-0.9-0.2-0.9L150.9,21.9z M240.2,47.7l-8.5,6.7l0.8,1c0,0,0.4,0.5,0.4,0.5c0,0,0,0,0,0.1l0.1,0.1c0.7,0.3,2.8-0.7,4.9-2.4
	c2.3-1.8,3.8-3.8,3.4-4.4c0,0-0.4-0.5-0.4-0.5L240.2,47.7z M64.8,12.5l-9.2-5.6L55,7.9c0,0-0.3,0.5-0.3,0.5c0,0,0,0,0,0.1l0,0.1
	c-0.1,0.7,1.6,2.4,3.9,3.8c2.5,1.5,4.9,2.3,5.3,1.6c0,0,0.3-0.6,0.3-0.6L64.8,12.5z M193.6,79.9l-4.8,3.8l0.4,0.6
	c0,0,0.2,0.3,0.2,0.3c0,0,0,0,0,0l0.1,0c0.4,0.2,1.6-0.4,2.8-1.3c1.3-1,2.2-2.2,1.9-2.5c0,0-0.2-0.3-0.2-0.3L193.6,79.9z"/>
<path id="Coin_Ridges" fill="#AA8D52" d="M176.8,1.8l2.6,3.3c0,0.1-0.1,0.1-0.1,0.2l-2.6-3.4L176.8,1.8z M177.1,1.5l2.5,3.2
	c0-0.1,0.1-0.1,0.1-0.2l-2.4-3.1L177.1,1.5z M177.6,1.2l2.3,2.9c0-0.1,0-0.2,0.1-0.2l-2.2-2.8L177.6,1.2z M172.3,5.4l3.3,4.2
	c0,0,0.1-0.1,0.1-0.1l-3.3-4.2L172.3,5.4z M172.7,5l3.3,4.2c0,0,0.1-0.1,0.1-0.1l-3.3-4.2L172.7,5z M174,4l3.2,4
	c0,0,0.1-0.1,0.1-0.1l-3.1-4L174,4z M174.9,3.3l3,3.9c0,0,0.1-0.1,0.1-0.1l-3-3.8L174.9,3.3z M175.8,2.6l2.9,3.6
	c0-0.1,0.1-0.1,0.1-0.2L176,2.5L175.8,2.6z M174.5,3.6l3.1,3.9c0,0,0.1-0.1,0.1-0.1l-3.1-3.9L174.5,3.6z M175.4,2.9l3,3.8
	c0-0.1,0.1-0.1,0.1-0.2l-2.9-3.7L175.4,2.9z M176.2,2.2l2.8,3.5c0-0.1,0.1-0.1,0.1-0.2l-2.7-3.5L176.2,2.2z M173.6,4.3l3.2,4.1
	c0,0,0.1-0.1,0.1-0.1l-3.2-4.1L173.6,4.3z M171.8,5.7l3.3,4.2c0,0,0.1-0.1,0.1-0.1L172,5.6L171.8,5.7z M173.2,4.7l3.2,4.1
	c0,0,0.1-0.1,0.1-0.1l-3.2-4.1L173.2,4.7z M169.6,7.4l3.4,4.3c0,0,0.1-0.1,0.1-0.1l-3.4-4.3L169.6,7.4z M166.1,10.2l3.2,4.1
	c0.1,0,0.1-0.1,0.2-0.1l-3.2-4.1L166.1,10.2z M164.3,11.6l3,3.8c0.1,0,0.1-0.1,0.2-0.1l-3-3.8L164.3,11.6z M165.7,10.6l3.2,4
	c0.1,0,0.1-0.1,0.2-0.1l-3.2-4L165.7,10.6z M163.9,12l2.9,3.7c0.1,0,0.1-0.1,0.2-0.1l-2.9-3.7L163.9,12z M165.2,10.9l3.1,3.9
	c0.1,0,0.1-0.1,0.2-0.1l-3.1-4L165.2,10.9z M164.8,11.3l3,3.9c0.1,0,0.1-0.1,0.2-0.1l-3.1-3.9L164.8,11.3z M163.4,12.3l2.8,3.5
	c0.1,0,0.1,0,0.2-0.1l-2.8-3.6L163.4,12.3z M162.1,13.3l2.3,3c0.1,0,0.1,0,0.2,0l-2.4-3L162.1,13.3z M161.7,13.7l2,2.5l0,0
	c0.1,0,0.2,0.1,0.3,0.1l-2.1-2.7L161.7,13.7z M162.6,13l2.5,3.2c0.1,0,0.1,0,0.2,0l-2.6-3.3L162.6,13z M163,12.7l2.7,3.4
	c0.1,0,0.1,0,0.2-0.1l-2.7-3.4L163,12.7z M167.4,9.2l3.3,4.2c0.1,0,0.1-0.1,0.2-0.1l-3.3-4.2L167.4,9.2z M170.1,7.1l3.4,4.3
	c0,0,0.1-0.1,0.1-0.1L170.2,7L170.1,7.1z M169.2,7.8l3.4,4.3c0,0,0.1-0.1,0.1-0.1l-3.4-4.3L169.2,7.8z M170.5,6.7l3.4,4.3
	c0,0,0.1-0.1,0.1-0.1l-3.4-4.3L170.5,6.7z M171,6.4l3.4,4.3c0,0,0.1-0.1,0.1-0.1l-3.4-4.3L171,6.4z M166.5,9.9l3.3,4.1
	c0.1,0,0.1-0.1,0.2-0.1l-3.3-4.1L166.5,9.9z M168.7,8.1l3.4,4.3c0.1,0,0.1-0.1,0.2-0.1L168.9,8L168.7,8.1z M168.3,8.5l3.4,4.3
	c0.1,0,0.1-0.1,0.2-0.1l-3.4-4.3L168.3,8.5z M171.4,6.1l3.4,4.3c0,0,0.1-0.1,0.1-0.1l-3.4-4.3L171.4,6.1z M167,9.5l3.3,4.2
	c0.1,0,0.1-0.1,0.2-0.1l-3.3-4.2L167,9.5z M167.9,8.8l3.3,4.2c0.1,0,0.1-0.1,0.2-0.1L168,8.7L167.9,8.8z M150,22.6l0.5,3
	c0,0-0.1,0.1-0.1,0.1l-0.6-3.1L150,22.6z M150.2,22.6l0.5,2.9c0,0,0.1-0.1,0.1-0.1l-0.5-2.8L150.2,22.6z M150.6,22.5l0.5,2.6
	c0,0,0.1-0.1,0.1-0.1l-0.5-2.5L150.6,22.5z M145.8,23.4l0.7,3.8c0,0,0.1,0,0.1,0l-0.7-3.8L145.8,23.4z M146.2,23.3l0.7,3.8
	c0,0,0.1,0,0.1,0l-0.7-3.8L146.2,23.3z M147.4,23.1l0.7,3.7c0,0,0.1,0,0.1,0l-0.7-3.6L147.4,23.1z M148.2,23l0.6,3.5
	c0,0,0.1,0,0.1-0.1l-0.6-3.5L148.2,23z M149,22.8l0.6,3.3c0,0,0.1,0,0.1-0.1l-0.6-3.3L149,22.8z M147.8,23l0.7,3.6c0,0,0.1,0,0.1,0
	L148,23L147.8,23z M148.6,22.9l0.6,3.4c0,0,0.1,0,0.1-0.1l-0.6-3.4L148.6,22.9z M149.4,22.7l0.6,3.2c0,0,0.1,0,0.1-0.1l-0.6-3.2
	L149.4,22.7z M147,23.2l0.7,3.7c0,0,0.1,0,0.1,0l-0.7-3.7L147,23.2z M145.4,23.5l0.7,3.9c0,0,0.1,0,0.1,0l-0.7-3.9L145.4,23.5z
	 M146.6,23.3l0.7,3.8c0,0,0.1,0,0.1,0l-0.7-3.7L146.6,23.3z M143.4,23.8l0.7,3.9c0,0,0.1,0,0.1,0l-0.7-3.9L143.4,23.8z M140.2,24.4
	l0.7,3.7c0,0,0.1,0,0.1,0l-0.7-3.7L140.2,24.4z M138.6,24.7l0.6,3.4c0,0,0.1,0,0.1,0l-0.6-3.5L138.6,24.7z M139.8,24.5l0.7,3.7
	c0,0,0.1,0,0.1,0l-0.7-3.7L139.8,24.5z M138.2,24.8l0.6,3.3c0,0,0.1,0,0.1,0l-0.6-3.4L138.2,24.8z M139.4,24.6l0.7,3.6
	c0,0,0.1,0,0.1,0l-0.7-3.6L139.4,24.6z M139,24.6l0.6,3.5c0,0,0.1,0,0.1,0l-0.6-3.6L139,24.6z M137.8,24.9l0.6,3.2c0,0,0.1,0,0.1,0
	l-0.6-3.3L137.8,24.9z M136.6,25.1l0.5,2.7c0,0,0.1,0,0.1,0.1l-0.5-2.8L136.6,25.1z M136.2,25.2l0.4,2.3l0,0c0,0.1,0.1,0.1,0.2,0.2
	l-0.4-2.5L136.2,25.2z M137,25l0.5,2.9c0,0,0.1,0,0.1,0l-0.5-3L137,25z M137.4,24.9l0.6,3.1c0,0,0.1,0,0.1,0l-0.6-3.1L137.4,24.9z
	 M141.4,24.2l0.7,3.8c0,0,0.1,0,0.1,0l-0.7-3.9L141.4,24.2z M143.8,23.8l0.7,3.9c0,0,0.1,0,0.1,0l-0.7-3.9L143.8,23.8z M143,23.9
	l0.7,3.9c0,0,0.1,0,0.1,0l-0.7-3.9L143,23.9z M144.2,23.7l0.7,3.9c0,0,0.1,0,0.1,0l-0.7-3.9L144.2,23.7z M144.6,23.6l0.7,3.9
	c0,0,0.1,0,0.1,0l-0.7-3.9L144.6,23.6z M140.6,24.3l0.7,3.8c0,0,0.1,0,0.1,0l-0.7-3.8L140.6,24.3z M142.6,24l0.7,3.9
	c0,0,0.1,0,0.1,0l-0.7-3.9L142.6,24z M142.2,24.1l0.7,3.9c0,0,0.1,0,0.1,0l-0.7-3.9L142.2,24.1z M145,23.5l0.7,3.9c0,0,0.1,0,0.1,0
	l-0.7-3.9L145,23.5z M141,24.3l0.7,3.8c0,0,0.1,0,0.1,0l-0.7-3.8L141,24.3z M141.8,24.1l0.7,3.9c0,0,0.1,0,0.1,0l-0.7-3.9
	L141.8,24.1z M175.2,34.4l-2.2,2.1c0,0-0.1,0-0.1-0.1L175.2,34.4L175.2,34.4z M175.4,34.6l-2.1,2c0,0,0.1,0,0.1,0L175.4,34.6
	L175.4,34.6z M175.7,34.9l-1.9,1.9c0.1,0,0.1,0,0.2,0L175.7,34.9L175.7,34.9z M172.3,31.3l-2.8,2.7c0,0,0.1,0.1,0.1,0.1L172.3,31.3
	L172.3,31.3z M172.6,31.6l-2.8,2.7c0,0,0.1,0.1,0.1,0.1L172.6,31.6L172.6,31.6z M173.4,32.5l-2.7,2.6c0,0,0.1,0.1,0.1,0.1
	L173.4,32.5L173.4,32.5z M174,33.1l-2.6,2.5c0,0,0.1,0.1,0.1,0.1L174,33.1L174,33.1z M174.6,33.7l-2.4,2.3c0,0,0.1,0,0.1,0.1
	L174.6,33.7L174.6,33.7z M173.7,32.8l-2.6,2.5c0,0,0.1,0.1,0.1,0.1L173.7,32.8L173.7,32.8z M174.3,33.4l-2.5,2.4
	c0,0,0.1,0.1,0.1,0.1L174.3,33.4L174.3,33.4z M174.8,34l-2.4,2.2c0,0,0.1,0,0.1,0.1L174.8,34L174.8,34z M173.1,32.2l-2.7,2.6
	c0,0,0.1,0.1,0.1,0.1L173.1,32.2L173.1,32.2z M172,31l-2.8,2.7c0,0,0.1,0.1,0.1,0.1L172,31L172,31z M172.9,31.9l-2.8,2.6
	c0,0,0.1,0.1,0.1,0.1L172.9,31.9L172.9,31.9z M170.6,29.5l-2.9,2.7c0,0,0.1,0.1,0.1,0.1L170.6,29.5L170.6,29.5z M168.4,27.2
	l-2.7,2.6c0,0,0.1,0.1,0.1,0.1L168.4,27.2L168.4,27.2z M167.2,26l-2.5,2.4c0,0,0,0.1,0.1,0.1L167.2,26L167.2,26z M168.1,26.9
	l-2.7,2.6c0,0,0.1,0.1,0.1,0.1L168.1,26.9L168.1,26.9z M167,25.7l-2.5,2.3c0,0,0,0.1,0.1,0.1L167,25.7L167,25.7z M167.8,26.6
	l-2.7,2.5c0,0,0.1,0.1,0.1,0.1L167.8,26.6L167.8,26.6z M167.5,26.3l-2.6,2.5c0,0,0,0.1,0.1,0.1L167.5,26.3L167.5,26.3z M166.7,25.4
	l-2.4,2.3c0,0,0,0.1,0.1,0.1L166.7,25.4L166.7,25.4z M165.8,24.5l-2,1.9c0,0.1,0,0.1,0,0.2L165.8,24.5L165.8,24.5z M165.5,24.2
	l-1.7,1.6l0,0c0,0.1,0,0.1,0,0.2L165.5,24.2L165.5,24.2z M166.1,24.8l-2.2,2c0,0,0,0.1,0,0.1L166.1,24.8L166.1,24.8z M166.4,25.1
	l-2.3,2.2c0,0,0,0.1,0.1,0.1L166.4,25.1L166.4,25.1z M169.2,28l-2.8,2.7c0,0,0.1,0.1,0.1,0.1L169.2,28L169.2,28z M170.9,29.8
	l-2.9,2.7c0,0,0.1,0.1,0.1,0.1L170.9,29.8L170.9,29.8z M170.3,29.2l-2.9,2.7c0,0,0.1,0.1,0.1,0.1L170.3,29.2L170.3,29.2z
	 M171.2,30.1l-2.9,2.7c0,0,0.1,0.1,0.1,0.1L171.2,30.1L171.2,30.1z M171.5,30.4l-2.9,2.7c0,0,0.1,0.1,0.1,0.1L171.5,30.4L171.5,30.4
	z M168.6,27.5l-2.8,2.6c0,0,0.1,0.1,0.1,0.1L168.6,27.5L168.6,27.5z M170,28.9l-2.9,2.7c0,0,0.1,0.1,0.1,0.1L170,28.9L170,28.9z
	 M169.8,28.6l-2.9,2.7c0,0,0.1,0.1,0.1,0.1L169.8,28.6L169.8,28.6z M171.7,30.7l-2.9,2.7c0,0,0.1,0.1,0.1,0.1L171.7,30.7L171.7,30.7
	z M168.9,27.7l-2.8,2.7c0,0,0.1,0.1,0.1,0.1L168.9,27.7L168.9,27.7z M169.5,28.3l-2.8,2.7c0,0,0.1,0.1,0.1,0.1L169.5,28.3
	L169.5,28.3z M193.4,80.4l0.8,1c0,0,0,0,0,0.1L193.4,80.4L193.4,80.4z M193.5,80.3l0.7,0.9c0,0,0,0,0-0.1L193.5,80.3L193.5,80.3z
	 M193.6,80.2l0.7,0.9c0,0,0,0,0-0.1L193.6,80.2L193.6,80.2z M192.1,81.4l1,1.2c0,0,0,0,0,0L192.1,81.4L192.1,81.4z M192.2,81.3
	l1,1.2c0,0,0,0,0,0L192.2,81.3L192.2,81.3z M192.6,81l0.9,1.2c0,0,0,0,0,0L192.6,81L192.6,81z M192.9,80.8l0.9,1.1c0,0,0,0,0,0
	L192.9,80.8L192.9,80.8z M193.1,80.6l0.8,1.1c0,0,0,0,0,0L193.1,80.6L193.1,80.6z M192.7,80.9l0.9,1.2c0,0,0,0,0,0L192.7,80.9
	L192.7,80.9z M193,80.7l0.9,1.1c0,0,0,0,0,0L193,80.7L193,80.7z M193.3,80.5l0.8,1c0,0,0,0,0,0L193.3,80.5L193.3,80.5z M192.5,81.1
	l0.9,1.2c0,0,0,0,0,0L192.5,81.1L192.5,81.1z M192,81.5l1,1.2c0,0,0,0,0,0L192,81.5L192,81.5z M192.3,81.2l1,1.2c0,0,0,0,0,0
	L192.3,81.2L192.3,81.2z M191.3,82l1,1.3c0,0,0,0,0,0L191.3,82L191.3,82z M190.3,82.9l0.9,1.2c0,0,0,0,0,0L190.3,82.9L190.3,82.9z
	 M189.8,83.3l0.9,1.1c0,0,0,0,0.1,0L189.8,83.3L189.8,83.3z M190.1,83l0.9,1.2c0,0,0,0,0,0L190.1,83L190.1,83z M189.6,83.4l0.8,1.1
	c0,0,0,0,0.1,0L189.6,83.4L189.6,83.4z M190,83.1l0.9,1.2c0,0,0,0,0,0L190,83.1L190,83.1z M189.9,83.2l0.9,1.1c0,0,0,0,0,0
	L189.9,83.2L189.9,83.2z M189.5,83.5l0.8,1c0,0,0,0,0.1,0L189.5,83.5L189.5,83.5z M189.1,83.8l0.7,0.9c0,0,0,0,0.1,0L189.1,83.8
	L189.1,83.8z M189,83.9l0.6,0.7l0,0c0,0,0.1,0,0.1,0L189,83.9L189,83.9z M189.2,83.7l0.7,0.9c0,0,0,0,0.1,0L189.2,83.7L189.2,83.7z
	 M189.4,83.6l0.8,1c0,0,0,0,0.1,0L189.4,83.6L189.4,83.6z M190.7,82.5l1,1.2c0,0,0,0,0,0L190.7,82.5L190.7,82.5z M191.4,81.9l1,1.3
	c0,0,0,0,0,0L191.4,81.9L191.4,81.9z M191.2,82.1l1,1.3c0,0,0,0,0,0L191.2,82.1L191.2,82.1z M191.6,81.8l1,1.3c0,0,0,0,0,0
	L191.6,81.8L191.6,81.8z M191.7,81.7l1,1.3c0,0,0,0,0,0L191.7,81.7L191.7,81.7z M190.4,82.8l1,1.2c0,0,0,0,0,0L190.4,82.8
	L190.4,82.8z M191.1,82.2l1,1.3c0,0,0,0,0,0L191.1,82.2L191.1,82.2z M190.9,82.3l1,1.3c0,0,0,0,0,0L190.9,82.3L190.9,82.3z
	 M191.8,81.6l1,1.3c0,0,0,0,0,0L191.8,81.6L191.8,81.6z M190.5,82.6l1,1.2c0,0,0,0,0,0L190.5,82.6L190.5,82.6z M190.8,82.4l1,1.2
	c0,0,0,0,0,0L190.8,82.4L190.8,82.4z M239.9,48.5l1.3,1.7c0,0,0,0.1-0.1,0.1L239.9,48.5L239.9,48.5z M240,48.4l1.3,1.6
	c0,0,0-0.1,0-0.1L240,48.4L240,48.4z M240.2,48.2l1.2,1.5c0,0,0-0.1,0-0.1L240.2,48.2L240.2,48.2z M237.5,50.3l1.7,2.2
	c0,0,0,0,0.1-0.1L237.5,50.3L237.5,50.3z M237.7,50.2l1.7,2.2c0,0,0,0,0.1-0.1L237.7,50.2L237.7,50.2z M238.4,49.6l1.6,2.1
	c0,0,0,0,0.1-0.1L238.4,49.6L238.4,49.6z M238.9,49.3l1.6,2c0,0,0-0.1,0.1-0.1L238.9,49.3L238.9,49.3z M239.3,48.9l1.5,1.9
	c0,0,0-0.1,0.1-0.1L239.3,48.9L239.3,48.9z M238.6,49.4l1.6,2c0,0,0,0,0.1-0.1L238.6,49.4L238.6,49.4z M239.1,49.1l1.5,1.9
	c0,0,0-0.1,0.1-0.1L239.1,49.1L239.1,49.1z M239.6,48.7l1.4,1.8c0,0,0-0.1,0.1-0.1L239.6,48.7L239.6,48.7z M238.2,49.8l1.7,2.1
	c0,0,0,0,0.1-0.1L238.2,49.8L238.2,49.8z M237.3,50.5l1.7,2.2c0,0,0,0,0.1-0.1L237.3,50.5L237.3,50.5z M238,50l1.7,2.1
	c0,0,0,0,0.1-0.1L238,50L238,50z M236.1,51.4l1.7,2.2c0,0,0.1,0,0.1-0.1L236.1,51.4L236.1,51.4z M234.3,52.9L236,55
	c0,0,0.1,0,0.1-0.1L234.3,52.9L234.3,52.9z M233.4,53.6l1.5,1.9c0,0,0.1,0,0.1,0L233.4,53.6L233.4,53.6z M234.1,53l1.6,2.1
	c0,0,0.1,0,0.1,0L234.1,53L234.1,53z M233.2,53.7l1.5,1.9c0,0,0.1,0,0.1,0L233.2,53.7L233.2,53.7z M233.9,53.2l1.6,2
	c0,0,0.1,0,0.1,0L233.9,53.2L233.9,53.2z M233.6,53.4l1.6,2c0,0,0.1,0,0.1,0L233.6,53.4L233.6,53.4z M233,53.9l1.4,1.8
	c0,0,0.1,0,0.1,0L233,53.9L233,53.9z M232.3,54.5l1.2,1.5c0,0,0.1,0,0.1,0L232.3,54.5L232.3,54.5z M232,54.6l1,1.3l0,0
	c0,0,0.1,0,0.2,0L232,54.6L232,54.6z M232.5,54.3l1.3,1.7c0,0,0.1,0,0.1,0L232.5,54.3L232.5,54.3z M232.7,54.1l1.4,1.7
	c0,0,0.1,0,0.1,0L232.7,54.1L232.7,54.1z M235,52.3l1.7,2.2c0,0,0.1,0,0.1-0.1L235,52.3L235,52.3z M236.4,51.2l1.7,2.2
	c0,0,0.1,0,0.1-0.1L236.4,51.2L236.4,51.2z M235.9,51.6l1.7,2.2c0,0,0.1,0,0.1-0.1L235.9,51.6L235.9,51.6z M236.6,51.1l1.7,2.2
	c0,0,0.1,0,0.1-0.1L236.6,51.1L236.6,51.1z M236.8,50.9l1.7,2.2c0,0,0,0,0.1-0.1L236.8,50.9L236.8,50.9z M234.5,52.7l1.7,2.1
	c0,0,0.1,0,0.1-0.1L234.5,52.7L234.5,52.7z M235.7,51.8l1.7,2.2c0,0,0.1,0,0.1-0.1L235.7,51.8L235.7,51.8z M235.5,52l1.7,2.2
	c0,0,0.1,0,0.1-0.1L235.5,52L235.5,52z M237.1,50.7l1.7,2.2c0,0,0,0,0.1-0.1L237.1,50.7L237.1,50.7z M234.8,52.5l1.7,2.2
	c0,0,0.1,0,0.1-0.1L234.8,52.5L234.8,52.5z M235.2,52.1l1.7,2.2c0,0,0.1,0,0.1-0.1L235.2,52.1L235.2,52.1z M82.6,77.1l0.2,2.2
	c0,0-0.1,0-0.1,0L82.6,77.1L82.6,77.1z M82.8,77.1l0.2,2.1c0,0,0.1,0,0.1-0.1L82.8,77.1L82.8,77.1z M83.1,77.1l0.1,1.9
	c0,0,0.1-0.1,0.1-0.1L83.1,77.1L83.1,77.1z M79.6,77.4l0.2,2.8c0,0,0.1,0,0.1,0L79.6,77.4L79.6,77.4z M79.9,77.3l0.2,2.8
	c0,0,0.1,0,0.1,0L79.9,77.3L79.9,77.3z M80.8,77.3L81,80c0,0,0.1,0,0.1,0L80.8,77.3L80.8,77.3z M81.3,77.2l0.2,2.6c0,0,0.1,0,0.1,0
	L81.3,77.2L81.3,77.2z M81.9,77.2l0.2,2.4c0,0,0.1,0,0.1,0L81.9,77.2L81.9,77.2z M81.1,77.3l0.2,2.6c0,0,0.1,0,0.1,0L81.1,77.3
	L81.1,77.3z M81.6,77.2l0.2,2.5c0,0,0.1,0,0.1,0L81.6,77.2L81.6,77.2z M82.2,77.2l0.2,2.3c0,0,0.1,0,0.1,0L82.2,77.2L82.2,77.2z
	 M80.5,77.3l0.2,2.7c0,0,0.1,0,0.1,0L80.5,77.3L80.5,77.3z M79.3,77.4l0.2,2.8c0,0,0.1,0,0.1,0L79.3,77.4L79.3,77.4z M80.2,77.3
	l0.2,2.7c0,0,0.1,0,0.1,0L80.2,77.3L80.2,77.3z M77.8,77.5l0.2,2.9c0,0,0.1,0,0.1,0L77.8,77.5L77.8,77.5z M75.5,77.7l0.2,2.7
	c0,0,0.1,0,0.1,0L75.5,77.7L75.5,77.7z M74.3,77.7l0.2,2.5c0,0,0.1,0,0.1,0L74.3,77.7L74.3,77.7z M75.2,77.7l0.2,2.7
	c0,0,0.1,0,0.1,0L75.2,77.7L75.2,77.7z M74,77.8l0.2,2.4c0,0,0.1,0,0.1,0L74,77.8L74,77.8z M74.9,77.7l0.2,2.6c0,0,0.1,0,0.1,0
	L74.9,77.7L74.9,77.7z M74.6,77.7l0.2,2.6c0,0,0.1,0,0.1,0L74.6,77.7L74.6,77.7z M73.7,77.8l0.2,2.4c0,0,0.1,0,0.1,0L73.7,77.8
	L73.7,77.8z M72.8,77.9l0.1,2c0,0,0.1,0,0.1,0.1L72.8,77.9L72.8,77.9z M72.5,77.9l0.1,1.7l0,0c0,0,0.1,0.1,0.1,0.1L72.5,77.9
	L72.5,77.9z M73.1,77.8l0.2,2.1c0,0,0.1,0,0.1,0L73.1,77.8L73.1,77.8z M73.4,77.8l0.2,2.3c0,0,0.1,0,0.1,0L73.4,77.8L73.4,77.8z
	 M76.3,77.6l0.2,2.8c0,0,0.1,0,0.1,0L76.3,77.6L76.3,77.6z M78.1,77.5l0.2,2.9c0,0,0.1,0,0.1,0L78.1,77.5L78.1,77.5z M77.5,77.5
	l0.2,2.9c0,0,0.1,0,0.1,0L77.5,77.5L77.5,77.5z M78.4,77.5l0.2,2.9c0,0,0.1,0,0.1,0L78.4,77.5L78.4,77.5z M78.7,77.4l0.2,2.9
	c0,0,0.1,0,0.1,0L78.7,77.4L78.7,77.4z M75.8,77.6l0.2,2.8c0,0,0.1,0,0.1,0L75.8,77.6L75.8,77.6z M77.2,77.5l0.2,2.9
	c0,0,0.1,0,0.1,0L77.2,77.5L77.2,77.5z M76.9,77.6l0.2,2.8c0,0,0.1,0,0.1,0L76.9,77.6L76.9,77.6z M79,77.4l0.2,2.8c0,0,0.1,0,0.1,0
	L79,77.4L79,77.4z M76.1,77.6l0.2,2.8c0,0,0.1,0,0.1,0L76.1,77.6L76.1,77.6z M76.6,77.6l0.2,2.8c0,0,0.1,0,0.1,0L76.6,77.6
	L76.6,77.6z M63.9,12.4l-1.1,1.9c0,0-0.1,0-0.1,0L63.9,12.4L63.9,12.4z M64.1,12.5L63,14.3c0,0,0.1,0,0.1,0L64.1,12.5L64.1,12.5z
	 M64.4,12.7l-1,1.6c0,0,0.1,0,0.1,0L64.4,12.7L64.4,12.7z M61.4,10.8L60,13.2c0,0,0.1,0,0.1,0L61.4,10.8L61.4,10.8z M61.6,11
	l-1.4,2.3c0,0,0.1,0,0.1,0L61.6,11L61.6,11z M62.4,11.4L61,13.7c0,0,0.1,0,0.1,0L62.4,11.4L62.4,11.4z M62.9,11.7l-1.3,2.2
	c0,0,0.1,0,0.1,0L62.9,11.7L62.9,11.7z M63.4,12l-1.2,2c0,0,0.1,0,0.1,0L63.4,12L63.4,12z M62.6,11.6l-1.3,2.2c0,0,0.1,0,0.1,0
	L62.6,11.6L62.6,11.6z M63.1,11.9L61.8,14c0,0,0.1,0,0.1,0L63.1,11.9L63.1,11.9z M63.6,12.2l-1.2,2c0,0,0.1,0,0.1,0L63.6,12.2
	L63.6,12.2z M62.1,11.3l-1.4,2.3c0,0,0.1,0,0.1,0L62.1,11.3L62.1,11.3z M61.1,10.7l-1.4,2.4c0,0,0.1,0,0.1,0L61.1,10.7L61.1,10.7z
	 M61.9,11.1l-1.4,2.3c0,0,0.1,0,0.1,0L61.9,11.1L61.9,11.1z M59.9,9.9l-1.5,2.4c0,0,0.1,0,0.1,0.1L59.9,9.9L59.9,9.9z M57.9,8.7
	L56.5,11c0,0,0.1,0,0.1,0.1L57.9,8.7L57.9,8.7z M56.9,8.1l-1.3,2.1c0,0,0,0,0.1,0.1L56.9,8.1L56.9,8.1z M57.7,8.6l-1.4,2.3
	c0,0,0,0,0.1,0.1L57.7,8.6L57.7,8.6z M56.7,8L55.4,10c0,0,0,0,0.1,0.1L56.7,8L56.7,8z M57.4,8.4l-1.3,2.2c0,0,0,0,0.1,0.1L57.4,8.4
	L57.4,8.4z M57.2,8.3l-1.3,2.2c0,0,0,0,0.1,0.1L57.2,8.3L57.2,8.3z M56.4,7.8l-1.2,2c0,0,0,0.1,0.1,0.1L56.4,7.8L56.4,7.8z
	 M55.7,7.4l-1,1.7c0,0,0,0.1,0.1,0.1L55.7,7.4L55.7,7.4z M55.5,7.2l-0.9,1.4l0,0c0,0.1,0,0.1,0,0.2L55.5,7.2L55.5,7.2z M56,7.5
	l-1.1,1.8c0,0,0,0.1,0.1,0.1L56,7.5L56,7.5z M56.2,7.7L55,9.6c0,0,0,0.1,0.1,0.1L56.2,7.7L56.2,7.7z M58.7,9.2l-1.4,2.4
	c0,0,0.1,0,0.1,0.1L58.7,9.2L58.7,9.2z M60.2,10.1l-1.5,2.4c0,0,0.1,0,0.1,0L60.2,10.1L60.2,10.1z M59.7,9.8l-1.5,2.4
	c0,0,0.1,0,0.1,0.1L59.7,9.8L59.7,9.8z M60.4,10.2l-1.5,2.4c0,0,0.1,0,0.1,0L60.4,10.2L60.4,10.2z M60.7,10.4l-1.5,2.4
	c0,0,0.1,0,0.1,0L60.7,10.4L60.7,10.4z M58.2,8.9l-1.4,2.3c0,0,0.1,0,0.1,0.1L58.2,8.9L58.2,8.9z M59.4,9.6L57.9,12
	c0,0,0.1,0,0.1,0.1L59.4,9.6L59.4,9.6z M59.2,9.5l-1.5,2.4c0,0,0.1,0,0.1,0.1L59.2,9.5L59.2,9.5z M60.9,10.5l-1.5,2.4
	c0,0,0.1,0,0.1,0L60.9,10.5L60.9,10.5z M58.4,9L57,11.4c0,0,0.1,0,0.1,0.1L58.4,9L58.4,9z M58.9,9.3l-1.5,2.4c0,0,0.1,0,0.1,0.1
	L58.9,9.3L58.9,9.3z"/>
<path id="Coin_Loight" fill="#E7DE8F" d="M177.5,0.3c0.9,1.1-2,4.9-6.6,8.5c-4.5,3.6-8.9,5.5-9.8,4.4s2-4.9,6.6-8.5
	C172.2,1.2,176.6-0.8,177.5,0.3z M172.4,28c-2.9-3-5.8-4.9-6.6-4.2c-0.8,0.7,1,3.8,3.8,6.8c2.9,3,5.8,4.9,6.6,4.2
	C177,34.1,175.3,31,172.4,28z M77.7,75.8c-3,0.2-5.4,1-5.4,1.8c0.1,0.8,2.5,1.2,5.6,1s5.4-1,5.4-1.8C83.2,76,80.7,75.6,77.7,75.8z
	 M143,21.5c-4.1,0.7-7.3,2.2-7.1,3.2c0.2,1,3.7,1.3,7.8,0.5c4.1-0.7,7.3-2.2,7.1-3.2C150.7,20.9,147.2,20.7,143,21.5z M235.1,50
	c-2.3,1.8-3.8,3.8-3.4,4.4c0.5,0.6,2.7-0.4,5.1-2.3s3.8-3.8,3.4-4.4C239.7,47.2,237.4,48.2,235.1,50z M60.8,8.6
	c-2.5-1.5-4.9-2.3-5.3-1.6s1.4,2.4,3.9,4s4.9,2.3,5.3,1.6C65.1,11.9,63.4,10.1,60.8,8.6z M190.7,81.3c-1.3,1-2.2,2.2-1.9,2.5
	c0.3,0.3,1.6-0.2,2.9-1.3s2.2-2.2,1.9-2.5C193.3,79.6,192,80.2,190.7,81.3z"/>
</svg>
