<svg version="1.1" id="Layer_1" xmlns="http://www.w3.org/2000/svg" xmlns:xlink="http://www.w3.org/1999/xlink" x="0px" y="0px"
	 width="400px" height="449px" viewBox="0 0 400 449" style="enable-background:new 0 0 400 449;" xml:space="preserve">
<path id="Speed_Lines" style="fill:#153482;" d="M86.7,383.8L87.1,1.9l0.5,381.9H86.7z M113.1,319.6l-0.5-144.9l-0.5,144.9H113.1z
	 M109.4,318.4l-0.5-80.6l-0.5,80.6H109.4z M211.9,340.2l-0.5-319.5L211,340.2H211.9z M216.1,339l-0.5-85.5l-0.5,85.5H216.1z
	 M204.6,339l-0.5-254l-0.5,254H204.6z M301,350l-0.5-95.3L300,350H301z"/>
<path id="Base" style="fill:#DDD6B8;" d="M376,349.2c-4.1-2.7-7.6-3.3-10.5-5.5c-2-1.6-4.5-3.3-6.8-5.6c-8.1-5-17.1-3.9-25-1.9
	c-7.6,1.9-18.2,9.5-20.9,18.2c-9.7-4.8-20.7-7.4-30.2-7.2c-2.9-4.6-7.9-7.8-13.3-8c-23.8-0.9-49.4,0.7-74,1.1c-1-0.1-1.9,0-2.8,0.3
	c-2.2-2.1-5.6-3.5-9.3-3.5c-6.7,0-12.2,4.4-12.2,9.8c0,2.1,0.8,4,2.2,5.6c-1.2,0.6-2,1.8-2,3.1c0,1.9,1.6,3.5,3.5,3.5h15.8
	c1.4,1,3,1.6,4.7,1.8c3.4,0.4,6.9,0.8,10.4,1.3c-12.4,0.7-25.1,5.2-34.6,13.2c-7.4-1.3-14.7,0.2-21.9,1.9c-6.4-13-12.7-26-19.1-39
	c-1.4-2.9-4.9-4.1-7.9-2.7c-3.3-5.6-5.1-8.6-8.3-14c-1.4-2.4-4.2-2.6-6.4-0.5c-7.9,7.3-15.7,14.5-24.2,20.5
	c-2.2,1.6-3.8,4.5-3.8,7.4c-1.9-0.1-3.7,0.1-5.5,0.9c-3-4.6-5.1-7.8-8.7-13.2c-1.8-2.7-5.3-3.8-8.3-2.5c-10.5,4.2-21,8.3-31.6,12.4
	c-4.3,1.6-5.9,6.9-3.2,10.6c0.7,1,1.1,1.5,1.8,2.5c1.6,2.3,4.4,3.3,7.1,2.8c2.8-0.6,4.2-0.9,7-1.5c1.4-0.3,2.9-0.4,4.3-0.2
	c7.9,0.9,12.7,1.4,19.3,2.1c-0.9,1.1-1.8,2.3-2.8,3.6c-0.7,0.7-0.6,1.9,0.1,2.6c13.9,12.7,27.9,25.5,41.9,38.2
	c3.4,3.1,7.5,5.4,11.9,6.7c34.8,10,70,18.1,106.6,18.1c24.4-1.7,47.4-6.6,70.1-12.3c8.8-2.2,16.9-8.8,24.5-13.5
	c1.7-1,6.7,0.8,8.4-0.4c4.9-0.1,8.7-2.3,11.2-5.4c1.6,0.3,2.7-0.9,3.1-4.8c11.4-4,24.3-4,35.2-9.3
	C385.3,375.8,382.9,362.7,376,349.2z M110.4,373.6c-6.7-6.1-13.5-12.2-20.2-18.3c1-0.5,1.9-1.1,3.1-1.9c1.1-0.7,2.2-1.2,3.3-1.4
	c0.3-0.1,0.6-0.1,0.9-0.2c3.8-0.9,7.6,0.8,9.3,4.2c3.6,7.4,7.3,14.8,10.9,22.1C115,377.1,112.5,375.5,110.4,373.6z"/>
<path id="Reflected_Light" style="opacity:0.57;fill:#D3E0D5;" d="M104.4,353.2c-0.1,0-0.1-0.1-0.2-0.1
	C104.3,353.1,104.4,353.2,104.4,353.2z M105.1,353.8c0,0-0.1-0.1-0.1-0.1C105,353.7,105.1,353.7,105.1,353.8z M103.5,352.6
	c0,0,0.1,0.1,0.1,0.1C103.6,352.7,103.6,352.6,103.5,352.6z M105.7,354.4c0,0.1,0.1,0.1,0.1,0.2
	C105.8,354.5,105.7,354.4,105.7,354.4z M110.4,373.6c1.6,1.4,3.4,2.7,5.3,3.7C113.8,376.3,112,375.1,110.4,373.6z M106.3,355.3
	c0-0.1-0.1-0.1-0.1-0.2C106.2,355.1,106.3,355.2,106.3,355.3z M102.6,352.1c0.1,0,0.1,0,0.2,0.1
	C102.7,352.2,102.7,352.2,102.6,352.1z M105,390.4c-2.3-1.5-4.8-2.5-7.2-3.9c-1-0.6-1.6-1.4-2.8-1.7c-1-0.3-2.3,0.1-3.6-0.1
	c-2.6,0.2-2.5,3.5-1.4,5.2c1.3,1.9,3.8,3,5.5,4.5c1.2,1.1,2.4,2.1,3.4,3.4c0.7,0.8,0.9,1.4,1.8,1.9c0.9,0.5,1.9,0.2,2.7,1.1
	c1.2-0.7,0.6-2,1.3-2.9c0.9-1.1,2.9-0.8,3.8-1.7C110.8,394,106.9,391.7,105,390.4z M115.7,377.3c0.4,0.2,0.9,0.4,1.3,0.6
	C116.6,377.7,116.1,377.5,115.7,377.3z M233.2,372.8c-0.4,4.1-5.3,8.6-8.9,9.8c-4.2,1.5-9.1,1.6-13.3,3.1c-3.4,1.2-6.8,2.5-10.5,1.4
	c-2.4-0.8-4.6-2.8-7-3.4c-1.9-0.4-3.8,0.7-5.7,0.5c-0.7,0-0.9-0.9-1.4-0.9c-2.1,0-3.9,1.2-6,1.6c-0.8,0.1-2.5-0.2-3.2,0.1
	c-3.3,1.4-1.4,7.5-2.5,10.8c-1.5,4.4-6.1,6.1-10.4,6c-2.4-0.1-5-0.9-7.4-1.1c-4.5-0.3-8.4,0.1-12.8-1.2c-7.1-2.2-12.9-4.3-19.5-7.7
	c-4.2-2.2-8.2-3.6-12.1-6.3c-3.8-2.7-6.2-2.9-10.9-3.8c-3.3-0.6-6.6-1-9.2-3c-1.3-1-2.2-2.3-3.4-3.1c-1.2-0.7-2.1,0.1-3.1-1.3
	c-0.5-0.7,0.4-2-0.2-2.7c-0.4-0.5-3.7-2-4.3-2.2c-3.5-0.9-7.3-0.4-10.4-2.8c-2.1-1.6-1.5-1-2-3.9c-0.3-2,0-3.1-2.7-2.7
	c-0.1-3.7,0-5.1-4.3-5.5c-1.8-0.2-7.4,0.7-8.1-1.5c-0.8-2.4,6.5-0.4,8.1-0.6c3.5-0.4,7.6-3.4,11.5-3.3c0.2,0.2,0.3,0.5,0.5,0.7
	c0.5-0.2,0.9-0.3,1.4-0.5c0.6-0.2,1.1-0.3,1.7-0.3c0.8-0.1,1.6-0.1,2.4-0.1c0-0.3,0-0.6,0-0.9c0.2-2.6,1.8-5.1,3.8-6.4
	c8.6-6,16.3-13.2,24.2-20.5c2.3-2.1,5-1.8,6.4,0.5c3.2,5.4,5,8.4,8.3,14c3-1.3,6.4-0.2,7.9,2.7c6.7,13.7,13.5,27.4,20.2,41.2
	c0,0,0,0,0,0c0.3,0.7,1.1,1.1,1.8,1c6.5-1,12.1-6.4,19-5.1c12.1-10.1,29.2-12.8,44.4-11.3c3.4,0.3,12.5,2,15.7,2.8
	C233.7,367.4,230.8,373,233.2,372.8z M117.6,378.2C117.6,378.2,117.6,378.2,117.6,378.2C117.6,378.2,117.6,378.2,117.6,378.2
	c-3.6-7.4-7.2-14.8-10.9-22.1c-0.1-0.3-0.3-0.5-0.4-0.8c0-0.1-0.1-0.1-0.1-0.2c-0.1-0.2-0.3-0.4-0.4-0.5c0-0.1-0.1-0.1-0.1-0.2
	c-0.2-0.2-0.4-0.4-0.6-0.6c0,0-0.1-0.1-0.1-0.1c-0.2-0.2-0.3-0.3-0.5-0.4c-0.1-0.1-0.1-0.1-0.2-0.1c-0.2-0.1-0.4-0.3-0.6-0.4
	c0,0-0.1-0.1-0.1-0.1c-0.2-0.1-0.5-0.3-0.7-0.4c-0.1,0-0.1-0.1-0.2-0.1c-0.2-0.1-0.4-0.2-0.6-0.2c-0.1,0-0.1,0-0.2-0.1
	c-0.5-0.2-1.1-0.2-1.6-0.3c-0.1,0-0.2,0-0.2,0c-0.2,0-0.4,0-0.6,0c-0.1,0-0.2,0-0.3,0c-0.2,0-0.4,0-0.6,0c-0.1,0-0.2,0-0.3,0
	c-0.3,0-0.5,0.1-0.8,0.2c-0.3,0.1-0.6,0.1-0.9,0.2c-1.1,0.3-2.2,0.8-3.3,1.4c-0.4,0.2-0.7,0.5-1.1,0.7h0c0,0,0,0,0,0c0,0,0,0,0,0
	c-0.7,0.4-1.4,0.8-2,1.2c6.7,6.1,13.5,12.2,20.2,18.3c2,1.8,4.2,3.2,6.6,4.3C117.2,378,117.4,378.1,117.6,378.2
	C117.6,378.2,117.6,378.2,117.6,378.2z M361.1,349.5c-0.6-1.9-1.8-6.7-3.9-7.3c-2.6-0.8-5.2-0.4-7.5-0.2c-1.7,0.2-3.5,0.3-5.2,0.6
	c-1.9,0.4-4.2,2-6.1,1.8c2.5-4,9.7-6.6,14-8.1c0.5-0.2,1-0.3,1.5-0.5c-6.7-2.3-13.9-1.3-20.2,0.3c-6.3,1.6-14.5,6.9-18.8,13.6
	c-1.2,1.9-2.1,4-2.6,6.1c1.3,7.8,7.3,14.3,7.2,22.6c0.2,4,7.3,17.6,12.2,21.1c2.4,1.7,4.3,1.1,4.7-4c2.9-1,5.8-1.7,8.8-2.4
	c0.3-2.1,0.4-4.1,0.5-5.7c0.5-7.6,0-14.9,3.6-21.9c2.7-5.2,6-6.9,10.3-10.5C362,353.2,362,352.2,361.1,349.5z M100,351.5
	c0.1,0,0.2,0,0.2,0C100.1,351.6,100,351.6,100,351.5z M98.5,351.6c-0.1,0-0.2,0-0.2,0C98.4,351.6,98.5,351.6,98.5,351.6z M102,351.9
	c-0.1,0-0.1,0-0.2-0.1C101.9,351.9,101.9,351.9,102,351.9z M99.1,351.5c0.1,0,0.2,0,0.3,0C99.3,351.5,99.2,351.5,99.1,351.5z"/>
<path id="Shadow" style="fill:#D3D8E5;" d="M60.5,361.4l-0.7,1.1c-5.7-0.6-10.3-1.1-17.5-1.9c-1.4-0.2-2.9-0.1-4.3,0.2
	c-2.8,0.6-4.2,0.9-7,1.5c-2.7,0.6-5.5-0.5-7.1-2.8c-0.7-1-1.1-1.5-1.8-2.5c-2.7-3.7-1.1-9,3.2-10.6c10.6-4.1,21.1-8.2,31.6-12.4
	c1.3-0.5,2.6-0.6,3.9-0.4l0.2,5l-2.6,2.3l3.8,1.5l0.5,3.4l0.3,6.4c0,0-8.8-0.6-13.6,0.9C44.4,354.4,60.5,361.4,60.5,361.4z
	 M102.9,367.2c0.4,0.3,0.9,0.6,1.4,0.9c-4.7-4.3-9.4-8.5-14.1-12.8c1-0.5,1.9-1.1,3.1-1.9c1.1-0.7,2.2-1.2,3.3-1.4
	c0.3-0.1,0.6-0.1,0.9-0.2c3.8-0.9,7.6,0.8,9.3,4.2c3.4,7,6.8,13.9,10.3,20.9c0.8,0.4,1.4,0.7,2,0.9c3.3,0.9,20.2,2.4,20.2,2.4
	l-6.5-14.6l-2.8,0.4l-2-9.5l-7.6-12.1l3.4-2.9l-5.1-0.1l0.7-4l-7.6-4.2l-2.1-3.6l1.5-3c0,0-2.7-2.1-3.1-6c0,0,0,0,0,0
	c-0.2,0.1-0.4,0.3-0.5,0.4c-7.9,7.3-15.7,14.5-24.2,20.5c-1.7,1.2-3,3.2-3.5,5.4c0.3,0.4,0.7,0.7,1.1,0.9
	C86.5,351.4,99,364.7,102.9,367.2z M343.7,339.9c-0.6,0.4-1.5,0.9-2.5,1.7c-1,0.7-2.2,1.7-3.4,2.7c-0.6,0.5-1.2,1-1.9,1.5
	c-0.6,0.5-1.3,1-2,1.5c-0.7,0.5-1.3,1.1-1.9,1.6c-0.6,0.6-1.2,1.2-1.7,1.8c-1.1,1.2-2,2.3-2.7,3.4c-1.5,2-2.4,3.5-2.4,3.5l0.8,0.5
	c0,0,0.8-1.4,2.2-3.5c0.7-1,1.6-2.2,2.6-3.4c0.5-0.6,1-1.2,1.6-1.8c0.6-0.6,1.2-1.2,1.8-1.7c0.7-0.5,1.3-1,2-1.6
	c0.6-0.5,1.3-1.1,1.8-1.6c1.2-1,2.3-2,3.3-2.8C342.3,341,343.2,340.4,343.7,339.9c0.6-0.4,1-0.6,1-0.6S344.4,339.6,343.7,339.9z
	 M324.5,392c0.5,4.6,3.6,7.4,2,12.1c-1.9-0.4-2.4-0.1-2.6,0.5c-1.8,1-6.6-0.7-8.3,0.3c-1.9,1.2-3.8,2.4-5.8,3.8
	c-0.6,0.4-1.2,0.8-1.8,1.2c-5.3,3.5-10.9,7-16.9,8.5c-22.7,5.6-45.7,10.6-70.1,12.3c-36.5,0-71.8-8.1-106.6-18.1
	c-4.4-1.3-8.5-3.6-11.9-6.7c-11.3-10.3-22.6-20.6-33.9-30.9c-1.3-1.9-2.5-3.8-3.7-5.8c-1-1.8-2.2-3.5-3.5-5.1c0.3-0.3,0.5-0.7,0.8-1
	c1.3,0.8,2.5,1.6,3.7,2.3c2.1,1.4,4.1,2.5,5.5,4.7c1.5,2.4,1.4,3.7,3.6,5.3c1.6,1.2,3.5,1.6,5,3.1c0.5,0.5,0.3,1.5,0.9,2
	c2.4,2,6.9,2.2,9.9,3.6c4.1,2,7,4.5,10.8,6.7c2.3,1.4,4.5,3,6.8,4.3c4.4,2.6,12,0.3,16.9-0.3c6.8-0.9,12.3,1.5,18.4-2.7
	c1.5-1,19-23.7,22.6-15.2c-1.1,0.9-0.5,2.3,0.5,3.3c2,2.2,4.8,0.6,7.7,1.5c-1.5,10,21.2-3.1,23.5-4.3c4.4-2.2,9.3-3.4,14-5
	c2.5-0.8,4.8-1.5,7.2-2.3c3.2-1.1,3-0.9,5.9-0.1c1.1,0.3,4.6,1.7,5.4,0.4c2.3-3.3-7.7-5.6-8.7-6.9c0.5,0,1,0,1.4,0
	c-1.5-0.7-2.7-1.6-3.3-2.7c0.7-0.1,1.7,0.1,2.4,0.3c0.1,0.3,0.1,0.5,0.1,0.8c1.9-0.2,4.5-1.1,4.7,1.2c-0.1-1,0.4-1.3,0.7-1.9
	c1.4,1.6,4.4,3.6,6.7,4.2c1.3,0.3,2.7,0.1,3.9,0.4c1.3,0.3,2.3,1,3.4,1.4c-1.7-0.1-3.2-0.3-4.3-0.6c-2.2-0.5-6.2-0.9-9.8-1.8
	c1.8,1,3.6,2.2,5.8,2.9c1.7,0.5,4.6,1.5,7.7,2.2c-0.9-0.1-1.9-0.1-2.7-0.3c-1.7-0.3-4.1-2-5.1-1.7c2.6,1.9-5.1,5.3-6.1,7.5
	c1.9,0.1,3.9-0.3,5.7,0.4c-0.3,0.6-0.6,1.8-1.2,2.4c2.3-0.5,4.6-1.9,6.9-2.1c-1.7,2.5-3.4,3.7-5.6,6.1c4,0.4,8.9-2.1,12.9-2.7
	c2.8-0.4,6.7-2,9.4-1.8c-0.5,1.6-2.5,2.7-3.6,4.1c5.6-1.5,12.2-8,17.9-7.4c-0.1,0.3-0.2,0.5-0.3,0.7c1.1-0.5,2.2-1,3.3-1.1
	c0,1.1,0,2.2,0.1,3.3c2.4-1.5,4.4-3.4,7.5-3c0.7,1.8,5.2,0.6,6.1-0.6c-3.1-0.2-6.1-1.1-9.1-1.6c-5.6-0.9-11.3-2.1-17.1-2.1
	c-3.2,0-6.4,0.1-9.5,0.1c0.5-0.2,0.9-0.4,1.2-0.7c-1.3-1.1-3.7-1.6-6.3-1.9c2.3-0.1,4.6-0.8,6.5-1.7c2-0.9,4.7-3.3,6.6-3.7
	c-0.2,0.8,0.1,1.9-0.2,2.7c0.4-0.5,1.3-1.2,1.7-2c0,1.5-0.6,2.8-0.8,4.1c3.5-4,6.6-8.6,7.3-13.7c0.1,0.4,0.1,0.8,0.2,1.2
	c0.3,2.1,0.4,6.4,1.9,8.2c0.9-0.2,2-0.5,3-0.8c-3.1,4,3.6,1.9,5,1.6c1.9-0.5,4.3-0.2,6.1-0.9c1.8-0.8,2.7-2.8,4.7-3.4
	c-0.1,1.5,0.1,3.2-0.3,4.7c-0.7,2.5-2.7,3.3-4.6,5.4c5.3-0.9,11.6-2.8,16.3-5.2c2.1-1.1,5.6-3.9,6.4-6.4c0.8-2.6,0.2-4.9-1.1-6.9
	c1.9,0.7,3.8,1.4,5.7,2.2c0.9,0.9,1.8,1.9,2.7,3c2,2.5,3.7,5.5,4.9,8.5c2.1,5.2,2.2,10.6,3.8,15.9c0.8,2.7,2.7,5,3.1,7.7
	C324.7,389.4,324.4,390.7,324.5,392z M249.6,402.6c0.2-3.1-6.3-8.9-9.4-9.6c0.5,1,0.9,2.1,0.8,3.2c-0.2-0.2-0.6-0.4-0.8-0.6
	c-0.1,2.2,0.5,4.9-0.4,6.9c-1-0.5-1.9-1.4-2.7-2.3c0.3,2-1.4,3-3.3,2.6c0-0.4-0.1-0.8-0.1-1.1c-1.2-0.1-1.9,0.9-2.3,2
	c-0.2-2.8,0.6-4.6,1.1-7c-4.3,3.1-10.7,4-16,3.6c-0.6-2.2-1.5-5.5-3.1-7.2c1.5-1.9,3.7-2.6,5.6-3.7c-3.3-2.9-8.2-5.3-12.7-6.4
	c-2.8-0.7-8.2-2.4-11-2.1c-3.3,0.4-4.6,5.2-6.3,8c-2.4,3.9-8.4,9.8-6.1,13.8c6.4-5.1,14.4-8.1,21-13c-2.5-2.3-6.5-3.2-8.2-6.3
	c3.7-1.8,6.6,1.9,9.6,3c2.9,1.1,8.1-0.6,9.4,3c-1.9-0.2-3.7-0.8-5.6-0.6c-0.8,6.2,5.4,12.7,6.7,18.4c1.8-3.3,8.5-4.6,12-5.8
	c-1.2,1.1-2.4,2.2-2.9,3.6c1.5-0.1,3-2,4.5-2.7c-0.2,4.8-5.6,12.4-9,15.3c5.8-4.4,10.8-9.9,16-14.7c-0.1,1.2-0.6,2.4-1.1,3.6
	c1.2-0.3,2-2.5,3.2-2.4c1.8,0.1,2.7,4.3,3.3,5.6c1.7,3.6,2.2,6.3,2.4,10.2c3.2-2,1.8-10.3,0.8-13.3c-1-3-2.1-5.7-2.6-8.7
	c2.6-0.1,3.6,4.1,4.7,5.7c0.1-1.4,0.2-2.9-0.2-4.2C247.7,400.7,248.5,402.1,249.6,402.6z M336.9,363.2c-2.1,10.4-2.4,22.2-3.3,33.4
	c1.2-8.5,3.8-27.9,4.5-31.2c0.9-4.2,3.6-6.6,3.6-6.6S337.5,360.6,336.9,363.2z"/>
<path id="Backpack" style="fill:#B4BBD1;" d="M318.5,337.8c-0.7-0.3-1.5-0.3-2.2,0c-3,1.2-3.6,2.7-3.6,2.7l-8.2-4.2l0.9,3.9
	L243,324.7l-43.8,14.9c2.4,0.2,4.9,0.6,7.4,0.6c4.8-0.1,9.4-1.2,14.2-1.1c6.5,0,13,1.3,19.4-0.1c6-1.3,32.6,3.2,33.8,4.7
	c0,0,5.1,1.1,7.7,2.3c3.5,1.6,14.7,2,18.4,4.2c6.6,3.8,7.4,12,4.4,18.5c-4.9,10.6-19.2,16.3-30.4,19.8c-7.7,2.4-17,5.1-24.9,2.8
	c-5.9-1.7-11.8-3.9-17.5-6c-2.3-0.8-4-2.1-6.2-3.3c-0.9-0.5-1.8-0.9-2.7-1.2c-2.5-1.1-5.7-0.6-7.9-1.7c-0.5-0.3-1.8-2-2.6-2.5
	c-0.8-0.5-1.8-1.1-2.6-1.4c-0.8-0.3-2.5-0.1-3-0.9c-0.7-1.1,0.9-3.5,1.5-4.8c1.1-2.2,5.1-4.6,6.8-6.4c-8-1.6-15-1.4-21.1-2.9
	c-2.3-0.6-4.6-1.9-6.7-3.5l-2.9,7.3c-1.4,3.4-4.2,6.1-7.7,7.2l-5.7,1.8l-10,1.8c0,0,4.9,13,3.9,17.9c-0.9,4.9-18.8,30.3-18.8,30.3
	l2.2,0.4l0.1-0.5l5.5-6.6l10.9,3.4l-2.9,6.2l1.9,0.4l31.2-47.3c0,0,1.8-1.8,7,0c5.2,1.8,34,14.2,43.3,16.4
	c9.4,2.1,58.8-3.2,67.6-15.3c6.5-8.9,4.7-19.6,3.4-24.7c-0.3-1.1-0.2-3.8-0.8-2.7l-0.5-3l4.9-5.7C321.7,341.9,321,338.7,318.5,337.8
	z"/>
<path id="Backpack_Light" style="fill:#BACAE2;" d="M182.4,367.9l7,8.9l-16.4,11.4l-4.5,5.9l-11.1,15c0,0,7.7-12,9.1-14.8
	c1.4-2.7,0.7-6.8-0.5-10.7s-3.4-9.5-3.4-9.5L182.4,367.9z M300.6,339.7L243,324.7c0,0-41.7,13.8-42.4,14l0.5,1.1l94.8,8.4
	c0,0,3-0.5,4.5-2.3C302,344.2,300.6,339.7,300.6,339.7z"/>
<path id="Highlights" style="fill:#FFFCEE;" d="M348.8,353.8c0,3.4-3.2,6.1-7.2,6.1c3.3-0.6,5.9-3,5.9-6c0-3.4-3.3-6.1-7.3-6.1
	c0,0-0.1,0-0.1,0c0.5-0.1,0.9-0.1,1.4-0.1C345.6,347.6,348.8,350.4,348.8,353.8z M305,340.2c-0.9-0.6-1.9-1-2.9-1.2
	c-0.9-0.2-1.5-0.1-2.4,0.1c4.7,2,7.2,7,9.3,11.5c2.3,4.9,3.8,10.2,4.4,15.7c0.1,1.4,0,4.2,2.1,3.7c1.6-0.4,2.4-2.7,2.2-4
	c-1.2-7.4-1.5-9.1-3.2-12.2c-1.6-2.9-2.7-5.5-4.6-8.3C308.5,343.4,307,341.5,305,340.2z M378.9,378.5c-1.6-3-1.7-11.4-3.3-14.5
	c-2-4.1-8.9-14.4-8.9-14.4c-1.9-2.6-2.9-3.9-4.8-6.4c0.3-0.1,0.5-0.2,0.8-0.3c-1.2-0.4-7.8-1.2-13-0.2c-6.4,1.2-13.6,2.6-13.6,2.6
	s12.7-8.6,16.6-9.2c3.9-0.6,6.6,1.2,7.3,2.6c0.5,1.1,3.2,3.2,3.2,3.9c0.5-0.2,8.8,3.9,12.9,6.6C382.3,357.7,384.6,369.2,378.9,378.5
	z M337,337.4c-0.4-1.1-2.9-1.1-5.4,0s-4.3,2.8-3.8,3.9c0.4,1.1,2.9,1.1,5.4,0C335.7,340.2,337.5,338.4,337,337.4z M92.2,354.2
	C92.2,354.1,92.2,354.1,92.2,354.2C92.2,354.1,92.2,354.1,92.2,354.2z M73.6,349.1c-2.8-4.3-4.9-7.5-8.4-12.7
	c-0.9-1.3-2.1-2.2-3.6-2.7c0,0.1,0,0.2,0,0.3c-0.4,0-0.9,0.4-1.5,0.3c-0.4,1.7,1.2,2.6,0.8,4.2c-0.4,1.6-2.9,1.2-1.5,3
	c0.5,0.7,2.1,0.2,2.6,0.7c0.9,0.8,0.3,0.8,0.7,2c0.6,1.6,0,2.5,1.2,4c2.5,3.2,4.9,1.4,8,1C72.4,349.2,73,349.2,73.6,349.1z
	 M92.2,354.1c0.1-0.1,0.3-0.2,0.4-0.3C92.5,353.9,92.4,354,92.2,354.1z M122.2,335.5c-3.3-5.6-5.1-8.6-8.3-14
	c-1.3-2.2-3.7-2.6-5.9-1c0.1,0.8,0.4,1.6,0.8,2.4c1.2,2.3,1.9,2.4,2.4,5.1c0.1,0.4-0.8,1.1-0.6,1.6c0.3,0.6,1.4,0.5,1.5,0.7
	c0.4,0.8,2,0.6,0.9,2.5c0.3,0.5,0.4,0.4,0.9,0.7c0.9,2.5,8.3,3.9,4.6,8c1.9-0.1,3.2-0.4,5.1,0.1c0.2,0.7,0.3,1.8,0.3,2.4
	c-6.2,0.1-0.3,6,1.1,7.9c3.4,4.5,4.3,8.8,4.7,14.2c3.9-3.8,8.4,11.2,9.4,14.2c3.5-0.4,6.7-3,10.5-3c-6.8-13.8-12.8-25.2-19.6-39
	C128.7,335.3,125.2,334.1,122.2,335.5z M300.5,350c-32.7-9.7-68.3-14.5-106.8-9.8c4.4,2.8,6.4,8.8,3.7,13.7c4.6-2.7,4.4-0.8,5.6-7.1
	c2.2,4.3,6.4,11.7,8.2,2.6c-0.5,15.5,9.7-1.2,6.3,9.6c4.7-3.4,6.5-7.9,5.3-13.7c3,1.6,7.8,27.4,9.6,9.9c0.4,7.5,3.5,2.7,3.4,7.5
	c3.3-2.6,4.5-6,3.4-10.2c2,3.3,2.5,6.7,1.5,10.4c-0.8,0.9,17-15.1,15.1-14.9c0.5,3.8,0.2,7.6-0.9,11.3c1.4-3.1,3.4-5.9,5.8-8.3
	c0.5,8.6,3-2,3,6.5c1.4-4.8,4.1-5.8,7.9-3.2c-0.2,3.6-0.5,7.2-0.8,10.8c11.3-0.7,17.2-5.3,14.6-13.9c24.2,5.8-22.4,10.7,19.8,10.4
	C305.5,357.2,303.8,353.2,300.5,350C298.3,349.4,302.8,351.1,300.5,350z M92.7,353.9c0.2-0.1,0.4-0.3,0.7-0.4
	C93.1,353.6,92.9,353.7,92.7,353.9z M79.4,348.8c-1.3-0.1-2.7,0-4,0.4c0.7,0.1,1.3,0.2,1.5,0.5c1.5,1.7-0.5,2.4-1.7,3.5
	c-0.9,0.9-8.3,9.9-2.7,8.8c2.6-0.5,4.9-11.1,7.7-4.6c0.5,1-0.2,3.3,1.3,4.1c1.4,0.8,4-1.8,5.4-1.4c2.1,0.6,5,5.2,7.2,6.8
	c1.6,1.2,3.6,2,5.2,3.5c1.7,1.6,2.6,3.6,4.3,5.1c3.4,3,7.2,4.5,10.8,6.9c-3.2-2.6-3.4-5.6-4-8.6c2.1,1.9,4.5,3.4,7.2,4.5
	c-2.6-1.1-5-2.6-7.2-4.5c0,0-0.1-0.1-0.1-0.1c-6.7-6.1-13.4-12.2-20.2-18.3 M91,354.6c0.1,0,0.2,0.1,0.2,0.1 M187.8,348.5
	c-0.5,1.2,0.3,2.5-0.1,3.6c-0.6,1.8-0.8,1.3-2.4,1.9c-0.3-0.1-0.1-0.3-0.3-0.5c-1.4,0.4-3.8,1-4.8-0.1c-0.2,0.3-0.5,0.6-0.7,0.8
	c-0.9-0.4-1.8-0.7-2.6-0.1c0.2,0.2,1,0.6,1.3,0.8c0.8-1.2,2.1-1.1,2.3,0.2c0.1-0.3,0.6-0.9,0.7-1.4c1.3,1.4,2.9,1.1,4.7,1.1
	c-0.2,2,1.2,1.9,2.5,2.5c0.6,0.3,1.1,0.1,1.7,0.4c0.4,0.2,0.4,1.2,1.1,1.6c3.7-3.2,9.4-12,3.9-15.9
	C194.1,344,188.5,346.9,187.8,348.5z"/>
<path id="Blacks" style="fill:#35342D;" d="M151,346.9c2-1.8,27.5-10,31.4-10.2c3.9-0.2,10.2,3,10.2,3l4.5,5l-0.2,0.4
	c-0.1-0.2-0.2-0.4-0.3-0.6c-2.3,0.7-4.4,1.6-6.8,2.3c-2.3,0.7-4.7,2.1-3.7,5c1.4,0.1,1.7,1.1,2.2,2.1l-9,0.8l-8.2,0.8
	c0,0-7.3-0.1-10.9,0.3c-3.6,0.5-4.3-3.2-5.9-3.9C152.9,351.3,149,348.8,151,346.9z M317.6,366.7c-0.1,2.2-0.5,4.4-1.2,6.7
	c0.1,0.2,0.1,0.4,0.2,0.5c3.2,10.1,4.7,21.1,5.9,31.9c1.3-0.3,2.6-0.5,3.9-0.8c-1-9-2.3-18.4-4.8-27.1
	C320.5,374,319.2,370.3,317.6,366.7z M380.1,368.1c-0.6-3.6-4.8-8.9-8.4-13.2c-3.6-4.3-8.9-2.6-8.9-2.6c-7.4,3.4-11.1,5.1-18.4,8.4
	c-3.8,1.7-6.3,5.3-6.7,9.4c-0.7,8.5-1.4,17-2.2,25.5c10.6,3.9,25.5,6.8,34.5-0.5C377.7,389,381.8,378,380.1,368.1z M329.8,338.2
	c-2.6,1.1-4.3,2.8-3.8,3.9c0.4,1.1,2.9,1.1,5.4,0c2.6-1.1,4.3-2.8,3.8-3.9C334.7,337.2,332.3,337.2,329.8,338.2z M320.8,361
	c-1.3-2.4-2.8-4.7-4.4-6.9c-0.1-0.1-0.2-0.2-0.3-0.3c0.1,0.6,0.1,1.2,0.2,1.7c0.5,1.7,1,4.1,1.2,6.8c1.5,3,3.1,6.5,4.2,10.1
	c3.2,10.1,4.7,21.1,5.9,31.8c1.3-0.3,2.6-0.5,3.9-0.8c-1-9-2.3-18.4-4.8-27.1C325.3,371,323.4,365.8,320.8,361z"/>
<path id="Visor_Highlights" style="fill:#545248;" d="M337.7,369.9c0,0,27.5-11.6,31.4-12.7s7.7,4.3,7.7,4.3s-3.9-3-5.9-2
	c-2,0.9-33.9,18-33.9,18L337.7,369.9z M377.9,372.7c0.6,7.6-1.9,14-7.5,18.8c-5.7,4.9-12.9,6.8-21.5,5.7c-6.6-0.8-11.5-3.2-11.5-3.3
	l-0.9,1.9c10.6,3.7,24.9,6.3,33.7-0.7c7.6-6.1,11.7-17.1,10-27c-0.3-1.9-1.6-4.2-3.3-6.6l-1.7,0.9
	C375.2,362.4,377.4,366.8,377.9,372.7z"/>
</svg>
