<?xml version="1.0" encoding="UTF-8" standalone="no"?>
<svg style="enable-background:new 0 0 400 449" xmlns="http://www.w3.org/2000/svg" xml:space="preserve" height="449px" viewBox="0 0 400 449" width="400px" version="1.1" y="0px" x="0px" xmlns:xlink="http://www.w3.org/1999/xlink">
<path id="Speed_Lines" fill="#153482" d="m86.7 384l0.4-382 0.5 382h-0.9zm26.3-64l-0.5-145-0.5 145h1zm-4-2l-0.5-80.6-0.5 80.6h1zm103 22l-0.5-320-1 320h1zm4-1l-0.5-85.5-0.5 85.5zm-11 0l-0.5-254-0.5 254h1zm96 11l-0.5-95.3v95h1z"/>
<path id="Base" fill="#DDD6B8" d="m376 349c-4.1-2.7-7.6-3.3-10.5-5.5-2-1.6-4.5-3.3-6.8-5.6-8.1-5-17.1-3.9-25-1.9-7.6 1.9-18.2 9.5-20.9 18.2-9.7-4.8-20.7-7.4-30.2-7.2-2.9-4.6-7.9-7.8-13.3-8-23.8-0.9-49.4 0.7-74 1.1-1-0.1-1.9 0-2.8 0.3-2.2-2.1-5.6-3.5-9.3-3.5-6.7 0-12.2 4.4-12.2 9.8 0 2.1 0.8 4 2.2 5.6-1.2 0.6-2 1.8-2 3.1 0 1.9 1.6 3.5 3.5 3.5h15.8c1.4 1 3 1.6 4.7 1.8 3.4 0.4 6.9 0.8 10.4 1.3-12.4 0.7-25.1 5.2-34.6 13.2-7.4-1.3-14.7 0.2-21.9 1.9-6.4-13-12.7-26-19.1-39-1.4-2.9-4.9-4.1-7.9-2.7-3.3-5.6-5.1-8.6-8.3-14-1.4-2.4-4.2-2.6-6.4-0.5-7.9 7.3-15.7 14.5-24.2 20.5-2.2 1.6-3.8 4.5-3.8 7.4-1.9-0.1-3.7 0.1-5.5 0.9-3-4.6-5.1-7.8-8.7-13.2-1.8-2.7-5.3-3.8-8.3-2.5-10.5 4.2-21 8.3-31.6 12.4-4.3 1.6-5.9 6.9-3.2 10.6 0.7 1 1.1 1.5 1.8 2.5 1.6 2.3 4.4 3.3 7.1 2.8 2.8-0.6 4.2-0.9 7-1.5 1.4-0.3 2.9-0.4 4.3-0.2 7.9 0.9 12.7 1.4 19.3 2.1-0.9 1.1-1.8 2.3-2.8 3.6-0.7 0.7-0.6 1.9 0.1 2.6 13.9 12.7 27.9 25.5 41.9 38.2 3.4 3.1 7.5 5.4 11.9 6.7 34.8 10 70 18.1 107 18.1 24.4-1.7 47.4-6.6 70.1-12.3 8.8-2.2 16.9-8.8 24.5-13.5 1.7-1 6.7 0.8 8.4-0.4 4.9-0.1 8.7-2.3 11.2-5.4 1.6 0.3 2.7-0.9 3.1-4.8 11.4-4 24.3-4 35.2-9.3 12-11 10-24 3-38zm-266 25c-6.7-6.1-13.5-12.2-20.2-18.3 1-0.5 1.9-1.1 3.1-1.9 1.1-0.7 2.2-1.2 3.3-1.4 0.3-0.1 0.6-0.1 0.9-0.2 3.8-0.9 7.6 0.8 9.3 4.2 3.6 7.4 7.3 14.8 10.9 22.1-2-2-5-3-7-5z"/>
<path id="Reflected_Light" opacity=".57" fill="#D3E0D5" d="m104 353c-0.1 0-0.1-0.1-0.2-0.1zm1 1l-0.1-0.1zm-1-1l0.1 0.1zm2 1c0 0.1 0.1 0.1 0.1 0.2zm4 20c1.6 1.4 3.4 2.7 5.3 3.7-1-2-3-3-5-4zm-4-19c0-0.1-0.1-0.1-0.1-0.2zm-3-3c0.1 0 0.1 0 0.2 0.1zm2 38c-2.3-1.5-4.8-2.5-7.2-3.9-1-0.6-1.6-1.4-2.8-1.7-1-0.3-2.3 0.1-3.6-0.1-2.6 0.2-2.5 3.5-1.4 5.2 1.3 1.9 3.8 3 5.5 4.5 1.2 1.1 2.4 2.1 3.4 3.4 0.7 0.8 0.9 1.4 1.8 1.9s1.9 0.2 2.7 1.1c1.2-0.7 0.6-2 1.3-2.9 0.9-1.1 2.9-0.8 3.8-1.7 2-1-2-3-4-5zm11-13c0.4 0.2 0.9 0.4 1.3 0.6 0 0-1 0-1-1zm117-4c-0.4 4.1-5.3 8.6-8.9 9.8-4.2 1.5-9.1 1.6-13.3 3.1-3.4 1.2-6.8 2.5-10.5 1.4-2.4-0.8-4.6-2.8-7-3.4-1.9-0.4-3.8 0.7-5.7 0.5-0.7 0-0.9-0.9-1.4-0.9-2.1 0-3.9 1.2-6 1.6-0.8 0.1-2.5-0.2-3.2 0.1-3.3 1.4-1.4 7.5-2.5 10.8-1.5 4.4-6.1 6.1-10.4 6-2.4-0.1-5-0.9-7.4-1.1-4.5-0.3-8.4 0.1-12.8-1.2-7.1-2.2-12.9-4.3-19.5-7.7-4.2-2.2-8.2-3.6-12.1-6.3-3.8-2.7-6.2-2.9-10.9-3.8-3.3-0.6-6.6-1-9.2-3-1.3-1-2.2-2.3-3.4-3.1-1.2-0.7-2.1 0.1-3.1-1.3-0.5-0.7 0.4-2-0.2-2.7-0.4-0.5-3.7-2-4.3-2.2-3.5-0.9-7.3-0.4-10.4-2.8-2.1-1.6-1.5-1-2-3.9-0.3-2 0-3.1-2.7-2.7-0.1-3.7 0-5.1-4.3-5.5-1.8-0.2-7.4 0.7-8.1-1.5-0.8-2.4 6.5-0.4 8.1-0.6 3.5-0.4 7.6-3.4 11.5-3.3 0.2 0.2 0.3 0.5 0.5 0.7 0.5-0.2 0.9-0.3 1.4-0.5 0.6-0.2 1.1-0.3 1.7-0.3 0.8-0.1 1.6-0.1 2.4-0.1v-0.9c0.2-2.6 1.8-5.1 3.8-6.4 8.6-6 16.3-13.2 24.2-20.5 2.3-2.1 5-1.8 6.4 0.5 3.2 5.4 5 8.4 8.3 14 3-1.3 6.4-0.2 7.9 2.7 6.7 13.7 13.5 27.4 20.2 41.2 0.3 0.7 1.1 1.1 1.8 1 6.5-1 12.1-6.4 19-5.1 12.1-10.1 29.2-12.8 44.4-11.3 3.4 0.3 12.5 2 15.7 2.8 4 1 1 7 3 7zm-115 5c-3.6-7.4-7.2-14.8-10.9-22.1-0.1-0.3-0.3-0.5-0.4-0.8 0-0.1-0.1-0.1-0.1-0.2-0.1-0.2-0.3-0.4-0.4-0.5 0-0.1-0.1-0.1-0.1-0.2l-0.6-0.6-0.1-0.1c-0.2-0.2-0.3-0.3-0.5-0.4-0.1-0.1-0.1-0.1-0.2-0.1-0.2-0.1-0.4-0.3-0.6-0.4l-0.1-0.1c-0.2-0.1-0.5-0.3-0.7-0.4-0.1 0-0.1-0.1-0.2-0.1-0.2-0.1-0.4-0.2-0.6-0.2-0.1 0-0.1 0-0.2-0.1-0.5-0.2-1.1-0.2-1.6-0.3h-0.2-0.6-0.3-0.6-0.3c-0.3 0-0.5 0.1-0.8 0.2s-0.6 0.1-0.9 0.2c-1.1 0.3-2.2 0.8-3.3 1.4-0.4 0.2-0.7 0.5-1.1 0.7-0.7 0.4-1.4 0.8-2 1.2 6.7 6.1 13.5 12.2 20.2 18.3 2 1.8 4.2 3.2 6.6 4.3-1 0-1 0 0 0zm243-28c-0.6-1.9-1.8-6.7-3.9-7.3-2.6-0.8-5.2-0.4-7.5-0.2-1.7 0.2-3.5 0.3-5.2 0.6-1.9 0.4-4.2 2-6.1 1.8 2.5-4 9.7-6.6 14-8.1 0.5-0.2 1-0.3 1.5-0.5-6.7-2.3-13.9-1.3-20.2 0.3s-14.5 6.9-18.8 13.6c-1.2 1.9-2.1 4-2.6 6.1 1.3 7.8 7.3 14.3 7.2 22.6 0.2 4 7.3 17.6 12.2 21.1 2.4 1.7 4.3 1.1 4.7-4 2.9-1 5.8-1.7 8.8-2.4 0.3-2.1 0.4-4.1 0.5-5.7 0.5-7.6 0-14.9 3.6-21.9 2.7-5.2 6-6.9 10.3-10.5 2-5 2-6 1-8zm-261 2h0.2zm-1.5 0h-0.2 0.2zm3.5 0c-0.1 0-0.1 0-0.2-0.1zm-2.9 0h0.3-0.3z"/>
<path id="Shadow" fill="#D3D8E5" d="m60.5 361l-0.7 1.1c-5.7-0.6-10.3-1.1-17.5-1.9-1.4-0.2-2.9-0.1-4.3 0.2-2.8 0.6-4.2 0.9-7 1.5-2.7 0.6-5.5-0.5-7.1-2.8-0.7-1-1.1-1.5-1.8-2.5-2.7-3.7-1.1-9 3.2-10.6 10.6-4.1 21.1-8.2 31.6-12.4 1.3-0.5 2.6-0.6 3.9-0.4l0.2 5-2.6 2.3 3.8 1.5 0.5 3.4 0.3 6.4s-8.8-0.6-13.6 0.9c-5 2 11.1 9 11.1 9zm42.5 6c0.4 0.3 0.9 0.6 1.4 0.9-4.7-4.3-9.4-8.5-14.1-12.8 1-0.5 1.9-1.1 3.1-1.9 1.1-0.7 2.2-1.2 3.3-1.4 0.3-0.1 0.6-0.1 0.9-0.2 3.8-0.9 7.6 0.8 9.3 4.2 3.4 7 6.8 13.9 10.3 20.9 0.8 0.4 1.4 0.7 2 0.9 3.3 0.9 20.2 2.4 20.2 2.4l-6.5-14.6-2.8 0.4-2-9.5-7.6-12.1 3.4-2.9-5.1-0.1 0.7-4-7.6-4.2-2.1-3.6 1.5-3s-2.7-2.1-3.1-6c-0.2 0.1-0.4 0.3-0.5 0.4-7.9 7.3-15.7 14.5-24.2 20.5-1.7 1.2-3 3.2-3.5 5.4 0.3 0.4 0.7 0.7 1.1 0.9 7.1 5 19.6 19 23.6 21zm241-27c-0.6 0.4-1.5 0.9-2.5 1.7-1 0.7-2.2 1.7-3.4 2.7-0.6 0.5-1.2 1-1.9 1.5-0.6 0.5-1.3 1-2 1.5s-1.3 1.1-1.9 1.6c-0.6 0.6-1.2 1.2-1.7 1.8-1.1 1.2-2 2.3-2.7 3.4-1.5 2-2.4 3.5-2.4 3.5l0.8 0.5s0.8-1.4 2.2-3.5c0.7-1 1.6-2.2 2.6-3.4 0.5-0.6 1-1.2 1.6-1.8s1.2-1.2 1.8-1.7c0.7-0.5 1.3-1 2-1.6 0.6-0.5 1.3-1.1 1.8-1.6 1.2-1 2.3-2 3.3-2.8-1 1 0 0 1 0 0.6-0.4 1-0.6 1-0.6s-1 1-1 1zm-20 52c0.5 4.6 3.6 7.4 2 12.1-1.9-0.4-2.4-0.1-2.6 0.5-1.8 1-6.6-0.7-8.3 0.3-1.9 1.2-3.8 2.4-5.8 3.8l-1.8 1.2c-5.3 3.5-10.9 7-16.9 8.5-22.7 5.6-45.7 10.6-70.1 12.3-36.5 0-71.8-8.1-107-18.1-4.4-1.3-8.5-3.6-11.9-6.7l-33.9-30.9c-1.3-1.9-2.5-3.8-3.7-5.8-1-1.8-2.2-3.5-3.5-5.1 0.3-0.3 0.5-0.7 0.8-1 1.3 0.8 2.5 1.6 3.7 2.3 2.1 1.4 4.1 2.5 5.5 4.7 1.5 2.4 1.4 3.7 3.6 5.3 1.6 1.2 3.5 1.6 5 3.1 0.5 0.5 0.3 1.5 0.9 2 2.4 2 6.9 2.2 9.9 3.6 4.1 2 7 4.5 10.8 6.7 2.3 1.4 4.5 3 6.8 4.3 4.4 2.6 12 0.3 16.9-0.3 6.8-0.9 12.3 1.5 18.4-2.7 1.5-1 19-23.7 22.6-15.2-1.1 0.9-0.5 2.3 0.5 3.3 2 2.2 4.8 0.6 7.7 1.5-1.5 10 21.2-3.1 23.5-4.3 4.4-2.2 9.3-3.4 14-5 2.5-0.8 4.8-1.5 7.2-2.3 3.2-1.1 3-0.9 5.9-0.1 1.1 0.3 4.6 1.7 5.4 0.4 2.3-3.3-7.7-5.6-8.7-6.9h1.4c-1.5-0.7-2.7-1.6-3.3-2.7 0.7-0.1 1.7 0.1 2.4 0.3 0.1 0.3 0.1 0.5 0.1 0.8 1.9-0.2 4.5-1.1 4.7 1.2-0.1-1 0.4-1.3 0.7-1.9 1.4 1.6 4.4 3.6 6.7 4.2 1.3 0.3 2.7 0.1 3.9 0.4 1.3 0.3 2.3 1 3.4 1.4-1.7-0.1-3.2-0.3-4.3-0.6-2.2-0.5-6.2-0.9-9.8-1.8 1.8 1 3.6 2.2 5.8 2.9 1.7 0.5 4.6 1.5 7.7 2.2-0.9-0.1-1.9-0.1-2.7-0.3-1.7-0.3-4.1-2-5.1-1.7 2.6 1.9-5.1 5.3-6.1 7.5 1.9 0.1 3.9-0.3 5.7 0.4-0.3 0.6-0.6 1.8-1.2 2.4 2.3-0.5 4.6-1.9 6.9-2.1-1.7 2.5-3.4 3.7-5.6 6.1 4 0.4 8.9-2.1 12.9-2.7 2.8-0.4 6.7-2 9.4-1.8-0.5 1.6-2.5 2.7-3.6 4.1 5.6-1.5 12.2-8 17.9-7.4-0.1 0.3-0.2 0.5-0.3 0.7 1.1-0.5 2.2-1 3.3-1.1 0 1.1 0 2.2 0.1 3.3 2.4-1.5 4.4-3.4 7.5-3 0.7 1.8 5.2 0.6 6.1-0.6-3.1-0.2-6.1-1.1-9.1-1.6-5.6-0.9-11.3-2.1-17.1-2.1-3.2 0-6.4 0.1-9.5 0.1 0.5-0.2 0.9-0.4 1.2-0.7-1.3-1.1-3.7-1.6-6.3-1.9 2.3-0.1 4.6-0.8 6.5-1.7 2-0.9 4.7-3.3 6.6-3.7-0.2 0.8 0.1 1.9-0.2 2.7 0.4-0.5 1.3-1.2 1.7-2 0 1.5-0.6 2.8-0.8 4.1 3.5-4 6.6-8.6 7.3-13.7 0.1 0.4 0.1 0.8 0.2 1.2 0.3 2.1 0.4 6.4 1.9 8.2 0.9-0.2 2-0.5 3-0.8-3.1 4 3.6 1.9 5 1.6 1.9-0.5 4.3-0.2 6.1-0.9 1.8-0.8 2.7-2.8 4.7-3.4-0.1 1.5 0.1 3.2-0.3 4.7-0.7 2.5-2.7 3.3-4.6 5.4 5.3-0.9 11.6-2.8 16.3-5.2 2.1-1.1 5.6-3.9 6.4-6.4 0.8-2.6 0.2-4.9-1.1-6.9 1.9 0.7 3.8 1.4 5.7 2.2 0.9 0.9 1.8 1.9 2.7 3 2 2.5 3.7 5.5 4.9 8.5 2.1 5.2 2.2 10.6 3.8 15.9 0.8 2.7 2.7 5 3.1 7.7 0 7-1 9-1 10zm-74 11c0.2-3.1-6.3-8.9-9.4-9.6 0.5 1 0.9 2.1 0.8 3.2-0.2-0.2-0.6-0.4-0.8-0.6-0.1 2.2 0.5 4.9-0.4 6.9-1-0.5-1.9-1.4-2.7-2.3 0.3 2-1.4 3-3.3 2.6 0-0.4-0.1-0.8-0.1-1.1-1.2-0.1-1.9 0.9-2.3 2-0.2-2.8 0.6-4.6 1.1-7-4.3 3.1-10.7 4-16 3.6-0.6-2.2-1.5-5.5-3.1-7.2 1.5-1.9 3.7-2.6 5.6-3.7-3.3-2.9-8.2-5.3-12.7-6.4-2.8-0.7-8.2-2.4-11-2.1-3.3 0.4-4.6 5.2-6.3 8-2.4 3.9-8.4 9.8-6.1 13.8 6.4-5.1 14.4-8.1 21-13-2.5-2.3-6.5-3.2-8.2-6.3 3.7-1.8 6.6 1.9 9.6 3 2.9 1.1 8.1-0.6 9.4 3-1.9-0.2-3.7-0.8-5.6-0.6-0.8 6.2 5.4 12.7 6.7 18.4 1.8-3.3 8.5-4.6 12-5.8-1.2 1.1-2.4 2.2-2.9 3.6 1.5-0.1 3-2 4.5-2.7-0.2 4.8-5.6 12.4-9 15.3 5.8-4.4 10.8-9.9 16-14.7-0.1 1.2-0.6 2.4-1.1 3.6 1.2-0.3 2-2.5 3.2-2.4 1.8 0.1 2.7 4.3 3.3 5.6 1.7 3.6 2.2 6.3 2.4 10.2 3.2-2 1.8-10.3 0.8-13.3s-2.1-5.7-2.6-8.7c2.6-0.1 3.6 4.1 4.7 5.7 0.1-1.4 0.2-2.9-0.2-4.2-1 0-1 1 1 2zm87-40c-2.1 10.4-2.4 22.2-3.3 33.4 1.2-8.5 3.8-27.9 4.5-31.2 0.9-4.2 3.6-6.6 3.6-6.6s-4 3-5 5z"/>
<path id="Backpack" fill="#B4BBD1" d="m318 338c-0.7-0.3-1.5-0.3-2.2 0-3 1.2-3.6 2.7-3.6 2.7l-8.2-4.2 0.9 3.9-62-16-43.8 14.9c2.4 0.2 4.9 0.6 7.4 0.6 4.8-0.1 9.4-1.2 14.2-1.1 6.5 0 13 1.3 19.4-0.1 6-1.3 32.6 3.2 33.8 4.7 0 0 5.1 1.1 7.7 2.3 3.5 1.6 14.7 2 18.4 4.2 6.6 3.8 7.4 12 4.4 18.5-4.9 10.6-19.2 16.3-30.4 19.8-7.7 2.4-17 5.1-24.9 2.8-5.9-1.7-11.8-3.9-17.5-6-2.3-0.8-4-2.1-6.2-3.3-0.9-0.5-1.8-0.9-2.7-1.2-2.5-1.1-5.7-0.6-7.9-1.7-0.5-0.3-1.8-2-2.6-2.5s-1.8-1.1-2.6-1.4-2.5-0.1-3-0.9c-0.7-1.1 0.9-3.5 1.5-4.8 1.1-2.2 5.1-4.6 6.8-6.4-8-1.6-15-1.4-21.1-2.9-2.3-0.6-4.6-1.9-6.7-3.5l-2.9 7.3c-1.4 3.4-4.2 6.1-7.7 7.2l-5.7 1.8-10 1.8s4.9 13 3.9 17.9c-0.9 4.9-18.8 30.3-18.8 30.3l2.2 0.4 0.1-0.5 5.5-6.6 10.9 3.4-2.9 6.2 1.9 0.4 31.2-47.3s1.8-1.8 7 0 34 14.2 43.3 16.4c9.4 2.1 58.8-3.2 67.6-15.3 6.5-8.9 4.7-19.6 3.4-24.7-0.3-1.1-0.2-3.8-0.8-2.7l-0.5-3 4.9-5.7c7-1 6-4 3-5z"/>
<path id="Backpack_Light" fill="#BACAE2" d="m182 368l7 8.9-16.4 11.4-4.5 5.9-11.1 15s7.7-12 9.1-14.8c1.4-2.7 0.7-6.8-0.5-10.7s-3.4-9.5-3.4-9.5l19-6zm119-28l-58-15-42.4 14 0.5 1.1 94.8 8.4s3-0.5 4.5-2.3c0-2-1-6-1-6z"/>
<path id="Highlights" fill="#FFFCEE" d="m349 354c0 3.4-3.2 6.1-7.2 6.1 3.3-0.6 5.9-3 5.9-6 0-3.4-3.3-6.1-7.3-6.1h-0.1c0.5-0.1 0.9-0.1 1.4-0.1 4 0 7 2 7 6zm-44-14c-0.9-0.6-1.9-1-2.9-1.2-0.9-0.2-1.5-0.1-2.4 0.1 4.7 2 7.2 7 9.3 11.5 2.3 4.9 3.8 10.2 4.4 15.7 0.1 1.4 0 4.2 2.1 3.7 1.6-0.4 2.4-2.7 2.2-4-1.2-7.4-1.5-9.1-3.2-12.2-1.6-2.9-2.7-5.5-4.6-8.3-1-3-2-4-4-6zm74 38c-1.6-3-1.7-11.4-3.3-14.5-2-4.1-8.9-14.4-8.9-14.4-1.9-2.6-2.9-3.9-4.8-6.4 0.3-0.1 0.5-0.2 0.8-0.3-1.2-0.4-7.8-1.2-13-0.2-6.4 1.2-13.6 2.6-13.6 2.6s12.7-8.6 16.6-9.2c3.9-0.6 6.6 1.2 7.3 2.6 0.5 1.1 3.2 3.2 3.2 3.9 0.5-0.2 8.8 3.9 12.9 6.6 6 6 9 17 3 26zm-42-41c-0.4-1.1-2.9-1.1-5.4 0s-4.3 2.8-3.8 3.9c0.4 1.1 2.9 1.1 5.4 0 3-1 5-3 4-4zm-245 17zm-18.6-5c-2.8-4.3-4.9-7.5-8.4-12.7-0.9-1.3-2.1-2.2-3.6-2.7v0.3c-0.4 0-0.9 0.4-1.5 0.3-0.4 1.7 1.2 2.6 0.8 4.2s-2.9 1.2-1.5 3c0.5 0.7 2.1 0.2 2.6 0.7 0.9 0.8 0.3 0.8 0.7 2 0.6 1.6 0 2.5 1.2 4 2.5 3.2 4.9 1.4 8 1 0.5 1 1.1 1 1.7 1zm18.6 5c0.1-0.1 0.3-0.2 0.4-0.3h-0.4zm29.8-18c-3.3-5.6-5.1-8.6-8.3-14-1.3-2.2-3.7-2.6-5.9-1 0.1 0.8 0.4 1.6 0.8 2.4 1.2 2.3 1.9 2.4 2.4 5.1 0.1 0.4-0.8 1.1-0.6 1.6 0.3 0.6 1.4 0.5 1.5 0.7 0.4 0.8 2 0.6 0.9 2.5 0.3 0.5 0.4 0.4 0.9 0.7 0.9 2.5 8.3 3.9 4.6 8 1.9-0.1 3.2-0.4 5.1 0.1 0.2 0.7 0.3 1.8 0.3 2.4-6.2 0.1-0.3 6 1.1 7.9 3.4 4.5 4.3 8.8 4.7 14.2 3.9-3.8 8.4 11.2 9.4 14.2 3.5-0.4 6.7-3 10.5-3-6.8-13.8-12.8-25.2-19.6-39-1-4-5-5-8-3zm178 14c-32.7-9.7-68.3-14.5-107-9.8 4.4 2.8 6.4 8.8 3.7 13.7 4.6-2.7 4.4-0.8 5.6-7.1 2.2 4.3 6.4 11.7 8.2 2.6-0.5 15.5 9.7-1.2 6.3 9.6 4.7-3.4 6.5-7.9 5.3-13.7 3 1.6 7.8 27.4 9.6 9.9 0.4 7.5 3.5 2.7 3.4 7.5 3.3-2.6 4.5-6 3.4-10.2 2 3.3 2.5 6.7 1.5 10.4-0.8 0.9 17-15.1 15.1-14.9 0.5 3.8 0.2 7.6-0.9 11.3 1.4-3.1 3.4-5.9 5.8-8.3 0.5 8.6 3-2 3 6.5 1.4-4.8 4.1-5.8 7.9-3.2-0.2 3.6-0.5 7.2-0.8 10.8 11.3-0.7 17.2-5.3 14.6-13.9 24.2 5.8-22.4 10.7 19.8 10.4 1-5-1-9-5-12-2-1 3 1 0 0zm-207 4c0.2-0.1 0.4-0.3 0.7-0.4h-0.7zm-13.3-5c-1.3-0.1-2.7 0-4 0.4 0.7 0.1 1.3 0.2 1.5 0.5 1.5 1.7-0.5 2.4-1.7 3.5-0.9 0.9-8.3 9.9-2.7 8.8 2.6-0.5 4.9-11.1 7.7-4.6 0.5 1-0.2 3.3 1.3 4.1 1.4 0.8 4-1.8 5.4-1.4 2.1 0.6 5 5.2 7.2 6.8 1.6 1.2 3.6 2 5.2 3.5 1.7 1.6 2.6 3.6 4.3 5.1 3.4 3 7.2 4.5 10.8 6.9-3.2-2.6-3.4-5.6-4-8.6 2.1 1.9 4.5 3.4 7.2 4.5-2.6-1.1-5-2.6-7.2-4.5l-0.1-0.1c-6.7-6.1-13.4-12.2-20.2-18.3m0.2-3c0.1 0 0.2 0.1 0.2 0.1m96.8-7c-0.5 1.2 0.3 2.5-0.1 3.6-0.6 1.8-0.8 1.3-2.4 1.9-0.3-0.1-0.1-0.3-0.3-0.5-1.4 0.4-3.8 1-4.8-0.1-0.2 0.3-0.5 0.6-0.7 0.8-0.9-0.4-1.8-0.7-2.6-0.1 0.2 0.2 1 0.6 1.3 0.8 0.8-1.2 2.1-1.1 2.3 0.2 0.1-0.3 0.6-0.9 0.7-1.4 1.3 1.4 2.9 1.1 4.7 1.1-0.2 2 1.2 1.9 2.5 2.5 0.6 0.3 1.1 0.1 1.7 0.4 0.4 0.2 0.4 1.2 1.1 1.6 3.7-3.2 9.4-12 3.9-15.9-1 0-7 3-7 4z"/>
<path id="Blacks" fill="#35342D" d="m151 347c2-1.8 27.5-10 31.4-10.2s10.2 3 10.2 3l4.5 5-0.2 0.4-0.3-0.6c-2.3 0.7-4.4 1.6-6.8 2.3-2.3 0.7-4.7 2.1-3.7 5 1.4 0.1 1.7 1.1 2.2 2.1l-9 0.8-8.2 0.8s-7.3-0.1-10.9 0.3c-3.6 0.5-4.3-3.2-5.9-3.9 0 0-4-2-2-4zm167 20c-0.1 2.2-0.5 4.4-1.2 6.7 0.1 0.2 0.1 0.4 0.2 0.5 3.2 10.1 4.7 21.1 5.9 31.9 1.3-0.3 2.6-0.5 3.9-0.8-1-9-2.3-18.4-4.8-27.1-2-4-3-8-4-11zm62 1c-0.6-3.6-4.8-8.9-8.4-13.2s-8.9-2.6-8.9-2.6c-7.4 3.4-11.1 5.1-18.4 8.4-3.8 1.7-6.3 5.3-6.7 9.4-0.7 8.5-1.4 17-2.2 25.5 10.6 3.9 25.5 6.8 34.5-0.5 8-5 12-16 10-26zm-50-30c-2.6 1.1-4.3 2.8-3.8 3.9 0.4 1.1 2.9 1.1 5.4 0 2.6-1.1 4.3-2.8 3.8-3.9 0-1-3-1-5 0zm-9 23c-1.3-2.4-2.8-4.7-4.4-6.9l-0.3-0.3c0.1 0.6 0.1 1.2 0.2 1.7 0.5 1.7 1 4.1 1.2 6.8 1.5 3 3.1 6.5 4.2 10.1 3.2 10.1 4.7 21.1 5.9 31.8 1.3-0.3 2.6-0.5 3.9-0.8-1-9-2.3-18.4-4.8-27.1-2-6-4-11-6-16z"/>
<path id="Visor_Highlights" fill="#545248" d="m338 370s27.5-11.6 31.4-12.7 7.7 4.3 7.7 4.3-3.9-3-5.9-2c-2 0.9-33.9 18-33.9 18l1-7zm40 3c0.6 7.6-1.9 14-7.5 18.8-5.7 4.9-12.9 6.8-21.5 5.7-6.6-0.8-11.5-3.2-11.5-3.3l-0.9 1.9c10.6 3.7 24.9 6.3 33.7-0.7 7.6-6.1 11.7-17.1 10-27-0.3-1.9-1.6-4.2-3.3-6.6l-1.7 0.9c1-1 3 4 4 10z"/>
</svg>
