<?xml version="1.0" encoding="UTF-8" standalone="no"?>
<svg id="Little_Cloud" style="enable-background:new 0 0 17.7 7" xmlns="http://www.w3.org/2000/svg" xml:space="preserve" viewBox="0 0 17.7 7" version="1.1" y="0px" x="0px" xmlns:xlink="http://www.w3.org/1999/xlink">
<path id="Cloud" fill="#fff" d="m14.4 5.2c0.2-0.3 0.3-0.6 0.3-0.9 0-1-0.9-1.8-2.2-2.1-0.5-1.2-2-2.2-3.7-2.2-1.9 0-3.5 1.2-3.8 2.9h-0.4c-0.8-0.1-1.4 0.5-1.6 1.2-0.2-0.1-0.5-0.1-0.7-0.1-1.3 0-2.3 0.5-2.3 1.1s1 1.1 2.3 1.1c0.5 0 1-0.1 1.4-0.2 0.3 0.2 0.6 0.3 0.9 0.3 0.5 0 1-0.3 1.3-0.6 0.7 0.7 1.7 1.1 2.8 1.1 0.5 0 1-0.1 1.4-0.2 0.2 0.1 0.5 0.1 0.8 0.1 0.7 0.2 1.7 0.2 2.8 0.2 2.2 0 3.9-0.4 3.9-0.8 0.1-0.5-1.4-0.8-3.2-0.9z"/>
<path id="Texture" fill="#D8EFFD" d="m2.6 5.5v0.1h-0.1v-0.2c0 0.1 0.1 0.1 0.1 0.1zm2.9-1.3zm7.8 1.9v0.6h-0.1v-0.2c-0.2 0.1-0.2 0.2-0.1 0.3-0.5 0-0.9-0.1-1.3-0.1-0.1-0.1-0.1-0.1-0.2 0h-0.1s0-0.1-0.1-0.1v0.1c-0.2 0-0.3-0.1-0.4-0.1-0.3 0-0.5-0.1-0.8-0.1-0.4 0.1-0.9 0.2-1.4 0.2h-0.6v-0.1s-0.1 0-0.1 0.1c-0.4-0.1-0.8-0.2-1.2-0.4 0.2-0.1 0.2-0.2 0.1-0.3s-0.1-0.1-0.2 0c0.3 0 0.1 0.2 0.1 0.3-0.3-0.2-0.6-0.4-0.8-0.6v-0.1s-0.1 0-0.1-0.1c-0.3 0.5-0.8 0.8-1.4 0.8-0.3 0-0.6-0.1-0.8-0.3h-0.2s0 0.1 0.1 0.1c-0.5 0.1-0.9 0.2-1.4 0.2-0.7 0-1.2-0.1-1.7-0.3 0.1 0 0.1-0.1 0.2 0 0.1-0.1 0.5-0.1 0.7 0 0 0 0.1 0 0.2 0.1 0-0.1 0-0.1-0.1-0.2 0-0.1 0.1-0.4 0.2-0.4 0.2 0 0.2 0 0.3-0.2 0-0.1 0.1-0.1 0.1-0.2 0 0.1 0.1 0.1 0.1 0.2h0.2c0-0.2 0-0.3-0.1-0.4 0.2-0.1 0.4-0.2 0.6-0.2v0.1c0.1 0 0.1-0.1 0.2-0.1v0.1c0.1-0.2 0.2-0.1 0.4-0.1 0.1 0 0.1-0.1 0.1-0.2h0.1l-0.1-0.1c0.1-0.2 0-0.4 0.3-0.5v-0.1c0.2 0 0.2 0 0.2-0.1 0.1-0.1 0.2-0.1 0.4-0.2-0.1 0.1-0.1 0.2-0.2 0.3 0.1 0 0.2 0 0.3-0.1 0-0.1 0.1-0.1 0.1 0s-0.1 0.1-0.2 0.2h-0.3c0.2 0.1 0.3 0.1 0.4 0.1v0.2c0 0.1 0 0.1 0.1 0.2 0-0.1 0.1-0.2 0.2-0.2l0.1 0.1s0-0.1 0.1-0.1 0.2 0 0.4-0.1c0 0.2 0 0.3-0.2 0.4-0.1 0-0.1 0.1 0 0.2 0 0 0 0.1 0.1 0.2 0-0.1 0.1-0.2 0.1-0.3s0-0.2 0.2-0.2c0.1 0 0.1-0.1 0.2-0.2 0-0.1 0-0.2 0.1-0.3 0.1 0 0.1 0.1 0.2 0.2v-0.2l0.1-0.1h0.2v0.2h-0.2l0.3 0.3c0-0.1 0.1-0.1 0.1-0.2l-0.1-0.1 0.1-0.1h-0.1-0.1v-0.1h0.1v0.2s0 0.1 0.1 0.1v-0.2s0.1-0.1 0.2-0.1h0.2c0.1 0 0.1-0.1 0.2-0.1-0.2 0.3-0.1 0.4-0.1 0.6 0 0.1 0 0.2-0.2 0.3h-0.2 0.2s0 0.1 0.1 0.2c0-0.2 0.2-0.2 0.3-0.3v0.2c0-0.1 0.1-0.2 0.1-0.3 0 0.1 0.1 0.2 0.1 0.2 0.2-0.1 0.1-0.2 0-0.3h0.2 0.1v-0.1-0.2c0.1 0 0.2 0 0.2-0.1h0.2c0.1 0 0.2-0.1 0.3 0.1 0 0 0.2 0.1 0.3 0h0.1c0-0.1 0 0 0.1 0.1 0-0.1 0.1-0.1 0.1-0.1h0.4v-0.1c-0.1 0-0.1-0.1-0.2-0.2l0.1-0.1c-0.1-0.1-0.2 0-0.3 0-0.1-0.1 0.1-0.1 0.1-0.2 0.1 0 0.1 0 0.2-0.1v0.2c0 0.1 0.1 0.2 0.1 0.3v0.2l0.1 0.1h-0.4s0 0.1 0.1 0.1c0 0 0.1 0 0.2 0.1 0 0.1-0.1 0.2-0.1 0.2-0.1 0.1-0.1 0.2 0 0.2l0.3-0.3c0 0.1 0 0.2-0.1 0.3 0.1 0 0.1-0.1 0.1-0.3 0 0 0-0.1 0.1-0.1 0 0 0-0.1 0.1-0.1s0.1 0.2 0.2 0.1c-0.2 0-0.3-0.1-0.3-0.2 0 0 0-0.1 0.1-0.2h0.1c0.1 0 0.1 0 0.2 0.1 0 0.1 0 0.1-0.1 0.2 0.1 0.1 0.3 0 0.3 0.2h0.1c0.1 0 0.1 0.1 0.2 0.1 0-0.1 0.1-0.2 0.1-0.3h0.2l0.1 0.1s-0.1 0.1-0.2 0.1h0.2l0.1-0.1 0.1-0.1c0.1 0 0.1 0.1 0.1 0.1s0 0.1-0.1 0.2h-0.1l-0.2 0.2c0.1 0 0.1 0.1 0.2 0s0.2-0.2 0.3-0.1h0.1v0.3c0.3 0.1 0.4 0.1 0.5 0l-0.1-0.1h-0.1l-0.1-0.1-0.1-0.1 0.1-0.1s0.1 0 0.1 0.1c0.1 0.1 0.2 0.1 0.3 0.2 0 0.1 0 0.1-0.1 0.2 0-0.1 0-0.1 0.1-0.2 0 0.1 0.1 0.1 0.1 0.2 0.2 0 0.2 0 0.1 0.2h0.2c0 0.1 0.1 0.1 0.1 0.2v0.3 0.2c0.1-0.2 0.1-0.3 0.1-0.3 0.2 0.1 0.1 0.2 0.1 0.3h-0.1c0 0.1 0.1 0.1 0.1 0.1 0.1 0 0.2 0 0.2 0.1zm-10.5-1v0c0.2 0 0.4-0.1 0.6-0.2h-0.1c-0.2 0-0.4 0.1-0.5 0.2zm0.2 0.3c0.1 0 0.1 0 0 0 0.1 0.1 0.1 0.1 0.2 0 0-0.1-0.1-0.1-0.2 0 0.1-0.1 0 0 0 0zm-0.8 0.7c0-0.1-0.1-0.1-0.1-0.2-0.1 0.1 0 0.2 0.1 0.2zm0.6-0.5v0c-0.1-0.1-0.1-0.1-0.2-0.1v-0.2c-0.1 0-0.2 0.1-0.2 0.1v0.3h-0.1v0.1c0.1 0 0.2 0.1 0.3 0.1 0 0 0-0.1 0.1-0.2 0-0.1 0.1-0.1 0.1-0.1zm0.5 0.1c0-0.1-0.1-0.1-0.1-0.2 0 0.1-0.1 0.1-0.2 0.2h0.3zm0.2-0.5l-0.1-0.1c-0.1 0-0.2 0-0.3 0.1 0.1 0.2 0.2 0.1 0.3 0h0.1zm0.2 0.5c-0.1 0-0.1 0-0.2 0.1h0.1c0.1 0 0.1 0 0.1-0.1zm0.3-1.8v0.1h0.1c0 0.2 0.1 0.2 0.4 0.1-0.1 0-0.2 0-0.3-0.1 0.1 0 0.1 0 0.2-0.1-0.2 0-0.3-0.1-0.4 0v0zm0.1 1.6s0-0.1-0.1-0.1c0 0 0-0.1-0.1-0.1l-0.1 0.1c0.1 0 0.2 0.1 0.3 0.1v0zm0.6-0.6h-0.2-0.2c0-0.1-0.1-0.2-0.2-0.4l-0.1 0.1c0.1 0 0.1 0.1 0.2 0.1-0.1 0.1-0.2 0.1-0.2 0.1 0.1 0.1 0.2 0.1 0.3 0.2l-0.1 0.1c0.3 0.1 0.5 0 0.5-0.2zm0-0.2c0-0.1-0.1-0.1-0.1-0.2h-0.1c0 0.1 0 0.1-0.1 0.2 0.1-0.1 0.2 0 0.3 0zm0.1 0.2c0.1-0.1 0.2-0.2 0.3-0.2 0.1-0.1 0.1-0.1 0.1-0.2-0.2 0.1-0.2 0.1-0.3 0.2-0.2 0-0.2 0.1-0.1 0.2zm0.2 0.7l-0.1-0.1c0 0.1 0.1 0.1 0.1 0.2h0.1l-0.1-0.1zm0.1-0.3l0.2-0.2-0.1-0.1c0 0.1-0.1 0.2-0.1 0.3zm0.4 0.5c-0.1 0-0.2 0-0.3 0.1 0 0.1 0.1 0.2 0.1 0.3 0.1-0.2 0.1-0.3 0.2-0.4zm3-1.6c0.1 0 0.1 0.1 0.2 0.1 0 0.1 0 0.2 0.1 0.3 0-0.1 0-0.2-0.1-0.3 0-0.1 0-0.2-0.1-0.2h-0.1v0.1zm-0.4 0.7c0.2 0 0.3 0 0.3-0.1 0.1 0 0.1 0.1 0.1 0.1 0.1-0.1 0-0.5-0.2-0.5 0 0.1 0.1 0.2 0.2 0.3-0.2-0.1-0.2-0.1-0.3-0.2 0.1 0.2 0 0.3-0.1 0.4v0zm0.3 0.8h0.1c-0.1-0.1-0.2-0.2-0.4 0h0.3zm-0.9 0.1c0.2 0 0.3-0.1 0.4-0.2h0.2l-0.1-0.1c-0.2 0.1-0.3 0.2-0.5 0.3zm-0.5-1.6c0.1 0 0.2-0.1 0.3-0.1v-0.1c-0.1 0-0.1 0-0.2-0.1-0.1 0.2-0.1 0.3-0.1 0.3zm-0.3 0.1c0.1 0 0.2 0.1 0.2 0.1l-0.1-0.1c0-0.1-0.1-0.1-0.1 0zm-0.1 0.3c0 0.1 0 0.1 0.1 0.2 0.1 0 0.2 0.1 0.3 0.1-0.1-0.1-0.2-0.2-0.3-0.2 0-0.1-0.1 0-0.1-0.1zm-0.8 0.6c-0.1 0-0.1-0.1-0.2-0.1 0 0.1-0.1 0.1-0.1 0.2 0.2 0 0.2 0 0.3-0.1zm0.1-0.4v-0.2c-0.1 0-0.2 0.1-0.3 0.1 0 0.2 0.2 0.1 0.3 0.1zm0.1 0.1l0.1-0.1c0.1-0.1 0.2-0.3 0.1-0.5v0.4h-0.1c0 0.1-0.1 0.1-0.1 0.2-0.1-0.1 0 0 0 0zm0.2 0.1h-0.2c0 0.1 0.1 0.2 0.1 0.4 0.1-0.1 0.1-0.2 0.1-0.4zm0.5 0c-0.3-0.2-0.5-0.2-0.5-0.1 0.1 0 0.3 0.1 0.4 0.1 0 0.1 0.1 0 0.1 0zm0.3 0.2l0.2-0.2s0 0.1 0.1 0.1c0 0 0-0.1 0.1-0.1-0.2-0.2-0.2 0-0.4 0v-0.1c0 0.1-0.1 0.1-0.2 0.1v0.1c0.2-0.1 0.2 0.1 0.2 0.1zm0.1 0.4c-0.1 0-0.2 0-0.3 0.1v0.1c0.2-0.1 0.3-0.1 0.3-0.2zm0.3 0.2c-0.1-0.1-0.2-0.1-0.3-0.1v0.2h0.1v-0.1h0.2zm0.1-0.5l0.1-0.1s0-0.1-0.1-0.1c0 0-0.1 0-0.2-0.1 0.1 0.1 0.1 0.1 0.2 0.3-0.1-0.1-0.2-0.1-0.2-0.1 0 0.1 0.1 0.2 0.2 0.1zm0.2 0.9v0c-0.1-0.1-0.1 0-0.2 0v0.1c0.1-0.1 0.2-0.1 0.2-0.1zm0.3-0.2l-0.1-0.1s-0.1 0-0.1 0.1v0.1c0.1-0.1 0.2-0.1 0.2-0.1zm0.5 0.6c-0.1-0.2-0.2-0.3-0.2-0.4 0 0.1 0 0.1-0.1 0.2l-0.1-0.1c0 0.1 0 0.2 0.1 0.3 0-0.1 0.2-0.1 0.3 0zm0.2-0.5c-0.1 0-0.2 0-0.2-0.1 0 0-0.1 0-0.1-0.1v0.1c0 0.1 0 0.1 0.1 0.2 0 0 0 0.1 0.1 0.1v-0.1s0.1 0 0.1-0.1zm0.1-0.6v0c-0.1-0.1-0.1-0.1-0.1-0.2h-0.1v0.1c0 0.1 0.1 0.1 0.2 0.1-0.1 0.1-0.1 0.1 0 0zm0.1-0.2c-0.1-0.3-0.3-0.3-0.5-0.3 0 0.1 0.1 0.2 0.2 0.1 0.1 0 0.1 0 0.2 0.1-0.1 0 0 0.1 0.1 0.1zm0.1-0.6c0.1 0 0.2 0 0.2-0.2-0.1 0.1-0.2 0.1-0.4 0.2 0.1 0.1 0.2 0.1 0.2 0zm0.2 1.7c0-0.1-0.1-0.2-0.1-0.3v0.2c0 0.1 0.1 0.1 0.1 0.1zm0.2-1.5c0-0.1-0.1-0.1-0.1-0.1h-0.1v0.1h0.2zm0 0.2c0.1 0.1 0.1 0.2 0.1 0.3h0.1v-0.2c0-0.1-0.1-0.1-0.2-0.1zm0.3 0.7c0-0.1-0.1-0.1-0.1-0.2v0.3l0.1 0.1c-0.1-0.1 0-0.2 0-0.2zm2.9-0.2h0.3c-0.2-0.1-0.3 0-0.3 0zm0-0.3c0 0.1 0 0.1-0.1 0.2 0.1-0.1 0.2-0.1 0.2-0.2h-0.1zm-0.4-0.1h0.2c0-0.1 0.1-0.2 0.1-0.2h-0.1c-0.1 0.1-0.1 0.2-0.2 0.2zm-0.5-0.4c0 0.1 0.1 0.1 0.1 0.2h0.1c0-0.1-0.1-0.1-0.2-0.2 0.1 0 0.1 0 0 0zm-0.2 1v0.2c0.1-0.1 0.2-0.1 0.2-0.2h-0.2zm-0.5-0.8v0h0.3v-0.1c-0.1 0-0.2 0.1-0.3 0.1zm-0.1-0.3l0.1 0.1s0-0.1 0.1-0.1c0-0.1-0.1-0.1-0.2 0v0zm-0.1 0.3h0.1c0-0.1 0-0.1 0.1-0.2l-0.2 0.2zm-0.3-0.4c0.1 0 0.2 0.1 0.2 0l-0.1-0.1c-0.1 0-0.1 0.1-0.1 0.1zm-0.1 0.3c0.1 0 0.1 0 0 0 0.2-0.1 0.2 0.1 0.3 0.1v-0.3c-0.1 0.1-0.2 0-0.2-0.1-0.2 0.1-0.2 0.2-0.1 0.3zm-0.5 0.2c0 0.1 0.1 0.1 0.2 0.1 0 0 0.1 0 0.2-0.1-0.1 0-0.1-0.1-0.2-0.1 0.1 0 0.1 0 0.2-0.1 0-0.1-0.2-0.2-0.2-0.1-0.2 0.1-0.2 0.2-0.2 0.3zm0.4 0.8c0-0.2 0-0.3-0.2-0.3v0.2h-0.3v0.2c0.1 0 0.2 0 0.3-0.1h0.2zm0.1 0.3c-0.1 0-0.1 0.1-0.2 0.2h0.1s0.1-0.1 0.1-0.2zm0.1-1.3c-0.1 0-0.1 0.1-0.2 0.1 0 0 0.1 0 0.1 0.1-0.1 0-0.1 0.1-0.2 0.1 0.3 0 0.3 0 0.3-0.3zm0.3 1.1l-0.2-0.2c0 0.1-0.1 0.1-0.1 0.2 0.1 0.2 0.2 0.1 0.3 0zm0.3 0.5h-0.3v0.1c0-0.1 0.1-0.1 0.3-0.1-0.1 0-0.1 0 0 0zm0-1.1h-0.2l0.1 0.1c0.1 0 0.1 0 0.1-0.1zm0.3 0.2s0.1 0 0 0c0.1-0.1 0-0.2 0-0.2-0.1 0-0.2-0.1-0.2-0.2v-0.1h-0.1v0.4c0.2 0.1 0.3 0.1 0.3 0.1zm0.3 0.6c0-0.1 0-0.1-0.1-0.2-0.1 0.1-0.2 0.2-0.2 0.3h0.2v-0.2c0 0.1 0.1 0.1 0.1 0.1zm0.4-0.2c-0.1 0-0.3-0.2-0.4 0 0.1 0.1 0.2 0 0.4 0zm0.4 0.6h-0.2v-0.4c-0.3 0.2-0.3 0.3-0.1 0.4 0 0 0 0.1 0.1 0.1 0 0 0.1 0 0.2-0.1zm0.2-0.7l-0.3-0.3c0 0.2 0.1 0.3 0.3 0.3zm0.2-0.1c-0.2 0-0.2 0.2-0.3 0.3 0.2-0.1 0.3-0.2 0.3-0.3zm-6.2-2.6s-0.1-0.1-0.1-0.2v0.1l0.1 0.1zm-1.4 0.3c0.1 0 0.2 0.1 0.3 0.1v-0.3c-0.1 0-0.1 0.1-0.2 0.1s-0.2-0.1-0.2-0.1v-0.2c-0.1 0.1-0.2 0.1-0.2 0.2 0.1 0.1 0.2 0.2 0.3 0.2zm1.7-0.8v-0.1h-0.3c0.1 0.1 0.2 0.1 0.3 0.1zm2.3 1c-0.1 0.1-0.1 0.2 0 0.3 0.1-0.1 0.1-0.2 0-0.3zm-3.5 0.4h0.1s0-0.1 0.1-0.1c-0.1 0-0.2-0.1-0.3-0.1s0 0.1 0.1 0.2c-0.2-0.1-0.3-0.1-0.3 0.1 0.1 0 0.2 0 0.3-0.1zm0.1 0zm3.4-0.1zm-2.7-1.2v-0.1c-0.1 0-0.2 0-0.3 0.1h0.3zm3.5 0.5c0.1 0 0.2-0.1 0.2-0.1v-0.1h-0.1c-0.1 0.1-0.2 0-0.2-0.1 0 0 0-0.1-0.1-0.1h-0.1c0.1 0.1 0 0.1-0.1 0 0.1 0 0.1 0.1 0.2 0.1 0.1 0.1 0.2 0.1 0.2 0.3zm0.2 0.6v-0.5 0.1c-0.1 0-0.2 0-0.2-0.1 0 0.1-0.1 0.2-0.1 0.3 0.1 0 0.1-0.1 0.2-0.1-0.1 0.2-0.1 0.2 0.1 0.3zm-1.2-1.3c0.1-0.1 0.2-0.1 0.3-0.2-0.1-0.1-0.3 0-0.3 0.2zm1.6 1.5v-0.3c-0.1 0-0.2 0.1-0.3 0.1 0.2 0.1 0.2 0.1 0.3 0.2zm-0.1-0.5l-0.2-0.2-0.1 0.1c0.2 0 0.2 0.1 0.3 0.1zm-1.3-0.4c-0.1 0-0.2-0.1-0.3-0.1 0 0 0 0.1 0.1 0.1 0.1 0.1 0.1 0.2-0.1 0.2h0.2c0-0.1 0.2-0.2 0.1-0.4v-0.2c-0.2 0.2-0.2 0-0.2-0.1-0.1 0.1-0.2 0.2-0.2 0.3 0.2-0.1 0.3 0 0.4 0.2zm-2.2 0.3zm1.8-0.1c-0.1 0-0.1-0.1-0.2-0.1h-0.1c0 0.1 0 0.1 0.1 0.2 0.1 0 0.2 0 0.2-0.1zm-2.1 0.3c0.1 0 0.1 0.1 0 0 0.2 0 0.2-0.1 0.3-0.2-0.1 0.1-0.3 0.1-0.3 0.2zm1.3-1.2v-0.1s0.1-0.1 0.2-0.1c-0.1 0-0.2 0-0.2-0.1-0.1 0.2-0.2 0.3 0 0.3zm-1.1 0.8c0 0.1 0 0.1 0.1 0.2 0.1-0.1 0.2-0.2 0.1-0.3h-0.1c-0.1 0-0.1 0.1-0.1 0.1zm5.1 1.5zm-7-0.6zm1.3-0.4c0-0.2 0-0.2 0.2-0.1h0.2c-0.2-0.2-0.4-0.2-0.5-0.3l-0.1 0.1c0-0.1 0-0.1 0.1-0.3-0.2 0-0.3 0.1-0.4 0.2-0.1 0-0.1-0.1-0.2-0.1v0.3c0.2 0.1 0.2 0.2 0.2 0.4 0.1-0.1 0.1-0.2 0.1-0.3 0.1 0 0.2 0.2 0.4 0.1zm-0.5 0.2zm1.6 0.3zm0.4-0.1c-0.1-0.1-0.2-0.2-0.2-0.3 0 0 0 0.1-0.1 0.1 0 0.1-0.1 0.2-0.1 0.3h0.1c0.1-0.1 0.2-0.1 0.3-0.1zm-3-0.2c0-0.1-0.1 0-0.2 0 0 0.1 0.1 0.1 0.2 0v0zm0.3-0.1zm2.3 0.4h-0.1c0 0.1 0.1 0.1 0.1 0.2 0.1-0.1 0-0.1 0-0.2zm-2-0.6c-0.1-0.1-0.1-0.1-0.2 0 0 0.1-0.1 0.1-0.1 0.2 0.1 0 0.2 0.1 0.3 0.1v-0.3zm-0.3 0.2c-0.1-0.1-0.2-0.1-0.3-0.2 0.1 0.2 0.2 0.3 0.2 0.5 0.1-0.1 0.1-0.2 0.1-0.3zm2.8 0.1zm-0.1-0.1s0.1 0 0.1 0.1c0-0.1 0.1-0.2 0.1-0.3-0.1-0.1-0.2-0.1-0.3-0.2-0.1 0-0.2 0-0.4 0.1 0-0.1 0.1-0.1 0.1-0.1h-0.2s-0.1 0.1-0.1 0.2c0.1 0 0.3-0.1 0.4 0.1 0 0.1 0.1 0.1 0.2 0.1-0.1-0.1 0-0.1 0.1 0zm2.8 0.3c0.1 0.1 0.2 0 0.3 0-0.1-0.1-0.2-0.1-0.3 0zm-1.4-0.5zm-1-0.2c0 0.1 0 0.1-0.1 0.2 0.1 0 0.1 0 0.1-0.1 0.1-0.1 0.1-0.2 0.2-0.3 0 0.1-0.1 0.1-0.2 0.2 0-0.1-0.1-0.1-0.1-0.1 0.1-0.1 0.2-0.2 0.4-0.3-0.1-0.1-0.2-0.1-0.3-0.1v0.2c-0.1 0-0.3 0-0.3 0.2 0 0.1 0.1 0.1 0.1 0.2 0.1 0 0.1-0.1 0.2-0.1zm-0.6 0.4zm-0.2 0.6zm0.5-1.1zl-0.1-0.1c-0.1 0-0.1 0.1-0.1 0.2 0.2 0.1 0.2 0.1 0.2-0.1zm-0.2 0.1z"/>
</svg>
