<svg version="1.1" id="Little_Cloud" xmlns="http://www.w3.org/2000/svg" xmlns:xlink="http://www.w3.org/1999/xlink" x="0px"
	 y="0px" viewBox="0 0 17.7 7" style="enable-background:new 0 0 17.7 7;" xml:space="preserve">
<path id="Cloud" style="fill:#FFFFFF;" d="M14.4,5.2c0.2-0.3,0.3-0.6,0.3-0.9c0-1-0.9-1.8-2.2-2.1C12,1,10.5,0,8.8,0
	C6.9,0,5.3,1.2,5,2.9c-0.1,0-0.3,0-0.4,0C3.8,2.8,3.2,3.4,3,4.1C2.8,4,2.5,4,2.3,4C1,4,0,4.5,0,5.1s1,1.1,2.3,1.1
	c0.5,0,1-0.1,1.4-0.2C4,6.2,4.3,6.3,4.6,6.3c0.5,0,1-0.3,1.3-0.6c0.7,0.7,1.7,1.1,2.8,1.1c0.5,0,1-0.1,1.4-0.2
	c0.2,0.1,0.5,0.1,0.8,0.1c0.7,0.2,1.7,0.2,2.8,0.2c2.2,0,3.9-0.4,3.9-0.8C17.7,5.6,16.2,5.3,14.4,5.2z"/>
<path id="Texture" style="fill:#D8EFFD;" d="M2.6,5.5c0,0,0,0.1,0,0.1c0,0,0,0,0,0c0,0,0,0,0,0c0,0-0.1,0-0.1,0c0-0.1,0-0.1,0-0.2
	C2.5,5.5,2.6,5.5,2.6,5.5C2.6,5.5,2.6,5.5,2.6,5.5C2.6,5.5,2.6,5.5,2.6,5.5z M5.5,4.2C5.5,4.2,5.5,4.2,5.5,4.2
	C5.5,4.2,5.5,4.2,5.5,4.2C5.5,4.2,5.5,4.2,5.5,4.2C5.5,4.2,5.5,4.2,5.5,4.2z M13.3,6.1c0,0.2,0,0.4,0,0.6c0,0,0,0-0.1,0
	c0-0.1,0-0.1,0-0.2C13,6.6,13,6.7,13.1,6.8c-0.5,0-0.9-0.1-1.3-0.1c-0.1-0.1-0.1-0.1-0.2,0c0,0-0.1,0-0.1,0c0,0,0-0.1-0.1-0.1
	c0,0,0,0.1,0,0.1c-0.2,0-0.3-0.1-0.4-0.1c-0.3,0-0.5-0.1-0.8-0.1C9.8,6.6,9.3,6.7,8.8,6.7c-0.2,0-0.4,0-0.6,0c0,0,0,0,0-0.1
	c0,0-0.1,0-0.1,0.1C7.7,6.6,7.3,6.5,6.9,6.3C7.1,6.2,7.1,6.1,7,6C6.9,5.9,6.9,5.9,6.8,6C7.1,6,6.9,6.2,6.9,6.3
	C6.6,6.1,6.3,5.9,6.1,5.7c0,0,0-0.1,0-0.1c0,0,0,0,0,0c0,0,0,0,0,0c0,0-0.1,0-0.1-0.1C5.7,6,5.2,6.3,4.6,6.3C4.3,6.3,4,6.2,3.8,6
	c0,0,0,0,0,0C3.7,6,3.6,6,3.6,6c0,0,0,0,0,0c0,0,0,0.1,0.1,0.1C3.2,6.2,2.8,6.3,2.3,6.3c-0.7,0-1.2-0.1-1.7-0.3c0.1,0,0.1-0.1,0.2,0
	c0.1-0.1,0.5-0.1,0.7,0c0,0,0.1,0,0.2,0.1c0-0.1,0-0.1-0.1-0.2c0-0.1,0.1-0.4,0.2-0.4c0,0,0,0,0,0c0.2,0,0.2,0,0.3-0.2c0,0,0,0,0,0
	c0-0.1,0.1-0.1,0.1-0.2c0,0.1,0.1,0.1,0.1,0.2c0.1,0,0.1,0,0.2,0C2.5,5.1,2.5,5,2.4,4.9C2.6,4.8,2.8,4.7,3,4.7c0,0,0,0.1,0,0.1
	c0.1,0,0.1-0.1,0.2-0.1c0,0,0,0,0,0.1c0.1-0.2,0.2-0.1,0.4-0.1c0.1,0,0.1-0.1,0.1-0.2c0.1,0,0.1,0,0.1,0c0,0,0,0,0,0
	c0,0-0.1-0.1-0.1-0.1c0.1-0.2,0-0.4,0.3-0.5c0,0,0-0.1,0-0.1c0.2,0,0.2,0,0.2-0.1c0.1-0.1,0.2-0.1,0.4-0.2C4.5,3.6,4.5,3.7,4.4,3.8
	c0.1,0,0.2,0,0.3-0.1c0-0.1,0.1-0.1,0.1,0l0,0c0,0,0,0,0,0c0,0,0,0,0,0c0,0.1-0.1,0.1-0.2,0.2c-0.1,0-0.2,0-0.3,0c0,0,0,0,0,0
	C4.5,4,4.6,4,4.7,4c0,0,0,0,0,0c0,0,0,0,0,0c0,0,0,0,0,0c0,0.1,0,0.1,0,0.2c0,0.1,0,0.1,0.1,0.2c0-0.1,0.1-0.2,0.2-0.2
	c0,0,0.1,0.1,0.1,0.1c0,0,0-0.1,0.1-0.1c0.1,0,0.2,0,0.4-0.1c0,0.2,0,0.3-0.2,0.4c-0.1,0-0.1,0.1,0,0.2c0,0,0,0.1,0.1,0.2
	c0-0.1,0.1-0.2,0.1-0.3c0-0.1,0-0.2,0.2-0.2c0.1,0,0.1-0.1,0.2-0.2c0-0.1,0-0.2,0.1-0.3c0.1,0,0.1,0.1,0.2,0.2c0-0.1,0-0.1,0-0.2
	c0,0,0.1-0.1,0.1-0.1c0.1,0,0.2,0,0.2,0c0,0.1,0,0.1,0,0.2c-0.1,0-0.1,0-0.2,0c0.1,0.1,0.2,0.2,0.3,0.3c0-0.1,0.1-0.1,0.1-0.2
	c0,0-0.1-0.1-0.1-0.1c0,0,0.1-0.1,0.1-0.1c0,0-0.1,0-0.1,0c0,0-0.1,0-0.1,0c0,0,0-0.1,0-0.1c0,0,0.1,0,0.1,0C6.7,3.9,6.7,4,6.7,4
	c0,0,0,0.1,0.1,0.1c0-0.1,0-0.1,0-0.2c0,0,0.1-0.1,0.2-0.1c0.1,0,0.1,0,0.2,0c0.1,0,0.1-0.1,0.2-0.1C7.2,4,7.3,4.1,7.3,4.3
	c0,0.1,0,0.2-0.2,0.3C7.1,4.6,7,4.6,6.9,4.6c0.1,0,0.2,0,0.2,0c0,0,0,0.1,0.1,0.2c0-0.2,0.2-0.2,0.3-0.3c0,0.1,0,0.1,0,0.2
	c0,0,0,0,0,0c0-0.1,0.1-0.2,0.1-0.3c0,0.1,0.1,0.2,0.1,0.2c0.2-0.1,0.1-0.2,0-0.3c0.1,0,0.2,0,0.2,0c0,0,0.1,0,0.1,0
	c0,0,0-0.1,0-0.1C8,4.1,8,4.1,8,4c0.1,0,0.2,0,0.2-0.1c0.1,0,0.1,0,0.2,0c0.1,0,0.2-0.1,0.3,0.1c0,0,0.2,0.1,0.3,0c0,0,0.1,0,0.1,0
	C9.1,3.9,9.1,4,9.2,4.1C9.2,4,9.3,4,9.3,4C9.4,4,9.5,4,9.7,4c0,0,0,0,0-0.1c-0.1,0-0.1-0.1-0.2-0.2c0,0,0.1-0.1,0.1-0.1
	c-0.1-0.1-0.2,0-0.3,0C9.2,3.5,9.4,3.5,9.4,3.4c0.1,0,0.1,0,0.2-0.1c0,0.1,0,0.2,0,0.2c0,0.1,0.1,0.2,0.1,0.3c0,0.1,0,0.1,0,0.2
	c0,0,0,0,0.1,0.1c-0.1,0-0.2,0-0.4,0c0,0,0,0.1,0.1,0.1c0,0,0.1,0,0.2,0.1c0,0.1-0.1,0.2-0.1,0.2c-0.1,0.1-0.1,0.2,0,0.2
	c0.1-0.1,0.2-0.2,0.3-0.3c0,0.1,0,0.2-0.1,0.3c0.1,0,0.1-0.1,0.1-0.3c0,0,0-0.1,0.1-0.1c0,0,0-0.1,0.1-0.1c0.1,0,0.1,0.2,0.2,0.1
	C10.1,4.3,10,4.2,10,4.1c0,0,0-0.1,0.1-0.2c0,0,0.1,0,0.1,0c0.1,0,0.1,0,0.2,0.1c0,0.1,0,0.1-0.1,0.2c0.1,0.1,0.3,0,0.3,0.2
	c0,0,0.1,0,0.1,0c0.1,0,0.1,0.1,0.2,0.1C10.9,4.4,11,4.3,11,4.2c0,0,0,0,0,0c0,0,0,0,0,0h0c0.1,0,0.2,0,0.2,0c0,0,0.1,0.1,0.1,0.1
	c0,0-0.1,0.1-0.2,0.1c0.1,0,0.1,0,0.2,0c0,0,0.1-0.1,0.1-0.1c0,0,0.1-0.1,0.1-0.1c0.1,0,0.1,0.1,0.1,0.1c0,0,0,0.1-0.1,0.2
	c0,0-0.1,0-0.1,0c-0.1,0.1-0.1,0.1-0.2,0.2c0.1,0,0.1,0.1,0.2,0c0.1-0.1,0.2-0.2,0.3-0.1c0,0,0.1,0,0.1,0c0,0.1,0,0.2,0,0.3
	C12.1,5,12.2,5,12.3,4.9h0c0,0-0.1-0.1-0.1-0.1c0,0,0,0,0,0c0,0,0,0-0.1,0c0,0,0,0-0.1-0.1c0,0-0.1-0.1-0.1-0.1c0,0,0.1-0.1,0.1-0.1
	c0,0,0.1,0,0.1,0.1c0,0,0,0,0,0c0.1,0.1,0.2,0.1,0.3,0.2c0,0.1,0,0.1-0.1,0.2c0-0.1,0-0.1,0.1-0.2c0,0.1,0.1,0.1,0.1,0.2
	c0,0,0,0,0,0c0,0,0,0,0,0c0.2,0,0.2,0,0.1,0.2c0.1,0,0.1,0,0.2,0c0,0.1,0.1,0.1,0.1,0.2c0,0.1,0,0.2,0,0.3c0,0.1,0,0.1,0,0.2
	C13,5.7,13,5.6,13,5.6c0.2,0.1,0.1,0.2,0.1,0.3c0,0-0.1,0-0.1,0c0,0,0,0,0,0C13,6,13.1,6,13.1,6C13.2,6,13.3,6,13.3,6.1z M2.8,5.1
	C2.8,5.1,2.8,5.2,2.8,5.1C3,5.1,3.2,5,3.4,4.9c0,0,0,0,0,0c0,0-0.1,0-0.1,0C3.1,4.9,2.9,5,2.8,5.1z M3,5.4C3.1,5.4,3.1,5.4,3,5.4
	c0.1,0.1,0.1,0.1,0.2,0C3.2,5.3,3.1,5.3,3,5.4C3.1,5.3,3,5.4,3,5.4z M2.2,6.1c0-0.1-0.1-0.1-0.1-0.2C2,6,2.1,6.1,2.2,6.1z M2.8,5.6
	C2.8,5.6,2.8,5.5,2.8,5.6C2.7,5.5,2.7,5.5,2.6,5.5c0,0,0,0,0,0c0,0,0,0,0,0c0-0.1,0-0.1,0-0.2C2.5,5.3,2.4,5.4,2.4,5.4
	c0,0.1,0,0.2,0,0.3c0,0-0.1,0-0.1,0c0,0,0,0.1,0,0.1c0.1,0,0.2,0.1,0.3,0.1c0,0,0-0.1,0.1-0.2c0,0,0,0,0,0c0,0,0,0,0,0
	C2.7,5.6,2.8,5.6,2.8,5.6z M3.3,5.7c0-0.1-0.1-0.1-0.1-0.2C3.2,5.6,3.1,5.6,3,5.7C3.1,5.7,3.2,5.7,3.3,5.7z M3.5,5.2
	c0,0-0.1-0.1-0.1-0.1c-0.1,0-0.2,0-0.3,0.1c0.1,0.2,0.2,0.1,0.3,0C3.5,5.2,3.5,5.2,3.5,5.2C3.5,5.2,3.5,5.2,3.5,5.2z M3.7,5.7
	C3.7,5.7,3.7,5.7,3.7,5.7c-0.1,0-0.1,0-0.2,0.1c0,0,0,0,0.1,0C3.7,5.8,3.7,5.8,3.7,5.7z M4,3.9C4,3.9,4,4,4,4c0,0,0.1,0,0.1,0
	c0,0.2,0.1,0.2,0.4,0.1c-0.1,0-0.2,0-0.3-0.1C4.3,4,4.3,4,4.4,3.9C4.2,3.9,4.1,3.8,4,3.9C4,3.8,4,3.9,4,3.9z M4.1,5.5
	c0,0,0-0.1-0.1-0.1c0,0,0-0.1-0.1-0.1c0,0-0.1,0.1-0.1,0.1C3.9,5.4,4,5.5,4.1,5.5C4.1,5.6,4.1,5.5,4.1,5.5z M4.7,4.9
	c-0.1,0-0.1,0-0.2,0c-0.1,0-0.1,0-0.2,0C4.3,4.8,4.2,4.7,4.1,4.5c0,0-0.1,0.1-0.1,0.1c0.1,0,0.1,0.1,0.2,0.1C4.1,4.8,4,4.8,4,4.8
	C4.1,4.9,4.2,4.9,4.3,5c0,0-0.1,0.1-0.1,0.1C4.5,5.2,4.7,5.1,4.7,4.9z M4.7,4.7c0-0.1-0.1-0.1-0.1-0.2c0,0,0,0,0,0c0,0-0.1,0-0.1,0
	c0,0.1,0,0.1-0.1,0.2C4.5,4.6,4.6,4.7,4.7,4.7z M4.8,4.9C4.9,4.8,5,4.7,5.1,4.7c0.1-0.1,0.1-0.1,0.1-0.2C5,4.6,5,4.6,4.9,4.7
	C4.7,4.7,4.7,4.8,4.8,4.9z M5,5.6c0,0-0.1-0.1-0.1-0.1c0,0,0,0,0,0c0,0.1,0.1,0.1,0.1,0.2c0,0,0,0,0.1,0C5,5.6,5,5.6,5,5.6z
	 M5.1,5.3c0.1-0.1,0.1-0.1,0.2-0.2c0,0,0,0-0.1-0.1C5.2,5.1,5.1,5.2,5.1,5.3C5.1,5.3,5.1,5.3,5.1,5.3z M5.5,5.8
	c-0.1,0-0.2,0-0.3,0.1c0,0.1,0.1,0.2,0.1,0.3C5.4,6,5.4,5.9,5.5,5.8z M8.5,4.2c0.1,0,0.1,0.1,0.2,0.1c0,0.1,0,0.2,0.1,0.3
	c0-0.1,0-0.2-0.1-0.3c0-0.1,0-0.2-0.1-0.2c0,0-0.1,0-0.1,0C8.5,4.1,8.5,4.2,8.5,4.2z M8.1,4.9C8.1,4.9,8.1,4.9,8.1,4.9
	c0.2,0,0.3,0,0.3-0.1c0.1,0,0.1,0.1,0.1,0.1c0.1-0.1,0-0.5-0.2-0.5c0,0.1,0.1,0.2,0.2,0.3C8.3,4.6,8.3,4.6,8.2,4.5
	C8.3,4.7,8.2,4.8,8.1,4.9C8.1,4.8,8.1,4.8,8.1,4.9z M8.4,5.7C8.4,5.7,8.4,5.7,8.4,5.7c0,0,0.1,0,0.1,0c-0.1-0.1-0.2-0.2-0.4,0
	C8.3,5.7,8.3,5.7,8.4,5.7z M7.5,5.8c0.2,0,0.3-0.1,0.4-0.2c0.1,0,0.2,0,0.2,0C8.1,5.6,8,5.5,8,5.5C7.8,5.6,7.7,5.7,7.5,5.8z M7,4.2
	c0.1,0,0.2-0.1,0.3-0.1c0,0,0,0,0-0.1c-0.1,0-0.1,0-0.2-0.1C7,4.1,7,4.2,7,4.2z M6.7,4.3c0.1,0,0.2,0.1,0.2,0.1c0,0,0,0,0,0
	c0,0-0.1-0.1-0.1-0.1C6.8,4.2,6.7,4.2,6.7,4.3z M6.6,4.6c0,0.1,0,0.1,0.1,0.2c0.1,0,0.2,0.1,0.3,0.1c0,0,0,0,0,0
	C6.9,4.8,6.8,4.7,6.7,4.7C6.7,4.6,6.6,4.7,6.6,4.6z M5.8,5.2c-0.1,0-0.1-0.1-0.2-0.1c0,0.1-0.1,0.1-0.1,0.2c0,0,0,0,0,0
	C5.7,5.3,5.7,5.3,5.8,5.2z M5.9,4.8c0-0.1,0-0.1,0-0.2c-0.1,0-0.2,0.1-0.3,0.1C5.6,4.9,5.8,4.8,5.9,4.8z M6,4.9c0,0,0.1-0.1,0.1-0.1
	c0.1-0.1,0.2-0.3,0.1-0.5c0,0.1,0,0.2,0,0.4c0,0-0.1,0-0.1,0c0,0.1-0.1,0.1-0.1,0.2c0,0,0,0,0,0C5.9,4.8,6,4.9,6,4.9z M6.2,5
	C6.1,5,6.1,5,6,5c0,0.1,0.1,0.2,0.1,0.4C6.2,5.3,6.2,5.2,6.2,5z M6.7,5C6.4,4.8,6.2,4.8,6.2,4.9c0.1,0,0.3,0.1,0.4,0.1
	C6.6,5.1,6.7,5,6.7,5z M7,5.2C7.1,5.1,7.1,5.1,7.2,5c0,0,0,0.1,0.1,0.1C7.3,5.1,7.3,5,7.4,5c0,0,0,0,0,0C7.2,4.8,7.2,5,7,5
	c0,0,0,0,0,0c0,0,0,0,0-0.1C7,5,6.9,5,6.8,5c0,0,0,0.1,0,0.1C7,5,7,5.2,7,5.2z M7.1,5.6C7.1,5.6,7.1,5.6,7.1,5.6
	c-0.1,0-0.2,0-0.3,0.1c0,0,0,0,0,0.1C7,5.7,7.1,5.7,7.1,5.6z M7.4,5.8C7.3,5.7,7.2,5.7,7.1,5.7c0,0,0,0.1,0,0.2c0,0,0,0,0.1,0
	c0,0,0-0.1,0-0.1C7.2,5.8,7.3,5.8,7.4,5.8z M7.5,5.3c0,0,0.1-0.1,0.1-0.1c0,0,0-0.1-0.1-0.1c0,0-0.1,0-0.2-0.1
	C7.4,5.1,7.4,5.1,7.5,5.3C7.4,5.2,7.3,5.2,7.3,5.2C7.3,5.3,7.4,5.4,7.5,5.3z M7.7,6.2C7.7,6.2,7.7,6.1,7.7,6.2c-0.1-0.1-0.1,0-0.2,0
	c0,0,0,0.1,0,0.1C7.6,6.2,7.7,6.2,7.7,6.2z M8,6c0,0-0.1-0.1-0.1-0.1C7.9,5.9,7.8,5.9,7.8,6c0,0,0,0.1,0,0.1C7.9,6,8,6,8,6z
	 M8.5,6.6C8.4,6.4,8.3,6.3,8.3,6.2c0,0.1,0,0.1-0.1,0.2c0,0-0.1-0.1-0.1-0.1c0,0.1,0,0.2,0.1,0.3C8.2,6.5,8.4,6.5,8.5,6.6z M8.7,6.1
	C8.7,6.1,8.7,6.1,8.7,6.1C8.6,6.1,8.5,6.1,8.5,6c0,0-0.1,0-0.1-0.1c0,0,0,0.1,0,0.1c0,0.1,0,0.1,0.1,0.2c0,0,0,0.1,0.1,0.1
	c0,0,0-0.1,0-0.1C8.6,6.2,8.7,6.2,8.7,6.1z M8.8,5.5C8.8,5.5,8.8,5.4,8.8,5.5C8.7,5.4,8.7,5.4,8.7,5.3c0,0-0.1,0-0.1,0
	c0,0,0,0.1,0,0.1c0,0.1,0.1,0.1,0.2,0.1C8.7,5.6,8.7,5.6,8.8,5.5C8.8,5.5,8.8,5.5,8.8,5.5z M8.9,5.3C8.8,5,8.6,5,8.4,5
	c0,0.1,0.1,0.2,0.2,0.1c0.1,0,0.1,0,0.2,0.1C8.7,5.2,8.8,5.3,8.9,5.3z M9,4.7c0.1,0,0.2,0,0.2-0.2C9.1,4.6,9,4.6,8.8,4.7
	C8.9,4.8,9,4.8,9,4.7z M9.2,6.4c0-0.1-0.1-0.2-0.1-0.3c0,0,0,0,0,0c0,0.1,0,0.2,0,0.2C9.1,6.4,9.2,6.4,9.2,6.4z M9.4,4.9
	C9.4,4.9,9.4,4.9,9.4,4.9c0-0.1-0.1-0.1-0.1-0.1c0,0,0,0-0.1,0c0,0,0,0,0,0.1C9.2,4.9,9.3,4.9,9.4,4.9z M9.4,5.1
	c0.1,0.1,0.1,0.2,0.1,0.3c0,0,0,0,0.1,0c0-0.1,0-0.2,0-0.2C9.6,5.1,9.5,5.1,9.4,5.1z M9.7,5.8c0-0.1-0.1-0.1-0.1-0.2
	c0,0.2,0,0.2,0,0.3c0,0,0,0,0.1,0.1C9.6,5.9,9.7,5.8,9.7,5.8z M12.6,5.6c0.1,0,0.2,0,0.3,0C12.7,5.5,12.6,5.6,12.6,5.6z M12.6,5.3
	c0,0.1,0,0.1-0.1,0.2c0.1-0.1,0.2-0.1,0.2-0.2c0,0,0,0,0,0C12.7,5.3,12.6,5.3,12.6,5.3z M12.2,5.2c0.1,0,0.2,0,0.2,0
	c0-0.1,0.1-0.2,0.1-0.2c0,0-0.1,0-0.1,0C12.3,5.1,12.3,5.2,12.2,5.2z M11.7,4.8c0,0.1,0.1,0.1,0.1,0.2c0,0,0.1,0,0.1,0
	C11.9,4.9,11.8,4.9,11.7,4.8C11.8,4.8,11.8,4.8,11.7,4.8z M11.5,5.8c0,0.1,0,0.1,0,0.2c0.1-0.1,0.2-0.1,0.2-0.2
	C11.6,5.8,11.5,5.8,11.5,5.8z M11,5C11,5,11,5.1,11,5c0.1,0,0.2,0,0.3,0c0,0,0-0.1,0-0.1C11.2,4.9,11.1,5,11,5z M10.9,4.7
	c0,0,0.1,0.1,0.1,0.1c0,0,0-0.1,0.1-0.1C11.1,4.6,11,4.6,10.9,4.7C10.9,4.6,10.9,4.6,10.9,4.7z M10.8,5c0,0,0.1,0,0.1,0
	c0-0.1,0-0.1,0.1-0.2C10.9,4.9,10.8,5,10.8,5z M10.5,4.6c0.1,0,0.2,0.1,0.2,0c0,0-0.1-0.1-0.1-0.1C10.5,4.5,10.5,4.6,10.5,4.6z
	 M10.4,4.9C10.5,4.9,10.5,4.9,10.4,4.9C10.6,4.8,10.6,5,10.7,5c0-0.1,0-0.2,0-0.3c-0.1,0.1-0.2,0-0.2-0.1
	C10.3,4.7,10.3,4.8,10.4,4.9z M9.9,5.1c0,0.1,0.1,0.1,0.2,0.1c0,0,0.1,0,0.2-0.1c-0.1,0-0.1-0.1-0.2-0.1c0.1,0,0.1,0,0.2-0.1
	c0,0,0,0,0,0c0-0.1-0.2-0.2-0.2-0.1C9.9,4.9,9.9,5,9.9,5.1z M10.3,5.9c0-0.2,0-0.3-0.2-0.3c0,0.1,0,0.1,0,0.2c-0.1,0-0.2,0-0.3,0
	c0,0.1,0,0.1,0,0.2c0.1,0,0.2,0,0.3-0.1C10.1,5.9,10.2,5.9,10.3,5.9z M10.4,6.2C10.4,6.2,10.4,6.2,10.4,6.2c-0.1,0-0.1,0.1-0.2,0.2
	c0,0,0,0,0.1,0C10.3,6.4,10.4,6.3,10.4,6.2z M10.5,4.9c-0.1,0-0.1,0.1-0.2,0.1c0,0,0.1,0,0.1,0.1c-0.1,0-0.1,0.1-0.2,0.1
	C10.5,5.2,10.5,5.2,10.5,4.9z M10.8,6c-0.1-0.1-0.1-0.1-0.2-0.2c0,0.1-0.1,0.1-0.1,0.2C10.6,6.2,10.7,6.1,10.8,6z M11.1,6.5
	c-0.1,0-0.2,0-0.3,0c0,0,0,0,0,0.1C10.8,6.5,10.9,6.5,11.1,6.5C11,6.5,11,6.5,11.1,6.5z M11.1,5.4c-0.1,0-0.2,0-0.2,0c0,0,0,0,0,0
	c0,0,0.1,0.1,0.1,0.1C11.1,5.5,11.1,5.5,11.1,5.4z M11.4,5.6C11.4,5.6,11.5,5.6,11.4,5.6c0.1-0.1,0-0.2,0-0.2
	c-0.1,0-0.2-0.1-0.2-0.2c0,0,0-0.1,0-0.1c0,0,0,0-0.1,0c0,0.1,0,0.2,0,0.4C11.3,5.6,11.4,5.6,11.4,5.6z M11.7,6.2
	c0-0.1,0-0.1-0.1-0.2c-0.1,0.1-0.2,0.2-0.2,0.3c0.1,0,0.1,0,0.2,0c0-0.1,0-0.1,0-0.2C11.6,6.2,11.7,6.2,11.7,6.2z M12.1,6
	c-0.1,0-0.3-0.2-0.4,0C11.8,6.1,11.9,6,12.1,6z M12.5,6.6c-0.1,0-0.1,0-0.2,0c0-0.1,0-0.3,0-0.4C12,6.4,12,6.5,12.2,6.6
	c0,0,0,0.1,0.1,0.1C12.3,6.7,12.4,6.7,12.5,6.6z M12.7,5.9c-0.1-0.1-0.2-0.2-0.3-0.3C12.4,5.8,12.5,5.9,12.7,5.9z M12.9,5.8
	c-0.2,0-0.2,0.2-0.3,0.3C12.8,6,12.9,5.9,12.9,5.8z M6.7,3.2c0,0-0.1-0.1-0.1-0.2c0,0,0,0.1,0,0.1C6.7,3.2,6.7,3.2,6.7,3.2z
	 M5.3,3.5c0.1,0,0.2,0.1,0.3,0.1c0-0.1,0-0.2,0-0.3c-0.1,0-0.1,0.1-0.2,0.1c-0.1,0-0.2-0.1-0.2-0.1c0,0,0-0.1,0-0.2c0,0,0,0,0,0
	C5.1,3.2,5,3.2,5,3.3C5.1,3.4,5.2,3.5,5.3,3.5C5.3,3.5,5.3,3.5,5.3,3.5z M7,2.7C7,2.7,7,2.6,7,2.6c-0.1,0-0.2,0-0.3,0c0,0,0,0,0,0
	C6.8,2.7,6.9,2.7,7,2.7z M9.3,3.7C9.2,3.8,9.2,3.9,9.3,4C9.4,3.9,9.4,3.8,9.3,3.7z M5.8,4.1c0,0,0.1,0,0.1,0c0,0,0-0.1,0.1-0.1
	c-0.1,0-0.2-0.1-0.3-0.1C5.6,3.9,5.7,4,5.8,4.1C5.6,4,5.5,4,5.5,4.2C5.6,4.2,5.7,4.2,5.8,4.1z M5.9,4.1C5.9,4.1,5.9,4.1,5.9,4.1
	C5.9,4.1,5.9,4.1,5.9,4.1C5.9,4.1,5.9,4.1,5.9,4.1C5.9,4.1,5.9,4.1,5.9,4.1z M9.3,4C9.3,4,9.3,4,9.3,4C9.3,4,9.3,4,9.3,4
	C9.3,4,9.3,4,9.3,4C9.3,4,9.3,4,9.3,4z M6.6,2.8c0,0,0-0.1,0-0.1C6.5,2.7,6.4,2.7,6.3,2.8c0,0,0,0,0,0C6.4,2.8,6.5,2.8,6.6,2.8z
	 M10.1,3.3c0.1,0,0.2-0.1,0.2-0.1c0,0,0-0.1,0-0.1c0,0-0.1,0-0.1,0c-0.1,0.1-0.2,0-0.2-0.1c0,0,0-0.1-0.1-0.1c0,0,0,0-0.1,0
	C9.9,3,9.8,3,9.7,2.9c0,0,0,0,0,0c0.1,0,0.1,0.1,0.2,0.1C10,3.1,10.1,3.1,10.1,3.3z M10.3,3.9c0-0.2,0-0.4,0-0.5c0,0,0,0,0,0
	c0,0,0,0.1,0,0.1c-0.1,0-0.2,0-0.2-0.1c0,0.1-0.1,0.2-0.1,0.3c0,0,0,0,0,0c0.1,0,0.1-0.1,0.2-0.1C10.1,3.8,10.1,3.8,10.3,3.9z
	 M9.1,2.6c0.1-0.1,0.2-0.1,0.3-0.2C9.3,2.3,9.1,2.4,9.1,2.6z M10.7,4.1c0-0.1,0-0.2,0-0.3c-0.1,0-0.2,0.1-0.3,0.1
	C10.6,4,10.6,4,10.7,4.1z M10.6,3.6c-0.1-0.1-0.1-0.1-0.2-0.2c0,0-0.1,0.1-0.1,0.1C10.5,3.5,10.5,3.6,10.6,3.6
	C10.6,3.6,10.6,3.6,10.6,3.6z M9.3,3.2C9.2,3.2,9.1,3.1,9,3.1c0,0,0,0,0,0c0,0,0,0.1,0.1,0.1C9.2,3.3,9.2,3.4,9,3.4c0,0,0,0,0,0
	c0.1,0,0.2,0,0.2,0c0-0.1,0.2-0.2,0.1-0.4c0-0.1,0-0.1,0-0.2C9.1,3,9.1,2.8,9.1,2.7C9,2.8,8.9,2.9,8.9,3C9.1,2.9,9.2,3,9.3,3.2z
	 M7.1,3.5C7.1,3.5,7.1,3.5,7.1,3.5C7.1,3.5,7.1,3.5,7.1,3.5C7.1,3.5,7.1,3.5,7.1,3.5C7.1,3.5,7.1,3.5,7.1,3.5z M8.9,3.4
	c-0.1,0-0.1-0.1-0.2-0.1c0,0,0,0-0.1,0c0,0.1,0,0.1,0.1,0.2C8.8,3.5,8.9,3.5,8.9,3.4z M6.8,3.7C6.9,3.7,6.9,3.8,6.8,3.7
	C7,3.7,7,3.6,7.1,3.5C7,3.6,6.8,3.6,6.8,3.7z M8.1,2.5c0,0,0-0.1,0-0.1c0,0,0.1-0.1,0.2-0.1c-0.1,0-0.2,0-0.2-0.1
	C8,2.4,7.9,2.5,8.1,2.5z M7,3.3C7,3.4,7,3.4,7.1,3.5c0.1-0.1,0.2-0.2,0.1-0.3c0,0-0.1,0-0.1,0C7,3.2,7,3.3,7,3.3z M12.1,4.8
	C12.1,4.8,12.1,4.8,12.1,4.8C12.1,4.8,12.1,4.8,12.1,4.8C12.1,4.8,12.1,4.8,12.1,4.8C12.1,4.8,12.1,4.8,12.1,4.8z M5.1,4.2
	C5.1,4.2,5.1,4.2,5.1,4.2C5.1,4.2,5.1,4.2,5.1,4.2C5.1,4.2,5.1,4.2,5.1,4.2C5.1,4.2,5.1,4.2,5.1,4.2z M6.4,3.8c0-0.2,0-0.2,0.2-0.1
	c0.1,0,0.1,0,0.2,0C6.6,3.5,6.4,3.5,6.3,3.4c0,0,0,0,0,0c0,0-0.1,0.1-0.1,0.1c0-0.1,0-0.1,0.1-0.3C6.1,3.2,6,3.3,5.9,3.4
	c-0.1,0-0.1-0.1-0.2-0.1c0,0.1,0,0.2,0,0.3C5.9,3.7,5.9,3.8,5.9,4C6,3.9,6,3.8,6,3.7C6.1,3.7,6.2,3.9,6.4,3.8z M5.9,4
	C5.9,4,5.9,4,5.9,4C5.9,4,5.9,4,5.9,4C5.9,4,5.9,4,5.9,4C5.9,4,5.9,4,5.9,4z M7.5,4.3C7.5,4.3,7.5,4.3,7.5,4.3
	C7.5,4.3,7.5,4.3,7.5,4.3C7.5,4.3,7.5,4.3,7.5,4.3C7.5,4.3,7.5,4.3,7.5,4.3z M7.9,4.2C7.8,4.1,7.7,4,7.7,3.9c0,0,0,0.1-0.1,0.1
	c0,0.1-0.1,0.2-0.1,0.3c0,0,0.1,0,0.1,0C7.7,4.2,7.8,4.2,7.9,4.2z M4.9,4C4.9,3.9,4.8,4,4.7,4c0,0,0,0,0,0C4.7,4.1,4.8,4.1,4.9,4
	C4.9,4.1,4.9,4.1,4.9,4z M5.2,3.9C5.2,3.9,5.2,3.9,5.2,3.9C5.2,3.9,5.2,3.9,5.2,3.9C5.2,3.9,5.2,3.9,5.2,3.9
	C5.2,3.9,5.2,3.9,5.2,3.9z M7.5,4.3c0,0-0.1,0-0.1,0c0,0,0,0,0,0c0,0.1,0.1,0.1,0.1,0.2C7.6,4.4,7.5,4.4,7.5,4.3z M5.5,3.7
	c-0.1-0.1-0.1-0.1-0.2,0c0,0.1-0.1,0.1-0.1,0.2C5.3,3.9,5.4,4,5.5,4C5.5,3.9,5.5,3.8,5.5,3.7z M5.2,3.9C5.1,3.8,5,3.8,4.9,3.7
	C5,3.9,5.1,4,5.1,4.2C5.2,4.1,5.2,4,5.2,3.9z M8,4C8,4,8,4,8,4C8,4,8,4,8,4C8,4,8,4,8,4C8,4,8,4,8,4z M7.9,3.9c0,0,0.1,0,0.1,0.1
	C8,3.9,8.1,3.8,8.1,3.7C8,3.6,7.9,3.6,7.8,3.5c0,0,0,0,0,0c-0.1,0-0.2,0-0.4,0.1c0-0.1,0.1-0.1,0.1-0.1c-0.1,0-0.1,0-0.2,0
	c0,0,0,0,0,0C7.3,3.5,7.2,3.6,7.2,3.7c0.1,0,0.3-0.1,0.4,0.1c0,0.1,0.1,0.1,0.2,0.1C7.7,3.8,7.8,3.8,7.9,3.9z M10.7,4.2
	c0.1,0.1,0.2,0,0.3,0c0,0,0,0,0,0C10.9,4.1,10.8,4.1,10.7,4.2z M9.3,3.7C9.3,3.7,9.3,3.7,9.3,3.7L9.3,3.7L9.3,3.7L9.3,3.7
	C9.3,3.7,9.3,3.7,9.3,3.7C9.3,3.7,9.3,3.7,9.3,3.7C9.3,3.7,9.3,3.7,9.3,3.7z M8.3,3.5c0,0.1,0,0.1-0.1,0.2c0.1,0,0.1,0,0.1-0.1
	c0.1-0.1,0.1-0.2,0.2-0.3C8.5,3.4,8.4,3.4,8.3,3.5c0-0.1-0.1-0.1-0.1-0.1c0.1-0.1,0.2-0.2,0.4-0.3C8.5,3,8.4,3,8.3,3
	c0,0.1,0,0.1,0,0.2C8.2,3.2,8,3.2,8,3.4c0,0,0,0,0,0c0,0.1,0.1,0.1,0.1,0.2C8.2,3.6,8.2,3.5,8.3,3.5z M7.7,3.9
	C7.7,3.9,7.7,3.9,7.7,3.9C7.7,3.9,7.7,3.9,7.7,3.9C7.7,3.9,7.7,3.9,7.7,3.9C7.7,3.9,7.7,3.9,7.7,3.9z M7.5,4.5
	C7.5,4.5,7.5,4.5,7.5,4.5C7.5,4.5,7.5,4.5,7.5,4.5C7.5,4.5,7.5,4.5,7.5,4.5C7.5,4.5,7.5,4.5,7.5,4.5z M8,3.4C8,3.4,8,3.4,8,3.4
	C8,3.4,8,3.4,8,3.4C8,3.4,8,3.4,8,3.4z M8,3.4c0,0-0.1-0.1-0.1-0.1c-0.1,0-0.1,0.1-0.1,0.2C8,3.6,8,3.6,8,3.4z M7.8,3.5
	C7.8,3.5,7.8,3.5,7.8,3.5C7.8,3.5,7.8,3.5,7.8,3.5C7.8,3.5,7.8,3.5,7.8,3.5z"/>
</svg>
