<?xml version="1.0" encoding="UTF-8" standalone="no"?>
<svg id="Logo" style="enable-background:new 0 0 774 264" xmlns="http://www.w3.org/2000/svg" xml:space="preserve" viewBox="0 0 774 264" version="1.1" y="0px" x="0px" xmlns:xlink="http://www.w3.org/1999/xlink">
<path id="logo" d="m90.2 168c-6.5 1.4-17.8 2.9-29.3 2.9-37.4 0-51.4-3.8-51.4-42v-110c0-2.3 1.9-4.1 4.3-4.1h21.4c2.4 0 4.3 1.8 4.3 4.1v110c0 14.2 5.1 17.6 18.4 17.6h32.3c2.9 0 4.3 1 4.3 4.1v13.1c0 3-1 4-4.3 4m52.8 3c33.9 0 51.6-21.7 51.6-51v-16.6c0-29.3-17.7-51-51.6-51s-51.6 21.7-51.6 51v16.6c-0.1 30 17.6 51 51.6 51m23-51c0 16.8-8 27.7-23.1 27.7s-23.1-10.9-23.1-27.7v-16.6c0-16.8 8-27.7 23.1-27.7 15 0.7 23 11.6 23 28.7v16zm151 50c2.8-0.4 4.1-1.6 4.1-3.7v-12.9c0-2.1-1.7-3.1-4.5-3.1h-11c-7.8 0-8.4-1.2-8.4-11.5v-63.2h15.1c2.4 0 4.3-1.8 4.3-4.1v-12.1c0-2.3-1.9-4.1-4.3-4.1h-15.1v-29c0-2-1.5-3.1-3.5-3.1h-0.9l-20.1 3.3c-2.4 0.4-4.3 1.8-4.3 4.1v24.7h-9.4c-2.4 0-4.3 1.8-4.3 4.1v9.2c0 2.3 1 6.6 3.3 7h10.4v64.3c0 27.4 9.9 32.6 34.3 32.6 4 0 9-1 14-2m50 1c33.9 0 51.6-21.7 51.6-51v-16.6c0-29.3-17.7-51-51.6-51s-52 22-52 51v16.6c0 29 18 51 52 51m23-51c0 16.8-8 27.7-23.1 27.7s-23.1-10.9-23.1-27.7v-16.6c0-16.8 8-27.7 23.1-27.7s23.1 10.9 23.1 27.7v17zm59 50c2.4 0 4.1-2.1 4.1-4.3v-147c0-2.3-1.7-4.1-4.1-4.1h-20c-2.4 0-4.3 1.8-4.3 4.1v146c0 2.3 1.9 4.3 4.3 4.3h20m100 1c2.4 0 4.3-1.8 4.3-4.1v-74.2c0-26.2-16.8-39.1-47.5-39.1-14.9 0-27.4 1.6-36 3.3-2.8 0.6-4.1 2-4.1 4.3v13.1c0 2.9 1.7 3.5 3.9 3.5h1.1c7.1-0.8 21.4-1.6 35.2-1.6 12.7 0 19 3.3 19 16.6v9h-13.6c-37.6 0-52.7 12.1-52.7 35.4v0.8c0 27.6 19.4 34.2 37.3 34.2 10.4 0 20.5-3.3 30.4-9v3.3c0 2.3 1.9 4.1 4.3 4.1h20m-25-25c-6.3 3.3-14.2 5.7-22 5.7-10.8 0-15.5-2.7-15.5-12.7v-0.8c0-11.5 4.3-17.4 24-17.4h13.6v25zm131 26c2.4 0 4.3-2.1 4.3-4.3v-67.4c0-26-6.3-45.9-37.3-45.9-14.2 0-22.4 2.2-35 9.8v-4.3c0-2.3-1.9-4.1-4.3-4.1h-18.8c-2.4 0-4.3 1.8-4.3 4.1v107c0 2.3 1.9 4.3 4.3 4.3h20c2.4 0 4.3-2.1 4.3-4.3v-82c9.1-4.5 17.1-7.4 24.4-7.4 16.6 0 18.3 5.1 18.3 22.9v66.8c0 2.3 1.9 4.3 4.3 4.3h21m105-3c5-1.2 5.8-2.5 5.8-5.5v-141c0-2.3-1.9-4.1-4.3-4.1h-19.9c-2.4 0-4.3 1.8-4.3 4.1v34.7c-8-1-15.5-1.4-20.7-1.4-34.7 0-51.6 19.5-51.6 51.4v15.8c0 32 16.8 51.4 51.6 51.4 14 0 30-2 43-5m-22-18c-4.1 0.8-13 1.4-20.7 1.4-18.6 0-23.1-12.5-23.1-29.3v-15.8c0-16.8 4.5-29.3 23.1-29.3 5.2 0 14.7 0.6 20.7 1.4v71.9zm-486 22c2.8-0.4 4.1-1.6 4.1-3.7v-12.9c0-2-1.7-3.1-4.5-3.1h-11.4c-7.8 0-8.4-1.2-8.4-11.5v-63.6h14c2.4 0 4.3-1.8 4.3-4.1v-12.1c0-2.3-1.9-4.1-4.3-4.1h-15.1v-29c0-2-1.5-3.1-3.5-3.1h-0.9l-20.1 3.3c-2.4 0.4-4.3 1.8-4.3 4.1v24.7h-9.4c-2.4 0-4.3 1.8-4.3 4.1v9.2c0 2.3 1 6.6 3.3 7h10.4v64.3c0 27.4 9.9 32.6 34.3 32.6 5-1 10-1 15-2m137 17c-41.6 28.6-95.3 44.5-167 44.5s-126-16-168-45c-4 0-5.6 1.2-6 4 32.4 35.5 98.5 59.5 173 59.5 74.9 0 141-24 173-59.5 1-2-1-3-5-3"/>
</svg>
