<svg version="1.1" xmlns="http://www.w3.org/2000/svg" xmlns:xlink="http://www.w3.org/1999/xlink" x="0" y="0" viewBox="0 0 474.8 459.8" xml:space="preserve">
  <rect x="-57.4" y="97.6" width="245.4" height="362.1" fill="#C1AC8F"/>
  <rect x="-23.8" y="50.1" width="183" height="409" fill="#D8CAB6"/>
  <path d="M56.1 457.9H29.9V49.5h26.2V457.9zM4.7 49.5h-28.8v408.4H4.7V49.5zM108.1 49.5H81.8v408.4h26.3V49.5zM158.9 49.5h-25.6v408.4h25.6V49.5z" fill="#F2E4D1"/>
  <path d="M5.7 353.5h22.1v16.3H5.7V353.5zM57.7 369.8h22.1v-16.3H57.7V369.8zM31.7 369.8h22.1v-16.3H31.7V369.8zM135.7 353.5v16.3h22.1v-16.3H135.7zM109.7 369.8h22.1v-16.3h-22.1V369.8zM-20.3 369.8H1.7v-16.3h-22.1V369.8zM83.7 369.8h22.1v-16.3H83.7V369.8zM156.7 95h-21V57.6h21V95zM156.2 90.6h-0.5v-32h0V75H137V58.6h-0.3v32h-0.2v1h0.2V94h19v-2.3h0.5V90.6zM110.7 90.6v1h19v-1H110.7zM136.7 90.6v1h19v-1H136.7zM26.7 95h-21V57.6h21V95zM26.2 90.6h-0.5v-32h0V75H7V58.6H6.7v32H6.5v1h0.2V94h19v-2.3h0.5V90.6zM52.7 95h-21V57.6h21V95zM52.2 90.6h-0.5v-32h0V75H33V58.6h-0.3v32h-0.2v1h0.2V94h19v-2.3h0.5V90.6zM78.7 95h-21V57.6h21V95zM78.2 90.6h-0.5v-32h0V75H59V58.6h-0.3v32h-0.2v1h0.2V94h19v-2.3h0.5V90.6zM58.7 90.6v1h19v-1H58.7zM6.7 90.6v1h19v-1H6.7zM32.7 90.6v1h19v-1H32.7zM-19.3 90.6v1h19v-1H-19.3zM130.7 95h-21V57.6h21V95zM130.2 90.6h-0.5v-32h0V75H111V58.6h-0.3v32h-0.2v1h0.2V94h19v-2.3h0.5V90.6zM104.7 95h-21V57.6h21V95zM104.2 90.6h-0.5v-32h0V75H85V58.6h-0.3v32h-0.2v1h0.2V94h19v-2.3h0.5V90.6zM0.7 95h-21V57.6h21V95zM0.2 90.6h-0.5v-32h0V75H-19V58.6h-0.3v32h-0.2v1h0.2V94h19v-2.3h0.5V90.6zM84.7 90.6v1h19v-1H84.7z" fill="#C1AC8F"/>
  <path d="M-44.8 452.8h-4v-1.6h4V452.8zM-44.8 430.2h-4v1.6h4V430.2zM-44.8 409.2h-4v1.6h4V409.2zM-44.8 388.2h-4v1.6h4V388.2zM-44.8 367.2h-4v1.6h4V367.2zM-44.8 346.2h-4v1.6h4V346.2zM-44.8 325.2h-4v1.6h4V325.2zM-44.8 304.2h-4v1.6h4V304.2zM-44.8 283.2h-4v1.6h4V283.2zM-44.8 262.2h-4v1.6h4V262.2zM-44.8 241.2h-4v1.6h4V241.2zM-44.8 220.2h-4v1.6h4V220.2zM-44.8 199.2h-4v1.6h4V199.2zM-44.8 178.2h-4v1.6h4V178.2zM-44.8 157.2h-4v1.6h4V157.2zM-44.8 136.2h-4v1.6h4V136.2zM-44.8 115.2h-4v1.6h4V115.2zM-33.8 451.2h-4v1.6h4V451.2zM-33.8 430.2h-4v1.6h4V430.2zM-33.8 409.2h-4v1.6h4V409.2zM-33.8 388.2h-4v1.6h4V388.2zM-33.8 367.2h-4v1.6h4V367.2zM-33.8 346.2h-4v1.6h4V346.2zM-33.8 325.2h-4v1.6h4V325.2zM-33.8 304.2h-4v1.6h4V304.2zM-33.8 283.2h-4v1.6h4V283.2zM-33.8 262.2h-4v1.6h4V262.2zM-33.8 241.2h-4v1.6h4V241.2zM-33.8 220.2h-4v1.6h4V220.2zM-33.8 199.2h-4v1.6h4V199.2zM-33.8 178.2h-4v1.6h4V178.2zM-33.8 157.2h-4v1.6h4V157.2zM-33.8 136.2h-4v1.6h4V136.2zM-33.8 115.2h-4v1.6h4V115.2zM-42.6 365.7h-8.2V355h8.2V365.7zM-39.6 355v10.6h7.8V355H-39.6zM-42.6 334h-8.2v10.6h8.2V334zM-39.6 334v10.6h7.8V334H-39.6zM-42.6 313h-8.2v10.6h8.2V313zM-39.6 313v10.6h7.8V313H-39.6zM-42.6 292h-8.2v10.6h8.2V292zM-39.6 292v10.6h7.8V292H-39.6zM-42.6 271h-8.2v10.6h8.2V271zM-39.6 271v10.6h7.8V271H-39.6zM-42.6 250h-8.2v10.6h8.2V250zM-39.6 250v10.6h7.8V250H-39.6zM-42.6 229h-8.2v10.6h8.2V229zM-39.6 229v10.6h7.8V229H-39.6zM-42.6 208h-8.2v10.6h8.2V208zM-39.6 208v10.6h7.8V208H-39.6zM-42.6 187h-8.2v10.6h8.2V187zM-39.6 187v10.6h7.8V187H-39.6zM-42.6 166h-8.2v10.6h8.2V166zM-39.6 166v10.6h7.8V166H-39.6zM-42.6 145h-8.2v10.6h8.2V145zM-39.6 145v10.6h7.8V145H-39.6zM-42.6 124h-8.2v10.6h8.2V124zM-39.6 124v10.6h7.8V124H-39.6zM-42.6 103h-8.2v10.6h8.2V103zM-39.6 103v10.6h7.8V103H-39.6zM33 207.6h7.4V220H33V207.6zM34.9 179.4v2h4v-2H34.9zM34.9 221.4v2h4v-2H34.9zM34.9 200.4v2h4v-2H34.9zM33 241h7.4v-12.5H33V241zM33 199h7.4v-12.5H33V199zM33 178h7.4v-12.5H33V178zM34.9 242.4v2h4v-2H34.9zM33 304h7.4v-12.5H33V304zM34.9 305.4v2h4v-2H34.9zM34.9 284.4v2h4v-2H34.9zM34.9 263.4v2h4v-2H34.9zM33 262h7.4v-12.5H33V262zM33 283h7.4v-12.5H33V283zM44.3 451h7.4v-12.5h-7.4V451zM44.3 430h7.4v-12.5h-7.4V430zM45.9 431.4v2h4v-2H45.9zM45.9 410.4v2h4v-2H45.9zM44.3 409h7.4v-12.5h-7.4V409zM45.9 389.4v2h4v-2H45.9zM34.9 137.4v2h4v-2H34.9zM34.9 158.4v2h4v-2H34.9zM33 136h7.4v-12.5H33V136zM33 157h7.4v-12.5H33V157zM33 115h7.4v-12.5H33V115zM34.9 116.4v2h4v-2H34.9zM45.9 454.5h4v-2h-4V454.5zM18.3 199h7.4v-12.5h-7.4V199zM18.3 178h7.4v-12.5h-7.4V178zM19.9 158.4v2h4v-2H19.9zM19.9 179.4v2h4v-2H19.9zM18.3 157h7.4v-12.5h-7.4V157zM44.3 388h7.4v-12.5h-7.4V388zM19.9 137.4v2h4v-2H19.9zM18.3 136h7.4v-12.5h-7.4V136zM19.9 242.4v2h4v-2H19.9zM18.3 241h7.4v-12.5h-7.4V241zM18.3 262h7.4v-12.5h-7.4V262zM19.9 221.4v2h4v-2H19.9zM18.3 220h7.4v-12.5h-7.4V220zM19.9 200.4v2h4v-2H19.9zM34.9 410.4v2h4v-2H34.9zM33 388h7.4v-12.5H33V388zM34.9 389.4v2h4v-2H34.9zM34.9 347.4v2h4v-2H34.9zM33 409h7.4v-12.5H33V409zM33 346h7.4v-12.5H33V346zM34.9 326.4v2h4v-2H34.9zM33 451h7.4v-12.5H33V451zM34.9 454.5h4v-2h-4V454.5zM19.9 116.4v2h4v-2H19.9zM18.3 115h7.4v-12.5h-7.4V115zM33 430h7.4v-12.5H33V430zM33 325h7.4v-12.5H33V325zM34.9 431.4v2h4v-2H34.9zM44.3 199h7.4v-12.5h-7.4V199zM59 304h7.4v-12.5H59V304zM60.9 305.4v2h4v-2H60.9zM60.9 284.4v2h4v-2H60.9zM60.9 263.4v2h4v-2H60.9zM59 325h7.4v-12.5H59V325zM59 283h7.4v-12.5H59V283zM60.9 410.4v2h4v-2H60.9zM60.9 389.4v2h4v-2H60.9zM59 388h7.4v-12.5H59V388zM59 409h7.4v-12.5H59V409zM60.9 326.4v2h4v-2H60.9zM59 262h7.4v-12.5H59V262zM60.9 347.4v2h4v-2H60.9zM59 346h7.4v-12.5H59V346zM60.9 137.4v2h4v-2H60.9zM59 157h7.4v-12.5H59V157zM60.9 158.4v2h4v-2H60.9zM59 178h7.4v-12.5H59V178zM59 136h7.4v-12.5H59V136zM60.9 116.4v2h4v-2H60.9zM60.9 242.4v2h4v-2H60.9zM59 220h7.4v-12.5H59V220zM60.9 221.4v2h4v-2H60.9zM59 241h7.4v-12.5H59V241zM60.9 179.4v2h4v-2H60.9zM60.9 200.4v2h4v-2H60.9zM59 199h7.4v-12.5H59V199zM44.3 241h7.4v-12.5h-7.4V241zM59 430h7.4v-12.5H59V430zM45.9 263.4v2h4v-2H45.9zM45.9 242.4v2h4v-2H45.9zM44.3 283h7.4v-12.5h-7.4V283zM45.9 347.4v2h4v-2H45.9zM45.9 221.4v2h4v-2H45.9zM45.9 305.4v2h4v-2H45.9zM45.9 326.4v2h4v-2H45.9zM44.3 346h7.4v-12.5h-7.4V346zM44.3 325h7.4v-12.5h-7.4V325zM45.9 284.4v2h4v-2H45.9zM44.3 220h7.4v-12.5h-7.4V220zM44.3 304h7.4v-12.5h-7.4V304zM44.3 262h7.4v-12.5h-7.4V262zM45.9 200.4v2h4v-2H45.9zM44.3 115h7.4v-12.5h-7.4V115zM44.3 136h7.4v-12.5h-7.4V136zM45.9 116.4v2h4v-2H45.9zM59 451h7.4v-12.5H59V451zM60.9 431.4v2h4v-2H60.9zM60.9 454.5h4v-2h-4V454.5zM45.9 137.4v2h4v-2H45.9zM45.9 179.4v2h4v-2H45.9zM19.9 263.4v2h4v-2H19.9zM44.3 178h7.4v-12.5h-7.4V178zM44.3 157h7.4v-12.5h-7.4V157zM45.9 158.4v2h4v-2H45.9zM18.3 304h7.4v-12.5h-7.4V304zM-6.1 410.4v2h4v-2H-6.1zM-7.7 430h7.4v-12.5h-7.4V430zM-7.7 409h7.4v-12.5h-7.4V409zM-6.1 347.4v2h4v-2H-6.1zM-6.1 389.4v2h4v-2H-6.1zM-6.1 431.4v2h4v-2H-6.1zM-7.7 388h7.4v-12.5h-7.4V388zM-19 115h7.4v-12.5H-19V115zM-7.7 451h7.4v-12.5h-7.4V451zM-19 136h7.4v-12.5H-19V136zM-17.1 137.4v2h4v-2H-17.1zM-17.1 116.4v2h4v-2H-17.1zM-6.1 454.5h4v-2h-4V454.5zM-19 157h7.4v-12.5H-19V157zM-7.7 346h7.4v-12.5h-7.4V346zM-6.1 221.4v2h4v-2H-6.1zM-7.7 262h7.4v-12.5h-7.4V262zM-6.1 242.4v2h4v-2H-6.1zM-7.7 241h7.4v-12.5h-7.4V241zM-6.1 200.4v2h4v-2H-6.1zM-7.7 220h7.4v-12.5h-7.4V220zM-6.1 263.4v2h4v-2H-6.1zM-6.1 305.4v2h4v-2H-6.1zM-7.7 304h7.4v-12.5h-7.4V304zM-6.1 326.4v2h4v-2H-6.1zM-7.7 325h7.4v-12.5h-7.4V325zM-6.1 284.4v2h4v-2H-6.1zM-7.7 283h7.4v-12.5h-7.4V283zM-19 346h7.4v-12.5H-19V346zM-17.1 347.4v2h4v-2H-17.1zM-7.7 199h7.4v-12.5h-7.4V199zM-19 388h7.4v-12.5H-19V388zM-17.1 389.4v2h4v-2H-17.1zM-19 325h7.4v-12.5H-19V325zM-17.1 305.4v2h4v-2H-17.1zM-17.1 326.4v2h4v-2H-17.1zM-19 409h7.4v-12.5H-19V409zM-19 451h7.4v-12.5H-19V451zM-17.1 454.5h4v-2h-4V454.5zM-17.1 431.4v2h4v-2H-17.1zM-17.1 410.4v2h4v-2H-17.1zM-19 430h7.4v-12.5H-19V430zM-17.1 158.4v2h4v-2H-17.1zM-17.1 200.4v2h4v-2H-17.1zM-19 304h7.4v-12.5H-19V304zM-19 199h7.4v-12.5H-19V199zM-17.1 179.4v2h4v-2H-17.1zM-19 178h7.4v-12.5H-19V178zM-17.1 221.4v2h4v-2H-17.1zM-19 220h7.4v-12.5H-19V220zM-17.1 263.4v2h4v-2H-17.1zM-19 283h7.4v-12.5H-19V283zM-17.1 284.4v2h4v-2H-17.1zM-19 262h7.4v-12.5H-19V262zM-17.1 242.4v2h4v-2H-17.1zM-19 241h7.4v-12.5H-19V241zM19.9 454.5h4v-2h-4V454.5zM7 136h7.4v-12.5H7V136zM8.9 137.4v2h4v-2H8.9zM8.9 116.4v2h4v-2H8.9zM18.3 283h7.4v-12.5h-7.4V283zM7 115h7.4v-12.5H7V115zM7 157h7.4v-12.5H7V157zM18.3 451h7.4v-12.5h-7.4V451zM7 199h7.4v-12.5H7V199zM8.9 200.4v2h4v-2H8.9zM7 220h7.4v-12.5H7V220zM8.9 179.4v2h4v-2H8.9zM8.9 158.4v2h4v-2H8.9zM7 178h7.4v-12.5H7V178zM18.3 409h7.4v-12.5h-7.4V409zM18.3 325h7.4v-12.5h-7.4V325zM19.9 326.4v2h4v-2H19.9zM18.3 346h7.4v-12.5h-7.4V346zM-6.1 179.4v2h4v-2H-6.1zM59 115h7.4v-12.5H59V115zM19.9 284.4v2h4v-2H19.9zM18.3 388h7.4v-12.5h-7.4V388zM19.9 347.4v2h4v-2H19.9zM8.9 221.4v2h4v-2H8.9zM18.3 430h7.4v-12.5h-7.4V430zM19.9 410.4v2h4v-2H19.9zM19.9 389.4v2h4v-2H19.9zM19.9 431.4v2h4v-2H19.9zM19.9 305.4v2h4v-2H19.9zM8.9 431.4v2h4v-2H8.9zM7 451h7.4v-12.5H7V451zM8.9 454.5h4v-2h-4V454.5zM7 430h7.4v-12.5H7V430zM7 241h7.4v-12.5H7V241zM8.9 410.4v2h4v-2H8.9zM7 409h7.4v-12.5H7V409zM-6.1 158.4v2h4v-2H-6.1zM-7.7 178h7.4v-12.5h-7.4V178zM-7.7 157h7.4v-12.5h-7.4V157zM-6.1 137.4v2h4v-2H-6.1zM-7.7 136h7.4v-12.5h-7.4V136zM-6.1 116.4v2h4v-2H-6.1zM-7.7 115h7.4v-12.5h-7.4V115zM7 304h7.4v-12.5H7V304zM8.9 284.4v2h4v-2H8.9zM8.9 263.4v2h4v-2H8.9zM7 283h7.4v-12.5H7V283zM8.9 389.4v2h4v-2H8.9zM7 262h7.4v-12.5H7V262zM8.9 242.4v2h4v-2H8.9zM8.9 347.4v2h4v-2H8.9zM8.9 305.4v2h4v-2H8.9zM7 388h7.4v-12.5H7V388zM7 346h7.4v-12.5H7V346zM7 325h7.4v-12.5H7V325zM8.9 326.4v2h4v-2H8.9zM70.3 136h7.4v-12.5h-7.4V136zM122.3 199h7.4v-12.5h-7.4V199zM123.9 200.4v2h4v-2H123.9zM122.3 220h7.4v-12.5h-7.4V220zM123.9 179.4v2h4v-2H123.9zM123.9 221.4v2h4v-2H123.9zM122.3 178h7.4v-12.5h-7.4V178zM122.3 304h7.4v-12.5h-7.4V304zM123.9 263.4v2h4v-2H123.9zM122.3 241h7.4v-12.5h-7.4V241zM123.9 284.4v2h4v-2H123.9zM122.3 283h7.4v-12.5h-7.4V283zM123.9 242.4v2h4v-2H123.9zM123.9 158.4v2h4v-2H123.9zM122.3 262h7.4v-12.5h-7.4V262zM138.9 410.4v2h4v-2H138.9zM137 409h7.4v-12.5H137V409zM137 430h7.4v-12.5H137V430zM137 388h7.4v-12.5H137V388zM138.9 431.4v2h4v-2H138.9zM138.9 389.4v2h4v-2H138.9zM138.9 454.5h4v-2h-4V454.5zM111 262h7.4v-12.5H111V262zM123.9 116.4v2h4v-2H123.9zM137 451h7.4v-12.5H137V451zM123.9 137.4v2h4v-2H123.9zM122.3 115h7.4v-12.5h-7.4V115zM122.3 157h7.4v-12.5h-7.4V157zM112.9 158.4v2h4v-2H112.9zM138.9 347.4v2h4v-2H138.9zM112.9 179.4v2h4v-2H112.9zM111 157h7.4v-12.5H111V157zM111 178h7.4v-12.5H111V178zM112.9 137.4v2h4v-2H112.9zM111 136h7.4v-12.5H111V136zM112.9 242.4v2h4v-2H112.9zM111 241h7.4v-12.5H111V241zM112.9 116.4v2h4v-2H112.9zM112.9 221.4v2h4v-2H112.9zM111 220h7.4v-12.5H111V220zM112.9 200.4v2h4v-2H112.9zM111 199h7.4v-12.5H111V199zM123.9 347.4v2h4v-2H123.9zM122.3 346h7.4v-12.5h-7.4V346zM123.9 305.4v2h4v-2H123.9zM123.9 389.4v2h4v-2H123.9zM122.3 388h7.4v-12.5h-7.4V388zM123.9 326.4v2h4v-2H123.9zM122.3 325h7.4v-12.5h-7.4V325zM122.3 430h7.4v-12.5h-7.4V430zM122.3 409h7.4v-12.5h-7.4V409zM123.9 454.5h4v-2h-4V454.5zM123.9 431.4v2h4v-2H123.9zM122.3 451h7.4v-12.5h-7.4V451zM111 115h7.4v-12.5H111V115zM123.9 410.4v2h4v-2H123.9zM122.3 136h7.4v-12.5h-7.4V136zM149.9 284.4v2h4v-2H149.9zM148.3 304h7.4v-12.5h-7.4V304zM148.3 283h7.4v-12.5h-7.4V283zM149.9 242.4v2h4v-2H149.9zM148.3 262h7.4v-12.5h-7.4V262zM149.9 305.4v2h4v-2H149.9zM149.9 263.4v2h4v-2H149.9zM149.9 347.4v2h4v-2H149.9zM148.3 388h7.4v-12.5h-7.4V388zM148.3 325h7.4v-12.5h-7.4V325zM149.9 389.4v2h4v-2H149.9zM149.9 326.4v2h4v-2H149.9zM148.3 346h7.4v-12.5h-7.4V346zM148.3 220h7.4v-12.5h-7.4V220zM149.9 158.4v2h4v-2H149.9zM148.3 136h7.4v-12.5h-7.4V136zM148.3 157h7.4v-12.5h-7.4V157zM149.9 137.4v2h4v-2H149.9zM149.9 116.4v2h4v-2H149.9zM137 346h7.4v-12.5H137V346zM148.3 241h7.4v-12.5h-7.4V241zM148.3 178h7.4v-12.5h-7.4V178zM149.9 221.4v2h4v-2H149.9zM149.9 200.4v2h4v-2H149.9zM148.3 409h7.4v-12.5h-7.4V409zM148.3 199h7.4v-12.5h-7.4V199zM149.9 179.4v2h4v-2H149.9zM148.3 102.6V115h7.4v-12.5H148.3zM138.9 242.4v2h4v-2H138.9zM138.9 263.4v2h4v-2H138.9zM137 262h7.4v-12.5H137V262zM137 241h7.4v-12.5H137V241zM137 220h7.4v-12.5H137V220zM138.9 200.4v2h4v-2H138.9zM138.9 221.4v2h4v-2H138.9zM137 283h7.4v-12.5H137V283zM138.9 305.4v2h4v-2H138.9zM138.9 326.4v2h4v-2H138.9zM137 325h7.4v-12.5H137V325zM137 304h7.4v-12.5H137V304zM138.9 284.4v2h4v-2H138.9zM138.9 137.4v2h4v-2H138.9zM149.9 454.5h4v-2h-4V454.5zM137 115h7.4v-12.5H137V115zM148.3 451h7.4v-12.5h-7.4V451zM148.3 430h7.4v-12.5h-7.4V430zM137 199h7.4v-12.5H137V199zM149.9 431.4v2h4v-2H149.9zM138.9 116.4v2h4v-2H138.9zM137 178h7.4v-12.5H137V178zM137 136h7.4v-12.5H137V136zM138.9 179.4v2h4v-2H138.9zM138.9 158.4v2h4v-2H138.9zM137 157h7.4v-12.5H137V157zM149.9 410.4v2h4v-2H149.9zM97.9 326.4v2h4v-2H97.9zM85 388h7.4v-12.5H85V388zM86.9 389.4v2h4v-2H86.9zM85 409h7.4v-12.5H85V409zM85 346h7.4v-12.5H85V346zM86.9 347.4v2h4v-2H86.9zM86.9 326.4v2h4v-2H86.9zM86.9 410.4v2h4v-2H86.9zM70.3 115h7.4v-12.5h-7.4V115zM71.9 116.4v2h4v-2H71.9zM86.9 454.5h4v-2h-4V454.5zM86.9 431.4v2h4v-2H86.9zM86.9 179.4v2h4v-2H86.9zM85 430h7.4v-12.5H85V430zM86.9 200.4v2h4v-2H86.9zM86.9 221.4v2h4v-2H86.9zM86.9 242.4v2h4v-2H86.9zM85 220h7.4v-12.5H85V220zM85 241h7.4v-12.5H85V241zM85 199h7.4v-12.5H85V199zM71.9 137.4v2h4v-2H71.9zM85 262h7.4v-12.5H85V262zM85 304h7.4v-12.5H85V304zM85 325h7.4v-12.5H85V325zM86.9 305.4v2h4v-2H86.9zM86.9 284.4v2h4v-2H86.9zM112.9 263.4v2h4v-2H112.9zM86.9 263.4v2h4v-2H86.9zM85 451h7.4v-12.5H85V451zM71.9 326.4v2h4v-2H71.9zM70.3 346h7.4v-12.5h-7.4V346zM70.3 388h7.4v-12.5h-7.4V388zM71.9 347.4v2h4v-2H71.9zM70.3 325h7.4v-12.5h-7.4V325zM71.9 305.4v2h4v-2H71.9zM70.3 409h7.4v-12.5h-7.4V409zM71.9 389.4v2h4v-2H71.9zM70.3 451h7.4v-12.5h-7.4V451zM70.3 430h7.4v-12.5h-7.4V430zM70.3 157h7.4v-12.5h-7.4V157zM70.3 304h7.4v-12.5h-7.4V304zM71.9 410.4v2h4v-2H71.9zM71.9 431.4v2h4v-2H71.9zM71.9 284.4v2h4v-2H71.9zM70.3 220h7.4v-12.5h-7.4V220zM71.9 200.4v2h4v-2H71.9zM70.3 199h7.4v-12.5h-7.4V199zM71.9 158.4v2h4v-2H71.9zM70.3 178h7.4v-12.5h-7.4V178zM71.9 179.4v2h4v-2H71.9zM71.9 263.4v2h4v-2H71.9zM71.9 221.4v2h4v-2H71.9zM70.3 283h7.4v-12.5h-7.4V283zM70.3 262h7.4v-12.5h-7.4V262zM70.3 241h7.4v-12.5h-7.4V241zM71.9 242.4v2h4v-2H71.9zM85 283h7.4v-12.5H85V283zM97.9 116.4v2h4v-2H97.9zM96.3 136h7.4v-12.5h-7.4V136zM85 178h7.4v-12.5H85V178zM111 451h7.4v-12.5H111V451zM97.9 137.4v2h4v-2H97.9zM112.9 454.5h4v-2h-4V454.5zM97.9 179.4v2h4v-2H97.9zM112.9 431.4v2h4v-2H112.9zM96.3 199h7.4v-12.5h-7.4V199zM97.9 200.4v2h4v-2H97.9zM96.3 178h7.4v-12.5h-7.4V178zM96.3 157h7.4v-12.5h-7.4V157zM97.9 158.4v2h4v-2H97.9zM111 325h7.4v-12.5H111V325zM111 304h7.4v-12.5H111V304zM112.9 305.4v2h4v-2H112.9zM112.9 326.4v2h4v-2H112.9zM96.3 220h7.4v-12.5h-7.4V220zM112.9 284.4v2h4v-2H112.9zM111 430h7.4v-12.5H111V430zM111 283h7.4v-12.5H111V283zM111 409h7.4v-12.5H111V409zM112.9 410.4v2h4v-2H112.9zM112.9 389.4v2h4v-2H112.9zM111 388h7.4v-12.5H111V388zM112.9 347.4v2h4v-2H112.9zM111 346h7.4v-12.5H111V346zM96.3 115h7.4v-12.5h-7.4V115zM97.9 431.4v2h4v-2H97.9zM96.3 451h7.4v-12.5h-7.4V451zM96.3 430h7.4v-12.5h-7.4V430zM96.3 409h7.4v-12.5h-7.4V409zM97.9 221.4v2h4v-2H97.9zM97.9 389.4v2h4v-2H97.9zM97.9 410.4v2h4v-2H97.9zM85 115h7.4v-12.5H85V115zM86.9 137.4v2h4v-2H86.9zM86.9 158.4v2h4v-2H86.9zM85 157h7.4v-12.5H85V157zM85 136h7.4v-12.5H85V136zM86.9 116.4v2h4v-2H86.9zM97.9 454.5h4v-2h-4V454.5zM96.3 262h7.4v-12.5h-7.4V262zM97.9 284.4v2h4v-2H97.9zM96.3 283h7.4v-12.5h-7.4V283zM97.9 263.4v2h4v-2H97.9zM97.9 242.4v2h4v-2H97.9zM96.3 241h7.4v-12.5h-7.4V241zM96.3 388h7.4v-12.5h-7.4V388zM96.3 304h7.4v-12.5h-7.4V304zM97.9 347.4v2h4v-2H97.9zM71.9 454.5h4v-2h-4V454.5zM96.3 346h7.4v-12.5h-7.4V346zM96.3 325h7.4v-12.5h-7.4V325zM97.9 305.4v2h4v-2H97.9zM183.2 355v10.6h-7.8V355H183.2zM172.4 355h-8.2v10.6h8.2V355zM175.4 334v10.6h7.8V334H175.4zM172.4 334h-8.2v10.6h8.2V334zM175.4 313v10.6h7.8V313H175.4zM172.4 313h-8.2v10.6h8.2V313zM175.4 292v10.6h7.8V292H175.4zM172.4 292h-8.2v10.6h8.2V292zM175.4 271v10.6h7.8V271H175.4zM172.4 271h-8.2v10.6h8.2V271zM175.4 250v10.6h7.8V250H175.4zM172.4 250h-8.2v10.6h8.2V250zM175.4 229v10.6h7.8V229H175.4zM172.4 229h-8.2v10.6h8.2V229zM175.4 208v10.6h7.8V208H175.4zM172.4 208h-8.2v10.6h8.2V208zM175.4 187v10.6h7.8V187H175.4zM172.4 187h-8.2v10.6h8.2V187zM175.4 166v10.6h7.8V166H175.4zM172.4 166h-8.2v10.6h8.2V166zM175.4 145v10.6h7.8V145H175.4zM172.4 145h-8.2v10.6h8.2V145zM175.4 124v10.6h7.8V124H175.4zM172.4 124h-8.2v10.6h8.2V124zM175.4 103v10.6h7.8V103H175.4zM172.4 103h-8.2v10.6h8.2V103zM170.2 452.8h-4v-1.6h4V452.8zM181.2 451.2h-4v1.6h4V451.2zM170.2 431.8h-4v-1.6h4V431.8zM181.2 430.2h-4v1.6h4V430.2zM170.2 410.8h-4v-1.6h4V410.8zM181.2 409.2h-4v1.6h4V409.2zM170.2 389.8h-4v-1.6h4V389.8zM181.2 388.2h-4v1.6h4V388.2zM170.2 368.8h-4v-1.6h4V368.8zM181.2 367.2h-4v1.6h4V367.2zM170.2 347.8h-4v-1.6h4V347.8zM181.2 346.2h-4v1.6h4V346.2zM170.2 326.8h-4v-1.6h4V326.8zM181.2 325.2h-4v1.6h4V325.2zM170.2 305.8h-4v-1.6h4V305.8zM181.2 304.2h-4v1.6h4V304.2zM170.2 284.8h-4v-1.6h4V284.8zM181.2 283.2h-4v1.6h4V283.2zM170.2 263.8h-4v-1.6h4V263.8zM181.2 262.2h-4v1.6h4V262.2zM170.2 242.8h-4v-1.6h4V242.8zM181.2 241.2h-4v1.6h4V241.2zM170.2 221.8h-4v-1.6h4V221.8zM181.2 220.2h-4v1.6h4V220.2zM170.2 200.8h-4v-1.6h4V200.8zM181.2 199.2h-4v1.6h4V199.2zM170.2 179.8h-4v-1.6h4V179.8zM181.2 178.2h-4v1.6h4V178.2zM170.2 158.8h-4v-1.6h4V158.8zM181.2 157.2h-4v1.6h4V157.2zM170.2 137.8h-4v-1.6h4V137.8zM181.2 136.2h-4v1.6h4V136.2zM170.2 116.8h-4v-1.6h4V116.8zM181.2 115.2h-4v1.6h4V115.2z" fill="#536266"/>
  <polygon points="-31.1 50.5 168.5 50.5 68.5 21.8 " fill="#5D767C"/>
</svg>
