<?xml version="1.0" encoding="utf-8"?>
<!-- Generator: Adobe Illustrator 19.2.1, SVG Export Plug-In . SVG Version: 6.00 Build 0)  -->
<svg version="1.1" id="London" xmlns="http://www.w3.org/2000/svg" xmlns:xlink="http://www.w3.org/1999/xlink" x="0px" y="0px"
	 width="474.8px" height="459.8px" viewBox="0 0 474.8 459.8" style="enable-background:new 0 0 474.8 459.8;" xml:space="preserve"
	>

<g id="Supports">
	<path id="Shadows" style="fill:#B1D5E5;" d="M384.7,72.4h-3.2l2.9,1.3c1.8,0.8,2.5,2.9,1.7,4.6c-0.6,1.3-1.9,2-3.2,2
		c-0.5,0-1-0.1-1.5-0.3l-1.8-0.8l1.4,1.5c1.3,1.4,1.2,3.6-0.2,4.9c-0.7,0.6-1.5,0.9-2.4,0.9c-1,0-1.9-0.4-2.6-1.1l-1.1-1.2l0.5,1.5
		c0.7,1.8-0.3,3.8-2.1,4.5c-0.4,0.1-0.8,0.2-1.2,0.2c-1.4,0-2.8-0.9-3.3-2.3l-3-8.2c-0.1,0-0.1,0-0.2,0c-0.1,0-0.1,0-0.2,0l-3,8.2
		c-0.5,1.4-1.9,2.3-3.3,2.3c-0.4,0-0.8-0.1-1.2-0.2c-1.8-0.7-2.8-2.7-2.1-4.5l0.5-1.5l-1.1,1.2c-0.7,0.8-1.6,1.1-2.6,1.1
		c-0.8,0-1.7-0.3-2.4-0.9c-1.4-1.3-1.5-3.5-0.2-4.9l1.4-1.5l-1.8,0.8c-0.5,0.2-1,0.3-1.5,0.3c-1.3,0-2.6-0.8-3.2-2
		c-0.8-1.8,0-3.8,1.7-4.6l2.9-1.3h-3.2c-1.9,0-3.5-1.6-3.5-3.5s1.6-3.5,3.5-3.5h3.2l-2.9-1.3c-1.8-0.8-2.5-2.9-1.7-4.6
		c0.8-1.8,2.9-2.5,4.6-1.7l1.8,0.8l-1.4-1.5c-1.3-1.4-1.2-3.6,0.2-4.9c1.4-1.3,3.6-1.2,4.9,0.2l1.1,1.2l-0.5-1.5
		c-0.7-1.8,0.3-3.8,2.1-4.5c1.6-0.6,3.3,0.1,4.1,1.4v-2.3c0-1.9,1.6-3.5,3.5-3.5s3.5,1.6,3.5,3.5V49c0.9-1.4,2.6-2,4.1-1.4
		c1.8,0.7,2.8,2.7,2.1,4.5l-0.5,1.5l1.1-1.2c1.3-1.4,3.5-1.5,4.9-0.2s1.5,3.5,0.2,4.9l-1.4,1.5l1.8-0.8c1.8-0.8,3.8,0,4.6,1.7
		c0.8,1.8,0,3.8-1.7,4.6l-2.9,1.3h3.2c1.9,0,3.5,1.6,3.5,3.5S386.7,72.4,384.7,72.4z M347.7,93.6l-1.4,6.7
		c-3.3,15.8-6.8,31.6-10,47.4l-4.9,23.7l-4.9,23.8l-4.8,23.8l-4.8,23.8l-4.7,23.8l-4.7,23.8l-4.6,23.8l-4.5,23.8l-4.4,23.8
		l-4.4,23.9l-4.2,23.9c-1.4,8-2.8,15.9-4.2,23.9l-4.1,23.9c-1.3,8-2.6,16-3.9,24c0.4-1.3,0.7-2.6,1.1-4
		c12.6-61.6,78.6-383.4,80.3-383.9L347.7,93.6z M456.8,474.7l-86.4-381l-0.2,0l-1.9,15.5l0.1,1.5h0.1c3,13.6,5.9,27.2,9,40.7
		l5.3,23.7l5.4,23.7l5.4,23.7l5.5,23.6c3.6,15.8,7.4,31.5,11.1,47.2l5.7,23.6l5.7,23.6l5.8,23.6c2,7.8,3.9,15.7,5.9,23.5l6,23.5
		c2,7.8,4,15.7,6.1,23.5l6.2,23.5c1.9,7.1,3.8,14.3,5.8,21.4l0.5,1.7C457.5,479,457.1,476.8,456.8,474.7z"/>
	<g id="Support_Base">
		<polygon id="Shadow" style="fill:#2C3E42;" points="381.5,92.8 348.2,92.8 342.2,80.1 387.5,80.1 		"/>
		<polygon id="Highlight" style="fill:#536266;" points="381.5,92.8 387.5,80.1 353.8,80.1 357.8,92.8 		"/>
	</g>
	<path id="Whites" style="fill:#FFFFFF;" d="M373.5,53.4v-9.4l-1.1-0.6c-4.2-2.2-9.3-2.2-13.5,0l-1.1,0.6v9.6c-4.9,2.8-8.2,8-8.2,14
		c0,8.9,7.3,16.2,16.2,16.2c8.9,0,16.2-7.3,16.2-16.2C382.1,61.5,378.6,56.2,373.5,53.4z M361.9,46.6c2.5-0.9,5.2-0.9,7.7,0v5.3
		c-1.2-0.3-2.4-0.4-3.7-0.4c-1.4,0-2.7,0.2-4,0.5V46.6z M361.9,57.2c1.2-0.5,2.6-0.8,4-0.8c1.3,0,2.5,0.2,3.7,0.6v14.4
		c-2.5,0.6-5.2,0.6-7.7,0V57.2z M365.9,78.8c-6.2,0-11.2-5-11.2-11.2c0-3,1.2-5.8,3.2-7.8v14.5l1.3,0.5c2.1,0.7,4.3,1.1,6.5,1.1
		c2.1,0,4.2-0.3,6.2-1l1.7-0.6V59.5c2.2,2,3.5,4.9,3.5,8.1C377.1,73.8,372,78.8,365.9,78.8z M277.1,457.5c-0.6,4-1.3,8-2,12
		C275.8,465.5,276.4,461.5,277.1,457.5l4.1-23.9L277.1,457.5z M361.4,110.6c-2.9,13.6-5.8,27.1-8.9,40.7l-5.2,23.7l-5.3,23.7
		l-5.3,23.7l-5.4,23.6l-5.4,23.6l-5.5,23.6l-5.6,23.6l-5.7,23.6l-5.7,23.6l-5.8,23.6l-5.9,23.5c-2,7.8-3.9,15.7-6,23.5l-6.1,23.5
		c-2.1,7.8-4.1,15.6-6.3,23.4c0.4-1.3,0.7-2.6,1.1-4c12.6-61.6,78.6-383.4,80.3-383.9l-6.9,0l-1.4,6.7l1.4-7.7l6.9,0l20.7,0l6.9,0
		l1.4,7.7c3.4,15.8,6.9,31.6,10.2,47.4l5,23.7l5,23.8l4.9,23.8l4.8,23.8c3.3,15.8,6.4,31.7,9.5,47.6l4.7,23.8l4.6,23.8l4.5,23.8
		c1.5,8,3,15.9,4.4,23.9l4.3,23.9c1.4,8,2.9,15.9,4.3,23.9l4.1,23.9c0.9,5.7,1.9,11.5,2.8,17.2l-86.4-381l-0.2,0l-1.9,15.5l0.1,1.5
		h0.1l0,0L361.4,110.6z M377.4,151.3l5.3,23.7L377.4,151.3c-1.4-6.2-2.8-12.4-4.1-18.6C374.6,138.9,376,145.1,377.4,151.3z
		 M457.3,479.4l0.5,1.7c-0.2-1.5-0.5-2.9-0.7-4.4c0.2,1.5,0.5,3.1,0.8,4.6c-2.2-7.8-4.3-15.6-6.4-23.4
		C453.4,465.2,455.3,472.3,457.3,479.4z"/>
</g>
</g>
</svg>
