<?xml version="1.0" encoding="UTF-8" standalone="no"?>
<svg id="London" style="enable-background:new 0 0 730 740" xmlns="http://www.w3.org/2000/svg" xml:space="preserve" viewBox="0 0 730 740" version="1.1" y="0px" x="0px" xmlns:xlink="http://www.w3.org/1999/xlink">
<g id="Rotating">
	<g id="Circle">
		<path id="Support_Wires" fill="#536266" d="m645 362v-1h-251l250-14.5-0.1-1-267 15.5h-6.8l5-2.4 248-103-0.4-0.9-228 95.5 223-106-0.4-0.9-243 115-5.3 2.2 9.9-11.2 183-182-0.7-0.7-172 171 161-182-0.7-0.7-171 194-9.6 9.5 10.2-28.8 90-221-0.9-0.4-81.8 201 72.5-206-0.9-0.3-79.6 226-12.2 30.1v-272h-1v267l-14-266-1 0.1 15.5 268-11.1-23.4-94.8-226-0.9 0.4 87 206-96.6-203-0.9 0.4 106 223 10.7 25.5-4.4-3.9-190-190-0.7 0.7 178 179-188-167-0.7 0.7 201 177 4.9 5-8.4-3-248-101-0.4 0.9 228 92.4-230-81.2-0.3 0.9 249 89 8.3 3.4h-276v1h274l-276 16 0.1 1 279-16.2-259 109 0.4 0.9 252-106-245 117 0.4 0.9 250-119-197 196 0.7 0.7 199-198-0.4 1-185 208 0.7 0.7 183-206-105 256 0.9 0.4 105-259 0.6-0.6 0.1 1.4-92.5 262 0.9 0.3 91.7-260 0.1 1.7v274h1v-256l15 258 1-0.1-15.9-275v-4.8l0.1-0.2 109 259 0.9-0.4-109-260 0.2-0.6 0.5 0.5 120 254 0.9-0.4-119-251 195 196 0.7-0.7-196-196 206 182 0.7-0.7-207-183 256 104 0.4-0.9-252-102 256 90.4 0.3-0.9-260-91.9 6.6-0.4h268zm-277-2l-0.9 0.9 4.7-11.5-4 10zm-4-2l0.1 1-3.1-7.4 3 6z"/>
		<path id="Main_Circle" fill="#fff" d="m688 366l-0.4-15.8c-0.1-1.5-0.2-3.1-0.3-4.7 0.2-0.3 0.2-0.7 0.2-1 0-0.4-0.2-0.7-0.4-1-0.1-1.3-0.2-2.6-0.3-4-0.1-1.7-0.3-3.5-0.4-5.4-0.2-2-0.4-4-0.7-5.9-0.1-1-0.3-2.1-0.4-3.2l-0.6-4.7c-0.1-0.5-0.1-1-0.2-1.4-0.1-1.1-0.3-2.2-0.5-3.3l-2.5-13.8-0.6-3-0.3-1.5-2.2-9.6c-0.2-0.9-0.4-1.7-0.6-2.6l-0.3-1-3.8-13.5-1.4-4.2-1.4-4.1v-0.1l-1.6-4.6c-0.1-0.3-0.2-0.6-0.3-1-0.2-0.6-0.4-1.3-0.7-2l-3-7.5c0.1-0.4 0-0.8-0.1-1.1s-0.4-0.6-0.7-0.8l-1.9-4.7-5.9-13c-0.2-0.5-0.4-1-0.7-1.5l-5-4c-0.5-1-1-1.9-1.5-2.9-0.9-1.8-1.9-3.7-2.9-5.5l-6.7-11.6c-0.5-0.9-1-1.6-1.5-2.4-0.3-0.4-0.5-0.8-0.8-1.2l-2-5-1.3-2.1c-1.9-3.1-3.8-5.7-5.2-7.8-0.5-0.6-0.9-1.2-1.3-1.8l-2.5-3.5-2.6-3.6-9.4-11.9-0.7-0.8c-0.1-0.3-0.2-0.7-0.4-1s-0.6-0.5-0.9-0.6l-6.1-7c-1.5-1.8-3.3-3.6-4.9-5.4l-7.9-8.3-8.2-7.8c-1.7-1.7-3.5-3.4-5.3-4.9l-8.8-7.6-1.4-1.1c0-0.1-0.1-0.1-0.1-0.2-0.1-0.1-0.2-0.1-0.2-0.1l-10.8-8.6-3.5-2.5-3.5-2.5c-0.5-0.4-1.1-0.8-1.8-1.2-2.1-1.5-4.6-3.3-7.7-5.2l-4-2.5c-0.2-0.3-0.4-0.6-0.7-0.8s-0.6-0.3-1-0.3l-0.7-0.5c-0.4-0.2-0.8-0.5-1.2-0.8l-2.4-1.5-11.7-6.7c-1.8-1-3.7-2-5.5-2.9-1-0.5-1.9-1-2.9-1.5l-6.3-3.2c-0.5-0.2-1-0.5-1.4-0.7l-13.1-5.9-8.6-3.4-5.5-2.2c-0.7-0.3-1.4-0.5-2-0.7-0.3-0.1-0.6-0.2-1-0.3l-8.8-3c-0.1 0-1.6-0.6-4.2-1.4l-14.6-4.1c-0.3-0.1-0.7-0.2-1-0.2-0.3-0.2-0.6-0.4-0.9-0.5-0.4-0.1-0.7-0.1-1.1 0.1-0.3-0.1-0.5-0.1-0.8-0.2l-8.3-1.9-1.5-0.3c-1-0.2-1.9-0.5-3-0.6l-13.7-2.5c-1.1-0.2-2.3-0.4-3.3-0.5-0.5-0.1-1-0.1-1.5-0.2l-4.7-0.6c-1.1-0.1-2.1-0.3-3.1-0.4-2-0.3-4-0.5-6-0.7-1.8-0.1-3.6-0.3-5.4-0.4-2.8-0.2-5.5-0.4-8.1-0.6h-0.1-0.1c-0.9-0.1-1.7-0.1-2.6-0.2l-15.7-0.4h-0.1l-15.8 0.4c-1.5 0.1-3.1 0.2-4.7 0.3-0.3-0.2-0.7-0.3-1-0.2-0.4 0-0.7 0.2-1 0.4l-3.9 0.3c-1.7 0.1-3.5 0.3-5.4 0.4-2 0.2-4 0.4-5.9 0.7-1 0.1-2.1 0.3-3.2 0.4l-4.7 0.6c-0.5 0.1-1 0.1-1.4 0.2-1.1 0.1-2.2 0.3-3.3 0.5l-13.8 2.5-3 0.6-1.5 0.3-8.3 1.9c-0.5 0.1-0.9 0.2-1.3 0.3-0.9 0.2-1.7 0.4-2.6 0.6l-1 0.3-13.5 3.8c-2.5 0.8-4 1.3-4.1 1.4l-8.8 3c-0.3 0.1-0.6 0.2-0.9 0.3-0.6 0.2-1.3 0.4-2 0.7l-7.5 3c-0.4-0.1-0.8 0-1.1 0.1s-0.6 0.4-0.8 0.7l-4.7 1.9-13 5.9c-0.5 0.2-1 0.4-1.5 0.7l-6.3 3.2c-1 0.5-1.9 1-2.9 1.5-1.8 0.9-3.7 1.9-5.5 2.9l-11.6 6.7c-0.9 0.5-1.6 1-2.4 1.5-0.4 0.3-0.8 0.5-1.2 0.8l-4.3 2.7-2.1 1.4c-3.1 1.9-5.7 3.8-7.8 5.2-0.6 0.5-1.2 0.9-1.8 1.3l-3.5 2.5s0 0 0 0l-3.6 2.6-11.9 9.4-0.8 0.7c-0.3 0.1-0.7 0.2-1 0.4-0.3 0.3-0.5 0.6-0.6 0.9l-7 6.1c-1.8 1.5-3.6 3.3-5.4 4.9l-8.3 7.9-7.8 8.2c-1.7 1.7-3.4 3.5-4.9 5.3l-8.2 9.5-0.7 0.8-8.7 11.1-2.5 3.5-2.5 3.5c-0.4 0.5-0.8 1.1-1.2 1.8-1.5 2.1-3.3 4.6-5.2 7.7l-2.5 4c-0.3 0.2-0.6 0.4-0.8 0.7s-0.3 0.6-0.3 1l-0.5 0.7c-0.2 0.4-0.5 0.8-0.8 1.2l-1.5 2.4-6.7 11.7c-1 1.8-2 3.7-2.9 5.5-0.5 1-1 1.9-1.5 2.9l-3.2 6.3c-0.2 0.5-0.5 1-0.7 1.4l-5.9 13.1-3.4 8.6-2.2 5.5c-0.3 0.7-0.5 1.4-0.7 2-0.1 0.3-0.2 0.6-0.3 1l-3 8.8c0 0.1-0.6 1.6-1.4 4.2l-4.1 14.6c-0.1 0.3-0.2 0.7-0.2 1-0.3 0.3-0.4 0.6-0.5 0.9-0.1 0.4-0.1 0.7 0.1 1.1-0.1 0.3-0.1 0.5-0.2 0.8l-1.9 8.3-0.3 1.5c-0.2 1-0.5 1.9-0.6 3l-4.8 13c-0.2 1.1-0.4 2.3-0.5 3.3-0.1 0.5-0.1 1-0.2 1.5l-0.6 4.7c-0.1 1.1-0.3 2.1-0.4 3.1-0.3 2-0.5 4-0.7 6-0.1 1.8-0.3 3.6-0.4 5.4-0.2 2.8-0.4 5.5-0.6 8.1v0.1 0.1c-0.1 0.9-0.1 1.7-0.2 2.6l-0.4 15.7v0.1s0 0 0 0.1l0.4 15.8c0.1 1.5 0.2 3.1 0.3 4.7-0.2 0.3-0.2 0.7-0.2 1 0 0.4 0.2 0.7 0.4 1l0.3 3.9c0.1 1.8 0.3 3.6 0.4 5.4 0.2 2 0.4 4 0.7 5.9 0.1 1 0.3 2.1 0.4 3.2l0.6 4.7c0.1 0.5 0.1 1 0.2 1.4 0.1 1.1 0.3 2.2 0.5 3.3l2.5 13.8 0.6 3 0.3 1.5 1.9 8.3c0.1 0.5 0.2 0.9 0.3 1.3 0.2 0.9 0.4 1.7 0.6 2.6l0.3 1 3.8 13.5c0.8 2.5 1.3 4 1.4 4.1l3 8.8 0.3 0.9c0.2 0.6 0.4 1.3 0.7 2l3 7.5c-0.1 0.4 0 0.8 0.1 1.1s0.4 0.6 0.7 0.8l1.9 4.7 5.9 13c0.2 0.5 0.4 1 0.7 1.5l3.2 6.3c0.5 1 1 1.9 1.5 2.9 0.9 1.8 1.9 3.7 2.9 5.5l6.7 11.6c0.5 0.9 1 1.7 1.5 2.4 0.3 0.4 0.5 0.8 0.8 1.2l2.7 4.3 1.4 2.1c1.9 3.1 3.8 5.7 5.2 7.8 0.5 0.6 0.9 1.2 1.3 1.8l2.5 3.5 2.6 3.6 9.4 11.9 0.7 0.8c0.1 0.4 0.2 0.7 0.4 1 0.3 0.3 0.6 0.5 0.9 0.6l6.1 7c1.5 1.8 3.2 3.6 4.9 5.4l7.9 8.3 8.2 7.8c1.7 1.7 3.5 3.4 5.4 4.9l8.8 7.6 1.4 1.1 0.1 0.1c0.1 0.1 0.2 0.2 0.3 0.2l10.7 8.5 3.5 2.5 3.5 2.5c0.5 0.4 1.1 0.8 1.8 1.2 2.1 1.5 4.6 3.3 7.7 5.2l4 2.5c0.2 0.3 0.4 0.6 0.7 0.8s0.6 0.3 1 0.3l0.7 0.5c0.4 0.2 0.8 0.5 1.2 0.8l2.4 1.5 11.7 6.7c1.8 1 3.7 2 5.5 2.9 1 0.5 1.9 1 2.9 1.5l6.3 3.2c0.5 0.2 1 0.5 1.4 0.7l13.1 5.9 8.6 3.4h0.1l5.5 2.2c0.7 0.3 1.4 0.5 2 0.7 0.3 0.1 0.6 0.2 1 0.3l4.6 1.6h0.1l4.1 1.4 4.2 1.4 14.6 4.1c0.3 0.1 0.7 0.2 1 0.2 0.3 0.3 0.6 0.4 0.9 0.5 0.4 0.1 0.7 0.1 1.1-0.1l9.1 2.1 1.5 0.3c1 0.2 1.9 0.5 3 0.6l13.7 2.5c1.1 0.2 2.3 0.4 3.4 0.5 0.5 0.1 1 0.1 1.5 0.2l4.7 0.6c1.1 0.1 2.1 0.3 3.1 0.4 2 0.3 4 0.5 6 0.7 1.8 0.1 3.6 0.3 5.3 0.4 2.8 0.2 5.6 0.4 8.2 0.6h0.1 0.1c0.8 0.1 1.7 0.1 2.5 0.2l15.7 0.4s0 0 0 0l15.8-0.4c1.5-0.1 3.1-0.2 4.8-0.3 0.3 0.1 0.6 0.2 0.9 0.2h0.1c0.4 0 0.7-0.2 1-0.4 1.3-0.1 2.6-0.2 4-0.3 1.7-0.1 3.5-0.3 5.4-0.4 2-0.2 4-0.4 5.9-0.7 1-0.1 2.1-0.3 3.2-0.4l4.7-0.6c0.5-0.1 1-0.1 1.4-0.2 1.1-0.1 2.2-0.3 3.3-0.5l13.8-2.5 3-0.6 1.5-0.3 9.6-2.2c0.9-0.2 1.7-0.4 2.6-0.6l1-0.3 13.5-3.8c2.7-0.9 4.2-1.4 4.2-1.4l8.8-3c0.3-0.1 0.6-0.2 0.9-0.3 0.6-0.2 1.3-0.4 2-0.7l7.5-3h0.4c0.3 0 0.5 0 0.8-0.2 0.3-0.1 0.6-0.4 0.8-0.7l4.7-1.9 13-5.9c0.5-0.2 1-0.4 1.5-0.7l6.3-3.2c1-0.5 1.9-1 2.9-1.5 1.8-0.9 3.7-1.9 5.5-2.9l11.6-6.7c0.9-0.5 1.7-1 2.4-1.5 0.4-0.3 0.8-0.5 1.2-0.8l4.3-2.7 2.1-1.3c3.1-1.9 5.7-3.8 7.8-5.2 0.6-0.5 1.2-0.9 1.8-1.3l3.5-2.5s0 0 0 0l3.6-2.6 11.9-9.4 0.8-0.7c0.4-0.1 0.7-0.2 1-0.4 0.3-0.3 0.5-0.6 0.6-0.9l7-6.1c1.8-1.5 3.6-3.2 5.4-4.9l8.3-7.9 7.8-8.2c1.7-1.7 3.4-3.5 4.9-5.3l8.2-9.5 0.7-0.9 8.7-11.1 2.5-3.5 2.5-3.5c0.4-0.5 0.8-1.1 1.3-1.8 1.5-2.1 3.3-4.6 5.2-7.7l2.5-4c0.3-0.2 0.6-0.4 0.8-0.7s0.3-0.7 0.3-1l0.5-0.7c0.2-0.4 0.5-0.8 0.8-1.2l1.5-2.4 6.7-11.7c1-1.8 2-3.7 2.9-5.5 0.5-1 1-1.9 1.5-2.9l3.2-6.3c0.2-0.5 0.5-1 0.7-1.4l5.9-13.1 3.4-8.6 2.2-5.5c0.3-0.7 0.5-1.4 0.7-2 0.1-0.3 0.2-0.6 0.3-1l3-8.8 1.4-4.2 4.1-14.6c0.1-0.3 0.2-0.7 0.2-1 0.3-0.3 0.4-0.6 0.5-0.9 0.1-0.4 0.1-0.7-0.1-1.1l2.1-9.1 0.3-1.5c0.2-1 0.5-1.9 0.6-3l2.5-13.7c0.2-1.1 0.4-2.3 0.5-3.4 0.1-0.5 0.1-1 0.2-1.5l0.6-4.7c0.1-1.1 0.3-2.1 0.4-3.1 0.3-2 0.5-4 0.7-6 0.1-1.8 0.3-3.6 0.4-5.3 0.2-2.8 0.4-5.6 0.6-8.1v-0.1-0.1c0.1-0.9 0.1-1.7 0.2-2.6l0.4-15.7 1 6zm-5 27c-0.1 1.7-0.3 3.5-0.4 5.3-0.2 1.9-0.4 3.8-0.7 5.8-0.1 1.1-0.3 2.1-0.4 3.2l-0.6 4.6v0.2c-3.2-1.9-9.3-5.5-15.3-8.8-4.7-2.6-9.5-5.1-12.9-6.8l0.8-0.2c4.2-1.1 9.1-2.3 13.3-3.5 6.5-1.8 13-3.8 16.6-5-1 2-1 4-1 6zm-5 37c-0.2 0.9-0.4 1.9-0.6 2.8-0.1 0.5-0.2 1-0.4 1.5l-1.7 7.2c-3.3-2.2-9.1-6.1-15-9.8-3.9-2.4-8.4-5.2-12.3-7.5l-0.7-0.4c3.9-0.6 9.4-1.5 14.8-2.5 4.5-0.8 9.7-1.9 14.2-2.9l3.8-0.9-2 12zm-196 213c0.4 5 0.6 9.9 0.7 14.3v1.2c-2.7-3-6.7-7.4-10.4-11.7-2.8-3.2-5.8-6.9-9.2-11.1l-2.5-3.2h0.1c0.3-0.1 0.5-0.2 0.8-0.3l1.8-0.6 12.4-4.9h0.1l4.5-2.1c-1 5 0 12 0 19zm24-31c0.5 2.7 1.8 10.7 2.8 18.9 0.6 4.9 1.1 9.7 1.5 13.7l0.1 1.4c-3-2.7-7.5-6.6-11.7-10.7-3.8-3.6-7.7-7.4-10.2-10l-2.8-2.8 1.9-0.9c0.4-0.2 0.8-0.4 1.3-0.6l5.5-2.8c0.9-0.5 1.8-0.9 2.7-1.4 1.6-0.8 3.2-1.6 4.7-2.5l4-2zm3-2l2.3-1.3c0.8-0.4 1.5-0.9 2.1-1.3 0.3-0.2 0.7-0.5 1.1-0.7l5.6-3.6c2.7-1.7 4.9-3.3 6.7-4.6l0.9-0.6c1 3.6 2.9 10.7 4.6 17.8 1.3 5.3 2.3 10.5 3.1 14l0.3 1.5c-3.1-2.3-7.6-5.7-11.9-9.1-4-3.2-8-6.5-10.7-8.7l-4-2zm24-20l-3.1 2.2-3.1 2.2c-0.5 0.4-1.1 0.8-1.7 1.2-1.7 1.3-3.9 2.8-6.5 4.4l-5.6 3.6c-0.4 0.2-0.7 0.5-1.1 0.7-0.6 0.4-1.3 0.8-1.9 1.2l-10.2 5.9-4.5 2.4c-0.9 0.5-1.8 0.9-2.7 1.4l-5.5 2.8c-0.4 0.2-0.7 0.3-1.1 0.5-0.2 0.1-0.5 0.2-0.7 0.3l-10.7 4.8-12.3 4.9c-0.5 0.2-1 0.4-1.5 0.5-0.3 0.1-0.6 0.2-0.9 0.3l-7.7 2.6s-1.3 0.5-3.5 1.2l-12.7 3.6c-0.7 0.2-1.4 0.3-2.1 0.5l-1.2 0.3-7.2 1.7c-0.5 0.1-0.9 0.2-1.4 0.3-0.8 0.2-1.6 0.4-2.4 0.5l-12.1 2.2c-0.8 0.2-1.7 0.3-2.6 0.4-0.4 0.1-0.9 0.1-1.3 0.2l-4.1 0.5c-1 0.1-2 0.2-3 0.4-1.7 0.2-3.3 0.4-4.9 0.6-2.1 0.1-4.1 0.3-6.1 0.5-2.9 0.2-5.6 0.4-7.9 0.6l-13.8 0.3-14 2c-2.4-0.1-5.2-0.4-8-0.6-2-0.2-4-0.3-6-0.5-1.6-0.1-3.2-0.4-4.9-0.6-1-0.1-2-0.3-2.9-0.4l-4-0.5c-0.4-0.1-0.9-0.1-1.3-0.2-0.9-0.1-1.8-0.2-2.7-0.4l-12.1-2.2c-0.8-0.1-1.6-0.3-2.4-0.5-0.5-0.1-0.9-0.2-1.4-0.3l-7.3-1.7-1.2-0.3c-0.7-0.2-1.4-0.3-2-0.5l-12.6-3.6c-2.2-0.7-3.5-1.2-3.5-1.2l-7.7-2.6c-0.3-0.1-0.6-0.2-0.9-0.3-0.5-0.2-1-0.3-1.6-0.5l-12.3-4.9-10.7-4.8c-0.2-0.1-0.5-0.2-0.7-0.3-0.4-0.2-0.7-0.3-1.1-0.5l-5-5c-0.9-0.5-1.8-0.9-2.7-1.4-1.5-0.8-3.1-1.6-4.5-2.4l-10.2-5.9c-0.6-0.4-1.2-0.8-1.9-1.2-0.4-0.2-0.7-0.5-1.1-0.7l-5.7-3.6c-2.6-1.6-4.8-3.1-6.5-4.4-0.6-0.4-1.2-0.8-1.6-1.2l-3.1-2.2-3-2.1-10.3-8.1-8.3-7.2c-1.5-1.2-2.9-2.6-4.4-4l-1.3-1.3-5.9-5.6-5.7-6-1.3-1.3c-1.4-1.5-2.8-2.9-4.1-4.5l-7.1-8.2-8.1-10.3-2.2-3.1-2.2-3.1c-0.4-0.5-0.7-1.1-1.2-1.7-1.3-1.7-2.8-3.9-4.4-6.5l-3.6-5.6c-0.2-0.4-0.5-0.7-0.7-1.1-0.4-0.6-0.8-1.3-1.2-1.9l-5.9-10.2c-0.8-1.5-1.6-3-2.4-4.5-0.5-0.9-0.9-1.8-1.4-2.7l-2.8-5.5c-0.2-0.4-0.3-0.7-0.5-1.1-0.1-0.2-0.2-0.5-0.3-0.7l-4.8-10.7-4.9-12.3c-0.2-0.5-0.4-1-0.5-1.5l-0.3-0.9-2.6-7.7s-0.5-1.3-1.2-3.5l-3.6-12.7c-0.2-0.7-0.3-1.4-0.5-2.1l-0.3-1.2-1.7-7.2c-0.1-0.5-0.2-0.9-0.3-1.4-0.2-0.8-0.4-1.6-0.5-2.4l-5-16c-0.2-0.8-0.3-1.7-0.4-2.6-0.1-0.5-0.1-0.9-0.2-1.3l-0.5-4c-0.1-1-0.2-2-0.4-3-0.2-1.7-0.4-3.3-0.6-4.9-0.1-2.1-0.3-4.1-0.5-6.1-0.2-2.9-0.4-5.6-0.6-8l-0.3-13.8 0.3-13.7c0.1-2.5 0.4-5.2 0.6-8 0.2-1.9 0.3-4 0.5-6 0.1-1.6 0.4-3.2 0.6-4.9 0.1-1 0.3-2 0.4-2.9l0.5-4c0.1-0.4 0.1-0.9 0.2-1.3 0.1-0.9 0.2-1.8 0.4-2.7l2.2-12.1c0.1-0.8 0.3-1.6 0.5-2.4 0.1-0.5 0.2-0.9 0.3-1.4l1.7-7.3 0.3-1.2c0.2-0.7 0.3-1.4 0.5-2l3.6-12.6c0.7-2.2 1.2-3.5 1.2-3.5l2.6-7.7 0.3-0.9c0.2-0.5 0.3-1 0.5-1.6l4.9-12.3 4.8-10.7c0.1-0.2 0.2-0.5 0.3-0.7 0.2-0.4 0.3-0.7 0.5-1.1l2.8-5.5c0.5-0.9 0.9-1.8 1.4-2.7 0.8-1.5 1.6-3.1 2.4-4.5l5.9-10.2c0.4-0.6 0.8-1.2 1.2-1.9 0.2-0.4 0.5-0.7 0.7-1.1l3.6-5.7c1.6-2.6 3.1-4.8 4.4-6.5 0.4-0.6 0.8-1.2 1.2-1.6l2.2-3.1 2.1-3 8.1-10.3 7.2-8.3c1.2-1.5 2.6-2.9 4-4.4l1.3-1.3 5.6-5.9 6-5.7 1.3-1.3c1.5-1.4 2.9-2.8 4.5-4.1l8.2-7.1 10.3-8.1 3.1-2.2 3.1-2.2c0.5-0.4 1.1-0.7 1.7-1.2 1.7-1.3 3.9-2.8 6.5-4.4l5.6-3.6c0.4-0.2 0.7-0.5 1.1-0.7 0.6-0.4 1.3-0.8 1.9-1.2l10.2-5.9 4.5-2.4c0.9-0.5 1.8-0.9 2.7-1.4l5.5-2.8c0.4-0.2 0.7-0.3 1.1-0.5 0.2-0.1 0.5-0.2 0.7-0.3l10.7-4.8 12.3-4.9c0.5-0.2 1-0.4 1.5-0.5 0.3-0.1 0.6-0.2 0.9-0.3l7.7-2.6s1.3-0.5 3.5-1.2l12.7-3.6c0.7-0.2 1.4-0.3 2.1-0.5l1.2-0.3 7.2-1.7c0.5-0.1 0.9-0.2 1.4-0.3 0.8-0.2 1.6-0.4 2.4-0.5l12.1-2.2c0.8-0.2 1.7-0.3 2.6-0.4 0.5-0.1 0.9-0.1 1.3-0.2l4.1-0.5c1-0.1 2-0.2 3-0.4 1.7-0.2 3.3-0.4 4.9-0.6 2.1-0.1 4.1-0.3 6-0.5 2.9-0.2 5.6-0.4 8-0.6l13.8-0.3 13.7 0.3c2.5 0.1 5.2 0.4 8 0.6 1.9 0.2 4 0.3 6 0.5 1.6 0.1 3.2 0.4 4.9 0.6 1 0.1 2 0.3 2.9 0.4l4 0.5c0.4 0.1 0.9 0.1 1.3 0.2 0.9 0.1 1.8 0.2 2.7 0.4l12.1 2.2c0.8 0.1 1.6 0.3 2.4 0.5 0.5 0.1 0.9 0.2 1.4 0.3l7.3 1.7 1.2 0.3c0.7 0.2 1.4 0.3 2 0.5l12.6 3.6c2.3 0.7 3.5 1.2 3.5 1.2l7.7 2.6c0.3 0.1 0.6 0.2 0.9 0.3 0.5 0.2 1 0.3 1.6 0.5l12.3 4.9 10.7 4.8c0.2 0.1 0.5 0.2 0.7 0.3 0.4 0.2 0.7 0.3 1.1 0.5l5.5 2.8c0.9 0.5 1.8 0.9 2.7 1.4 1.5 0.8 3.1 1.6 4.5 2.4l10.2 5.9c0.6 0.4 1.2 0.8 1.9 1.2 0.4 0.2 0.7 0.5 1.1 0.7l5.7 3.6c2.6 1.6 4.8 3.1 6.5 4.4 0.6 0.4 1.2 0.8 1.6 1.2l3.1 2.2 3 2.1 10.3 8.1 8.3 7.2c1.5 1.2 2.9 2.6 4.4 4l1.3 1.3 5.9 5.6 5.7 6c0.4 0.5 0.9 0.9 1.3 1.3 1.4 1.5 2.8 2.9 4.1 4.5l7.1 8.2 8.1 10.3 2.2 3.1 2.2 3.1c0.4 0.5 0.8 1.1 1.2 1.7 1.3 1.7 2.8 3.9 4.4 6.5l3.6 5.6c0.2 0.4 0.5 0.7 0.7 1.1 0.4 0.6 0.8 1.3 1.2 1.9l5.9 10.2c0.8 1.5 1.6 3 2.4 4.5 0.5 0.9 0.9 1.8 1.4 2.7l2.8 5.5c0.2 0.4 0.3 0.7 0.5 1.1 0.1 0.2 0.2 0.5 0.3 0.7l4.8 10.7 4.9 12.3c0.2 0.5 0.4 1 0.5 1.5l0.3 0.9 2.6 7.7s0.5 1.3 1.2 3.5l3.6 12.7c0.2 0.7 0.3 1.4 0.5 2.1l0.3 1.2 1.7 7.2c0.1 0.5 0.2 0.9 0.3 1.4 0.2 0.8 0.4 1.6 0.5 2.4l2.2 12.1c0.2 0.8 0.3 1.7 0.4 2.6 0.1 0.4 0.1 0.9 0.2 1.3l0.5 4.1c0.1 1 0.2 2 0.4 3 0.2 1.7 0.4 3.3 0.6 4.9 0.1 2.1 0.3 4.1 0.5 6.1 0.2 2.9 0.4 5.6 0.6 7.9l0.3 13.8-0.3 13.7c-0.1 2.4-0.4 5.2-0.6 8-0.2 2-0.3 4-0.5 6-0.1 1.6-0.4 3.2-0.6 4.9-0.1 1-0.3 2-0.4 2.9l-0.5 4c-0.1 0.4-0.1 0.9-0.2 1.3-0.1 0.9-0.2 1.8-0.4 2.7l-2.2 12.1c-0.1 0.8-0.3 1.6-0.5 2.4-0.1 0.5-0.2 0.9-0.3 1.4l-1.7 7.3-0.3 1.2c-0.2 0.7-0.3 1.4-0.5 2l-3.6 12.6c-0.7 2.3-1.2 3.5-1.2 3.5l-2.6 7.7-0.3 0.9c-0.2 0.5-0.3 1-0.5 1.6l-4.9 12.3-4.8 10.7c-0.1 0.2-0.2 0.5-0.3 0.7-0.2 0.4-0.3 0.7-0.5 1.1l-2.8 5.5c-0.5 0.9-0.9 1.8-1.4 2.7-0.8 1.5-1.6 3.1-2.4 4.5l-5.9 10.2c-0.4 0.6-0.8 1.2-1.2 1.9-0.2 0.4-0.5 0.7-0.7 1.1l-3.6 5.7c-1.6 2.6-3.1 4.7-4.4 6.5-0.4 0.6-0.8 1.2-1.2 1.7l-2.2 3.1-2.1 3-8.1 10.3-7.2 8.3c-1.2 1.5-2.6 2.9-4 4.4l-1.3 1.3-5.6 5.9-6 5.7c-0.5 0.4-0.9 0.9-1.3 1.3-1.5 1.4-2.9 2.8-4.5 4.1l-8.2 7.1-9 11zm-117 87l-0.8-1.3c-2-3.5-4.6-8.1-7-12.5-3.5-6.4-6.7-12.9-8.4-16.1 0.5-0.1 0.9-0.1 1.4-0.2l4.1-0.5c0.4-0.1 0.8-0.1 1.3-0.2 1-0.1 2-0.2 2.9-0.4l12.1-2.2c0.2 0 0.5-0.1 0.7-0.2l-0.8 5.2c-0.7 4.1-1.5 9-2.4 13.5 0 4-2 9-3 13zm29-7c-2.5-3.6-5.4-7.8-7.8-11.5-4.6-6.9-8.9-13.9-10.2-16.1l6.2-1.4 1.2-0.3c0.8-0.2 1.5-0.3 2.3-0.5l11.9-3.4c0 1.1-0.1 2.4-0.2 4-0.2 4.5-0.6 9.7-1 14.3-0.5 5.9-1.1 11.9-1.6 15.9 1 0 0-1 0-1zm-50-22c-0.8 3.6-2.3 10.8-4.2 17.9-1.4 5.6-3 11.2-4.1 15.1l-3.2-7.2c-1-2.3-2-4.7-3-7.2-2.8-6.8-5.4-13.7-6.7-17.2l5.8-0.1c2.5-0.2 5.2-0.4 8.1-0.6 1.9-0.2 4-0.3 6.1-0.5h1zm-47 32c-0.2 0.5-0.4 0.9-0.6 1.3-1.2-3.7-2.8-9.1-4.3-14.5-1.2-4.2-2.5-9-3.5-13.2l-1.3-5.2c1.7 0.1 3.4 0.3 5 0.4 2.9 0.2 5.6 0.4 8.2 0.6l9.1 0.2c-1.3 3.5-3.9 10.3-6.8 17.1-2 5-4 9-6 14zm-30-2l-0.3-1.5c-1-4.5-2-9.6-2.9-14.1-1.4-7.1-2.5-14.3-3-17.9l9.5 1.7c1 0.2 2 0.3 3 0.4 0.4 0.1 0.8 0.1 1.3 0.2l4.1 0.5c1 0.1 1.9 0.2 2.9 0.4 0.6 0.1 1.2 0.2 1.8 0.2-1.2 2.4-4.8 9.7-8.8 16.8-3 6-6 11-8 15zm-30-6c0-0.4-0.1-0.8-0.1-1.2-0.5-4.6-1-9.9-1.4-14.5-0.6-7.4-0.9-14.7-1.1-18.4l8.7 2.5c0.7 0.2 1.5 0.4 2.2 0.5l1.2 0.3 7.3 1.7 1.2 0.3-2 3.5c-2.3 3.9-5 8.3-7.4 12.2-3 6-6 11-9 14zm-37-12c0-3.9 0.1-9.5 0.4-15 0.1-3.9 0.4-8.4 0.8-13.7l0.4-5.3 2.4 1.1h0.1l12.4 4.9 1.8 0.6c0.3 0.1 0.6 0.2 0.8 0.3l3.3 1.1c-2.3 2.9-6.9 8.6-11.7 14.2l-1.7 2-7.9 8.8 1 1zm-200-245c-0.1-0.6-0.2-1.3-0.3-1.9-0.1-0.5-0.1-1-0.2-1.5l-0.6-4.6c-0.1-1.1-0.3-2.1-0.4-3.2-0.3-2-0.5-3.9-0.7-5.8-0.1-1.8-0.3-3.6-0.4-5.4-0.1-0.7-0.1-1.3-0.2-1.9 3.8 1.1 10.6 3 17.3 4.7 5.4 1.4 10.9 2.6 14.8 3.5-3.5 1.8-8.5 4.3-13.4 7-4.5 2.5-9.1 5-12.7 7.1l-3.2 1zm-2.6-75c0.1-1.8 0.3-3.6 0.4-5.4 0.2-1.9 0.4-3.8 0.7-5.8 0.1-1.1 0.3-2.1 0.4-3.2l0.6-4.6v-0.2c3.2 1.9 9.3 5.5 15.3 8.8 4.7 2.6 9.5 5.1 12.9 6.8l-0.8 0.2c-4.2 1.1-9.1 2.4-13.3 3.5-6.5 1.8-13 3.8-16.6 5 0.2-1 0.3-3 0.4-5zm130-185c-0.3 0.3-0.6 0.5-1 0.8l-1.7-3.7c-1.8-4.1-3.8-8.9-5.5-13.2-2.2-5.3-4.2-10.8-5.6-14.6 0.3 0.2 0.7 0.4 1.1 0.6 4 2.3 8.6 5 12.5 7.4 6.3 3.8 12.5 7.9 15.5 9.9l-7.2 5.6-9 7zm-22 21l-0.7-1.4c-0.5-0.9-1.1-2-1.7-3.3-2-3.9-4.1-8.3-6-12.3-2.4-5.1-4.7-10.3-6.3-13.9 0.5 0.2 0.9 0.4 1.4 0.6 4.2 1.8 8.9 4 13.1 6 6.6 3.1 13 6.4 16.2 8.1-0.3 0.3-0.7 0.7-1.1 1l-6 5.7-5.7 6c-0.4 0.4-0.8 0.9-1.3 1.3l-1 1zm-16 20c-0.6-0.9-1.4-2-2.2-3.3-2.4-3.8-5.2-8.2-7.6-12.1-3.1-5-6-10.3-8-13.8 0.4 0.1 0.7 0.3 1.1 0.4 4.2 1.4 9 3.1 13.1 4.7 7.7 2.9 15.3 6 17.7 7l-6.5 7.5-8 10zm-19 29c-2.5-2.7-7.3-8.2-12.1-13.9-3.6-4.3-6.9-8.4-9-11.2l-0.7-1c4 0.8 9.7 2 15.3 3.4 3 0.7 5.3 1.3 7.4 1.8l3.8 1 6.6 1.8c-1 1.4-2.1 3-3.2 4.8l-3.6 5.6c-0.2 0.3-0.4 0.7-0.7 1-0.4 0.7-0.9 1.4-1.3 2.1l-3 4zm-13 25c-1.9-1.9-7.7-7.6-13.4-13.6-2.8-3-5.9-6.4-9.3-10.2l-0.9-1c4 0.4 10 1 15.8 1.8 4.1 0.5 8.7 1.2 14.1 2.1l3.9 0.7-0.7 1.2c-0.9 1.5-1.7 3.1-2.5 4.7-0.4 0.9-0.9 1.8-1.4 2.7l-2.8 5.5c-0.2 0.4-0.4 0.8-0.6 1.3l-1 5zm-2 4l-1.1 2.4v0.1l-4.9 12.4-0.6 1.8c-0.1 0.3-0.2 0.6-0.3 0.8l-1.1 3.3c-2.9-2.3-8.6-6.9-14.2-11.7l-3-2.6-7.8-7-1.1-1c3.9 0 9.5 0.1 15 0.4 3.9 0.1 8.4 0.4 13.7 0.8l5 2zm-14.3 41c-0.2 0.7-0.4 1.4-0.5 2.2l-0.3 1.2-1.7 7.3-0.3 1.2-3.5-2c-3.9-2.3-8.3-5-12.2-7.4-4.9-3.1-9.8-6.3-13.2-8.5 0.4 0 0.8-0.1 1.2-0.1 4.6-0.5 9.9-1 14.5-1.4 7.4-0.6 14.7-0.9 18.4-1.1l-2.4 9zm-3.8 17l-1.7 9.5c-0.2 1-0.3 2-0.4 2.9-0.1 0.4-0.1 0.9-0.2 1.3l-0.5 4.1c-0.1 1-0.2 2-0.4 2.9-0.1 0.6-0.2 1.2-0.2 1.8-2.4-1.2-9.6-4.8-16.8-8.8-4.9-2.7-9.9-5.6-13.2-7.6l1.5-0.3c4.5-1 9.6-2 14.1-2.9 7-1 14.1-2 17.8-3zm-5.1 50c-3.5-1.3-10.3-3.9-17.1-6.8-4.2-1.8-9.1-3.9-13.3-5.8-0.5-0.2-0.9-0.4-1.3-0.6 3.7-1.2 9.1-2.8 14.5-4.3 4.2-1.2 9-2.5 13.2-3.5l5.2-1.3c-0.1 1.7-0.3 3.3-0.4 4.9-0.2 2.9-0.4 5.6-0.6 8.2l-0.2 10zm0.2 18c0.2 2.5 0.4 5.2 0.6 8.1 0.1 1.9 0.3 4 0.5 6.1 0 0.4 0.1 0.8 0.1 1.2-3.6-0.8-10.8-2.3-17.9-4.2-5.6-1.4-11.2-3-15.1-4.1l7.2-3.2c2.3-1 4.7-2 7.2-3 6.8-2.8 13.7-5.4 17.2-6.7l0.2 6zm-35.5 2l-0.4-15.7 0.4-15.2c0.9 0.4 2 1 3.3 1.5 4.2 1.9 9.1 4.1 13.4 5.8 7.8 3.3 15.7 6.3 18.5 7.3v0.4 0.1s0 0 0 0.1l0.1 3.8c-2.8 1-10.8 4-18.6 7.2-2.5 1-4.9 2-7.2 3l-9.3 4.2c-0.1 1-0.2 0-0.2-1zm8.7 34c3.5-2 8-4.6 12.5-7 6.4-3.5 12.9-6.7 16.1-8.4 0.1 0.5 0.1 0.9 0.2 1.4l0.5 4.1c0.1 0.4 0.1 0.8 0.2 1.3 0.1 1 0.2 1.9 0.4 2.9l2.2 12.1c0 0.2 0.1 0.5 0.2 0.7l-5.2-0.8c-4.1-0.7-9-1.5-13.5-2.4-5.5-1.1-11.1-2.3-14.9-3.1l1.3-1zm33.2 12l1.4 6.2 0.3 1.2c0.2 0.7 0.3 1.5 0.5 2.2l3.4 11.9c-1.1 0-2.4-0.1-4-0.2-4.5-0.2-9.7-0.6-14.3-1-5.9-0.5-11.9-1.1-15.9-1.6 0.3-0.2 0.6-0.4 1-0.7 3.6-2.5 7.8-5.4 11.5-7.8 6.9-3 13.9-8 16.1-9zm9.7 34c0.1 0.3 0.2 0.5 0.3 0.8l0.6 1.8 4.9 12.4v0.1l2.1 4.5c-3.7 0.4-11 1.1-18.4 1.6-5 0.4-9.9 0.6-14.3 0.7h-1.2c3-2.7 7.4-6.7 11.7-10.4 3.2-2.8 6.9-5.8 11.1-9.2l3.2-4zm6.9 27l2.8-2.8 0.9 1.9c0.2 0.4 0.4 0.8 0.6 1.3l2.8 5.5c0.5 0.9 0.9 1.8 1.4 2.7 0.8 1.5 1.6 3.2 2.5 4.7l2.4 4.1c-2.7 0.5-10.7 1.8-18.9 2.8-4.9 0.6-9.6 1.1-13.7 1.5l-1.4 0.1c2.7-3 6.6-7.5 10.7-11.7 3.4-3 7.4-7 9.4-9zm16 21l1.3 2.3c0.4 0.8 0.9 1.5 1.3 2.1 0.2 0.3 0.5 0.7 0.7 1.1l3.6 5.6c1.7 2.7 3.3 4.9 4.6 6.7l0.6 0.9c-3.6 1-10.7 2.9-17.8 4.6-5.2 1.2-10.2 2.3-14 3.1l-1.5 0.3c2.3-3.1 5.7-7.6 9.1-11.9 3.2-4 6.5-8 8.7-10.7l2-4zm20 29l5.6 7.2 7.1 8.2c0.3 0.3 0.5 0.6 0.8 1l-3.7 1.7c-4.2 1.8-9 3.8-13.2 5.5-5.3 2.2-10.8 4.2-14.6 5.6 0.2-0.3 0.4-0.7 0.6-1.1 2.3-4 5-8.6 7.4-12.5l10-15zm17 20c0.3 0.3 0.7 0.7 1 1.1l5.7 6 6 5.7c0.4 0.4 0.9 0.8 1.3 1.3 0.7 0.7 1.4 1.4 2.2 2l-1.3 0.7c-0.9 0.5-2.1 1.1-3.4 1.7-3.9 2-8.4 4.1-12.3 6-5.1 2.4-10.3 4.7-13.9 6.3 0.2-0.5 0.4-0.9 0.6-1.4 1.8-4.2 4-9 6-13.1 2-7 5-13 7-17zm19 19l7.5 6.5 9.7 7.6h-0.1c-0.9 0.6-2 1.3-3.3 2.1-3.8 2.4-8.2 5.2-12.1 7.6-5 3.1-10.3 6-13.8 8 0.1-0.4 0.3-0.7 0.4-1.1 1.4-4.2 3.1-9 4.7-13.1 2-8 5-15 6-18zm27 26l1.1-3.9c1.4 1 3 2.1 4.8 3.2l5.6 3.6c0.3 0.2 0.7 0.4 1 0.7 0.7 0.4 1.4 0.9 2.1 1.3l4.3 2.5c-2.7 2.5-8.2 7.4-13.9 12.1-4.3 3.6-8.4 6.9-11.2 9l-1 0.7c0.8-4 2-9.7 3.4-15.3 0.7-3 1.3-5.3 1.8-7.4l2-8zm23 14l0.7-3.9 1.2 0.7c1.5 0.9 3.1 1.7 4.7 2.5 0.9 0.4 1.8 0.9 2.7 1.4l5.5 2.8c0.4 0.2 0.8 0.4 1.3 0.6l5 2.3c-1.9 1.9-7.6 7.7-13.6 13.4-3 2.8-6.3 5.9-10.2 9.3l-1 0.9c0.4-4 1-10 1.8-15.8-1-4 0-9 1-14zm21-529c-0.4-5-0.6-9.9-0.7-14.3v-1.2c2.7 3 6.7 7.4 10.4 11.7 2.8 3.2 5.9 6.9 9.2 11.1l2.5 3.2h-0.1c-0.3 0.1-0.5 0.2-0.8 0.3l-1.8 0.6-12.4 4.9h-0.1l-4.5 2.1c0-4 0-11.2-1-18.6zm-23 30.6c-0.5-2.7-1.8-10.7-2.8-18.9-0.6-4.9-1.1-9.7-1.5-13.7l-0.1-1.4c3 2.7 7.5 6.6 11.7 10.7 3.9 3.6 7.7 7.4 10.2 10l2.8 2.8-1.9 0.9c-0.4 0.2-0.8 0.4-1.3 0.6l-5.5 2.8c-0.9 0.5-1.8 0.9-2.7 1.4-1.5 0.8-3.2 1.6-4.7 2.5l-4 2zm-4 3l-2.3 1.3c-0.8 0.4-1.5 0.9-2.1 1.3-0.3 0.2-0.7 0.5-1.1 0.7l-5.6 3.6c-2.7 1.7-4.9 3.3-6.7 4.6l-0.9 0.6c-1-3.6-2.9-10.7-4.6-17.8-1.3-5.3-2.3-10.6-3.1-14l-0.3-1.5c3.1 2.3 7.6 5.7 11.9 9.1 4 3.2 8 6.5 10.7 8.7l4 3zm93-67.4l0.8 1.3c2 3.5 4.6 8 7 12.5 3.5 6.4 6.7 12.9 8.4 16.1-0.5 0.1-0.9 0.1-1.4 0.2l-4.1 0.5c-0.4 0.1-0.8 0.1-1.3 0.2-1 0.1-1.9 0.2-2.9 0.4l-12.1 2.2c-0.2 0-0.5 0.1-0.7 0.2l0.8-5.2c0.7-4.1 1.5-9 2.4-13.5 1-5.5 2-11.1 3-14.9zm-29 7c2.5 3.6 5.4 7.8 7.8 11.5 4.6 6.9 8.9 13.9 10.2 16.1l-6.2 1.4-1.2 0.3c-0.7 0.2-1.5 0.3-2.2 0.5l-11.9 3.4c0-1.1 0.1-2.4 0.2-4 0.2-4.5 0.6-9.7 1-14.3 0.5-5.9 1.1-11.9 1.6-15.9v1zm50 22.4c0.8-3.6 2.3-10.8 4.2-17.9 1.4-5.6 3-11.2 4.1-15.1l3.2 7.2c1 2.3 2 4.7 3 7.2 2.8 6.8 5.4 13.7 6.7 17.2l-5.8 0.1c-2.5 0.2-5.2 0.4-8.1 0.6-1.9 0.2-4 0.3-6.1 0.5 0 0.1 0 0.1-1 0.2zm47-31.8c0.2-0.5 0.4-0.9 0.6-1.3 1.2 3.7 2.8 9.1 4.3 14.5 1.2 4.2 2.5 9.1 3.5 13.2l1.3 5.2c-1.7-0.1-3.3-0.3-4.9-0.4-2.9-0.2-5.6-0.4-8.2-0.6l-9.1-0.2c1.3-3.5 3.9-10.3 6.8-17.1 1-4.3 3-9.1 5-13.3zm30 1.9l0.3 1.5c1 4.5 2 9.6 2.9 14.1 1.4 7.1 2.5 14.3 3 17.9l-9.5-1.7c-1-0.2-2-0.3-2.9-0.4-0.4-0.1-0.9-0.1-1.3-0.2l-4.1-0.5c-1-0.1-1.9-0.2-2.9-0.4-0.6-0.1-1.2-0.2-1.8-0.2 1.2-2.4 4.8-9.7 8.8-16.8 2-5 5-9.9 7-13.3zm30 5.7c0 0.4 0.1 0.8 0.1 1.2 0.5 4.6 1 9.9 1.4 14.5 0.6 7.4 0.9 14.7 1.1 18.4l-8.7-2.5c-0.7-0.2-1.4-0.4-2.2-0.5l-1.2-0.3-7.3-1.7-1.2-0.3 2-3.5c2.3-3.9 5-8.3 7.4-12.2 3-4.8 6-9.7 9-13.1zm237 257c0.1 0.6 0.2 1.3 0.3 1.9 0.1 0.5 0.1 1 0.2 1.5l0.6 4.6c0.1 1.1 0.3 2.1 0.4 3.2 0.3 2 0.5 3.9 0.7 5.8 0.1 1.8 0.3 3.6 0.4 5.4 0.1 0.7 0.1 1.3 0.2 2-3.8-1.1-10.6-3-17.3-4.7-5.4-1.4-10.9-2.6-14.8-3.5 3.5-1.8 8.5-4.3 13.4-7 4.5-2.4 9.1-5 12.7-7.1l4-2zm4 33l0.4 15.7-0.4 15.2c-0.9-0.4-2-0.9-3.3-1.5-4.2-1.9-9.1-4.1-13.4-5.8-7.8-3.3-15.7-6.3-18.5-7.3v-0.4-0.1s0 0 0-0.1l-0.1-3.8c2.8-1 10.8-4 18.6-7.2 2.5-1 4.9-2 7.2-3l9.3-4.2c-1 0-1 1-1 2zm-36 1c-0.2-2.5-0.4-5.2-0.6-8.1-0.2-1.9-0.3-4-0.5-6.1 0-0.4-0.1-0.8-0.1-1.2 3.6 0.8 10.8 2.3 17.9 4.2 5.6 1.4 11.2 3 15.1 4.1l-7.2 3.2c-2.3 1-4.7 2-7.2 3-6.8 2.8-13.7 5.4-17.2 6.7v-6zm-3 59c0.2-1 0.3-2 0.4-3 0.1-0.4 0.1-0.8 0.2-1.3l0.5-4.1c0.1-1 0.2-1.9 0.4-2.9 0.1-0.6 0.2-1.2 0.2-1.8 2.4 1.2 9.7 4.8 16.8 8.8 4.9 2.7 9.9 5.6 13.2 7.6l-1.5 0.3c-4.5 1-9.6 2-14.1 2.9-7.1 1.4-14.3 2.5-17.9 3l3-10zm2-18c0.1-1.7 0.3-3.4 0.4-5 0.2-2.9 0.4-5.6 0.6-8.2l0.2-9.1c3.5 1.3 10.3 3.9 17.1 6.8 4.3 1.8 9.1 3.9 13.3 5.8 0.5 0.2 0.9 0.4 1.3 0.6-3.7 1.2-9.1 2.8-14.5 4.3-4.2 1.2-9.1 2.5-13.2 3.5l-4 1zm28-77c-3.5 2-8.1 4.6-12.5 7-6.4 3.5-12.9 6.7-16.1 8.4-0.1-0.5-0.1-0.9-0.2-1.4l-0.5-4.1c-0.1-0.4-0.1-0.8-0.2-1.3-0.1-1-0.2-2-0.4-2.9l-3-12c0-0.2-0.1-0.5-0.2-0.7l5.2 0.8c4.1 0.7 9 1.5 13.5 2.4 5.5 1.1 11.1 2.3 14.9 3.1l-2 1zm-33-11l-1.4-6.2-0.3-1.2c-0.2-0.8-0.3-1.5-0.5-2.3l-3.4-11.9c1.1 0 2.4 0.1 4 0.2 4.5 0.2 9.7 0.6 14.3 1 5.9 0.5 11.9 1.1 15.9 1.6-0.3 0.2-0.6 0.4-1 0.7-3.6 2.5-7.8 5.4-11.5 7.8-7 3-14 8-16 9zm-10-34c-0.1-0.3-0.2-0.5-0.3-0.8l-0.6-1.8-4.9-12.4v-0.1l-2.1-4.5c3.7-0.4 11-1.1 18.4-1.6 5-0.4 9.9-0.6 14.3-0.7h1.2c-3 2.7-7.4 6.7-11.7 10.4-3.2 2.8-6.9 5.8-11.1 9.2l-2 3zm-7-27l-2.8 2.8-0.9-1.9c-0.2-0.4-0.4-0.8-0.6-1.3l-2.8-5.5c-0.5-0.9-0.9-1.8-1.4-2.7-0.8-1.5-1.6-3.2-2.5-4.7l-2.4-4.1c2.7-0.5 10.7-1.8 18.9-2.8 4.9-0.6 9.7-1.1 13.7-1.5l1.4-0.1c-2.7 3-6.6 7.5-10.7 11.7-4 4-8 7-10 10zm-16-21l-1.3-2.3c-0.4-0.8-0.9-1.4-1.3-2.1-0.2-0.3-0.5-0.7-0.7-1.1l-3.6-5.6c-1.7-2.7-3.3-4.9-4.6-6.7l-0.6-0.9c3.6-1 10.7-2.9 17.8-4.6 5.3-1.3 10.5-2.3 14-3.1l1.5-0.3c-2.3 3.1-5.7 7.6-9.1 11.9-3.2 4-6.5 8-8.7 10.7l-3 4zm-19-29l-5.6-7.2-7.1-8.2c-0.3-0.3-0.5-0.6-0.8-1l3.7-1.7c4.1-1.8 8.9-3.8 13.2-5.5 5.3-2.2 10.8-4.2 14.6-5.6-0.2 0.3-0.4 0.7-0.6 1.1-2.3 4-5 8.6-7.4 12.5-4 6-8 13-10 16zm-18-21c-0.3-0.3-0.7-0.7-1-1.1l-5.7-6-6-5.7c-0.4-0.4-0.9-0.8-1.3-1.3-0.7-0.7-1.4-1.4-2.2-2l1.4-0.7c0.9-0.5 2-1.1 3.3-1.7 3.9-1.9 8.3-4.1 12.3-6 5.1-2.4 10.3-4.7 13.9-6.3-0.2 0.5-0.4 0.9-0.6 1.4-1.8 4.2-4 9-6 13.1-1 8-5 14-7 17zm-19-19l-7.5-6.5-9.7-7.6c0.9-0.6 2-1.4 3.3-2.2 3.8-2.5 8.2-5.2 12.1-7.6 5-3.1 10.3-6 13.8-8-0.1 0.4-0.3 0.7-0.4 1.1-1.4 4.2-3.1 9-4.7 13.1-3 8-6 16-7 18zm-28-21c-1.4-1-3-2.1-4.8-3.2l-5.6-3.6c-0.3-0.2-0.7-0.4-1-0.7-0.7-0.4-1.4-0.9-2.1-1.3l-4.3-2.5c2.7-2.5 8.2-7.3 13.9-12.1 4.3-3.6 8.4-6.9 11.2-9l1-0.7c-0.8 4-2 9.7-3.4 15.3-0.7 3-1.3 5.3-1.8 7.4l-3 11zm-22-18l-0.7 3.9-1.2-0.7c-1.5-0.9-3.1-1.7-4.7-2.5-0.9-0.4-1.8-0.9-2.7-1.4l-5.5-2.8c-0.4-0.2-0.8-0.4-1.3-0.6l-5-2.3c1.9-1.9 7.6-7.7 13.6-13.4 3-2.8 6.3-5.9 10.2-9.3l1-0.9c-0.4 4-1 10-1.8 15.8 0 4-1 9-2 14zm-23-27.2c-0.1 3.9-0.4 8.4-0.8 13.7l-0.4 5.3-2.4-1.1h-0.1l-12.4-4.9-1.8-0.6c-0.3-0.1-0.6-0.2-0.8-0.3l-3.3-1.1c2.3-2.9 6.9-8.6 11.7-14.2l2.6-3 6.5-7.2 1.5-1.7c-2 4.1-2 9.8-2 15.3zm66 497l8.2-7.1c0.3-0.3 0.6-0.5 1-0.8l1.7 3.7c1.1 2.4 3.2 7.4 5.5 13.2 2.2 5.3 4.2 10.8 5.6 14.6-0.3-0.2-0.7-0.4-1.1-0.6-4-2.3-8.6-5-12.5-7.4-6.3-3.8-12.5-7.9-15.5-9.9l8-6zm14-13l6-5.7 5.7-6c0.4-0.4 0.8-0.9 1.3-1.3 0.7-0.7 1.4-1.4 2-2.2l0.7 1.3c0.5 0.9 1.1 2.1 1.7 3.4 2 3.9 4.1 8.3 6 12.3 2.4 5.1 4.7 10.3 6.3 13.9-0.5-0.2-0.9-0.4-1.4-0.6-4.2-1.8-9-4-13.1-6-6.6-3.1-13-6.4-16.2-8.1-1 1-1 1 0 0zm24-26l7.6-9.7c0.6 0.9 1.3 2 2.2 3.3 2.4 3.8 5.2 8.2 7.6 12.1 3.1 5 6 10.3 8 13.8-0.4-0.1-0.7-0.3-1.1-0.4-4.2-1.4-9-3.1-13.1-4.7-7.7-2.9-15.3-6-17.7-7l6-7zm18-25l3.6-5.6c0.2-0.3 0.4-0.7 0.7-1 0.4-0.7 0.9-1.4 1.3-2.1l2.5-4.3c2.5 2.7 7.4 8.2 12.1 13.9 3.6 4.3 6.9 8.4 9 11.2l0.7 1c-4-0.8-9.7-2-15.3-3.4-3-0.7-5.3-1.3-7.4-1.8l-6.5-1.7-3.9-1.1c0-1 1-3 2-5zm12-19c0.9-1.5 1.7-3.1 2.5-4.7 0.4-0.9 0.9-1.8 1.4-2.7l2.8-5.5c0.2-0.4 0.4-0.8 0.6-1.3l2.3-5c1.9 1.9 7.7 7.6 13.4 13.6 2.8 3 5.9 6.3 9.3 10.2l0.9 1c-4-0.4-10-1-15.8-1.8-4.1-0.5-8.7-1.2-14.1-2.1l-3.9-0.7h2zm11-23l1.1-2.4v-0.1l4.9-12.4 0.6-1.8c0.1-0.3 0.2-0.6 0.3-0.8l1.1-3.3c2.9 2.3 8.6 6.9 14.2 11.7l3 2.6 7.8 7 1.1 1c-3.9 0-9.5-0.1-15-0.4-3.9-0.1-8.4-0.4-13.7-0.8l-5-2zm15-42c0.2-0.7 0.4-1.5 0.5-2.2l0.3-1.2 1.7-7.3 0.3-1.2 3.5 2c3.9 2.3 8.3 5 12.2 7.4 4.9 3.1 9.8 6.3 13.2 8.5-0.4 0-0.8 0.1-1.2 0.1-4.6 0.5-9.9 1-14.5 1.4-7.4 0.6-14.7 0.9-18.4 1.1l2-9zm40-125c-3.6-0.8-10.5-2.4-17.2-3.7-4.5-0.9-9.5-1.8-13.6-2.4l-0.8-0.1c3.3-2 7.8-4.9 12.3-7.9 3.7-2.4 7.9-5.3 11.6-7.9 1.1-0.8 2-1.4 2.8-2 0.1 0.2 0.1 0.5 0.2 0.7 0.1 0.4 0.2 0.9 0.3 1.3l1.9 8.3c0.1 0.5 0.2 1 0.4 1.6 0.2 0.9 0.4 1.9 0.6 2.8l2 9zm-11-44s0.5 1.5 1.3 4l3 10.5c-3.9-0.5-11.1-1.3-18.1-1.9-4.6-0.4-9.8-0.8-14.4-1-1.9-0.1-3.6-0.2-4.8-0.2h-0.7c-0.1-0.3-0.1-0.4-0.2-0.5l-1.2-3.6 4.3-3.4c4.2-3.4 8-6.5 11.2-9.3 5.3-4.5 10.5-9.2 13.4-11.9l2.2 5.7 0.6 1.8c0.1 0.3 0.2 0.7 0.3 1l4 9zm-16-39l5.8 12.9 1.1 2.9-3.4 0.1c-4.5 0.2-9.4 0.4-14.5 0.8-5.6 0.4-11.2 0.9-15.2 1.3l0.5-0.5c2.6-2.6 6.4-6.4 10.1-10.3 4.9-5.2 9.8-10.7 12.3-13.6l2.6 5.2v2zm-8-15c0.8 1.4 1.5 2.9 2.3 4.3l-3.7 0.3c-4.1 0.4-8.9 0.9-13.8 1.5-5.4 0.7-10.7 1.5-14.6 2.1l0.5-0.6c2.2-2.7 5.6-6.7 8.8-10.8 4.2-5.3 8.2-10.7 10.5-13.8l1.1 1.8c0.3 0.4 0.5 0.8 0.8 1.2 0.5 0.7 1 1.5 1.4 2.2l8 13zm-24-38l2.5 3.5 2.5 3.5c0.4 0.5 0.8 1.1 1.3 1.8 1.4 1.9 3.1 4.3 4.9 7.2l-3.6 0.7c-3.5 0.7-8.9 1.8-14.2 3.1-8.3 2-16.5 4.2-19.4 5l-0.3-0.4-2.3-3.2c1.7-2.5 6.3-9.5 10.7-16.8 2.4-4 5.2-8.6 7.5-12.6 0.6-1.1 1.2-2.1 1.7-2.9l7 10zm-22-27c1.7 1.8 3.3 3.4 4.8 5.2l4.8 5.6c-3.7 1.4-10.3 3.8-16.7 6.4-4.3 1.7-9.1 3.7-13.3 5.5l-0.7 0.3c1.8-3.5 4.3-8.5 6.7-13.5 2-4.2 4.2-9 6-13.2 0.6-1.4 1.2-2.6 1.6-3.6l6 8zm-21-20c1.7 1.4 3.4 3 5.2 4.7l4.9 4.7c-3.4 1.5-9.9 4.3-16.1 7.2-4 1.9-8.5 4.1-12.4 6-0.2 0.1-0.5 0.2-0.7 0.4 1.4-3.6 3.4-8.5 5.3-13.6 1.5-4.1 3.3-8.9 4.7-13.2 0.4-1.2 0.8-2.3 1.1-3.2l8 7zm-30-24c0.7 0.5 1.2 0.9 1.8 1.3l3.5 2.5 3.4 2.5 8.6 6.8c-3.4 1.9-9.7 5.5-15.8 9.1-3.9 2.4-8.4 5.2-12.2 7.6-1.3 0.8-2.5 1.6-3.4 2.2l-1.2 0.8-0.4-0.3-3.1-2.2 1.5-5.3 1.8-6.6c0.6-2.1 1.1-4.5 1.9-7.5 1.6-6.7 3.1-13.6 3.9-17.5l2.3 1.5c1 2 4 4 6 5zm-35-20.9c1.8 0.9 3.6 1.8 5.4 2.8l11.7 6.7c0.8 0.4 1.5 0.9 2.2 1.4 0.1 0.1 0.2 0.1 0.3 0.2l-2.7 2.1c-2.8 2.2-7 5.5-11.3 9.1s-8.6 7.3-11.6 10l0.1-0.7c0.9-5.4 1.6-10.2 2.1-14.2 0.9-7.1 1.6-14.4 2-18.2 2 0.7 3 1 3 1.3zm-10-5.3c0.4 0.2 0.9 0.4 1.3 0.6l2.3 1.2-2.8 2.4c-3.9 3.4-7.3 6.5-10.3 9.4-4 3.7-7.8 7.5-10.5 10.2l0.1-0.8c0.4-5.4 0.7-9.9 0.8-13.9 0.3-6.7 0.4-13.5 0.4-17.3l5.6 2.2 14 5.8zm-43-16.7c2.6 0.8 4 1.3 4.1 1.4l8.8 3c0.3 0.1 0.7 0.2 1 0.3l1.8 0.6 2.8 1.1-2.5 2.7-4.6 5-2.5 2.8-2.6 3c-5.6 6.5-10.9 13.1-12.7 15.4l-0.4-0.1s-1.3-0.5-3.7-1.2c-0.1-3-0.5-11.4-1.2-19.9-0.4-4.6-0.9-10-1.4-14.6-0.1-1.3-0.3-2.4-0.4-3.4l14 3.9zm-28-7.3c0.5 0.1 1 0.2 1.5 0.4l7.2 1.7c-2.2 3.3-6.1 9.1-9.8 15-2.4 3.9-5.2 8.4-7.5 12.3l-0.4 0.7c-0.6-3.9-1.5-9.4-2.5-14.8-0.8-4.5-1.9-9.7-2.9-14.2l-0.9-3.8 12.5 2.2c0 0.1 1 0.3 2 0.5zm-35-5.4c1.9 0.2 3.8 0.4 5.8 0.7 1.1 0.1 2.1 0.3 3.2 0.4l4.6 0.6h0.2c-1.9 3.2-5.5 9.3-8.8 15.3-2.6 4.7-5.1 9.5-6.8 12.9l-0.2-0.8c-1.1-4.2-2.3-9.1-3.5-13.3-1.8-6.5-3.8-13-5-16.6 1.7 0.1 3.4 0.3 5.2 0.4 2 0.1 3 0.3 5 0.4zm-47-1.2l15.7-0.4 15.2 0.4c-0.4 0.9-0.9 2-1.5 3.3-1.9 4.2-4.1 9.1-5.8 13.4-3.3 7.8-6.3 15.7-7.3 18.5h-0.4-0.1l-3.8 0.1c-1-2.8-4-10.8-7.2-18.6-1-2.5-2-4.9-3-7.2l-4.2-9.3c-1-0.1 0-0.1 1-0.2zm-31 3.1c0.5-0.1 1-0.1 1.5-0.2l4.6-0.6c1.1-0.1 2.1-0.3 3.2-0.4 2-0.3 3.9-0.5 5.8-0.7 1.8-0.1 3.6-0.3 5.4-0.4 0.7-0.1 1.3-0.1 1.9-0.2-1.1 3.8-3 10.6-4.7 17.3-1.4 5.4-2.6 10.9-3.5 14.8-1.8-3.5-4.3-8.5-7-13.4-2.5-4.5-5-9.1-7.1-12.7l-2-3.4c2 0 2 0 3-0.1zm-29 5.8l8.3-1.9c0.5-0.1 1-0.2 1.5-0.4 0.9-0.2 1.9-0.4 2.8-0.6l9.3-1.7c-0.8 3.6-2.4 10.5-3.7 17.2-0.9 4.5-1.8 9.5-2.4 13.6l-0.1 0.8c-2-3.3-4.9-7.8-7.9-12.3-2.4-3.7-5.3-7.9-7.9-11.6-0.8-1.1-1.4-2-2-2.8 0.2-0.1 0.4-0.1 0.7-0.2 0 0.1 0 0 1-0.1zm-34 10.3l1.8-0.6c0.3-0.1 0.7-0.2 1-0.3l8.8-3s1.5-0.5 4-1.3l10.5-3c-0.5 3.9-1.3 11.1-1.9 18.1-0.4 4.6-0.8 9.8-1 14.4-0.1 1.9-0.2 3.6-0.2 4.8v0.7c-0.3 0.1-0.5 0.2-0.5 0.2l-3.6 1.2-3.4-4.3c-3.4-4.2-6.5-8-9.3-11.2-4.5-5.3-9.2-10.5-11.9-13.4l6-2.3zm-29 12c0.4-0.2 0.9-0.4 1.3-0.6l12.9-5.8 2.9-1.1 0.1 3.4c0.2 4.5 0.4 9.4 0.8 14.5 0.4 5.6 0.9 11.2 1.3 15.2l-0.5-0.5c-2.6-2.6-6.4-6.4-10.3-10.1-5.2-4.9-10.7-9.8-13.6-12.3l5-2.2zm-29 16.4c0.4-0.3 0.8-0.5 1.2-0.8 0.7-0.5 1.5-0.9 2.2-1.4l11.6-6.7c1.4-0.8 2.9-1.5 4.3-2.3l0.3 3.7c0.4 4.1 0.9 8.9 1.5 13.8 0.7 5.4 1.5 10.7 2.1 14.6l-0.6-0.5c-2.7-2.3-6.7-5.6-10.8-8.8-5.3-4.2-10.7-8.2-13.8-10.5l4-0.7zm-23 15.2l3.5-2.5 3.5-2.5c0.5-0.4 1.1-0.8 1.8-1.3 1.9-1.4 4.4-3.1 7.2-4.9l0.7 3.6c0.7 3.5 1.8 8.9 3.1 14.2 2 8.3 4.2 16.5 5 19.4l-0.4 0.3-3.2 2.3c-2.5-1.7-9.5-6.3-16.8-10.7-4-2.4-8.6-5.2-12.6-7.5-1.1-0.7-2.1-1.2-3-1.7l11-7zm-26 22c1.8-1.7 3.4-3.3 5.2-4.8l5.6-4.8c1.4 3.7 3.8 10.3 6.4 16.7 1.7 4.3 3.7 9.1 5.6 13.3l0.3 0.7c-3.5-1.8-8.5-4.3-13.5-6.7-4.2-2-9-4.2-13.2-6-1.4-0.6-2.6-1.2-3.6-1.6l8-6zm-21 21c1.4-1.7 3-3.4 4.7-5.2l4.7-4.9c1.5 3.4 4.3 9.9 7.2 16.1 1.9 4 4.1 8.5 6 12.4 0.1 0.2 0.2 0.5 0.4 0.7-3.6-1.4-8.5-3.4-13.6-5.3-4.1-1.6-8.9-3.3-13.2-4.7-1.2-0.4-2.3-0.8-3.2-1.1l7-8zm-24 30c0.5-0.6 0.9-1.2 1.3-1.8l2.5-3.5 2.5-3.4 6.8-8.6c1.9 3.4 5.5 9.7 9.1 15.8 2.4 4 5.2 8.4 7.6 12.2 0.8 1.3 1.6 2.5 2.2 3.4l0.8 1.2-0.3 0.4-2.2 3.1-5.3-1.5-6.6-1.8c-2.1-0.6-4.5-1.1-7.5-1.9-6.7-1.6-13.6-3.1-17.5-3.9l1.5-2.3c1-1 3-4 4-6zm-20.7 35c0.9-1.8 1.8-3.6 2.8-5.4l6.7-11.7c0.4-0.8 0.9-1.5 1.4-2.2 0.1-0.1 0.1-0.2 0.2-0.3l2.1 2.7c2.2 2.8 5.5 7 9.1 11.3s7.3 8.6 10 11.6l-0.7-0.1c-5.4-0.9-10.1-1.6-14.2-2.1-7.1-0.9-14.4-1.6-18.2-2-0.1-2 0.2-2 0.5-3zm-5.3 10c0.2-0.4 0.4-0.9 0.6-1.3l1.2-2.3 2.4 2.8c3.4 3.8 6.5 7.3 9.4 10.3 3.7 4 7.5 7.8 10.2 10.5l-0.8-0.1c-5.4-0.4-9.9-0.7-13.9-0.8-6.7-0.3-13.5-0.4-17.3-0.4l2.3-5.8 5.9-14zm-12.4 30c0.1-0.3 0.2-0.7 0.3-1l0.6-1.8 1.1-2.8 2.7 2.5 5 4.6 2.8 2.5 3 2.6c6.5 5.6 13.1 10.9 15.4 12.7l-0.1 0.4s-0.5 1.3-1.2 3.7c-3 0.1-11.4 0.5-19.9 1.2-4.6 0.4-10 0.9-14.6 1.4-1.3 0.1-2.4 0.3-3.4 0.4l3.8-13.5c0.8-2.6 1.3-4 1.4-4.1l3.1-9zm-12.2 44c0.2-0.9 0.4-1.9 0.6-2.8 0.1-0.5 0.2-1 0.4-1.5l1.7-7.2c3.3 2.2 9.1 6.1 15 9.8 3.9 2.5 8.4 5.2 12.3 7.5l0.7 0.4c-3.9 0.6-9.4 1.5-14.8 2.5-4.5 0.8-9.7 1.9-14.2 2.9l-3.8 0.9 2.1-11zm-1.6 118c3.6 0.8 10.5 2.4 17.2 3.7 4.5 0.9 9.5 1.8 13.6 2.4l0.8 0.1c-3.3 2-7.8 4.9-12.3 7.9-3.7 2.5-7.9 5.3-11.6 7.9-1.1 0.8-2 1.4-2.8 2-0.1-0.2-0.1-0.4-0.2-0.7-0.1-0.5-0.2-0.9-0.3-1.4l-1.9-8.3c-0.1-0.5-0.2-1-0.4-1.6-0.2-0.9-0.4-1.8-0.6-2.8l-1.5-9zm10.8 44s-0.5-1.5-1.3-4l-3-10.5c3.9 0.5 11.1 1.3 18.1 1.9 4.6 0.4 9.8 0.8 14.4 1 1.9 0.1 3.6 0.2 4.8 0.2h0.7c0.1 0.3 0.2 0.5 0.2 0.5l1.2 3.6-4.3 3.4c-4.2 3.4-8 6.5-11.2 9.3-5.3 4.5-10.5 9.2-13.4 11.9l-2.2-5.7-0.6-1.8c-0.1-0.3-0.2-0.7-0.3-1l-3.1-8zm15.4 39l-5.8-12.9-1.1-2.9 3.4-0.1c4.5-0.2 9.4-0.4 14.5-0.8 5.6-0.4 11.2-0.9 15.2-1.3l-0.5 0.5c-2.6 2.6-6.4 6.4-10.1 10.3-4.9 5.2-9.8 10.7-12.3 13.6l-2.6-5.2c-0.6-1-0.8-1-1-1zm8.1 15c-0.8-1.4-1.5-2.9-2.3-4.3l3.7-0.3c4.1-0.4 8.9-0.9 13.8-1.5 5.4-0.7 10.7-1.5 14.6-2.1l-0.5 0.6c-2.3 2.7-5.6 6.7-8.8 10.8-4.2 5.3-8.2 10.7-10.5 13.8l-1.1-1.8c-0.3-0.4-0.5-0.8-0.8-1.2-0.5-0.7-1-1.5-1.4-2.2l-7.1-14zm23.9 38l-2.5-3.5-2.5-3.5c-0.4-0.5-0.8-1.1-1.3-1.8-1.4-1.9-3.1-4.3-4.9-7.2l3.6-0.7c3.9-0.8 9-1.8 14.2-3.1 8.3-2 16.5-4.2 19.4-5l0.3 0.4 2.3 3.2c-1.7 2.5-6.3 9.5-10.7 16.8-2.4 4-5.2 8.6-7.5 12.6-0.7 1.1-1.2 2.1-1.7 3l-8-11zm23 27c-1.7-1.8-3.3-3.4-4.7-5.2l-4.8-5.6c3.7-1.4 10.3-3.8 16.7-6.4 5.8-2.3 10.8-4.5 13.3-5.5l0.7-0.3c-1.8 3.5-4.3 8.5-6.7 13.5-2 4.2-4.2 9-6 13.2-0.6 1.4-1.2 2.6-1.6 3.6l-6-9zm21 20c-1.7-1.5-3.4-3-5.2-4.7l-4.9-4.7c3.4-1.5 9.9-4.3 16.1-7.2 4-1.9 8.5-4.1 12.4-6 0.2-0.1 0.5-0.2 0.7-0.4-1.4 3.6-3.4 8.5-5.3 13.6-1.5 4.1-3.3 8.9-4.7 13.2-0.4 1.2-0.8 2.3-1.1 3.2l-8-7zm30 24c-0.6-0.5-1.2-0.9-1.8-1.3l-3.5-2.5-3.4-2.5-8.6-6.8c3.4-1.9 9.7-5.5 15.8-9.1 4-2.4 8.4-5.2 12.2-7.6 1.3-0.8 2.4-1.6 3.3-2.2l1.3-0.9 0.4 0.3 3.1 2.2-1.5 5.3-1.8 6.6c-0.6 2.1-1.1 4.5-1.9 7.5-1.6 6.7-3.1 13.6-3.9 17.5l-2.3-1.5c-2-1-4-3-6-4zm34 21c-1.8-0.9-3.6-1.8-5.4-2.8l-11.7-6.7c-0.8-0.4-1.5-0.9-2.2-1.4-0.1-0.1-0.2-0.1-0.3-0.2l2.7-2.1c2.8-2.2 7-5.5 11.3-9.1s8.6-7.3 11.6-10l-0.1 0.7c-0.9 5.4-1.6 10.1-2.1 14.2-0.9 7.1-1.6 14.4-2 18.2-2-1-2-1-3-1zm11 5c-0.4-0.2-0.9-0.4-1.3-0.6l-2.3-1.2 2.8-2.4c3.9-3.4 7.3-6.5 10.3-9.4 4-3.7 7.8-7.5 10.5-10.2l-0.1 0.8c-0.4 5.4-0.7 9.9-0.8 13.9-0.3 6.7-0.4 13.5-0.4 17.3l-5.8-2.3-14-7zm42 17c-2.6-0.8-4-1.3-4.1-1.4l-8.8-3c-0.3-0.1-0.7-0.2-1-0.3l-1.8-0.6-2.8-1.1 2.5-2.7 4.6-5 2.5-2.8 2.6-3c5.6-6.5 10.9-13.1 12.7-15.4l0.4 0.1c0.1 0 1.4 0.5 3.7 1.2 0.1 3 0.5 11.4 1.2 19.9 0.4 4.6 0.9 10 1.4 14.6 0.1 1.3 0.3 2.4 0.4 3.4l-13-4zm28 7c-0.5-0.1-1-0.2-1.5-0.4l-7.2-1.7c2.2-3.3 6.1-9.1 9.8-15 2.5-3.9 5.2-8.4 7.5-12.3l0.4-0.7c0.6 3.9 1.5 9.4 2.5 14.8 0.8 4.5 1.9 9.7 2.9 14.2l0.9 3.8-12.5-2.2c-1-1-2-1-3-1zm35 5c-1.9-0.2-3.8-0.4-5.8-0.7-1.1-0.1-2.1-0.3-3.2-0.4l-4.6-0.6h-0.2c1.9-3.2 5.5-9.3 8.8-15.3 2.6-4.7 5.1-9.5 6.8-12.9l0.2 0.8c1.1 4.2 2.4 9.1 3.5 13.3 1.8 6.5 3.8 13 5 16.6-1.7-0.1-3.4-0.3-5.2-0.4-2 0-4 0-6-1zm47 2l-15.7 0.4-15.2-0.4c0.4-0.9 1-2 1.5-3.3 1.9-4.2 4.1-9.1 5.8-13.4 3.3-7.8 6.3-15.7 7.3-18.5h0.4s0 0 0 0l3.8-0.1c1 2.8 4 10.8 7.2 18.6 1 2.5 2 4.9 3 7.2l4.2 9.3c0-1-1-1-2 0zm31-3c-0.5 0.1-1 0.1-1.5 0.2l-4.6 0.6c-1.1 0.1-2.1 0.3-3.2 0.4-2 0.3-3.9 0.5-5.8 0.7-1.8 0.1-3.6 0.3-5.4 0.4-0.7 0.1-1.3 0.1-2 0.2 1.1-3.8 3-10.6 4.7-17.3 1.4-5.4 2.6-10.9 3.5-14.8 1.8 3.5 4.3 8.5 7 13.4 2.4 4.5 5 9.1 7.1 12.7l2 3.4s-1 1-2 1zm30-6l-8.3 1.9c-0.5 0.1-1 0.2-1.6 0.4-0.9 0.2-1.8 0.4-2.8 0.6l-9.3 1.7c0.8-3.6 2.4-10.5 3.7-17.2 0.9-4.5 1.8-9.5 2.4-13.6l0.1-0.8c2 3.3 4.9 7.8 7.9 12.3 2.5 3.7 5.3 7.9 7.9 11.6 0.8 1.1 1.4 2 2 2.8-0.2 0.1-0.5 0.1-0.7 0.2h-1zm34-10l-1.8 0.6c-0.3 0.1-0.7 0.2-1 0.3l-8.8 3s-1.5 0.5-4 1.3l-10.5 3c0.5-3.9 1.3-11.1 1.9-18.1 0.4-4.6 0.8-9.8 1-14.4 0.1-1.9 0.2-3.6 0.2-4.8v-0.7c0.3-0.1 0.4-0.1 0.5-0.2l3.6-1.2 3.4 4.3c3.4 4.2 6.5 8 9.3 11.2 4.5 5.3 9.2 10.5 11.9 13.4l-6 3zm28-13c-0.4 0.2-0.9 0.4-1.3 0.6l-12.9 5.8-2.9 1.1-0.1-3.4c-0.2-4.5-0.4-9.4-0.8-14.5-0.4-5.6-0.9-11.2-1.3-15.2l0.5 0.5c2.6 2.6 6.4 6.4 10.3 10.1 5.2 4.9 10.7 9.8 13.6 12.3l-6 1zm30-16c-0.4 0.3-0.8 0.5-1.2 0.8-0.7 0.5-1.5 0.9-2.2 1.4l-11.6 6.7c-1.4 0.8-2.9 1.5-4.3 2.3l-0.3-3.7c-0.4-4.1-0.9-8.9-1.5-13.8-0.7-5.4-1.5-10.7-2.1-14.6l0.6 0.5c2.7 2.2 6.7 5.6 10.8 8.8 5.3 4.2 10.7 8.2 13.8 10.5l-4 1zm22-15l-3.5 2.5-3.5 2.5c-0.5 0.4-1.1 0.8-1.8 1.3-1.9 1.4-4.3 3.1-7.2 4.9l-0.7-3.6c-0.7-3.5-1.8-8.9-3.1-14.2-2-8.3-4.2-16.5-5-19.4l0.4-0.3 3.2-2.2c2.5 1.7 9.5 6.3 16.8 10.7 4 2.4 8.6 5.2 12.6 7.5 1.1 0.7 2.1 1.2 3 1.7l-10 8zm27-22c-1.8 1.7-3.4 3.3-5.2 4.8l-6 4c-1.4-3.7-3.8-10.3-6.4-16.7-2.3-5.8-4.5-10.8-5.5-13.3l-0.3-0.7c3.5 1.8 8.5 4.3 13.5 6.7 4.1 2 8.9 4.2 13.2 6 1.4 0.6 2.6 1.2 3.6 1.6l-8 7zm20-22c-1.4 1.7-3 3.4-4.7 5.2l-4.7 4.9c-1.5-3.4-4.3-9.9-7.2-16.1-1.9-4-4.1-8.5-6-12.4-0.1-0.2-0.2-0.5-0.4-0.7 3.6 1.4 8.5 3.4 13.6 5.3 4.1 1.5 8.9 3.3 13.2 4.7 1.2 0.4 2.3 0.8 3.2 1.1l-7 8zm24-30c-0.5 0.7-0.9 1.3-1.3 1.8l-2.5 3.5-2.5 3.4-6.8 8.6c-1.9-3.4-5.5-9.7-9.1-15.8-2.4-4-5.2-8.4-7.6-12.2-0.8-1.3-1.6-2.4-2.2-3.3l-0.9-1.3 0.3-0.4 2.2-3.1 5.3 1.5 6.6 1.8c2.1 0.5 4.5 1.1 7.5 1.9 6.7 1.6 13.6 3.1 17.5 3.9l-1.5 2.3c-2 2-4 4-5 6zm21-34c-0.9 1.8-1.8 3.6-2.8 5.3l-6.7 11.7c-0.4 0.8-0.9 1.5-1.4 2.2-0.1 0.1-0.1 0.2-0.2 0.3l-2.1-2.7c-2.2-2.8-5.5-7-9.1-11.3s-7.3-8.6-10-11.6l0.7 0.1c5.5 0.9 10.1 1.6 14.2 2.1 7.1 0.9 14.4 1.6 18.2 2 0 2-1 2-1 3zm5-10c-0.2 0.4-0.4 0.9-0.6 1.3l-1.2 2.3-2.4-2.8c-3.4-3.9-6.5-7.3-9.4-10.3-3.7-4-7.5-7.8-10.2-10.5l0.8 0.1c5.4 0.4 9.9 0.7 13.9 0.8 6.7 0.3 13.5 0.4 17.3 0.4l-2.3 5.8-7 13zm13-30c-0.1 0.3-0.2 0.7-0.3 1l-0.6 1.8-1.1 2.8-2.7-2.5-4.4-4-3.4-3-3-2.6c-6.5-5.6-13.1-10.9-15.4-12.7l0.1-0.4c0-0.1 0.5-1.4 1.2-3.7 3-0.1 11.4-0.5 19.9-1.2 4.6-0.4 10-0.9 14.6-1.4 1.3-0.1 2.4-0.3 3.4-0.4l-3.8 13.5c-0.8 2.6-1.3 4-1.4 4.1l-4 8z"/>
	</g>
		<path id="Capsules" fill="#536266" d="m418 34.6c-2.2 10.3-11.7 17-21.2 15s-15.5-12-13.3-22.3 11.7-17 21.2-15c9 2 15 12 13 22.3zm-88-22.7c-9.8 0-17.7 8.5-17.7 19.1s8 19 18 19c9.8 0 17.7-8.5 17.7-19.1s-8-19-18-19zm-73 15.1c-9.5 2-15.5 12-13.3 22.3s11.7 17 21.2 15c9.5-2 15.5-12 13.3-22.3s-12-17.1-21-15zm-68 29.9c-8.9 4-12.7 15-8.4 24.6s15 14.2 23.9 10.2 12.7-15 8.4-24.6c-5-9.6-15-14.2-24-10.2zm-61 43.1c-7.9 5.7-9.3 17.3-3.1 25.8s17.6 10.8 25.5 5c7.9-5.7 9.3-17.3 3.1-25.8-6-8.2-17-10.4-25-5zm-50.1 55c-6.5 7.2-5.5 18.8 2.3 25.9 7.8 7 19.4 6.9 26-0.4s5.5-18.8-2.3-25.9c-7.9-7-19.6-7-26.1 0zm-37.6 65c-4.9 8.4-1.4 19.6 7.7 24.8 9.1 5.3 20.5 2.7 25.3-5.8 4.9-8.4 1.4-19.6-7.7-24.8-9.1-5-20.4-3-25.3 6zm-23.4 70c-3 9.3 2.7 19.4 12.7 22.7s20.6-1.6 23.6-10.9c3-9.3-2.7-19.4-12.7-22.7s-20.6 2-23.6 11zm-8.2 74c-1 9.7 6.6 18.5 17.1 19.6s19.8-5.9 20.8-15.6-6.6-18.5-17.1-19.6c-10.5 0-19.8 7-20.8 16zm7.4 74c1 9.7 10.3 16.7 20.8 15.6 10.4-1 18.1-10 17.1-20-1-9.7-10.3-16.7-20.8-15.6-10.5 2-18.1 11-17.1 20zm22.6 72c3 9.3 13.6 14.2 23.6 10.9s15.7-13.4 12.7-22.7-13.6-14.2-23.6-10.9-15.7 13-12.7 23zm36.9 64c4.9 8.4 16.2 11 25.3 5.8s12.5-16.4 7.7-24.8-16.2-11-25.3-5.8-13 17-8.1 25zm49.4 56c6.5 7.2 18.2 7.4 26 0.4s8.9-18.6 2.3-25.9-18.2-7.4-26-0.4c-7 7-8 19-2 26zm60 44c7.9 5.7 19.3 3.5 25.5-5s4.8-20.1-3.1-25.8-19.3-3.5-25.5 5c-6 9-5 20 3 26zm68 31c8.9 4 19.6-0.6 23.9-10.2s0.5-20.6-8.4-24.6-19.6 0.6-23.9 10.2c-5 10-1 21 8 25zm73 15c9.5 2 19-4.7 21.2-15s-3.8-20.3-13.3-22.3c-9.5-2-19 4.7-21.2 15-3 10 3 20 13 22zm74 1c9.8 0 17.7-8.5 17.7-19.1 0-10.5-7.9-19.1-17.7-19.1s-17.7 8.5-17.7 19.1c1 10 8 19 18 19zm73-15c9.5-2 15.5-12 13.3-22.3s-11.7-17-21.2-15c-9.5 2-15.5 12-13.3 22.3s12 17 21 15zm68-30c8.9-4 12.7-15 8.4-24.6s-15-14.2-23.9-10.2-12.7 15-8.4 24.6c5 9 15 14 24 10zm61-44c7.9-5.7 9.3-17.3 3.1-25.8s-17.6-10.8-25.5-5-9.3 17.3-3.1 25.8c6 9 17 11 25 5zm50-55c6.5-7.2 5.5-18.8-2.3-25.9-7.8-7-19.4-6.9-26 0.4s-5.5 18.8 2.3 25.9c8 8 20 8 26 0zm38-64c4.9-8.4 1.4-19.6-7.7-24.8-9.1-5.3-20.5-2.7-25.3 5.8-4.9 8.4-1.4 19.6 7.7 24.8s20 3 25-6zm23-71c3-9.3-2.7-19.4-12.7-22.7s-20.6 1.6-23.6 10.9 2.7 19.4 12.7 22.7c10 4 21-1 24-11zm8-74c1-9.7-6.6-18.5-17.1-19.6s-19.8 5.9-20.8 15.6 6.6 18.5 17.1 19.6c11 1 20-6 21-16zm-7-74c-1-9.7-10.3-16.7-20.8-15.6s-18.1 9.9-17.1 19.6 10.3 16.7 20.8 15.6c10-1 18-10 17-20zm-23-71c-3-9.3-13.6-14.2-23.6-10.9s-15 14-12 23 13.6 14.2 23.6 10.9 15-13 12-23zm-37-64c-4.9-8.4-16.2-11-25.3-5.8-9.1 5.3-12.5 16.4-7.7 24.8 4.9 8.4 16.2 11 25.3 5.8 10-6 13-17 8-25zm-49-56c-6.5-7.2-18.2-7.4-26-0.4s-8.9 18.6-2.3 25.9c6.5 7.2 18.2 7.4 26 0.4 7-7 8-19 2-26zm-60-44.1c-7.9-5.7-19.3-3.5-25.5 5s-4.8 20.1 3.1 25.8 19.3 3.5 25.5-5c6-8.5 5-20.1-3-25.8zm-68-30.7c-8.9-4-19.6 0.6-23.9 10.2s-1 20.6 8 24.6c8.9 4 19.6-0.6 23.9-10.2s1-20.6-8-24.6zm-147-16.3c-9.8 0-17.7 8.5-17.7 19.1s8 19 18 19c9.8 0 17.7-8.5 17.7-19.1s-8-19-18-19z"/>
	</g>
</svg>
