<svg version="1.1" id="London" xmlns="http://www.w3.org/2000/svg" xmlns:xlink="http://www.w3.org/1999/xlink" x="0px" y="0px" viewBox="0 0 730 740" style="enable-background:new 0 0 730 740;" xml:space="preserve">
<g id="Rotating">
	<g id="Circle">
		<path id="Support_Wires" style="fill:#536266;" d="M645.3,362.3v-1H394.4l249.9-14.5l-0.1-1l-267.1,15.5h-6.8l5-2.4L623,255.3
			l-0.4-0.9l-228.2,95.5l223.1-106.1l-0.4-0.9L374.9,358l-5.3,2.2l9.9-11.2l182.8-181.8l-0.7-0.7L390.3,337l161.1-181.6l-0.7-0.7
			L378.9,348.4l-9.6,9.5l10.2-28.8L469.3,108l-0.9-0.4l-81.8,201.3l72.5-205.5l-0.9-0.3l-79.6,225.7l-12.2,30.1V87.3h-1V354
			L349.9,87.9l-1,0.1l15.5,267.7l-11.1-23.4l-94.8-226.2l-0.9,0.4L344.1,313l-96.6-203.3l-0.9,0.4l105.8,222.6l10.7,25.5l-4.4-3.9
			L168.8,163.7l-0.7,0.7l178.5,179.3L158,176.6l-0.7,0.7L357.9,355l4.9,5l-8.4-3L106.7,256.5l-0.4,0.9l227.8,92.4l-230.2-81.2
			l-0.3,0.9L354.1,358l8.3,3.4H86.3v1h273.6l-276.4,16l0.1,1l279.1-16.2L103.6,471.6l0.4,0.9l252-105.5L110.8,483.7l0.4,0.9
			l250.5-119.1L164.3,561.8l0.7,0.7l198.9-197.9l-0.4,1l-185,208.5l0.7,0.7l183.1-206.4L258.3,624.6l0.9,0.4l105.1-258.8l0.6-0.6
			l0.1,1.4l-92.5,262.3l0.9,0.3l91.7-260.1l0.1,1.7v274.1h1V388.5L381.2,646l1-0.1l-15.9-274.8v-4.8l0.1-0.2L474.8,625l0.9-0.4
			L366.9,364.8l0.2-0.6l0.5,0.5l120.5,253.6l0.9-0.4l-119.3-251l195,195.9l0.7-0.7L369.9,365.7L575.7,548l0.7-0.7L370.1,364.4
			l256.5,104.1l0.4-0.9L374.5,365.2l256.2,90.4l0.3-0.9l-260.5-91.9l6.6-0.4H645.3z M367.7,359.5l-0.9,0.9l4.7-11.5L367.7,359.5z
			 M364.5,358.4l0.1,1l-3.1-7.4L364.5,358.4z"/>
		<path id="Main_Circle" style="fill:#FFFFFF;" d="M688.2,366.4l-0.4-15.8c-0.1-1.5-0.2-3.1-0.3-4.7c0.2-0.3,0.2-0.7,0.2-1
			c0-0.4-0.2-0.7-0.4-1c-0.1-1.3-0.2-2.6-0.3-4c-0.1-1.7-0.3-3.5-0.4-5.4c-0.2-2-0.4-4-0.7-5.9c-0.1-1-0.3-2.1-0.4-3.2l-0.6-4.7
			c-0.1-0.5-0.1-1-0.2-1.4c-0.1-1.1-0.3-2.2-0.5-3.3l-2.5-13.8c-0.2-1-0.4-2-0.6-3c-0.1-0.5-0.2-1-0.3-1.5l-2.2-9.6
			c-0.2-0.9-0.4-1.7-0.6-2.6l-0.3-1c0,0,0,0,0,0c0,0,0,0,0,0l-3.8-13.5c-0.9-2.7-1.4-4.2-1.4-4.2c0,0,0,0,0,0l-1.4-4.1
			c0,0,0-0.1,0-0.1l-1.6-4.6c-0.1-0.3-0.2-0.6-0.3-1c-0.2-0.6-0.4-1.3-0.7-2l-3-7.5c0.1-0.4,0-0.8-0.1-1.1c-0.1-0.3-0.4-0.6-0.7-0.8
			l-1.9-4.7l-5.9-13c-0.2-0.5-0.4-1-0.7-1.5L653,220c-0.5-1-1-1.9-1.5-2.9c-0.9-1.8-1.9-3.7-2.9-5.5l-6.7-11.6
			c-0.5-0.9-1-1.6-1.5-2.4c-0.3-0.4-0.5-0.8-0.8-1.2L637,192c0,0,0,0,0,0c0,0,0,0,0,0l-1.3-2.1c-1.9-3.1-3.8-5.7-5.2-7.8
			c-0.5-0.6-0.9-1.2-1.3-1.8l-2.5-3.5c0,0,0,0,0,0c0,0,0,0,0,0l-2.6-3.6l-9.4-11.9l-0.7-0.8c-0.1-0.3-0.2-0.7-0.4-1
			c-0.2-0.3-0.6-0.5-0.9-0.6l-6.1-7c-1.5-1.8-3.3-3.6-4.9-5.4l-7.9-8.3l-8.2-7.8c-1.7-1.7-3.5-3.4-5.3-4.9l-8.8-7.6l-1.4-1.1
			c0-0.1-0.1-0.1-0.1-0.2c-0.1-0.1-0.2-0.1-0.2-0.1l-10.8-8.6l-3.5-2.5c0,0,0,0,0,0c0,0,0,0,0,0l-3.5-2.5c-0.5-0.4-1.1-0.8-1.8-1.2
			c-2.1-1.5-4.6-3.3-7.7-5.2l-4-2.5c-0.2-0.3-0.4-0.6-0.7-0.8c-0.3-0.2-0.6-0.3-1-0.3l-0.7-0.5c-0.4-0.2-0.8-0.5-1.2-0.8
			c-0.8-0.5-1.6-1-2.4-1.5l-11.7-6.7c-1.8-1-3.7-2-5.5-2.9c-1-0.5-1.9-1-2.9-1.5l-6.3-3.2c-0.5-0.2-1-0.5-1.4-0.7l-13.1-5.9
			l-8.6-3.4c0,0,0,0,0,0c0,0,0,0,0,0l-5.5-2.2c-0.7-0.3-1.4-0.5-2-0.7c-0.3-0.1-0.6-0.2-1-0.3l-8.8-3c0,0,0,0,0,0
			c-0.1,0-1.6-0.6-4.2-1.4l-14.6-4.1c-0.3-0.1-0.7-0.2-1-0.2c-0.3-0.2-0.6-0.4-0.9-0.5c-0.4-0.1-0.7-0.1-1.1,0.1
			c-0.3-0.1-0.5-0.1-0.8-0.2l-8.3-1.9c-0.5-0.1-1-0.2-1.5-0.3c-1-0.2-1.9-0.5-3-0.6l-13.7-2.5c-1.1-0.2-2.3-0.4-3.3-0.5
			c-0.5-0.1-1-0.1-1.5-0.2l-4.7-0.6c-1.1-0.1-2.1-0.3-3.1-0.4c-2-0.3-4-0.5-6-0.7c-1.8-0.1-3.6-0.3-5.4-0.4
			c-2.8-0.2-5.5-0.4-8.1-0.6c0,0,0,0-0.1,0c0,0,0,0-0.1,0c-0.9-0.1-1.7-0.1-2.6-0.2l-15.7-0.4c0,0,0,0-0.1,0c0,0,0,0,0,0l-15.8,0.4
			c-1.5,0.1-3.1,0.2-4.7,0.3c-0.3-0.2-0.7-0.3-1-0.2c-0.4,0-0.7,0.2-1,0.4c-1.3,0.1-2.6,0.2-3.9,0.3c-1.7,0.1-3.5,0.3-5.4,0.4
			c-2,0.2-4,0.4-5.9,0.7c-1,0.1-2.1,0.3-3.2,0.4l-4.7,0.6c-0.5,0.1-1,0.1-1.4,0.2c-1.1,0.1-2.2,0.3-3.3,0.5l-13.8,2.5
			c-1,0.2-2,0.4-3,0.6c-0.5,0.1-1,0.2-1.5,0.3l-8.3,1.9c-0.5,0.1-0.9,0.2-1.3,0.3c-0.9,0.2-1.7,0.4-2.6,0.6l-1,0.3c0,0,0,0,0,0
			c0,0,0,0,0,0l-13.5,3.8c-2.5,0.8-4,1.3-4.1,1.4c0,0,0,0,0,0l-8.8,3c-0.3,0.1-0.6,0.2-0.9,0.3c-0.6,0.2-1.3,0.4-2,0.7l-7.5,3
			c-0.4-0.1-0.8,0-1.1,0.1c-0.3,0.1-0.6,0.4-0.8,0.7l-4.7,1.9l-13,5.9c-0.5,0.2-1,0.4-1.5,0.7l-6.3,3.2c-1,0.5-1.9,1-2.9,1.5
			c-1.8,0.9-3.7,1.9-5.5,2.9l-11.6,6.7c-0.9,0.5-1.6,1-2.4,1.5c-0.4,0.3-0.8,0.5-1.2,0.8l-4.3,2.7c0,0,0,0,0,0c0,0,0,0,0,0l-2.1,1.4
			c-3.1,1.9-5.7,3.8-7.8,5.2c-0.6,0.5-1.2,0.9-1.8,1.3l-3.5,2.5c0,0,0,0,0,0s0,0,0,0l-3.6,2.6l-11.9,9.4l-0.8,0.7
			c-0.3,0.1-0.7,0.2-1,0.4c-0.3,0.3-0.5,0.6-0.6,0.9l-7,6.1c-1.8,1.5-3.6,3.3-5.4,4.9l-8.3,7.9l-7.8,8.2c-1.7,1.7-3.4,3.5-4.9,5.3
			l-8.2,9.5l-0.7,0.8c0,0,0,0,0,0c0,0,0,0,0,0l-8.7,11.1l-2.5,3.5c0,0,0,0,0,0c0,0,0,0,0,0l-2.5,3.5c-0.4,0.5-0.8,1.1-1.2,1.8
			c-1.5,2.1-3.3,4.6-5.2,7.7l-2.5,4c-0.3,0.2-0.6,0.4-0.8,0.7c-0.2,0.3-0.3,0.6-0.3,1l-0.5,0.7c-0.2,0.4-0.5,0.8-0.8,1.2
			c-0.5,0.8-1,1.6-1.5,2.4l-6.7,11.7c-1,1.8-2,3.7-2.9,5.5c-0.5,1-1,1.9-1.5,2.9l-3.2,6.3c-0.2,0.5-0.5,1-0.7,1.4l-5.9,13.1
			l-3.4,8.6c0,0,0,0,0,0c0,0,0,0,0,0l-2.2,5.5c-0.3,0.7-0.5,1.4-0.7,2c-0.1,0.3-0.2,0.6-0.3,1l-3,8.8c0,0,0,0,0,0
			c0,0.1-0.6,1.6-1.4,4.2l-4.1,14.6c-0.1,0.3-0.2,0.7-0.2,1c-0.3,0.3-0.4,0.6-0.5,0.9c-0.1,0.4-0.1,0.7,0.1,1.1
			c-0.1,0.3-0.1,0.5-0.2,0.8l-1.9,8.3c-0.1,0.5-0.2,1-0.3,1.5c-0.2,1-0.5,1.9-0.6,3L47,315.9c-0.2,1.1-0.4,2.3-0.5,3.3
			c-0.1,0.5-0.1,1-0.2,1.5l-0.6,4.7c-0.1,1.1-0.3,2.1-0.4,3.1c-0.3,2-0.5,4-0.7,6c-0.1,1.8-0.3,3.6-0.4,5.4
			c-0.2,2.8-0.4,5.5-0.6,8.1c0,0,0,0,0,0.1c0,0,0,0,0,0.1c-0.1,0.9-0.1,1.7-0.2,2.6l-0.4,15.7c0,0,0,0,0,0.1s0,0,0,0.1l0.4,15.8
			c0.1,1.5,0.2,3.1,0.3,4.7c-0.2,0.3-0.2,0.7-0.2,1c0,0.4,0.2,0.7,0.4,1c0.1,1.3,0.2,2.6,0.3,3.9c0.1,1.8,0.3,3.6,0.4,5.4
			c0.2,2,0.4,4,0.7,5.9c0.1,1,0.3,2.1,0.4,3.2l0.6,4.7c0.1,0.5,0.1,1,0.2,1.4c0.1,1.1,0.3,2.2,0.5,3.3l2.5,13.8c0.2,1,0.4,2,0.6,3
			c0.1,0.5,0.2,1,0.3,1.5l1.9,8.3c0.1,0.5,0.2,0.9,0.3,1.3c0.2,0.9,0.4,1.7,0.6,2.6l0.3,1c0,0,0,0,0,0c0,0,0,0,0,0l3.8,13.5
			c0.8,2.5,1.3,4,1.4,4.1c0,0,0,0,0,0l3,8.8c0.1,0.3,0.2,0.6,0.3,0.9c0.2,0.6,0.4,1.3,0.7,2l3,7.5c-0.1,0.4,0,0.8,0.1,1.1
			c0.1,0.3,0.4,0.6,0.7,0.8l1.9,4.7l5.9,13c0.2,0.5,0.4,1,0.7,1.5l3.2,6.3c0.5,1,1,1.9,1.5,2.9c0.9,1.8,1.9,3.7,2.9,5.5l6.7,11.6
			c0.5,0.9,1,1.7,1.5,2.4c0.3,0.4,0.5,0.8,0.8,1.2l2.7,4.3c0,0,0,0,0,0c0,0,0,0,0,0l1.4,2.1c1.9,3.1,3.8,5.7,5.2,7.8
			c0.5,0.6,0.9,1.2,1.3,1.8l2.5,3.5c0,0,0,0,0,0c0,0,0,0,0,0l2.6,3.6l9.4,11.9l0.7,0.8c0.1,0.4,0.2,0.7,0.4,1
			c0.3,0.3,0.6,0.5,0.9,0.6l6.1,7c1.5,1.8,3.2,3.6,4.9,5.4l7.9,8.3l8.2,7.8c1.7,1.7,3.5,3.4,5.4,4.9l8.8,7.6l1.4,1.1
			c0,0,0.1,0.1,0.1,0.1c0.1,0.1,0.2,0.2,0.3,0.2l10.7,8.5l3.5,2.5c0,0,0,0,0,0c0,0,0,0,0,0l3.5,2.5c0.5,0.4,1.1,0.8,1.8,1.2
			c2.1,1.5,4.6,3.3,7.7,5.2l4,2.5c0.2,0.3,0.4,0.6,0.7,0.8c0.3,0.2,0.6,0.3,1,0.3l0.7,0.5c0.4,0.2,0.8,0.5,1.2,0.8
			c0.8,0.5,1.6,1,2.4,1.5l11.7,6.7c1.8,1,3.7,2,5.5,2.9c1,0.5,1.9,1,2.9,1.5l6.3,3.2c0.5,0.2,1,0.5,1.4,0.7l13.1,5.9l8.6,3.4
			c0,0,0,0,0,0c0,0,0,0,0.1,0l5.5,2.2c0.7,0.3,1.4,0.5,2,0.7c0.3,0.1,0.6,0.2,1,0.3l4.6,1.6c0,0,0.1,0,0.1,0l4.1,1.4c0,0,0,0,0,0
			c0,0,1.5,0.5,4.2,1.4l14.6,4.1c0.3,0.1,0.7,0.2,1,0.2c0.3,0.3,0.6,0.4,0.9,0.5c0.4,0.1,0.7,0.1,1.1-0.1l9.1,2.1
			c0.5,0.1,1,0.2,1.5,0.3c1,0.2,1.9,0.5,3,0.6l13.7,2.5c1.1,0.2,2.3,0.4,3.4,0.5c0.5,0.1,1,0.1,1.5,0.2l4.7,0.6
			c1.1,0.1,2.1,0.3,3.1,0.4c2,0.3,4,0.5,6,0.7c1.8,0.1,3.6,0.3,5.3,0.4c2.8,0.2,5.6,0.4,8.2,0.6c0,0,0,0,0.1,0c0,0,0.1,0,0.1,0
			c0,0,0,0,0,0c0.8,0.1,1.7,0.1,2.5,0.2l15.7,0.4c0,0,0,0,0,0c0,0,0,0,0,0c0,0,0,0,0,0s0,0,0,0c0,0,0,0,0,0c0,0,0,0,0,0l15.8-0.4
			c1.5-0.1,3.1-0.2,4.8-0.3c0.3,0.1,0.6,0.2,0.9,0.2c0,0,0.1,0,0.1,0c0.4,0,0.7-0.2,1-0.4c1.3-0.1,2.6-0.2,4-0.3
			c1.7-0.1,3.5-0.3,5.4-0.4c2-0.2,4-0.4,5.9-0.7c1-0.1,2.1-0.3,3.2-0.4l4.7-0.6c0.5-0.1,1-0.1,1.4-0.2c1.1-0.1,2.2-0.3,3.3-0.5
			l13.8-2.5c1-0.2,2-0.4,3-0.6c0.5-0.1,1-0.2,1.5-0.3l9.6-2.2c0.9-0.2,1.7-0.4,2.6-0.6l1-0.3c0,0,0,0,0,0c0,0,0,0,0,0l13.5-3.8
			c2.7-0.9,4.2-1.4,4.2-1.4c0,0,0,0,0,0l8.8-3c0.3-0.1,0.6-0.2,0.9-0.3c0.6-0.2,1.3-0.4,2-0.7l7.5-3c0.1,0,0.2,0,0.4,0
			c0.3,0,0.5,0,0.8-0.2c0.3-0.1,0.6-0.4,0.8-0.7l4.7-1.9l13-5.9c0.5-0.2,1-0.4,1.5-0.7l6.3-3.2c1-0.5,1.9-1,2.9-1.5
			c1.8-0.9,3.7-1.9,5.5-2.9l11.6-6.7c0.9-0.5,1.7-1,2.4-1.5c0.4-0.3,0.8-0.5,1.2-0.8l4.3-2.7c0,0,0,0,0,0c0,0,0,0,0,0l2.1-1.3
			c3.1-1.9,5.7-3.8,7.8-5.2c0.6-0.5,1.2-0.9,1.8-1.3l3.5-2.5c0,0,0,0,0,0s0,0,0,0l3.6-2.6l11.9-9.4l0.8-0.7c0.4-0.1,0.7-0.2,1-0.4
			c0.3-0.3,0.5-0.6,0.6-0.9l7-6.1c1.8-1.5,3.6-3.2,5.4-4.9l8.3-7.9l7.8-8.2c1.7-1.7,3.4-3.5,4.9-5.3l8.2-9.5l0.7-0.9c0,0,0,0,0,0
			c0,0,0,0,0,0l8.7-11.1l2.5-3.5c0,0,0,0,0,0c0,0,0,0,0,0l2.5-3.5c0.4-0.5,0.8-1.1,1.3-1.8c1.5-2.1,3.3-4.6,5.2-7.7l2.5-4
			c0.3-0.2,0.6-0.4,0.8-0.7c0.2-0.3,0.3-0.7,0.3-1l0.5-0.7c0.2-0.4,0.5-0.8,0.8-1.2c0.5-0.8,1-1.6,1.5-2.4l6.7-11.7
			c1-1.8,2-3.7,2.9-5.5c0.5-1,1-1.9,1.5-2.9l3.2-6.3c0.2-0.5,0.5-1,0.7-1.4l5.9-13.1l3.4-8.6c0,0,0,0,0,0c0,0,0,0,0,0l2.2-5.5
			c0.3-0.7,0.5-1.4,0.7-2c0.1-0.3,0.2-0.6,0.3-1l3-8.8c0,0,0,0,0,0c0,0,0.5-1.5,1.4-4.2l4.1-14.6c0.1-0.3,0.2-0.7,0.2-1
			c0.3-0.3,0.4-0.6,0.5-0.9c0.1-0.4,0.1-0.7-0.1-1.1l2.1-9.1c0.1-0.5,0.2-1,0.3-1.5c0.2-1,0.5-1.9,0.6-3l2.5-13.7
			c0.2-1.1,0.4-2.3,0.5-3.4c0.1-0.5,0.1-1,0.2-1.5l0.6-4.7c0.1-1.1,0.3-2.1,0.4-3.1c0.3-2,0.5-4,0.7-6c0.1-1.8,0.3-3.6,0.4-5.3
			c0.2-2.8,0.4-5.6,0.6-8.1c0,0,0,0,0-0.1c0,0,0,0,0-0.1c0.1-0.9,0.1-1.7,0.2-2.6l0.4-15.7C688.2,366.4,688.2,366.4,688.2,366.4
			C688.2,366.4,688.2,366.4,688.2,366.4z M683.1,392.7c-0.1,1.7-0.3,3.5-0.4,5.3c-0.2,1.9-0.4,3.8-0.7,5.8c-0.1,1.1-0.3,2.1-0.4,3.2
			l-0.6,4.6c0,0.1,0,0.1,0,0.2c-3.2-1.9-9.3-5.5-15.3-8.8c-4.7-2.6-9.5-5.1-12.9-6.8l0.8-0.2c4.2-1.1,9.1-2.3,13.3-3.5
			c6.5-1.8,13-3.8,16.6-5C683.3,389.2,683.2,390.9,683.1,392.7z M677.9,430c-0.2,0.9-0.4,1.9-0.6,2.8c-0.1,0.5-0.2,1-0.4,1.5
			l-1.7,7.2c-3.3-2.2-9.1-6.1-15-9.8c-3.9-2.4-8.4-5.2-12.3-7.5l-0.7-0.4c3.9-0.6,9.4-1.5,14.8-2.5c4.5-0.8,9.7-1.9,14.2-2.9
			l3.8-0.9L677.9,430z M482.1,643.4c0.4,5,0.6,9.9,0.7,14.3l0,1.2c-2.7-3-6.7-7.4-10.4-11.7c-2.8-3.2-5.8-6.9-9.2-11.1l-2.5-3.2
			l0.1,0c0.3-0.1,0.5-0.2,0.8-0.3c0.6-0.2,1.2-0.4,1.8-0.6l12.4-4.9c0,0,0.1,0,0.1,0l4.5-2.1C480.8,628.7,481.6,636,482.1,643.4z
			 M505.6,612.3c0.5,2.7,1.8,10.7,2.8,18.9c0.6,4.9,1.1,9.7,1.5,13.7l0.1,1.4c-3-2.7-7.5-6.6-11.7-10.7c-3.8-3.6-7.7-7.4-10.2-10
			l-2.8-2.8l1.9-0.9c0.4-0.2,0.8-0.4,1.3-0.6l5.5-2.8c0.9-0.5,1.8-0.9,2.7-1.4c1.6-0.8,3.2-1.6,4.7-2.5L505.6,612.3z M509.4,610.1
			l2.3-1.3c0.8-0.4,1.5-0.9,2.1-1.3c0.3-0.2,0.7-0.5,1.1-0.7l5.6-3.6c2.7-1.7,4.9-3.3,6.7-4.6c0.3-0.2,0.6-0.4,0.9-0.6
			c1,3.6,2.9,10.7,4.6,17.8c1.3,5.3,2.3,10.5,3.1,14l0.3,1.5c-3.1-2.3-7.6-5.7-11.9-9.1c-4-3.2-8-6.5-10.7-8.7L509.4,610.1z
			 M532.7,589.9l-3.1,2.2c0,0,0,0,0,0l-3.1,2.2c-0.5,0.4-1.1,0.8-1.7,1.2c-1.7,1.3-3.9,2.8-6.5,4.4l-5.6,3.6
			c-0.4,0.2-0.7,0.5-1.1,0.7c-0.6,0.4-1.3,0.8-1.9,1.2l-10.2,5.9c-1.5,0.8-3,1.6-4.5,2.4c-0.9,0.5-1.8,0.9-2.7,1.4l-5.5,2.8
			c-0.4,0.2-0.7,0.3-1.1,0.5c-0.2,0.1-0.5,0.2-0.7,0.3l-10.7,4.8l-12.3,4.9c-0.5,0.2-1,0.4-1.5,0.5c-0.3,0.1-0.6,0.2-0.9,0.3
			l-7.7,2.6c0,0,0,0,0,0c0,0,0,0,0,0c0,0-1.3,0.5-3.5,1.2l-12.7,3.6c-0.7,0.2-1.4,0.3-2.1,0.5c-0.4,0.1-0.8,0.2-1.2,0.3l-7.2,1.7
			c-0.5,0.1-0.9,0.2-1.4,0.3c-0.8,0.2-1.6,0.4-2.4,0.5l-12.1,2.2c-0.8,0.2-1.7,0.3-2.6,0.4c-0.4,0.1-0.9,0.1-1.3,0.2l-4.1,0.5
			c-1,0.1-2,0.2-3,0.4c-1.7,0.2-3.3,0.4-4.9,0.6c-2.1,0.1-4.1,0.3-6.1,0.5c-2.9,0.2-5.6,0.4-7.9,0.6l-13.8,0.3L352,645
			c-2.4-0.1-5.2-0.4-8-0.6c-2-0.2-4-0.3-6-0.5c-1.6-0.1-3.2-0.4-4.9-0.6c-1-0.1-2-0.3-2.9-0.4l-4-0.5c-0.4-0.1-0.9-0.1-1.3-0.2
			c-0.9-0.1-1.8-0.2-2.7-0.4l-12.1-2.2c-0.8-0.1-1.6-0.3-2.4-0.5c-0.5-0.1-0.9-0.2-1.4-0.3l-7.3-1.7c-0.4-0.1-0.8-0.2-1.2-0.3
			c-0.7-0.2-1.4-0.3-2-0.5l-12.6-3.6c-2.2-0.7-3.5-1.2-3.5-1.2c0,0,0,0,0,0c0,0,0,0,0,0l-7.7-2.6c-0.3-0.1-0.6-0.2-0.9-0.3
			c-0.5-0.2-1-0.3-1.6-0.5l-12.3-4.9l-10.7-4.8c-0.2-0.1-0.5-0.2-0.7-0.3c-0.4-0.2-0.7-0.3-1.1-0.5L239,615
			c-0.9-0.5-1.8-0.9-2.7-1.4c-1.5-0.8-3.1-1.6-4.5-2.4l-10.2-5.9c-0.6-0.4-1.2-0.8-1.9-1.2c-0.4-0.2-0.7-0.5-1.1-0.7l-5.7-3.6
			c-2.6-1.6-4.8-3.1-6.5-4.4c-0.6-0.4-1.2-0.8-1.6-1.2l-3.1-2.2c0,0,0,0,0,0l-3-2.1l-10.3-8.1l-8.3-7.2c-1.5-1.2-2.9-2.6-4.4-4
			c-0.4-0.4-0.9-0.9-1.3-1.3l-5.9-5.6l-5.7-6c-0.4-0.4-0.9-0.9-1.3-1.3c-1.4-1.5-2.8-2.9-4.1-4.5l-7.1-8.2l-8.1-10.3l-2.2-3.1
			c0,0,0,0,0,0l-2.2-3.1c-0.4-0.5-0.7-1.1-1.2-1.7c-1.3-1.7-2.8-3.9-4.4-6.5l-3.6-5.6c-0.2-0.4-0.5-0.7-0.7-1.1
			c-0.4-0.6-0.8-1.3-1.2-1.9l-5.9-10.2c-0.8-1.5-1.6-3-2.4-4.5c-0.5-0.9-0.9-1.8-1.4-2.7l-2.8-5.5c-0.2-0.4-0.3-0.7-0.5-1.1
			c-0.1-0.2-0.2-0.5-0.3-0.7l-4.8-10.7l-4.9-12.3c-0.2-0.5-0.4-1-0.5-1.5c-0.1-0.3-0.2-0.6-0.3-0.9l-2.6-7.7c0,0,0,0,0,0
			c0,0,0,0,0,0c0,0-0.5-1.3-1.2-3.5l-3.6-12.7c-0.2-0.7-0.3-1.4-0.5-2.1c-0.1-0.4-0.2-0.8-0.3-1.2l-1.7-7.2
			c-0.1-0.5-0.2-0.9-0.3-1.4c-0.2-0.8-0.4-1.6-0.5-2.4L90.1,410c-0.2-0.8-0.3-1.7-0.4-2.6c-0.1-0.5-0.1-0.9-0.2-1.3L89,402
			c-0.1-1-0.2-2-0.4-3c-0.2-1.7-0.4-3.3-0.6-4.9c-0.1-2.1-0.3-4.1-0.5-6.1c-0.2-2.9-0.4-5.6-0.6-8l-0.3-13.8l0.3-13.7
			c0.1-2.5,0.4-5.2,0.6-8c0.2-1.9,0.3-4,0.5-6c0.1-1.6,0.4-3.2,0.6-4.9c0.1-1,0.3-2,0.4-2.9l0.5-4c0.1-0.4,0.1-0.9,0.2-1.3
			c0.1-0.9,0.2-1.8,0.4-2.7l2.2-12.1c0.1-0.8,0.3-1.6,0.5-2.4c0.1-0.5,0.2-0.9,0.3-1.4l1.7-7.3c0.1-0.4,0.2-0.8,0.3-1.2
			c0.2-0.7,0.3-1.4,0.5-2l3.6-12.6c0.7-2.2,1.2-3.5,1.2-3.5c0,0,0,0,0,0c0,0,0,0,0,0l2.6-7.7c0.1-0.3,0.2-0.6,0.3-0.9
			c0.2-0.5,0.3-1,0.5-1.6l4.9-12.3l4.8-10.7c0.1-0.2,0.2-0.5,0.3-0.7c0.2-0.4,0.3-0.7,0.5-1.1l2.8-5.5c0.5-0.9,0.9-1.8,1.4-2.7
			c0.8-1.5,1.6-3.1,2.4-4.5l5.9-10.2c0.4-0.6,0.8-1.2,1.2-1.9c0.2-0.4,0.5-0.7,0.7-1.1l3.6-5.7c1.6-2.6,3.1-4.8,4.4-6.5
			c0.4-0.6,0.8-1.2,1.2-1.6l2.2-3.1c0,0,0,0,0,0l2.1-3l8.1-10.3l7.2-8.3c1.2-1.5,2.6-2.9,4-4.4c0.4-0.4,0.9-0.9,1.3-1.3l5.6-5.9
			l6-5.7c0.4-0.4,0.9-0.9,1.3-1.3c1.5-1.4,2.9-2.8,4.5-4.1l8.2-7.1l10.3-8.1l3.1-2.2c0,0,0,0,0,0l3.1-2.2c0.5-0.4,1.1-0.7,1.7-1.2
			c1.7-1.3,3.9-2.8,6.5-4.4l5.6-3.6c0.4-0.2,0.7-0.5,1.1-0.7c0.6-0.4,1.3-0.8,1.9-1.2l10.2-5.9c1.5-0.8,3-1.6,4.5-2.4
			c0.9-0.5,1.8-0.9,2.7-1.4l5.5-2.8c0.4-0.2,0.7-0.3,1.1-0.5c0.2-0.1,0.5-0.2,0.7-0.3l10.7-4.8l12.3-4.9c0.5-0.2,1-0.4,1.5-0.5
			c0.3-0.1,0.6-0.2,0.9-0.3l7.7-2.6c0,0,0,0,0,0c0,0,0,0,0,0c0,0,1.3-0.5,3.5-1.2l12.7-3.6c0.7-0.2,1.4-0.3,2.1-0.5
			c0.4-0.1,0.8-0.2,1.2-0.3l7.2-1.7c0.5-0.1,0.9-0.2,1.4-0.3c0.8-0.2,1.6-0.4,2.4-0.5l12.1-2.2c0.8-0.2,1.7-0.3,2.6-0.4
			c0.5-0.1,0.9-0.1,1.3-0.2l4.1-0.5c1-0.1,2-0.2,3-0.4c1.7-0.2,3.3-0.4,4.9-0.6c2.1-0.1,4.1-0.3,6-0.5c2.9-0.2,5.6-0.4,8-0.6
			l13.8-0.3l13.7,0.3c2.5,0.1,5.2,0.4,8,0.6c1.9,0.2,4,0.3,6,0.5c1.6,0.1,3.2,0.4,4.9,0.6c1,0.1,2,0.3,2.9,0.4l4,0.5
			c0.4,0.1,0.9,0.1,1.3,0.2c0.9,0.1,1.8,0.2,2.7,0.4l12.1,2.2c0.8,0.1,1.6,0.3,2.4,0.5c0.5,0.1,0.9,0.2,1.4,0.3l7.3,1.7
			c0.4,0.1,0.8,0.2,1.2,0.3c0.7,0.2,1.4,0.3,2,0.5l12.6,3.6c2.3,0.7,3.5,1.2,3.5,1.2c0,0,0,0,0,0c0,0,0,0,0,0l7.7,2.6
			c0.3,0.1,0.6,0.2,0.9,0.3c0.5,0.2,1,0.3,1.6,0.5l12.3,4.9l10.7,4.8c0.2,0.1,0.5,0.2,0.7,0.3c0.4,0.2,0.7,0.3,1.1,0.5l5.5,2.8
			c0.9,0.5,1.8,0.9,2.7,1.4c1.5,0.8,3.1,1.6,4.5,2.4l10.2,5.9c0.6,0.4,1.2,0.8,1.9,1.2c0.4,0.2,0.7,0.5,1.1,0.7l5.7,3.6
			c2.6,1.6,4.8,3.1,6.5,4.4c0.6,0.4,1.2,0.8,1.6,1.2l3.1,2.2c0,0,0,0,0,0l3,2.1l10.3,8.1l8.3,7.2c1.5,1.2,2.9,2.6,4.4,4
			c0.4,0.4,0.9,0.9,1.3,1.3l5.9,5.6l5.7,6c0.4,0.5,0.9,0.9,1.3,1.3c1.4,1.5,2.8,2.9,4.1,4.5l7.1,8.2l8.1,10.3l2.2,3.1c0,0,0,0,0,0
			l2.2,3.1c0.4,0.5,0.8,1.1,1.2,1.7c1.3,1.7,2.8,3.9,4.4,6.5l3.6,5.6c0.2,0.4,0.5,0.7,0.7,1.1c0.4,0.6,0.8,1.3,1.2,1.9l5.9,10.2
			c0.8,1.5,1.6,3,2.4,4.5c0.5,0.9,0.9,1.8,1.4,2.7l2.8,5.5c0.2,0.4,0.3,0.7,0.5,1.1c0.1,0.2,0.2,0.5,0.3,0.7l4.8,10.7l4.9,12.3
			c0.2,0.5,0.4,1,0.5,1.5c0.1,0.3,0.2,0.6,0.3,0.9l2.6,7.7c0,0,0,0,0,0c0,0,0,0,0,0c0,0,0.5,1.3,1.2,3.5l3.6,12.7
			c0.2,0.7,0.3,1.4,0.5,2.1c0.1,0.4,0.2,0.8,0.3,1.2l1.7,7.2c0.1,0.5,0.2,0.9,0.3,1.4c0.2,0.8,0.4,1.6,0.5,2.4l2.2,12.1
			c0.2,0.8,0.3,1.7,0.4,2.6c0.1,0.4,0.1,0.9,0.2,1.3l0.5,4.1c0.1,1,0.2,2,0.4,3c0.2,1.7,0.4,3.3,0.6,4.9c0.1,2.1,0.3,4.1,0.5,6.1
			c0.2,2.9,0.4,5.6,0.6,7.9l0.3,13.8l-0.3,13.7c-0.1,2.4-0.4,5.2-0.6,8c-0.2,2-0.3,4-0.5,6c-0.1,1.6-0.4,3.2-0.6,4.9
			c-0.1,1-0.3,2-0.4,2.9l-0.5,4c-0.1,0.4-0.1,0.9-0.2,1.3c-0.1,0.9-0.2,1.8-0.4,2.7l-2.2,12.1c-0.1,0.8-0.3,1.6-0.5,2.4
			c-0.1,0.5-0.2,0.9-0.3,1.4l-1.7,7.3c-0.1,0.4-0.2,0.8-0.3,1.2c-0.2,0.7-0.3,1.4-0.5,2l-3.6,12.6c-0.7,2.3-1.2,3.5-1.2,3.5
			c0,0,0,0,0,0c0,0,0,0,0,0l-2.6,7.7c-0.1,0.3-0.2,0.6-0.3,0.9c-0.2,0.5-0.3,1-0.5,1.6l-4.9,12.3l-4.8,10.7
			c-0.1,0.2-0.2,0.5-0.3,0.7c-0.2,0.4-0.3,0.7-0.5,1.1l-2.8,5.5c-0.5,0.9-0.9,1.8-1.4,2.7c-0.8,1.5-1.6,3.1-2.4,4.5l-5.9,10.2
			c-0.4,0.6-0.8,1.2-1.2,1.9c-0.2,0.4-0.5,0.7-0.7,1.1l-3.6,5.7c-1.6,2.6-3.1,4.7-4.4,6.5c-0.4,0.6-0.8,1.2-1.2,1.7l-2.2,3.1
			c0,0,0,0,0,0l-2.1,3l-8.1,10.3l-7.2,8.3c-1.2,1.5-2.6,2.9-4,4.4c-0.4,0.4-0.9,0.9-1.3,1.3l-5.6,5.9l-6,5.7
			c-0.5,0.4-0.9,0.9-1.3,1.3c-1.5,1.4-2.9,2.8-4.5,4.1l-8.2,7.1L532.7,589.9z M416.5,677.2l-0.8-1.3c-2-3.5-4.6-8.1-7-12.5
			c-3.5-6.4-6.7-12.9-8.4-16.1c0.5-0.1,0.9-0.1,1.4-0.2l4.1-0.5c0.4-0.1,0.8-0.1,1.3-0.2c1-0.1,2-0.2,2.9-0.4l12.1-2.2
			c0.2,0,0.5-0.1,0.7-0.2l-0.8,5.2c-0.7,4.1-1.5,9-2.4,13.5C418.6,667.8,417.3,673.4,416.5,677.2z M445.1,670.2
			c-2.5-3.6-5.4-7.8-7.8-11.5c-4.6-6.9-8.9-13.9-10.2-16.1l6.2-1.4c0.4-0.1,0.8-0.2,1.2-0.3c0.8-0.2,1.5-0.3,2.3-0.5l11.9-3.4
			c0,1.1-0.1,2.4-0.2,4c-0.2,4.5-0.6,9.7-1,14.3c-0.5,5.9-1.1,11.9-1.6,15.9C445.6,670.9,445.4,670.5,445.1,670.2z M394.9,647.9
			c-0.8,3.6-2.3,10.8-4.2,17.9c-1.4,5.6-3,11.2-4.1,15.1l-3.2-7.2c-1-2.3-2-4.7-3-7.2c-2.8-6.8-5.4-13.7-6.7-17.2l5.8-0.1
			c2.5-0.2,5.2-0.4,8.1-0.6c1.9-0.2,4-0.3,6.1-0.5C394.1,647.9,394.5,647.9,394.9,647.9z M348.4,679.6c-0.2,0.5-0.4,0.9-0.6,1.3
			c-1.2-3.7-2.8-9.1-4.3-14.5c-1.2-4.2-2.5-9-3.5-13.2l-1.3-5.2c1.7,0.1,3.4,0.3,5,0.4c2.9,0.2,5.6,0.4,8.2,0.6l9.1,0.2
			c-1.3,3.5-3.9,10.3-6.8,17.1C352.4,670.6,350.3,675.4,348.4,679.6z M318,677.7l-0.3-1.5c-1-4.5-2-9.6-2.9-14.1
			c-1.4-7.1-2.5-14.3-3-17.9l9.5,1.7c1,0.2,2,0.3,3,0.4c0.4,0.1,0.8,0.1,1.3,0.2l4.1,0.5c1,0.1,1.9,0.2,2.9,0.4
			c0.6,0.1,1.2,0.2,1.8,0.2c-1.2,2.4-4.8,9.7-8.8,16.8C322.8,669.4,320,674.3,318,677.7z M288.5,672c0-0.4-0.1-0.8-0.1-1.2
			c-0.5-4.6-1-9.9-1.4-14.5c-0.6-7.4-0.9-14.7-1.1-18.4l8.7,2.5c0.7,0.2,1.5,0.4,2.2,0.5c0.4,0.1,0.8,0.2,1.2,0.3l7.3,1.7
			c0.4,0.1,0.8,0.2,1.2,0.3l-2,3.5c-2.3,3.9-5,8.3-7.4,12.2C294,663.8,290.8,668.7,288.5,672z M251.4,660.1c0-3.9,0.1-9.5,0.4-15
			c0.1-3.9,0.4-8.4,0.8-13.7l0.4-5.3l2.4,1.1c0,0,0.1,0,0.1,0l12.4,4.9c0.6,0.2,1.2,0.4,1.8,0.6c0.3,0.1,0.6,0.2,0.8,0.3l3.3,1.1
			c-2.3,2.9-6.9,8.6-11.7,14.2l-1.7,2l-7.9,8.8L251.4,660.1z M50.8,415c-0.1-0.6-0.2-1.3-0.3-1.9c-0.1-0.5-0.1-1-0.2-1.5l-0.6-4.6
			c-0.1-1.1-0.3-2.1-0.4-3.2c-0.3-2-0.5-3.9-0.7-5.8c-0.1-1.8-0.3-3.6-0.4-5.4c-0.1-0.7-0.1-1.3-0.2-1.9c3.8,1.1,10.6,3,17.3,4.7
			c5.4,1.4,10.9,2.6,14.8,3.5c-3.5,1.8-8.5,4.3-13.4,7c-4.5,2.5-9.1,5-12.7,7.1L50.8,415z M48.2,340.2c0.1-1.8,0.3-3.6,0.4-5.4
			c0.2-1.9,0.4-3.8,0.7-5.8c0.1-1.1,0.3-2.1,0.4-3.2l0.6-4.6c0-0.1,0-0.1,0-0.2c3.2,1.9,9.3,5.5,15.3,8.8c4.7,2.6,9.5,5.1,12.9,6.8
			l-0.8,0.2c-4.2,1.1-9.1,2.4-13.3,3.5c-6.5,1.8-13,3.8-16.6,5C48,343.7,48.1,341.9,48.2,340.2z M177.5,155.1
			c-0.3,0.3-0.6,0.5-1,0.8l-1.7-3.7c-1.8-4.1-3.8-8.9-5.5-13.2c-2.2-5.3-4.2-10.8-5.6-14.6c0.3,0.2,0.7,0.4,1.1,0.6
			c4,2.3,8.6,5,12.5,7.4c6.3,3.8,12.5,7.9,15.5,9.9l-7.2,5.6L177.5,155.1z M156.5,175.8l-0.7-1.4c-0.5-0.9-1.1-2-1.7-3.3
			c-2-3.9-4.1-8.3-6-12.3c-2.4-5.1-4.7-10.3-6.3-13.9c0.5,0.2,0.9,0.4,1.4,0.6c4.2,1.8,8.9,4,13.1,6c6.6,3.1,13,6.4,16.2,8.1
			c-0.3,0.3-0.7,0.7-1.1,1l-6,5.7l-5.7,6c-0.4,0.4-0.8,0.9-1.3,1.3C157.9,174.3,157.2,175.1,156.5,175.8z M139.5,196.3L139.5,196.3
			c-0.6-0.9-1.4-2-2.2-3.3c-2.4-3.8-5.2-8.2-7.6-12.1c-3.1-5-6-10.3-8-13.8c0.4,0.1,0.7,0.3,1.1,0.4c4.2,1.4,9,3.1,13.1,4.7
			c7.7,2.9,15.3,6,17.7,7l-6.5,7.5L139.5,196.3z M120.8,224.7c-2.5-2.7-7.3-8.2-12.1-13.9c-3.6-4.3-6.9-8.4-9-11.2l-0.7-1
			c4,0.8,9.7,2,15.3,3.4c3,0.7,5.3,1.3,7.4,1.8l3.8,1l6.6,1.8c-1,1.4-2.1,3-3.2,4.8l-3.6,5.6c-0.2,0.3-0.4,0.7-0.7,1
			c-0.4,0.7-0.9,1.4-1.3,2.1L120.8,224.7z M107.9,249.8c-1.9-1.9-7.7-7.6-13.4-13.6c-2.8-3-5.9-6.4-9.3-10.2l-0.9-1
			c4,0.4,10,1,15.8,1.8c4.1,0.5,8.7,1.2,14.1,2.1l3.9,0.7l-0.7,1.2c-0.9,1.5-1.7,3.1-2.5,4.7c-0.4,0.9-0.9,1.8-1.4,2.7l-2.8,5.5
			c-0.2,0.4-0.4,0.8-0.6,1.3L107.9,249.8z M106,253.8l-1.1,2.4c0,0,0,0.1,0,0.1l-4.9,12.4c-0.2,0.6-0.4,1.2-0.6,1.8
			c-0.1,0.3-0.2,0.6-0.3,0.8l-1.1,3.3c-2.9-2.3-8.6-6.9-14.2-11.7l-3-2.6l-7.8-7l-1.1-1c3.9,0,9.5,0.1,15,0.4
			c3.9,0.1,8.4,0.4,13.7,0.8L106,253.8z M91.7,295.4c-0.2,0.7-0.4,1.4-0.5,2.2c-0.1,0.4-0.2,0.8-0.3,1.2l-1.7,7.3
			c-0.1,0.4-0.2,0.8-0.3,1.2l-3.5-2c-3.9-2.3-8.3-5-12.2-7.4c-4.9-3.1-9.8-6.3-13.2-8.5c0.4,0,0.8-0.1,1.2-0.1
			c4.6-0.5,9.9-1,14.5-1.4c7.4-0.6,14.7-0.9,18.4-1.1L91.7,295.4z M87.9,312.5l-1.7,9.5c-0.2,1-0.3,2-0.4,2.9
			c-0.1,0.4-0.1,0.9-0.2,1.3l-0.5,4.1c-0.1,1-0.2,2-0.4,2.9c-0.1,0.6-0.2,1.2-0.2,1.8c-2.4-1.2-9.6-4.8-16.8-8.8
			c-4.9-2.7-9.9-5.6-13.2-7.6l1.5-0.3c4.5-1,9.6-2,14.1-2.9C77.1,314.2,84.2,313.1,87.9,312.5z M82.8,361.7
			c-3.5-1.3-10.3-3.9-17.1-6.8c-4.2-1.8-9.1-3.9-13.3-5.8c-0.5-0.2-0.9-0.4-1.3-0.6c3.7-1.2,9.1-2.8,14.5-4.3
			c4.2-1.2,9-2.5,13.2-3.5l5.2-1.3c-0.1,1.7-0.3,3.3-0.4,4.9c-0.2,2.9-0.4,5.6-0.6,8.2L82.8,361.7z M83,380.3
			c0.2,2.5,0.4,5.2,0.6,8.1c0.1,1.9,0.3,4,0.5,6.1c0,0.4,0.1,0.8,0.1,1.2c-3.6-0.8-10.8-2.3-17.9-4.2c-5.6-1.4-11.2-3-15.1-4.1
			l7.2-3.2c2.3-1,4.7-2,7.2-3c6.8-2.8,13.7-5.4,17.2-6.7L83,380.3z M47.5,382.1l-0.4-15.7l0.4-15.2c0.9,0.4,2,1,3.3,1.5
			c4.2,1.9,9.1,4.1,13.4,5.8c7.8,3.3,15.7,6.3,18.5,7.3l0,0.4c0,0,0,0,0,0.1s0,0,0,0.1l0.1,3.8c-2.8,1-10.8,4-18.6,7.2
			c-2.5,1-4.9,2-7.2,3l-9.3,4.2C47.6,383.8,47.5,382.9,47.5,382.1z M56.2,416.5c3.5-2,8-4.6,12.5-7c6.4-3.5,12.9-6.7,16.1-8.4
			c0.1,0.5,0.1,0.9,0.2,1.4l0.5,4.1c0.1,0.4,0.1,0.8,0.2,1.3c0.1,1,0.2,1.9,0.4,2.9l2.2,12.1c0,0.2,0.1,0.5,0.2,0.7l-5.2-0.8
			c-4.1-0.7-9-1.5-13.5-2.4c-5.5-1.1-11.1-2.3-14.9-3.1L56.2,416.5z M89.4,427.8l1.4,6.2c0.1,0.4,0.2,0.8,0.3,1.2
			c0.2,0.7,0.3,1.5,0.5,2.2l3.4,11.9c-1.1,0-2.4-0.1-4-0.2c-4.5-0.2-9.7-0.6-14.3-1c-5.9-0.5-11.9-1.1-15.9-1.6
			c0.3-0.2,0.6-0.4,1-0.7c3.6-2.5,7.8-5.4,11.5-7.8C80.2,433.5,87.2,429.2,89.4,427.8z M99.1,461.6c0.1,0.3,0.2,0.5,0.3,0.8
			c0.2,0.6,0.4,1.2,0.6,1.8l4.9,12.4c0,0,0,0.1,0,0.1l2.1,4.5c-3.7,0.4-11,1.1-18.4,1.6c-5,0.4-9.9,0.6-14.3,0.7l-1.2,0
			c3-2.7,7.4-6.7,11.7-10.4c3.2-2.8,6.9-5.8,11.1-9.2L99.1,461.6L99.1,461.6z M106.4,488.9l2.8-2.8l0.9,1.9c0.2,0.4,0.4,0.8,0.6,1.3
			l2.8,5.5c0.5,0.9,0.9,1.8,1.4,2.7c0.8,1.5,1.6,3.2,2.5,4.7l2.4,4.1c-2.7,0.5-10.7,1.8-18.9,2.8c-4.9,0.6-9.6,1.1-13.7,1.5
			l-1.4,0.1c2.7-3,6.6-7.5,10.7-11.7C100.1,495.2,103.9,491.4,106.4,488.9z M121.9,510.2l1.3,2.3c0.4,0.8,0.9,1.5,1.3,2.1
			c0.2,0.3,0.5,0.7,0.7,1.1l3.6,5.6c1.7,2.7,3.3,4.9,4.6,6.7c0.2,0.3,0.4,0.6,0.6,0.9c-3.6,1-10.7,2.9-17.8,4.6
			c-5.2,1.2-10.2,2.3-14,3.1l-1.5,0.3c2.3-3.1,5.7-7.6,9.1-11.9c3.2-4,6.5-8,8.7-10.7L121.9,510.2z M141.6,539.2l5.6,7.2l7.1,8.2
			c0.3,0.3,0.5,0.6,0.8,1l-3.7,1.7c-4.2,1.8-9,3.8-13.2,5.5c-5.3,2.2-10.8,4.2-14.6,5.6c0.2-0.3,0.4-0.7,0.6-1.1
			c2.3-4,5-8.6,7.4-12.5C135.5,548.4,139.5,542.2,141.6,539.2z M158.8,559.4c0.3,0.3,0.7,0.7,1,1.1l5.7,6l6,5.7
			c0.4,0.4,0.9,0.8,1.3,1.3c0.7,0.7,1.4,1.4,2.2,2l-1.3,0.7c-0.9,0.5-2.1,1.1-3.4,1.7c-3.9,2-8.4,4.1-12.3,6
			c-5.1,2.4-10.3,4.7-13.9,6.3c0.2-0.5,0.4-0.9,0.6-1.4c1.8-4.2,4-9,6-13.1C153.8,569.1,157.1,562.7,158.8,559.4z M178.3,578.4
			l7.5,6.5l9.7,7.6l-0.1,0c-0.9,0.6-2,1.3-3.3,2.1c-3.8,2.4-8.2,5.2-12.1,7.6c-5,3.1-10.3,6-13.8,8c0.1-0.4,0.3-0.7,0.4-1.1
			c1.4-4.2,3.1-9,4.7-13.1C174.2,588.4,177.3,580.8,178.3,578.4z M204.9,603.9l1.1-3.9c1.4,1,3,2.1,4.8,3.2l5.6,3.6
			c0.3,0.2,0.7,0.4,1,0.7c0.7,0.4,1.4,0.9,2.1,1.3l4.3,2.5c-2.7,2.5-8.2,7.4-13.9,12.1c-4.3,3.6-8.4,6.9-11.2,9l-1,0.7
			c0.8-4,2-9.7,3.4-15.3c0.7-3,1.3-5.3,1.8-7.4L204.9,603.9z M228,617.9l0.7-3.9l1.2,0.7c1.5,0.9,3.1,1.7,4.7,2.5
			c0.9,0.4,1.8,0.9,2.7,1.4l5.5,2.8c0.4,0.2,0.8,0.4,1.3,0.6l5,2.3c-1.9,1.9-7.6,7.7-13.6,13.4c-3,2.8-6.3,5.9-10.2,9.3l-1,0.9
			c0.4-4,1-10,1.8-15.8C226.4,627.9,227.1,623.3,228,617.9z M249.2,89.4c-0.4-5-0.6-9.9-0.7-14.3l0-1.2c2.7,3,6.7,7.4,10.4,11.7
			c2.8,3.2,5.9,6.9,9.2,11.1l2.5,3.2l-0.1,0c-0.3,0.1-0.5,0.2-0.8,0.3c-0.6,0.2-1.2,0.4-1.8,0.6l-12.4,4.9c0,0-0.1,0-0.1,0l-4.5,2.1
			C250.5,104.1,249.7,96.8,249.2,89.4z M225.7,120.5c-0.5-2.7-1.8-10.7-2.8-18.9c-0.6-4.9-1.1-9.7-1.5-13.7l-0.1-1.4
			c3,2.7,7.5,6.6,11.7,10.7c3.9,3.6,7.7,7.4,10.2,10l2.8,2.8l-1.9,0.9c-0.4,0.2-0.8,0.4-1.3,0.6l-5.5,2.8c-0.9,0.5-1.8,0.9-2.7,1.4
			c-1.5,0.8-3.2,1.6-4.7,2.5L225.7,120.5z M221.9,122.7l-2.3,1.3c-0.8,0.4-1.5,0.9-2.1,1.3c-0.3,0.2-0.7,0.5-1.1,0.7l-5.6,3.6
			c-2.7,1.7-4.9,3.3-6.7,4.6c-0.3,0.2-0.6,0.4-0.9,0.6c-1-3.6-2.9-10.7-4.6-17.8c-1.3-5.3-2.3-10.6-3.1-14l-0.3-1.5
			c3.1,2.3,7.6,5.7,11.9,9.1c4,3.2,8,6.5,10.7,8.7L221.9,122.7z M314.8,55.6l0.8,1.3c2,3.5,4.6,8,7,12.5c3.5,6.4,6.7,12.9,8.4,16.1
			c-0.5,0.1-0.9,0.1-1.4,0.2l-4.1,0.5c-0.4,0.1-0.8,0.1-1.3,0.2c-1,0.1-1.9,0.2-2.9,0.4l-12.1,2.2c-0.2,0-0.5,0.1-0.7,0.2l0.8-5.2
			c0.7-4.1,1.5-9,2.4-13.5C312.7,65,314,59.4,314.8,55.6z M286.2,62.6c2.5,3.6,5.4,7.8,7.8,11.5c4.6,6.9,8.9,13.9,10.2,16.1
			l-6.2,1.4c-0.4,0.1-0.8,0.2-1.2,0.3c-0.7,0.2-1.5,0.3-2.2,0.5l-11.9,3.4c0-1.1,0.1-2.4,0.2-4c0.2-4.5,0.6-9.7,1-14.3
			c0.5-5.9,1.1-11.9,1.6-15.9C285.7,62,285.9,62.3,286.2,62.6z M336.4,85c0.8-3.6,2.3-10.8,4.2-17.9c1.4-5.6,3-11.2,4.1-15.1
			l3.2,7.2c1,2.3,2,4.7,3,7.2c2.8,6.8,5.4,13.7,6.7,17.2l-5.8,0.1c-2.5,0.2-5.2,0.4-8.1,0.6c-1.9,0.2-4,0.3-6.1,0.5
			C337.2,84.9,336.8,84.9,336.4,85z M382.9,53.2c0.2-0.5,0.4-0.9,0.6-1.3c1.2,3.7,2.8,9.1,4.3,14.5c1.2,4.2,2.5,9.1,3.5,13.2
			l1.3,5.2c-1.7-0.1-3.3-0.3-4.9-0.4c-2.9-0.2-5.6-0.4-8.2-0.6l-9.1-0.2c1.3-3.5,3.9-10.3,6.8-17.1C378.9,62.2,381,57.4,382.9,53.2z
			 M413.3,55.1l0.3,1.5c1,4.5,2,9.6,2.9,14.1c1.4,7.1,2.5,14.3,3,17.9l-9.5-1.7c-1-0.2-2-0.3-2.9-0.4c-0.4-0.1-0.9-0.1-1.3-0.2
			l-4.1-0.5c-1-0.1-1.9-0.2-2.9-0.4c-0.6-0.1-1.2-0.2-1.8-0.2c1.2-2.4,4.8-9.7,8.8-16.8C408.4,63.4,411.3,58.5,413.3,55.1z
			 M442.8,60.8c0,0.4,0.1,0.8,0.1,1.2c0.5,4.6,1,9.9,1.4,14.5c0.6,7.4,0.9,14.7,1.1,18.4l-8.7-2.5c-0.7-0.2-1.4-0.4-2.2-0.5
			c-0.4-0.1-0.8-0.2-1.2-0.3l-7.3-1.7c-0.4-0.1-0.8-0.2-1.2-0.3l2-3.5c2.3-3.9,5-8.3,7.4-12.2C437.3,69.1,440.5,64.2,442.8,60.8z
			 M680.5,317.8c0.1,0.6,0.2,1.3,0.3,1.9c0.1,0.5,0.1,1,0.2,1.5l0.6,4.6c0.1,1.1,0.3,2.1,0.4,3.2c0.3,2,0.5,3.9,0.7,5.8
			c0.1,1.8,0.3,3.6,0.4,5.4c0.1,0.7,0.1,1.3,0.2,2c-3.8-1.1-10.6-3-17.3-4.7c-5.4-1.4-10.9-2.6-14.8-3.5c3.5-1.8,8.5-4.3,13.4-7
			c4.5-2.4,9.1-5,12.7-7.1L680.5,317.8z M683.8,350.7l0.4,15.7l-0.4,15.2c-0.9-0.4-2-0.9-3.3-1.5c-4.2-1.9-9.1-4.1-13.4-5.8
			c-7.8-3.3-15.7-6.3-18.5-7.3l0-0.4c0,0,0,0,0-0.1s0,0,0-0.1l-0.1-3.8c2.8-1,10.8-4,18.6-7.2c2.5-1,4.9-2,7.2-3l9.3-4.2
			C683.7,349,683.8,349.9,683.8,350.7z M648.3,352.5c-0.2-2.5-0.4-5.2-0.6-8.1c-0.2-1.9-0.3-4-0.5-6.1c0-0.4-0.1-0.8-0.1-1.2
			c3.6,0.8,10.8,2.3,17.9,4.2c5.6,1.4,11.2,3,15.1,4.1l-7.2,3.2c-2.3,1-4.7,2-7.2,3c-6.8,2.8-13.7,5.4-17.2,6.7L648.3,352.5z
			 M645.1,410.8c0.2-1,0.3-2,0.4-3c0.1-0.4,0.1-0.8,0.2-1.3l0.5-4.1c0.1-1,0.2-1.9,0.4-2.9c0.1-0.6,0.2-1.2,0.2-1.8
			c2.4,1.2,9.7,4.8,16.8,8.8c4.9,2.7,9.9,5.6,13.2,7.6l-1.5,0.3c-4.5,1-9.6,2-14.1,2.9c-7.1,1.4-14.3,2.5-17.9,3L645.1,410.8z
			 M647.3,393.4c0.1-1.7,0.3-3.4,0.4-5c0.2-2.9,0.4-5.6,0.6-8.2l0.2-9.1c3.5,1.3,10.3,3.9,17.1,6.8c4.3,1.8,9.1,3.9,13.3,5.8
			c0.5,0.2,0.9,0.4,1.3,0.6c-3.7,1.2-9.1,2.8-14.5,4.3c-4.2,1.2-9.1,2.5-13.2,3.5L647.3,393.4z M675.1,316.4c-3.5,2-8.1,4.6-12.5,7
			c-6.4,3.5-12.9,6.7-16.1,8.4c-0.1-0.5-0.1-0.9-0.2-1.4l-0.5-4.1c-0.1-0.4-0.1-0.8-0.2-1.3c-0.1-1-0.2-2-0.4-2.9L643,310
			c0-0.2-0.1-0.5-0.2-0.7l5.2,0.8c4.1,0.7,9,1.5,13.5,2.4c5.5,1.1,11.1,2.3,14.9,3.1L675.1,316.4z M641.9,305l-1.4-6.2
			c-0.1-0.4-0.2-0.8-0.3-1.2c-0.2-0.8-0.3-1.5-0.5-2.3l-3.4-11.9c1.1,0,2.4,0.1,4,0.2c4.5,0.2,9.7,0.6,14.3,1
			c5.9,0.5,11.9,1.1,15.9,1.6c-0.3,0.2-0.6,0.4-1,0.7c-3.6,2.5-7.8,5.4-11.5,7.8C651.1,299.3,644.1,303.6,641.9,305z M632.2,271.2
			c-0.1-0.3-0.2-0.5-0.3-0.8c-0.2-0.6-0.4-1.2-0.6-1.8l-4.9-12.4c0,0,0-0.1,0-0.1l-2.1-4.5c3.7-0.4,11-1.1,18.4-1.6
			c5-0.4,9.9-0.6,14.3-0.7l1.2,0c-3,2.7-7.4,6.7-11.7,10.4c-3.2,2.8-6.9,5.8-11.1,9.2L632.2,271.2L632.2,271.2z M624.9,243.9
			l-2.8,2.8l-0.9-1.9c-0.2-0.4-0.4-0.8-0.6-1.3l-2.8-5.5c-0.5-0.9-0.9-1.8-1.4-2.7c-0.8-1.5-1.6-3.2-2.5-4.7l-2.4-4.1
			c2.7-0.5,10.7-1.8,18.9-2.8c4.9-0.6,9.7-1.1,13.7-1.5l1.4-0.1c-2.7,3-6.6,7.5-10.7,11.7C631.2,237.6,627.4,241.4,624.9,243.9z
			 M609.4,222.6l-1.3-2.3c-0.4-0.8-0.9-1.4-1.3-2.1c-0.2-0.3-0.5-0.7-0.7-1.1l-3.6-5.6c-1.7-2.7-3.3-4.9-4.6-6.7
			c-0.2-0.3-0.4-0.6-0.6-0.9c3.6-1,10.7-2.9,17.8-4.6c5.3-1.3,10.5-2.3,14-3.1l1.5-0.3c-2.3,3.1-5.7,7.6-9.1,11.9
			c-3.2,4-6.5,8-8.7,10.7L609.4,222.6z M589.7,193.7l-5.6-7.2l-7.1-8.2c-0.3-0.3-0.5-0.6-0.8-1l3.7-1.7c4.1-1.8,8.9-3.8,13.2-5.5
			c5.3-2.2,10.8-4.2,14.6-5.6c-0.2,0.3-0.4,0.7-0.6,1.1c-2.3,4-5,8.6-7.4,12.5C595.8,184.5,591.7,190.6,589.7,193.7z M572.5,173.4
			c-0.3-0.3-0.7-0.7-1-1.1l-5.7-6l-6-5.7c-0.4-0.4-0.9-0.8-1.3-1.3c-0.7-0.7-1.4-1.4-2.2-2l1.4-0.7c0.9-0.5,2-1.1,3.3-1.7
			c3.9-1.9,8.3-4.1,12.3-6c5.1-2.4,10.3-4.7,13.9-6.3c-0.2,0.5-0.4,0.9-0.6,1.4c-1.8,4.2-4,9-6,13.1
			C577.5,163.7,574.2,170.1,572.5,173.4z M553,154.4l-7.5-6.5l-9.7-7.6l0,0c0.9-0.6,2-1.4,3.3-2.2c3.8-2.5,8.2-5.2,12.1-7.6
			c5-3.1,10.3-6,13.8-8c-0.1,0.4-0.3,0.7-0.4,1.1c-1.4,4.2-3.1,9-4.7,13.1C557.1,144.4,554,152,553,154.4z M525.3,132.8
			c-1.4-1-3-2.1-4.8-3.2l-5.6-3.6c-0.3-0.2-0.7-0.4-1-0.7c-0.7-0.4-1.4-0.9-2.1-1.3l-4.3-2.5c2.7-2.5,8.2-7.3,13.9-12.1
			c4.3-3.6,8.4-6.9,11.2-9l1-0.7c-0.8,4-2,9.7-3.4,15.3c-0.7,3-1.3,5.3-1.8,7.4L525.3,132.8z M503.3,114.9l-0.7,3.9l-1.2-0.7
			c-1.5-0.9-3.1-1.7-4.7-2.5c-0.9-0.4-1.8-0.9-2.7-1.4l-5.5-2.8c-0.4-0.2-0.8-0.4-1.3-0.6l-5-2.3c1.9-1.9,7.6-7.7,13.6-13.4
			c3-2.8,6.3-5.9,10.2-9.3l1-0.9c-0.4,4-1,10-1.8,15.8C504.9,104.9,504.2,109.6,503.3,114.9z M479.5,87.8c-0.1,3.9-0.4,8.4-0.8,13.7
			l-0.4,5.3l-2.4-1.1c0,0-0.1,0-0.1,0l-12.4-4.9c-0.6-0.2-1.2-0.4-1.8-0.6c-0.3-0.1-0.6-0.2-0.8-0.3l-3.3-1.1
			c2.3-2.9,6.9-8.6,11.7-14.2l2.6-3l6.5-7.2l1.5-1.7C479.9,76.6,479.8,82.3,479.5,87.8z M545.6,584.8l8.2-7.1c0.3-0.3,0.6-0.5,1-0.8
			l1.7,3.7c1.1,2.4,3.2,7.4,5.5,13.2c2.2,5.3,4.2,10.8,5.6,14.6c-0.3-0.2-0.7-0.4-1.1-0.6c-4-2.3-8.6-5-12.5-7.4
			c-6.3-3.8-12.5-7.9-15.5-9.9L545.6,584.8z M559.7,572.2l6-5.7l5.7-6c0.4-0.4,0.8-0.9,1.3-1.3c0.7-0.7,1.4-1.4,2-2.2l0.7,1.3
			c0.5,0.9,1.1,2.1,1.7,3.4c2,3.9,4.1,8.3,6,12.3c2.4,5.1,4.7,10.3,6.3,13.9c-0.5-0.2-0.9-0.4-1.4-0.6c-4.2-1.8-9-4-13.1-6
			c-6.6-3.1-13-6.4-16.2-8.1C559,572.9,559.4,572.6,559.7,572.2z M584.1,546.2l7.6-9.7l0,0c0.6,0.9,1.3,2,2.2,3.3
			c2.4,3.8,5.2,8.2,7.6,12.1c3.1,5,6,10.3,8,13.8c-0.4-0.1-0.7-0.3-1.1-0.4c-4.2-1.4-9-3.1-13.1-4.7c-7.7-2.9-15.3-6-17.7-7
			L584.1,546.2z M602.5,521.2l3.6-5.6c0.2-0.3,0.4-0.7,0.7-1c0.4-0.7,0.9-1.4,1.3-2.1l2.5-4.3c2.5,2.7,7.4,8.2,12.1,13.9
			c3.6,4.3,6.9,8.4,9,11.2l0.7,1c-4-0.8-9.7-2-15.3-3.4c-3-0.7-5.3-1.3-7.4-1.8l-6.5-1.7l-3.9-1.1
			C600.2,524.7,601.3,523.1,602.5,521.2z M613.9,502.2c0.9-1.5,1.7-3.1,2.5-4.7c0.4-0.9,0.9-1.8,1.4-2.7l2.8-5.5
			c0.2-0.4,0.4-0.8,0.6-1.3l2.3-5c1.9,1.9,7.7,7.6,13.4,13.6c2.8,3,5.9,6.3,9.3,10.2l0.9,1c-4-0.4-10-1-15.8-1.8
			c-4.1-0.5-8.7-1.2-14.1-2.1l-3.9-0.7L613.9,502.2z M625.3,479.1l1.1-2.4c0,0,0-0.1,0-0.1l4.9-12.4c0.2-0.6,0.4-1.2,0.6-1.8
			c0.1-0.3,0.2-0.6,0.3-0.8l1.1-3.3c2.9,2.3,8.6,6.9,14.2,11.7l3,2.6l7.8,7l1.1,1c-3.9,0-9.5-0.1-15-0.4c-3.9-0.1-8.4-0.4-13.7-0.8
			L625.3,479.1z M639.6,437.4c0.2-0.7,0.4-1.5,0.5-2.2c0.1-0.4,0.2-0.8,0.3-1.2l1.7-7.3c0.1-0.4,0.2-0.8,0.3-1.2l3.5,2
			c3.9,2.3,8.3,5,12.2,7.4c4.9,3.1,9.8,6.3,13.2,8.5c-0.4,0-0.8,0.1-1.2,0.1c-4.6,0.5-9.9,1-14.5,1.4c-7.4,0.6-14.7,0.9-18.4,1.1
			L639.6,437.4z M679.5,312.2c-3.6-0.8-10.5-2.4-17.2-3.7c-4.5-0.9-9.5-1.8-13.6-2.4l-0.8-0.1c3.3-2,7.8-4.9,12.3-7.9
			c3.7-2.4,7.9-5.3,11.6-7.9c1.1-0.8,2-1.4,2.8-2c0.1,0.2,0.1,0.5,0.2,0.7c0.1,0.4,0.2,0.9,0.3,1.3l1.9,8.3c0.1,0.5,0.2,1,0.4,1.6
			c0.2,0.9,0.4,1.9,0.6,2.8L679.5,312.2z M668.6,268C668.7,268,668.7,268,668.6,268C668.7,268,668.7,268,668.6,268
			c0,0,0.5,1.5,1.3,4l3,10.5c-3.9-0.5-11.1-1.3-18.1-1.9c-4.6-0.4-9.8-0.8-14.4-1c-1.9-0.1-3.6-0.2-4.8-0.2l-0.7,0
			c-0.1-0.3-0.1-0.4-0.2-0.5c0,0,0,0,0,0l-1.2-3.6l4.3-3.4c4.2-3.4,8-6.5,11.2-9.3c5.3-4.5,10.5-9.2,13.4-11.9l2.2,5.7
			c0.2,0.6,0.4,1.2,0.6,1.8c0.1,0.3,0.2,0.7,0.3,1L668.6,268z M653.3,229.4l5.8,12.9l1.1,2.9l-3.4,0.1c-4.5,0.2-9.4,0.4-14.5,0.8
			c-5.6,0.4-11.2,0.9-15.2,1.3l0.5-0.5c2.6-2.6,6.4-6.4,10.1-10.3c4.9-5.2,9.8-10.7,12.3-13.6l2.6,5.2
			C652.9,228.5,653.1,228.9,653.3,229.4z M645.2,213.5c0.8,1.4,1.5,2.9,2.3,4.3l-3.7,0.3c-4.1,0.4-8.9,0.9-13.8,1.5
			c-5.4,0.7-10.7,1.5-14.6,2.1l0.5-0.6c2.2-2.7,5.6-6.7,8.8-10.8c4.2-5.3,8.2-10.7,10.5-13.8l1.1,1.8c0.3,0.4,0.5,0.8,0.8,1.2
			c0.5,0.7,1,1.5,1.4,2.2L645.2,213.5z M620.8,175.6l2.5,3.5c0,0,0,0,0,0l2.5,3.5c0.4,0.5,0.8,1.1,1.3,1.8c1.4,1.9,3.1,4.3,4.9,7.2
			l-3.6,0.7c-3.5,0.7-8.9,1.8-14.2,3.1c-8.3,2-16.5,4.2-19.4,5l-0.3-0.4c0,0,0,0,0,0c0,0,0,0,0,0l-2.3-3.2
			c1.7-2.5,6.3-9.5,10.7-16.8c2.4-4,5.2-8.6,7.5-12.6c0.6-1.1,1.2-2.1,1.7-2.9L620.8,175.6z M598.7,149.3c1.7,1.8,3.3,3.4,4.8,5.2
			l4.8,5.6c-3.7,1.4-10.3,3.8-16.7,6.4c-4.3,1.7-9.1,3.7-13.3,5.5l-0.7,0.3c1.8-3.5,4.3-8.5,6.7-13.5c2-4.2,4.2-9,6-13.2
			c0.6-1.4,1.2-2.6,1.6-3.6L598.7,149.3z M577.6,128.6c1.7,1.4,3.4,3,5.2,4.7l4.9,4.7c-3.4,1.5-9.9,4.3-16.1,7.2
			c-4,1.9-8.5,4.1-12.4,6c-0.2,0.1-0.5,0.2-0.7,0.4c1.4-3.6,3.4-8.5,5.3-13.6c1.5-4.1,3.3-8.9,4.7-13.2c0.4-1.2,0.8-2.3,1.1-3.2
			L577.6,128.6z M547.6,105c0.7,0.5,1.2,0.9,1.8,1.3l3.5,2.5c0,0,0,0,0,0l3.4,2.5l8.6,6.8c-3.4,1.9-9.7,5.5-15.8,9.1
			c-3.9,2.4-8.4,5.2-12.2,7.6c-1.3,0.8-2.5,1.6-3.4,2.2l-1.2,0.8l-0.4-0.3c0,0,0,0,0,0c0,0,0,0,0,0l-3.1-2.2c0,0,0,0,0,0l1.5-5.3
			l1.8-6.6c0.6-2.1,1.1-4.5,1.9-7.5c1.6-6.7,3.1-13.6,3.9-17.5l2.3,1.5C543.1,101.7,545.6,103.5,547.6,105z M513.2,84.1
			c1.8,0.9,3.6,1.8,5.4,2.8l11.7,6.7c0.8,0.4,1.5,0.9,2.2,1.4c0.1,0.1,0.2,0.1,0.3,0.2l-2.7,2.1c-2.8,2.2-7,5.5-11.3,9.1
			c-4.3,3.6-8.6,7.3-11.6,10l0.1-0.7c0.9-5.4,1.6-10.2,2.1-14.2c0.9-7.1,1.6-14.4,2-18.2C512,83.5,512.6,83.8,513.2,84.1z
			 M502.7,78.8c0.4,0.2,0.9,0.4,1.3,0.6l2.3,1.2l-2.8,2.4c-3.9,3.4-7.3,6.5-10.3,9.4c-4,3.7-7.8,7.5-10.5,10.2l0.1-0.8
			c0.4-5.4,0.7-9.9,0.8-13.9c0.3-6.7,0.4-13.5,0.4-17.3l5.6,2.2L502.7,78.8z M460,62.1c2.6,0.8,4,1.3,4.1,1.4c0,0,0,0,0,0
			c0,0,0,0,0,0l8.8,3c0.3,0.1,0.7,0.2,1,0.3c0.6,0.2,1.2,0.4,1.8,0.6l2.8,1.1l-2.5,2.7l-4.6,5l-2.5,2.8l-2.6,3
			c-5.6,6.5-10.9,13.1-12.7,15.4l-0.4-0.1c0,0,0,0,0,0c0,0-1.3-0.5-3.7-1.2c-0.1-3-0.5-11.4-1.2-19.9c-0.4-4.6-0.9-10-1.4-14.6
			c-0.1-1.3-0.3-2.4-0.4-3.4L460,62.1z M432,54.8c0.5,0.1,1,0.2,1.5,0.4l7.2,1.7c-2.2,3.3-6.1,9.1-9.8,15c-2.4,3.9-5.2,8.4-7.5,12.3
			l-0.4,0.7c-0.6-3.9-1.5-9.4-2.5-14.8c-0.8-4.5-1.9-9.7-2.9-14.2l-0.9-3.8l12.5,2.2C430.1,54.4,431.1,54.6,432,54.8z M397.3,49.4
			c1.9,0.2,3.8,0.4,5.8,0.7c1.1,0.1,2.1,0.3,3.2,0.4l4.6,0.6c0.1,0,0.1,0,0.2,0c-1.9,3.2-5.5,9.3-8.8,15.3
			c-2.6,4.7-5.1,9.5-6.8,12.9l-0.2-0.8c-1.1-4.2-2.3-9.1-3.5-13.3c-1.8-6.5-3.8-13-5-16.6c1.7,0.1,3.4,0.3,5.2,0.4
			C393.6,49.1,395.4,49.3,397.3,49.4z M350,48.2l15.7-0.4l15.2,0.4c-0.4,0.9-0.9,2-1.5,3.3c-1.9,4.2-4.1,9.1-5.8,13.4
			c-3.3,7.8-6.3,15.7-7.3,18.5l-0.4,0c0,0,0,0-0.1,0c0,0,0,0,0,0l-3.8,0.1c-1-2.8-4-10.8-7.2-18.6c-1-2.5-2-4.9-3-7.2l-4.2-9.3
			C348.2,48.3,349.1,48.3,350,48.2z M319,51.3c0.5-0.1,1-0.1,1.5-0.2l4.6-0.6c1.1-0.1,2.1-0.3,3.2-0.4c2-0.3,3.9-0.5,5.8-0.7
			c1.8-0.1,3.6-0.3,5.4-0.4c0.7-0.1,1.3-0.1,1.9-0.2c-1.1,3.8-3,10.6-4.7,17.3c-1.4,5.4-2.6,10.9-3.5,14.8c-1.8-3.5-4.3-8.5-7-13.4
			c-2.5-4.5-5-9.1-7.1-12.7l-2-3.4C317.7,51.4,318.3,51.4,319,51.3z M289.5,57.1l8.3-1.9c0.5-0.1,1-0.2,1.5-0.4
			c0.9-0.2,1.9-0.4,2.8-0.6l9.3-1.7c-0.8,3.6-2.4,10.5-3.7,17.2c-0.9,4.5-1.8,9.5-2.4,13.6l-0.1,0.8c-2-3.3-4.9-7.8-7.9-12.3
			c-2.4-3.7-5.3-7.9-7.9-11.6c-0.8-1.1-1.4-2-2-2.8c0.2-0.1,0.4-0.1,0.7-0.2C288.6,57.3,289.1,57.2,289.5,57.1z M255.6,67.4
			c0.6-0.2,1.2-0.4,1.8-0.6c0.3-0.1,0.7-0.2,1-0.3l8.8-3c0,0,0,0,0,0c0,0,0,0,0,0c0,0,1.5-0.5,4-1.3l10.5-3
			c-0.5,3.9-1.3,11.1-1.9,18.1c-0.4,4.6-0.8,9.8-1,14.4c-0.1,1.9-0.2,3.6-0.2,4.8l0,0.7c-0.3,0.1-0.5,0.2-0.5,0.2c0,0,0,0,0,0
			l-3.6,1.2l-3.4-4.3c-3.4-4.2-6.5-8-9.3-11.2c-4.5-5.3-9.2-10.5-11.9-13.4L255.6,67.4z M227.3,79.4c0.4-0.2,0.9-0.4,1.3-0.6
			l12.9-5.8l2.9-1.1l0.1,3.4c0.2,4.5,0.4,9.4,0.8,14.5c0.4,5.6,0.9,11.2,1.3,15.2l-0.5-0.5c-2.6-2.6-6.4-6.4-10.3-10.1
			c-5.2-4.9-10.7-9.8-13.6-12.3L227.3,79.4z M197.7,95.8c0.4-0.3,0.8-0.5,1.2-0.8c0.7-0.5,1.5-0.9,2.2-1.4l11.6-6.7
			c1.4-0.8,2.9-1.5,4.3-2.3l0.3,3.7c0.4,4.1,0.9,8.9,1.5,13.8c0.7,5.4,1.5,10.7,2.1,14.6l-0.6-0.5c-2.7-2.3-6.7-5.6-10.8-8.8
			c-5.3-4.2-10.7-8.2-13.8-10.5L197.7,95.8z M174.9,111.2l3.5-2.5l3.5-2.5c0.5-0.4,1.1-0.8,1.8-1.3c1.9-1.4,4.4-3.1,7.2-4.9l0.7,3.6
			c0.7,3.5,1.8,8.9,3.1,14.2c2,8.3,4.2,16.5,5,19.4l-0.4,0.3c0,0,0,0,0,0l-3.2,2.3c-2.5-1.7-9.5-6.3-16.8-10.7
			c-4-2.4-8.6-5.2-12.6-7.5c-1.1-0.7-2.1-1.2-3-1.7L174.9,111.2z M148.6,133.3c1.8-1.7,3.4-3.3,5.2-4.8l5.6-4.8
			c1.4,3.7,3.8,10.3,6.4,16.7c1.7,4.3,3.7,9.1,5.6,13.3l0.3,0.7c-3.5-1.8-8.5-4.3-13.5-6.7c-4.2-2-9-4.2-13.2-6
			c-1.4-0.6-2.6-1.2-3.6-1.6L148.6,133.3z M127.9,154.5c1.4-1.7,3-3.4,4.7-5.2l4.7-4.9c1.5,3.4,4.3,9.9,7.2,16.1
			c1.9,4,4.1,8.5,6,12.4c0.1,0.2,0.2,0.5,0.4,0.7c-3.6-1.4-8.5-3.4-13.6-5.3c-4.1-1.6-8.9-3.3-13.2-4.7c-1.2-0.4-2.3-0.8-3.2-1.1
			L127.9,154.5z M104.2,184.5c0.5-0.6,0.9-1.2,1.3-1.8l2.5-3.5c0,0,0,0,0,0l2.5-3.4l6.8-8.6c1.9,3.4,5.5,9.7,9.1,15.8
			c2.4,4,5.2,8.4,7.6,12.2c0.8,1.3,1.6,2.5,2.2,3.4l0.8,1.2l-0.3,0.4c0,0,0,0,0,0l-2.2,3.1c0,0,0,0,0,0l-5.3-1.5l-6.6-1.8
			c-2.1-0.6-4.5-1.1-7.5-1.9c-6.7-1.6-13.6-3.1-17.5-3.9l1.5-2.3C101,189,102.8,186.5,104.2,184.5z M83.3,218.9
			c0.9-1.8,1.8-3.6,2.8-5.4l6.7-11.7c0.4-0.8,0.9-1.5,1.4-2.2c0.1-0.1,0.1-0.2,0.2-0.3l2.1,2.7c2.2,2.8,5.5,7,9.1,11.3
			c3.6,4.3,7.3,8.6,10,11.6l-0.7-0.1c-5.4-0.9-10.1-1.6-14.2-2.1c-7.1-0.9-14.4-1.6-18.2-2C82.7,220.1,83,219.5,83.3,218.9z
			 M78,229.4c0.2-0.4,0.4-0.9,0.6-1.3l1.2-2.3l2.4,2.8c3.4,3.8,6.5,7.3,9.4,10.3c3.7,4,7.5,7.8,10.2,10.5l-0.8-0.1
			c-5.4-0.4-9.9-0.7-13.9-0.8c-6.7-0.3-13.5-0.4-17.3-0.4l2.3-5.8L78,229.4z M65.6,259.2c0.1-0.3,0.2-0.7,0.3-1
			c0.2-0.6,0.4-1.2,0.6-1.8l1.1-2.8l2.7,2.5l5,4.6l2.8,2.5l3,2.6c6.5,5.6,13.1,10.9,15.4,12.7l-0.1,0.4c0,0,0,0,0,0
			c0,0-0.5,1.3-1.2,3.7c-3,0.1-11.4,0.5-19.9,1.2c-4.6,0.4-10,0.9-14.6,1.4c-1.3,0.1-2.4,0.3-3.4,0.4l3.8-13.5
			c0.8-2.6,1.3-4,1.4-4.1c0,0,0,0,0,0c0,0,0,0,0,0L65.6,259.2z M53.4,302.9c0.2-0.9,0.4-1.9,0.6-2.8c0.1-0.5,0.2-1,0.4-1.5l1.7-7.2
			c3.3,2.2,9.1,6.1,15,9.8c3.9,2.5,8.4,5.2,12.3,7.5l0.7,0.4c-3.9,0.6-9.4,1.5-14.8,2.5c-4.5,0.8-9.7,1.9-14.2,2.9l-3.8,0.9
			L53.4,302.9z M51.8,420.6c3.6,0.8,10.5,2.4,17.2,3.7c4.5,0.9,9.5,1.8,13.6,2.4l0.8,0.1c-3.3,2-7.8,4.9-12.3,7.9
			c-3.7,2.5-7.9,5.3-11.6,7.9c-1.1,0.8-2,1.4-2.8,2c-0.1-0.2-0.1-0.4-0.2-0.7c-0.1-0.5-0.2-0.9-0.3-1.4l-1.9-8.3
			c-0.1-0.5-0.2-1-0.4-1.6c-0.2-0.9-0.4-1.8-0.6-2.8L51.8,420.6z M62.6,464.8C62.6,464.8,62.6,464.8,62.6,464.8
			C62.6,464.8,62.6,464.8,62.6,464.8c0,0-0.5-1.5-1.3-4l-3-10.5c3.9,0.5,11.1,1.3,18.1,1.9c4.6,0.4,9.8,0.8,14.4,1
			c1.9,0.1,3.6,0.2,4.8,0.2l0.7,0c0.1,0.3,0.2,0.5,0.2,0.5c0,0,0,0,0,0l1.2,3.6l-4.3,3.4c-4.2,3.4-8,6.5-11.2,9.3
			c-5.3,4.5-10.5,9.2-13.4,11.9l-2.2-5.7c-0.2-0.6-0.4-1.2-0.6-1.8c-0.1-0.3-0.2-0.7-0.3-1L62.6,464.8z M78,503.5l-5.8-12.9
			l-1.1-2.9l3.4-0.1c4.5-0.2,9.4-0.4,14.5-0.8c5.6-0.4,11.2-0.9,15.2-1.3l-0.5,0.5c-2.6,2.6-6.4,6.4-10.1,10.3
			c-4.9,5.2-9.8,10.7-12.3,13.6l-2.6-5.2C78.4,504.3,78.2,503.9,78,503.5z M86.1,519.3c-0.8-1.4-1.5-2.9-2.3-4.3l3.7-0.3
			c4.1-0.4,8.9-0.9,13.8-1.5c5.4-0.7,10.7-1.5,14.6-2.1l-0.5,0.6c-2.3,2.7-5.6,6.7-8.8,10.8c-4.2,5.3-8.2,10.7-10.5,13.8l-1.1-1.8
			c-0.3-0.4-0.5-0.8-0.8-1.2c-0.5-0.7-1-1.5-1.4-2.2L86.1,519.3z M110.5,557.2l-2.5-3.5c0,0,0,0,0,0l-2.5-3.5
			c-0.4-0.5-0.8-1.1-1.3-1.8c-1.4-1.9-3.1-4.3-4.9-7.2l3.6-0.7c3.9-0.8,9-1.8,14.2-3.1c8.3-2,16.5-4.2,19.4-5l0.3,0.4c0,0,0,0,0,0
			c0,0,0,0,0,0l2.3,3.2c-1.7,2.5-6.3,9.5-10.7,16.8c-2.4,4-5.2,8.6-7.5,12.6c-0.7,1.1-1.2,2.1-1.7,3L110.5,557.2z M132.6,583.5
			c-1.7-1.8-3.3-3.4-4.7-5.2l-4.8-5.6c3.7-1.4,10.3-3.8,16.7-6.4c5.8-2.3,10.8-4.5,13.3-5.5l0.7-0.3c-1.8,3.5-4.3,8.5-6.7,13.5
			c-2,4.2-4.2,9-6,13.2c-0.6,1.4-1.2,2.6-1.6,3.6L132.6,583.5z M153.7,604.2c-1.7-1.5-3.4-3-5.2-4.7l-4.9-4.7
			c3.4-1.5,9.9-4.3,16.1-7.2c4-1.9,8.5-4.1,12.4-6c0.2-0.1,0.5-0.2,0.7-0.4c-1.4,3.6-3.4,8.5-5.3,13.6c-1.5,4.1-3.3,8.9-4.7,13.2
			c-0.4,1.2-0.8,2.3-1.1,3.2L153.7,604.2z M183.7,627.9c-0.6-0.5-1.2-0.9-1.8-1.3l-3.5-2.5c0,0,0,0,0,0l-3.4-2.5l-8.6-6.8
			c3.4-1.9,9.7-5.5,15.8-9.1c4-2.4,8.4-5.2,12.2-7.6c1.3-0.8,2.4-1.6,3.3-2.2l1.3-0.9l0.4,0.3c0,0,0,0,0,0l3.1,2.2c0,0,0,0,0,0
			l-1.5,5.3l-1.8,6.6c-0.6,2.1-1.1,4.5-1.9,7.5c-1.6,6.7-3.1,13.6-3.9,17.5l-2.3-1.5C188.2,631.1,185.7,629.3,183.7,627.9z
			 M218.1,648.8c-1.8-0.9-3.6-1.8-5.4-2.8l-11.7-6.7c-0.8-0.4-1.5-0.9-2.2-1.4c-0.1-0.1-0.2-0.1-0.3-0.2l2.7-2.1
			c2.8-2.2,7-5.5,11.3-9.1c4.3-3.6,8.6-7.3,11.6-10l-0.1,0.7c-0.9,5.4-1.6,10.1-2.1,14.2c-0.9,7.1-1.6,14.4-2,18.2
			C219.3,649.4,218.7,649.1,218.1,648.8z M228.6,654c-0.4-0.2-0.9-0.4-1.3-0.6l-2.3-1.2l2.8-2.4c3.9-3.4,7.3-6.5,10.3-9.4
			c4-3.7,7.8-7.5,10.5-10.2l-0.1,0.8c-0.4,5.4-0.7,9.9-0.8,13.9c-0.3,6.7-0.4,13.5-0.4,17.3l-5.8-2.3L228.6,654z M271.3,670.8
			c-2.6-0.8-4-1.3-4.1-1.4c0,0,0,0,0,0c0,0,0,0,0,0l-8.8-3c-0.3-0.1-0.7-0.2-1-0.3c-0.6-0.2-1.2-0.4-1.8-0.6l-2.8-1.1l2.5-2.7l4.6-5
			l2.5-2.8l2.6-3c5.6-6.5,10.9-13.1,12.7-15.4l0.4,0.1c0,0,0,0,0,0c0.1,0,1.4,0.5,3.7,1.2c0.1,3,0.5,11.4,1.2,19.9
			c0.4,4.6,0.9,10,1.4,14.6c0.1,1.3,0.3,2.4,0.4,3.4L271.3,670.8z M299.3,678c-0.5-0.1-1-0.2-1.5-0.4l-7.2-1.7
			c2.2-3.3,6.1-9.1,9.8-15c2.5-3.9,5.2-8.4,7.5-12.3l0.4-0.7c0.6,3.9,1.5,9.4,2.5,14.8c0.8,4.5,1.9,9.7,2.9,14.2l0.9,3.8l-12.5-2.2
			C301.2,678.5,300.2,678.2,299.3,678z M334,683.4c-1.9-0.2-3.8-0.4-5.8-0.7c-1.1-0.1-2.1-0.3-3.2-0.4l-4.6-0.6c-0.1,0-0.1,0-0.2,0
			c1.9-3.2,5.5-9.3,8.8-15.3c2.6-4.7,5.1-9.5,6.8-12.9l0.2,0.8c1.1,4.2,2.4,9.1,3.5,13.3c1.8,6.5,3.8,13,5,16.6
			c-1.7-0.1-3.4-0.3-5.2-0.4C337.6,683.7,335.8,683.5,334,683.4z M381.3,684.6l-15.7,0.4l-15.2-0.4c0.4-0.9,1-2,1.5-3.3
			c1.9-4.2,4.1-9.1,5.8-13.4c3.3-7.8,6.3-15.7,7.3-18.5l0.4,0c0,0,0,0,0,0c0,0,0,0,0,0c0,0,0,0,0,0s0,0,0,0c0,0,0,0,0,0c0,0,0,0,0,0
			l3.8-0.1c1,2.8,4,10.8,7.2,18.6c1,2.5,2,4.9,3,7.2l4.2,9.3C383.1,684.5,382.2,684.5,381.3,684.6z M412.3,681.5
			c-0.5,0.1-1,0.1-1.5,0.2l-4.6,0.6c-1.1,0.1-2.1,0.3-3.2,0.4c-2,0.3-3.9,0.5-5.8,0.7c-1.8,0.1-3.6,0.3-5.4,0.4
			c-0.7,0.1-1.3,0.1-2,0.2c1.1-3.8,3-10.6,4.7-17.3c1.4-5.4,2.6-10.9,3.5-14.8c1.8,3.5,4.3,8.5,7,13.4c2.4,4.5,5,9.1,7.1,12.7l2,3.4
			C413.6,681.4,413,681.5,412.3,681.5z M441.8,675.8l-8.3,1.9c-0.5,0.1-1,0.2-1.6,0.4c-0.9,0.2-1.8,0.4-2.8,0.6l-9.3,1.7
			c0.8-3.6,2.4-10.5,3.7-17.2c0.9-4.5,1.8-9.5,2.4-13.6l0.1-0.8c2,3.3,4.9,7.8,7.9,12.3c2.5,3.7,5.3,7.9,7.9,11.6
			c0.8,1.1,1.4,2,2,2.8c-0.2,0.1-0.5,0.1-0.7,0.2C442.7,675.5,442.2,675.7,441.8,675.8z M475.7,665.5c-0.6,0.2-1.2,0.4-1.8,0.6
			c-0.3,0.1-0.7,0.2-1,0.3l-8.8,3c0,0,0,0,0,0c0,0,0,0,0,0c0,0-1.5,0.5-4,1.3l-10.5,3c0.5-3.9,1.3-11.1,1.9-18.1
			c0.4-4.6,0.8-9.8,1-14.4c0.1-1.9,0.2-3.6,0.2-4.8l0-0.7c0.3-0.1,0.4-0.1,0.5-0.2c0,0,0,0,0,0l3.6-1.2l3.4,4.3
			c3.4,4.2,6.5,8,9.3,11.2c4.5,5.3,9.2,10.5,11.9,13.4L475.7,665.5z M504,653.4c-0.4,0.2-0.9,0.4-1.3,0.6l-12.9,5.8l-2.9,1.1
			l-0.1-3.4c-0.2-4.5-0.4-9.4-0.8-14.5c-0.4-5.6-0.9-11.2-1.3-15.2l0.5,0.5c2.6,2.6,6.4,6.4,10.3,10.1c5.2,4.9,10.7,9.8,13.6,12.3
			L504,653.4z M533.6,637.1c-0.4,0.3-0.8,0.5-1.2,0.8c-0.7,0.5-1.5,0.9-2.2,1.4l-11.6,6.7c-1.4,0.8-2.9,1.5-4.3,2.3l-0.3-3.7
			c-0.4-4.1-0.9-8.9-1.5-13.8c-0.7-5.4-1.5-10.7-2.1-14.6l0.6,0.5c2.7,2.2,6.7,5.6,10.8,8.8c5.3,4.2,10.7,8.2,13.8,10.5L533.6,637.1
			z M556.4,621.6l-3.5,2.5c0,0,0,0,0,0l-3.5,2.5c-0.5,0.4-1.1,0.8-1.8,1.3c-1.9,1.4-4.3,3.1-7.2,4.9l-0.7-3.6
			c-0.7-3.5-1.8-8.9-3.1-14.2c-2-8.3-4.2-16.5-5-19.4l0.4-0.3c0,0,0,0,0,0l3.2-2.2c2.5,1.7,9.5,6.3,16.8,10.7
			c4,2.4,8.6,5.2,12.6,7.5c1.1,0.7,2.1,1.2,3,1.7L556.4,621.6z M582.7,599.5c-1.8,1.7-3.4,3.3-5.2,4.8L572,609
			c-1.4-3.7-3.8-10.3-6.4-16.7c-2.3-5.8-4.5-10.8-5.5-13.3l-0.3-0.7c3.5,1.8,8.5,4.3,13.5,6.7c4.1,2,8.9,4.2,13.2,6
			c1.4,0.6,2.6,1.2,3.6,1.6L582.7,599.5z M603.4,578.3c-1.4,1.7-3,3.4-4.7,5.2l-4.7,4.9c-1.5-3.4-4.3-9.9-7.2-16.1
			c-1.9-4-4.1-8.5-6-12.4c-0.1-0.2-0.2-0.5-0.4-0.7c3.6,1.4,8.5,3.4,13.6,5.3c4.1,1.5,8.9,3.3,13.2,4.7c1.2,0.4,2.3,0.8,3.2,1.1
			L603.4,578.3z M627.1,548.4c-0.5,0.7-0.9,1.3-1.3,1.8l-2.5,3.5c0,0,0,0,0,0l-2.5,3.4l-6.8,8.6c-1.9-3.4-5.5-9.7-9.1-15.8
			c-2.4-4-5.2-8.4-7.6-12.2c-0.8-1.3-1.6-2.4-2.2-3.3l-0.9-1.3l0.3-0.4c0,0,0,0,0,0l2.2-3.1c0,0,0,0,0,0l5.3,1.5l6.6,1.8
			c2.1,0.5,4.5,1.1,7.5,1.9c6.7,1.6,13.6,3.1,17.5,3.9l-1.5,2.3C630.3,543.8,628.5,546.3,627.1,548.4z M648,513.9
			c-0.9,1.8-1.8,3.6-2.8,5.3l-6.7,11.7c-0.4,0.8-0.9,1.5-1.4,2.2c-0.1,0.1-0.1,0.2-0.2,0.3l-2.1-2.7c-2.2-2.8-5.5-7-9.1-11.3
			c-3.6-4.3-7.3-8.6-10-11.6l0.7,0.1c5.5,0.9,10.1,1.6,14.2,2.1c7.1,0.9,14.4,1.6,18.2,2C648.6,512.7,648.3,513.3,648,513.9z
			 M653.3,503.5c-0.2,0.4-0.4,0.9-0.6,1.3l-1.2,2.3l-2.4-2.8c-3.4-3.9-6.5-7.3-9.4-10.3c-3.7-4-7.5-7.8-10.2-10.5l0.8,0.1
			c5.4,0.4,9.9,0.7,13.9,0.8c6.7,0.3,13.5,0.4,17.3,0.4l-2.3,5.8L653.3,503.5z M665.7,473.6c-0.1,0.3-0.2,0.7-0.3,1
			c-0.2,0.6-0.4,1.2-0.6,1.8l-1.1,2.8l-2.7-2.5l-4.4-4l-3.4-3l-3-2.6c-6.5-5.6-13.1-10.9-15.4-12.7l0.1-0.4c0,0,0,0,0,0
			c0-0.1,0.5-1.4,1.2-3.7c3-0.1,11.4-0.5,19.9-1.2c4.6-0.4,10-0.9,14.6-1.4c1.3-0.1,2.4-0.3,3.4-0.4l-3.8,13.5
			c-0.8,2.6-1.3,4-1.4,4.1c0,0,0,0,0,0c0,0,0,0,0,0L665.7,473.6z"/>
	</g>
		<path id="Capsules" style="fill:#536266;" d="M417.5,34.6c-2.2,10.3-11.7,17-21.2,15c-9.5-2-15.5-12-13.3-22.3s11.7-17,21.2-15
		C413.7,14.3,419.7,24.3,417.5,34.6z M329.7,11.9c-9.8,0-17.7,8.5-17.7,19.1S320,50,329.7,50c9.8,0,17.7-8.5,17.7-19.1
		S339.5,11.9,329.7,11.9z M256.8,27c-9.5,2-15.5,12-13.3,22.3s11.7,17,21.2,15c9.5-2,15.5-12,13.3-22.3S266.3,24.9,256.8,27z
		 M188.6,56.9c-8.9,4-12.7,15-8.4,24.6c4.3,9.6,15,14.2,23.9,10.2s12.7-15,8.4-24.6C208.2,57.5,197.5,52.9,188.6,56.9z M128.1,100.3
		c-7.9,5.7-9.3,17.3-3.1,25.8s17.6,10.8,25.5,5c7.9-5.7,9.3-17.3,3.1-25.8C147.4,96.8,136,94.6,128.1,100.3z M77.9,155.4
		c-6.5,7.2-5.5,18.8,2.3,25.9c7.8,7,19.4,6.9,26-0.4s5.5-18.8-2.3-25.9C96.1,148,84.4,148.1,77.9,155.4z M40.3,219.7
		c-4.9,8.4-1.4,19.6,7.7,24.8c9.1,5.3,20.5,2.7,25.3-5.8c4.9-8.4,1.4-19.6-7.7-24.8C56.5,208.7,45.2,211.2,40.3,219.7z M16.9,290.4
		c-3,9.3,2.7,19.4,12.7,22.7s20.6-1.6,23.6-10.9c3-9.3-2.7-19.4-12.7-22.7S19.9,281.1,16.9,290.4z M8.7,364.4
		c-1,9.7,6.6,18.5,17.1,19.6c10.5,1.1,19.8-5.9,20.8-15.6s-6.6-18.5-17.1-19.6C19,347.7,9.7,354.7,8.7,364.4z M16.1,438.5
		c1,9.7,10.3,16.7,20.8,15.6C47.3,453,55,444.2,54,434.5c-1-9.7-10.3-16.7-20.8-15.6C22.7,420.1,15.1,428.8,16.1,438.5z M38.7,509.5
		c3,9.3,13.6,14.2,23.6,10.9c10-3.3,15.7-13.4,12.7-22.7c-3-9.3-13.6-14.2-23.6-10.9S35.7,500.2,38.7,509.5z M75.6,574.2
		c4.9,8.4,16.2,11,25.3,5.8s12.5-16.4,7.7-24.8s-16.2-11-25.3-5.8S70.7,565.7,75.6,574.2z M125.1,629.8c6.5,7.2,18.2,7.4,26,0.4
		c7.8-7,8.9-18.6,2.3-25.9s-18.2-7.4-26-0.4C119.6,611,118.6,622.6,125.1,629.8z M185.1,673.9c7.9,5.7,19.3,3.5,25.5-5
		c6.2-8.5,4.8-20.1-3.1-25.8s-19.3-3.5-25.5,5C175.8,656.6,177.2,668.2,185.1,673.9z M253,704.6c8.9,4,19.6-0.6,23.9-10.2
		c4.3-9.6,0.5-20.6-8.4-24.6c-8.9-4-19.6,0.6-23.9,10.2C240.3,689.6,244.1,700.6,253,704.6z M325.7,720.5c9.5,2,19-4.7,21.2-15
		s-3.8-20.3-13.3-22.3c-9.5-2-19,4.7-21.2,15C310.2,708.5,316.2,718.5,325.7,720.5z M400.2,720.9c9.8,0,17.7-8.5,17.7-19.1
		c0-10.5-7.9-19.1-17.7-19.1c-9.8,0-17.7,8.5-17.7,19.1C382.6,712.4,390.5,720.9,400.2,720.9z M473.2,705.8c9.5-2,15.5-12,13.3-22.3
		s-11.7-17-21.2-15c-9.5,2-15.5,12-13.3,22.3S463.6,707.9,473.2,705.8z M541.4,675.9c8.9-4,12.7-15,8.4-24.6
		c-4.3-9.6-15-14.2-23.9-10.2c-8.9,4-12.7,15-8.4,24.6C521.8,675.3,532.5,679.9,541.4,675.9z M601.9,632.5
		c7.9-5.7,9.3-17.3,3.1-25.8c-6.2-8.5-17.6-10.8-25.5-5s-9.3,17.3-3.1,25.8C582.6,636,594,638.2,601.9,632.5z M652,577.4
		c6.5-7.2,5.5-18.8-2.3-25.9c-7.8-7-19.4-6.9-26,0.4s-5.5,18.8,2.3,25.9C633.9,584.8,645.5,584.7,652,577.4z M689.6,513.1
		c4.9-8.4,1.4-19.6-7.7-24.8c-9.1-5.3-20.5-2.7-25.3,5.8c-4.9,8.4-1.4,19.6,7.7,24.8S684.7,521.6,689.6,513.1z M713,442.4
		c3-9.3-2.7-19.4-12.7-22.7s-20.6,1.6-23.6,10.9s2.7,19.4,12.7,22.7C699.4,456.6,710,451.7,713,442.4z M721.2,368.4
		c1-9.7-6.6-18.5-17.1-19.6c-10.5-1.1-19.8,5.9-20.8,15.6s6.6,18.5,17.1,19.6C710.9,385.1,720.2,378.1,721.2,368.4z M713.8,294.3
		c-1-9.7-10.3-16.7-20.8-15.6c-10.5,1.1-18.1,9.9-17.1,19.6s10.3,16.7,20.8,15.6C707.2,312.7,714.9,304,713.8,294.3z M691.2,223.3
		c-3-9.3-13.6-14.2-23.6-10.9S652,225.8,655,235.1s13.6,14.2,23.6,10.9S694.2,232.6,691.2,223.3z M654.3,158.6
		c-4.9-8.4-16.2-11-25.3-5.8c-9.1,5.3-12.5,16.4-7.7,24.8c4.9,8.4,16.2,11,25.3,5.8C655.8,178.2,659.2,167.1,654.3,158.6z
		 M604.8,103c-6.5-7.2-18.2-7.4-26-0.4c-7.8,7-8.9,18.6-2.3,25.9c6.5,7.2,18.2,7.4,26,0.4C610.3,121.8,611.3,110.2,604.8,103z
		 M544.8,58.9c-7.9-5.7-19.3-3.5-25.5,5c-6.2,8.5-4.8,20.1,3.1,25.8c7.9,5.7,19.3,3.5,25.5-5C554.1,76.2,552.7,64.6,544.8,58.9z
		 M476.9,28.2c-8.9-4-19.6,0.6-23.9,10.2S452.5,59,461.4,63c8.9,4,19.6-0.6,23.9-10.2S485.9,32.2,476.9,28.2z M329.7,11.9
		c-9.8,0-17.7,8.5-17.7,19.1S320,50,329.7,50c9.8,0,17.7-8.5,17.7-19.1S339.5,11.9,329.7,11.9z"/>
	</path>
</g>
</svg>
