<?xml version="1.0" encoding="UTF-8" standalone="no"?>
<svg id="London" style="enable-background:new 0 0 474.8 459.8" xmlns="http://www.w3.org/2000/svg" xml:space="preserve" height="460px" viewBox="0 0 474.8 459.8" width="475px" version="1.1" y="0px" x="0px" xmlns:xlink="http://www.w3.org/1999/xlink">
<g id="Supports">
	<path id="Shadows" fill="#B1D5E5" d="m385 72.4h-3.2l2.9 1.3c1.8 0.8 2.5 2.9 1.7 4.6-0.6 1.3-1.9 2-3.2 2-0.5 0-1-0.1-1.5-0.3l-1.8-0.8 1.4 1.5c1.3 1.4 1.2 3.6-0.2 4.9-0.7 0.6-1.5 0.9-2.4 0.9-1 0-1.9-0.4-2.6-1.1l-1.1-1.2 0.5 1.5c0.7 1.8-0.3 3.8-2.1 4.5-0.4 0.1-0.8 0.2-1.2 0.2-1.4 0-2.8-0.9-3.3-2.3l-3-8.2h-0.2-0.2l-3 8.2c-0.5 1.4-1.9 2.3-3.3 2.3-0.4 0-0.8-0.1-1.2-0.2-1.8-0.7-2.8-2.7-2.1-4.5l0.5-1.5-1.1 1.2c-0.7 0.8-1.6 1.1-2.6 1.1-0.8 0-1.7-0.3-2.4-0.9-1.4-1.3-1.5-3.5-0.2-4.9l1.4-1.5-1.8 0.8c-0.5 0.2-1 0.3-1.5 0.3-1.3 0-2.6-0.8-3.2-2-0.8-1.8 0-3.8 1.7-4.6l2.9-1.3h-3.2c-1.9 0-3.5-1.6-3.5-3.5s1.6-3.5 3.5-3.5h3.2l-2.9-1.3c-1.8-0.8-2.5-2.9-1.7-4.6 0.8-1.8 2.9-2.5 4.6-1.7l1.8 0.8-1.4-1.5c-1.3-1.4-1.2-3.6 0.2-4.9s3.6-1.2 4.9 0.2l1.1 1.2-0.5-1.5c-0.7-1.8 0.3-3.8 2.1-4.5 1.6-0.6 3.3 0.1 4.1 1.4v-2.3c0-1.9 1.6-3.5 3.5-3.5s3.5 1.6 3.5 3.5v2.3c0.9-1.4 2.6-2 4.1-1.4 1.8 0.7 2.8 2.7 2.1 4.5l-0.5 1.5 1.1-1.2c1.3-1.4 3.5-1.5 4.9-0.2s1.5 3.5 0.2 4.9l-1.4 1.5 1.8-0.8c1.8-0.8 3.8 0 4.6 1.7 0.8 1.8 0 3.8-1.7 4.6l-2.9 1.3h3.2c1.9 0 3.5 1.6 3.5 3.5s-7 3.5-9 3.5zm-37 21.2l-1.4 6.7c-3.3 15.8-6.8 31.6-10 47.4l-4.9 23.7-4.9 23.8-4.8 23.8-4.8 23.8-4.7 23.8-4.7 23.8-4.6 23.8-4.5 23.8-4.4 23.8-4.4 23.9-4.2 23.9c-1.4 8-2.8 15.9-4.2 23.9l-4.1 23.9-3.9 24c0.4-1.3 0.7-2.6 1.1-4 12.6-61.6 78.6-383 80.3-384l-7-1.4zm109 381l-86.4-381h-0.2l-1.9 15.5 0.1 1.5h0.1c3 13.6 5.9 27.2 9 40.7l5.3 23.7 5.4 23.7 5.4 23.7 5.5 23.6c3.6 15.8 7.4 31.5 11.1 47.2l5.7 23.6 5.7 23.6 5.8 23.6c2 7.8 3.9 15.7 5.9 23.5l6 23.5c2 7.8 4 15.7 6.1 23.5l6.2 23.5c1.9 7.1 3.8 14.3 5.8 21.4l0.5 1.7c0-8-1-10-1-12z"/>
	<g id="Support_Base">
		<polygon id="Shadow" points="382 92.8 348 92.8 342 80.1 388 80.1" fill="#2C3E42"/>
		<polygon id="Highlight" points="382 92.8 388 80.1 354 80.1 358 92.8" fill="#536266"/>
	</g>
	<path id="Whites" fill="#fff" d="m374 53.4v-9.4l-1.1-0.6c-4.2-2.2-9.3-2.2-13.5 0l-1.1 0.6v9.6c-4.9 2.8-8.2 8-8.2 14 0 8.9 7.3 16.2 16.2 16.2s16.2-7.3 16.2-16.2c-1-6.1-4-11.4-9-14.2zm-12-6.8c2.5-0.9 5.2-0.9 7.7 0v5.3c-1.2-0.3-2.4-0.4-3.7-0.4-1.4 0-2.7 0.2-4 0.5v-5.4zm0 10.6c1.2-0.5 2.6-0.8 4-0.8 1.3 0 2.5 0.2 3.7 0.6v14.4c-2.5 0.6-5.2 0.6-7.7 0v-14.2zm4 21.6c-6.2 0-11.2-5-11.2-11.2 0-3 1.2-5.8 3.2-7.8v14.5l1.3 0.5c2.1 0.7 4.3 1.1 6.5 1.1 2.1 0 4.2-0.3 6.2-1l1.7-0.6v-14.8c2.2 2 3.5 4.9 3.5 8.1-1 6.2-6 11.2-12 11.2zm-89 379c-0.6 4-1.3 8-2 12 1-4 1-8 2-12l4.1-23.9-4 24zm84-347c-2.9 13.6-5.8 27.1-8.9 40.7l-5.2 23.7-5.3 23.7-5.3 23.7-5.4 23.6-5.4 23.6-5.5 23.6-5.6 23.6-5.7 23.6-5.7 23.6-5.8 23.6-5.9 23.5c-2 7.8-3.9 15.7-6 23.5l-6.1 23.5c-2.1 7.8-4.1 15.6-6.3 23.4 0.4-1.3 0.7-2.6 1.1-4 12.6-61.6 78.6-383 80.3-384h-6.9l-1.4 6.7 1.4-7.7h6.9 20.7 6.9l1.4 7.7c3.4 15.8 6.9 31.6 10.2 47.4l5 23.7 5 23.8 4.9 23.8 4.8 23.8c3.3 15.8 6.4 31.7 9.5 47.6l4.7 23.8 4.6 23.8 4.5 23.8c1.5 8 3 15.9 4.4 23.9l4.3 23.9c1.4 8 2.9 15.9 4.3 23.9l4.1 23.9c0.9 5.7 1.9 11.5 2.8 17.2l-86.4-381h-0.2l-1.9 15.5 0.1 1.5h0.1l-8-7zm16 40l5.3 23.7-5-24c-1.4-6.2-2.8-12.4-4.1-18.6 2 7 3 13 4 19zm80 328l0.5 1.7c-0.2-1.5-0.5-2.9-0.7-4.4 0.2 1.5 0.5 3.1 0.8 4.6-2.2-7.8-4.3-15.6-6.4-23.4 1 6 3 13 5 20z"/>
</g>
</svg>
