<?xml version="1.0" encoding="UTF-8" standalone="no"?>
<svg xmlns="http://www.w3.org/2000/svg" xml:space="preserve" viewBox="0 0 326.8 180.7" version="1.1" y="0px" x="0px" xmlns:xlink="http://www.w3.org/1999/xlink" enable-background="new 0 0 326.8 180.7">
<path id="Base" d="m335 87.8c-5.3-2.2-9.9-5.5-15.2-8.1-3.4-1.6-5.2-5-7-8.2-1.9-3.4-4-4.9-7.6-6.7-2-1.1-3.7-1.5-5.2-3-0.5-0.5-0.3-1.2-0.9-1.8-1-1.1-2.9-1.4-4-2.3-3.7-2.9-4.7-3.9-9.6-5.3-2.5-0.7-4.5-2.1-6.9-3.3-4.1-1.9-9.4-3.5-12.8-6.3-1.1-1-3.3-2.3-4.7-3.3-2.2-1.5-2.6-2.8-4.1-4.6-2.1-2.4-5.9-3.6-8.6-5.1-3.3-1.8-7-1.6-10.7-3.2 0.6-3.5-4.1-2.8-5.8-4.4-1.5-1.5-0.5-2.9-2.4-4.5-1.3-1.1-3.5-1-4.8-2.1-0.5-0.4-0.5-1.4-0.9-1.9-1.6-1.7-3.5-2.6-5.1-4.1-1.2-1.1-1.5-2.6-2.6-3.5-1.5-1.4-4.5-1.9-6.4-2.9-1.6-0.9-5.4-2.3-5.9-3.7-0.4 0.2-1.2 0.5-1.6 1 0.4 0.1 0.4 0 0.8 0.1-0.2 2.4-4.5 1.6-6.1 3.5-0.7 0.8-0.2 2.2-0.6 3.2-1.1 2.6-4.6 4.7-6.6 6.6-2.6 2.4-5.1 4.6-6.9 7.3-1.1 1.7-4.3 3.7-4.1 5.8-1.9 1.3-4.4 1.4-6.4 2.6-0.9 0.5-1.7 1.3-2.6 1.8-2.1 1.2-3.6 2.5-5.3 3.8-1.9 1.5-4.6 1.7-6.3 3.6-1.5 1.8-1.1 3-3.9 3.4-4.1 0.5-8.3 0.2-12.6 0.8-2.3 0.4-5.7 0.3-7.8 1.2-1.6 0.7-1.5 2.6-2.8 3.1-2.1 0.8-2.6-2.8-4.9-2-1.6 0.6-1.1 2.1-1.1 3.7-7.1 1.8-13.2 9.8-18.4 14.3-0.9 0.7-2.5 2.4-3.5 2.8-1.3 0.5-2.1-0.3-3.3-0.2-2.9 0.4-5.1 4.1-7.3 6-1.4 3.8-6.4 7.2-10.3 11.6-3.6 4-7.3 8.3-12.5 10.4s-10.2 4.1-15.2 6.7c-3.1 1.7-4.9 3.2-8.3 4-2.7 0.6-4.2 1.6-6.5 2.9-1 0.6-1.5 1.2-2.7 1.2-1 0-2-1.3-2.8-1.2-1.7 0.4-3.5 4.4-4.9 5.7-4.2 3.8-8.5 7.4-10.3 12.8-0.9 2.7-2.9 4.3-4.2 6.7-1 1.9-1.2 4.2-2.2 6.3-2.5 4-4.8 12-9.5 15l15.6 23.5 313 15.6 6-106z" fill="#E8E8E8"/>
<path id="Lighting" d="m190 15.1c0.4-0.3 0.8-0.7 1.2-1-0.4 0.4-0.7 0.8-1 1.2v-0.2zm-48 32.4c0.4-0.1 0.7-0.1 1.1-0.2 1.3-0.4 1.3-1.4 2.9-1.6 1.7-0.2 3.5 0.3 5.2 0.3 3.8 0 4.2-1.2 5.4-4.2-0.5 0.8-1 1.4-2.8 1.6-4.1 0.5-8.3 0.2-12.6 0.8-2.3 0.4-5.7 0.3-7.8 1.2-0.7 0.3-1 0.8-1.3 1.3 1 0 2.2 0.2 3.5 0.4 4 0.3 6 0.8 8 0.4zm32 78.5c0.4 0 1.3-1.1 2.2-2.5-0.3 0.2-0.7 0.4-1.2 0.6-1-1.5-0.6-5.8-2.8-5.7 0 1 0 7 2 7zm-24 23c-3.5 2.9-9 4.3-13.2 6-0.4 0.2-0.8 0.3-1.2 0.5 1.1-0.3 2.3-0.7 3.4-0.9 2.7-0.5 5.1-0.3 7.5-1.2 3.9-1.4 4.6-3.4 4.9-5.9 0 0-1 0-1 1zm-40 19c8.1-5.3 16.3-9.1 25.2-12.9-3.9 1.2-7.7 3.1-11.4 4.8-5 2-9 5-14 8zm24-61c-0.4 1.6-1.8 2-0.9 3.7 0.4 0 0.7-0.1 1-0.3-0.6 1.5-1.2 3.2-1.3 4.8 5.2-0.7 4.7-12 9.9-12 0.7 1.8 0.3 3.9 1.1 5.8 1 2.7 3.2 4 4.7 6.3 1.2 2 0.4 4.2 1.5 6 0.7 1.2 2.3 1.4 3.4 2.1 2.7 1.7 4.2 3.4 4.1 6.7-0.2 4.9-4.2 8-5.1 12.4-0.3 1.5-0.4 2.9-0.5 4.1 2.1-2.8 2.9-6.6 4.2-9.7 2.6-6 3.3-10-0.6-15.9-2.9-4.4-5.2-9.2-8.4-13.4-3-4-6.6-7.1-9.9-10.5 0 2.4-2.4 5.1-3.1 7.4v2zm-6-21.4c0.1 0.2 0.1 0.4 0.2 0.6 1-0.2 1-0.4 0-0.6zm8 10.8c-0.2 0-0.3-0.1-0.3-0.1-0.2 0.1-0.3 0.1-0.5 0.2 0.4 0.4 0.7 0.8 1.1 1.2 0-0.4 0-0.9-1-1.3zm-9-7.6c-0.7 1.7-0.3 3-0.8 4.7-0.6 2.2-2.5 4.3-3.2 6.5-0.8 2.4-1.9 4.7-1.6 7.3 1.5 0.7 2.6 0.1 3.1-1.5 0.5 1.3-0.5 2.7 0 4 1.8-0.6 2.6-2.7 3.1-4.4 0.2 1.9-0.5 3.8-0.1 5.6 2.3-1.5 6.2-10.6 6.4-13.3 0.3-0.4 0.8-0.8 1.3-1.1-2.7-2.9-5.1-6-6.7-10.1 0-0.1-0.1-0.1-0.1-0.2 2-0.2 1 0.2 0 1.5zm-95.1 22.2c-0.6-0.3-1.5-0.9-2.4-1.3 0.6-0.7 1.1-1.2 1.7-1.3 0.8-0.2 1.8 1.2 2.8 1.2 1.2 0 1.7-0.6 2.7-1.2 2.3-1.3 3.9-2.3 6.5-2.9 3.4-0.8 5.2-2.3 8.3-4 5-2.7 10-4.6 15.2-6.7s8.9-6.4 12.5-10.4c3.8-4.4 8.8-7.9 13.1-11.7 2.2-1.9 4.4-5.6 7.3-6 1.1-0.2 2 0.6 3.3 0.2 1-0.4 2.7-2 3.5-2.8 5.2-4.5 11.4-12.5 18.4-14.3v-0.9c0.9 1.8 1.8 3.6 2.3 5.5-1.9 0.5-2.5-1.5-4.3-1.4-0.3 2.2 2.7 2 2.2 4.3-1-0.2-1.6 0-2 0.3 0.2 1.7 0.2 3.4 0.3 4.9 0.4 1.1 0.9 2 1.3 2.6 1.2-0.4 2.6-0.2 3.4 0.9 0.1-1.5-0.4-3.2-0.2-4.5 0.2-1.9 1.2-3.1 0.6-5 2.3 0.9-1.1 9.2 2.8 8.9 0.1-1.1 0-2.3 0.1-3.4 2.8-0.5-0.3-2 0-2.9 0.4-1.4 2.3-1.5 3.7-1 1.3 0.5 2.4 1.8 3.7 2.3 1.7 0.7 2.8 0.9 4.3 2.1 2.1 1.7 5.6 3.7 7 6.1 0.7 1.2 0.8 2.9 1.4 4.4 0.6 1.4 1.6 2.2 1.8 3.7 1.1-1.5-0.2-3.3 1.6-4.5 2.5-1.8 3.4 1 4.5 2.8 2 3.4 3.6 7 6.1 10.2-0.9 0.8-1.1 2-0.9 3.1-2.1 0.2-4.1 2.6-3.7 4.6 4.5 0.8 2.8-9.4 7.2-3.4 1.9 2.6 0.7 1.4 0.1 4.4-0.5 2.3 0.8 3.8-1.1 5.8 2.2-1.6 1.9-5.5 5.7-4.9 0.5 2-2.3 3.8-0.8 5.2-1.8 0.8-2 2.7-0.4 3.8 1.1-1.4 1.2-6.1 3.7-5.5 0.1 1.2 1.3 2.2 1.4 3.2 0.2 1.7-1 2-1.1 3.8 0 1.2 1.2 1.5 1.2 2.4-0.1 1.5-1.7 2.7-1.7 4.5 1.5 0.1 4.6 1.2 4.8 3 0.1 1-0.9 0.9-1.1 1.7-0.3 1-0.5 2.5-0.9 3.6 0 0.1 0 0.1-0.1 0.2 0.5-0.9 0.9-1.7 0.9-2 1.5 0.3 2.1 1.9 2.1 3.4 2.2 0.1 0.6 3.5 1.5 5 1.3 2.5 4.1 2.3 3.6-0.9s-3.2-6.3-3.6-9.7c-0.3-2.7 0.9-5.4 1.7-7.7 1.5 1.6 3.2 3.7 5.2 4.8s3.7 1.4 5.4 2.9c1.9 1.7 3.4 3.7 5.4 5.3-4.2 0.5-5.8-3.3-9.3-3.6-1.7-0.1-2 0.4-1.9 2.4-2.1 0.3-1.4-2.1-1.1-3.4-0.8 0.7-1 2-1.2 3.1-0.4-1.6 0-3.5-0.5-4.9-0.5 1.9-0.7 5.1-0.2 7 0.4 1.7 2.1 3.1 2 4.9-0.2 4.1-4.8 3.4-6.7 0.6-2.6 0.9-2.7 3.5-6.4 2.6-2.2-0.6-3.4-2.6-5.1-4-0.6-0.5-2.5-2.4-3.3-2.4-1.1 0-1.1 1.4-2 1.8-3.3 1.6-4.5-0.6-4-3.9 0.4-3.3 0.6-4.9-0.3-8.4-0.9-3.1-2.3-6.1-3.2-9.2-0.8-2.9-0.8-5.3-2.6-8-1.2-1.8-1.7-2.2-1.8-3.8-0.2-3.1 1.5-6.1 1.2-9.3-0.3-3.1-2-7.9-4.3-10-0.3 2.6 1.2 4.3 1.2 6.7-1.6-1.9-3-3.6-5.6-3.7-1.3 3 1.1 4.5 2.6 6.6 1.1 1.7 1.6 3.6 2.2 5.4 0.4 1.2 2.1 4.4-0.4 2.8-0.8-0.5-1.6-3.3-2.2-4.1-0.8-1.1-1.8-2-2.6-3.1-2.1-3.1-3.4-6-4.6-9.4-0.9-2.5-2.8-3.9-5.4-4.6-0.2 0.3-0.5 0.7-0.6 0.8-0.2-2.8-2.7-3.1-4.6-3.1 0.4 0-2.1 0.5-2 0.4-0.8 0.2-1.8 0.4-2.8 0.5l0.6 1.5c2 4.8 1.7 10.1 3.5 15.1-0.1-0.2-0.3-0.5-0.5-0.8-2.7-3.5-4.3 1.3-4.9 3.7-0.5 1.9-0.6 11.9-4.3 9.3-2-1.4-0.5-4.8 0-6.6 0.9-3 0.6-5.4 0.9-8.4 0.3-2.6 2.2-6.5 1.2-9-3.9 1.5-0.2-5.1-3.8-3.7-1.9 0.8-0.9 2.7-1.5 3.9-0.6 1.5-2.8 2.8-3.2 4.3s2.9 10 0 10c-1.7 0-4.3-4.3-5.2-5.6-1.9-2.5-3.1-6.4-5.9-8-1.8 1.8 1.3 2.9 2.1 4.5 0.6 1.3 0.3 2.7 1.1 4.1 1.2 2.2 3.7 3.7 5.1 5.8 1.2 1.9 0.9 2.2 1.4 4.3 0.5 2.2 1.5 2.4 2.7 4.2 1.7 2.4 3.5 5.4 4.8 8.1 1.9 4.1 2.5 7.9 3.8 12 0.6 1.9 2.4 3.7 2.9 5.5 0.4 1.4-0.2 2.5-0.1 3.9 0.2 2 4.8 7.7 2.7 9.6-2.2 2-4.6-4.6-5.4-5.9-2.3-4-4.7-7.9-6.8-12.1-1.8-3.6-2.9-5.1-6.2-7.5-3.4-2.4-7-7.7-11.4-7.9 0.8 1.4 2.5 1.5 3.3 2.9 0.9 1.7 0.3 3.3 1.6 5.1 1.9 2.6 3.9 4.3 5.5 7.4 0.9 1.6 1.2 3.3 2.1 4.9 1.1 1.9 2.9 3.4 4 5.2 0.4 0.6 0 1.5 0.4 2.2 1.2 2.1 4.4 3 5.6 5.3 1.6 3 0.5 5.7-2.4 7.5-6.2 3.7-17.3-0.2-21.1-5.7-3-4.2-2.4-11.5-4-16.4-1.5-4.5-4.3-5.1-8.2-6.2-6-1.8-6.5-11.1-12.5-12.2 1.2 3.1 3.4 5.1 3.7 8.4 0.4 3.8 1.9 5.1 3.9 8.1 1.9 2.9 5.1 5.4 6.6 8.6 1 2.2 1.9 5.4 2.6 7.9 0.9 3.3 0.1 10.2-4.7 9.3-2.2-0.4-3.2-2.8-4.3-4.4-1.5-2.1-3.4-3.8-4.9-5.9-3.8-5.4-10.4-10.2-11.5-16.8-0.8-4.6 0.2-3.8 4-4.2 0.7-2.2 0.2-4.5-0.2-6.6-0.6-3-1.6-7.7-5.2-5.7-2 1.1-3.4 2-5.5 3.1-4 2.1-1.1 4.4 0.6 7.8 1.5 3.1 3.7 13.6-2.6 9.5-1.2-0.8-3.1-2.3-4-3.4s-1.4-4.6-2.3-5.2c-2.2-1.3-3.7 2.9-6 2.8-1.1-0.1-2.6-1.7-3.6-2.3-2.2-2-4.7-3-6.9-4zm142 15c0.4 0 1.3-1.1 2.2-2.5-0.3 0.2-0.7 0.4-1.2 0.6-1-1.5-0.6-5.8-2.8-5.7 0 1 0 7 2 7zm-162 32c2.4-0.5 12.1-2.2 10.5-6.3-0.8-1.9-5.1-2.3-6.5-3.9-1.4-1.5-1.8-3.4-2.7-5.2-0.5-1.1-1.9-2.8-1.5-4.1 0.9-2.8 3.9-0.6 5.9-0.6s4.3-2 6.2-1.5c1 0.3 1.1 1.5 2 1.9 1.4 0.6 2.7 0.8 4.2 0.8 0 1.5-0.3 3.7 0.7 5 0.7 1 2 0.6 2.8 1.6 0.8 0.9-0.1 3.1 1 4.3 1.2 1.3 2.8 0.5 4.1 1.6 1.6 1.3 0.6 3.4 2.6 4.5 0.5 0.3 3.6 0.5 4.2 0.4 6.2-1 0.7-3.4 0.9-6.1 9.1-0.5-3-4.6-2.6-9 5.2-0.7 6.6 4.3 10.2 5.8 1.4 0.6 5.9 1.1 5.8-1.2-0.1-2-4.5-3.3-5.8-4.4-1.4-1.3-2.2-2.6-3.8-3.7-2-1.3-4.8-2-6.6-3.5-1.3-1-1.9-2.3-3.2-3.2-2.9-1.9-8.6-3.4-8.7-8 9.1-0.5 13.7 5 20.6 9.6 2.4 1.6 4.6 4.1 7.2 5.4 1.7 0.9 5.8 1.7 6.6-0.9 0.9-2.9-10.5-8.5-12.7-10-2.4-1.7-4.2-4.2-6.6-5.9-1.8-1.3-3.9-2.6-5.9-3.8-3.3-2-9-2.8-11.7-5.9-0.9 1.2-1.7 2.6-2.4 3.2-4.2 3.8-8.5 7.4-10.3 12.8-0.9 2.7-2.9 4.3-4.2 6.7-1 1.9-1.2 4.2-2.2 6.3-2.6 5-4.9 13-9.6 16l0.4 0.5c1.6 0.1 2.6 1.5 4.3 1.8 2 1 4.8 0 6.8 0zm118-109c0.3 1.1 1.4 1.7 2.5 0 0.1 0.4 0.3 0.7 0.4 1.1 1.9-0.9 3.8-2.1 6-1.3 1.3 0.4 4.3 3.5 3.5-0.9-2.2 0.4-4.2-0.1-6.4-0.4-1.3-0.2-2.5-0.4-3.5-0.4-0.4 0.7-0.7 1.5-1.5 1.8-0.5 0.2-1 0.1-1.3-0.1-0.2 0.5-0.3 1.1-0.3 1.9l1-1.7zm22-2.6c-1.7 0-3.5-0.5-5.2-0.3-1.6 0.2-1.6 1.2-2.9 1.6-0.3 0.1-0.7 0.2-1 0.2 1.1 1.3 2 0.4 3.4 0.1 0.5-0.1 0.7-1 1.4-1.1s1.2 0.3 1.9 0.3c1.4 0 3.4-0.6 4.6-0.5 1.8 0 3 1.6 5.1 0.8 0-1.1-0.3-2.1-0.5-3.1 1.5-0.3 11.6 0.2 11.8-1.6 0.4-3.2-8.9-2.5-10.4-2.8 2-1.2 6.2-0.9 8.3 0 0.2-0.7 0-1.6-0.3-2.2-1.2 0.1-2.3 0.1-2.9-0.9-0.3 0.1-0.6 0.1-0.8 0.2-1.9 1.3-4.4 1.6-5.9 3.3-0.6 0.6-0.9 1.2-1.1 1.7-1 3.1-2 4.2-5 4.3zm-10 1.5zm52 24c-4.7-1.7-6.2-6-7.7-10.2-1-2.6-5.4-8.4-8.4-7.8 1.2 8.5 6.4 21.2 16.5 20.2v-2.2zm-21-24.1c-0.1-0.3 0-0.6 0-0.8l-0.6 0.9c-0.1-1.2 0.1-2.2 0.6-3.1-2.1 0.9-5.1 1.7-5.1 4.5 3.1 0.4 6.9 4.7 9.5 6.4-0.1-1.8-2.1-3.6-1.7-5.5 0.3-1.7 2.4-1.7 2.3-3.7-3-0.4-3 0.8-5 1.3zm0-16c1.7 0.3 2.8-0.9 4.3-0.8 1.7 0.1 2.1 1.6 3.6 1.9 3.5 0.6 3.5-4.1 6.7-4.6 2.6-0.4 0.8 0.3 2.3 1.9 1.9 1.9 1.3 0.7 3.7 0.5 4.5-0.4 5 3.6 5.4 7 0.2 1.5-1 3.5-0.6 4.8 0.5 1.6 2.3 1.4 3.4 2.5 1.4 1.3 1.8 3.6 2.9 4.9 0.3 0.3 1.3 0.2 1.7 0.8 0.5 0.8 0.2 1.8 0.3 2.6 0.3 2 0 2.1 1.8 4 1.5 1.6 2.8 3.3 4 5.2 2.5 3.8 4.9 7.8 7.7 11.2 1.7 2 1.5 4.3 2.9 6.4 1.6 2.3 2.4 2.3 3.1 5.4 0.8 3.5 3.7 8.6 6.2 11 0.4-3.5-0.3-7.8-1.1-11.3-0.7-3.2-3.2-6.3-3.4-9.5 0.8 0.4 1.3 1.5 1.9 2 0.4-4.2-2.7-7.7-3.4-11.9-0.5-3.1-1.3-6.8-2.3-9.7-1.4-3.7-4.1-5.2-6.8-7.6-3.3-3-3.1-5.8-3.7-9.8-0.4-2.7-2.3-8.8-5.7-9-0.7 2.1-3.4 10.4-4.1 2.9-0.2-2.4 1.6-3.1 1.9-5.1-1.7-0.8-4.2-0.6-5.2-2.4 0.7-0.3 7.5 1.9 5.2-1-1.4-1.8-6.6 0.8-7.5-2.1 2.1-0.9 3.7 0.6 5.7 0.5-0.1-0.6 0-1.4-0.2-2 0.2 0.4 0.9 0.9 1.1 1.2 0-0.6 0.4-1.4 0.3-2.1 0.3 0.2 0.7 0.3 1.1 0.6 0.5-0.7 0.5-0.5 1.2-1 0.2-0.3 0-0.7 0.1-1 0.3 0.3 0.8 0.5 1.1 1 0.1-2.3-3.6-4-4.7-6-0.4-0.7-2.5-5.1-2.2-6.1 0.7-2.2 4.9 0.8 6.4 1.4 2.9 1.2 4.5 2.2 5.7 5.2 0.6 1.5 1.4 5.5 4.4 3.8s-0.7-4-2.1-5.2c-4.8-4-8.6-6-14.7-7.5-1.5 2.5-4.1 4.4-6.6 6.4-1.1 1.3-2.7 2.4-4 3.5-0.4 0.4-0.7 0.8-1 1.2 0-0.1-0.1-0.1-0.2-0.2l-0.1 0.1c-2.6 2.4-5.1 4.6-6.9 7.3-1.1 1.7-4.3 3.7-4.1 5.8-1.7 1.1-3.8 1.4-5.7 2.2 2 0.1 1 0.3 2 0.7zm70 55.2c-0.8 0.1-1.7-0.2-2.5-0.1-0.1-1.3 0.9-2.2 1.1-3.4-2.1 0-1.4-2.5-1.4-4.1 1.6-0.3 5.4 0.8 6.6 1.4 0.3-1.7-3.2-6.4-4.5-6.6-0.5 1.1 0.6 4.1 0 4.5-1.9 1.2-2.3-2.3-2.6-3.1-0.6-1.9-4.1-6.4-2.6-8.4-0.7 0.7-1.1 1.7-1.1 2.8 0 1.9 0.7 0.7 1.4 2.1 1 1.9-0.4 3.7 0.8 5.5-2.1 1.8-4.1 4.2 0.3 3.9-0.2 2.9 3.1 11.3 5.8 13.1 2.3 1.6 3.3-0.3 2.4-2.5 1-2-2-2.6-2-5.1z" fill="#fff"/>
<path id="Shadows" d="m78.2 136c1.2 3.5-1.3 6.5-5 5.1-3.3-1.2-2.1-4.2-4.5-6.2-2.7-2.2-6-2.7-8.7-4.9-2.3-1.9-4.3-2.7-6.6-4.7-2.2-1.8-4.6-2.7-6.8-4.6-1.8-1.7-2.6-2.1-4.8-3.1-1.3-0.6-1.7-2-2.7-2.6-1.6-1-1.8 0.3-3.5 0-1-0.2-2.6-1.8-3.5-2.3-1.4-0.8-2.1 0-2.7-2-0.1-0.3-0.1-0.7-0.1-1 0.5-0.6 0.9-1.1 1.4-1.3 0.2 0 0.3 0.1 0.5 0.2 2.4 0.9 5 3.9 7.5 4.4 1.8 0.3 3.1-0.3 4.7-1.2 1.1-0.6 2.6-3 3.2-3.3 2.7-1.2 5 3.5 6.2 5.2 2.3 3.3 3.5 7.6 8.5 6.6-0.6-3-3.3-5.5-4.2-8.2-1.8-1.3-4.1-3.8-4.6-4.8-1.1-2.6 0.2-8.1 3.6-5.2 0.5-0.5 6.5-2 7.5-2.4 2.4-1 4.6-4.6 7.8-3.9 0 4.1-6.9 0.9-4.1 7 0.5 1.1 2.4 3.4 1 4.6-1.5 1.3-3.6-1.3-5.2-0.7-3 1.1 0.5 7.3-4.3 6.3 2 2.6 4.4 6.8 3.5 7.9 4.8-0.1 5.5 2.7 7.9 6.1 2.2 4 6.9 6 8 9zm19.1 1c-0.4-1.3 0.1-2.7-0.3-4-0.8-2.5-3.2-4.8-5.1-6.4-0.8-0.6-2.4-1.1-3-2.2-0.6-1.3 0.3-2.8-0.8-3.9-1 0.8-1.3 2.2-1.2 3.5-2-0.1-2-3-4.3-2.5 0.1 2.4 2.9 3.2 4.2 4.9 1.4 1.8 1.4 3.6 1.8 5.7 0.6 3 2.2 4.3 3.2 7.2 1.2 3.6 1.5 6.9 4.1 9.8-0.2-1.3-0.1-0.9 0.1-0.6 3.4-2 6.6-3.2 3.9-7.8-0.9-2-2.1-2-2.6-4zm-2.6-49.9c0-0.1 0-0.2-0.1-0.4-0.1 1-0.1 2-0.2 3 0.2-0.8 0.4-1.7 0.3-2.6zm9.3 1.7c-0.5 0.8-0.8 1.8-0.9 2.3 0-0.7 1-1.5 1-2.3zm-9.6 0.9c-0.3 1.3-0.8 2.6-0.9 4 0.6-1.3 0.8-2.6 0.9-4zm29.6 22.3c-0.3-2.5-1.6-3.2-2.3-5.2-0.5-1.4 0.3-3.1-1.1-4.6-2.3-2.6-3.9-1.9-3.4-5.7 0.1-0.9 0.8-1.6 0.5-2.7s-2-1.6-2.3-2.4c-0.6-2 1.8-4.8 2-7 0.2-2.5-0.2-5.3-1.2-7.4-0.2-0.4-1.2-0.4-1.4-1-0.3-0.7 0-1.8 0-2.6-0.2-1.7-0.3-2.5-0.9-4.1-0.7-1.8-0.7-2.3-0.7-3.9 0-1.2 1.4-3.5-1.3-3.1-0.9 2.5-1 3.8-3.8 2.1 0 0.6-0.4 1.5-0.3 2.3-0.6-0.1-1.4 0.2-2 0.1-1.1 2.4 1.8 5.9 2.8 3.2-0.6 0.1-1.4-0.1-2-0.1-0.3-1.1-0.1-2.1 1.1-2 1.4 0.1 1 1.8 1.4 2.5 1.2 2.1 1.5 3.9 2.2 6.1-1.1 0.3-1.6 1.2-1.3 2.3 0.9-0.2 1.7-1.1 2.5-1.4 0.2 2.6 1.9 5.6 0.9 8-1.8-2-4.3-5.1-5.4-7.5-1.2-2.7-2.7-6.6-5.4-8.1-0.2 0.7-0.6 0.9-0.7 1.7-1.1-0.6-2.7-0.6-4-0.2-0.3 1.9 2.9 3.8 0.4 4.4-1.6 0.4-1.9-2.3-3.6-0.1-1.1-2.2-0.2-5.4-0.6-4.1-0.6 0.8-1.4 1.9-1.5 2.9-0.1 1.3 0.8 1.9 0.9 2.5 0.3 2.1-1.1 2.7-1 4.9 0-0.2 1.2 2.2 1.2 2.4 0 0.1 0.4 1.6 0.5 2.3 0.1-1.3 0.3-2.7 0.7-3.9 0.6-1.8 2.9-6 4.8-6 1.1 2.2 2.7 3.8 3.9 6 1 1.7 0.6 3.9-0.2 6.1 0.4-0.7 0.9-1.3 1.4-1.4 2-0.5 0.8 0.4 1.7 1.5 0.3 0.3 1.9 1.9 2 2.3 0.2 1.5-1.4 1.4-1.5 2.7-0.1 1.5 2.3 4.6 2.6 6.4 0.5 2.4 0.1 5.6 0.7 7.8 1.1-2.4 1.3-10-0.5-12.1 1 0 4 4.6 4.9 5.8 1.9 2.5 0.4 3 0.9 6 0.9-0.3 1.3-1.4 1.7-2.3 1.7 1.7 2.4 4.6 2.1 7 0.3 0 0.7 0.1 1.1 0.1 3.4 8.2 6.2 16.6 9.6 24.8-0.1-5.5-3.4-10.9-5-16.1-3-4-3-7-4-10zm173 28c-4.5 3.1-11.3 2.8-16.4 3.2-5.6 0.4-11.2 0.6-16.7 1.5-9.2 1.5-20.7 3.2-28.5 8.4-8.2 5.4-13.6 14-22.6 18.5-6.2 3.2-13.9 4.8-20.9 4.9-6.1 0-11.9-0.8-17.1-4.1-5.6-3.6-10.8-7.9-16.5-11.6-6.2-4-13-7.1-11.2-15.5 0.6-2.7 2.3-7.1 4.2-9.2 0.7-0.7 2-1.1 2.5-1.9 0.3-0.5-0.2-1.6 0-2.2 0.2-0.3 1.6-1.3 1.6-1.3 0.2-2.7-4.7-4.4-6-7-0.8-1.6-1-2.7-2.2-4.2-1.7-2.1-1.4-2.1-2-4.5-0.5-1.7-0.6-2.5-0.9-4.3-0.3-2.2-0.6-1.9-1.8-3.3-0.9-1.1-1.4-2.3-2.4-3.4-0.7-0.8-1.9-1.7-2.5-2.4-0.7-0.9-2.1-3-2.4-3.9-0.4-1 0-2.5-0.5-3.6-0.8-1.6-4.6-3.7-6-5.2-0.6-0.6-2.4-2.2-2.7-2.9-0.7-1.7 0.2-2.4 0.6-4.2 1.1-5-4.2-9.1-2.6-14 0.7-1.7 0.4-0.1 0.3 1.4 1.3-2.2 5.3 0.3 7.5 0.6-3.7-2.2-0.7-8.6-2-11.9-2.3 1.3-0.8 4.9-0.9 7h-1c0.8 0.8 1.2 1.9 0.8 2.9-2.5-0.4-3.6-1.5-5-3.5-0.4 0.9-0.2 2.3-0.5 3.3-0.5 0-1.6-0.4-2-0.7-0.5-2.5 0.3-5.5 0.2-8.1-2.7 0.7-3.3 6.9-6.6 4.9 0.5-1.3 1.1-0.8 1.8-1.8 0.8-1.2 0.7-1.8 1.9-3 1.5-1.5 5.1-3.3 3.8 0.8 4.9 0.9 1.2-4 1.3-5.5 1.5 0.3 2.3 1.8 4 2.3-0.7-1.7-1.9-3.9-2.8-5.9 0.1 0 0.2 0 0.2-0.1 0-0.6-0.1-1.1-0.1-1.6 2.3 0.3 3.7 2.3 5.8 2.3-0.7-3.4 10.5-0.7 12.7-1.5-0.2-0.3-0.3-0.8-0.6-1.1 1.2-1.4 4-1.4 5.7-1.7 1.7-0.2 3.7-0.7 5.4-0.7 3.9 0.1 2.6 0.6 6.4-1.5 1.7-0.9 4.1-2.3 6.1-2.6 1.2-0.2 2-0.1 2.4 0.2-0.6-0.9-1.3-1.7-1.9-2.5-0.3-0.3-0.6-1.3-0.9-1.7-0.5-0.6-2.1 0-1.9-1.3 0.1-0.1 0.2-0.1 0.3-0.2l1.5-1.2c0.5-0.1 1-0.2 1.2-0.3 1.6-0.5 3.2-0.5 4.7-1.5 1.3-0.9 1.9-2.3 3.8-2 0-0.4 0.3-0.9 0.4-1.3 2.1 0.3 4.9-0.6 6.3 0.1 0.6 0.3-0.5 2.4 1.5 2.2 1.7-0.2 0.9-3.6 2.6-4.7 1.3 1.4 2.7-0.2 4.1 0.3 0.2 0.1 0.6 1.6 0.9 1.8s1.9 0.2 2.4 0.3c0.6 2 3.3 2.9 4.4 4.7 1.6 2.8 1.5 5.7 3.1 8.3 0.9 1.5 1.4 3.7 2.5 5 0.4 0.4 2 0.8 2.2 1.1 0.5 0.9-0.2 1.4 0 2.3 0.7 3.6 1.6 4.4 4.4 6.7 2.5 2.1 3 4.6 4.4 7.4s2.1 4.1 4.5 5.9c1.9 1.3 2.6 2.3 3.3 4.5 2 6.5 3.7 11.2 8 16.4 3.6 4.4 7.4 8.6 11.6 12.3s8 7.4 12.8 10.2c3.3 2 6.7 3.6 8.8 6.9 2 3 2.3 6.7 5.8 8.5 6.4 3.4 16.7 0.4 23.7 0.8 8 1 12 4 6 9zm-119-83.2c0.6 0.8 1.2 1.8 1.8 2.8 1.3 2.5 2.6 4.3 4.6 6.4 2.3 2.5 6.3 11.2 10.4 9.3 0-2.4-2.8-3.3-4.3-4.7-1.6-1.4-3.2-3.4-4.3-5.2-1.8-2.9-3.7-9.3-7.3-10.5-1 0.6-1 1.2-2 1.9zm-9-7.5c0.9 1.7 3.9 2.6 5.5 3.7 1 0.7 1.8 1.3 2.6 2 0.1-0.4 0.2-0.8 0.1-1.2-0.4-1.8-2.7-3-3.8-4.9-1.1-2-2.5-4.1-3.9-6.1 1 1.6-1 4.5 0 6.5zm27 68.7c-3.7-4.2-9.4-4.9-12.7-9-0.2 2.3 0.1 8.8-4.4 6.1-5.1-3.1-1.4-10-2.1-13.9-0.4-2.3-1.4-1.9-3.2-3.5-1.5-1.3-2.3-3.1-3.3-4.7-1.4-2-3.2-3.9-4.8-5.7-1.2 2.4-0.4 5.3-4.5 4.6-0.8-2.3 2.3-2.4 2.9-4.5 0.2-0.7 0.1-3.6-0.3-4.4-0.8-1.8-2.3-3.2-3.1-5.5-0.6-1.7-0.9-3.4-2.4-4.1-0.4-2.3-3.1-2.7-4.4-1.2-1.2 1.3-0.8 4.4-0.8 6.1-0.3-0.3-0.8-0.4-1.1-1l-0.3 1.2c-0.5-1.5-1.3-2.9-1.7-4.2-0.1-0.2 0.5-1 0.3-1.4-0.2-0.7-1.3-0.9-1.6-1.7-0.4-1.3 0.3-2.3 0.1-3.6-0.6-2.9-3.8-3.7-6.4-4.8-1.4-0.6-7.5-3.2-7.8-3.8-0.7-1.9-1.6-1.2-2.3 0 0.2-0.3 0.2 1.6 0.2 1.7-0.1 0.4-0.9 1.2-1.1 1.7-0.4 1-1.3 3.9-0.9 5.1 0.7 1.9 1.9 1.2 3.3 2 3 1.7 5 3.5 6.2 7 0.5 1.6 0.3 2.9 1.2 4.3 0.7 1.1 1.9 2.5 2.7 3.6 1.1 1.7 2.9 3 3.9 4.7 0.8 1.3 0.6 4.2 2.3 4.3 2.5-5.8-5.2-10.5-5.7-15.6-0.3-2.7-1.8-4.2-2.3-6.7-0.2-0.8-0.1-2.4-0.3-3.5-0.2-1.2-1.6-1.9 0-2.9 2.3 3.2-0.1 8.5 3.2 11.6 1.6 1.5 4.8 3 6.5 4.9 0 2.2 0.2 4.5 0.3 6.2 0.2 2.9 1 5.9 1.9 8.6 0.6 1.7 1.6 2.4 2.4 3.6 0.9 1.4 0.5 2.4 0.8 3.7s1.4 2.3 1.8 3.8c0.3 1.5 0 3.2 0.6 4.6 0.3 0.8 1.5 1.4 1.8 2.2 0.3 0.9 0.1 2.7 0.3 3.7 0.3 1.7 0.7 3.4 0.8 5.2-1.8-1-4.3-6.8-5.1-9.1s-2-7-3.5-8.8c-1.2-1.4-3.1-2-4.3-3.7-1.1-1.5-2.4-2.7-3.7-4.3-2.1-2.6-3.2-6.1-5.9-8.3-2.2-1.7-2.6-1.6-4-4.4-0.8-1.7-1.6-3.6-3.7-4.1 0-0.9-0.1-2.1-0.3-2.9-0.7 1.8-1.4 8.3-0.6 10.2 0.8 1.8 4.4 2.7 5.9 4.4 2 2.2 4.1 4.3 6.1 6.5 1.7 1.8 2.5 4.5 5.3 4-0.3 2 3.2 5 4.1 7 0.8 1.8 1 3.9 1.9 5.6 0.6 1.1 2.2 2.1 2.9 3.5 0.6 1.1 1.3 2.4 1.5 3.6 0.2 1.1-0.4 2.9-0.1 3.5 0.5 1.1 1.8 1 2.2 2.6 0.3 1.3-0.6 2.4 0.2 3.8-3.8 1.4-0.3 7.6 1.3 9.6 2.3 2.9 6.6 2.4 10.1 2.5 4.2 0.1 9.9-0.6 12.7-4 2.2-2.7 1.8-5.2 0.2-8-1.3-2.4-1.5-2.8-1.9-5-0.2-1.4-0.2-3.6-0.8-4.8-0.9-1.8-3.9-2.5-3.5-4.9 2.2-0.4 3.5 4.1 5.1 5.5 2.2 2 3.7 1.9 4.1 5.4 1.2-3-1.5-3.7-2.2-6.1-0.3-1.1 0.1-5.2 1-6.1 1.4-1.4 5.5 4.6 7.5 5.9 4 2 5-1 2-5zm-44-39.1c-0.1 0.8-0.2 1.8-0.2 2.8 0.3 0.4 0.6 0.7 0.8 1.1-1-1.4-1-2.7-1-3.9zm161-6.1c-1.9-3.4-4-4.9-7.6-6.7-2-1.1-3.7-1.5-5.2-3-0.5-0.5-0.3-1.2-0.9-1.8-1-1.1-2.9-1.4-4-2.3-3.7-2.9-4.7-3.9-9.6-5.3-2.5-0.7-4.5-2.1-6.9-3.3-4.1-1.9-9.4-3.5-12.8-6.3-1.1-1-3.3-2.3-4.7-3.3-2.2-1.5-2.6-2.8-4.1-4.6-0.9-1-2-1.8-3.3-2.5 0.1 0.3 0.2 0.6 0.2 0.9-3-0.1-3.9 1.8-2.3 4-1.1 0.5-5.2 0.5-6.1-0.8-1.4-1.9 1.4-3.9-2.3-4.5-0.3 0.8 0.2 3.1-0.3 3.7-1.5 1.9-3.5-0.1-4.6-0.9-2.5-1.8-4.8-3-7.6-4.4 1.1 3.7 5.9 2.5 7 4.9 1.8 4-7.5 0.2-8.9 0.3-2.5 0.3-3.8 2.4-6.7 1.5-1.7-0.6-2.7-2.9-4.4-3.2-0.3 1.1-0.3 2.3-0.3 3.4-0.4 0.2-0.9 0.3-1.3 0.4-0.2-1-0.1-2.2 0.2-3.2-2.6-0.4-1.5 4.1 0.1 4.9 0.7 0.3 1.7-0.3 2.4-0.2 2.3 0.1 2.4 0.5 4.3 1.5 2.5 1.3 4 0.9 6.8 1.6 1.4 0.4 2.5 1.3 3.9 1.5 1.1 0.2 1.7-0.6 2.9 0 0.1 3.4-3.8 3.5-5.5 5.5-1 1.3-0.1 2.6-0.6 3.4-2.2 3.5-2.7-1.6-4.9-1.8-0.1 0.5-0.5 0.9-0.6 1.4-1-0.5-1.6-1.4-2.5-2.1-1.1-0.8-2.3-1.1-3.5-1.9-1.5-1.1-4.8-4.3-5.8-5.8-2.4-3.3 0-7.3-0.9-11.1-0.5-2.1-1.8-2.9-2.9-4.1 1.5 2.6 2.2 5.2 1.8 8.4-0.3 2.7-0.4 6.4 1.4 8.6s4.8 2.7 6.6 4.8c1.6 1.9 3.2 3.3 4 5.7 0.8 2.2 0.2 5.1 1.1 7 0.6 1.3 1.9 1.4 2.3 2.5 0.8 1.9 0.3 3 1.5 5 1.7 2.7 2.4 4.9 3.1 8.1-2.3-1.3-3.4-3.9-5.4-5.2-0.1 2.5 2.3 6.2 3.1 8.7 0.5 1.4 1.1 4 2.1 4.9 0.7 0.7 1.8 0.1 2.6 0.9 0.9 0.8 1.3 2.4 2.1 3.2 0.8 0.9 1.7 1.1 2.5 2.5 2.7 4.7 4.1 10.2 9.1 13.1 6.3 3.5 4.1-1.7 2.4-5.2-1-2.2-1.4-2.5-3.3-4.6-2.2-2.4-4.6-5.1-5.7-7.8-0.7-1.6-1.1-2.9-2.5-4.2-0.7-0.7-2.8-1.6-3-2.6-0.5-1.7 1.8-3.2 2-4.7 0.2-1.2-0.3-1.8-0.5-3-0.3-2-1.9-6.2 0-7.9 1.4 1.6 0.8 4.2 1.5 6.1 0.6 1.6 1.5 2.1 2.4 3.4 0.6 0.9 2.5 3.1 2.4 4.2-0.6-0.1-1.4 0.2-1.9 0.1-0.4 1.8 1.1 1.8 1.8 3.1 0.6 1.1 0.4 2.9 0.7 4 0.5 1.6 1.8 3 2.9 4.7 1.2 1.8 2.1 4.3 4.6 4.3 0.6-3.2-2.1-4.9-1.9-8.1 3.1 0.5 0.9-2.6 2.6-3.2 1.3-0.5 3.6 2.4 3.9 3.4 0.3 1.1-0.7 2-0.4 3 0.3 1.2 0.7 0.8 1.4 1.8 2.4 3.5 4.3 4.1 7 0.8 1.6 0.9 2.4 2.7 3.6 4 3 3.4 6.9 3.9 10.9 5.9 6.7 3.3 12.2 8.5 19.9 9.2 5.3 0.5 10.9-2.4 10.5-8.3-0.2-2.3-1.8-3.9-1.5-6.3 0.3-2.5 1.8-4 2-6.6 0-0.5-0.6-0.9-0.6-1.4 0.1-0.7 0.8-1.1 0.8-1.6 0.2-1.8 0.1-2.9-0.2-4.7-0.4-2-1.1-5.6 2.4-5.4 2 0.1 4 3.6 6 1 0.1-0.1 0.1-0.2 0.2-0.3 2-2.5 0-5.3-1-7.9zm-95-49c0-2.7-4.1-2.7-3.3-5.1 1.3 0.1 2.5 0.7 3.6 1.2 0.4-1.7-0.9-2.9-2.1-3.8 0.3-0.2 0.5-0.6 0.8-0.9-1.4-2.9-5.4-3.2-7.7-4.9-0.9-0.7-1.5-2.1-2.3-2.9-1.6-0.8-3.5-1.8-5-1.3-1.7 0.5-2.6 2.3-2.6 2.8-0.3-0.2-0.6-0.4-1-0.4-0.4 0.6-0.5 1.2-0.3 1.9 1.2 0.6 0.7 1.6-0.2 2.4 3-0.1 4-3.6 6.8-1.5 0 0 2.9 3.3 2.9 3.3 0.1 1.4-1.4 1.8-2.3 2.5 0.4 0.5 0.3 1 0.6 1.4-0.8-0.4-1 0.1-1.6-0.8 0.1 0.6-0.2 1.4-0.1 2-0.4-0.5-1.3-1-1.6-1.4-0.3 1.1-0.1 2.1 0.7 2.9-1.1-0.1-2-0.2-3-0.3-0.6 2.1 1.2 2.4 2.6 2.6-2.8 0.5-3.4 1.6 0.1 1.5 2.4-0.1 3.6-0.8 5.5 1.7l0.3 0.3c-0.5-1.4-0.2-3-0.7-4.4 1 1.4 5 1.8 9 1.2zm-10 3.2c0.3 0.8 0.8 1.3 1.3 1.9 0-0.7 0-1.3-1-1.9v0zm-1-19.4c0.1 0.1 0.2 0.1 0.3 0.2v-0.2zm-1-0.4l0.2 0.2c0.2 0.1 0.4 0.2 0.5 0.3 1-0.2 0-0.4 0-0.5z" fill="#ACD5E5"/>
</svg>
