<?xml version="1.0" encoding="utf-8"?>
<!-- Generator: Adobe Illustrator 19.2.1, SVG Export Plug-In . SVG Version: 6.00 Build 0)  -->
<svg version="1.1" id="Layer_1" xmlns="http://www.w3.org/2000/svg" xmlns:xlink="http://www.w3.org/1999/xlink" x="0px" y="0px" viewBox="0 0 326.8 180.7" enable-background="new 0 0 326.8 180.7" xml:space="preserve">
<path id="Base" fill="#E8E8E8" d="M334.9,87.8c-5.3-2.2-9.9-5.5-15.2-8.1c-3.4-1.6-5.2-5-7-8.2c-1.9-3.4-4-4.9-7.6-6.7
	c-2-1.1-3.7-1.5-5.2-3c-0.5-0.5-0.3-1.2-0.9-1.8c-1-1.1-2.9-1.4-4-2.3c-3.7-2.9-4.7-3.9-9.6-5.3c-2.5-0.7-4.5-2.1-6.9-3.3
	c-4.1-1.9-9.4-3.5-12.8-6.3c-1.1-1-3.3-2.3-4.7-3.3c-2.2-1.5-2.6-2.8-4.1-4.6c-2.1-2.4-5.9-3.6-8.6-5.1c-3.3-1.8-7-1.6-10.7-3.2
	c0.6-3.5-4.1-2.8-5.8-4.4c-1.5-1.5-0.5-2.9-2.4-4.5c-1.3-1.1-3.5-1-4.8-2.1c-0.5-0.4-0.5-1.4-0.9-1.9c-1.6-1.7-3.5-2.6-5.1-4.1
	c-1.2-1.1-1.5-2.6-2.6-3.5c-1.5-1.4-4.5-1.9-6.4-2.9c-1.6-0.9-5.4-2.3-5.9-3.7c-0.4,0.2-1.2,0.5-1.6,1c0.4,0.1,0.4,0,0.8,0.1
	c-0.2,2.4-4.5,1.6-6.1,3.5c-0.7,0.8-0.2,2.2-0.6,3.2c-1.1,2.6-4.6,4.7-6.6,6.6c-2.6,2.4-5.1,4.6-6.9,7.3c-1.1,1.7-4.3,3.7-4.1,5.8
	c-1.9,1.3-4.4,1.4-6.4,2.6c-0.9,0.5-1.7,1.3-2.6,1.8c-2.1,1.2-3.6,2.5-5.3,3.8c-1.9,1.5-4.6,1.7-6.3,3.6c-1.5,1.8-1.1,3-3.9,3.4
	c-4.1,0.5-8.3,0.2-12.6,0.8c-2.3,0.4-5.7,0.3-7.8,1.2c-1.6,0.7-1.5,2.6-2.8,3.1c-2.1,0.8-2.6-2.8-4.9-2c-1.6,0.6-1.1,2.1-1.1,3.7
	c-7.1,1.8-13.2,9.8-18.4,14.3c-0.9,0.7-2.5,2.4-3.5,2.8c-1.3,0.5-2.1-0.3-3.3-0.2c-2.9,0.4-5.1,4.1-7.3,6C88,75.7,83,79.1,79.1,83.5
	c-3.6,4-7.3,8.3-12.5,10.4c-5.2,2.1-10.2,4.1-15.2,6.7c-3.1,1.7-4.9,3.2-8.3,4c-2.7,0.6-4.2,1.6-6.5,2.9c-1,0.6-1.5,1.2-2.7,1.2
	c-1,0-2-1.3-2.8-1.2c-1.7,0.4-3.5,4.4-4.9,5.7c-4.2,3.8-8.5,7.4-10.3,12.8c-0.9,2.7-2.9,4.3-4.2,6.7c-1,1.9-1.2,4.2-2.2,6.3
	C7,143.7,4.7,151.7,0,154.7l15.6,23.5l312.6,15.6L334.9,87.8z"/>
<path id="Lighting" fill="#FFFFFF" d="M189.6,15.1c0.4-0.3,0.8-0.7,1.2-1c-0.4,0.4-0.7,0.8-1,1.2C189.7,15.3,189.6,15.2,189.6,15.1z
	 M142.3,47.5C142.3,47.5,142.3,47.5,142.3,47.5C142.3,47.5,142.3,47.5,142.3,47.5c0.4-0.1,0.7-0.1,1.1-0.2c1.3-0.4,1.3-1.4,2.9-1.6
	c1.7-0.2,3.5,0.3,5.2,0.3c3.8,0,4.2-1.2,5.4-4.2c-0.5,0.8-1,1.4-2.8,1.6c-4.1,0.5-8.3,0.2-12.6,0.8c-2.3,0.4-5.7,0.3-7.8,1.2
	c-0.7,0.3-1,0.8-1.3,1.3c1,0,2.2,0.2,3.5,0.4C138.1,47.4,140.1,47.9,142.3,47.5z M173.8,126.2c0.4,0,1.3-1.1,2.2-2.5
	c-0.3,0.2-0.7,0.4-1.2,0.6c-1-1.5-0.6-5.8-2.8-5.7C172,120.3,171.7,126.1,173.8,126.2z M149.9,148.7c-3.5,2.9-9,4.3-13.2,6
	c-0.4,0.2-0.8,0.3-1.2,0.5c1.1-0.3,2.3-0.7,3.4-0.9c2.7-0.5,5.1-0.3,7.5-1.2c3.9-1.4,4.6-3.4,4.9-5.9
	C150.9,147.7,150.5,148.2,149.9,148.7z M110.3,168.1c8.1-5.3,16.3-9.1,25.2-12.9c-3.9,1.2-7.7,3.1-11.4,4.8
	C119.2,162.3,114.6,164.8,110.3,168.1z M133.6,107.4c-0.4,1.6-1.8,2-0.9,3.7c0.4,0,0.7-0.1,1-0.3c-0.6,1.5-1.2,3.2-1.3,4.8
	c5.2-0.7,4.7-12,9.9-12c0.7,1.8,0.3,3.9,1.1,5.8c1,2.7,3.2,4,4.7,6.3c1.2,2,0.4,4.2,1.5,6c0.7,1.2,2.3,1.4,3.4,2.1
	c2.7,1.7,4.2,3.4,4.1,6.7c-0.2,4.9-4.2,8-5.1,12.4c-0.3,1.5-0.4,2.9-0.5,4.1c2.1-2.8,2.9-6.6,4.2-9.7c2.6-6,3.3-10-0.6-15.9
	c-2.9-4.4-5.2-9.2-8.4-13.4c-3-4-6.6-7.1-9.9-10.5c0,2.4-2.4,5.1-3.1,7.4C133.5,105.4,133.7,106.7,133.6,107.4z M128.5,85.6
	c0.1,0.2,0.1,0.4,0.2,0.6C128.7,86,128.6,85.8,128.5,85.6z M136.4,96.4c-0.2,0-0.3-0.1-0.3-0.1c-0.2,0.1-0.3,0.1-0.5,0.2
	c0.4,0.4,0.7,0.8,1.1,1.2C136.7,97.3,136.6,96.8,136.4,96.4z M127.4,88.8c-0.7,1.7-0.3,3-0.8,4.7c-0.6,2.2-2.5,4.3-3.2,6.5
	c-0.8,2.4-1.9,4.7-1.6,7.3c1.5,0.7,2.6,0.1,3.1-1.5c0.5,1.3-0.5,2.7,0,4c1.8-0.6,2.6-2.7,3.1-4.4c0.2,1.9-0.5,3.8-0.1,5.6
	c2.3-1.5,6.2-10.6,6.4-13.3c0.3-0.4,0.8-0.8,1.3-1.1c-2.7-2.9-5.1-6-6.7-10.1c0-0.1-0.1-0.1-0.1-0.2C128.9,87.1,128,87.5,127.4,88.8
	z M31.9,111.4c-0.6-0.3-1.5-0.9-2.4-1.3c0.6-0.7,1.1-1.2,1.7-1.3c0.8-0.2,1.8,1.2,2.8,1.2c1.2,0,1.7-0.6,2.7-1.2
	c2.3-1.3,3.9-2.3,6.5-2.9c3.4-0.8,5.2-2.3,8.3-4c5-2.7,10-4.6,15.2-6.7c5.2-2.1,8.9-6.4,12.5-10.4C83,80.5,88,77,92.3,73.2
	c2.2-1.9,4.4-5.6,7.3-6c1.1-0.2,2,0.6,3.3,0.2c1-0.4,2.7-2,3.5-2.8c5.2-4.5,11.4-12.5,18.4-14.3c0-0.3,0-0.6,0-0.9
	c0.9,1.8,1.8,3.6,2.3,5.5c-1.9,0.5-2.5-1.5-4.3-1.4c-0.3,2.2,2.7,2,2.2,4.3c-1-0.2-1.6,0-2,0.3c0.2,1.7,0.2,3.4,0.3,4.9
	c0.4,1.1,0.9,2,1.3,2.6c1.2-0.4,2.6-0.2,3.4,0.9c0.1-1.5-0.4-3.2-0.2-4.5c0.2-1.9,1.2-3.1,0.6-5c2.3,0.9-1.1,9.2,2.8,8.9
	c0.1-1.1,0-2.3,0.1-3.4c2.8-0.5-0.3-2,0-2.9c0.4-1.4,2.3-1.5,3.7-1c1.3,0.5,2.4,1.8,3.7,2.3c1.7,0.7,2.8,0.9,4.3,2.1
	c2.1,1.7,5.6,3.7,7,6.1c0.7,1.2,0.8,2.9,1.4,4.4c0.6,1.4,1.6,2.2,1.8,3.7c1.1-1.5-0.2-3.3,1.6-4.5c2.5-1.8,3.4,1,4.5,2.8
	c2,3.4,3.6,7,6.1,10.2c-0.9,0.8-1.1,2-0.9,3.1c-2.1,0.2-4.1,2.6-3.7,4.6c4.5,0.8,2.8-9.4,7.2-3.4c1.9,2.6,0.7,1.4,0.1,4.4
	c-0.5,2.3,0.8,3.8-1.1,5.8c2.2-1.6,1.9-5.5,5.7-4.9c0.5,2-2.3,3.8-0.8,5.2c-1.8,0.8-2,2.7-0.4,3.8c1.1-1.4,1.2-6.1,3.7-5.5
	c0.1,1.2,1.3,2.2,1.4,3.2c0.2,1.7-1,2-1.1,3.8c0,1.2,1.2,1.5,1.2,2.4c-0.1,1.5-1.7,2.7-1.7,4.5c1.5,0.1,4.6,1.2,4.8,3
	c0.1,1-0.9,0.9-1.1,1.7c-0.3,1-0.5,2.5-0.9,3.6c0,0.1,0,0.1-0.1,0.2c0.5-0.9,0.9-1.7,0.9-2c1.5,0.3,2.1,1.9,2.1,3.4
	c2.2,0.1,0.6,3.5,1.5,5c1.3,2.5,4.1,2.3,3.6-0.9c-0.5-3.2-3.2-6.3-3.6-9.7c-0.3-2.7,0.9-5.4,1.7-7.7c1.5,1.6,3.2,3.7,5.2,4.8
	c2,1.1,3.7,1.4,5.4,2.9c1.9,1.7,3.4,3.7,5.4,5.3c-4.2,0.5-5.8-3.3-9.3-3.6c-1.7-0.1-2,0.4-1.9,2.4c-2.1,0.3-1.4-2.1-1.1-3.4
	c-0.8,0.7-1,2-1.2,3.1c-0.4-1.6,0-3.5-0.5-4.9c-0.5,1.9-0.7,5.1-0.2,7c0.4,1.7,2.1,3.1,2,4.9c-0.2,4.1-4.8,3.4-6.7,0.6
	c-2.6,0.9-2.7,3.5-6.4,2.6c-2.2-0.6-3.4-2.6-5.1-4c-0.6-0.5-2.5-2.4-3.3-2.4c-1.1,0-1.1,1.4-2,1.8c-3.3,1.6-4.5-0.6-4-3.9
	c0.4-3.3,0.6-4.9-0.3-8.4c-0.9-3.1-2.3-6.1-3.2-9.2c-0.8-2.9-0.8-5.3-2.6-8c-1.2-1.8-1.7-2.2-1.8-3.8c-0.2-3.1,1.5-6.1,1.2-9.3
	c-0.3-3.1-2-7.9-4.3-10c-0.3,2.6,1.2,4.3,1.2,6.7c-1.6-1.9-3-3.6-5.6-3.7c-1.3,3,1.1,4.5,2.6,6.6c1.1,1.7,1.6,3.6,2.2,5.4
	c0.4,1.2,2.1,4.4-0.4,2.8c-0.8-0.5-1.6-3.3-2.2-4.1c-0.8-1.1-1.8-2-2.6-3.1c-2.1-3.1-3.4-6-4.6-9.4c-0.9-2.5-2.8-3.9-5.4-4.6
	c-0.2,0.3-0.5,0.7-0.6,0.8c-0.2-2.8-2.7-3.1-4.6-3.1c0.4,0-2.1,0.5-2,0.4c-0.8,0.2-1.8,0.4-2.8,0.5c0.2,0.5,0.4,1,0.6,1.5
	c2,4.8,1.7,10.1,3.5,15.1c-0.1-0.2-0.3-0.5-0.5-0.8c-2.7-3.5-4.3,1.3-4.9,3.7c-0.5,1.9-0.6,11.9-4.3,9.3c-2-1.4-0.5-4.8,0-6.6
	c0.9-3,0.6-5.4,0.9-8.4c0.3-2.6,2.2-6.5,1.2-9c-3.9,1.5-0.2-5.1-3.8-3.7c-1.9,0.8-0.9,2.7-1.5,3.9c-0.6,1.5-2.8,2.8-3.2,4.3
	c-0.4,1.5,2.9,10,0,10c-1.7,0-4.3-4.3-5.2-5.6c-1.9-2.5-3.1-6.4-5.9-8c-1.8,1.8,1.3,2.9,2.1,4.5c0.6,1.3,0.3,2.7,1.1,4.1
	c1.2,2.2,3.7,3.7,5.1,5.8c1.2,1.9,0.9,2.2,1.4,4.3c0.5,2.2,1.5,2.4,2.7,4.2c1.7,2.4,3.5,5.4,4.8,8.1c1.9,4.1,2.5,7.9,3.8,12
	c0.6,1.9,2.4,3.7,2.9,5.5c0.4,1.4-0.2,2.5-0.1,3.9c0.2,2,4.8,7.7,2.7,9.6c-2.2,2-4.6-4.6-5.4-5.9c-2.3-4-4.7-7.9-6.8-12.1
	c-1.8-3.6-2.9-5.1-6.2-7.5c-3.4-2.4-7-7.7-11.4-7.9c0.8,1.4,2.5,1.5,3.3,2.9c0.9,1.7,0.3,3.3,1.6,5.1c1.9,2.6,3.9,4.3,5.5,7.4
	c0.9,1.6,1.2,3.3,2.1,4.9c1.1,1.9,2.9,3.4,4,5.2c0.4,0.6,0,1.5,0.4,2.2c1.2,2.1,4.4,3,5.6,5.3c1.6,3,0.5,5.7-2.4,7.5
	c-6.2,3.7-17.3-0.2-21.1-5.7c-3-4.2-2.4-11.5-4-16.4c-1.5-4.5-4.3-5.1-8.2-6.2c-6-1.8-6.5-11.1-12.5-12.2c1.2,3.1,3.4,5.1,3.7,8.4
	c0.4,3.8,1.9,5.1,3.9,8.1c1.9,2.9,5.1,5.4,6.6,8.6c1,2.2,1.9,5.4,2.6,7.9c0.9,3.3,0.1,10.2-4.7,9.3c-2.2-0.4-3.2-2.8-4.3-4.4
	c-1.5-2.1-3.4-3.8-4.9-5.9c-3.8-5.4-10.4-10.2-11.5-16.8c-0.8-4.6,0.2-3.8,4-4.2c0.7-2.2,0.2-4.5-0.2-6.6c-0.6-3-1.6-7.7-5.2-5.7
	c-2,1.1-3.4,2-5.5,3.1c-4,2.1-1.1,4.4,0.6,7.8c1.5,3.1,3.7,13.6-2.6,9.5c-1.2-0.8-3.1-2.3-4-3.4c-0.9-1.1-1.4-4.6-2.3-5.2
	c-2.2-1.3-3.7,2.9-6,2.8c-1.1-0.1-2.6-1.7-3.6-2.3C36.6,113,34.1,112.5,31.9,111.4z M173.8,126.2c0.4,0,1.3-1.1,2.2-2.5
	c-0.3,0.2-0.7,0.4-1.2,0.6c-1-1.5-0.6-5.8-2.8-5.7C172,120.3,171.7,126.1,173.8,126.2z M11.5,157.6c2.4-0.5,12.1-2.2,10.5-6.3
	c-0.8-1.9-5.1-2.3-6.5-3.9c-1.4-1.5-1.8-3.4-2.7-5.2c-0.5-1.1-1.9-2.8-1.5-4.1c0.9-2.8,3.9-0.6,5.9-0.6c2,0,4.3-2,6.2-1.5
	c1,0.3,1.1,1.5,2,1.9c1.4,0.6,2.7,0.8,4.2,0.8c0,1.5-0.3,3.7,0.7,5c0.7,1,2,0.6,2.8,1.6c0.8,0.9-0.1,3.1,1,4.3
	c1.2,1.3,2.8,0.5,4.1,1.6c1.6,1.3,0.6,3.4,2.6,4.5c0.5,0.3,3.6,0.5,4.2,0.4c6.2-1,0.7-3.4,0.9-6.1c9.1-0.5-3-4.6-2.6-9
	c5.2-0.7,6.6,4.3,10.2,5.8c1.4,0.6,5.9,1.1,5.8-1.2c-0.1-2-4.5-3.3-5.8-4.4c-1.4-1.3-2.2-2.6-3.8-3.7c-2-1.3-4.8-2-6.6-3.5
	c-1.3-1-1.9-2.3-3.2-3.2c-2.9-1.9-8.6-3.4-8.7-8c9.1-0.5,13.7,5,20.6,9.6c2.4,1.6,4.6,4.1,7.2,5.4c1.7,0.9,5.8,1.7,6.6-0.9
	c0.9-2.9-10.5-8.5-12.7-10c-2.4-1.7-4.2-4.2-6.6-5.9c-1.8-1.3-3.9-2.6-5.9-3.8c-3.3-2-9-2.8-11.7-5.9c-0.9,1.2-1.7,2.6-2.4,3.2
	c-4.2,3.8-8.5,7.4-10.3,12.8c-0.9,2.7-2.9,4.3-4.2,6.7c-1,1.9-1.2,4.2-2.2,6.3C7,145,4.7,153,0,156l0.4,0.5c1.6,0.1,2.6,1.5,4.3,1.8
	C6.7,158.8,9.5,158,11.5,157.6z M129.8,48.6c0.3,1.1,1.4,1.7,2.5,0c0.1,0.4,0.3,0.7,0.4,1.1c1.9-0.9,3.8-2.1,6-1.3
	c1.3,0.4,4.3,3.5,3.5-0.9c-2.2,0.4-4.2-0.1-6.4-0.4c-1.3-0.2-2.5-0.4-3.5-0.4c-0.4,0.7-0.7,1.5-1.5,1.8c-0.5,0.2-1,0.1-1.3-0.1
	c-0.2,0.5-0.3,1.1-0.3,1.9L129.8,48.6z M151.5,46c-1.7,0-3.5-0.5-5.2-0.3c-1.6,0.2-1.6,1.2-2.9,1.6c-0.3,0.1-0.7,0.2-1,0.2
	c1.1,1.3,2,0.4,3.4,0.1c0.5-0.1,0.7-1,1.4-1.1c0.7-0.1,1.2,0.3,1.9,0.3c1.4,0,3.4-0.6,4.6-0.5c1.8,0,3,1.6,5.1,0.8
	c0-1.1-0.3-2.1-0.5-3.1c1.5-0.3,11.6,0.2,11.8-1.6c0.4-3.2-8.9-2.5-10.4-2.8c2-1.2,6.2-0.9,8.3,0c0.2-0.7,0-1.6-0.3-2.2
	c-1.2,0.1-2.3,0.1-2.9-0.9c-0.3,0.1-0.6,0.1-0.8,0.2c-1.9,1.3-4.4,1.6-5.9,3.3c-0.6,0.6-0.9,1.2-1.1,1.7
	C155.7,44.8,155.3,45.9,151.5,46z M142.3,47.5C142.3,47.5,142.3,47.5,142.3,47.5C142.3,47.5,142.3,47.5,142.3,47.5
	C142.3,47.5,142.3,47.5,142.3,47.5z M193.7,71.5c-4.7-1.7-6.2-6-7.7-10.2c-1-2.6-5.4-8.4-8.4-7.8c1.2,8.5,6.4,21.2,16.5,20.2
	C194,73.1,193.7,72.3,193.7,71.5z M172.7,47.4c-0.1-0.3,0-0.6,0-0.8l-0.6,0.9c-0.1-1.2,0.1-2.2,0.6-3.1c-2.1,0.9-5.1,1.7-5.1,4.5
	c3.1,0.4,6.9,4.7,9.5,6.4c-0.1-1.8-2.1-3.6-1.7-5.5c0.3-1.7,2.4-1.7,2.3-3.7C175.2,45.7,174.6,46.9,172.7,47.4z M172.7,31.4
	c1.7,0.3,2.8-0.9,4.3-0.8c1.7,0.1,2.1,1.6,3.6,1.9c3.5,0.6,3.5-4.1,6.7-4.6c2.6-0.4,0.8,0.3,2.3,1.9c1.9,1.9,1.3,0.7,3.7,0.5
	c4.5-0.4,5,3.6,5.4,7c0.2,1.5-1,3.5-0.6,4.8c0.5,1.6,2.3,1.4,3.4,2.5c1.4,1.3,1.8,3.6,2.9,4.9c0.3,0.3,1.3,0.2,1.7,0.8
	c0.5,0.8,0.2,1.8,0.3,2.6c0.3,2,0,2.1,1.8,4c1.5,1.6,2.8,3.3,4,5.2c2.5,3.8,4.9,7.8,7.7,11.2c1.7,2,1.5,4.3,2.9,6.4
	c1.6,2.3,2.4,2.3,3.1,5.4c0.8,3.5,3.7,8.6,6.2,11c0.4-3.5-0.3-7.8-1.1-11.3c-0.7-3.2-3.2-6.3-3.4-9.5c0.8,0.4,1.3,1.5,1.9,2
	c0.4-4.2-2.7-7.7-3.4-11.9c-0.5-3.1-1.3-6.8-2.3-9.7c-1.4-3.7-4.1-5.2-6.8-7.6c-3.3-3-3.1-5.8-3.7-9.8c-0.4-2.7-2.3-8.8-5.7-9
	c-0.7,2.1-3.4,10.4-4.1,2.9c-0.2-2.4,1.6-3.1,1.9-5.1c-1.7-0.8-4.2-0.6-5.2-2.4c0.7-0.3,7.5,1.9,5.2-1c-1.4-1.8-6.6,0.8-7.5-2.1
	c2.1-0.9,3.7,0.6,5.7,0.5c-0.1-0.6,0-1.4-0.2-2c0.2,0.4,0.9,0.9,1.1,1.2c0-0.6,0.4-1.4,0.3-2.1c0.3,0.2,0.7,0.3,1.1,0.6
	c0.5-0.7,0.5-0.5,1.2-1c0.2-0.3,0-0.7,0.1-1c0.3,0.3,0.8,0.5,1.1,1c0.1-2.3-3.6-4-4.7-6c-0.4-0.7-2.5-5.1-2.2-6.1
	c0.7-2.2,4.9,0.8,6.4,1.4c2.9,1.2,4.5,2.2,5.7,5.2c0.6,1.5,1.4,5.5,4.4,3.8c3-1.7-0.7-4-2.1-5.2c-4.8-4-8.6-6-14.7-7.5
	c-1.5,2.5-4.1,4.4-6.6,6.4c-1.1,1.3-2.7,2.4-4,3.5c-0.4,0.4-0.7,0.8-1,1.2c0-0.1-0.1-0.1-0.2-0.2c0,0,0,0-0.1,0.1
	c-2.6,2.4-5.1,4.6-6.9,7.3c-1.1,1.7-4.3,3.7-4.1,5.8c-1.7,1.1-3.8,1.4-5.7,2.2C172.7,30.8,172.5,31,172.7,31.4z M243,86.6
	c-0.8,0.1-1.7-0.2-2.5-0.1c-0.1-1.3,0.9-2.2,1.1-3.4c-2.1,0-1.4-2.5-1.4-4.1c1.6-0.3,5.4,0.8,6.6,1.4c0.3-1.7-3.2-6.4-4.5-6.6
	c-0.5,1.1,0.6,4.1,0,4.5c-1.9,1.2-2.3-2.3-2.6-3.1c-0.6-1.9-4.1-6.4-2.6-8.4c-0.7,0.7-1.1,1.7-1.1,2.8c0,1.9,0.7,0.7,1.4,2.1
	c1,1.9-0.4,3.7,0.8,5.5c-2.1,1.8-4.1,4.2,0.3,3.9c-0.2,2.9,3.1,11.3,5.8,13.1c2.3,1.6,3.3-0.3,2.4-2.5C245.8,89.7,243,89.1,243,86.6
	z"/>
<path id="Shadows" fill="#ACD5E5" d="M78.2,136.5c1.2,3.5-1.3,6.5-5,5.1c-3.3-1.2-2.1-4.2-4.5-6.2c-2.7-2.2-6-2.7-8.7-4.9
	c-2.3-1.9-4.3-2.7-6.6-4.7c-2.2-1.8-4.6-2.7-6.8-4.6c-1.8-1.7-2.6-2.1-4.8-3.1c-1.3-0.6-1.7-2-2.7-2.6c-1.6-1-1.8,0.3-3.5,0
	c-1-0.2-2.6-1.8-3.5-2.3c-1.4-0.8-2.1,0-2.7-2c-0.1-0.3-0.1-0.7-0.1-1c0.5-0.6,0.9-1.1,1.4-1.3c0.2,0,0.3,0.1,0.5,0.2
	c2.4,0.9,5,3.9,7.5,4.4c1.8,0.3,3.1-0.3,4.7-1.2c1.1-0.6,2.6-3,3.2-3.3c2.7-1.2,5,3.5,6.2,5.2c2.3,3.3,3.5,7.6,8.5,6.6
	c-0.6-3-3.3-5.5-4.2-8.2c-1.8-1.3-4.1-3.8-4.6-4.8c-1.1-2.6,0.2-8.1,3.6-5.2c0.5-0.5,6.5-2,7.5-2.4c2.4-1,4.6-4.6,7.8-3.9
	c0,4.1-6.9,0.9-4.1,7c0.5,1.1,2.4,3.4,1,4.6c-1.5,1.3-3.6-1.3-5.2-0.7c-3,1.1,0.5,7.3-4.3,6.3c2,2.6,4.4,6.8,3.5,7.9
	c4.8-0.1,5.5,2.7,7.9,6.1C72.4,130.8,77.1,133.4,78.2,136.5z M97.3,136.9c-0.4-1.3,0.1-2.7-0.3-4c-0.8-2.5-3.2-4.8-5.1-6.4
	c-0.8-0.6-2.4-1.1-3-2.2c-0.6-1.3,0.3-2.8-0.8-3.9c-1,0.8-1.3,2.2-1.2,3.5c-2-0.1-2-3-4.3-2.5c0.1,2.4,2.9,3.2,4.2,4.9
	c1.4,1.8,1.4,3.6,1.8,5.7c0.6,3,2.2,4.3,3.2,7.2c1.2,3.6,1.5,6.9,4.1,9.8c-0.2-1.3-0.1-0.9,0.1-0.6c3.4-2,6.6-3.2,3.9-7.8
	C99,139.2,97.8,138.8,97.3,136.9z M94.7,87.1c0-0.1,0-0.2-0.1-0.4c-0.1,1-0.1,2-0.2,3C94.6,88.9,94.8,88,94.7,87.1z M103.9,88.8
	c-0.5,0.8-0.8,1.8-0.9,2.3C103.3,90.4,103.6,89.6,103.9,88.8z M94.4,89.7c-0.3,1.3-0.8,2.6-0.9,4C94.1,92.4,94.3,91.1,94.4,89.7z
	 M124.3,112c-0.3-2.5-1.6-3.2-2.3-5.2c-0.5-1.4,0.3-3.1-1.1-4.6c-2.3-2.6-3.9-1.9-3.4-5.7c0.1-0.9,0.8-1.6,0.5-2.7
	c-0.3-1.1-2-1.6-2.3-2.4c-0.6-2,1.8-4.8,2-7c0.2-2.5-0.2-5.3-1.2-7.4c-0.2-0.4-1.2-0.4-1.4-1c-0.3-0.7,0-1.8,0-2.6
	c-0.2-1.7-0.3-2.5-0.9-4.1c-0.7-1.8-0.7-2.3-0.7-3.9c0-1.2,1.4-3.5-1.3-3.1c-0.9,2.5-1,3.8-3.8,2.1c0,0.6-0.4,1.5-0.3,2.3
	c-0.6-0.1-1.4,0.2-2,0.1c-1.1,2.4,1.8,5.9,2.8,3.2c-0.6,0.1-1.4-0.1-2-0.1c-0.3-1.1-0.1-2.1,1.1-2c1.4,0.1,1,1.8,1.4,2.5
	c1.2,2.1,1.5,3.9,2.2,6.1c-1.1,0.3-1.6,1.2-1.3,2.3c0.9-0.2,1.7-1.1,2.5-1.4c0.2,2.6,1.9,5.6,0.9,8c-1.8-2-4.3-5.1-5.4-7.5
	c-1.2-2.7-2.7-6.6-5.4-8.1c-0.2,0.7-0.6,0.9-0.7,1.7c-1.1-0.6-2.7-0.6-4-0.2c-0.3,1.9,2.9,3.8,0.4,4.4c-1.6,0.4-1.9-2.3-3.6-0.1
	c-1.1-2.2-0.2-5.4-0.6-4.1c-0.6,0.8-1.4,1.9-1.5,2.9c-0.1,1.3,0.8,1.9,0.9,2.5c0.3,2.1-1.1,2.7-1,4.9c0-0.2,1.2,2.2,1.2,2.4
	c0,0.1,0.4,1.6,0.5,2.3c0.1-1.3,0.3-2.7,0.7-3.9c0.6-1.8,2.9-6,4.8-6c1.1,2.2,2.7,3.8,3.9,6c1,1.7,0.6,3.9-0.2,6.1
	c0.4-0.7,0.9-1.3,1.4-1.4c2-0.5,0.8,0.4,1.7,1.5c0.3,0.3,1.9,1.9,2,2.3c0.2,1.5-1.4,1.4-1.5,2.7c-0.1,1.5,2.3,4.6,2.6,6.4
	c0.5,2.4,0.1,5.6,0.7,7.8c1.1-2.4,1.3-10-0.5-12.1c1,0,4,4.6,4.9,5.8c1.9,2.5,0.4,3,0.9,6c0.9-0.3,1.3-1.4,1.7-2.3
	c1.7,1.7,2.4,4.6,2.1,7c0.3,0,0.7,0.1,1.1,0.1c3.4,8.2,6.2,16.6,9.6,24.8c-0.1-5.5-3.4-10.9-5-16.1C124.6,118,124.6,115.1,124.3,112
	z M297.2,139.6c-4.5,3.1-11.3,2.8-16.4,3.2c-5.6,0.4-11.2,0.6-16.7,1.5c-9.2,1.5-20.7,3.2-28.5,8.4c-8.2,5.4-13.6,14-22.6,18.5
	c-6.2,3.2-13.9,4.8-20.9,4.9c-6.1,0-11.9-0.8-17.1-4.1c-5.6-3.6-10.8-7.9-16.5-11.6c-6.2-4-13-7.1-11.2-15.5
	c0.6-2.7,2.3-7.1,4.2-9.2c0.7-0.7,2-1.1,2.5-1.9c0.3-0.5-0.2-1.6,0-2.2c0.2-0.3,1.6-1.3,1.6-1.3c0.2-2.7-4.7-4.4-6-7
	c-0.8-1.6-1-2.7-2.2-4.2c-1.7-2.1-1.4-2.1-2-4.5c-0.5-1.7-0.6-2.5-0.9-4.3c-0.3-2.2-0.6-1.9-1.8-3.3c-0.9-1.1-1.4-2.3-2.4-3.4
	c-0.7-0.8-1.9-1.7-2.5-2.4c-0.7-0.9-2.1-3-2.4-3.9c-0.4-1,0-2.5-0.5-3.6c-0.8-1.6-4.6-3.7-6-5.2c-0.6-0.6-2.4-2.2-2.7-2.9
	c-0.7-1.7,0.2-2.4,0.6-4.2c1.1-5-4.2-9.1-2.6-14c0.7-1.7,0.4-0.1,0.3,1.4c1.3-2.2,5.3,0.3,7.5,0.6c-3.7-2.2-0.7-8.6-2-11.9
	c-2.3,1.3-0.8,4.9-0.9,7c-0.3,0-0.7,0-1,0c0.8,0.8,1.2,1.9,0.8,2.9c-2.5-0.4-3.6-1.5-5-3.5c-0.4,0.9-0.2,2.3-0.5,3.3
	c-0.5,0-1.6-0.4-2-0.7c-0.5-2.5,0.3-5.5,0.2-8.1c-2.7,0.7-3.3,6.9-6.6,4.9c0.5-1.3,1.1-0.8,1.8-1.8c0.8-1.2,0.7-1.8,1.9-3
	c1.5-1.5,5.1-3.3,3.8,0.8c4.9,0.9,1.2-4,1.3-5.5c1.5,0.3,2.3,1.8,4,2.3c-0.7-1.7-1.9-3.9-2.8-5.9c0.1,0,0.2,0,0.2-0.1
	c0-0.6-0.1-1.1-0.1-1.6c2.3,0.3,3.7,2.3,5.8,2.3c-0.7-3.4,10.5-0.7,12.7-1.5c-0.2-0.3-0.3-0.8-0.6-1.1c1.2-1.4,4-1.4,5.7-1.7
	c1.7-0.2,3.7-0.7,5.4-0.7c3.9,0.1,2.6,0.6,6.4-1.5c1.7-0.9,4.1-2.3,6.1-2.6c1.2-0.2,2-0.1,2.4,0.2c-0.6-0.9-1.3-1.7-1.9-2.5
	c-0.3-0.3-0.6-1.3-0.9-1.7c-0.5-0.6-2.1,0-1.9-1.3c0.1-0.1,0.2-0.1,0.3-0.2c0.5-0.4,1-0.8,1.5-1.2c0.5-0.1,1-0.2,1.2-0.3
	c1.6-0.5,3.2-0.5,4.7-1.5c1.3-0.9,1.9-2.3,3.8-2c0-0.4,0.3-0.9,0.4-1.3c2.1,0.3,4.9-0.6,6.3,0.1c0.6,0.3-0.5,2.4,1.5,2.2
	c1.7-0.2,0.9-3.6,2.6-4.7c1.3,1.4,2.7-0.2,4.1,0.3c0.2,0.1,0.6,1.6,0.9,1.8c0.3,0.2,1.9,0.2,2.4,0.3c0.6,2,3.3,2.9,4.4,4.7
	c1.6,2.8,1.5,5.7,3.1,8.3c0.9,1.5,1.4,3.7,2.5,5c0.4,0.4,2,0.8,2.2,1.1c0.5,0.9-0.2,1.4,0,2.3c0.7,3.6,1.6,4.4,4.4,6.7
	c2.5,2.1,3,4.6,4.4,7.4c1.4,2.8,2.1,4.1,4.5,5.9c1.9,1.3,2.6,2.3,3.3,4.5c2,6.5,3.7,11.2,8,16.4c3.6,4.4,7.4,8.6,11.6,12.3
	c4.2,3.7,8,7.4,12.8,10.2c3.3,2,6.7,3.6,8.8,6.9c2,3,2.3,6.7,5.8,8.5c6.4,3.4,16.7,0.4,23.7,0.8
	C298.7,131.5,303.2,135.4,297.2,139.6z M178.5,56.8c0.6,0.8,1.2,1.8,1.8,2.8c1.3,2.5,2.6,4.3,4.6,6.4c2.3,2.5,6.3,11.2,10.4,9.3
	c0-2.4-2.8-3.3-4.3-4.7c-1.6-1.4-3.2-3.4-4.3-5.2c-1.8-2.9-3.7-9.3-7.3-10.5C179,55.5,178.8,56.1,178.5,56.8z M168.9,49.3
	c0.9,1.7,3.9,2.6,5.5,3.7c1,0.7,1.8,1.3,2.6,2c0.1-0.4,0.2-0.8,0.1-1.2c-0.4-1.8-2.7-3-3.8-4.9c-1.1-2-2.5-4.1-3.9-6.1
	C169.7,44.4,167.8,47.3,168.9,49.3z M196.4,118.4c-3.7-4.2-9.4-4.9-12.7-9c-0.2,2.3,0.1,8.8-4.4,6.1c-5.1-3.1-1.4-10-2.1-13.9
	c-0.4-2.3-1.4-1.9-3.2-3.5c-1.5-1.3-2.3-3.1-3.3-4.7c-1.4-2-3.2-3.9-4.8-5.7c-1.2,2.4-0.4,5.3-4.5,4.6c-0.8-2.3,2.3-2.4,2.9-4.5
	c0.2-0.7,0.1-3.6-0.3-4.4c-0.8-1.8-2.3-3.2-3.1-5.5c-0.6-1.7-0.9-3.4-2.4-4.1c-0.4-2.3-3.1-2.7-4.4-1.2c-1.2,1.3-0.8,4.4-0.8,6.1
	c-0.3-0.3-0.8-0.4-1.1-1c-0.1,0.4-0.2,0.8-0.3,1.2c-0.5-1.5-1.3-2.9-1.7-4.2c-0.1-0.2,0.5-1,0.3-1.4c-0.2-0.7-1.3-0.9-1.6-1.7
	c-0.4-1.3,0.3-2.3,0.1-3.6c-0.6-2.9-3.8-3.7-6.4-4.8c-1.4-0.6-7.5-3.2-7.8-3.8c-0.7-1.9-1.6-1.2-2.3,0c0.2-0.3,0.2,1.6,0.2,1.7
	c-0.1,0.4-0.9,1.2-1.1,1.7c-0.4,1-1.3,3.9-0.9,5.1c0.7,1.9,1.9,1.2,3.3,2c3,1.7,5,3.5,6.2,7c0.5,1.6,0.3,2.9,1.2,4.3
	c0.7,1.1,1.9,2.5,2.7,3.6c1.1,1.7,2.9,3,3.9,4.7c0.8,1.3,0.6,4.2,2.3,4.3c2.5-5.8-5.2-10.5-5.7-15.6c-0.3-2.7-1.8-4.2-2.3-6.7
	c-0.2-0.8-0.1-2.4-0.3-3.5c-0.2-1.2-1.6-1.9,0-2.9c2.3,3.2-0.1,8.5,3.2,11.6c1.6,1.5,4.8,3,6.5,4.9c0,2.2,0.2,4.5,0.3,6.2
	c0.2,2.9,1,5.9,1.9,8.6c0.6,1.7,1.6,2.4,2.4,3.6c0.9,1.4,0.5,2.4,0.8,3.7c0.3,1.3,1.4,2.3,1.8,3.8c0.3,1.5,0,3.2,0.6,4.6
	c0.3,0.8,1.5,1.4,1.8,2.2c0.3,0.9,0.1,2.7,0.3,3.7c0.3,1.7,0.7,3.4,0.8,5.2c-1.8-1-4.3-6.8-5.1-9.1c-0.8-2.3-2-7-3.5-8.8
	c-1.2-1.4-3.1-2-4.3-3.7c-1.1-1.5-2.4-2.7-3.7-4.3c-2.1-2.6-3.2-6.1-5.9-8.3c-2.2-1.7-2.6-1.6-4-4.4c-0.8-1.7-1.6-3.6-3.7-4.1
	c0-0.9-0.1-2.1-0.3-2.9c-0.7,1.8-1.4,8.3-0.6,10.2c0.8,1.8,4.4,2.7,5.9,4.4c2,2.2,4.1,4.3,6.1,6.5c1.7,1.8,2.5,4.5,5.3,4
	c-0.3,2,3.2,5,4.1,7c0.8,1.8,1,3.9,1.9,5.6c0.6,1.1,2.2,2.1,2.9,3.5c0.6,1.1,1.3,2.4,1.5,3.6c0.2,1.1-0.4,2.9-0.1,3.5
	c0.5,1.1,1.8,1,2.2,2.6c0.3,1.3-0.6,2.4,0.2,3.8c-3.8,1.4-0.3,7.6,1.3,9.6c2.3,2.9,6.6,2.4,10.1,2.5c4.2,0.1,9.9-0.6,12.7-4
	c2.2-2.7,1.8-5.2,0.2-8c-1.3-2.4-1.5-2.8-1.9-5c-0.2-1.4-0.2-3.6-0.8-4.8c-0.9-1.8-3.9-2.5-3.5-4.9c2.2-0.4,3.5,4.1,5.1,5.5
	c2.2,2,3.7,1.9,4.1,5.4c1.2-3-1.5-3.7-2.2-6.1c-0.3-1.1,0.1-5.2,1-6.1c1.4-1.4,5.5,4.6,7.5,5.9C198.2,124.8,199.3,121.6,196.4,118.4
	z M151.8,78.9c-0.1,0.8-0.2,1.8-0.2,2.8c0.3,0.4,0.6,0.7,0.8,1.1C152.5,81.4,152.2,80.1,151.8,78.9z M312.6,72.8
	c-1.9-3.4-4-4.9-7.6-6.7c-2-1.1-3.7-1.5-5.2-3c-0.5-0.5-0.3-1.2-0.9-1.8c-1-1.1-2.9-1.4-4-2.3c-3.7-2.9-4.7-3.9-9.6-5.3
	c-2.5-0.7-4.5-2.1-6.9-3.3c-4.1-1.9-9.4-3.5-12.8-6.3c-1.1-1-3.3-2.3-4.7-3.3c-2.2-1.5-2.6-2.8-4.1-4.6c-0.9-1-2-1.8-3.3-2.5
	c0.1,0.3,0.2,0.6,0.2,0.9c-3-0.1-3.9,1.8-2.3,4c-1.1,0.5-5.2,0.5-6.1-0.8c-1.4-1.9,1.4-3.9-2.3-4.5c-0.3,0.8,0.2,3.1-0.3,3.7
	c-1.5,1.9-3.5-0.1-4.6-0.9c-2.5-1.8-4.8-3-7.6-4.4c1.1,3.7,5.9,2.5,7,4.9c1.8,4-7.5,0.2-8.9,0.3c-2.5,0.3-3.8,2.4-6.7,1.5
	c-1.7-0.6-2.7-2.9-4.4-3.2c-0.3,1.1-0.3,2.3-0.3,3.4c-0.4,0.2-0.9,0.3-1.3,0.4c-0.2-1-0.1-2.2,0.2-3.2c-2.6-0.4-1.5,4.1,0.1,4.9
	c0.7,0.3,1.7-0.3,2.4-0.2c2.3,0.1,2.4,0.5,4.3,1.5c2.5,1.3,4,0.9,6.8,1.6c1.4,0.4,2.5,1.3,3.9,1.5c1.1,0.2,1.7-0.6,2.9,0
	c0.1,3.4-3.8,3.5-5.5,5.5c-1,1.3-0.1,2.6-0.6,3.4c-2.2,3.5-2.7-1.6-4.9-1.8c-0.1,0.5-0.5,0.9-0.6,1.4c-1-0.5-1.6-1.4-2.5-2.1
	c-1.1-0.8-2.3-1.1-3.5-1.9c-1.5-1.1-4.8-4.3-5.8-5.8c-2.4-3.3,0-7.3-0.9-11.1c-0.5-2.1-1.8-2.9-2.9-4.1c1.5,2.6,2.2,5.2,1.8,8.4
	c-0.3,2.7-0.4,6.4,1.4,8.6c1.8,2.2,4.8,2.7,6.6,4.8c1.6,1.9,3.2,3.3,4,5.7c0.8,2.2,0.2,5.1,1.1,7c0.6,1.3,1.9,1.4,2.3,2.5
	c0.8,1.9,0.3,3,1.5,5c1.7,2.7,2.4,4.9,3.1,8.1c-2.3-1.3-3.4-3.9-5.4-5.2c-0.1,2.5,2.3,6.2,3.1,8.7c0.5,1.4,1.1,4,2.1,4.9
	c0.7,0.7,1.8,0.1,2.6,0.9c0.9,0.8,1.3,2.4,2.1,3.2c0.8,0.9,1.7,1.1,2.5,2.5c2.7,4.7,4.1,10.2,9.1,13.1c6.3,3.5,4.1-1.7,2.4-5.2
	c-1-2.2-1.4-2.5-3.3-4.6c-2.2-2.4-4.6-5.1-5.7-7.8c-0.7-1.6-1.1-2.9-2.5-4.2c-0.7-0.7-2.8-1.6-3-2.6c-0.5-1.7,1.8-3.2,2-4.7
	c0.2-1.2-0.3-1.8-0.5-3c-0.3-2-1.9-6.2,0-7.9c1.4,1.6,0.8,4.2,1.5,6.1c0.6,1.6,1.5,2.1,2.4,3.4c0.6,0.9,2.5,3.1,2.4,4.2
	c-0.6-0.1-1.4,0.2-1.9,0.1c-0.4,1.8,1.1,1.8,1.8,3.1c0.6,1.1,0.4,2.9,0.7,4c0.5,1.6,1.8,3,2.9,4.7c1.2,1.8,2.1,4.3,4.6,4.3
	c0.6-3.2-2.1-4.9-1.9-8.1c3.1,0.5,0.9-2.6,2.6-3.2c1.3-0.5,3.6,2.4,3.9,3.4c0.3,1.1-0.7,2-0.4,3c0.3,1.2,0.7,0.8,1.4,1.8
	c2.4,3.5,4.3,4.1,7,0.8c1.6,0.9,2.4,2.7,3.6,4c3,3.4,6.9,3.9,10.9,5.9c6.7,3.3,12.2,8.5,19.9,9.2c5.3,0.5,10.9-2.4,10.5-8.3
	c-0.2-2.3-1.8-3.9-1.5-6.3c0.3-2.5,1.8-4,2-6.6c0-0.5-0.6-0.9-0.6-1.4c0.1-0.7,0.8-1.1,0.8-1.6c0.2-1.8,0.1-2.9-0.2-4.7
	c-0.4-2-1.1-5.6,2.4-5.4c2,0.1,4,3.6,6,1c0.1-0.1,0.1-0.2,0.2-0.3C315.6,78.2,314.1,75.4,312.6,72.8z M217.6,23.8
	c0-2.7-4.1-2.7-3.3-5.1c1.3,0.1,2.5,0.7,3.6,1.2c0.4-1.7-0.9-2.9-2.1-3.8c0.3-0.2,0.5-0.6,0.8-0.9c-1.4-2.9-5.4-3.2-7.7-4.9
	c-0.9-0.7-1.5-2.1-2.3-2.9c-1.6-0.8-3.5-1.8-5-1.3c-1.7,0.5-2.6,2.3-2.6,2.8c-0.3-0.2-0.6-0.4-1-0.4c-0.4,0.6-0.5,1.2-0.3,1.9
	c1.2,0.6,0.7,1.6-0.2,2.4c3-0.1,4-3.6,6.8-1.5c0,0,2.9,3.3,2.9,3.3c0.1,1.4-1.4,1.8-2.3,2.5c0.4,0.5,0.3,1,0.6,1.4
	c-0.8-0.4-1,0.1-1.6-0.8c0.1,0.6-0.2,1.4-0.1,2c-0.4-0.5-1.3-1-1.6-1.4c-0.3,1.1-0.1,2.1,0.7,2.9c-1.1-0.1-2-0.2-3-0.3
	c-0.6,2.1,1.2,2.4,2.6,2.6c-2.8,0.5-3.4,1.6,0.1,1.5c2.4-0.1,3.6-0.8,5.5,1.7c0.1,0.1,0.2,0.2,0.3,0.3c-0.5-1.4-0.2-3-0.7-4.4
	C210.5,24,214.2,24.4,217.6,23.8z M208.1,27c0.3,0.8,0.8,1.3,1.3,1.9C209,28.2,208.6,27.6,208.1,27C208.1,26.9,208.1,27,208.1,27z
	 M207,7.6c0.1,0.1,0.2,0.1,0.3,0.2C207.3,7.7,207.2,7.7,207,7.6z M206.3,7.2c0.1,0.1,0.1,0.1,0.2,0.2c0.2,0.1,0.4,0.2,0.5,0.3
	C206.8,7.5,206.5,7.3,206.3,7.2z"/>
</svg>
