<?xml version="1.0" encoding="utf-8"?>
<!-- Generator: Adobe Illustrator 19.2.1, SVG Export Plug-In . SVG Version: 6.00 Build 0)  -->
<svg version="1.1" id="Layer_1" xmlns="http://www.w3.org/2000/svg" xmlns:xlink="http://www.w3.org/1999/xlink" x="0px" y="0px" viewBox="0 0 27.6 59.6" enable-background="new 0 0 27.6 59.6" xml:space="preserve">
<g id="Empire_State_Building">
	<path fill="#D8EFFD" d="M16.5,18.3H13l0.1-0.5c0.5-1.2,0.7-2.4,0.7-3.7v-2.8h1.8v2.7c0,1.2,0.2,2.5,0.7,3.7L16.5,18.3z"/>
	<rect x="13.8" y="9.3" fill="#D8EFFD" width="1.7" height="2.7"/>
	<g>
		<rect x="14.3" y="11.3" fill="#B4CEDB" width="0.2" height="6.9"/>
	</g>
	<g>
		<rect x="15" y="11.3" fill="#B4CEDB" width="0.2" height="6.9"/>
	</g>
	<path fill="#D8EFFD" d="M15.7,11.3L15.7,11.3c-0.7,0-1.4,0-2,0l0,0v-0.9l0.1,0c0.7,0,1.3,0,2,0h0V11.3z"/>
	<g>
		<path fill="#B4CEDB" d="M14.7,11.4c-0.3,0-0.7,0-1,0l0,0l0-0.2l0,0c0.7,0,1.3,0,2,0l0,0l0,0.2l0,0C15.4,11.4,15.1,11.4,14.7,11.4z
			"/>
	</g>
	<polygon fill="#B4CEDB" points="13.8,11.4 15.6,12.7 15.6,11.4 	"/>
	<g>
		<path fill="#B4CEDB" d="M16.4,18.3c0,0-0.4-1-0.5-1.4c-0.1-0.4-0.4-1.6-0.4-2.1c0-0.4,0-3.4,0-3.5l0.2,0c0,0,0,3.1,0,3.5
			c0,0.4,0.3,1.7,0.4,2c0.1,0.4,0.5,1.3,0.5,1.4L16.4,18.3z"/>
	</g>
	<path fill="#D8EFFD" d="M15.5,9.3h-1.7L14,8.9l0.2-0.1c0.3-0.2,0.6-0.2,0.9,0l0.2,0.1L15.5,9.3z"/>
	<rect x="14.7" y="9.3" fill="#B4CEDB" width="0.8" height="1.2"/>
	<g>
		<path fill="none" d="M15.5,9.3l-0.4,0l-0.3-0.6c-0.2,0-0.4,0-0.6,0.1L14,8.9l-0.2,0.4L15.5,9.3L15.5,9.3z"/>
		<path fill="#B4CEDB" d="M15.5,9.3l-0.2-0.4l-0.2-0.1c-0.1-0.1-0.2-0.1-0.3-0.1l0.3,0.6L15.5,9.3z"/>
	</g>
	<rect x="13.7" y="9.1" fill="#B4CEDB" width="2" height="0.1"/>
	<rect x="13.6" y="10.3" fill="#B4CEDB" width="2.1" height="0.1"/>
	<rect x="14.6" y="4" fill="#B4CEDB" width="0.2" height="4.7"/>
	<g>
		<rect x="14.5" y="3.9" fill="#B4CEDB" width="0.4" height="0.1"/>
	</g>
	<polygon fill="#B4CEDB" points="14.6,3.9 14.7,0 14.7,3.9 	"/>
	<rect x="14.4" y="6.1" fill="#D8EFFD" width="0.2" height="2.4"/>
	<rect x="14.8" y="6.1" fill="#D8EFFD" width="0.1" height="1.6"/>
	<g>
		<rect x="12.5" y="18.3" fill="#EBF6FC" width="4.4" height="0.4"/>
		<g>
			<rect x="12.5" y="18.6" fill="#B4CEDB" width="4.4" height="0.2"/>
		</g>
	</g>
	<g>
		<rect x="12.2" y="18.8" fill="#EBF6FC" width="4.9" height="0.4"/>
		<g>
			<rect x="12.2" y="19.1" fill="#B4CEDB" width="4.9" height="0.2"/>
		</g>
	</g>
	<g>
		<rect x="12.1" y="19.3" fill="#EBF6FC" width="5.3" height="0.4"/>
		<g>
			<rect x="12.1" y="19.6" fill="#B4CEDB" width="5.3" height="0.2"/>
		</g>
	</g>
	<rect x="12.2" y="19.6" fill="#B4CEDB" width="4.9" height="1"/>
	<rect x="12.2" y="19.6" fill="#6FADC6" width="4.9" height="0.2"/>
	<rect x="12.5" y="19.8" fill="#0B9CDA" width="4.4" height="0.8"/>
	<rect x="11.6" y="20.5" fill="#E7DE8F" width="6.1" height="35.7"/>
	<rect x="11.5" y="21.7" fill="#F2EAB1" width="6.3" height="1.3"/>
	<g>
		<g>
			<path fill="#C2A48D" d="M12.8,21.7v1.3L12.5,23v1.5H12V23l-0.4-0.1v-1.3H12v-1.1h0.4v1.1H12.8z M13.5,20.5h-0.5v4h0.5V20.5z
				 M14.4,20.5h-0.5v35.7h0.5V20.5z M15.3,20.5h-0.5v35.7h0.5V20.5z M16.3,20.5h-0.5v35.7h0.5V20.5z M17.4,21.7v-1.1H17v1.1h-0.4
				v1.3L17,23v1.5h0.4V23l0.3-0.1v-1.3H17.4z"/>
		</g>
		<g>
			<path fill="#EDE7BC" d="M12.7,21.7v1.3L12.4,23v1.5H12V23l-0.4-0.1v-1.3H12v-1.1h0.4v1.1H12.7z M13.5,20.5H13v4h0.5V20.5z
				 M14.4,20.5h-0.5v35.7h0.5V20.5z M15.3,20.5h-0.5v35.7h0.5V20.5z M16.3,20.5h-0.5v35.7h0.5V20.5z M17.4,21.7v-1.1h-0.4v1.1h-0.4
				v1.3l0.4,0.1v1.5h0.4V23l0.3-0.1v-1.3H17.4z"/>
		</g>
	</g>
	<rect x="10.5" y="24.6" fill="#EDE7BC" width="2.9" height="5.8"/>
	<g>
		<rect x="11.2" y="27.5" fill="none" width="1.5" height="0.3"/>
		<rect x="11.2" y="26.9" fill="none" width="1.5" height="0.3"/>
		<rect x="12.7" y="29.8" fill="#E7DE8F" width="0.4" height="0.5"/>
		<rect x="10.8" y="26.9" fill="#E7DE8F" width="0.4" height="0.3"/>
		<rect x="10.8" y="28.1" fill="#E7DE8F" width="0.4" height="0.9"/>
		<rect x="10.8" y="27.5" fill="#E7DE8F" width="0.4" height="0.3"/>
		<path fill="#E7DE8F" d="M13.1,25.2c0-0.1-0.1-0.2-0.2-0.2s-0.2,0.1-0.2,0.2v1.3h0.4V25.2z"/>
		<rect x="12.7" y="26.9" fill="#E7DE8F" width="0.4" height="0.3"/>
		<rect x="12.7" y="27.5" fill="#E7DE8F" width="0.4" height="0.3"/>
		<path fill="#E7DE8F" d="M11.2,25.2c0-0.1-0.1-0.2-0.2-0.2s-0.2,0.1-0.2,0.2v1.3h0.4V25.2z"/>
		<rect x="12.7" y="28.1" fill="#E7DE8F" width="0.4" height="0.9"/>
		<rect x="10.8" y="29.8" fill="#E7DE8F" width="0.4" height="0.5"/>
		<rect x="12.7" y="29.2" fill="#E7DE8F" width="0.4" height="0.3"/>
		<rect x="10.8" y="29.2" fill="#E7DE8F" width="0.4" height="0.3"/>
	</g>
	<polygon fill="#EDE7BC" points="16,30.4 16,56.2 13.6,56.2 13.6,30.4 10.2,30.4 10.2,59.7 13.6,59.7 13.6,59.7 16,59.7 16,59.7
		19.4,59.7 19.4,30.4 	"/>
	<polygon fill="#C2A48D" points="13.4,24.6 13.4,30.4 13.6,30.4 13.6,56.2 15.3,56.2 15.3,31.8 14.2,30.4 14.2,25.6 	"/>
	<rect x="16.3" y="24.6" fill="#EDE7BC" width="2.9" height="5.8"/>
	<g>
		<rect x="17" y="27.5" fill="none" width="1.5" height="0.3"/>
		<rect x="17" y="26.9" fill="none" width="1.5" height="0.3"/>
		<rect x="18.5" y="29.8" fill="#E7DE8F" width="0.4" height="0.5"/>
		<rect x="16.6" y="26.9" fill="#E7DE8F" width="0.4" height="0.3"/>
		<rect x="16.6" y="28.1" fill="#E7DE8F" width="0.4" height="0.9"/>
		<rect x="16.6" y="27.5" fill="#E7DE8F" width="0.4" height="0.3"/>
		<path fill="#E7DE8F" d="M18.9,25.2c0-0.1-0.1-0.2-0.2-0.2s-0.2,0.1-0.2,0.2v1.3h0.4V25.2z"/>
		<rect x="18.5" y="26.9" fill="#E7DE8F" width="0.4" height="0.3"/>
		<rect x="18.5" y="27.5" fill="#E7DE8F" width="0.4" height="0.3"/>
		<path fill="#E7DE8F" d="M17,25.2c0-0.1-0.1-0.2-0.2-0.2s-0.2,0.1-0.2,0.2v1.3H17V25.2z"/>
		<rect x="18.5" y="28.1" fill="#E7DE8F" width="0.4" height="0.9"/>
		<rect x="16.6" y="29.8" fill="#E7DE8F" width="0.4" height="0.5"/>
		<rect x="18.5" y="29.2" fill="#E7DE8F" width="0.4" height="0.3"/>
		<rect x="16.6" y="29.2" fill="#E7DE8F" width="0.4" height="0.3"/>
	</g>
	<path fill="#0B9CDA" d="M16.6,21.7h-0.3v-0.5h0.3V21.7z M15.7,21.2h-0.3v0.5h0.3V21.2z M14.8,21.2h-0.3v0.5h0.3V21.2z M13.9,21.2
		h-0.3v0.5h0.3V21.2z M13,21.2h-0.3v0.5H13V21.2z M17.7,23.2h-0.3v1.3h0.3V23.2z M16.7,23.2h-0.3v1.3h0.3V23.2z M15.8,23.2h-0.3v33
		l0.3,0V23.2z M14.9,23.2h-0.3v33h0.3V23.2z M13.9,23.2h-0.3v33h0.3V23.2z M13,23.2h-0.3v1.3H13V23.2z M12,23.2h-0.3v1.3H12V23.2z
		 M10.9,27.2h0.3v-0.3h-0.3V27.2z M11.1,27.5v0.3h-0.3v-0.3H11.1z M10.9,29.5v-0.3h0.3v0.3H10.9z M12.8,26.6v-1H13v1H12.8z
		 M12.5,27.2h-0.3v-0.3h0.3V27.2z M11.5,26.9h0.2v0.3h-0.2V26.9z M13,28.1v0.9h-0.3v-0.9H13z M13,29.5h-0.3v-0.3H13V29.5z
		 M11.1,28.1v0.9h-0.3v-0.9H11.1z M13,27.5v0.3h-0.3v-0.3H13z M11.8,26.9h0.3v0.3h-0.3V26.9z M11.1,29.8v0.5h-0.3v-0.5H11.1z
		 M11.5,26.6v-1.4h0.2v1.4H11.5z M10.9,26.6v-1h0.3v1H10.9z M12.5,28.1v2.3h-1.1v-2.3h0.2v2.3h0.1v-2.3h0.3v2.3h0.1v-2.3H12.5z
		 M13,29.8v0.5h-0.3v-0.5H13z M12.2,26.6v-1.4h0.3v1.4H12.2z M12.5,27.8h-0.3v-0.3h0.3V27.8z M11.8,26.6v-1.4h0.3v1.4H11.8z
		 M12.1,27.8h-0.3v-0.3h0.3V27.8z M11.7,27.8h-0.2v-0.3h0.2V27.8z M13,26.9v0.3h-0.3v-0.3H13z M11.1,59.6h-0.5V30.9h0.5V59.6z
		 M13.3,59.6h-0.5V30.9h0.5V59.6z M12.2,59.6h-0.7V30.9h0.3v28.8h0.1V30.9h0.3V59.6z M12.5,30.9v28.8h-0.2V30.9H12.5z M16.7,27.2
		h0.3v-0.3h-0.3V27.2z M16.9,27.5v0.3h-0.3v-0.3H16.9z M16.7,29.5v-0.3h0.3v0.3H16.7z M18.6,26.6v-1h0.3v1H18.6z M18.3,27.2H18v-0.3
		h0.3V27.2z M17.2,26.9h0.2v0.3h-0.2V26.9z M18.8,28.1v0.9h-0.3v-0.9H18.8z M18.8,29.5h-0.3v-0.3h0.3V29.5z M16.9,28.1v0.9h-0.3
		v-0.9H16.9z M18.8,27.5v0.3h-0.3v-0.3H18.8z M17.6,26.9h0.3v0.3h-0.3V26.9z M16.9,29.8v0.5h-0.3v-0.5H16.9z M17.2,26.6v-1.4h0.2
		v1.4H17.2z M16.7,26.6v-1h0.3v1H16.7z M18.3,28.1v2.3h-1.1v-2.3h0.2v2.3h0.1v-2.3h0.3v2.3H18v-2.3H18.3z M18.8,29.8v0.5h-0.3v-0.5
		H18.8z M18,26.6v-1.4h0.3v1.4H18z M18.3,27.8H18v-0.3h0.3V27.8z M17.6,26.6v-1.4h0.3v1.4H17.6z M17.9,27.8h-0.3v-0.3h0.3V27.8z
		 M17.5,27.8h-0.2v-0.3h0.2V27.8z M18.8,26.9v0.3h-0.3v-0.3H18.8z M16.9,59.6h-0.5V30.9h0.5V59.6z M19.1,59.6h-0.5V30.9h0.5V59.6z
		 M17.9,59.6h-0.7V30.9h0.3v28.8h0.1V30.9h0.3V59.6z M18.3,30.9v28.8H18V30.9H18.3z"/>
</g>
<path fill="#1E81AD" d="M9.7,54.5H5.5V35.7h4.2V54.5z M4.8,40.1H0.1v14.7h4.7V40.1z M23.6,33.1h-3.8V56h3.8V33.1z M27.6,41.5h-3.7
	v14.8h3.7V41.5z"/>
</svg>
