<?xml version="1.0" encoding="UTF-8" standalone="no"?>
<svg id="Paris" style="enable-background:new 0 0 409.9 730.7" xmlns="http://www.w3.org/2000/svg" xml:space="preserve" height="731px" viewBox="0 0 409.9 730.7" width="410px" version="1.1" y="0px" x="0px" xmlns:xlink="http://www.w3.org/1999/xlink">
<g id="Eiffel_Tower">
	<path id="Shadow" fill="#C7AC8D" d="m316 567c0-1.6-1.6-11-1.6-14.9s3.1-7.1 3.1-7.1l-2.4-3.1-1.6-8.6v-13.4h-22c-3.9-7.9-7.9-14.9-9.4-18.9-6.3-13.4-26.7-76.2-26.7-76.2l-2.4-11 4.7-25.1-8.6-5.5-9.4-4.7s-25.9-214-27.5-248c-1.6-33.8-1.6-36.9-1.6-36.9l3.1-4.7 3.1-3.1 0.8-23.6-5.5-5.5 2.4-4.7v-8.5l-3.9 3.1-8.6-3.1-2.4-18.1-2.4-0.8v-0.8h-1.6v0.8l-1.6 0.8v18.1l-8.6 3.1-3.9-3.1v7.1l2.4 4.7-5.5 5.5 0.8 23.6 3.1 3.1 3.1 4.7s0 2.4-1.6 36.9c-1.6 33.8-27.5 248-27.5 248l-9.4 4.7-8.6 5.5 4.7 25.1-2.4 11s-20.4 62.9-26.7 76.2c-1.6 3.9-5.5 11-9.4 18.9h-23.9l0.8 3.1-0.8 14.1-3.1 3.1v1.6c0-1.6 3.1 8.6 3.9 14.1s-4.7 15.7-4.7 15.7l-57.4 84.1 69.9 53s11-51.1 53.4-71.5c22-10.2 29.9-14.1 63.6-12.6 60.5 3.1 79.4 47.9 78.6 48.7s18.9 60.5 18.9 60.5l108-33c-1 1-76-105-95-132zm-150-34l1.6-6.3h17.3v12.6h-20.4c0-3 0-5 1-7zm20 6v-11.8h22v11.8h-22zm45-1l-21.2 0.8v-11.8h18.1c0 4 2 8 3 11zm-58-34c3.9-18.9 7.1-46.4 7.1-46.4l3.1-25.1h28.2l3.1 25.1s3.1 26.7 7.1 46.4c0.8 4.7 2.4 10.2 3.9 15.7h-57.4c2-5 4-11 5-16zm40-52l7.5 7.8 1.1-1.1-7.5-7.9 0.9-1h2.4l-1.3-1.3 4-4.2-1.1-1.1-4.7 5h-2.2l7.2-7.5-1.1-1.1-7.4 7.7-1.1-1.2 5-5.3-1.1-1.1v-1.1h-15.7v-0.8h15.7v-8.6h-36.1v7.9h2.4l0.8 0.8h11.8c0.8 0.8 0.8 1.6 0.8 1.6h-14.1v0.8h2.1l-1.1 1 2.8 2.9-0.8 0.8-4.9-5.1-1.1 1.1 5 5.2-1.3 1.4-7.1-7.5-1.1 1.1 6.6 7h-0.9l-2.3-2.6-1.2 1 3.4 3.8-7.8 8.2 1.1 1.1 7.7-8.1 1.1 1.2-5.3 5.6 1.1 1.1 1.4-1.5 2.8 1.1h0.3l0.1 0.1 0.1-0.1h3.5l0.5 0.5 0.5-0.5h0.7l0.3 0.3 0.4-0.3h2.5l0.3 0.3 0.3-0.3 0.8 0.8 0.8-0.8h1.5l0.7 0.6 0.6-0.6h0.4l0.6 0.6 0.6-0.6h1.9l0.5 0.4 0.3-0.3 0.8 0.8 1-0.9h2.4l0.2 0.2 0.2-0.2h0.1l0.7 0.7 0.8-0.7h1.8l0.5 0.5 0.5-0.5h0.5l0.5 0.5 0.6-0.5h2.6l0.9 0.9 0.9-0.9h3l0.7 0.7 0.7-0.7h0.9l-1.6-1.6-4.1-4.3 1-4zm-3 1l-1.1-1.2 1.2-1.2h0.3l0.9 1-1 1zm-23-12h2.5l-0.7 0.6 0.5 0.6-1.3 1.4-1.1-1.2 0.7-0.8-2-1zm-1 0l-0.3-0.3h0.5zm5 0h0.1zm10 0h2.4l-0.6 0.6 0.5 0.6-1.3 1.4-1.1-1.2 0.7-0.8v-1zm-1 0l-0.2-0.2h0.4zm-7 9l1.1 1.2-1.3 1.4-1.1-1.2 1-1zm-3 1l-0.3-0.3h0.6-1zm5-1h0.2l-0.1 0.1zm2 0h0.2l1 1.1-1.3 1.4-1.1-1.2 1-1zm5 0l1.1 1.2-0.8 0.8-1.1-1.2 1-1zm1 0h0.5l-0.3 0.3h-1zm0-1l0.7-0.7 0.7 0.7h-2zm-1-1l-1.1-1.2 1.3-1.4 1.1 1.2-1 1zm-2 1h-1l0.5-0.5v1zm-6 0l0.8-0.9 0.8 0.9h-2zm-4 0l0.6-0.7 0.6 0.7h-2zm-2 1l1.1 1.2-0.8 0.8-1.1-1.2 1-1zm-1 4l-1.3 1.4-1.1-1.2 1.3-1.4 1 1zm1 1l1.1 1.2-1.3 1.4-1.1-1.2 1-1zm2-1l0.8-0.8 1.1 1.2-0.8 0.8-1-1zm3 1l1.1 1.2-0.8 0.8-1.1-1.2 1-1zm1-1l1.3-1.4 1.1 1.2-1.3 1.4-1-1zm3 1l1.1 1.2-1.3 1.4-1.1-1.2 1-1zm1-1l1.3-1.4 1.1 1.2-1.3 1.4-1-1zm4 1l1.1 1.2-1.3 1.4-1.1-1.2 1-1zm1-1l0.8-0.8 1.1 1.2-0.8 0.8-1-1zm2-2l1.3-1.4 1.1 1.2-1.3 1.4-1-1zm3-2h0.1zm-3-3l1.3-1.4 1.1 1.2-1.3 1.4-1-1zm-1-1l-1.1-1.2 1.3-1.4 1.1 1.2-1 1zm1-4l0.7-0.8-0.4-0.4h3l-2.2 2.3-2-1zm-1-1zm-3 3l-1.3 1.4-1.1-1.2 1.3-1.4 1 1zm-3 3l-0.8 0.8-1.1-1.2 0.8-0.8 1 1zm-3-1l-1.1-1.2 0.8-0.8 1.1 1.2-1 1zm-1 1l-1.3 1.4-1.1-1.2 1.3-1.4 1 1zm-3-1l-1.1-1.2 1.3-1.4 1.1 1.2-1 1zm-4-1l-1.3 1.4-1.1-1.2 1.3-1.4 1 1zm1 1l1.1 1.2-1.3 1.4-1.1-1.2 1-1zm-2 3h-0.9l0.4-0.5 1 1zm-2 1h0.1l1.1 1.1-1.3 1.4-1.1-1.2 1-1zm-2 0l-0.2-0.2h0.3zm1 4l-0.7 0.7-1.1-1.2 0.6-0.7 1 1zm1 1l1.1 1.2-0.8 0.8-1.1-1.2 1-1zm2 2l0.7 0.8h-1.5v-1zm5 0l0.9 1h-1.8l1-1zm4 1l0.6 0.6h-1.2v-1zm4-1l0.8 0.8h-1.6l1-1zm5 0l1 1h-1.9l1-1zm1-1l0.8-0.8 1.1 1.2-0.8 0.8-1-1zm2-2l1.3-1.4 1.1 1.2-1.3 1.4-1-1zm2-5h-1.8l0.9-0.9 1 1zm-1-3l-1.1-1.2 2.6-2.7-0.8-0.7h3.7l-5 5zm-9-5l-0.8 0.8 0.5 0.6-1.3 1.4-1.1-1.2 1.3-1.3-0.2-0.2h2zm-4 0l-0.4-0.4h0.8-1zm-1 0l-1 1 0.5 0.6-0.8 0.8-1.1-1.2 0.7-0.8-0.5-0.4h2zm-13 0h4.3l-0.9 0.8 0.5 0.6-1.3 1.4-2-3zm3 5l1.1 1.2-0.8 0.8-1.1-1.2 1-1zm-1 3h-1.6l0.8-0.8 1 1zm-4 2l0.5-0.6 1.1 1.2-0.6 0.6-1-1zm1 3l1.1 1.2-2.3 2.4h-2.3l3-3zm2 3l1.1 1.2h-2.2l1-1zm26 1l0.6-0.7 0.6 0.7h-2zm6 0h-2.7l-1.7-1.8 1.3-1.4 4 3zm-14-453v0.8l1.6 1.6 0.8-0.8 0.8 0.8-3.1 2.4v-0.9l-0.8-1.6v20.4l-2.4 1.6-1.6-3.9v-17.2h-1.6l0.8 0.8-3.1-2.4h0.8l0.8 0.8 1.6-1.6v-0.8l-3-1.6-1.6 0.8v-0.8l3.9-3.1v0.8l-0.8 0.8 1.6 1.6h2.4l1.6-1.6-0.8-0.8 0.8-0.8 3.1 2.4-0.8 0.8h-0.8l-1 1.5zm26 454l-7.5-7.9 3.5-4-1.2-1-3.5 3.9-9.3-9.7-1.1 1.1 9.4 9.8-7 7.9 1.2 1 6.9-7.8 7.5 7.8v-1z"/>
	<path id="Gold" fill="#E7DE8F" d="m262 596zm148 104l-3.9 3.1-27.5-36.9c-1.6-0.8-7.9-3.9-30.6-14.9l17.3 25.1-0.8 0.8-18.9-27.5c-0.8-0.8-2.4-0.8-3.1-1.6l23.6 35.4-0.8 0.8-23.6-34.6-11 15.7 25.9 39.3-3.9 3.1-8.6-13.4c2.4 4.7 3.9 7.9 3.9 8.6l-3.9 1.6c2.4 5.5 3.9 8.6 3.9 9.4l-4.7 1.6c-0.8-0.8-20.4-48.7-36.9-71.5-8.6-11-25.1-22.8-44.8-32.2-21.2-10.2-44.8-15.7-65.2-15.7h-0.8c-44 0-91.9 32.2-99.8 40.1-8.6 8.6-23.6 35.4-23.6 35.4l-2.4-1.6-2.4 3.9-3.9-2.4 4.7-7.9-12.6-16.5-22.8 33.8h-2.4l21.2-32.2-2.4 0.8-20.4 30.6-1.6-0.8 18.9-28.3-24.9 13-0.8-1.6 29.9-14.1 1.6-2.4h-0.8l-33.8 14.9-0.8-1.6 5.5-2.4-2.4-1.6 20.4-29.9 25.1-36.9 20.5-30h1.6l78.6 0.8 51.1 0.8 0.8-0.8 1.6 0.8 38.5 0.8v-0.8l0.8 0.8h55.8l0.8 0.8 95 138zm-43-52h-16.5l24.4 11-7-11zm-11-17l-8.6 11.8h17.3l-8-12zm-24-5h16.5l-24.4-11 8 11zm-2 2l-2.4 0.8 0.8 0.8h2.4l-1-2zm-8-14l-2.4-1.6 8.6 13.4h2.4l-9-11zm-10 16l25.1 11.8-7.9-11.8h-17zm27 13l1.6 0.8-7.9-13.4h-2.4l8 12zm3-1l9.4-11.8h-17.3l8 12zm10-14l-2.4-0.8h-18.1l0.8 1.6 19-1zm0-2l-29.9-13.4 0.8 0.8 29 12zm-10-14h-17.3l25.1 11-8-11zm-11-15c-2.4 2.4-5.5 7.1-10.2 12.6h19l-9-13zm-2-1l-10.2 11.8 0.8 1.6c7.1-7.9 9.4-11.8 11-13.4h-2zm-2 0h-16.5l7.1 11 10-11zm-34 12l18.1 0.8-25.1-11 7 10zm-9-3c-2.4-0.8-3.9 0-3.1 0.8l5.5 2.4s0-2-2-3zm10 6h18.9l-18.9-0.8v1zm1 0l5.5 8.6 3.1 3.1 10.2-11c-7 0-14 0-18-1zm19-1h0.8v-1l-28.3-12.6h-2.4l0.8 0.8 28 13zm-1-3l-7.1-11h-17.3l24 11zm3 1l0.8 0.8 0.8-0.8-7.9-11.8h-1.6l8 12zm7-23h-45.6l4.7 6.3v-1.6h44.8l-4-4zm-114-11l-5.5-3.9c-0.8 0.8-2.4 1.6-3.9 3.1l-0.8 0.8 5.5 3.9c2-2 3-3 5-4zm-5 5l-0.8 0.8h2.4l-1-1zm-45 9c0-2.4-1.6-3.9-4.7-3.9-2.4 0-3.9 1.6-3.9 3.9 0 0.8 0 1.6 0.8 2.4 3-1 6-1 8-2zm-12 2l2.4-0.8-0.8-2.4c0-0.8 0-1.6-0.8-2.4l-0.8-0.8h-1.6c-2.4 0-3.9 1.6-3.9 3.9v1.6l2.4 3.1 1.6-0.8c3 0 3 0 3-2zm-88.4 50l7.1-11h-1.6l-7.9 12.6 2.4-2zm6.3-16l5.5-8.6-18.9 7.9 13.4 1zm-3.1 15l21.2-9.4-14.9-0.8-6.3 10zm6.3-13l-2.4 0.8h1.6l0.8-1zm0.8-2l7.1-11-2.4 0.8-6.3 10.2h1.6zm1.5 0l17.3 0.8-9.4-11.8-7.9 11zm10.6-37l-0.4 0.4 1.6 1.6h2.4l1.6-0.8-2.8-2.8 0.4-0.4-0.8-0.8h-2.4l-0.8 1.6 1.2 1zm5.2-3c0 0.8-0.8 0.8-1.6 0l2.4 2.4 2.4-1.6-0.8-0.8h-2.4zm1.5-5l-0.8-0.8-0.8 0.8h1.6zm7.9-7v1.6l3.9 3.9 5.5-3.9-5.5-3.9c-0.8 0-2.3 1-3.9 2zm2.3-4l-2.4-1.6v3.9c0.9 0 2.4 0 2.4-2zm15.1 21l-2.4-2.4-3.1 2.4 1.6 1.6h1.6l1-2zm-1 0h2.4l-0.8-0.8-1 1zm-2-10c0.8 0 0.8-0.8 1.6-0.8l-3.9-3.1v3.9h2zm-2 6h-2.4l-1.6 0.8c0.8 0.8 1.6 1.6 1.6 2.4l3.1-2.4-1-1zm-23.4 19l21.2-9.4-14.9-0.8-6.5 10zm7.8-15l0.8-0.8-2.4-2.4-2.4 1.6 1.6 1.6h2.4zm6.3-4h-1.6l2.4 2.4 2.4-1.6-0.8-0.8h-2.3zm-1.5 1l-2.4 2.4 1.6 0.8h1.6l1.6-1.6c-0.9 0-1.7 0-2.4-1zm9.8 3l-2.4-2.4-2.4 1.6 1.6 1.6h0.8l1-2zm0-15l-5.5 3.1 1.6 1.6h3.1v-5zm-12.2 1v3.9h2.4l1.6-1.6-4-2zm0 10h-2.4l-1.6 0.8 2.4 2.4 2.4-2.4-0.8-1zm-0.8-11l-0.8-0.8c-2.4 1.6-3.9 3.1-5.5 3.9l1.6 1.6h3.9c0.8-1 0.8-3 0.8-5zm-7.1 15c0.8 0 0.8 0 0 0zm-7.8 18l2.4-0.8 7.9-11.8h-2.4l-7.9 13zm24.9 0l5.5-8.6-19.6 8.6h13.6zm-18.6 2l-3.1 1.6 0.8 0.8 18.1 0.8 1.6-3.1h-17.6zm25.6-13h-0.8l-27 11h2.4l25.6-11zm-1 11l4.7-3.1s-0.8-0.8-3.1 0c-2 1-2 3-2 3zm7-23l-5.5 0.8 2.4 2.4 3-3zm-1-4h3.9v-4.7c-2.4 0.8-3.9 1.6-5.5 3.9l2 1zm-1 9l0.8 0.8 2.4-3.9-3 3zm0 11c0 0.8 0.8 2.4 1.6 3.1 1.6-0.8 3.9-2.4 6.3-3.1 0-2.4-1.6-3.9-3.9-3.9-2 0-4 2-4 4zm5-28l0.8-5.5-2.4-1.6-5.5 3.9 6.3 3.9zm5 28l7.9-3.1-4.7-7.9c-0.8-0.8-1.6-1.6-3.1-1.6-2.4 0-3.9 1.6-3.9 3.9v0.8l0.8 0.8 0.8 0.8 2 6zm3-30l2.4-3.1c-0.8 0.8-1.6 1.6-3.1 2.4l1 1zm6 26l7.9-3.1-3.9-7.1c-0.8-0.8-0.8-1.6-1.6-1.6l-0.8 0.8-2.4-1.6c-1.6 0-3.1 1.6-3.1 3.9 0 0.8 0.8 2.4 1.6 3.1l2 6zm6-18c1.6-1.6 3.1-2.4 4.7-3.9l-5.5-3.9c-0.8 0.8-2.4 1.6-3.9 3.1l-0.8 0.8 5 4zm10 2l1.6-1.6-5.5-3.9c-1.6 1.6-3.1 3.1-4.7 3.9l1.6 1.6h7zm7-6l-5.5-3.9c-0.8 0.8-2.4 1.6-3.9 3.1l-0.8 0.8 5.5 3.9c2-2 3-3 5-4zm5 6c0-0.8 0.8-0.8 1.6-1.6l-5.5-3.9c-1.6 1.6-3.1 3.1-4.7 3.9l2.4 1.6h7zm7-6l-5.5-3.9c-0.8 0.8-2.4 1.6-3.9 3.1l-0.8 0.8 5.5 3.9c2-2 4-3 5-4zm-3 5l-0.8 0.8h1.6l-1-1zm-6 9s2.4 0 4.7-0.8c2.4-0.8 3.9-0.8 3.9-0.8s-1.6-2.4-3.9-2.4c-1.6 0-3.1 1.6-3.1 1.6l-2 2zm9-8h5.5c0.8-0.8 1.6-0.8 2.4-1.6l-5.5-3.9c-1.6 1.6-3.1 3.1-4.7 3.9l4 2zm7 0h2.4l-0.8-0.8c1 0 0 1-1 1zm7-6l-5.5-3.9c-0.8 0.8-2.4 1.6-3.9 3.1l-0.8 0.8 5.5 3.9c2-2 3-3 5-4zm-3 4l2.4 1.6h5.5c0.8-0.8 1.6-0.8 2.4-1.6l-5.5-3.9c-1 2-3 4-4 4zm11 0c1.6-1.6 3.1-2.4 4.7-3.9l-5.5-3.9c-0.8 0.8-2.4 1.6-3.9 3.1l-0.8 0.8 6 4zm0 2h2.4l-1.6-0.8v1zm4 0h5.5c0.8-0.8 1.6-0.8 2.4-1.6l-5.5-3.9c-1.6 1.6-3.1 3.1-4.7 3.9l4 2zm11-2l2.4 1.6h5.5c0.8 0 1.6-0.8 2.4-1.6l-5.5-3.9c-1 2-3 4-4 4zm11 0c1.6-1.6 3.1-2.4 4.7-3.9l-5.5-3.9c-0.8 0.8-2.4 1.6-3.9 3.1l-0.8 0.8 6 4zm-1 2h3.1l-1.6-0.8s0 1-1 1zm5 0h4.7c0.8 0 1.6-0.8 2.4-1.6l-5.5-3.9c-1.6 1.6-3.1 3.1-4.7 3.9l4 2zm9-2c1.6-1.6 3.1-2.4 4.7-3.9l-5.5-3.9c-0.8 0.8-2.4 1.6-3.9 3.1l-0.8 0.8 5 4zm0 1c-0.8 0-0.8 0.8-1.6 0.8h3.1l-1-1zm-3 8s1.6 0 3.9 0.8c2.4 0.8 4.7 0.8 4.7 0.8l-0.8-2.4s-0.8-1.6-3.1-1.6c-3 0-5 2-5 2zm12-7l2.4-2.4-5.5-3.9c-1.6 1.6-3.1 3.1-4.7 3.9l3.1 2.4h5zm-3 9c2.4 0 4.7 0.8 7.9 1.6 0.8-0.8 0.8-1.6 0.8-2.4 0-2.4-1.6-3.9-3.9-3.9-0.8 0-1.6 0-2.4 0.8-1-1-2 1-3 3zm9-8l-1.6-1.6c-0.8 0.8-0.8 1.6-1.6 1.6h4zm2-7l-5.5-3.9c-0.8 0.8-2.4 1.6-3.9 3.1l-0.8 0.8 5.5 3.9c2-2 4-3 5-4zm-2 4l3.1 2.4h4.7l2.4-2.4-5.5-3.9c-3 2-4 3-5 4zm21-1l-3.9-2.4c-1.6 0.8-3.1 2.4-4.7 3.9l3.1 2.4h4.7c0.8-0.8 1.6-0.8 2.4-1.6l-1-2zm46-4l-6.3-3.9c-0.8 0.8-2.4 2.4-4.7 3.9l5.5 4.7c3-2 5-4 6-5zm-7 8h4.7l-2.4-1.6c-1 1-2 1-3 2zm-4-7c-1.6 0.8-3.1 2.4-4.7 3.9l3.9 2.4h3.9c0.8-0.8 2.4-1.6 3.1-2.4l-6-4zm-7 5s-0.8 0.8-2.4 1.6h4.7l-3-2zm5-5l-6.3-3.9c-1.6 0.8-3.1 2.4-4.7 3.9l6.3 3.9c2-2 4-3 5-4zm-12 0c-1.6 0.8-3.1 2.4-4.7 3.9l3.9 2.4h3.9c0.8-0.8 2.4-1.6 3.1-2.4l-6-4zm-5 5c-0.8 0-1.6 0.8-2.4 1.6h4.7l-3-2zm4-5l-6.3-3.9c-1.6 0.8-3.1 2.4-4.7 3.9l6.3 3.9c2-2 4-3 5-4zm-11 0c-0.8 0.8-2.4 1.6-3.1 2.4l2.4 3.9h3.9c1.6-0.8 2.4-1.6 3.1-2.4l-6-4zm-2 0l-5.5-3.9c0 0.8-0.8 0.8-0.8 0.8l3.9 5.5c1-1 1-2 2-2zm-6 7h1.6c-1-1-2-1-2 0zm-11-2c-0.8 0-0.8 0.8-1.6 1.6h3.9l-2-2zm5-5l-5.5-3.9c-0.8 0.8-2.4 1.6-3.9 3.1l-0.8 0.8 5.5 3.9c2-2 3-3 5-4zm-15 16l2.4 0.8c0.8 0.8 1.6 1.6 3.1 1.6l1.6 0.8 2.4-3.9v-1.6c0-1.6-0.8-3.1-2.4-3.9l-0.8 0.8-1.6-0.8c-0.8 0-1.6 0.8-2.4 1.6 0 0.8-0.8 1.6-0.8 2.4l-1 2zm8 3l7.9 3.1 7.9 3.1 3.1-5.5c0.8 0 0.8-0.8 0.8-0.8l0.8-0.8v-0.8c0-2.4-1.6-3.9-3.9-3.9-0.8 0-2.4 0.8-3.1 1.6l-5.5 7.1 2.4-4.7c0.8-0.8 1.6-1.6 1.6-3.1 0-2.4-1.6-3.9-3.9-3.9-0.8 0-2.4 0.8-3.1 1.6l-5 7zm18 8c2.4 0.8 4.7 2.4 6.3 3.1 1.6-0.8 2.4-2.4 2.4-3.9 0-2.4-1.6-3.9-3.9-3.9s-4 2-4 5zm43-27c-1.6 1.6-3.1 3.1-5.5 4.7l3.9 2.4h7.1l-3.9-6.3-2-1zm-5-7c-0.8 0-1.6 0.8-2.4 1.6l6.3 3.9-4-6zm-7-1l3.1 1.6c0.8-0.8 1.6-1.6 2.4-1.6h-5zm-5-1l-3.1 3.1 6.3 3.9c1.6-0.8 3.1-2.4 4.7-3.9l-4.7-3.1h-3zm-8 0l3.1 2.4c0.8-0.8 1.6-1.6 3.1-2.4h-6zm-5 0c-1.6 0.8-2.4 1.6-3.9 3.1l6.3 3.9c1.6-1.6 3.1-2.4 4.7-3.9l-4.7-3.1h-2zm-9 0l3.9 2.4 2.4-2.4h-6zm-7 3l5.5 3.9c1.6-0.8 3.1-2.4 4.7-4.7l-4.7-3.1h-1.6c0 2-1 3-3 4zm-5-2l3.9 2.4 3.1-3.1h-7.1v1zm-5 1l-2.4 2.4 5.5 3.9-3-6zm-9-2l4.7 3.1c1.6-0.8 2.4-1.6 3.1-2.4l-0.8-0.8h-7zm-1 0c-0.8 0.8-2.4 2.4-4.7 3.9l5.5 3.9c1.6-1.6 3.1-2.4 4.7-3.9l-6-4zm-12 0l5.5 3.1c1.6-1.6 3.1-2.4 3.9-3.1h-9zm-1 0c-0.8 0.8-2.4 2.4-4.7 3.9l5.5 3.9c1.6-1.6 3.1-2.4 4.7-3.9l-5-4zm-12-1l5.5 3.9c2.4-1.6 3.9-2.4 4.7-3.9h-11zm-2 1c-0.8 0.8-2.4 2.4-4.7 3.9l5.5 3.9c1.6-1.6 3.1-2.4 4.7-3.9l-5-4zm-11-1l5.5 3.9c1.6-1.6 3.1-2.4 4.7-3.9h-10zm-1 1c-0.8 0.8-2.4 2.4-4.7 3.9l5.5 3.9c1.6-1.6 3.1-2.4 4.7-3.9l-5-4zm-12-1l6.3 3.9c1.6-1.6 3.1-3.1 4.7-3.9h-11zm-2 1c-0.8 0.8-2.4 2.4-4.7 3.9l5.5 3.9c1.6-1.6 3.1-2.4 4.7-3.9l-5-4zm-11-1l5.5 3.9c1.6-1.6 3.9-3.1 4.7-3.9h-10zm-1 1c-0.8 0.8-2.4 2.4-4.7 3.9l5.5 3.9c1.6-1.6 3.1-2.4 4.7-3.9l-5-4zm-12-1l5.5 3.9c2.4-1.6 3.9-2.4 4.7-3.9h-11zm-2 1c-0.8 0.8-2.4 2.4-4.7 3.9l5.5 3.9c1.6-1.6 3.1-2.4 4.7-3.9l-5-4zm-12-1l5.5 3.9c2.4-0.8 3.9-2.4 4.7-3.9l-9.4-0.8-2 1zm0 1c-0.8 0.8-2.4 2.4-4.7 3.9l5.5 3.9c1.6-1.6 3.1-2.4 4.7-3.9l-5-4zm-11-1l5.5 3.9c1.6-1.6 3.1-3.1 4.7-3.9l-0.8-0.8h-8.6v1zm-3 1c-0.8 0.8-2.4 2.4-4.7 3.9l5.5 3.9c1.6-1.6 3.1-2.4 4.7-3.9l-5-4zm-8 2l2.4 1.6c1.6-1.6 3.1-3.1 4.7-3.9l-0.8-0.8h-4l-2 3zm-4 6c1.6-1.6 3.9-2.4 5.5-3.9l-2.4-1.6-4 6zm0 1c-0.8 0.8-2.4 1.6-3.1 2.4l-0.8 1.6 0.8 1.6h7.1l1.6-1.6-6-4zm-10-8l3.9 2.4c1.6-1.6 3.1-3.1 4.7-3.9l-1.6-0.8h-7.1v3zm0 5c1.6-0.8 2.4-1.6 2.4-2.4l-2.4-1.6v4zm0 3l2.4 1.6 3.1-5.5-1.6-0.8c-0.8 0.8-2.4 1.6-3.9 3.1v2zm0 2l-0.8 3.9h0.8l1.6-2.4-2-2zm-2-12l0.8 0.8v-1.6l-1 1zm-10 2l3.1 2.4 5.5-3.9-1.6-0.8h-7.1v3zm-1 4l2.4-2.4-2.4-1.6v4zm0 4l5.5 3.1c1.6-1.6 3.1-2.4 4.7-3.9l-6.3-3.9-3.9 3.1v2zm-1-9v-0.8s-1 0 0 1zm-1 0c-1.6 1.6-3.9 2.4-5.5 3.9l5.5 3.9 0.8-0.8 0.8-5.5-3-1zm-10.6 1l3.1 2.4c2.4-1.6 3.9-3.1 5.5-3.9l-2.4-0.8h-6.3c-0.3 1-0.3 2-0.3 3zm-1.6-2l0.8 0.8v-1.6l-0.8 1zm-1.6 1l-5.5 3.9 5.5 3.9 0.8-0.8c0.8-2.4 0.8-3.9 0.8-5.5l-1.6-1zm-9.4 2l2.4 1.6 4.7-3.9-1.6-1.6h-3.1l-2.4 4zm-0.8 3l1.6-1.6-1.6-1.6v3.8zm0 4l3.9 3.1c1.6-1.6 3.9-2.4 5.5-3.9l-5.5-3.9-3.9 2.4v3zm-0.8 5h1.6c0.8 0 0.8-0.8 1.6-1.6l-3.1-2.4v4zm-2.3-7l1.6-0.8v-1.6l-1.6 3zm-4 7h5.5v-4.7l-1.6-0.8-0.8 1.6-3.1 4zm1.6 8l-2.4 1.6 0.8 0.8h1.6c0-0.8 0.8-0.8 1.6-1.6l-1.6-1zm-5.5-3l2.4 2.4 2.4-1.6-0.8-0.8h-4zm-3.1 5h2.4l1.6-1.6-1.6-2.4-2.4 4zm-0.8 4l9.4 11.8 7.1-11-16.5-1zm-2.4 2l11 11.8-10.2-12.6-0.8 1zm-9.4 12h16.5l-8.6-10.2-7.9 10zm-1.6 4l14.9 0.8 4.7-2.4h-18.1l-1.5 1zm-7.1 10l18.1-7.9-11.8-0.8-6.3 9zm-0.7 2h0.8l24.3-10h-1.6l-23.5 10zm0 3l16.5 0.8v-0.8l-15.7-0.8-0.8 1zm-1.6 2c3.1 3.9 6.3 7.9 9.4 11.8l7.1-11-16.5-1zm-11.8 12l16.5 0.8-8.6-11.8-7.9 11zm11.8 6l-14.1-0.8-7.1 10.2 21.2-9zm6.3-2l-18.9-0.8-0.8 0.8 17.3 0.8 2.4-1zm2.3-3c-2.1-2.1-3.9-4.2-5.6-6.3l4.8 6.3h0.8zm1.6 3h-0.8l0.8 0.8v-1zm13.4 18c-0.8-0.8-1.6-2.4-3.1-3.9-2.4-3.1-4.7-6.3-8.6-11h-0.8l12.6 15.7v-1zm6.3-14l-14.2-1c3.1 3.9 5.5 7.9 7.9 10.2 0.8-2 3.1-6 6.3-9zm1.5-3l-13.4-0.8-2.4 0.8 14.9 1.6c0.1-1 0.9-1 0.9-2zm5.5-10l-14.9 7h10.2c1.6-2 3.2-5 4.7-7zm3.2-5l-26 12h3.9l21.2-10.2c0.1-1 0.9-1 0.9-2zm2.3-3l-18.1-0.8-0.8 0.8 17.3 0.8 1.6-1zm2.4-3l-8.6-11h-0.8l9.4 11zm7.1-6l2.4-3.9-14.9-0.8 7.1 9.4c1.4 0 3-2 5.4-4zm207 16l-7.1-10.2c-8.6-7.9-20.4-15.7-34.6-22-21.2-10.2-44.8-15.7-65.2-15.7h-0.8c-37.7 0-78.6 23.6-94.3 35.4l-5.5 8.6c14.1-11.8 58.1-38.5 99.8-38.5h0.8c41 0 85 21 107 42zm12-21v-0.8h-0.8l-11.8 12.6 1.6 1.6c5-6 8-10 11-14zm-8 13h18.9l-8.6-12.6c-3 5-7 9-10 13zm1 3h18.9l-0.8-0.8h-18.9l1 1zm3 2c2.4 1.6 7.9 3.9 18.9 9.4 1.6 0.8 3.9 2.4 6.3 3.1h1.6l-27-12zm8 14c2.4-0.8 7.1-0.8 14.1-0.8-0.8-0.8-2.4-1.6-3.9-2.4-7.1-3.1-13.4-6.3-17.3-7.9 2 4 4 7 7 11zm0 1s0.8 0.8 0.8 1.6l17.3-0.8 0.8-0.8c-0.8 0-1.6 0-2.4-0.8-7 1-13 1-17 1zm7 14l9.4-11.8h-15.7c4 4 5 8 7 12zm15-12h-2.4l-11 14c0.8 0.8 0.8 2.4 1.6 3.1l11-15.7v-1zm2-2l-2.4-0.8v0.8s0.8 0.8 1.6 0.8v-1zm11-16l-0.8-0.8h-0.8l-10.2 13.4 0.8 0.8h1.6l9-13zm-9 15l2.4 1.6 18.1-0.8-0.8-1.6c-6 0-13 0-19 1zm32 19l-2.4-3.1-29-13h-0.8l0.8 0.8c13 6 26 12 31 15zm-295-79l-0.4-0.4-2 2 0.4 0.4c0.7-1 1.3-1 2-2zm-6.7-42l-0.8-1.6 3.1-4.7h0.8v-11.8h-0.8v-3h21c0.1-0.6 1.5-3.7 3.5-7.9h-0.1l0.6-1.1c0.6-1.2 1.1-2.5 1.7-3.8 0-0.9 0.3-1.6 1-2.1 1.3-2.8 2.6-5.8 3.7-8.7 1.2-3.1 3.8-10.5 7.1-20h0.2c10.2-29.2 26.6-77.2 26.6-77.8l0.8 0.6v-0.6h104v1.6c0 0.8 18.1 55 22.8 69.1 0.8 2.3 2 5.3 3.4 8.7h1.3v3.3c3.2 7.6 7.1 16.6 10.5 24 0.9 0.6 1.3 1.4 1.3 2.5v0.4l5.5 12.2h22v18.9l2.4 3.9h-241zm117-141l-7.4 4.5 2.1 1.7 7.9-4.6 7 4.6 0.9-0.7-8.3-5.5h-3zm-89 123v12l4.7 0.1v-12.2h-5zm7 12l5.5 0.1v-12.3h-5.5v12zm47-135l-5.4 3.5 1 1.6 4-2.5c0.3-1.2 0.5-2 0.7-2.6h-1zm31 8l-2.7 1.7 7.1 5.6h0.9l0.4-0.3 0.3 0.3h1.8l8.2-5.9-1.5-1-7.4 5.3-7-6zm6 4l6.6-4.8-5.8-3.9-6.6 4.1 6 5zm59 107l-10.6-5.8c1.1 3.6 1.8 5.8 1.8 5.8h9zm-13 0s-11-36.1-15.7-55.8c-2.3-9-5.2-23.9-7.7-36.9h-44.5c-1.4 6.9-3 14.5-4.5 21.8l0.2 0.2-0.3 0.7c-2.7 13-5.3 25-6.7 30.8-2.5 8.7-5.6 19.4-8.1 27.6 0.2 0.5 0.2 1 0.2 1.5 0 0.8-0.8 1.6-0.8 1.6l-0.4 0.2c-1.2 4-2.1 7.1-2.5 8.5h90zm-95 0s0.8-2.5 1.9-6.5l-12.9 6.5h11zm-39-9h19.2c0.3-0.9 0.7-1.8 1-2.8l-18.9-0.3c0 1 0 2-1 3zm50-104l-1.9 1.3 1.1 1.9c0-1 0-2 1-3zm-3 2l-2.3 1.5 2.8 4.9c0.3-1.4 0.7-2.7 1-3.9l-2-3zm118 74l-2.8 0.1-9 8.2 3.2 1.7 9.1-8.6v-1zm-8 37c0-0.1-0.1-0.2-0.1-0.3l-13-6.8h-5.1l12.8 7.1h5zm-135-69v1.3h15.8c0.2-0.8 0.5-1.6 0.7-2.4h-16.1c-1 0-1 1-1 1zm16-32l1.2 1.3 0.9-1-0.5-0.6h-1.3l-1 1zm14 0h-1.4l-0.2 0.2 1.2 1.3 0.9-1h-1zm34 0l1.2 1.3 0.8-0.9-0.6-0.6h-1.2v1zm57 8l-8.1 7.6 0.6 2.4 9.9-9.2c-0.1-0.2-0.2-0.5-0.2-0.7h-3zm3 24h-7.1c0.2 0.8 0.4 1.6 0.7 2.4h13.8c-0.3-0.8-0.5-1.6-0.8-2.4h-4.9l-0.4 0.8-2-1zm-60-27h2.3l0.3-0.3-1.2-1.3-1 1zm4-1l0.8-0.9-1.2-1.3-0.8 0.9 1 1zm1 1h1.6l-1-1.2-0.8 0.9zm3-1l1.4-1.6-1.2-1.3-1.4 1.6 1 1zm1 1h2.3l0.1-0.1-1.2-1.3-1 1zm3-1l1.3-1.5-1.2-1.3-1.3 1.5 1 2zm2 1h2.1l0.3-0.3-1.2-1.3-1.3 1.5v-1zm3-1l0.8-0.9-1.2-1.3-0.8 0.9 1 1zm1 1h1.7l-1.1-1.2-0.8 0.9zm22-5l1.2 1.3 1.3-1.5-0.4-0.5h-1.5-1zm6 22c-0.2-0.8-0.4-1.5-0.7-2.3l-1.3 1.2 2 1zm-7 14l0.8-0.8 12.6 7.4c-0.7-2.4-1.5-4.9-2.2-7.4h-15.5l0.2 0.8 16.6 9.6 1.5-1.3v-0.2l-15-9zm4 23l11.1-10.1-2.1-1.3-12 10.6 0.2 0.8 3-1zm8-12l-15.3-9 4.5 18.7 11-10zm2 0l0.7 0.4-0.3-0.9-1 1zm-23-39l14.8 8.5c-0.8-2.9-1.6-5.8-2.4-8.5h-13zm12-3l-1-1.2-0.8 0.9 0.2 0.2h2zm-14 4c0.2 0.9 0.4 1.9 0.6 2.9l14.1 8.2 1.9-1.8c0-0.1-0.1-0.2-0.1-0.3l-16.2-9.4h-1zm22 25c-0.2-0.8-0.5-1.6-0.7-2.4h-14.8v2.4h16zm-13-4l8-7.5-1.9-1.1-9.1 8.6h3zm5-9l-12.3-7 3.6 15.2 8-8zm7-6l6.7-6.4h-9c1 1 1 3 2 6zm2-10l-1.2-1.3-1.4 1.6h2.3v-1zm-2-3l-1-1-1.4 1.6 1.2 1.3 1-2zm-3 2l-1.2 1.4h2.3l-1-1zm-2-1l-1.2-1.3-1.3 1.5 1.2 1.3 1-2zm-5-2l-0.8 0.9 1.2 1.3 0.8-0.9-1-1zm-2 3l-1.4 1.6h2.3l0.2-0.2-1-2zm-1-2l-1.2-1.3-1.4 1.6 1.2 1.3 1-2zm-4 2l-1.1 1.3h2.3l-1-1zm-1-1l-1.2-1.3-1.4 1.5 1.2 1.3 1-2zm-3 1c0 0.4 0.1 0.7 0.2 1.1h0.8l-1-1zm-6-4l0.4 0.4c0-0.2-0.1-0.5-0.1-0.7v1zm-1 1l-1.4 1.6 1.2 1.3 1.4-1.6-1-1zm1 4h1.4c-0.1-0.4-0.2-0.9-0.3-1.3l-1 1zm20 62c2.2 7.5 4.4 15 6.3 21.1l12.3-11.3-18-11v1zm8 21h5.4l9-8.4c-0.2-0.7-0.4-1.4-0.7-2.1l-1.4-0.8-12 11zm12-13c-0.4-1.2-0.7-2.4-1.1-3.7l-13.1-6.8-6.1 0.1 19.8 10.8zm4-3l8.4-7.7-11.6 0.2c0.6 2.2 1.2 4.1 1.7 5.9 0.1 0.3 0.2 0.6 0.3 0.8l2 1zm-7-8l-7.2 0.1 8.7 4.5c-1 0-1-2-2-4zm-1-1c-0.2-0.8-0.5-1.5-0.7-2.3l-14.7 0.3-0.1 0.1-0.1-0.1h-2.2l0.6 2.3 4.2-0.1 0.7-1.5 2.7 1.4h9zm-1-4c-0.8-2.8-1.7-5.7-2.7-8.7l-9.8 8.9h13zm-1-17l7-6.2h-8.7c1 2 2 4 2 6zm2-12l-5.7-3.3 0.9 3.3h5zm-11-6l-0.3-0.2-6.6 6.4h8.7c-1-2-1-4-2-6zm8-19l-1.1-1.2-0.8 0.9 0.3 0.3h2zm-2-2l-1.2-1.3-0.8 0.9 1.2 1.3 1-1zm1-1l1.3-1.5-0.3-0.4h-1.6l-0.5 0.6 2 1zm-3-2h-1.3l-0.2 0.2 1.2 1.3 0.8-0.9h-1zm-4 0h-2l-0.4 0.5 1.2 1.3 1.4-1.6v1zm-10 0h-1l-0.2 0.3 1.2 1.3 0.8-0.9h-1zm-4 0h-1.9l-0.5 0.5 1.2 1.3 1.4-1.6 1 1zm-5 0h-1.4l-0.3 0.3c0.1 0.3 0.1 0.7 0.2 1l0.6 0.7 1.4-1.5h-1zm-8 0h-1.8l-0.5 0.6 1.2 1.3 1.4-1.6zm-5 0h-1.3l-0.2 0.2 1.2 1.3 0.8-0.9h-1zm-4 0h-2l-0.3 0.4 1.2 1.3 1.3-1.5zm-4 0h-2l-0.6 0.6 1.2 1.3 1.4-1.6h1zm-8 1l-1.4 1.6 1.2 1.3 1.4-1.6-1-1zm-2 3l-1.2 1.3h2.3l-1-1zm-1-1l-1.2-1.3-1.4 1.5 1.2 1.3 1-2zm-4 1l-0.8 0.9 0.2 0.2h1.7l-1-1zm-1-1l-1.2-1.3-0.8 0.9 1.2 1.3 1-1zm-3 1l-1.3 1.5h2.3l0.2-0.2-1-2zm-1-2l-1.2-1.3-1.4 1.5 1.2 1.3 1-1zm-3 2l-1.1 1.3h2.3l-1-1zm-42 74l9.8 9.2-0.4 0.8h5.8l-13-11.9-1.9 1c-1 0-1 0-1 1zm18-78l1.2 1.3 0.9-1-0.4-0.7h-1.3l-1 1zm-17 73l0.8 0.7 19.8-10.9-3.4-0.1 0.1 0.1-16.7 8.7s0 1-1 1zm2 2l12.4 11.4c1.9-6.5 4-14.3 5.8-21.1l-18 10zm21-18l-11.9-10.9-2.4 1.4 10.8 9.8 3.5 0.1c-1 1-1 1 0 0zm0-1c1.2-5.1 2.6-11.9 4.2-19.3l-15.4 9.1 11 10zm4-21c0-0.1 0.1-0.3 0.1-0.4h-4.9l-13 7.6-0.3 1.2 1.5 1.4 16-10zm2-6l-9.9-9.6-2.7 1.5 9.4 8.7h3.1 1zm-9-24l-1.2-1.3-1.2 1.4h2zm-1 3c-0.5 1.8-1 3.7-1.5 5.6l9.6-5.6h-8zm-2 10l-0.7-0.7c-0.1 0.4-0.2 0.8-0.3 1.3h1zm12 9c1.1-5.2 2.2-10.5 3.2-15.5l-12.2 7 9 8zm4-18c0.1-0.3 0.1-0.5 0.2-0.8h-2.3l-13.2 7.7 1.3 1.2 14-8zm-9-4l-1.2-1.3-1.4 1.5 0.1 0.1h2.2v-1zm-2-3l-1.2-1.3-1.4 1.5 1.2 1.3 1-1zm-6-1l-1.3 1.5 1.2 1.3 1.3-1.5-1-1zm-2 3l-0.9 1 0.2 0.2h1.7l-1-1zm-1-1l-1.2-1.3-0.9 1 1.2 1.3 1-1zm-3 1l-1.3 1.4 0.1 0.1h2.1l0.2-0.2-1-1zm-1 4l5.4 5.1c0.5-1.7 0.9-3.4 1.4-5.1h-6zm4 22h10.5l-8.3-7.8c0 2-1 5-2 8zm-1-7l-11 6.3h9.2c1-2 1-4 2-6zm1 8c-0.2 0.8-0.4 1.6-0.7 2.4h15.5c0.2-0.8 0.3-1.6 0.5-2.4h-14zm-1 4c-0.6 2.1-1.2 4.1-1.7 6.1l10.4-6.1h-8zm-3 0h-8.9l7 6.4c0-2 1-4 2-6zm0 10c-0.2 0.5-0.3 1.1-0.5 1.6l1.3-0.8-1-1zm-4 12l12 0.2-9.6-8.7c0 4-1 7-2 9zm-1-7l-11.6 6.9 9.5 0.2c2-2 2-4 3-7zm1 9c-0.2 0.8-0.5 1.6-0.7 2.3l17.4 0.3c0.2-0.7 0.4-1.5 0.6-2.3l-2.9-0.1-0.1 0.1-0.1-0.1h-14zm-2 4c-0.7 2.4-1.4 4.6-2 6.7l12.5-6.5-10-1zm-3 0l-11.6-0.2 9.1 8.3c0.1-0.2 0.1-0.4 0.2-0.6 2-2 2-4 3-7zm0 11c0 0.1-0.1 0.2-0.1 0.3l0.2-0.1zm39-71l-1.2-1.3-0.2 0.2c-0.1 0.7-0.3 1.4-0.4 2.1l0.4 0.5 1-1zm-5-1l-0.9 1 0.9 1c0.1-0.5 0.2-1.1 0.3-1.6zm-2 2l-1.3 1.5h2.1l0.3-0.2-1-2zm-1-2l-1.2-1.3-1.3 1.5 1.2 1.3 1-1zm-4 2l-0.9 1 0.3 0.3h1.7l-1-1zm-1-1l-1.2-1.3-0.9 1 1.2 1.3 1-1zm-11-3h-1.6l-0.5 0.6 1.2 1.3 1.3-1.5zm-7 1l-1.3 1.4 1.2 1.3 1.3-1.4-1-1zm-3 3l-0.4 0.5 1 1h0.5l0.1-0.1-2-1zm-2 4l9.4 8.8 1.8-1 0.3-1.2-6.8-6.6h-4zm9 11l-18.2 10.6v0.1h5l-0.4-0.8 13.9-8c0.1-0.4 0.2-0.9 0.4-1.3l-1-1zm-18 16l10.3 9.4 1.7-1c0.1-0.3 0.2-0.6 0.2-0.8l-8.3-7.6h-4zm11 10l0.3 0.2c0-0.2 0.1-0.3 0.1-0.5v1zm-1 1l-19.2 11.3 5.3 0.1 14.2-8.3c0.2-0.7 0.4-1.5 0.7-2.3l-1-1zm-20 13c-0.3 0.8-0.6 1.6-0.8 2.3l17.6 0.3c0.2-0.8 0.5-1.5 0.7-2.3h-18zm-1 3l11.4 10.7 2.6-1.4-9.4-8.6 0.6-0.6h-6zm13 12l0.6 0.6c0.1-0.3 0.2-0.7 0.3-1.1h-1zm0 14h11.4l-8.8-8.2c-1 2-1 5-2 8zm-1-9l-16.2 8.7h13.2l3-9zm0 10c-0.3 1-0.6 1.9-0.9 2.7h18.7c0.2-0.8 0.4-1.5 0.7-2.4l-19-1zm-1 4c-1 2.8-1.7 4.8-2.2 6.1l11.7-6.1h-10zm-3 8h5.5l14.2-7.9h-3.6l-16.1 7.7zm141 0h1.8l8.3-7.1h-13c1.8 5 2.4 6.3 2.4 6.3l-0.4 0.2 1 1zm-7-7h-6.7l8.2 4.3c1-1 0-2-1-4zm0-2c-0.3-1-0.7-2-1-3.1h-11.1l-0.9 0.8-0.8-0.8h-5.2c0.3 1.1 0.6 2.1 0.9 3l0.2 0.1h6.8l0.4-0.8 1.5 0.8h10zm-2-4c-0.7-2-1.4-4.4-2.3-7l-7.7 7h10zm4 0h12.5l-15.2-8.2c1 3 2 6 3 8zm-4-10l2.3-2.1-3.2-1.7-0.2 0.2c1 1 1 2 1 4zm11-18l-15.6 0.3c0.2 0.8 0.4 1.6 0.7 2.3l15.9-0.3s-1-1-1-2zm-6-1l-11.5-6.8c0.7 2.4 1.3 4.7 1.9 6.9h9zm-13-13l11-10c0-0.1-0.1-0.2-0.1-0.4h-2.6l-9 8c0.2 0.8 0.4 1.6 0.7 2.3zm9-16l-16.2-9.4c0.3 1.3 0.7 2.5 1.1 3.8l9.9 5.7h5.3v-1zm-1-1c-2-6-4.1-12.3-6.1-18.4l-9.6 9.3 16 9zm-8-25l-0.5 0.6h0.7c-1 0-1 0-1-1zm-1-2l-0.4-0.5-1.3 1.5 1.1 1.3 1-1.1-1-2zm-2-6l-0.6-1.8c-1.2-0.9-2.9-2.1-5.2-3.8l-1 1.3c2.6 2 5 3.9 6.4 4.9v-0.8l1 1zm-7-3l-3.6 4.7h1.3l0.8-0.7 0.6 0.7h3l0.4-0.4 0.3 0.4h3.1c-1-2-3-4-5-5zm-1-1c-0.4-0.3-0.8-0.6-1.3-1l-2.6 3.8c0.1 0.6 0.3 1.1 0.4 1.7l4-5zm-3-2c-0.9-0.7-1.8-1.4-2.8-2.1 0.3 1.3 0.7 2.8 1.1 4.5l2-2zm-7-2l-2 1.8 3.1 2.3c0-2 0-3-1-4zm-3 2l-2.1 1.9 6.7 4.9h0.9l-0.9-3.3-5-4zm-2 3l-5.1 4.6h0.9l0.5-0.4 0.4 0.4h3.5l0.8-0.7 0.6 0.7h3.1l0.4-0.3 0.3 0.3h1l-6-5zm-1-1l-2.3-1.7-2.9 2.8c0.2 1 0.4 2.1 0.6 3.3l4-4zm-3-2l-3.5-2.5c0.3 1.5 0.6 3.1 0.9 5l3-3zm-8-4l-4.5 3.2 5.7 3.7c-1-3-2-5-2-7zm-6 4l-0.9 0.7 8.8 5.9-0.3-1.5-8-6zm-2 2l-7.8 5.6h1.2l0.6-0.6 0.5 0.6h3.3l0.8-0.7 0.6 0.7h3l0.4-0.4 0.3 0.4h3.6l0.7-0.6 0.5 0.6h0.6l-9-6zm-14 8h-1.9l-0.4 0.5 1.2 1.3 1.4-1.6v1zm-5 0h-1.5l-0.6 0.7 1.2 1.3 1.4-1.5zm-5 0h-1.1l-0.3 0.3 1.2 1.3 0.8-0.9h-1zm-3 0h-1.8l-0.5 0.5 1.2 1.3 1.4-1.5h1zm-10 0h-1l-0.3 0.4 1.2 1.3 0.9-1h-1zm-4 0h-1.7l-0.5 0.5 1.2 1.3 1.3-1.5h1zm-13-8l-7.4 5h2.1l0.4-0.4 0.3 0.4h3.7l0.6-0.5 0.5 0.5h2.7l-3-4zm-11 8l1 1.2 1.3-1.4-0.2-0.3h-1.9zm0 2c-0.2 0.7-0.5 1.4-0.7 2.1l1.3-1.5zm-9 25l16.1-9.3-9.7-9.1c-2 5-4 11-6 18zm-3 8c-2.5 7.3-5.1 14.6-7.3 21l18.5-10.9-11-10zm-10 29c-2.5 7.1-4.4 12.5-5.4 15.1-0.6 1.5-1.2 2.9-1.8 4.3l17.9-9.3-10.7-10zm-8 22c-0.2 0.6-0.5 1.2-0.7 1.8h3.5l19.1-10.5c0-0.1 0.1-0.2 0.1-0.3l-1.6-1.5-20 10zm4 7l9.2 7.9h0.1c0.7-1.4 1.7-3.9 3.2-7.9h-12zm161 8l7.1-7.1h-2l-7.7 7.1h3zm9-9c-0.4-1-0.8-2.1-1.3-3.1h-4.2v0.8l-1.4-0.8h-13.6c0.4 1.2 0.8 2.2 1.1 3.1h19zm-3-7l-17.7-9.2-2.8 2.5 18.1 9.8h3.8c0-1-1-2-1-3zm-1-2c-2.2-5.1-4.6-10.5-6.8-15.5l-8.4 7.7 15 7zm-11-25l-18.5-10.9c0.3 0.9 0.5 1.8 0.8 2.7l14.3 8.3v0.2l3.5-0.1v0zm0-1c-0.8-2-1.5-3.9-2-5.4-1-3.1-2.7-8.2-4.7-14.1l-10.4 9.4 17 10zm-24-70l-1.7 2.3c1.3 1 2.3 1.8 3.3 2.5 0-2 0-4-1-5zm-1-3l-2.6 3.7c0.5 0.4 1 0.8 1.4 1.1l1.9-2.5c1-1 1-2 0-2zm-3 5l-0.9 1.3c0.4 0.3 0.9 0.7 1.3 1l1-1.3c-1 0-1-1-1-1zm-2-1c-1.6-1.1-3.4-2.4-5.5-3.9 0.2 0.6 0.3 1.3 0.5 2.1 1.3 0.9 2.7 1.9 4.1 3l2-1zm-10-5l-4.4 4.1 2.3 1.7 2.8-2.7c-1-1-1-2-1-3zm-5 5l-2.1 2 2.3 1.7 2-1.9-2-2zm-1 0l-6.8-5.1c0.2 1 0.4 2.4 0.7 4.2l3.9 2.9 2-2zm-10-4l-6 4.3 1.5 1 4.8-3.5c-1-1-1-2-1-2zm-8 5l-0.9 0.7 1.5 1 0.9-0.7-1-1zm-19 3l-8.2 5.1 0.2 0.3h3.2l0.3-0.3 0.2 0.3h3.9l0.5-0.5 0.4 0.5h3.4l0.8-0.7 0.6 0.7h1.3l-5-4zm-2-1l-2-1.6-6.2 3.8c-0.2 0.9-0.4 1.9-0.6 3l9-5zm-2-2l-4.4-3.5c-0.3 1.6-0.8 4-1.4 6.9l5-4zm-9-2l-3.4 2.9 2.3 2.6c1-3 1-5 1-6zm-5 4l-1.5 1.3 4.5 5.1c0.2-0.8 0.3-1.6 0.5-2.4l-3-4zm-2 1l-5.9 5h2.6l0.6-0.6 0.5 0.6h3.3l0.3-0.3 0.3 0.3h2.8l-5-5zm0-1l-1-1.2-5.9 4.5c-0.2 0.6-0.3 1.2-0.5 1.8l-2.8 0.6 0.2 0.2h2.3l8-6zm-2-2l-2.6-2.9c-0.5 1.7-1.1 3.9-1.8 6.3l5-3zm-12-3l-2.2 1.4 0.9 1.6 2.2-1.4-1-2zm-4 2l-5 4-0.9 2.7 7.4-4.7-1-2zl-2.6-4.4c-0.6 1.8-1.5 4.6-2.7 8l6-4zm-39 105l7.9 7.9h3.1l-7.9-7.9h-3zm10 24l4.7 0.1v-12.4h-3.1l-0.8 0.8-0.8-0.8v12zm7 0l5.5 0.1v-12.5h-5v13zm8 0l4.7 0.1v-12.6h-4.7v13zm7 1l5.5 0.1v-12.7h-5.5v13zm8 0l5.5 0.1v-12.8h-5.5v13zm8 0l4.7 0.1v-12.9h-4.7v13zm7 0l5.5 0.1v-13h-5.5v13zm8 0l4.7 0.1v-13.1h-4.7v13zm7 0l5.5 0.1v-13.2h-5.5v13zm8 0l4.7 0.1v-13.3h-4.7v13zm7 0l5.5 0.1v-13.4h-5.5v13zm7 0l5.5 0.1v-13.5h-5.5v14zm8 0l4.7 0.1v-13.6h-4.7v14zm7 0l5.5 0.1v-13.7h-5.5v14zm8 1l4.7 0.1v-13.8h-4.7v14zm7 0l5.5 0.1v-13.9h-5.5v14zm8 0l4.7 0.1v-14h-4.7v14zm7 0l5.5 0.1v-14.1h-5.5v14zm8 0l5.5 0.1v-14.2h-5.5v14zm8 0l4.7 0.1v-14.3h-1.2l-1.1 1.6-2.4-1.3v13zm7 0l5.5 0.1v-14.4h-0.9l-1.5 1.6-1.6-1.6h-2v14zm8 0l4.7 0.1v-14.5h-4.7v15zm7 0l5.5 0.1v-14.6h-5v15zm4-18c-0.7-1.5-1.8-4-3.2-7.1h-1l-6.7 7.1h11zm-45-119h-7.8c1.9 1.4 3.6 2.7 5.1 3.9l3-4zm-14 0h-10.7l6.1 4.4 5-4zm-18 0h-13.2l6.9 4.5 6-4zm-26 5l-2.7 1.6 2 1.6 2.7-1.6-2-2zl-5.9-4.7h-2.9c0 0.1-0.1 0.3-0.1 0.4l1.8 0.4s-0.1 0.6-0.4 1.8l4.8 3.8 2-1zm-10-5l-0.2 0.2 1.2 0.2 0.1-0.4h-1zm-1 1l-5.7 4.3 1 1.2 4.2-3.2s1-1 1-2zm-8 6l-1.6 1.2 1 1.2 1.6-1.2-1-1zm-1-1l-3.6-4c-0.2 0.6-0.4 1.4-0.6 2.3l2.6 3 2-1zm-8-6h-6.5l1.9 3.2 4-3zm-8 0h-2.8l2.9 5.1 2.1-1.5-2-4zm-42 111c-1.5 3.7-2.8 6.6-3.3 7.9h11l-7.9-7.9zm-5 12h-5.5v12l5.5 0.1v-12zm-8.2 0h-5.5v11.9l5.5 0.1v-12zm210 15v-14.8h-5.5v14.7h5zm8-15h-5.5v14.8l5.5 0.1v-15zm-20 0v14.6l4.7 0.1v-14.7h-5zm-112-123l5.4 4.3 7.3-4.3h-12zm-8 0h-8.9l3.7 4.1 5-4zm-90.8 135l4.7 0.1v-11.9h-4.7v12zm-0.8 18l230 0.8-1.6-3.9-228-0.8 0.4 4zm129-491l7.1 4.7v-3.1l-7.1-4.7h-25.1l-7.1 4.7v3.1l7.1-4.7h25zm-73 330l-0.8-3.1v-3.1l7.9-3.9 10.2-5.5h0.1l1.8-14.6-0.3-0.3s-0.8-0.8-0.8-1.6 0-0.8 0.8-1.6l0.9-0.7 2.4-18.8-0.9-0.9c-0.8-0.8-0.8-2.4 0-2.4l1.4-1.2 1.7-13.7 0.5-4.2c-0.5-0.8-0.4-1.3 0.2-2l2.9-24.5v-0.4l2.2-18.8-0.4-0.4c-0.8 0-0.8-0.8-0.8-1.6s0-0.8 0.8-1.6l0.9-0.8 2.2-18.8c-0.8 0-0.8-0.8-0.8-1.6s0-0.8 0.8-1.6l0.4-0.4 1.9-17.1-0.7-0.6c-0.8 0-0.8-0.8-0.8-1.6s0-0.8 0.8-1.6l1.3-1.2 1.4-12.9-1.1-0.9c-0.8 0-0.8-0.8-0.8-1.6s0-0.8 0.8-1.6l1.8-1.6 1.6-14-1-0.9c-0.8 0-0.8-0.8-0.8-1.6s0-0.8 0.8-1.6l1.6-1.4v-0.2s0.3-3.8 0.8-9.4v-0.1c0-0.3 0-0.6 0.1-0.9l-1.7-1.5c-0.8 0-0.8-0.8-0.8-1.6s0-0.8 0.8-1.6l2.2-2.2c0.2-2.8 0.5-5.8 0.7-8.8-0.6-0.1-0.6-0.8-0.6-1.5 0-0.8 0-0.8 0.8-1.6l0.1-0.1c0.4-4.3 0.7-8.5 1.1-12.2l-1.2-1c-0.8 0-0.8-0.8-0.8-1.6s0-0.8 0.8-1.6l1.7-1.4c0.3-3.4 0.5-5.9 0.7-7.2-0.8 0-0.8-0.8-0.8-1.6s0-0.8 0.8-1.6l0.3-0.2c0.1-1.6 0.2-3.5 0.4-5.7l-0.7-0.3v-1.6c0-0.8 0-0.8 0.8-1.6l0.1-0.1c0.2-3.1 0.3-6.4 0.5-9.7l-0.6-0.5 0.6 0.4c0-0.9 0.1-1.7 0.1-2.5l-0.7 0.5v0.8 0.8c-0.8 0-0.8-0.8-0.8-1.6s0-0.8 0.8-1.6l0.8-0.7c0.1-2.2 0.2-4.2 0.3-6.2l-0.3-0.2c-0.8 0-0.8-0.8-0.8-1.6s0-0.8 0.8-1.6l0.5-0.4c0.2-4.5 0.3-7.5 0.3-7.5h0.6l0.2-0.3v-5.6l-0.8 0.4s-0.8-0.8-0.8-2.4c-0.8-1.6-0.8-2.4-1.6-3.9 0-1.6-1.6-3.1-1.6-3.1l0.8-0.8s0 0.8 0.8 1.6 1.6 3.1 1.6 3.1h0.8v-1.6h0.8v-7.9l0.8 14.1h4.7v-6.3s1.6 0.8 1.6 0v6.3h10.2v-5.5h1.6v5.5h4.7l0.8-14.1v7.9h0.8v1.6h0.8s0.8-2.4 1.6-3.1c0.8-0.8 0.8-1.6 0.8-1.6l0.8 0.8s-1.6 1.6-1.6 3.1c-0.8 1.6-0.8 2.4-1.6 3.9 0 1.6-0.8 2.4-0.8 2.4v5.5h-0.7v0.7l0.7 0.9-0.6 0.5c0.1 1.3 0.1 2.9 0.2 4.7l0.4 0.3v0.8l-0.4-0.3c0 0.4 0 0.9 0.1 1.4l0.3-0.3v-0.8c0.8 0 0.8 0.8 0.8 1.6s0 0.8-0.8 1.6l-0.2 0.2c0.1 2.4 0.2 5 0.4 7.7 0.6 0.1 0.6 0.8 0.6 1.6 0 0.7 0 0.8-0.5 1.3 0.1 2.5 0.3 4.9 0.4 7.3l0.1 0.1c0.8 0 0.8 0.8 0.8 1.6s0 0.8-0.7 1.5c0.2 3.6 0.4 6.6 0.6 8.7l0.9 0.8c0.8 0 0.8 0.8 0.8 1.6s0 0.8-0.8 1.6l-0.5 0.4c0.2 1.7 0.4 4 0.6 6.7 0.7 0.1 0.7 0.8 0.7 1.6 0 0.6 0 0.8-0.4 1.2 0.3 3.2 0.6 6.7 0.9 10.3l0.3 0.3v0.8 0.8l-0.2 0.1c0 0.5 0.1 1 0.1 1.5l0.8 0.7c0.8 0 0.8 0.8 0.8 1.6s0 0.8-0.8 1.6l-0.4 0.4c0.4 4.2 0.7 8.4 1 12l0.2 0.2s0.8 0.8 0.8 1.6 0 0.8-0.7 1.5c0.2 2.6 0.4 4.8 0.5 6.3h0.2v1.6h-0.1c0 0.5 0.1 0.8 0.1 0.8l0.4 3.6 0.4 0.3c0.8 0 0.8 0.8 0.8 1.6s0 0.8-0.8 1.6l1.7 15.1 0.7 0.6c0.8 0 0.8 0.8 0.8 1.6s0 0.8-0.8 1.6l-0.2 0.2 1.6 14.7h0.2v1.6l2.3 20.4h0.1v0.8l8.6 73.1 7.1 56.6 0.8 0.8v0.8l10.2 4.7-0.6 0.1 8.4 4.6-0.8 6.3-10-2h-33l-0.9 0.8-0.8-0.8h-2.6l-0.5 0.8-1.1-0.8h-24l-2.2 1.6-1.2-1.6h-3.5l-1.6 1.6-1.6-1.6h-29.1l-7.1 3.9-1 1zm30-20l-1.1 0.5-6.2-6.2c-0.5 5.1-1 8.5-1.3 9.8l7.5-3.6 1.8 1.8 1.6-0.8 3.2 3.2-0.9 0.7 3.9 3.9h1.6l-4.6-4.6 0.9-0.7 5.3 5.3h0.1c0.2-1.6 0.7-5.4 1.4-10.6l-6.8 5.3-3.3-3.3 10.9-8.4c0.1-0.4 0.1-0.9 0.2-1.3l-11.9 8.9-7.9-7.9h-1c0 0.2 0 0.5-0.1 0.7l7 8zm16-35h-18.1v1.9l7.1 8.4 11.8-9.4-1-1zm-11-11l1.3-1.1 0.8 0.8 9.4 9.4h1.5v-0.1l-10.1-10.1-0.8-0.8 9.9-8.8-10.7 8c-3.4-3.4-5.5-5.5-6.8-7.1h-1.1v2.3l1.6 1.6c1.6 1.6 3.1 3.1 4.7 5.5h1zm6-23l-0.8 0.8c-3.9 3.6-6.6 6.1-8.7 7.9h0.2c2.5-2.2 6.3-5.4 10-8.6l0.4-0.4-0.4-0.4 12-10.5c0-0.3 0.1-0.7 0.1-1-3.1 1.7-7.6 5.5-12 9.9-3.2-3.2-7-7.5-8.6-9.8v1.9h-0.9c1.4 1.8 3.9 4.6 8 9.4l2 1zm2-25l-0.8 0.8c-3.8 3.3-6.7 6-8.6 7.9h1.6c2.2-2 5.6-4.9 8.5-7.9l0.8-0.8 9.3 8.6h0.1l-9.4-8.6 0.8-0.8c6.3-5.5 9.4-8.6 11-10.2h-2c-2.6 2.2-6.3 5.8-10.6 9.4l-7.7-7.1h-2.5l10 9zm4-58l-2.9 1.3-1.8 1.8h12.2l-6.7-5.5-1.6 1.6h2zm-8 4h-0.9 1zm1 1l7.9 7.1 8.6-7.9h-15.7l-1 1zm-1 3l7.1 6h2.5l-0.1-0.1 9.5-8.2v-1.3h-0.1l-10.2 9.4-8.6-7.3v1zm0-16h0.5l-0.4-0.4zm3 0h5.7l-6.1-5v1.9h-2.3l-0.1 0.1c0 0.3-0.1 0.5-0.1 0.8l2 2zm3-33l0.5 0.4h6.3l-0.9-0.8 7.2-6.6v-0.9l-8 6.7-5.5-5v1h-1.6c-0.1 0.3-0.1 0.7-0.2 1l3.3 2.9 1 2-2.4-1.9-0.3 2.4h2.1zm8-21l3.9-3.9-3.9-3.9-5.5 5.5 2.4 2.4h4zm-6 0h1.1l-1.1-1v1zm7 0h1.1l3-2.7v-3.4l-3.3-3.3h-4.8l1.1 1.1 1.2-1.1 5.5 5.5-5 4zm-8-11h3.1l-2.4-2.4h-0.8v2zm8-21l-2-1.6-1.6 1.6h4zm-5 2l3.1 3.1 3.9-3.1h-7zm-2 4l3.4 3.4 1.3-1 3.1 3.1h2l-4.4-3.9 5.7-4.3v-1.2h-0.2l-6.3 4.7-3.9-3.4v2.6h-1zm11-38.1l-3.1-2.4-2.9 2.4h6zm-6 1.5l2.1 1.6 2-1.6h-4zm10-5.3l1.3-1-1.3-1v2zm-3-2l-1.1 1.1 1.1 1.1v-2.2zm10 5l-3.1-2.4-3.1 3.1h5.5v-0.7zm-4 2.3l1 0.8 0.8-0.8h-2zm-3 6.6l2.1-2.1-2.1-2.1v4.1zm-3-4.1l-1.8 1.5 1.8 1.5v-2.1zm12 8.1l-4.4 3.1-4.4-3.1h-0.1v1l3.7 3.7-3.7 2.6v1.2l4.5-3.8 4.6 3.9h0.9v-0.8h0.8v-0.5l-5.5-3.4 3.9-3.4v-0.5h-2zm-1 22h-7.7l5.5 3.9 3.1-3.1v-1zm-4 11l-2.8 2.4 3.1 3.1 2-2-0.4-0.4 2.7-2.7-0.6-0.4h-4zm7 4v-0.8l-2.2 2.2-1.8-1.6-2.3 2.6-5.3-4.5v1.5l4.5 3.9-0.9 0.8h4.9l-0.9-0.8 1.7-1.7 2.7 2.5h1.1v-3.9h-3zm-7 35l-4.6-4.6v6.1h3l2-1zm9 3h-4l5.3 4.9v-1h1.6c-0.1-0.5-0.2-1-0.2-1.5l-3-3zm4 11h-2.3l-3.7 3.4-2.4-2.1-1.3 1.1-7.7 7.1h1.7l6.1-5.5 6.4 5.5h3.2l-6.5-5.5 0.6-0.6 7 6c-1-3-1-6-2-9zm-25-2l3.1-3.1-6.3-6.3-1.2 1.2 0.4 0.4-5.4 4.9 3 3h6zm-5 2l1.6 1.6 1.6-1.6h-4zm6-12h4v-5.1l-4.9 4.3 1 1zm1 1l2.2 1.9v-1.9h-2zm13 12l0.8-0.8h-1.7l1 1zm-6-1h-1v7.7l4.6-4.6-4-3zm0 11l-0.8 0.8 7.9 7.9 7.1-6.3-2.6-2.4h-11zm10-1l-4.3-3.9-3.9 3.9h8zm6 1h-1.2l1.2 1v-1zm-25-22h-1.7l6.3 5.7v-1.5l-4-5zm2 9h1.6l1.2-1.1v-1.4l-3 2zm2 2l-3.9 3.9 4.8 4.2v-8.2h-1zm1 16l-5.5 5h5.4l1-5zm3 4h4.6l-4.6-4.6v5zm0 2v5.6l6.2-5.6h-6zm6-2h2.5l-8.5-7.8v2.3l5 6zm1-31l-6.3 6.3 3.6 3.1h5.1l3.9-3.9-7-5zm-1 0h-2.2l-3.8 3.8v1.7l6-6zm-5 0h-1.4v1.4l1-1zm1-10l5.4 4.7 4.7-4.7h-10zm9-2l-3.9-3.9-4.6 3.9h9zm-1-6l1.7-1.5 2.4 2.4c-0.1-1.4-0.2-2.8-0.2-4.1h-0.3l-1.9 1.7-1.7-1.7h-0.1l-3 2.4-6.9 6.2v0.9h0.8l6.1-5.5 5.5 5.5h0.8v-0.8h1.6c-0.1-0.3-0.1-0.6-0.2-1l-6-5zm-25-22h0.2l-0.2-0.2zm4-4h2.1l-0.9-0.8-1 1zm-4 2l5.5 5.5 4.7-3.9-2.8-2.4h-6.3l-2 1zm12 1v-1.8h-1.8l2 2zm5 6l-2.2-1.6v3.2h0.6l1-1zm-2 4v2.1l3.7-3.7h-1.9l-2 2zm-3-5l-2.6 2.1h2.6v-2zm-1 4l1 1v-1h-1zm4 11v6.4l3.8-3.2-3.1-3.1h-1zm14-7c0-0.4 0-0.8-0.1-1.2l-3.6-3.3h-4.9l2.3 2.1-2.4-2.1-4.7 4.7 5.3 4.7h2.6l3.7-3.3 0.2 0.2 0.1-0.1-0.2-0.2 0.2-0.2v-1.2h1.4l1-2zm-12-14h-1.6l-0.6 0.6v1.6l3-3zm-2-2l3.7-3.1-3.7-2.7v6zm-3-6l-3.4 2.2 3.4 2.9v-5zm9-5l-1.9-1.6-2 1.6h4zm5 2h-1l1 0.9v-1zm0-2l-6.2-5.5 4.7-3.5v-0.4h-0.9l-4.6 3.9-4.5-3.8v2.1l2.9 2.5-2.9 2.9v1.8h0.3l4.2-3.1 3.5 3.1h3.8zm-10-4l-1.3-1.7v2.8l1-1zm6-7l-2.9-2.4-2.4 2.4h5zm-5 2l2.9 2.4 2.4-2.4h-5zm-1-7l-1.3-1v2.3l1-1zm5-4h-4.1l2.1 1.6 2-2zm2-1l-3.1-2.4-2.9 2.4h6zm-11 4l-1.8 1.8 1.8 1.4v-3zm0 10l-3.4 2.8 3.4 2.7v-6zm-12 26l2.7 2.4h3.9l4.9-3.8v-2l-5.7 5-5.5-5v3.4zm11 13h1v-1l-1 1zm-2 2l-2.4 2.4 4.9 4.3v-6.6h-3zm1 9l-5.4-4.7-5.3 4.7h10zm-12 2l6.3 5.5 6.2-5.5h-12zm3 10l0.5 0.4 0.5-0.4h-1zm-5 8v1.7h1.9l-2-2zm-2 12l4.7-4.4 2.8 2.6 2.1-1.9 4.7 4.7h3.1l-6.3-6.3 3.5-3.1h-3l-3.5 3.1-3.5-3.1h-4l3.5 3.1-1 0.9-3.9-3.6c-1 1-1 4-1 7zm2 5l6.1 5.4 8.6-7.9-0.9-0.8h-10.3l-4 4zm12-4l-3.6-3.1-1.7 1.5 0.1 0.1-1.7 1.6h8zm-5 10h2.5l6.2-5.7v-3.7h-1.7l1.6 1.6-9 8zm1 2l7.2 5.9v-5.9h-7zm12 10l8.6 7.1 7.9-7.1h-17zm15-1l-6.9-6.3-6.3 6.3h13zm5 12l-7.9 0.1 7.6 7-8.1-7h-2.5l10.1 8.1v-0.2h1.5l-1-0.9 1.1 0.9c-1-3-1-5-2-8zm-14 54l-0.7 0.8 7.9 7.1 2.4 1.6 8.6-8.6-0.9-0.8h-17zm15-2l-7.7-7.1-6.5 7.1h15zm3 2h-0.2l0.2 0.2zm3 26v-1.6c-3.1 3.1-6.3 7.1-9.4 10.2l-11.3-9.8c0.1 0.5 0.1 1.1 0.2 1.6l10.3 8.9-0.8 0.8c-3.1 3.7-5.7 7-7.4 9.3v0.3c1.9-2.3 5.1-6.5 8.2-9.6l0.8-0.8 2.9 2.5c-0.2 0.2-0.3 0.4-0.5 0.6l9 7.9h0.4v-0.7l-8.9-7.8c0.1-0.1 0.2-0.3 0.3-0.4l8.6 7.6v-1.1h0.8c0-5-0.7-10.8-0.8-16.5-2.9 2.9-5.7 6.4-8.6 10l-2.4-2.1 0.8-0.8c2-3 5-6 8-8zm5 45c-2.9-2.3-6.6-5.3-10.2-8.4l-7.9 8.6h18.1v-1zm-17 2l9.8 7.9 7.8-7.1h-1.5v-0.8h-17zm18-5c-0.6-4.4-1.2-9.7-1.9-15.2l-7.1 8.3c-0.7-0.6-1.4-1.1-2-1.7h-0.8l9.4-10.9v-0.1h-1.6v-0.8h-0.4l-8.3 11c-4.1-3.4-9.4-7.4-11.7-9.4 0 0.3 0.1 0.6 0.1 0.9 1.8 1.6 5 4 10.8 8.6l0.8 0.8-9.5 10.2c0 0.3 0.1 0.6 0.1 0.8 0 0.3 0.1 0.5 0.1 0.8h0.7l9.4-11 0.8 0.8c0.4 0.4 0.8 0.7 1.2 1l-0.5 0.5c2.9 2.4 5.8 4.8 8.6 7.2v-1.1c-2.3-1.9-5.2-4.1-8.2-6.6l0.8-0.9c3 2 6 5 9 7zm-41 18l5.1-3.9 13.4 9.4 0.7-0.7v-0.1l-13.3-8.6 10.6-7.9c0-0.2-0.1-0.4-0.1-0.6l-11.3 7.7-12-8.3c-0.1 0.4-0.1 0.8-0.2 1.2l11.4 7.9-4.9 3.5-7.4-5.1c-0.8 5.5-1.4 9.7-1.6 11.8h3.5l7.3-5.5-1-1zm-24-59c1.1 1.5 3.1 3.4 5.5 5.9l10-8.6h-15c-0.4 0.4-0.8 0.7-1.1 1v2zm22-27c-2.4 0.1-4.7 0.1-7 0.1h-6.3-5.5c0.8 1.6 3.9 4.7 7.9 9.4 3.9-3.9 8.6-7.9 11-9.4h-1zm-3-2l-6.9-6.3c-2.6 2.1-5.1 4.4-7 6.3h14zm5-2c0.4-4.8 0.9-10 1.4-15-2.2 1.7-5.2 4.5-9.3 8l8 7zm-19-16l7.1 7.1c3.2-3.2 6.8-6.3 9.3-8.6h-16.3l-0.1 0.1v2zm18-3c-1.6-1.6-3.9-3.9-7.9-7.1l-8.3 7.1h16zm-15-20c1.7 1.7 4.5 4.4 7.9 7.1l8.4-7.1h-16zm18-1l-8.6-7.1-9.2 7.1h18zm1-1l-0.8 0.8h0.8v-1l0.1-0.6v-1.5l-7.6-6.5h-2.5l11 8zm28 12h-10.1l8.4 7.3v-0.2h2.4v-7zm-2 10v-2l-8.6-7.4h-12.8c0.2 2 0.5 4.2 0.7 6.6l6.6-6.6-6.6 6.6c0.1 0.9 0.2 1.9 0.3 2.8l9.4-9.4 10.9 9.4zm-20 27c-0.1-0.6-0.1-1.3-0.2-1.9l-4 6-2.8-5.5c-0.1 0.8-0.3 1.6-0.4 2.4 0 0.2 0 0.4-0.1 0.7l2.4 4-3.7 6.9c-0.1 0.7-0.2 1.5-0.3 2.3l4.7-8.4 6 11.2c-0.1-1.3-0.3-2.7-0.4-4l-4.8-8 3-6zm-2 6l3 5.6c-0.3-3.1-0.6-6.1-0.9-9.2l-2 3zm9 66l-8.5 6 10.7 7.4c-1-3-2-8-3-13zm-21-3l11 7.1 9.2-7.1h-20zm20-2l-9.5-10.2-9.5 10.2h19zm4-3l7.3-8c-4.2-3.2-7-5.3-8.9-6.8 1 7 1 12 2 15zm-5-15l-6.7 6 8.2 8.9c0-4 0-9-1-15zm22-7l-10.1-8.6c-2.9 4.1-4.9 6.8-6.4 8.6h16zm-18 2c1.6 1.6 5.5 4.7 11 8.6l7.2-8.6h-18zm-2-4c1.5-1.8 3.7-4.5 6.8-8.3l-8.5-7.2c1 5 2 10 2 15zm-4-15l-4.3 5.6 5.7 7.9c-2-5-2-10-2-14zm-1-5h-0.9l-5.3 8.6-5.5-7.4-0.3 2.1 4.2 6.1-6.2 8.8c-0.1 0.9-0.2 1.7-0.3 2.6l7.3-9.8 7.8 11h1.4c-0.1-0.6-0.1-1.2-0.2-1.9l-7.4-9.9 5.7-7.6c-2-1-2-2-2-3zm1 24h-15.1l7.9 8.6 7.9-7.9-1-1zm-1-2l-6-7.9-6.5 7.9h13zm-1-23l-5.5-9.4-5.1 9.4h11zm-10 1l4.9 6.3 4.9-6.3h-10zm-2 16l5.1-6.5-3.6-4.9c-1 4-1 8-1 12zm5-30l-1.1-1.9c-0.1 1.4-0.3 2.9-0.5 4.7l1-3zm2-30l0.6-1.6h-0.5c-1 1-1 2-1 2zm1-3l0.1-0.4c-0.2-2.1-0.4-4.1-0.6-5.9-0.1 2-0.3 4.1-0.5 6.3h2zm2 23h-2.1c-1.1 0.2-2.1 0.3-3.1 0.4v0.4l2.4 4.7 3.1-4.7zm-1-2l-2.3-6.3-1.9 6.3h4zm0-16c-0.1-1.1-0.2-2.2-0.3-3.2h-0.1l-1.5 3.9-0.2-0.3c-0.4 3.6-0.8 7.3-1.2 10.8l1.4-4.2 3.5 9.4h0.1c-0.2-2-0.4-4-0.6-5.9l-2.2-6.7v-4zm-1 4l1.1 3c-0.2-1.7-0.3-3.3-0.5-4.9v2zm2-29h-0.6l8.1 6.6-7-7zm10 7l6.3-6.3h-13.7l8 6zm-11-8zm1 10h5.6l-6.2-5.2c-1 1 0 3 0 5zm23 0c-0.2-2.6-0.4-5.2-0.8-7.9l-7.9 7.9h9zm-3-9h-1.4l-8 8.6-0.8-0.7-0.7 0.7h2.4l8-9zm-2-1l-9.4-7.9-8.6 7.1 0.9 0.8h17zm-12-10l-7.6 6.5v1.5l9.3-8-1-1zm-2 0h-5.3v4.8l5-5zm2-1l-6.9-5.7v5.7h7zm-10-6l-6.4 5.8h6.4v-6zm-7 7l6.1 5v-5h-6zm6 15l-5.5 5.1h5c-1-2 0-4 0-5zm-11 6c3.1 3.1 7.1 6.3 8.6 7.9l0.3 0.3c0-0.4 0.1-0.8 0.1-1.2-0.9-0.9-2.6-2.5-5.5-5.2 2.6 2 4.4 3.4 5.6 4.4 0.2-2.2 0.4-4.3 0.6-6.2h-6.6l-0.8 0.7c-0.2-0.2-0.5-0.5-0.8-0.7h-2zm9 10h0.2v-0.3zm-2 28l-9.3 7.9c2.4 2.4 4.7 5.5 7.1 7.9l0.2-0.3c0-7 1-12 2-16zm-12 10c-3.3 2.4-6 5-8.2 7.1h14.5c-2-1-5-3-7-7zm9 10l-11.3 9.8 8.8 8.8c0-7 1-13 2-19zm0 24c-0.1 0.5-0.1 0.9-0.2 1.4l8.1 8.1-10.8 11.5c-0.1 0.4-0.1 0.7-0.2 1.1h0.7l11.1-11.8 11 11.7c0-0.4-0.1-1-0.2-1.8l-10-10.7 8-8.7c-0.1-0.8-0.2-1.5-0.2-2.3h-1l0.6 0.8-8.6 9.4-9-7zm0 2c-0.8 5.9-1.6 11.6-2.3 17l9-9.6-7-7zm26 39l7.9-6.6-10.5-8.2c0 5 1 11 2 15zm-6-66l9.4 8.6c2.2-2.2 4.4-5.1 7.2-8.6h-16zm16-1l-9.3-7.9-7.1 7.9h16zm-18-4l6.3-6.3-2.4-1.6-5.4-5.4c0 5 0 9 1 13zm-2-18l1.2-1.3h-1.3c-1 0 0 1 0 1zm-1-5l6.5-7.3-8.2-7.5c0 5 0 10 1 15zm-1-19h17.3l-9.4-8.6-8 9zm2 2l7.7 7.1 6.4-7.1h-14zm16-34c-0.2-2.1-0.4-4.2-0.7-6.1h-0.1l-6.8 6.2h8zm-2-10h-0.9l0.9 0.8-9.4 7.9-10.1-8v0.7l9.3 7.9h2.5l-0.8-0.7 8.6-7.3v-2.5zm-35 11l-9.9 8.6c0 0.2-0.1 0.4-0.1 0.7h0.1l10-10zm-10 14c2.2 2.1 4.7 4.2 6.9 6.3h4l9.9-8.6h-1.4l-9.3 8.6c-3.2-3.2-6.3-5.8-8.6-7.5v1.2h-2zm9 7l0.3 0.3 0.4-0.3zm-7 7l-2.8 2.1h0.4l3-2zm-10 72h16.1l-7.1-7.1-9 7zm19 6l-10.1 8.2 7.9 8.6c1-5 2-11 2-17zm-2 21h-0.2l0.2 0.2zm-2 0h-17.4v0.8l7.9 7.9 10.2-7.9-1-1zm-2-2l-7.4-8.6-9 7.1h0.4v1.6h16zm-25 22l2.7-1.3-4.2 1.3h1zm4-5h-0.1l-0.5 0.3h1zm12 5l-1.6-1.6-6 1.6h8zm32 0l-4.5-3.1-4.4 3.1h9zm27 0l-4-3.1-3.4 3.1h7zm8-7s-0.4-2.4-0.9-6.5l-5.7 4.8-2.8-2.2 8-6.9c0-0.2 0-0.4-0.1-0.6l-8.8 7.5-11.5-9.4h-1.7l12.3 9.4-10.1 8.5c0 0.1 0 0.2 0.1 0.3l0.6 0.6 10.2-8.6 2.7 2.2-1.2 1 8 6.3h5.7l-5-4zm-8-66c-0.7-4.8-1.4-10.2-1.5-15.8l-8.4 9.1-2.6-2 9.4-9.4h-0.1l-10.2 9.4-3.1-2.4-8.3-7.5c0.1 0.6 0.1 1.1 0.2 1.7l7.3 6.7 3.1 2.4-8.5 8.5c0.1 0.6 0.1 1.1 0.2 1.7h0.4l8.7-9.4 11.6 9.4h0.2v-0.3l-9.4-7.5 1.1-1.1 8.7 6.6h2zm-2-23c-0.8-5.5-1.6-11.8-1.6-17.3h-0.1c-0.1 0.2-0.3 0.4-0.7 0.8l-8.5 10-1.8-1.3 8.1-9.4h-0.2v-0.7l-8.6 9.4-10.1-9.4h-1.5v0.1l10.8 10.1-8.1 9.4h2.4l7.3-7.9 9 7.9h1l-8.4-7.9 0.2-0.2 9.2 7.1v-0.6h3zm-6-63c-0.5-2.7-0.6-5.7-0.9-8.6h-6.8l-0.9 0.7-0.8-0.7h-4.1l0.9 0.8-8.6 7.2v0.6h1l8.4-7.1 7.7 7.1h4.6l-8.6-7.9 0.1-0.1 9 8zm-2-14l-4.4 3.6h4.8c0-2-1-3-1-4zm-2-19l-0.3 0.2h0.3zm-2-10c-0.2-1.6-0.3-3.1-0.5-4.6l-2.9 2.6-2-1.8-2.5 2.3-7.7-6.3v0.6l6.9 5.7-1.6 1.6h6.4l-0.9-0.8 1.4-1.2 2.2 2h3zm-3-48l-2.2 1.9-2.8 0.3 3.9-3.9v-0.2l-4.7 3.4-6.1-4.2v1.3l5.3 3.7-3.1 3.1h1.6l2.4-2.4 3.3 2.4h1.4l1.3-1.3 0.2 0.2v-0.4l-0.2 0.2-2.8-1.9 0.4-0.3 2.4-0.3c2-1 2-2 2-2zm-1-7c0-2-0.1-4.3-0.7-6.2l-3.3 2.7 4 3zm0-12v-5.1l-3.1 2.5 3 3zm-1-15.5l-2.6 2.2-1.3-1.1 3.7-3.1h-1.6l-3.7 3.1-3.7-3.1h-0.8v1.6l3.7 3.1-3.7 3.2v1.5l4.5-3.8 4.6 3.9h0.1v-2.4h0.5l-2.8-2.4 0.5-0.4 2.6 2.2c-2-4-2-5-2-6.5zm-23-13.6l0.8-1 4.7 3.9 4.7-3.1c0.8-0.8 1.6-0.8 2.4 0l3.5 2.9-4.3-2.2h-0.8l-5.5 3.9-4.7-3.9-0.8 0.8 3.9 3.9-3.9 2.9v1h0.8v0.8h0.1l4.6-3.9 4.2 3.5v-1.4l-3.4-2.8 3.4-2.8v-0.8h1l0.3-0.3 0.4 0.3h1.5v1.1l3.7 2.6-3.7 2.6v1.3l4.4-3.2 3.9 2.8v-1.2h0.8v-0.3l-1.6-1.3 0.3-0.2 1.3 0.9v-1.9l-1.3 1-1.9-1.3 3.1-2.6v-1.4l-3.9 3.3-0.5-0.2 4.4-3.7h0.8v-3.1h-22.8v3.1zm0 7.2l2.4-2-2.4-1.9v3.9zm-2 4.6c0-0.7 0.1-1.5 0.1-2.2l-0.4 0.3v0.8 0.8 0.3zm2 5.3l1.6-1.3-1.6-1.3v2zm0 1v0.8h0.3l3.7-3.1 5.5 4.7h0.3v-1.1l-4.2-3.6 4.2-3.6v-1.1h-1.3l-3.7 3.1-3.8-3.1h-0.2v0.8h-0.8v1.2l3.1 2.7-3 2zm7 3l-2.9-2.4-3.1 2.4h6zm-5 1l2.4 2.4 2.4-2.4h-4zm-3 2l4.7 3.7-3.5 3.1h1.2l3.1-3.1 3.8 3.1h1.2v-1.1l-3.4-2.8 3.4-2.9v-1.8h-1l-3.4 3.9-3.9-3.4v0.3h-1.6v1zm2 9l2.4 2.4 3.8-3.1h-5.2l-1 1zm6-2l-1.6-1.6-1.9 1.6h4zm-8-7v5.8l3.1-3.1-3-3zm-1 16l2.1-1.7 1.8 1.3 0.9-0.7 4.2 3.1h1.8l-5.2-3.9 5.7-5v-0.5h-1.1l-5.4 4.7-4.1-2.7c-0.2 0.8-0.4 1.6-0.5 2.4h0.1-0.1c-2 2-2 3-2 4zm0 10l1.2-1-0.9-1.1v2zm-2 18l2.8-2.8h-2.4s-1 1-1 3zm0 11l1-1 2.9 2.6 2.4-2.4 7.2 6.6v-1.5l-6.5-5.9 1.7-1.6h-1l-1.6 1.6-1.8-1.6h-3.3l1.2 0.8-1.4 1.4-1-0.8c1 1 1 1 1 2zm-2 19l0.6-0.5h-0.5v0zm-4 37l4.3-3.9 2.8 2.6 2.5-2.3 8.4 7.1h1.9v-0.5l-8.7-7.4 0.9-0.8h-6.4l-1.4 1.3-1.5-1.3h-4v5zm0 10h-0.6c-0.3 1.6-0.4 3.2-0.6 4.9l6.7-0.1 0.1-0.1-5-5zm-2 12l5.5-5.1h-5.1c-1 1-1 3-1 5zm-2 8c-0.3 1.9-0.4 3.8-0.6 5.7h6.9c-1-2-3-4-6-6zm-1 14l7.5-6.5h-6.9c1 3 1 5 0 7zm-1 10c-0.2 4.2-0.7 8.7-1.3 12.8 1.6-1.5 4-3.7 7.6-7l-7-6zm-2 21c-0.1 5.7-0.8 11.4-1.5 16.5 1.9-1.7 4.6-4.3 8.6-8-3-4-6-6-7-8zm-3 36l5.7-4.9-4.7-4.7-0.1-0.1c-1 3-1 7-1 10zm-3 24l6.6-5.3 2.1 2.5 0.9-0.7 8.9 10.2h1.5l-9.6-11 12.8-10.7c0.1-0.5 0.1-1.1 0.2-1.6l-14 11-7.5-8.6h-0.4l-0.3 2.7 0.6 0.7-0.6-0.6c-2 4-2 8-2 12zm25-232l-2.1-1 1.8 1.3zm-18 226l-5.2-5.2 4.6 5.7v-1zm14 33l0.8 0.8 8.3-6.3-0.6-0.4-8 5zm5-123c-0.4-0.3-0.7-0.7-1.2-1.1l-0.1 0.1c0 1 1 1 1 1zm23-103l-4.4-4.1 4 4zm-8-67.4l0.3-0.2-1.5-0.7 1 0.9zm34 292l-8.2-6.4-0.9 0.7 8.3 6.5 1-2z"/>
</g>
</svg>
