<?xml version="1.0" encoding="utf-8"?>
<!-- Generator: Adobe Illustrator 19.2.1, SVG Export Plug-In . SVG Version: 6.00 Build 0)  -->
<svg version="1.1" id="Paris" xmlns="http://www.w3.org/2000/svg" xmlns:xlink="http://www.w3.org/1999/xlink" x="0px" y="0px"
	 width="409.9px" height="730.7px" viewBox="0 0 409.9 730.7" style="enable-background:new 0 0 409.9 730.7;" xml:space="preserve"
	>
<g id="Eiffel_Tower">
	<path id="Shadow" style="fill:#C7AC8D;" d="M316.4,566.6c0-1.6-1.6-11-1.6-14.9s3.1-7.1,3.1-7.1l-2.4-3.1l-1.6-8.6v-13.4h-22
		c-3.9-7.9-7.9-14.9-9.4-18.9c-6.3-13.4-26.7-76.2-26.7-76.2l-2.4-11l4.7-25.1l-8.6-5.5l-9.4-4.7c0,0-25.9-214.5-27.5-248.3
		c-1.6-33.8-1.6-36.9-1.6-36.9l3.1-4.7l3.1-3.1l0.8-23.6l-5.5-5.5l2.4-4.7V44l-3.9,3.1l-8.6-3.1l-2.4-18.1l-2.4-0.8v-0.8h-0.8h-0.8
		v0.8l-1.6,0.8L193,44l-8.6,3.1l-3.9-3.1v7.1l2.4,4.7l-5.5,5.5l0.8,23.6l3.1,3.1l3.1,4.7c0,0,0,2.4-1.6,36.9
		c-1.6,33.8-27.5,248.3-27.5,248.3l-9.4,4.7l-8.6,5.5l4.7,25.1l-2.4,11c0,0-20.4,62.9-26.7,76.2c-1.6,3.9-5.5,11-9.4,18.9H79.1
		l0.8,3.1l-0.8,14.1l-3.1,3.1v1.6c0-1.6,3.1,8.6,3.9,14.1c0.8,5.5-4.7,15.7-4.7,15.7l0,0l-57.4,84.1L87.7,708c0,0,11-51.1,53.4-71.5
		c22-10.2,29.9-14.1,63.6-12.6c60.5,3.1,79.4,47.9,78.6,48.7c-0.8,0.8,18.9,60.5,18.9,60.5l107.7-33
		C409.9,700.1,335.2,594.1,316.4,566.6z M165.5,532.8l1.6-6.3h17.3v12.6h-20.4C164.7,536.7,164.7,535.1,165.5,532.8z M185.9,539.1
		v-11.8c0.8,0,22,0,22,0v11.8H185.9z M230.7,538.3l-21.2,0.8v-11.8h18.1C228.4,531.2,230,535.1,230.7,538.3z M172.6,504.5
		c3.9-18.9,7.1-46.4,7.1-46.4l3.1-25.1h14.1h14.1l3.1,25.1c0,0,3.1,26.7,7.1,46.4c0.8,4.7,2.4,10.2,3.9,15.7h-57.4
		C170.2,514.7,171.8,509.2,172.6,504.5z M212.9,452.4l7.5,7.8l1.1-1.1l-7.5-7.9l0.9-1h2.4l-1.3-1.3l4-4.2l-1.1-1.1l-4.7,5h-2.2
		l7.2-7.5l-1.1-1.1l-7.4,7.7l-1.1-1.2l5-5.3l-1.1-1.1l0,0v-1.1h-15.7v-0.8h15.7v-8.6h-36.1v7.9h2.4l0.8,0.8h11.8
		c0.8,0.8,0.8,1.6,0.8,1.6h-14.1v0.8h2.1l-1.1,1l2.8,2.9l-0.8,0.8l-4.9-5.1l-1.1,1.1l5,5.2l-1.3,1.4l-7.1-7.5l-1.1,1.1l6.6,7h-0.9
		l-2.3-2.6l-1.2,1l3.4,3.8l-7.8,8.2l1.1,1.1l7.7-8.1l1.1,1.2l-5.3,5.6l1.1,1.1l1.4-1.5l2.8,1.1h0.3l0.1,0.1l0.1-0.1h3.5l0.5,0.5
		l0.5-0.5h0.7l0.3,0.3l0.4-0.3h2.5l0.3,0.3l0.3-0.3h0l0.8,0.8l0.8-0.8h1.5l0.7,0.6l0.6-0.6h0.4l0.6,0.6l0.6-0.6h1.9l0.5,0.4l0.3-0.3
		l0.8,0.8l1-0.9h2.4l0.2,0.2l0.2-0.2h0.1l0.7,0.7l0.8-0.7h1.8l0.5,0.5l0.5-0.5h0.5l0.5,0.5l0.6-0.5h2.6l0.9,0.9l0.9-0.9h3l0.7,0.7
		l0.7-0.7h0.9l-1.6-1.6h0l-4.1-4.3L212.9,452.4z M210.5,452.6l-1.1-1.2l1.2-1.2h0.3l0.9,1L210.5,452.6z M187.3,440.8h2.5l-0.7,0.6
		l0.5,0.6l-1.3,1.4l-1.1-1.2l0.7-0.8L187.3,440.8z M186.1,441.1l-0.3-0.3h0.5L186.1,441.1z M190.7,440.8h0.1H190.7L190.7,440.8z
		 M200.7,440.8h2.4l-0.6,0.6l0.5,0.6l-1.3,1.4l-1.1-1.2l0.7-0.8L200.7,440.8z M199.5,441.1l-0.2-0.2h0.4L199.5,441.1z M192.8,450.3
		l1.1,1.2l-1.3,1.4l-1.1-1.2L192.8,450.3z M190.4,450.6l-0.3-0.3h0.6L190.4,450.6z M194.9,450.3h0.2l-0.1,0.1L194.9,450.3z
		 M197.3,450.3h0.2l1,1.1l-1.3,1.4l-1.1-1.2L197.3,450.3z M201.5,450.5l1.1,1.2l-0.8,0.8l-1.1-1.2L201.5,450.5z M203.4,450.3h0.5
		l-0.3,0.3L203.4,450.3z M203.2,448.7l0.7-0.7l0.7,0.7H203.2z M201.5,448.2l-1.1-1.2l1.3-1.4l1.1,1.2L201.5,448.2z M199.8,448.7h-1
		l0.5-0.5L199.8,448.7z M194.4,448.7l0.8-0.9l0.8,0.9H194.4z M189.9,448.7l0.6-0.7l0.6,0.7H189.9z M188.2,450.5l1.1,1.2l-0.8,0.8
		l-1.1-1.2L188.2,450.5z M187.4,453.7l-1.3,1.4l-1.1-1.2l1.3-1.4L187.4,453.7z M188.5,454.8l1.1,1.2l-1.3,1.4l-1.1-1.2L188.5,454.8z
		 M189.6,453.7l0.8-0.8l1.1,1.2l-0.8,0.8L189.6,453.7z M192.6,455.2l1.1,1.2l-0.8,0.8l-1.1-1.2L192.6,455.2z M193.7,454.1l1.3-1.4
		l1.1,1.2l-1.3,1.4L193.7,454.1z M197.2,455l1.1,1.2l-1.3,1.4l-1.1-1.2L197.2,455z M198.3,453.8l1.3-1.4l1.1,1.2l-1.3,1.4
		L198.3,453.8z M201.8,454.8l1.1,1.2l-1.3,1.4l-1.1-1.2L201.8,454.8z M202.9,453.6l0.8-0.8l1.1,1.2l-0.8,0.8L202.9,453.6z
		 M204.8,451.7l1.3-1.4l1.1,1.2l-1.3,1.4L204.8,451.7z M208.3,450.3h0.1H208.3L208.3,450.3z M205,446.8l1.3-1.4l1.1,1.2l-1.3,1.4
		L205,446.8z M203.9,445.7l-1.1-1.2l1.3-1.4l1.1,1.2L203.9,445.7z M205.2,442l0.7-0.8l-0.4-0.4h3l-2.2,2.3L205.2,442z M204.1,440.8
		L204.1,440.8L204.1,440.8L204.1,440.8z M200.6,444.5l-1.3,1.4l-1.1-1.2l1.3-1.4L200.6,444.5z M198.2,447l-0.8,0.8l-1.1-1.2l0.8-0.8
		L198.2,447z M195.2,445.5l-1.1-1.2l0.8-0.8l1.1,1.2L195.2,445.5z M194.1,446.7l-1.3,1.4l-1.1-1.2l1.3-1.4L194.1,446.7z
		 M190.6,445.7l-1.1-1.2l1.3-1.4l1.1,1.2L190.6,445.7z M187.3,444.6l-1.3,1.4l-1.1-1.2l1.3-1.4L187.3,444.6z M188.3,445.7l1.1,1.2
		l-1.3,1.4l-1.1-1.2L188.3,445.7z M186.4,448.7h-0.9l0.4-0.5L186.4,448.7z M184,450.3h0.1l1.1,1.1l-1.3,1.4l-1.1-1.2L184,450.3z
		 M181.7,450.4l-0.2-0.2h0.3L181.7,450.4z M182.8,453.9l-0.7,0.7l-1.1-1.2l0.6-0.7L182.8,453.9z M183.9,455l1.1,1.2l-0.8,0.8
		l-1.1-1.2L183.9,455z M186.1,457.4l0.7,0.8h-1.5L186.1,457.4z M190.7,457.1l0.9,1h-1.8L190.7,457.1z M194.8,457.5l0.6,0.6h-1.2
		L194.8,457.5z M199.4,457.3l0.8,0.8h-1.6L199.4,457.3z M204,457.1l1,1h-1.9L204,457.1z M205.1,456l0.8-0.8l1.1,1.2l-0.8,0.8
		L205.1,456z M207,454l1.3-1.4l1.1,1.2l-1.3,1.4L207,454z M209.4,448.7h-1.8l0.9-0.9L209.4,448.7z M208.5,445.5l-1.1-1.2l2.6-2.7
		l-0.8-0.7h3.7L208.5,445.5z M198.7,440.8l-0.8,0.8l0.5,0.6l-1.3,1.4l-1.1-1.2l1.3-1.3l-0.2-0.2H198.7z M194.8,441.3l-0.4-0.4h0.8
		L194.8,441.3z M194.2,440.8l-1,1l0.5,0.6l-0.8,0.8l-1.1-1.2l0.7-0.8l-0.5-0.4H194.2z M181,440.8h4.3l-0.9,0.8l0.5,0.6l-1.3,1.4
		L181,440.8z M183.7,445.9l1.1,1.2l-0.8,0.8l-1.1-1.2L183.7,445.9z M182.6,448.7h-1.6l0.8-0.8L182.6,448.7z M178.9,451l0.5-0.6
		l1.1,1.2l-0.6,0.6L178.9,451z M179.9,454.5l1.1,1.2l-2.3,2.4h-2.3L179.9,454.5z M182.1,456.9l1.1,1.2h-2.2L182.1,456.9z
		 M207.5,458.1l0.6-0.7l0.6,0.7H207.5z M213.6,458.1h-2.7l-1.7-1.8l1.3-1.4L213.6,458.1z M200.1,4.7v0.8l1.6,1.6l0.8-0.8l0.8,0.8
		l-3.1,2.4V8.6l-0.8-1.6v20.4l-2.4,1.6l-1.6-3.9V7.9h-1.6l0.8,0.8l-3.1-2.4h0.8l0.8,0.8l1.6-1.6V4.7L193,3.1l-1.6,0.8V3.1l3.9-3.1
		v0.8l-0.8,0.8l1.6,1.6h2.4l1.6-1.6l-0.8-0.8l0.8-0.8l3.1,2.4l-0.8,0.8h-0.8L200.1,4.7z M225.6,459.4l-7.5-7.9l3.5-4l-1.2-1
		l-3.5,3.9l-9.3-9.7l-1.1,1.1l9.4,9.8l-7,7.9l1.2,1l6.9-7.8l7.5,7.8L225.6,459.4z"/>
	<path id="Gold" style="fill:#E7DE8F;" d="M262.2,596.4L262.2,596.4L262.2,596.4L262.2,596.4z M409.9,700.1l-3.9,3.1l-27.5-36.9
		c-1.6-0.8-7.9-3.9-30.6-14.9l17.3,25.1l-0.8,0.8l-18.9-27.5c-0.8-0.8-2.4-0.8-3.1-1.6l23.6,35.4l-0.8,0.8l-23.6-34.6l-11,15.7
		l25.9,39.3l-3.9,3.1l-8.6-13.4c2.4,4.7,3.9,7.9,3.9,8.6l-3.9,1.6c2.4,5.5,3.9,8.6,3.9,9.4l-4.7,1.6c-0.8-0.8-20.4-48.7-36.9-71.5
		c-8.6-11-25.1-22.8-44.8-32.2c-21.2-10.2-44.8-15.7-65.2-15.7h-0.8c-44,0-91.9,32.2-99.8,40.1c-8.6,8.6-23.6,35.4-23.6,35.4
		l-2.4-1.6l-2.4,3.9l-3.9-2.4l4.7-7.9l-12.6-16.5l-22.8,33.8h-2.4l21.2-32.2l-2.4,0.8l-20.4,30.6l-1.6-0.8l18.9-28.3L18.6,664
		l-0.8-1.6l29.9-14.1l1.6-2.4h-0.8l-33.8,14.9l-0.8-1.6l5.5-2.4l-2.4-1.6l20.4-29.9l25.1-36.9L83,557.9h1.6l78.6,0.8l51.1,0.8
		l0.8-0.8l1.6,0.8l38.5,0.8v-0.8l0.8,0.8h12.6h25.9h0.8h16.5l0.8,0.8L409.9,700.1z M366.7,647.5h-16.5l24.4,11L366.7,647.5z
		 M355.7,631l-8.6,11.8c5.5,0,11,0,17.3,0L355.7,631z M332.1,626.3h16.5l-24.4-11L332.1,626.3z M330.5,627.8l-2.4,0.8l0.8,0.8h2.4
		L330.5,627.8z M321.9,614.5l-2.4-1.6l8.6,13.4h2.4L321.9,614.5z M311.7,630.2l25.1,11.8l-7.9-11.8H311.7z M339.2,642.8l1.6,0.8
		l-7.9-13.4h-2.4L339.2,642.8z M342.3,642l9.4-11.8h-17.3L342.3,642z M352.5,627.8l-2.4-0.8h-18.1l0.8,1.6L352.5,627.8z
		 M351.7,625.5l-29.9-13.4l0.8,0.8L351.7,625.5z M341.5,612.1c-4.7,0-11,0-17.3,0l25.1,11L341.5,612.1z M331.3,597.2
		c-2.4,2.4-5.5,7.1-10.2,12.6H340L331.3,597.2z M329,596.4l-10.2,11.8l0.8,1.6c7.1-7.9,9.4-11.8,11-13.4H329z M327.4,595.6h-16.5
		l7.1,11L327.4,595.6z M292.8,608.2l18.1,0.8l-25.1-11L292.8,608.2z M284.2,605.1c-2.4-0.8-3.9,0-3.1,0.8l5.5,2.4
		C286.5,608.2,286.5,605.8,284.2,605.1z M294.4,610.6c3.1,0,10.2,0,18.9,0l-18.9-0.8V610.6z M295.2,611.3l5.5,8.6
		c0.8,0.8,2.4,2.4,3.1,3.1l10.2-11C306.2,612.1,299.1,612.1,295.2,611.3z M314,609.8h0.8V609l-28.3-12.6h-2.4l0.8,0.8L314,609.8z
		 M313.2,607.4l-7.1-11h-17.3L313.2,607.4z M315.6,608.2l0.8,0.8l0.8-0.8l-7.9-11.8h-1.6L315.6,608.2z M322.7,585.4h-45.6l4.7,6.3
		v-0.8v-0.8h44.8L322.7,585.4z M208.7,573.6l-5.5-3.9c-0.8,0.8-2.4,1.6-3.9,3.1l-0.8,0.8l5.5,3.9C205.6,576,207.2,575.2,208.7,573.6
		z M204,579.1l-0.8,0.8h2.4L204,579.1z M159.2,587.8c0-2.4-1.6-3.9-4.7-3.9c-2.4,0-3.9,1.6-3.9,3.9c0,0.8,0,1.6,0.8,2.4
		C154.5,589.3,156.9,588.6,159.2,587.8z M146.7,590.1l2.4-0.8l-0.8-2.4c0-0.8,0-1.6-0.8-2.4l-0.8-0.8c0,0-0.8,0-1.6,0
		c-2.4,0-3.9,1.6-3.9,3.9c0,0,0,0.8,0,1.6l2.4,3.1l1.6-0.8C146.7,591.7,147.4,591.7,146.7,590.1z M58.6,639.6l7.1-11h-1.6l-7.9,12.6
		L58.6,639.6z M64.9,623.9l5.5-8.6l-18.9,7.9L64.9,623.9z M61.8,638.8l21.2-9.4l-14.9-0.8L61.8,638.8z M68.1,625.5l-2.4,0.8h1.6
		L68.1,625.5z M68.9,623.9l7.1-11l-2.4,0.8l-6.3,10.2H68.9z M70.4,623.9l17.3,0.8l-9.4-11.8L70.4,623.9z M81,586.6
		c-0.1,0.1-0.3,0.3-0.4,0.4l1.6,1.6h2.4l1.6-0.8c-0.7-0.7-1.4-1.4-2.8-2.8c0.1-0.1,0.3-0.3,0.4-0.4c-0.8-0.8-0.8-0.8-0.8-0.8h-2.4
		l-0.8,1.6L81,586.6z M86.2,583.8c0,0.8-0.8,0.8-1.6,0c0.8,0.8,1.6,1.6,2.4,2.4l2.4-1.6l-0.8-0.8H86.2z M87.7,579.1l-0.8-0.8
		l-0.8,0.8H87.7z M95.6,572.1c0,0.8,0,0.8,0,1.6l3.9,3.9l5.5-3.9l-5.5-3.9C98.7,570.5,97.2,571.3,95.6,572.1z M97.9,568.1l-2.4-1.6
		c0,1.6,0,2.4,0,3.9C96.4,570.5,97.9,569.7,97.9,568.1z M112.9,588.6c-0.8-0.8-1.6-1.6-2.4-2.4l-3.1,2.4c0.8,0.8,0.8,0.8,1.6,1.6
		h1.6L112.9,588.6z M112.1,589.3h2.4c0,0,0,0-0.8-0.8L112.1,589.3z M110.5,579.1c0.8,0,0.8-0.8,1.6-0.8l-3.9-3.1v3.9H110.5z
		 M108.2,584.6h-2.4l-1.6,0.8c0.8,0.8,1.6,1.6,1.6,2.4l3.1-2.4L108.2,584.6z M84.6,604.3l21.2-9.4l-14.9-0.8L84.6,604.3z
		 M92.4,589.3l0.8-0.8l-2.4-2.4l-2.4,1.6c0.8,0.8,1.6,1.6,1.6,1.6H92.4z M98.7,584.6c0,0,0,0-1.6,0c0.8,0.8,1.6,1.6,2.4,2.4l2.4-1.6
		l-0.8-0.8H98.7z M97.2,586.2c-0.8,0.8-1.6,1.6-2.4,2.4l1.6,0.8h1.6l1.6-1.6C98.7,587,97.9,587,97.2,586.2z M106.6,588.6
		c-0.8-0.8-1.6-1.6-2.4-2.4l-2.4,1.6c0.8,0.8,0.8,0.8,1.6,1.6h0.8L106.6,588.6z M107.4,574.4l-5.5,3.1l1.6,1.6h3.1L107.4,574.4z
		 M94.8,575.2c0,1.6,0,2.4,0,3.9h2.4l1.6-1.6L94.8,575.2z M94.8,584.6h-2.4l-1.6,0.8l2.4,2.4c0.8-0.8,1.6-1.6,2.4-2.4L94.8,584.6z
		 M94,574.4l-0.8-0.8c-2.4,1.6-3.9,3.1-5.5,3.9l1.6,1.6h3.9C94,577.6,94,576,94,574.4z M86.9,588.6
		C87.7,589.3,87.7,588.6,86.9,588.6L86.9,588.6z M79.1,606.6l2.4-0.8l7.9-11.8h-2.4L79.1,606.6z M104.2,607.4l5.5-8.6l-19.6,8.6
		H104.2z M85.4,609l-3.1,1.6l0.8,0.8l18.1,0.8l1.6-3.1H85.4z M111.3,595.6h-0.8L83,607.4h2.4L111.3,595.6z M110.5,607.4l4.7-3.1
		c0,0-0.8-0.8-3.1,0C110.5,605.1,110.5,607.4,110.5,607.4z M116.8,583.8l-5.5,0.8c0.8,0.8,1.6,1.6,2.4,2.4L116.8,583.8z M116,579.9
		h3.9v-4.7c-2.4,0.8-3.9,1.6-5.5,3.9L116,579.9z M115.2,588.6l0.8,0.8l2.4-3.9L115.2,588.6z M115.2,600.3c0,0.8,0.8,2.4,1.6,3.1
		c1.6-0.8,3.9-2.4,6.3-3.1c0-2.4-1.6-3.9-3.9-3.9C116.8,596.4,115.2,598,115.2,600.3z M119.9,572.1l0.8-5.5l-2.4-1.6l-5.5,3.9
		l6.3,3.9L119.9,572.1z M124.7,600.3l7.9-3.1l-4.7-7.9c-0.8-0.8-1.6-1.6-3.1-1.6c-2.4,0-3.9,1.6-3.9,3.9v0.8l0.8,0.8l0.8,0.8
		L124.7,600.3z M127.8,569.7l2.4-3.1c-0.8,0.8-1.6,1.6-3.1,2.4L127.8,569.7z M134.1,596.4l7.9-3.1l-3.9-7.1
		c-0.8-0.8-0.8-1.6-1.6-1.6l-0.8,0.8l-2.4-1.6c-1.6,0-3.1,1.6-3.1,3.9c0,0.8,0.8,2.4,1.6,3.1L134.1,596.4z M139.6,577.6
		c1.6-1.6,3.1-2.4,4.7-3.9l-5.5-3.9c-0.8,0.8-2.4,1.6-3.9,3.1l-0.8,0.8L139.6,577.6z M149.8,579.9c0.8-0.8,0.8-0.8,1.6-1.6l-5.5-3.9
		c-1.6,1.6-3.1,3.1-4.7,3.9l1.6,1.6H149.8z M156.9,573.6l-5.5-3.9c-0.8,0.8-2.4,1.6-3.9,3.1l-0.8,0.8l5.5,3.9
		C153.7,576,155.3,575.2,156.9,573.6z M161.6,579.9c0-0.8,0.8-0.8,1.6-1.6l-5.5-3.9c-1.6,1.6-3.1,3.1-4.7,3.9l2.4,1.6H161.6z
		 M169.4,573.6l-5.5-3.9c-0.8,0.8-2.4,1.6-3.9,3.1l-0.8,0.8l5.5,3.9C166.3,576,167.9,575.2,169.4,573.6z M165.5,579.1l-0.8,0.8h1.6
		L165.5,579.1z M160,587.8c0,0,2.4,0,4.7-0.8c2.4-0.8,3.9-0.8,3.9-0.8s-1.6-2.4-3.9-2.4c-1.6,0-3.1,1.6-3.1,1.6L160,587.8z
		 M168.7,579.9h5.5c0.8-0.8,1.6-0.8,2.4-1.6l-5.5-3.9c-1.6,1.6-3.1,3.1-4.7,3.9L168.7,579.9z M176.5,579.9h2.4l-0.8-0.8
		C178.1,579.1,177.3,579.9,176.5,579.9z M182.8,573.6l-5.5-3.9c-0.8,0.8-2.4,1.6-3.9,3.1l-0.8,0.8l5.5,3.9
		C179.7,576,181.2,575.2,182.8,573.6z M179.7,578.3l2.4,1.6h5.5c0.8-0.8,1.6-0.8,2.4-1.6l-5.5-3.9
		C182.8,576,181.2,577.6,179.7,578.3z M190.7,577.6c1.6-1.6,3.1-2.4,4.7-3.9l-5.5-3.9c-0.8,0.8-2.4,1.6-3.9,3.1l-0.8,0.8
		L190.7,577.6z M190.7,579.9h2.4l-1.6-0.8C190.7,579.1,190.7,579.9,190.7,579.9z M194.6,579.9h5.5c0.8-0.8,1.6-0.8,2.4-1.6l-5.5-3.9
		c-1.6,1.6-3.1,3.1-4.7,3.9L194.6,579.9z M205.6,578.3l2.4,1.6h5.5c0.8,0,1.6-0.8,2.4-1.6l-5.5-3.9
		C208.7,576,207.2,577.6,205.6,578.3z M216.6,577.6c1.6-1.6,3.1-2.4,4.7-3.9l-5.5-3.9c-0.8,0.8-2.4,1.6-3.9,3.1l-0.8,0.8
		L216.6,577.6z M215.8,579.9h3.1l-1.6-0.8C216.6,579.1,216.6,579.9,215.8,579.9z M221.3,579.9h4.7c0.8,0,1.6-0.8,2.4-1.6l-5.5-3.9
		c-1.6,1.6-3.1,3.1-4.7,3.9L221.3,579.9z M230,577.6c1.6-1.6,3.1-2.4,4.7-3.9l-5.5-3.9c-0.8,0.8-2.4,1.6-3.9,3.1l-0.8,0.8L230,577.6
		z M230,579.1c-0.8,0-0.8,0.8-1.6,0.8h3.1L230,579.1z M226.8,587c0,0,1.6,0,3.9,0.8c2.4,0.8,4.7,0.8,4.7,0.8l-0.8-2.4
		c0,0-0.8-1.6-3.1-1.6C229.2,584.6,226.8,587,226.8,587z M238.6,579.9c0.8-0.8,1.6-1.6,2.4-2.4l-5.5-3.9c-1.6,1.6-3.1,3.1-4.7,3.9
		l3.1,2.4H238.6z M236.2,588.6c2.4,0,4.7,0.8,7.9,1.6c0.8-0.8,0.8-1.6,0.8-2.4c0-2.4-1.6-3.9-3.9-3.9c-0.8,0-1.6,0-2.4,0.8
		C237.8,585.4,237,587,236.2,588.6z M244.9,580.7l-1.6-1.6c-0.8,0.8-0.8,1.6-1.6,1.6H244.9z M247.2,573.6l-5.5-3.9
		c-0.8,0.8-2.4,1.6-3.9,3.1l-0.8,0.8l5.5,3.9C244.1,576,245.7,575.2,247.2,573.6z M244.9,578.3l3.1,2.4h4.7c0.8-0.8,1.6-1.6,2.4-2.4
		l-5.5-3.9C247.2,576,245.7,576.8,244.9,578.3z M266.1,576.8l-3.9-2.4c-1.6,0.8-3.1,2.4-4.7,3.9l3.1,2.4h4.7
		c0.8-0.8,1.6-0.8,2.4-1.6L266.1,576.8z M312.5,572.8l-6.3-3.9c-0.8,0.8-2.4,2.4-4.7,3.9l5.5,4.7C309.3,576,310.9,574.4,312.5,572.8
		z M305.4,580.7h4.7l-2.4-1.6C307,579.9,306.2,579.9,305.4,580.7z M300.7,574.4c-1.6,0.8-3.1,2.4-4.7,3.9l3.9,2.4h3.9
		c0.8-0.8,2.4-1.6,3.1-2.4L300.7,574.4z M294.4,579.1c0,0-0.8,0.8-2.4,1.6h4.7L294.4,579.1z M299.1,573.6l-6.3-3.9
		c-1.6,0.8-3.1,2.4-4.7,3.9l6.3,3.9C296,576,297.5,575.2,299.1,573.6z M287.3,574.4c-1.6,0.8-3.1,2.4-4.7,3.9l3.9,2.4h3.9
		c0.8-0.8,2.4-1.6,3.1-2.4L287.3,574.4z M281.8,579.1c-0.8,0-1.6,0.8-2.4,1.6h4.7L281.8,579.1z M286.5,573.6l-6.3-3.9
		c-1.6,0.8-3.1,2.4-4.7,3.9l6.3,3.9C283.4,576,285,575.2,286.5,573.6z M274.7,574.4c-0.8,0.8-2.4,1.6-3.1,2.4l2.4,3.9h3.9
		c1.6-0.8,2.4-1.6,3.1-2.4L274.7,574.4z M273.2,573.6l-5.5-3.9c0,0.8-0.8,0.8-0.8,0.8l3.9,5.5C271.6,575.2,272.4,574.4,273.2,573.6z
		 M266.9,580.7h1.6C267.7,579.9,266.9,579.9,266.9,580.7z M255.9,579.1c-0.8,0-0.8,0.8-1.6,1.6h3.9L255.9,579.1z M260.6,573.6
		l-5.5-3.9c-0.8,0.8-2.4,1.6-3.9,3.1l-0.8,0.8l5.5,3.9C257.5,576,259,575.2,260.6,573.6z M245.7,590.1l2.4,0.8
		c0.8,0.8,1.6,1.6,3.1,1.6l1.6,0.8l2.4-3.9c0-0.8,0-0.8,0-1.6c0-1.6-0.8-3.1-2.4-3.9l-0.8,0.8l-1.6-0.8c-0.8,0-1.6,0.8-2.4,1.6
		c0,0.8-0.8,1.6-0.8,2.4L245.7,590.1z M254.3,593.3l7.9,3.1l0,0l7.9,3.1l3.1-5.5c0.8,0,0.8-0.8,0.8-0.8l0.8-0.8v-0.8
		c0-2.4-1.6-3.9-3.9-3.9c-0.8,0-2.4,0.8-3.1,1.6l-5.5,7.1l2.4-4.7c0.8-0.8,1.6-1.6,1.6-3.1c0-2.4-1.6-3.9-3.9-3.9
		c-0.8,0-2.4,0.8-3.1,1.6L254.3,593.3z M271.6,601.1c2.4,0.8,4.7,2.4,6.3,3.1c1.6-0.8,2.4-2.4,2.4-3.9c0-2.4-1.6-3.9-3.9-3.9
		S272.4,598,271.6,601.1z M314.8,573.6c-1.6,1.6-3.1,3.1-5.5,4.7l3.9,2.4h7.1l-3.9-6.3L314.8,573.6z M310.1,566.6
		c-0.8,0-1.6,0.8-2.4,1.6l6.3,3.9L310.1,566.6z M303,565.8l3.1,1.6c0.8-0.8,1.6-1.6,2.4-1.6H303z M297.5,565
		c-0.8,0.8-1.6,1.6-3.1,3.1l6.3,3.9c1.6-0.8,3.1-2.4,4.7-3.9l-4.7-3.1H297.5z M290.5,565l3.1,2.4c0.8-0.8,1.6-1.6,3.1-2.4H290.5z
		 M285,565c-1.6,0.8-2.4,1.6-3.9,3.1l6.3,3.9c1.6-1.6,3.1-2.4,4.7-3.9l-4.7-3.1H285z M276.3,565l3.9,2.4c0.8-0.8,1.6-1.6,2.4-2.4
		H276.3z M269.2,568.1l5.5,3.9c1.6-0.8,3.1-2.4,4.7-4.7l-4.7-3.1h-1.6C272.4,565.8,270.8,566.6,269.2,568.1z M263.7,565.8l3.9,2.4
		c1.6-1.6,2.4-2.4,3.1-3.1h-7.1V565.8z M259,566.6c-0.8,0.8-1.6,1.6-2.4,2.4l5.5,3.9L259,566.6z M250.4,565l4.7,3.1
		c1.6-0.8,2.4-1.6,3.1-2.4l-0.8-0.8H250.4z M248.8,565c-0.8,0.8-2.4,2.4-4.7,3.9l5.5,3.9c1.6-1.6,3.1-2.4,4.7-3.9L248.8,565z
		 M237,565l5.5,3.1c1.6-1.6,3.1-2.4,3.9-3.1H237z M235.5,565c-0.8,0.8-2.4,2.4-4.7,3.9l5.5,3.9c1.6-1.6,3.1-2.4,4.7-3.9L235.5,565z
		 M223.7,564.2l5.5,3.9c2.4-1.6,3.9-2.4,4.7-3.9H223.7z M222.1,565c-0.8,0.8-2.4,2.4-4.7,3.9l5.5,3.9c1.6-1.6,3.1-2.4,4.7-3.9
		L222.1,565z M211.1,564.2l5.5,3.9c1.6-1.6,3.1-2.4,4.7-3.9H211.1z M209.5,565c-0.8,0.8-2.4,2.4-4.7,3.9l5.5,3.9
		c1.6-1.6,3.1-2.4,4.7-3.9L209.5,565z M197.7,564.2l6.3,3.9c1.6-1.6,3.1-3.1,4.7-3.9H197.7z M196.2,565c-0.8,0.8-2.4,2.4-4.7,3.9
		l5.5,3.9c1.6-1.6,3.1-2.4,4.7-3.9L196.2,565z M185.2,564.2l5.5,3.9c1.6-1.6,3.9-3.1,4.7-3.9H185.2z M183.6,565
		c-0.8,0.8-2.4,2.4-4.7,3.9l5.5,3.9c1.6-1.6,3.1-2.4,4.7-3.9L183.6,565z M171.8,564.2l5.5,3.9c2.4-1.6,3.9-2.4,4.7-3.9H171.8z
		 M170.2,565c-0.8,0.8-2.4,2.4-4.7,3.9l5.5,3.9c1.6-1.6,3.1-2.4,4.7-3.9L170.2,565z M158.4,564.2l5.5,3.9c2.4-0.8,3.9-2.4,4.7-3.9
		l-9.4-0.8C158.4,564.2,158.4,564.2,158.4,564.2z M157.7,565c-0.8,0.8-2.4,2.4-4.7,3.9l5.5,3.9c1.6-1.6,3.1-2.4,4.7-3.9L157.7,565z
		 M146.7,564.2l5.5,3.9c1.6-1.6,3.1-3.1,4.7-3.9l-0.8-0.8h-8.6L146.7,564.2z M144.3,565c-0.8,0.8-2.4,2.4-4.7,3.9l5.5,3.9
		c1.6-1.6,3.1-2.4,4.7-3.9L144.3,565z M136.4,566.6l2.4,1.6c1.6-1.6,3.1-3.1,4.7-3.9l-0.8-0.8H138L136.4,566.6z M132.5,572.8
		c1.6-1.6,3.9-2.4,5.5-3.9l-2.4-1.6L132.5,572.8z M132.5,574.4c-0.8,0.8-2.4,1.6-3.1,2.4l-0.8,1.6l0.8,1.6h7.1
		c0.8-0.8,0.8-0.8,1.6-1.6L132.5,574.4z M122.3,565.8l3.9,2.4c1.6-1.6,3.1-3.1,4.7-3.9l-1.6-0.8h-7.1V565.8z M121.5,571.3
		c1.6-0.8,2.4-1.6,2.4-2.4l-2.4-1.6V571.3z M121.5,574.4l2.4,1.6l3.1-5.5l-1.6-0.8c-0.8,0.8-2.4,1.6-3.9,3.1V574.4z M121.5,576
		l-0.8,3.9h0.8l1.6-2.4L121.5,576z M119.9,564.2l0.8,0.8v-1.6L119.9,564.2z M109.7,565.8l3.1,2.4l5.5-3.9l-1.6-0.8h-7.1V565.8z
		 M108.9,570.5l2.4-2.4l-2.4-1.6V570.5z M108.9,574.4l5.5,3.1c1.6-1.6,3.1-2.4,4.7-3.9l-6.3-3.9l-3.9,3.1V574.4z M108.2,565v-0.8
		C108.2,564.2,107.4,564.2,108.2,565z M106.6,565c-1.6,1.6-3.9,2.4-5.5,3.9l5.5,3.9l0.8-0.8l0.8-5.5L106.6,565z M96.4,565.8l3.1,2.4
		c2.4-1.6,3.9-3.1,5.5-3.9l-2.4-0.8h-6.3C96.4,564.2,96.4,565,96.4,565.8z M94.8,564.2l0.8,0.8c0-0.8,0-0.8,0-1.6L94.8,564.2z
		 M93.2,565l-5.5,3.9l5.5,3.9l0.8-0.8c0.8-2.4,0.8-3.9,0.8-5.5L93.2,565z M83.8,566.6l2.4,1.6l4.7-3.9l-1.6-1.6h-3.1L83.8,566.6z
		 M83,570.5l1.6-1.6l-1.6-1.6v0.8V570.5z M83,574.4l3.9,3.1c1.6-1.6,3.9-2.4,5.5-3.9l-5.5-3.9l-3.9,2.4V574.4z M82.2,579.1h1.6
		c0.8,0,0.8-0.8,1.6-1.6l-3.1-2.4V579.1z M79.9,572.1l1.6-0.8v-1.6L79.9,572.1z M75.9,579.1h5.5v-4.7l-1.6-0.8l-0.8,1.6L75.9,579.1z
		 M77.5,587l-2.4,1.6l0.8,0.8h1.6c0-0.8,0.8-0.8,1.6-1.6L77.5,587z M72,583.8l2.4,2.4l2.4-1.6l-0.8-0.8H72z M68.9,589.3h2.4l1.6-1.6
		l-1.6-2.4L68.9,589.3z M68.1,593.3l9.4,11.8l7.1-11L68.1,593.3z M65.7,594.8l11,11.8l-10.2-12.6L65.7,594.8z M56.3,606.6h16.5
		l-8.6-10.2L56.3,606.6z M54.7,610.6l14.9,0.8l4.7-2.4l-18.1,0L54.7,610.6z M47.6,620.8l18.1-7.9l-11.8-0.8L47.6,620.8z M46.9,623.1
		h0.8L72,612.9h-1.6L46.9,623.1z M46.9,626.3l16.5,0.8v-0.8l-15.7-0.8L46.9,626.3z M45.3,627.8c3.1,3.9,6.3,7.9,9.4,11.8l7.1-11
		L45.3,627.8z M33.5,640.4l16.5,0.8l-8.6-11.8L33.5,640.4z M45.3,645.9l-14.1-0.8l-7.1,10.2L45.3,645.9z M51.6,643.6l-18.9-0.8
		l-0.8,0.8l17.3,0.8L51.6,643.6z M53.9,641.2c-2.1-2.1-3.9-4.2-5.6-6.3l4.8,6.3H53.9z M55.5,643.6h-0.8l0.8,0.8V643.6z M68.9,661.6
		c-0.8-0.8-1.6-2.4-3.1-3.9c-2.4-3.1-4.7-6.3-8.6-11h-0.8l12.6,15.7V661.6z M75.2,647.5L61,646.7c3.1,3.9,5.5,7.9,7.9,10.2
		C69.7,654.6,72,651.4,75.2,647.5z M76.7,645.1l-13.4-0.8l-2.4,0.8l14.9,1.6C75.9,645.9,76.7,645.9,76.7,645.1z M82.2,634.9
		L67.3,642h10.2C79.1,639.6,80.7,637.3,82.2,634.9z M85.4,630.2L59.4,642h3.9l21.2-10.2C84.6,631,85.4,631,85.4,630.2z M87.7,627.1
		l-18.1-0.8l-0.8,0.8l17.3,0.8L87.7,627.1z M90.1,623.9l-8.6-11h-0.8L90.1,623.9z M97.2,618.4l2.4-3.9l-14.9-0.8l7.1,9.4
		C93.2,621.6,94.8,620,97.2,618.4z M303.8,634.1l-7.1-10.2c-8.6-7.9-20.4-15.7-34.6-22c-21.2-10.2-44.8-15.7-65.2-15.7h-0.8
		c-37.7,0-78.6,23.6-94.3,35.4l-5.5,8.6c14.1-11.8,58.1-38.5,99.8-38.5h0.8C237.8,591.7,281.8,612.9,303.8,634.1z M316.4,612.9v-0.8
		h-0.8l-11.8,12.6c0.8,0.8,0.8,0.8,1.6,1.6C310.1,620.8,313.2,616.8,316.4,612.9z M307.7,626.3h18.9l-8.6-12.6
		C314.8,617.6,310.9,622.3,307.7,626.3z M309.3,628.6h18.9l-0.8-0.8h-18.9L309.3,628.6z M311.7,631c2.4,1.6,7.9,3.9,18.9,9.4
		c1.6,0.8,3.9,2.4,6.3,3.1c0,0,0.8,0,1.6,0L311.7,631z M319.5,645.1c2.4-0.8,7.1-0.8,14.1-0.8c-0.8-0.8-2.4-1.6-3.9-2.4
		c-7.1-3.1-13.4-6.3-17.3-7.9C314.8,638.1,317.2,641.2,319.5,645.1z M320.3,645.9c0,0,0.8,0.8,0.8,1.6l17.3-0.8l0.8-0.8
		c-0.8,0-1.6,0-2.4-0.8C329.7,645.9,324.2,645.9,320.3,645.9z M327.4,660.1l9.4-11.8h-15.7C323.5,652.2,325,656.1,327.4,660.1z
		 M341.5,648.3h-2.4L329,661.6c0.8,0.8,0.8,2.4,1.6,3.1l11-15.7V648.3z M343.9,645.9l-2.4-0.8v0.8c0,0,0.8,0.8,1.6,0.8L343.9,645.9z
		 M354.9,630.2l-0.8-0.8h-0.8l-10.2,13.4l0.8,0.8c0,0,0.8,0,1.6,0L354.9,630.2z M345.5,645.1l2.4,1.6l18.1-0.8l-0.8-1.6
		C358.8,644.3,352.5,644.3,345.5,645.1z M377.7,664l-2.4-3.1L347,648.3h-0.8l0.8,0.8C360.4,655.4,373,660.9,377.7,664z M83.4,585
		c-0.1-0.1-0.3-0.3-0.4-0.4c-0.7,0.7-1.3,1.3-2,2l0.4,0.4C82.1,586.3,82.7,585.7,83.4,585z M76.7,543l-0.8-1.6l3.1-4.7l0.8,0v-11.8
		h-0.8V521h21c0.1-0.6,1.5-3.7,3.5-7.9h-0.1l0.6-1.1c0.6-1.2,1.1-2.5,1.7-3.8c0-0.9,0.3-1.6,1-2.1c1.3-2.8,2.6-5.8,3.7-8.7
		c1.2-3.1,3.8-10.5,7.1-20V477l0.2,0c10.2-29.2,26.6-77.2,26.6-77.8l0.8,0.6v-0.6h32.2l0,0l0,0h71.5v1.6c0,0.8,18.1,55,22.8,69.1
		c0.8,2.3,2,5.3,3.4,8.7l1.3,0v3.3c3.2,7.6,7.1,16.6,10.5,24c0.9,0.6,1.3,1.4,1.3,2.5c0,0.1,0,0.3,0,0.4c3.2,7.1,5.5,12.2,5.5,12.2
		h22v1.6v2.4v14.9l2.4,3.9L76.7,543z M194.4,402.3l-7.4,4.5l2.1,1.7l7.9-4.6l7,4.6l0.9-0.7l-8.3-5.5H194.4z M105,524.9V537l4.7,0.1
		v-12.2H105z M112.1,537.1l5.5,0.1v-12.3h-5.5V537.1z M158.8,402.3l-5.4,3.5l1,1.6l4-2.5c0.3-1.2,0.5-2,0.7-2.6H158.8z M189.7,410
		l-2.7,1.7l7.1,5.6h0.9l0.4-0.3l0.3,0.3h1.8l8.2-5.9l-1.5-1l-7.4,5.3L189.7,410z M196.2,414.1l6.6-4.8l-5.8-3.9l-6.6,4.1
		L196.2,414.1z M255.3,521l-10.6-5.8c1.1,3.6,1.8,5.8,1.8,5.8H255.3z M241.7,521c0,0-11-36.1-15.7-55.8c-2.3-9-5.2-23.9-7.7-36.9
		h-44.5c-1.4,6.9-3,14.5-4.5,21.8l0.2,0.2l-0.3,0.7c-2.7,13-5.3,25-6.7,30.8c-2.5,8.7-5.6,19.4-8.1,27.6c0.2,0.5,0.2,1,0.2,1.5
		c0,0.8-0.8,1.6-0.8,1.6l-0.4,0.2c-1.2,4-2.1,7.1-2.5,8.5H241.7z M147.4,521c0,0,0.8-2.5,1.9-6.5l-12.9,6.5H147.4z M108.5,511.6
		h19.2c0.3-0.9,0.7-1.8,1-2.8l-18.9-0.3C109.4,509.5,108.9,510.6,108.5,511.6z M157.6,408.2l-1.9,1.3l1.1,1.9
		C157.1,410.2,157.3,409.2,157.6,408.2z M155,410l-2.3,1.5l2.8,4.9c0.3-1.4,0.7-2.7,1-3.9L155,410z M272.7,484.1l-2.8,0.1l-9,8.2
		l3.2,1.7l9.1-8.6C273.1,485,272.9,484.6,272.7,484.1z M265,521c0-0.1-0.1-0.2-0.1-0.3l-13-6.8h-5.1l12.8,7.1H265z M130.2,452.1v1.3
		h15.8c0.2-0.8,0.5-1.6,0.7-2.4h-16.1C130.4,451.4,130.3,451.8,130.2,452.1z M145.6,419.9l1.2,1.3l0.9-1l-0.5-0.6h-1.3L145.6,419.9z
		 M160.5,419.6h-1.4l-0.2,0.2l1.2,1.3l0.9-1L160.5,419.6z M194.4,419.8l1.2,1.3l0.8-0.9l-0.6-0.6h-1.2L194.4,419.8z M251.1,428.3
		l-8.1,7.6c0.2,0.8,0.4,1.6,0.6,2.4l9.9-9.2c-0.1-0.2-0.2-0.5-0.2-0.7H251.1z M254.5,451.8h-7.1c0.2,0.8,0.4,1.6,0.7,2.4h13.8
		c-0.3-0.8-0.5-1.6-0.8-2.4h-4.9l-0.4,0.8L254.5,451.8z M194.2,425.1h2.3l0.3-0.3l-1.2-1.3L194.2,425.1L194.2,425.1z M197.7,423.6
		l0.8-0.9l-1.2-1.3l-0.8,0.9L197.7,423.6z M199,425.1h1.6l-1-1.2l-0.8,0.9L199,425.1z M201.8,424.1l1.4-1.6l-1.2-1.3l-1.4,1.6
		L201.8,424.1z M203,425.1h2.3l0.1-0.1l-1.2-1.3L203,425.1z M206.5,423.8l1.3-1.5l-1.2-1.3l-1.3,1.5L206.5,423.8z M207.6,425.1h2.1
		l0.3-0.3l-1.2-1.3l-1.3,1.5L207.6,425.1z M211,423.6l0.8-0.9l-1.2-1.3l-0.8,0.9L211,423.6z M212.4,425.1h1.7l-1.1-1.2l-0.8,0.9
		L212.4,425.1z M233.8,420.3l1.2,1.3l1.3-1.5l-0.4-0.5h-0.5l0,0l0,0h-1L233.8,420.3z M240.1,441.5c-0.2-0.8-0.4-1.5-0.7-2.3
		l-1.3,1.2L240.1,441.5L240.1,441.5z M233.1,456.5l0.8-0.8l12.6,7.4c-0.7-2.4-1.5-4.9-2.2-7.4h-10.4h-5.1l0.2,0.8l16.6,9.6l1.5-1.3
		c0-0.1,0-0.1,0-0.2L233.1,456.5z M237.2,479.3l11.1-10.1l-2.1-1.3l-12,10.6l0.2,0.8L237.2,479.3z M244.6,467l-15.3-9l4.5,18.7
		L244.6,467z M247.1,467.1l0.7,0.4c-0.1-0.3-0.2-0.6-0.3-0.9L247.1,467.1z M224,428.3l14.8,8.5c-0.8-2.9-1.6-5.8-2.4-8.5H224z
		 M236,425.1l-1-1.2l-0.8,0.9l0.2,0.2H236z M222.5,428.8c0.2,0.9,0.4,1.9,0.6,2.9l14.1,8.2l1.9-1.8c0-0.1-0.1-0.2-0.1-0.3l-16.2-9.4
		h0L222.5,428.8z M243.8,454.2c-0.2-0.8-0.5-1.6-0.7-2.4h-14.8v2.4H243.8z M230.7,450.3l8-7.5l-1.9-1.1l-9.1,8.6H230.7z
		 M235.8,441.1l-12.3-7l3.6,15.2L235.8,441.1z M242.7,434.6l6.7-6.4H241C241.5,430.3,242.1,432.4,242.7,434.6z M245.4,424.8
		l-1.2-1.3l-1.4,1.6l0,0h2.3L245.4,424.8z M243.2,422.3L242,421l-1.4,1.6l1.2,1.3L243.2,422.3z M239.6,423.8l-1.2,1.4h2.3l0,0
		L239.6,423.8z M238.5,422.6l-1.2-1.3l-1.3,1.5l1.2,1.3L238.5,422.6z M232.8,421.4l-0.8,0.9l1.2,1.3l0.8-0.9L232.8,421.4z
		 M230.9,423.6l-1.4,1.6h2.3l0.2-0.2L230.9,423.6z M229.9,422.4l-1.2-1.3l-1.4,1.6l1.2,1.3L229.9,422.4z M226.3,423.8l-1.1,1.3h2.3
		L226.3,423.8z M225.2,422.6l-1.2-1.3l-1.4,1.5l1.2,1.3L225.2,422.6z M221.6,424L221.6,424c0,0.4,0.1,0.7,0.2,1.1h0.8L221.6,424z
		 M216.4,419.9l0.4,0.4c0-0.2-0.1-0.5-0.1-0.7L216.4,419.9z M215.4,421.1l-1.4,1.6l1.2,1.3l1.4-1.6L215.4,421.1z M216.3,425.1h1.4
		c-0.1-0.4-0.2-0.9-0.3-1.3L216.3,425.1z M236.1,486.8c2.2,7.5,4.4,15,6.3,21.1l12.3-11.3L236,486.4L236.1,486.8z M243.5,508.4h5.4
		l9-8.4c-0.2-0.7-0.4-1.4-0.7-2.1l-1.4-0.8L243.5,508.4z M256.3,495.1c-0.4-1.2-0.7-2.4-1.1-3.7l-13.1-6.8l-6.1,0.1l19.8,10.8
		L256.3,495.1z M259.8,491.9l8.4-7.7l-11.6,0.2c0.6,2.2,1.2,4.1,1.7,5.9c0.1,0.3,0.2,0.6,0.3,0.8L259.8,491.9z M253,484.5l-7.2,0.1
		l8.7,4.5C254,487.6,253.5,486.1,253,484.5z M252.5,482.9c-0.2-0.8-0.5-1.5-0.7-2.3l-14.7,0.3l-0.1,0.1l-0.1-0.1l-2.2,0l0.6,2.3
		l4.2-0.1l0.7-1.5l2.7,1.4L252.5,482.9z M251.3,479c-0.8-2.8-1.7-5.7-2.7-8.7l-9.8,8.9L251.3,479z M250.3,462l7-6.2h-8.7
		C249.1,457.8,249.7,459.9,250.3,462z M251.8,450.3l-5.7-3.3c0.3,1.1,0.6,2.2,0.9,3.3H251.8z M240.9,444l-0.3-0.2l-6.6,6.4h8.7
		C242.1,448.2,241.5,446.1,240.9,444z M249.4,425.1l-1.1-1.2l-0.8,0.9l0.3,0.3H249.4z M247.3,422.7l-1.2-1.3l-0.8,0.9l1.2,1.3
		L247.3,422.7z M248.3,421.5l1.3-1.5l-0.3-0.4h-1.6l-0.5,0.6L248.3,421.5z M244.6,419.6h-1.3l-0.2,0.2l1.2,1.3l0.8-0.9L244.6,419.6z
		 M240.8,419.6h-2l-0.4,0.5l1.2,1.3l1.4-1.6L240.8,419.6z M231.2,419.6H230l-0.2,0.3l1.2,1.3l0.8-0.9L231.2,419.6z M227.4,419.6
		h-1.9l-0.5,0.5l1.2,1.3l1.4-1.6L227.4,419.6z M222.5,419.6h-1.4l-0.3,0.3c0.1,0.3,0.1,0.7,0.2,1l0.6,0.7l1.4-1.5L222.5,419.6z
		 M214,419.6h-1.8l-0.5,0.6l1.2,1.3l1.4-1.6L214,419.6z M209.1,419.6h-1.3l-0.2,0.2l1.2,1.3l0.8-0.9L209.1,419.6z M205.4,419.6h-2
		l-0.3,0.4l1.2,1.3l1.3-1.5L205.4,419.6z M200.6,419.6H199l-0.6,0.6l1.2,1.3l1.4-1.6L200.6,419.6z M193.3,421l-1.4,1.6l1.2,1.3
		l1.4-1.6L193.3,421z M190.9,423.8l-1.2,1.3h2.3l0,0L190.9,423.8z M189.8,422.6l-1.2-1.3l-1.4,1.5l1.2,1.3L189.8,422.6z M186.3,424
		l-0.8,0.9l0.2,0.2h1.7L186.3,424z M185.2,422.8l-1.2-1.3l-0.8,0.9l1.2,1.3L185.2,422.8z M182.2,423.6l-1.3,1.5h2.3l0.2-0.2
		L182.2,423.6z M181.1,422.4l-1.2-1.3l-1.4,1.5l1.2,1.3L181.1,422.4z M177.5,423.8l-1.1,1.3h2.3L177.5,423.8z M136,497.6l9.8,9.2
		l-0.4,0.8h5.8l-13-11.9l-1.9,1C136.2,497,136.1,497.3,136,497.6z M154.3,420l1.2,1.3l0.9-1l-0.4-0.7h-1.3L154.3,420z M137.3,493.4
		l0.8,0.7l19.8-10.9l-3.4-0.1l0.1,0.1l-16.7,8.7C137.6,492.4,137.5,492.9,137.3,493.4z M139.3,495.1l12.4,11.4
		c1.9-6.5,4-14.3,5.8-21.1L139.3,495.1z M159.5,477.3l-11.9-10.9l-2.4,1.4l10.8,9.8l3.5,0.1C159.4,477.6,159.4,477.5,159.5,477.3z
		 M159.8,476.2c1.2-5.1,2.6-11.9,4.2-19.3l-15.4,9.1L159.8,476.2z M164.2,455.4c0-0.1,0.1-0.3,0.1-0.4h-4.9l-13,7.6
		c-0.1,0.4-0.2,0.8-0.3,1.2l1.5,1.4L164.2,455.4z M165.6,448.8l-9.9-9.6l-2.7,1.5l9.4,8.7h3.1C165.5,449.3,165.6,449.1,165.6,448.8z
		 M156.7,425l-1.2-1.3l-1.2,1.4L156.7,425L156.7,425z M156.1,428.3c-0.5,1.8-1,3.7-1.5,5.6l9.6-5.6H156.1z M154.3,437.9l-0.7-0.7
		c-0.1,0.4-0.2,0.8-0.3,1.3L154.3,437.9z M166,447c1.1-5.2,2.2-10.5,3.2-15.5l-12.2,7L166,447z M169.7,429c0.1-0.3,0.1-0.5,0.2-0.8
		h-2.3l-13.2,7.7l1.3,1.2L169.7,429z M161.3,424.8l-1.2-1.3l-1.4,1.5l0.1,0.1h2.2L161.3,424.8z M159.1,422.3l-1.2-1.3l-1.4,1.5
		l1.2,1.3L159.1,422.3z M153.3,421.2l-1.3,1.5l1.2,1.3l1.3-1.5L153.3,421.2z M150.9,423.9l-0.9,1l0.2,0.2h1.7L150.9,423.9z
		 M149.9,422.7l-1.2-1.3l-0.9,1l1.2,1.3L149.9,422.7z M146.8,423.6l-1.3,1.4l0.1,0.1h2.1l0.2-0.2L146.8,423.6z M146.1,428.3l5.4,5.1
		c0.5-1.7,0.9-3.4,1.4-5.1H146.1z M150.2,449.5h10.5l-8.3-7.8C151.7,444.2,151,446.9,150.2,449.5z M148.8,443.1l-11,6.3h9.2
		C147.6,447.4,148.2,445.2,148.8,443.1z M149.8,451c-0.2,0.8-0.4,1.6-0.7,2.4h15.5c0.2-0.8,0.3-1.6,0.5-2.4H149.8z M148.7,455
		c-0.6,2.1-1.2,4.1-1.7,6.1l10.4-6.1H148.7z M145.5,455h-8.9l7,6.4C144.2,459.3,144.8,457.1,145.5,455z M145.8,464.9
		c-0.2,0.5-0.3,1.1-0.5,1.6l1.3-0.8L145.8,464.9z M142.2,477.4l12,0.2l-9.6-8.7C143.8,471.9,143,474.7,142.2,477.4z M141,470.3
		l-11.6,6.9l9.5,0.2C139.5,475.1,140.2,472.8,141,470.3z M141.7,479c-0.2,0.8-0.5,1.6-0.7,2.3l17.4,0.3c0.2-0.7,0.4-1.5,0.6-2.3
		l-2.9-0.1l-0.1,0.1l-0.1-0.1L141.7,479z M140.5,482.9c-0.7,2.4-1.4,4.6-2,6.7l12.5-6.5L140.5,482.9z M137.2,482.8l-11.6-0.2
		l9.1,8.3c0.1-0.2,0.1-0.4,0.2-0.6C135.6,488.1,136.4,485.6,137.2,482.8z M137,494.5c0,0.1-0.1,0.2-0.1,0.3l0.2-0.1L137,494.5z
		 M176.5,422.6l-1.2-1.3l-0.2,0.2c-0.1,0.7-0.3,1.4-0.4,2.1l0.4,0.5L176.5,422.6z M170.7,421.5l-0.9,1l0.9,1
		c0.1-0.5,0.2-1.1,0.3-1.6L170.7,421.5z M168.8,423.7l-1.3,1.5h2.1l0.3-0.2L168.8,423.7z M167.8,422.5l-1.2-1.3l-1.3,1.5l1.2,1.3
		L167.8,422.5z M164.2,423.8l-0.9,1l0.3,0.3h1.7L164.2,423.8z M163.2,422.7l-1.2-1.3l-0.9,1l1.2,1.3L163.2,422.7z M151.9,419.6h-1.6
		l-0.5,0.6l1.2,1.3l1.3-1.5L151.9,419.6z M144.6,421.1l-1.3,1.4l1.2,1.3l1.3-1.4L144.6,421.1z M142.2,423.7l-0.4,0.5l1,1h0.5
		l0.1-0.1L142.2,423.7z M139.6,428.3l9.4,8.8l1.8-1c0.1-0.4,0.2-0.8,0.3-1.2l-6.8-6.6H139.6z M149.3,438.8l-18.2,10.6
		c0,0,0,0.1,0,0.1h5l-0.4-0.8l13.9-8c0.1-0.4,0.2-0.9,0.4-1.3L149.3,438.8z M131,455l10.3,9.4l1.7-1c0.1-0.3,0.2-0.6,0.2-0.8
		l-8.3-7.6H131z M142.2,465.1l0.3,0.2c0-0.2,0.1-0.3,0.1-0.5L142.2,465.1z M141.2,465.7l-19.2,11.3l5.3,0.1l14.2-8.3
		c0.2-0.7,0.4-1.5,0.7-2.3L141.2,465.7z M120.9,478.6c-0.3,0.8-0.6,1.6-0.8,2.3l17.6,0.3c0.2-0.8,0.5-1.5,0.7-2.3L120.9,478.6z
		 M120,482.5l11.4,10.7l2.6-1.4l-9.4-8.6l0.6-0.6L120,482.5z M132.8,494.5l0.6,0.6c0.1-0.3,0.2-0.7,0.3-1.1L132.8,494.5z
		 M132.9,507.6h11.4l-8.8-8.2C134.5,502.5,133.6,505.3,132.9,507.6z M132.1,499l-16.2,8.7h13.2C130,505.1,131,502.3,132.1,499z
		 M132.4,508.8c-0.3,1-0.6,1.9-0.9,2.7h18.7c0.2-0.8,0.4-1.5,0.7-2.4L132.4,508.8z M131,513.1c-1,2.8-1.7,4.8-2.2,6.1l11.7-6.1H131z
		 M128.1,521h5.5l14.2-7.9h-3.6l-16.1,7.7C128.2,520.8,128.2,520.9,128.1,521z M269.2,521L269.2,521l1.8,0l8.3-7.1H266
		c1.8,5,2.4,6.3,2.4,6.3l-0.4,0.2L269.2,521z M262.4,513.9h-6.7l8.2,4.3C263.5,517.1,263,515.7,262.4,513.9z M261.8,512.3
		c-0.3-1-0.7-2-1-3.1h-11.1l-0.9,0.8l-0.8-0.8h-5.2c0.3,1.1,0.6,2.1,0.9,3l0.2,0.1h6.8l0.4-0.8l1.5,0.8H261.8z M260.5,508.4
		c-0.7-2-1.4-4.4-2.3-7l-7.7,7H260.5z M264.1,508.4h12.5l-15.2-8.2C262.4,503.4,263.3,506.1,264.1,508.4z M260.5,497.5l2.3-2.1
		l-3.2-1.7l-0.2,0.2C259.7,495.1,260.1,496.3,260.5,497.5z M271.1,480.2l-15.6,0.3c0.2,0.8,0.4,1.6,0.7,2.3l15.9-0.3
		C271.7,481.7,271.4,480.9,271.1,480.2z M264.6,478.8l-11.5-6.8c0.7,2.4,1.3,4.7,1.9,6.9L264.6,478.8z M251.6,466.2l11-10
		c0-0.1-0.1-0.2-0.1-0.4h-2.6l-9,8c0.2,0.8,0.4,1.6,0.7,2.3L251.6,466.2z M260.6,450.1l-16.2-9.4c0.3,1.3,0.7,2.5,1.1,3.8l9.9,5.7
		h5.3C260.6,450.2,260.6,450.2,260.6,450.1z M260.2,449.1c-2-6-4.1-12.3-6.1-18.4l-9.6,9.3L260.2,449.1z M252.1,424.5l-0.5,0.6h0.7
		C252.2,424.9,252.1,424.7,252.1,424.5z M251.1,421.7l-0.4-0.5l-1.3,1.5l1.1,1.3l1-1.1C251.4,422.4,251.3,422.1,251.1,421.7z
		 M249.2,415.8c-0.2-0.6-0.4-1.2-0.6-1.8c-1.2-0.9-2.9-2.1-5.2-3.8l-1,1.3c2.6,2,5,3.9,6.4,4.9v-0.8L249.2,415.8z M241.6,412.6
		l-3.6,4.7h1.3l0.8-0.7l0.6,0.7h3l0.4-0.4l0.3,0.4h3.1C246.3,416.1,244.2,414.5,241.6,412.6z M241.2,412.2c-0.4-0.3-0.8-0.6-1.3-1
		l-2.6,3.8c0.1,0.6,0.3,1.1,0.4,1.7L241.2,412.2z M238.3,410.1c-0.9-0.7-1.8-1.4-2.8-2.1c0.3,1.3,0.7,2.8,1.1,4.5L238.3,410.1z
		 M231.3,407.9l-2,1.8l3.1,2.3C232,410.4,231.6,409,231.3,407.9z M228.4,410.5l-2.1,1.9l6.7,4.9h0.9c-0.3-1.1-0.6-2.2-0.9-3.3
		L228.4,410.5z M225.9,412.7l-5.1,4.6h0.9l0.5-0.4l0.4,0.4h3.5l0.8-0.7l0.6,0.7h3.1l0.4-0.3l0.3,0.3h1L225.9,412.7z M224.8,411.8
		l-2.3-1.7l-2.9,2.8c0.2,1,0.4,2.1,0.6,3.3L224.8,411.8z M222,409.8l-3.5-2.5c0.3,1.5,0.6,3.1,0.9,5L222,409.8z M214.2,405.9
		l-4.5,3.2l5.7,3.7C214.9,410.1,214.5,407.7,214.2,405.9z M208.3,410.1l-0.9,0.7l8.8,5.9c-0.1-0.5-0.2-1-0.3-1.5L208.3,410.1z
		 M206.2,411.6l-7.8,5.6h1.2l0.6-0.6l0.5,0.6h3.3l0.8-0.7l0.6,0.7h3l0.4-0.4l0.3,0.4h3.6l0.7-0.6l0.5,0.6h0.6L206.2,411.6z
		 M192.1,419.6h-1.9l-0.4,0.5l1.2,1.3l1.4-1.6L192.1,419.6z M187.2,419.6h-1.5l-0.6,0.7l1.2,1.3l1.4-1.5L187.2,419.6z M182.4,419.6
		h-1.1l-0.3,0.3l1.2,1.3l0.8-0.9L182.4,419.6z M178.6,419.6h-1.8l-0.5,0.5l1.2,1.3l1.4-1.5L178.6,419.6z M169.1,419.6H168l-0.3,0.4
		l1.2,1.3l0.9-1L169.1,419.6z M165.2,419.6h-1.7l-0.5,0.5l1.2,1.3l1.3-1.5L165.2,419.6z M151.6,412.2l-7.4,5h2.1l0.4-0.4l0.3,0.4
		h3.7l0.6-0.5l0.5,0.5h2.7L151.6,412.2z M141.2,420.1l1,1.2l1.3-1.4l-0.2-0.3h-1.9C141.3,419.8,141.3,420,141.2,420.1z M140.6,421.8
		c-0.2,0.7-0.5,1.4-0.7,2.1l1.3-1.5L140.6,421.8z M132,446.9l16.1-9.3l-9.7-9.1C136.3,434.2,134.2,440.5,132,446.9z M129.2,454.8
		c-2.5,7.3-5.1,14.6-7.3,21l18.5-10.9l-11-10C129.3,454.9,129.3,454.9,129.2,454.8z M119,483.9c-2.5,7.1-4.4,12.5-5.4,15.1
		c-0.6,1.5-1.2,2.9-1.8,4.3l17.9-9.3l-10.7-10C119.1,484,119.1,484,119,483.9z M110.9,505.8c-0.2,0.6-0.5,1.2-0.7,1.8h3.5l19.1-10.5
		c0-0.1,0.1-0.2,0.1-0.3l-1.6-1.5L110.9,505.8z M114.6,513.1l9.2,7.9h0.1c0.7-1.4,1.7-3.9,3.2-7.9H114.6z M276.3,521l7.1-7.1H281
		l-7.7,7.1H276.3z M285,512.3L285,512.3c-0.4-1-0.8-2.1-1.3-3.1h-4.2v0.8l-1.4-0.8h-13.6c0.4,1.2,0.8,2.2,1.1,3.1H285z M281.9,505.2
		l-17.7-9.2l-2.8,2.5l18.1,9.8h3.8C282.8,507.4,282.3,506.3,281.9,505.2z M280.7,502.7c-2.2-5.1-4.6-10.5-6.8-15.5l-8.4,7.7
		L280.7,502.7z M270.4,478.5l-18.5-10.9c0.3,0.9,0.5,1.8,0.8,2.7l14.3,8.3v0.2l3.5-0.1C270.4,478.6,270.4,478.5,270.4,478.5z
		 M269.7,476.8c-0.8-2-1.5-3.9-2-5.4c-1-3.1-2.7-8.2-4.7-14.1c0,0,0,0,0,0l-10.4,9.4L269.7,476.8z M246.2,406.6l-1.7,2.3
		c1.3,1,2.3,1.8,3.3,2.5C247.1,409.5,246.6,407.9,246.2,406.6z M245.3,403.7l-2.6,3.7c0.5,0.4,1,0.8,1.4,1.1l1.9-2.5
		C245.7,405.1,245.5,404.3,245.3,403.7z M241.6,408.9l-0.9,1.3c0.4,0.3,0.9,0.7,1.3,1l1-1.3C242.5,409.6,242.1,409.3,241.6,408.9z
		 M239.9,407.8c-1.6-1.1-3.4-2.4-5.5-3.9c0.2,0.6,0.3,1.3,0.5,2.1c1.3,0.9,2.7,1.9,4.1,3L239.9,407.8z M230,402.9l-4.4,4.1l2.3,1.7
		l2.8-2.7C230.4,404.6,230.2,403.6,230,402.9z M224.9,407.8l-2.1,2l2.3,1.7l2-1.9L224.9,407.8z M224.4,407.5l-6.8-5.1h0
		c0.2,1,0.4,2.4,0.7,4.2l3.9,2.9L224.4,407.5z M213.8,403.6l-6,4.3l1.5,1l4.8-3.5C214,404.7,213.9,404.1,213.8,403.6z M206.4,408.9
		l-0.9,0.7l1.5,1l0.9-0.7L206.4,408.9z M186.6,411.9l-8.2,5.1l0.2,0.3h3.2l0.3-0.3l0.2,0.3h3.9l0.5-0.5l0.4,0.5h3.4l0.8-0.7l0.6,0.7
		h1.3L186.6,411.9z M185.2,410.7l-2-1.6l-6.2,3.8c-0.2,0.9-0.4,1.9-0.6,3L185.2,410.7z M182.8,408.9l-4.4-3.5
		c-0.3,1.6-0.8,4-1.4,6.9L182.8,408.9z M174.2,406.6l-3.4,2.9l2.3,2.6C173.5,409.9,173.9,408.1,174.2,406.6z M169,410.9l-1.5,1.3
		l4.5,5.1c0.2-0.8,0.3-1.6,0.5-2.4L169,410.9z M167.4,412.2l-5.9,5h2.6l0.6-0.6l0.5,0.6h3.3l0.3-0.3l0.3,0.3h2.8L167.4,412.2z
		 M166.7,411.4l-1-1.2l-5.9,4.5c-0.2,0.6-0.3,1.2-0.5,1.8l-2.8,0.6l0.2,0.2h2.3L166.7,411.4z M164.7,409.2l-2.6-2.9
		c-0.5,1.7-1.1,3.9-1.8,6.3L164.7,409.2z M152.7,406.3l-2.2,1.4l0.9,1.6l2.2-1.4L152.7,406.3z M149.4,408.4L144,412
		c-0.3,0.9-0.6,1.8-0.9,2.7l7.4-4.7L149.4,408.4z M149.3,408.2l-2.6-4.4c-0.6,1.8-1.5,4.6-2.7,8L149.3,408.2z M109.7,513.1l7.9,7.9
		h3.1l-7.9-7.9H109.7z M119.9,537.2l4.7,0.1v-12.4h-3.1l-0.8,0.8l-0.8-0.8V537.2z M127,537.3l5.5,0.1v-12.5H127V537.3z M134.9,537.4
		l4.7,0.1v-12.6h-4.7V537.4z M141.9,537.5l5.5,0.1v-12.7h-5.5V537.5z M149.8,537.6l5.5,0.1v-12.8h-5.5V537.6z M157.7,537.7l4.7,0.1
		v-12.9h-4.7V537.7z M164.7,537.8l5.5,0.1v-13h-5.5V537.8z M172.6,537.9l4.7,0.1v-13.1h-4.7V537.9z M179.7,538l5.5,0.1v-13.2h-5.5
		V538z M187.5,538.1l4.7,0.1v-13.3h-4.7V538.1z M194.6,538.2l5.5,0.1v-13.4h-5.5V538.2z M202.4,538.3l5.5,0.1v-13.5h-5.5V538.3z
		 M210.3,538.4l4.7,0.1v-13.6h-4.7V538.4z M217.4,538.5l5.5,0.1v-13.7h-5.5V538.5z M225.2,538.6l4.7,0.1v-13.8h-4.7V538.6z
		 M232.3,538.7l5.5,0.1v-13.9h-5.5V538.7z M240.2,538.8l4.7,0.1v-14h-4.7V538.8z M247.2,538.9l5.5,0.1v-14.1h-5.5V538.9z M255.1,539
		l5.5,0.1v-14.2h-5.5V539z M263,539.1l4.7,0.1v-14.3h-1.2l-1.1,1.6l-2.4-1.3V539.1z M270,539.2l5.5,0.1v-14.4h-0.9l-1.5,1.6
		l-1.6-1.6H270V539.2z M277.9,539.3l4.7,0.1v-14.5h-4.7V539.3z M285,539.4l5.5,0.1v-14.6H285V539.4z M289,521
		c-0.7-1.5-1.8-4-3.2-7.1H285l-6.7,7.1H289z M243.8,402.3h-7.8c1.9,1.4,3.6,2.7,5.1,3.9L243.8,402.3z M229.8,402.3h-10.7l6.1,4.4
		L229.8,402.3z M212.5,402.3h-13.2l6.9,4.5L212.5,402.3z M186.3,407.2l-2.7,1.6l2,1.6l2.7-1.6L186.3,407.2z M186,407l-5.9-4.7h-2.9
		c0,0.1-0.1,0.3-0.1,0.4l1.8,0.4c0,0-0.1,0.6-0.4,1.8l4.8,3.8L186,407z M176,402.3l-0.2,0.2l1.2,0.2l0.1-0.4H176z M174.8,403.3
		l-5.7,4.3l1,1.2l4.2-3.2C174.5,404.6,174.7,403.8,174.8,403.3z M167.3,409l-1.6,1.2l1,1.2l1.6-1.2L167.3,409z M166.3,407.9l-3.6-4
		c-0.2,0.6-0.4,1.4-0.6,2.3l2.6,3L166.3,407.9z M157.7,402.3h-6.5l1.9,3.2L157.7,402.3z M150.3,402.3h-2.8l2.9,5.1l2.1-1.5
		L150.3,402.3z M107.9,513.1c-1.5,3.7-2.8,6.6-3.3,7.9H116l-7.9-7.9H107.9z M102.7,524.9h-5.5v12l5.5,0.1V524.9z M94.8,524.9h-5.5
		v11.9l5.5,0.1V524.9z M305.4,539.7v-14.8h-5.5v14.7L305.4,539.7z M313.2,524.9h-5.5v14.8l5.5,0.1V524.9z M292.8,524.9v14.6l4.7,0.1
		v-14.7H292.8z M181.3,402.3l5.4,4.3l7.3-4.3H181.3z M173.3,402.3h-8.9l3.7,4.1L173.3,402.3z M82.2,536.7l4.7,0.1v-11.9h-4.7V536.7z
		 M81.4,554.8l230.2,0.8l-1.6-3.9l-227.9-0.8L81.4,554.8z M209.5,64.4l7.1,4.7V66l-7.1-4.7h-25.1l-7.1,4.7v3.1l7.1-4.7H209.5z
		 M137.2,393.7l-0.8-3.1v-3.1l7.9-3.9l10.2-5.5h0.1l1.8-14.6l-0.3-0.3c0,0-0.8-0.8-0.8-1.6c0-0.8,0-0.8,0.8-1.6l0.9-0.7l2.4-18.8
		l-0.9-0.9c-0.8-0.8-0.8-2.4,0-2.4l1.4-1.2l1.7-13.7l0.5-4.2c-0.5-0.8-0.4-1.3,0.2-2l2.9-24.5c0-0.1,0-0.3,0-0.4l2.2-18.8l-0.4-0.4
		c-0.8,0-0.8-0.8-0.8-1.6s0-0.8,0.8-1.6l0.9-0.8l2.2-18.8c-0.8,0-0.8-0.8-0.8-1.6c0-0.8,0-0.8,0.8-1.6l0.4-0.4l1.9-17.1l-0.7-0.6
		c-0.8,0-0.8-0.8-0.8-1.6c0-0.8,0-0.8,0.8-1.6l1.3-1.2l1.4-12.9l-1.1-0.9c-0.8,0-0.8-0.8-0.8-1.6c0-0.8,0-0.8,0.8-1.6l1.8-1.6
		l1.6-14l-1-0.9c-0.8,0-0.8-0.8-0.8-1.6c0-0.8,0-0.8,0.8-1.6l1.6-1.4l0-0.2c0,0,0.3-3.8,0.8-9.4c0-0.1,0-0.1,0-0.1l0,0
		c0-0.3,0-0.6,0.1-0.9l-1.7-1.5c-0.8,0-0.8-0.8-0.8-1.6c0-0.8,0-0.8,0.8-1.6l2.2-2.2c0.2-2.8,0.5-5.8,0.7-8.8
		c-0.6-0.1-0.6-0.8-0.6-1.5c0-0.8,0-0.8,0.8-1.6l0.1-0.1c0.4-4.3,0.7-8.5,1.1-12.2l-1.2-1c-0.8,0-0.8-0.8-0.8-1.6s0-0.8,0.8-1.6
		l1.7-1.4c0.3-3.4,0.5-5.9,0.7-7.2c-0.8,0-0.8-0.8-0.8-1.6c0-0.8,0-0.8,0.8-1.6l0.3-0.2c0.1-1.6,0.2-3.5,0.4-5.7l-0.7-0.3
		c0-0.8,0-1.6,0-1.6c0-0.8,0-0.8,0.8-1.6l0.1-0.1c0.2-3.1,0.3-6.4,0.5-9.7l-0.6-0.5l0.6,0.4c0-0.9,0.1-1.7,0.1-2.5l-0.7,0.5
		c0,0,0,0,0,0.8c0,0,0,0,0,0.8c-0.8,0-0.8-0.8-0.8-1.6c0-0.8,0-0.8,0.8-1.6l0.8-0.7c0.1-2.2,0.2-4.2,0.3-6.2l-0.3-0.2
		c-0.8,0-0.8-0.8-0.8-1.6c0-0.8,0-0.8,0.8-1.6l0.5-0.4c0.2-4.5,0.3-7.5,0.3-7.5h0.6l0.2-0.3l0-5.6l-0.8,0.4c0,0-0.8-0.8-0.8-2.4
		c-0.8-1.6-0.8-2.4-1.6-3.9c0-1.6-1.6-3.1-1.6-3.1l0.8-0.8c0,0,0,0.8,0.8,1.6c0.8,0.8,1.6,3.1,1.6,3.1h0.8v-1.6h0.8v-7.9l0.8,14.1
		h4.7v-6.3c0,0,1.6,0.8,1.6,0v6.3h10.2v-5.5h1.6v5.5h4.7l0.8-14.1v7.9h0.8v1.6h0.8c0,0,0.8-2.4,1.6-3.1c0.8-0.8,0.8-1.6,0.8-1.6
		l0.8,0.8c0,0-1.6,1.6-1.6,3.1c-0.8,1.6-0.8,2.4-1.6,3.9c0,1.6-0.8,2.4-0.8,2.4v5.5h-0.7c0,0.2,0,0.4,0,0.7l0.7,0.9l-0.6,0.5
		c0.1,1.3,0.1,2.9,0.2,4.7l0.4,0.3c0,0.8,0,0.8,0,0.8l-0.4-0.3c0,0.4,0,0.9,0.1,1.4l0.3-0.3c0,0,0,0,0-0.8v0l0,0
		c0.8,0,0.8,0.8,0.8,1.6c0,0.8,0,0.8-0.8,1.6l-0.2,0.2c0.1,2.4,0.2,5,0.4,7.7c0.6,0.1,0.6,0.8,0.6,1.6c0,0.7,0,0.8-0.5,1.3
		c0.1,2.5,0.3,4.9,0.4,7.3l0.1,0.1c0.8,0,0.8,0.8,0.8,1.6c0,0.8,0,0.8-0.7,1.5c0.2,3.6,0.4,6.6,0.6,8.7l0.9,0.8
		c0.8,0,0.8,0.8,0.8,1.6c0,0.8,0,0.8-0.8,1.6l-0.5,0.4c0.2,1.7,0.4,4,0.6,6.7c0.7,0.1,0.7,0.8,0.7,1.6c0,0.6,0,0.8-0.4,1.2
		c0.3,3.2,0.6,6.7,0.9,10.3l0.3,0.3c0,0.8,0,0.8,0,0.8c0,0.8,0,0.8,0,0.8l-0.2,0.1c0,0.5,0.1,1,0.1,1.5l0.8,0.7
		c0.8,0,0.8,0.8,0.8,1.6s0,0.8-0.8,1.6l-0.4,0.4c0.4,4.2,0.7,8.4,1,12l0.2,0.2c0,0,0.8,0.8,0.8,1.6c0,0.8,0,0.8-0.7,1.5
		c0.2,2.6,0.4,4.8,0.5,6.3h0.2v1.6h-0.1c0,0.5,0.1,0.8,0.1,0.8l0.4,3.6l0.4,0.3c0.8,0,0.8,0.8,0.8,1.6s0,0.8-0.8,1.6l0,0l1.7,15.1
		l0.7,0.6c0.8,0,0.8,0.8,0.8,1.6c0,0.8,0,0.8-0.8,1.6l-0.2,0.2l1.6,14.7h0.2v1.6l2.3,20.4h0.1v0.8l0,0l8.6,73.1l7.1,56.6l0.8,0.8
		v0.8l10.2,4.7l-0.6,0.1l8.4,4.6l-0.8,6.3L248,389h-12.6l0,0l0,0h-20.4l-0.9,0.8l-0.8-0.8h-2.6l-0.5,0.8l-1.1-0.8H185l-2.2,1.6
		l-1.2-1.6h-3.5l-1.6,1.6l-1.6-1.6h-29.1l-7.1,3.9L137.2,393.7z M167.1,374l-1.1,0.5l-6.2-6.2c-0.5,5.1-1,8.5-1.3,9.8l7.5-3.6
		l1.8,1.8l1.6-0.8l3.2,3.2l-0.9,0.7l3.9,3.9h1.6l-4.6-4.6l0.9-0.7l5.3,5.3h0.1c0.2-1.6,0.7-5.4,1.4-10.6l-6.8,5.3l-3.3-3.3l10.9-8.4
		c0.1-0.4,0.1-0.9,0.2-1.3l-11.9,8.9l-7.9-7.9H160c0,0.2,0,0.5-0.1,0.7L167.1,374z M182.8,338.7h-18.1v1.9l7.1,8.4l11.8-9.4
		C183.4,339.2,183.1,339,182.8,338.7z M172.1,328l1.3-1.1l0.8,0.8c3.4,3.4,7.4,7.4,9.4,9.4h1.5c0,0,0-0.1,0-0.1
		c-3.6-3.6-7.2-7.2-10.1-10.1l-0.8-0.8l9.9-8.8l-10.7,8c-3.4-3.4-5.5-5.5-6.8-7.1h-1.1c0,0.8,0,1.5,0,2.3c0.5,0.5,1,1,1.6,1.6
		c1.6,1.6,3.1,3.1,4.7,5.5L172.1,328z M178.1,304.9l-0.8,0.8c-3.9,3.6-6.6,6.1-8.7,7.9h0.2c2.5-2.2,6.3-5.4,10-8.6l0.4-0.4l-0.4-0.4
		l12-10.5c0-0.3,0.1-0.7,0.1-1c-3.1,1.7-7.6,5.5-12,9.9c-3.2-3.2-7-7.5-8.6-9.8v1.9h-0.9c1.4,1.8,3.9,4.6,8,9.4L178.1,304.9z
		 M179.7,280.5l-0.8,0.8c-3.8,3.3-6.7,6-8.6,7.9c0.5,0,1,0,1.6,0c2.2-2,5.6-4.9,8.5-7.9l0.8-0.8l9.3,8.6c0,0,0,0,0.1,0l-9.4-8.6
		l0.8-0.8c6.3-5.5,9.4-8.6,11-10.2h-2c-2.6,2.2-6.3,5.8-10.6,9.4l-7.7-7.1h-2.5L179.7,280.5z M184.4,221.6l-2.9,1.3l-1.8,1.8h12.2
		l-6.7-5.5l-1.6,1.6L184.4,221.6z M175.8,226.3h-0.9v0L175.8,226.3L175.8,226.3z M177.3,227.1l7.9,7.1l8.6-7.9h-15.7L177.3,227.1z
		 M176.5,229.9l7.1,6l2.5,0l-0.1-0.1l9.5-8.2l0-1.3h-0.1l-10.2,9.4l-8.6-7.3V229.9z M176.1,214.5h0.5l-0.4-0.4
		C176.1,214.3,176.1,214.4,176.1,214.5z M179.3,214.5h5.7l-6.1-5v1.9h-2.3l-0.1,0.1c0,0.3-0.1,0.5-0.1,0.8L179.3,214.5z
		 M182.3,181.1l0.5,0.4h6.3l-0.9-0.8l7.2-6.6l0-0.9l-8,6.7l-5.5-5v1h-1.6c-0.1,0.3-0.1,0.7-0.2,1l3.3,2.9L182.3,181.1l-2.4-1.9
		c-0.1,0.8-0.2,1.6-0.3,2.4h2.1L182.3,181.1z M189.9,160.3l3.9-3.9l-3.9-3.9l-5.5,5.5l2.4,2.4H189.9z M183.6,160.3h1.1l-1.1-1V160.3
		z M191.4,160.3h1.1l3-2.7l0-3.4l-3.3-3.3h-2.4h-2.4l1.1,1.1l1.2-1.1l5.5,5.5L191.4,160.3z M182.8,149.3h3.1l-2.4-2.4h-0.8
		C182.8,147.8,182.8,148.6,182.8,149.3z M191.1,128.1l-2-1.6l-1.6,1.6H191.1z M185.9,129.7l3.1,3.1l3.9-3.1H185.9z M184.4,133.6
		l3.4,3.4l1.3-1l3.1,3.1h2l-4.4-3.9l5.7-4.3l0-1.2h-0.2l-6.3,4.7l-3.9-3.4v2.6H184.4z M194.6,95.9l-3.1-2.4l-2.9,2.4H194.6z
		 M188.6,97.4l2.1,1.6l2-1.6H188.6z M198.8,92.1l1.3-1l-1.3-1L198.8,92.1z M195.7,90.1l-1.1,1.1l1.1,1.1L195.7,90.1z M206.4,95.1
		l-3.1-2.4l-3.1,3.1h5.5L206.4,95.1z M202.2,97.4l1,0.8l0.8-0.8H202.2z M198.8,103.5l2.1-2.1l-2.1-2.1L198.8,103.5z M195.6,99.9
		l-1.8,1.5l1.8,1.5L195.6,99.9z M207.6,108.4l-4.4,3.1l-4.4-3.1h-0.1l0,1l3.7,3.7l-3.7,2.6l0,1.2l4.5-3.8l4.6,3.9h0.9v-0.8h0.8
		c0-0.2,0-0.3,0-0.5l-5.5-3.4l3.9-3.4v-0.5H207.6z M207,129.7h-7.7l5.5,3.9l3.1-3.1L207,129.7z M202.9,140.7l-2.8,2.4l3.1,3.1l2-2
		l-0.4-0.4l2.7-2.7l-0.6-0.4H202.9z M210.3,145.4v-0.8l-2.2,2.2l-1.8-1.6l-2.3,2.6l-5.3-4.5l0,1.5l4.5,3.9l-0.9,0.8h4.9l-0.9-0.8
		l1.7-1.7l2.7,2.5h1.1c0-0.8,0-2.4,0-3.9H210.3z M203.2,179.9l-4.6-4.6l0,6.1h3L203.2,179.9z M212.1,183.1h-4l5.3,4.9V187h1.6
		c-0.1-0.5-0.2-1-0.2-1.5L212.1,183.1z M216.2,194.1h-2.3l-3.7,3.4l-2.4-2.1l-1.3,1.1l-7.7,7.1h1.7l6.1-5.5l6.4,5.5h3.2l-6.5-5.5
		l0.6-0.6l7,6C216.7,200.2,216.6,197,216.2,194.1z M190.7,192.5l3.1-3.1l-6.3-6.3l-1.2,1.2l0.4,0.4l-5.4,4.9l3,3H190.7z
		 M185.9,194.1l1.6,1.6l1.6-1.6H185.9z M191.6,181.5h4l0-5.1l-4.9,4.3L191.6,181.5z M193.4,183.1l2.2,1.9l0-1.9H193.4z M206.4,194.9
		l0.8-0.8h-1.7L206.4,194.9z M199.6,194.1h-1l0,7.7l4.6-4.6L199.6,194.1z M200.1,205.1l-0.8,0.8l7.9,7.9l7.1-6.3l-2.6-2.4H200.1z
		 M209.9,203.5l-4.3-3.9l-3.9,3.9H209.9z M215.8,205.1h-1.2l1.2,1V205.1z M190.9,183.1h-1.7l6.3,5.7l0-1.5L190.9,183.1z
		 M192.7,192.5h1.6l1.2-1.1l0-1.4L192.7,192.5z M194.6,194.1l-3.9,3.9l4.8,4.2l0-8.2H194.6z M195.5,209.6l-5.5,5h5.4L195.5,209.6z
		 M198.6,214.5h4.6l-4.6-4.6L198.6,214.5z M198.6,216.1l0,5.6l6.2-5.6H198.6z M204.6,214.5h2.5l-8.5-7.8l0,2.3L204.6,214.5z
		 M206.4,183.1l-6.3,6.3l3.6,3.1h5.1l3.9-3.9L206.4,183.1z M204.6,183.1h-2.2l-3.8,3.8l0,1.7L204.6,183.1z M200.1,183.1h-1.4l0,1.4
		L200.1,183.1z M201,172.9l5.4,4.7l4.7-4.7H201z M209.5,171.3l-3.9-3.9l-4.6,3.9H209.5z M208.7,165l1.7-1.5l2.4,2.4
		c-0.1-1.4-0.2-2.8-0.2-4.1h-0.3l-1.9,1.7l-1.7-1.7h-0.1l-3,2.4l-6.9,6.2l0,0.9h0.8l6.1-5.5l5.5,5.5h0.8v-0.8h1.6
		c-0.1-0.3-0.1-0.6-0.2-1L208.7,165z M183.6,143h0.2l-0.2-0.2C183.6,142.9,183.6,143,183.6,143z M187.9,139.1h2.1l-0.9-0.8
		L187.9,139.1z M184.4,141.4l5.5,5.5l4.7-3.9l-2.8-2.4h-6.3L184.4,141.4z M195.6,142.4l0-1.8h-1.8L195.6,142.4z M200.9,147.7
		l-2.2-1.6l0,3.2h0.6L200.9,147.7z M198.7,152.5l0,2.1l3.7-3.7h-1.9L198.7,152.5z M195.6,147.2l-2.6,2.1h2.6L195.6,147.2z
		 M194.6,150.9l1,1l0-1H194.6z M198.7,161.9l0,6.4l3.8-3.2l-3.1-3.1H198.7z M212.7,155.4c0-0.4,0-0.8-0.1-1.2l-3.6-3.3h-4.9l2.3,2.1
		l-2.4-2.1l-4.7,4.7l5.3,4.7h2.6l3.7-3.3l0.2,0.2l0.1-0.1l-0.2-0.2l0.2-0.2v-1.2h1.4L212.7,155.4z M200.9,140.7h-1.6l-0.6,0.6l0,1.6
		L200.9,140.7z M198.7,139l3.7-3.1l-3.7-2.7L198.7,139z M195.6,132.9l-3.4,2.2l3.4,2.9L195.6,132.9z M205.1,128.1l-1.9-1.6l-2,1.6
		H205.1z M209.5,129.7h-1l1,0.9V129.7z M210.2,128.1l-6.2-5.5l4.7-3.5v-0.4h-0.9l-4.6,3.9l-4.5-3.8l0,2.1l2.9,2.5l-2.9,2.9l0,1.8
		h0.3l4.2-3.1l3.5,3.1h2.8H210.2z M200.1,124.2l-1.3-1.7l0,2.8L200.1,124.2z M206.2,117.1l-2.9-2.4l-2.4,2.4H206.2z M201.1,118.7
		l2.9,2.4l2.4-2.4H201.1z M200.1,112.4l-1.3-1l0,2.3L200.1,112.4z M205.2,108.4h-4.1l2.1,1.6L205.2,108.4z M207.2,106.9l-3.1-2.4
		l-2.9,2.4H207.2z M195.6,111.3l-1.8,1.8l1.8,1.4L195.6,111.3z M195.6,121.3l-3.4,2.8l3.4,2.7L195.6,121.3z M184.1,146.9l2.7,2.4
		h3.9l4.9-3.8l0-2l-5.7,5l-5.5-5v3.4H184.1z M194.6,160.3h1l0-1L194.6,160.3z M193,161.9l-2.4,2.4l4.9,4.3l0-6.6H193z M194.5,171.3
		l-5.4-4.7l-5.3,4.7H194.5z M182,172.9l6.3,5.5l6.2-5.5H182z M184.8,183.1l0.5,0.4l0.5-0.4H184.8z M180.4,190.8v1.7h1.9L180.4,190.8
		z M177.8,202.6l4.7-4.4l2.8,2.6l2.1-1.9l4.7,4.7h3.1l-6.3-6.3l3.5-3.1H191l-3.5,3.1l-3.5-3.1h-4l3.5,3.1l-1,0.9l-3.9-3.6
		C178.3,197.1,178.1,199.8,177.8,202.6z M179.8,208.4l6.1,5.4l8.6-7.9l-0.9-0.8h-10.3L179.8,208.4z M191.9,203.5l-3.6-3.1l-1.7,1.5
		l0.1,0.1l-1.7,1.6H191.9z M186.8,214.5h2.5l6.2-5.7l0-3.7h-1.7l1.6,1.6L186.8,214.5z M188.3,216.1l7.2,5.9l0-5.9H188.3z
		 M200.1,226.3l8.6,7.1l7.9-7.1H200.1z M214.9,224.7l-6.9-6.3l-6.3,6.3H214.9z M220.5,237.1l-7.9,0.1l7.6,7l-8.1-7l-2.5,0l10.1,8.1
		v-0.2h1.5l-1-0.9l1.1,0.9C220.9,242.5,220.7,239.8,220.5,237.1z M205.5,290.7l-0.7,0.8l7.9,7.1l2.4,1.6l8.6-8.6l-0.9-0.8
		C218.9,290.7,212.5,290.7,205.5,290.7z M221.1,289.2l-7.7-7.1l-6.5,7.1C211.9,289.2,216.8,289.2,221.1,289.2z M224.5,290.7
		c-0.1,0-0.1,0-0.2,0l0.2,0.2V290.7z M226.8,316.7v-1.6c-3.1,3.1-6.3,7.1-9.4,10.2l-11.3-9.8c0.1,0.5,0.1,1.1,0.2,1.6l10.3,8.9
		l-0.8,0.8c-3.1,3.7-5.7,7-7.4,9.3c0,0.1,0,0.2,0,0.3c1.9-2.3,5.1-6.5,8.2-9.6l0.8-0.8l2.9,2.5c-0.2,0.2-0.3,0.4-0.5,0.6l9,7.9h0.4
		v-0.7l-8.9-7.8c0.1-0.1,0.2-0.3,0.3-0.4l8.6,7.6v-1.1h0.8c0-5-0.7-10.8-0.8-16.5c0,0,0,0,0,0c-2.9,2.9-5.7,6.4-8.6,10l-2.4-2.1
		l0.8-0.8C221.3,322.3,224.2,319.3,226.8,316.7L226.8,316.7z M231.5,362c-2.9-2.3-6.6-5.3-10.2-8.4l-7.9,8.6h18.1V362z M215.4,363.8
		l9.8,7.9l7.8-7.1h-1.5v-0.8H215.4z M233.1,359.1c-0.6-4.4-1.2-9.7-1.9-15.2l-7.1,8.3c-0.7-0.6-1.4-1.1-2-1.7h-0.8l9.4-10.9
		c0,0,0-0.1,0-0.1h-1.6v-0.8h-0.4l-8.3,11c-4.1-3.4-9.4-7.4-11.7-9.4c0,0.3,0.1,0.6,0.1,0.9c1.8,1.6,5,4,10.8,8.6l0.8,0.8l-9.5,10.2
		c0,0.3,0.1,0.6,0.1,0.8c0,0.3,0.1,0.5,0.1,0.8h0.7l9.4-11l0.8,0.8c0.4,0.4,0.8,0.7,1.2,1l-0.5,0.5c2.9,2.4,5.8,4.8,8.6,7.2v-1.1
		c-2.3-1.9-5.2-4.1-8.2-6.6l0.8-0.9C227,354.5,230.1,356.8,233.1,359.1z M191.8,377.2l5.1-3.9l13.4,9.4l0.7-0.7c0,0,0-0.1,0-0.1
		l-13.3-8.6l10.6-7.9c0-0.2-0.1-0.4-0.1-0.6l-11.3,7.7l-12-8.3c-0.1,0.4-0.1,0.8-0.2,1.2l11.4,7.9l-4.9,3.5l-7.4-5.1
		c-0.8,5.5-1.4,9.7-1.6,11.8h1.4h2.1l7.3-5.5L191.8,377.2z M167.9,317.9c1.1,1.5,3.1,3.4,5.5,5.9l10-8.6H169c-0.4,0.4-0.8,0.7-1.1,1
		V317.9z M189.8,291.4c-2.4,0.1-4.7,0.1-7,0.1c-2.4,0-3.9,0-6.3,0c-2.6,0-4.2,0-5.5,0c0.8,1.6,3.9,4.7,7.9,9.4
		c3.9-3.9,8.6-7.9,11-9.4L189.8,291.4z M187.3,289.2l-6.9-6.3c-2.6,2.1-5.1,4.4-7,6.3C176.9,289.2,181.8,289.2,187.3,289.2z
		 M191.5,286.8c0.4-4.8,0.9-10,1.4-15c-2.2,1.7-5.2,4.5-9.3,8L191.5,286.8L191.5,286.8z M173.4,271.1l7.1,7.1
		c3.2-3.2,6.8-6.3,9.3-8.6h-16.3l-0.1,0.1V271.1z M191.4,268c-1.6-1.6-3.9-3.9-7.9-7.1l-8.3,7.1H191.4z M175.7,248.3
		c1.7,1.7,4.5,4.4,7.9,7.1l8.4-7.1H175.7z M193.8,246.7l-8.6-7.1l-9.2,7.1H193.8z M195.4,246l-0.8,0.8h0.8
		C195.3,246.2,195.4,246,195.4,246l0.1-0.6l0-1.5l-7.6-6.5l-2.5,0L195.4,246z M223,258.5h-10.1l8.4,7.3v-0.2h2.4
		C223.3,263.2,223.1,260.9,223,258.5z M221.3,268v-2l-8.6-7.4l0,0h-2.4h-3.1h-7.3c0.2,2,0.5,4.2,0.7,6.6l6.6-6.6l-6.6,6.6
		c0.1,0.9,0.2,1.9,0.3,2.8l9.4-9.4l10.9,9.4H221.3z M201.2,295.2c-0.1-0.6-0.1-1.3-0.2-1.9l-4,6l-2.8-5.5c-0.1,0.8-0.3,1.6-0.4,2.4
		c0,0.2,0,0.4-0.1,0.7l2.4,4l-3.7,6.9c-0.1,0.7-0.2,1.5-0.3,2.3l4.7-8.4l6,11.2c-0.1-1.3-0.3-2.7-0.4-4l-4.8-8L201.2,295.2z
		 M199.3,301l3,5.6c-0.3-3.1-0.6-6.1-0.9-9.2L199.3,301z M208.5,367.2l-8.5,6l10.7,7.4C210.1,376.8,209.2,371.7,208.5,367.2z
		 M186.7,363.8l11,7.1l9.2-7.1H186.7z M207.2,362.2l-9.5-10.2l-9.5,10.2H207.2z M210.9,359.2l7.3-8c-4.2-3.2-7-5.3-8.9-6.8
		C210,351.1,210.5,356.3,210.9,359.2z M206,343.6l-6.7,6l8.2,8.9C207.2,355.2,206.7,350,206,343.6z M227.5,337.1l-10.1-8.6
		c-2.9,4.1-4.9,6.8-6.4,8.6H227.5z M209.5,338.7c1.6,1.6,5.5,4.7,11,8.6l7.2-8.6H209.5z M208.2,335.1c1.5-1.8,3.7-4.5,6.8-8.3
		l-8.5-7.2C207.1,325.1,207.7,330.3,208.2,335.1z M203.6,319.8l-4.3,5.6l5.7,7.9C204.5,329,204.1,324.4,203.6,319.8z M203.2,315.1
		h-0.9l-5.3,8.6l-5.5-7.4c-0.1,0.7-0.2,1.4-0.3,2.1l4.2,6.1l-6.2,8.8c-0.1,0.9-0.2,1.7-0.3,2.6l7.3-9.8l7.8,11h1.4
		c-0.1-0.6-0.1-1.2-0.2-1.9l-7.4-9.9l5.7-7.6C203.3,316.9,203.2,316,203.2,315.1z M204.2,338.7h-15.1l7.9,8.6l7.9-7.9L204.2,338.7z
		 M203,337.1l-6-7.9l-6.5,7.9H203z M202.4,313.5l-5.5-9.4l-5.1,9.4H202.4z M192.1,315.1l4.9,6.3l4.9-6.3H192.1z M189.5,331l5.1-6.5
		l-3.6-4.9C190.5,323.3,190,327.1,189.5,331z M194.6,301l-1.1-1.9c-0.1,1.4-0.3,2.9-0.5,4.7L194.6,301z M196.9,271.1L196.9,271.1
		l0.6-1.6h-0.5C197,270,197,270.6,196.9,271.1z M198.2,268l0.1-0.4c-0.2-2.1-0.4-4.1-0.6-5.9c-0.1,2-0.3,4.1-0.5,6.3H198.2z
		 M199.8,290.7c-0.7,0-1.4,0-2.1,0c-1.1,0.2-2.1,0.3-3.1,0.4c0,0,0,0,0,0c0,0.1,0,0.2,0,0.4l2.4,4.7l3.1-4.7L199.8,290.7z
		 M199.2,289.2l-2.3-6.3l-1.9,6.3C196.4,289.2,197.8,289.2,199.2,289.2z M198.9,272.8c-0.1-1.1-0.2-2.2-0.3-3.2h-0.1l-1.5,3.9
		l-0.2-0.3c-0.4,3.6-0.8,7.3-1.2,10.8l1.4-4.2l3.5,9.4c0,0,0,0,0.1,0c-0.2-2-0.4-4-0.6-5.9l-2.2-6.7L198.9,272.8z M198.5,276.6
		l1.1,3c-0.2-1.7-0.3-3.3-0.5-4.9L198.5,276.6z M200.4,248.3h-0.6l8.1,6.6L200.4,248.3z M210.3,254.6l6.3-6.3h-13.7L210.3,254.6z
		 M198.6,246.7L198.6,246.7L198.6,246.7C198.6,246.7,198.6,246.7,198.6,246.7z M199.7,257h5.6l-6.2-5.2
		C199.3,253.2,199.5,255,199.7,257z M222.9,257c-0.2-2.6-0.4-5.2-0.8-7.9l0,0l-7.9,7.9H222.9z M219.7,248.3L219.7,248.3l-1.4,0
		l-8,8.6l-0.8-0.7l-0.7,0.7h1.6h0.8L219.7,248.3z M218.2,246.7l-9.4-7.9l-8.6,7.1l0.9,0.8H218.2z M206.2,237.2l-7.6,6.5l0,1.5l9.3-8
		L206.2,237.2z M203.9,237.3l-5.3,0l0,4.8L203.9,237.3z M205.5,235.7l-6.9-5.7l0,5.7L205.5,235.7z M195.5,230l-6.4,5.8l6.4,0
		L195.5,230z M189.4,237.4l6.1,5l0-5L189.4,237.4z M194.8,251.9l-5.5,5.1h5C194.5,255.1,194.7,253.4,194.8,251.9z M184.4,258.5
		c3.1,3.1,7.1,6.3,8.6,7.9l0.3,0.3c0-0.4,0.1-0.8,0.1-1.2c-0.9-0.9-2.6-2.5-5.5-5.2c2.6,2,4.4,3.4,5.6,4.4c0.2-2.2,0.4-4.3,0.6-6.2
		h-6.6l-0.8,0.7c-0.2-0.2-0.5-0.5-0.8-0.7H184.4z M193,268h0.2c0-0.1,0-0.2,0-0.3L193,268L193,268z M190.6,296.2l-9.3,7.9
		c2.4,2.4,4.7,5.5,7.1,7.9l0.2-0.3C189.3,305.2,190.1,299.8,190.6,296.2z M178.9,306.5c-3.3,2.4-6,5-8.2,7.1h14.5
		C183.6,312,181.2,309.6,178.9,306.5z M187.9,316.3l-11.3,9.8c2.9,2.9,5.9,5.9,8.8,8.8C186.2,328.5,187.1,322.1,187.9,316.3z
		 M188.2,340.2c-0.1,0.5-0.1,0.9-0.2,1.4l8.1,8.1l-10.8,11.5c-0.1,0.4-0.1,0.7-0.2,1.1h0.7l11.1-11.8l11,11.7c0-0.4-0.1-1-0.2-1.8
		l-10-10.7l8-8.7c-0.1-0.8-0.2-1.5-0.2-2.3H205l0.6,0.8l-8.6,9.4L188.2,340.2z M187.9,342.4c-0.8,5.9-1.6,11.6-2.3,17l9-9.6
		L187.9,342.4z M214.2,380.6l7.9-6.6l-10.5-8.2C212.3,370.7,213.4,376.7,214.2,380.6z M208,315.1l9.4,8.6c2.2-2.2,4.4-5.1,7.2-8.6
		H208z M224.3,313.5l-9.3-7.9l-7.1,7.9H224.3z M205.5,310.4l6.3-6.3l-2.4-1.6l-5.4-5.4C204.6,301.5,205.1,306,205.5,310.4z
		 M203.5,292l1.2-1.3c-0.4,0-0.9,0-1.3,0C203.4,291.2,203.5,291.6,203.5,292z M203,287l6.5-7.3l-8.2-7.5
		C201.9,276.9,202.4,281.8,203,287z M202.4,268h17.3l-9.4-8.6L202.4,268z M204.2,269.5l7.7,7.1l6.4-7.1H204.2z M220.4,235.6
		c-0.2-2.1-0.4-4.2-0.7-6.1h-0.1l-6.8,6.2L220.4,235.6z M218.2,226.3h-0.9l0.9,0.8l-9.4,7.9l-10.1-8l0,0.7l9.3,7.9l2.5,0l-0.8-0.7
		l8.6-7.3v-0.5V226.3z M183.3,237.4l-9.9,8.6c0,0.2-0.1,0.4-0.1,0.7h0.1L183.3,237.4L183.3,237.4z M173.4,250.7
		c2.2,2.1,4.7,4.2,6.9,6.3h3.2h0.8l9.9-8.6h-1.4l-9.3,8.6c-3.2-3.2-6.3-5.8-8.6-7.5v1.2H173.4z M182,258.5l0.3,0.3l0.4-0.3H182z
		 M175.3,265l-2.8,2.1h0.4L175.3,265z M165.2,337.1h16.1c-1.9-1.9-4.5-4.5-7.1-7.1L165.2,337.1z M184.3,343l-10.1,8.2l7.9,8.6
		C182.8,354.6,183.5,348.9,184.3,343z M181.5,363.8h-0.2l0.2,0.2C181.5,364,181.5,363.9,181.5,363.8z M179.8,363.8h-17.4v0.8
		l7.9,7.9l10.2-7.9L179.8,363.8z M178.4,362.2l-7.4-8.6l-9,7.1h0.4v1.6H178.4z M153.1,383.5l2.7-1.3l-4.2,1.3H153.1z M157.3,378.8
		h-0.1l-0.5,0.3L157.3,378.8z M169.4,383.5l-1.6-1.6l-6,1.6H169.4z M201.4,383.5l-4.5-3.1l-4.4,3.1H201.4z M228.5,383.5l-4-3.1
		l-3.4,3.1H228.5z M235.5,377.2c0,0-0.4-2.4-0.9-6.5l-5.7,4.8l-2.8-2.2l8-6.9c0-0.2,0-0.4-0.1-0.6l-8.8,7.5l-11.5-9.4h-1.7l12.3,9.4
		l-10.1,8.5c0,0.1,0,0.2,0.1,0.3l0.6,0.6l10.2-8.6l2.7,2.2l-1.2,1l8,6.3h5.7L235.5,377.2z M228.4,311.2c-0.7-4.8-1.4-10.2-1.5-15.8
		c0,0,0,0,0,0l-8.4,9.1l-2.6-2l9.4-9.4h-0.1l-10.2,9.4l-3.1-2.4l-8.3-7.5c0.1,0.6,0.1,1.1,0.2,1.7l7.3,6.7l3.1,2.4l-8.5,8.5
		c0.1,0.6,0.1,1.1,0.2,1.7h0.4l8.7-9.4l11.6,9.4h0.2v-0.3l-9.4-7.5l1.1-1.1l8.7,6.6H228.4z M226,287.6c-0.8-5.5-1.6-11.8-1.6-17.3
		h-0.1c-0.1,0.2-0.3,0.4-0.7,0.8l-8.5,10l-1.8-1.3l8.1-9.4h-0.2v-0.7l-8.6,9.4l-10.1-9.4h-1.5c0,0,0,0.1,0,0.1l10.8,10.1l-8.1,9.4
		c0.8,0,1.6,0,2.4,0l7.3-7.9l9,7.9c0.3,0,0.7,0,1,0l-8.4-7.9l0.2-0.2l9.2,7.1v-0.6H226z M219.7,224.7c-0.5-2.7-0.6-5.7-0.9-8.6h-6.8
		l-0.9,0.7l-0.8-0.7h-4.1l0.9,0.8l-8.6,7.2l0,0.6h1l8.4-7.1l7.7,7.1h2.6H219.7l-8.6-7.9l0.1-0.1L219.7,224.7L219.7,224.7z
		 M218.3,211l-4.4,3.6h4.8C218.6,213.3,218.5,212.1,218.3,211z M215.9,192.3l-0.3,0.2h0.3C215.9,192.4,215.9,192.4,215.9,192.3z
		 M214.3,181.5c-0.2-1.6-0.3-3.1-0.5-4.6l-2.9,2.6l-2-1.8l-2.5,2.3l-7.7-6.3l0,0.6l6.9,5.7l-1.6,1.6h6.4l-0.9-0.8l1.4-1.2l2.2,2
		H214.3z M210.6,133.7l-2.2,1.9l-2.8,0.3l3.9-3.9v-0.2l-4.7,3.4l-6.1-4.2l0,1.3l5.3,3.7l-3.1,3.1h1.6l2.4-2.4l3.3,2.4h1.4v0l1.3-1.3
		l0.2,0.2c0-0.1,0-0.3,0-0.4l-0.2,0.2l-2.8-1.9l0.4-0.3l2.4-0.3C210.8,134.8,210.7,134.3,210.6,133.7z M210.3,126.8
		c0-2-0.1-4.3-0.7-6.2l-3.3,2.7L210.3,126.8z M209.5,115c0-1.7,0-3.4,0-5.1l-3.1,2.5L209.5,115z M208.7,99.5l-2.6,2.2l-1.3-1.1
		l3.7-3.1h-1.3h-0.3l-3.7,3.1l-3.7-3.1h-0.8l0,1.6l3.7,3.1l-3.7,3.2l0,1.5l4.5-3.8l4.6,3.9h0.1v-2.4h0.5l-2.8-2.4l0.5-0.4l2.6,2.2
		C208.7,102.2,208.7,100.8,208.7,99.5z M185.9,85.9l0.8-1l4.7,3.9l4.7-3.1c0.8-0.8,1.6-0.8,2.4,0l3.5,2.9l-4.3-2.2h-0.8l-5.5,3.9
		l-4.7-3.9l-0.8,0.8v0v0l3.9,3.9l-3.9,2.9v1h0.8v0.8h0.1l4.6-3.9l4.2,3.5l0-1.4l-3.4-2.8l3.4-2.8l0-0.8l1,0l0.3-0.3l0.4,0.3l1.5,0
		l0,1.1l3.7,2.6l-3.7,2.6l0,1.3l4.4-3.2l3.9,2.8v-1.2h0.8v-0.3l-1.6-1.3l0.3-0.2l1.3,0.9v-1.9l-1.3,1l-1.9-1.3l3.1-2.6v-1.4
		l-3.9,3.3l-0.5-0.2l4.4-3.7l0,0h0.8l0,0l0,0v-3.1h-22.8V85.9z M185.9,93.1l2.4-2l-2.4-1.9V93.1z M183.9,97.7c0-0.7,0.1-1.5,0.1-2.2
		l-0.4,0.3c0,0,0,0,0,0.8c0,0,0,0,0,0.8L183.9,97.7z M185.9,102.7l1.6-1.3l-1.6-1.3C185.9,100.9,185.9,101.7,185.9,102.7z
		 M185.9,104.5c0,0.3,0,0.5,0,0.8h0.3l3.7-3.1l5.5,4.7h0.3l0-1.1l-4.2-3.6l4.2-3.6l0-1.1h-1.3l-3.7,3.1l-3.8-3.1h-0.2v0.8h-0.8
		c0,0.4,0,0.8,0,1.2l3.1,2.7L185.9,104.5z M192.8,106.9l-2.9-2.4l-3.1,2.4H192.8z M188.3,108.4l2.4,2.4l2.4-2.4H188.3z M185.2,110.3
		l4.7,3.7l-3.5,3.1h1.2l3.1-3.1l3.8,3.1h1.2l0-1.1l-3.4-2.8l3.4-2.9l0-1.8H194l-3.4,3.9l-3.9-3.4v0.3h-1.6
		C185.2,109.6,185.2,109.9,185.2,110.3z M186.7,119.4l2.4,2.4l3.8-3.1h-5.2L186.7,119.4z M193,117.1l-1.6-1.6l-1.9,1.6H193z
		 M185.2,110.5c0,1.9,0,3.9,0,5.8l3.1-3.1L185.2,110.5z M184.4,126.1l2.1-1.7l1.8,1.3l0.9-0.7l4.2,3.1h1.8l-5.2-3.9l5.7-5l0-0.5
		h-1.1l-5.4,4.7l-4.1-2.7c-0.2,0.8-0.4,1.6-0.5,2.4l0.1,0l-0.1,0C184.5,124.1,184.4,125.1,184.4,126.1z M183.9,136.2l1.2-1l-0.9-1.1
		C184.2,134.8,184,135.5,183.9,136.2z M182.3,153.7l2.8-2.8h-2.4v0C182.8,151.3,182.5,152.3,182.3,153.7z M182,165.1l1-1l2.9,2.6
		l2.4-2.4l7.2,6.6l0-1.5l-6.5-5.9l1.7-1.6h-1l-1.6,1.6l-1.8-1.6h-3.3l1.2,0.8l-1.4,1.4l-1-0.8C182,163.8,182,164.4,182,165.1z
		 M179.5,183.6l0.6-0.5h-0.5C179.5,183.3,179.5,183.4,179.5,183.6z M175.5,221.3l4.3-3.9l2.8,2.6l2.5-2.3l8.4,7.1h1.9l0-0.5
		l-8.7-7.4l0.9-0.8h-6.4l-1.4,1.3l-1.5-1.3H176C175.8,217.8,175.7,219.6,175.5,221.3z M175.6,231h-0.6c-0.3,1.6-0.4,3.2-0.6,4.9
		l6.7-0.1l0.1-0.1L175.6,231z M173.8,242.6l5.5-5.1l-5.1,0C174.1,239.2,174,240.9,173.8,242.6z M172.5,251.3
		c-0.3,1.9-0.4,3.8-0.6,5.7h6.9C176.7,254.9,174.6,253.2,172.5,251.3z M171.3,265.1l7.5-6.5h-6.9
		C171.7,260.7,171.5,262.9,171.3,265.1z M170.2,274.7c-0.2,4.2-0.7,8.7-1.3,12.8c1.6-1.5,4-3.7,7.6-7L170.2,274.7z M167.9,295.7
		c-0.1,5.7-0.8,11.4-1.5,16.5c1.9-1.7,4.6-4.3,8.6-8C171.6,300.2,169.3,297.6,167.9,295.7z M164.6,331.8l5.7-4.9
		c-1.6-1.6-3.1-3.1-4.7-4.7c0,0-0.1-0.1-0.1-0.1C165.3,325.4,164.9,328.7,164.6,331.8z M161.5,355.5l6.6-5.3l2.1,2.5l0.9-0.7
		l8.9,10.2h1.5l-9.6-11l12.8-10.7c0.1-0.5,0.1-1.1,0.2-1.6L171,349.7l-7.5-8.6h-0.4c-0.1,0.9-0.2,1.8-0.3,2.7l0.6,0.7l-0.6-0.6
		C162.4,347.9,161.9,351.9,161.5,355.5z M186.7,124.2l-2.1-1l1.8,1.3L186.7,124.2z M168.7,349.7l-5.2-5.2l4.6,5.7L168.7,349.7z
		 M182.8,382.7l0.8,0.8l8.3-6.3l-0.6-0.4L182.8,382.7z M188,260.3c-0.4-0.3-0.7-0.7-1.2-1.1l-0.1,0.1
		C187.2,259.7,187.6,260,188,260.3z M210.8,157L210.8,157l-4.4-4.1L210.8,157z M203.2,89.6l0.3-0.2l-1.5-0.7L203.2,89.6z M237,381.9
		l-8.2-6.4l-0.9,0.7l8.3,6.5L237,381.9z"/>
</g>
</svg>
