<?xml version="1.0" encoding="utf-8"?>
<!-- Generator: Adobe Illustrator 19.2.1, SVG Export Plug-In . SVG Version: 6.00 Build 0)  -->
<svg version="1.1" id="Layer_1" xmlns="http://www.w3.org/2000/svg" xmlns:xlink="http://www.w3.org/1999/xlink" x="0px" y="0px" viewBox="0 0 134.7 300" style="enable-background:new 0 0 134.7 300;" xml:space="preserve">
<g>
	<path d="M39.3,271.3c-2.3-1.1-2.7-3.1-1-5.1c0.2-0.2-0.1-0.9-0.2-1.3c-0.2-0.5-0.5-0.9-0.7-1.4c0,0,0,0,0,0
		c0.4-0.2,0.9-0.4,1.3-0.6c-0.2-0.4-0.4-0.8-0.6-1.2c-0.7-1.6-2.1-1.5-3.5-1.4c0,0,0,0,0,0c0.6-1.5,1.3-2.7,3.1-2.8
		c1.5,0,3,0,4.5-0.1c0.3,0,0.6-0.4,0.9-0.6c-0.3-0.2-0.6-0.7-1-0.7c-1.2-0.1-2.5,0.1-3.6-0.1c-0.9-0.2-1.8-0.9-2.7-1.4
		c1.6,0,3.1,0,4.7,0c0.9,0,1.4-0.4,1.3-1.4c0.3,0.1,0.6,0.3,0.9,0.4c0.5,0.3,0.9,0.5,1.4,0.8c0.2-0.5,0.3-1,0.5-1.5
		c0.2-0.5,0.5-1.3,0.6-1.3c1.6,0.4,2.1-0.8,2.9-1.6c1.1-1,0.8-1.7,0-2.6c-0.2-0.3-0.7-0.5-0.7-0.7c0.4-1.5-0.9-2.2-1.5-3.1
		c-0.1-0.2-0.5-0.5-0.6-0.4c-0.3,0.1-0.6,0.5-0.6,0.7c0.1,0.7,0.2,1.5,0.7,1.9c0.8,0.7,0.9,1-0.1,1.5c-0.2,0.1-0.3,0.9-0.2,1.2
		c0.1,0.5,0.6,0.8,0.9,1.2c-0.5,0.2-1,0.4-1.5,0.6c-1.3,0.5-2.5,1.3-2.6,2.9c-1.6,0-3.1,0-4.7,0c-1,0-1.4,0.5-1.3,1.4
		c-1.5,0-3,0-4.6,0l0,0.1c0-0.9-0.1-1.8,0-2.6c0.1-1.1,0.4-1.9,1.8-1.7c1.2,0.2,1.3-0.8,1.5-1.7c0.1-0.4,0.6-1,1-1.1
		c0.5-0.1,1.1,0.2,1.6,0.4c0.3,0.1,0.6,0.4,0.8,0.7c0.2-0.4,0.5-0.8,0.5-1.2c-0.2-2.4,0.5-4.4,1.8-6.4c0.2-0.3,0.5-0.4,0.7-0.6
		c0.2,0.3,0.4,0.6,0.6,0.9c0.2,0.4,0.4,0.9,0.7,1.3c0.3-0.5,0.7-0.9,0.8-1.4c0.2-1,0.1-2,0.2-3c0-0.3,0.3-0.7,0.5-1
		c0.3,0.2,0.5,0.4,0.8,0.5c0.3,0.2,0.6,0.4,0.9,0.6c0.2-0.4,0.4-0.8,0.5-1.2c0.1-0.6,0.2-1.3,0.1-1.9c-0.2-1.6,0.2-2.6,2.1-2.8
		c0.4,0,0.8-0.9,1-1.4c0.2-0.8,0.2-1.6,0.2-2.7c0.5,0.4,0.7,0.6,0.9,0.8c0.9,0.7,1.5,0.4,1.5-0.6c0.1-1.4,0-2.9,0-4.6
		c2.6,0.2,3.3-1.2,3-3.3c0-0.2,0-0.5,0.1-0.5c2-0.3,1-2.6,2.3-3.4c0.3-0.2,0.2-0.8,0.4-1.2c0.3-0.6,0.6-1.1,1-1.7
		c0.2-0.4,0.4-0.8,0.6-1.1c0.4-0.6,0.7-1.3,1-1.9c0.2-0.4,0.3-0.8,0.4-1.3c0.1-0.7-0.2-1.6,1-1.7c0.1,0,0.4-0.2,0.4-0.3
		c-0.3-2,2.4-3.2,1.6-5.4c-0.1-0.3,0.5-0.9,0.9-1.4c0.2-0.3,0.6-0.6,0.6-0.9c0-1.1-0.1-2.1,1.3-2.4c0.2,0,0.3-0.7,0.2-1.1
		c0-0.9-0.2-1.7-0.3-2.6c0.2,0.1,0.4,0.1,0.5,0.2c0.4-0.9,0.8-1.8,1.2-2.7c0.3-0.7,0.7-1.4,1-2.2c0.2-0.9,0.4-1.8,0.4-2.7
		c0.1-1.2-0.9-2.8,1.1-3.5c0.2-0.1,0.2-0.9,0.2-1.3c0-1.3,0-2.6,0.1-3.8c0-0.3-0.1-0.9,0.1-1c2.4-1.9,0.9-4.5,1.2-6.7
		c0.1-0.3,0-0.7,0-1.2c1.6-0.1,1.6-1,1.6-2.4c-0.2-4.4,0-8.7,0-13.1c0-5,0-10,0-15c0-3.1,0-6.2-0.1-9.3c0-0.5-0.6-1-0.8-1.6
		c-0.2-0.4-0.5-0.9-0.5-1.3c-0.1-1.3,0-2.6-0.1-3.8c0-0.8,0.4-1.9-1.1-2.2c-0.2,0-0.3-0.8-0.3-1.2c0-1.3,0-2.7,0-4
		c0-0.8,0.3-1.7-1-1.9c-0.2,0-0.3-0.8-0.4-1.2c-0.1-1,0.1-2,0-3c-0.1-0.6-0.6-1.2-0.9-1.8c-0.2-0.3-0.3-0.7-0.4-1.1
		c-0.2-1.3,0.5-2.8-1.5-3.4c-0.3-0.1-0.2-1.5-0.2-2.3c0-0.8,0.4-1.7-0.9-1.9c-0.2,0-0.4-0.7-0.4-1c0.1-1.1,0-2.1-1.6-1.8
		c0-1,0-1.7,0-2.5c0-0.9,0.4-1.9-1-2.2c-0.2,0-0.3-0.7-0.4-1.1c-0.1-0.8,0.1-1.6-1.1-1.7c-0.1,0-0.4-0.4-0.4-0.5
		c0.6-2-0.9-3.2-1.6-4.7c-0.7-1.3-1.8-2.5-2.6-3.7c-0.2-0.4-0.1-0.9-0.3-1.3c-0.2-0.5-0.6-0.9-0.9-1.4c-0.1-0.2-0.5-0.3-0.5-0.4
		c0.4-2.2-1.3-3.1-2.6-4.3c-0.1-0.1-0.2-0.4-0.2-0.6c0.1-1.9-1.3-2.6-2.6-3.5c-0.3-0.2-0.3-0.9-0.2-1.3c0.1-0.2,0.6-0.3,1.3-0.6
		c-1.6-0.9-3-1.7-4.7-2.7c0.3-0.6,0.6-1.2,0.9-1.8c-0.9-0.7-1.8-1.5-2.7-2.4c-0.3-0.3-0.6-0.8-0.9-1.1c-0.5-0.5-1-1-1.5-1.5
		c-0.6-0.6-1.3-1-1.7-1.7c-0.6-1-1.7-2-0.2-3.5c0.6-0.6,0-1.7-1.3-2.1c-1-0.3-1.9-1.2-2.7-1.9c-0.2-0.2-0.2-0.8,0-1
		c1.2-1.4,0.9-2.8,0-4.2c0.4-0.1,0.8,0,1.2-0.2c0.5-0.2,0.9-0.5,1.4-0.8c0,0-0.2-0.5-0.3-0.5c-0.6-0.1-1.4-0.3-1.8,0
		C36,40.6,36.1,41.5,36,42c-1.2-0.3-2.8,0.2-3.4-1.6c-0.1-0.2-0.8-0.2-1.3-0.3l0.1,0.1c0-0.5,0.1-0.9,0-1.4
		c-0.2-0.5-0.5-0.9-0.8-1.4c-0.2,0.5-0.5,0.9-0.6,1.4c-0.1,0.4,0,0.9,0,1.4l0-0.1c-1,0.2-1.5-0.2-1.4-1.3c0.1-1.1,0.1-2.2,0-3.3
		c0-0.4-0.5-0.7-0.7-1.1c-0.2-0.4-0.3-0.8-0.5-1.3c0.4,0.1,0.9,0.1,1.3,0.3c0.8,0.5,1.5,1,2.2,1.5c0.2-0.1,0.4-0.2,0.5-0.3
		c-0.2-0.8-0.3-1.7-0.6-2.9c1.1-0.5,2.6-1.2,4-1.9c0.3-0.2,0.6-0.4,0.9-0.6c-0.2-0.2-0.4-0.6-0.6-0.7c-1-0.5-0.9-0.9-0.1-1.5
		c0.8-0.6,1.3-3.3,0.7-4.1c-0.2-0.2-0.8-0.3-1-0.1c-0.7,0.7-1.3,1.5-2,2.2c-1.2,1.2-2.4,0.5-3.8,0.1c0.8-1.4,1.3-2.8,3.3-2.6
		c0.2,0,0.6-0.8,0.7-1.3c0.1-0.9-0.1-1.7-0.1-2.6c-0.1-1.3,0.5-1.8,1.8-1.7c0.6,0.9,1.2,1.8,1.7,2.7c0.5-0.4,0.9-0.8,1.5-1.1
		c0.3-0.2,0.7-0.1,1-0.2c0.2,0.4,0.4,1.2,0.6,1.2c1.4,0.1,2.9,0.1,4.3,0c0.1,0,0.4-0.7,0.3-1c-0.2-0.5-0.6-0.9-1-1.3
		c-0.2-0.2-0.8-0.1-0.9-0.1c-0.6,1.9-2.2,0.9-3.4,1.1c-0.1-1-0.3-1.9-1.5-0.9c-0.2,0.2-0.8,0.1-1.2,0c-0.5-0.1-1-0.3-1.5-0.5
		c0-0.4,0-0.8,0.1-1.2c0.1-1.2-0.2-2-1.7-2c-1.3,0-2.7-0.1-2.8,1.7c0,0.5,0.6,1,0.9,1.5c0.2,0.3,0.5,0.5,0.5,0.8
		c0,0.2-0.4,0.6-0.7,0.6c-1.1,0.1-2.3,0.3-2.2-1.5c0-0.4-0.4-0.8-0.6-1.3c-0.3-0.6-0.5-1.2-0.7-1.7l0,0c1.1-0.3,2.2-0.7,3.4-0.9
		c1-0.2,1.9-0.2,2.9-0.4c0.3-0.1,0.6-0.4,0.9-0.6c-0.2-0.3-0.4-0.6-0.7-0.8c-0.7-0.7-1.4-1.4-2.1-2.5c0.5,0.1,1,0.1,1.5,0.3
		c1,0.3,1.9,0.7,2.9,0.9c1,0.2,2.4-0.6,2.8,1.2c0,0.2,1,0.1,1.5,0.3c0.4,0.1,0.8,0.3,1.1,0.5c-0.3,0.3-0.6,0.7-1,0.9
		c-1.8,0.6-2.1,1.5-0.8,2.9c1.9-2.5,4-3.2,6.4-2.1c-0.4,0.7-1,1.3-1.3,2.1c-0.1,0.4,0.3,1,0.4,1.5c0.3-0.3,0.6-0.6,0.9-0.9
		c0.8-0.7,1.5-1.4,2.5-2.2c0.3,1.3,0.5,2.2,0.9,3.6c0.5-0.7,0.7-1.1,1-1.2c0.4-0.2,1.2-0.3,1.3-0.2c1.3,2.2,3.3,2.7,5.7,2.7
		c0.1,2.2,1.8,1.1,3,1.5c0.2,0.7,0.4,1.5,0.7,2.6c0.5-0.5,0.8-0.9,1.2-1c0.3-0.1,1.1,0,1.2,0.2c0.8,1.6,1.6,2.8,3.7,2.7
		c0.7,0,1.8,1,2.1,1.7c0.4,1,1.1,0.8,1.7,1.1c1,0.6,1.8,1.4,2.7,2.1c0.2,0.2,0.4,0.6,0.5,0.6c2.9-0.5,3.3,2.4,5.1,3.6
		c1,0.7,1.9,1.5,2.8,2.4c0.3,0.3,0.5,0.8,0.7,1.4c2-0.3,3,1.2,4.2,2.5c1.2,1.3,2.7,2.3,4,3.5c0.5,0.4,0.9,1,1.3,1.5
		c1.4,1.4,3.2,2.6,4.3,4.3c0.7,1.1,2.5,1.7,1.9,3.5c-0.1,0.2,0.3,0.5,0.5,0.8c1.3,1.3,2.6,2.6,3.9,3.8c0.7,0.7,1.6,1.3,2.3,2
		c0.2,0.1,0.5,0.4,0.5,0.4c-0.7,1.7,0.8,2.6,1.6,3.3c1.1,0.9,1.2,1.8,1.5,3c0.2,0.8,1.2,1.3,1.9,2c0.2,0.2,0.7,0.3,0.7,0.4
		c-0.2,1.5,0.5,2.4,1.7,3.2c1.1,0.8,1.7,1.9,1.5,3.3c0,0.2,0.8,0.4,1.3,0.6c0.4,1.1-0.9,2.9,1.4,3c0.4,1.1-0.7,2.8,1.4,2.9
		c0,0.8,0.1,1.6,0.1,2.5c1.5-0.1,1.5,0.9,1.6,2.1c0,0.4,0.5,0.8,0.8,1.2c0.1,0.1,0.4,0.2,0.4,0.2c-0.5,2,2.3,3.1,1.6,5.3
		c-0.4,1.1,0,1.9,1.4,1.9c0.3,2.5,0.3,2.5,1.5,3.1c0,0.9-0.1,1.7,0,2.6c0.1,0.5,0.6,0.9,0.8,1.4c0.2,0.5,0.5,1,0.6,1.6
		c0.3,1.1-0.8,2.7,1.2,3.1c0.2,0,0.2,0.7,0.2,1.1c0,1,0,2.1,0.1,3.1c0,0.3,0,0.9,0.2,1c2.4,1,0.9,3.1,1.3,4.7
		c0.3,1.1-0.7,2.6,1.2,3.1c0.2,0,0.2,0.7,0.2,1.1c0,1.5-0.1,2.9,0,4.4c0.1,0.7,0.6,1.4,0.9,2c0.2-0.1,0.4-0.1,0.6-0.2
		c0,5.7,0,11.4,0,17.1c0,1-0.1,2,0.1,3c0.1,0.7,0.6,1.4,1.1,2c0,0.8,1,2.2-0.8,2.5c-0.2,0-0.3,1-0.3,1.5c0,5.7,0,11.3,0,17.1
		c-1.4,0-1.5,0.9-1.5,2.1c0.1,1.2,0.1,2.5,0,3.7c-0.1,0.6-0.6,1.2-0.9,1.8c-0.2,0.3-0.4,0.7-0.4,1.1c0,2,0,4,0,6
		c-1.8,0.1-1.6,1.4-1.7,2.6c-0.1,1.3,1,3.1-1.3,3.8c-0.2,0.1-0.1,1.2-0.1,1.8c0,0.6,0,1.3,0,1.9c-0.2-0.1-0.4-0.1-0.5-0.2
		c-0.3,0.7-0.7,1.4-0.9,2.1c-0.3,1,0.7,2.5-1.2,2.9c-0.2,0-0.2,0.8-0.2,1.3c0,0.7,0.1,1.3-0.9,1.6c-0.4,0.1-0.5,1.5-0.6,2.3
		c-0.1,0.8,0.5,2-1.1,2c0,0-0.1,0.1-0.1,0.1c0.1,1.6-0.9,2.6-1.7,3.8c-0.8,1.3-0.8,3.4-1.8,4.2c-1.3,1-1.1,1.9-1.2,3
		c0,0.3-0.8,0.6-1.4,1c0,0.7,0,1.5,0,2.3c-0.5,0.1-1,0.2-0.9,0.2c-0.8,1.5-1.2,3-2.1,3.7c-1.1,0.9-1.5,1.6-1.5,3
		c0,0.6-0.9,1.6-1.6,1.7c-1.9,0.4-0.9,1.8-1.2,2.7c-1.8,0.8-2.8,2.3-2.9,4.2c-2.4,2.3-4.7,4.5-7.2,6.9c0.3,1.9-1.1,2.9-2.6,4.1
		c-1.3,1-2.2,2.5-3.4,3.7c-0.5,0.5-1,1-1.6,1.5c-1.8,1.6-3.8,3.1-5.2,5c-0.8,1.1-1.6,1.1-2.6,1.3c-0.8,0.2-1.5,1.1-2.1,1.8
		c-1.1,1.3-1.9,2.8-3.2,3.8c-0.9,0.8-2.3,1-3.4,1.7c-0.9,0.5-1.6,1.3-2.3,2c-0.2,0.2-0.3,0.7-0.4,0.7c-2.8-0.4-3.7,3.2-6.5,3.1
		c-0.6,0-1.7,1-1.8,1.7c-0.3,1.3-1.5,0.7-1.9,1.2c-1.2,1.4-3.2,0.8-4.3,2.3c-0.2,0.3-0.6,0.4-1,0.5c-1.5,0.2-1.5,0.2-1.9,1.4
		c-1.8,0.5-3.5,1-5.2,1.5c-0.3,0.1-0.5,0.6-0.7,0.9c-0.3,0.5-4.5,2.3-5,2.1c-0.1,0-0.1,0-0.2,0c-1.8-2.7-1.7,0-2.2,0.8
		c-0.1,0.1-0.2,0.4-0.3,0.4c-2.7,0.2-5,2.3-7.9,1.9c-0.6-0.1-1.6-0.6-1.6-0.9c0-1.1,0.3-2.3,0.5-3.4c0.1-0.3,0.4-0.6,0.6-0.9
		c-0.3-0.2-0.7-0.3-1-0.5c-0.5-0.2-1.3-0.4-1.4-0.7c-0.1-0.7,0.2-1.5,0.3-2.3c0.6,0.4,1.1,0.7,1.6,1.1c0.7-0.9,1.4-1.9,2.1-3
		c0.1-0.2,0.1-0.6,0-0.6c-0.9-0.6-1.9-1.5-2.9-1.8c-1.3-0.3-1.5-0.9-1.1-1.9c0.3-0.8,0.7-1.6,1.3-2.2c0.1-0.1,1,0.1,1.2,0.4
		c0.3,0.5,0.4,1.2,0.5,1.8c0.8-0.4,1.8-1.1,2-0.9c0.8,0.7,1.4,1.6,2,2.5c0.3,0.4,0.3,1,0.5,1.6c0.4-0.3,0.7-0.8,1.1-1
		c1.4-0.6,1.3-1.5,0.5-2.5c0.6-0.1,1.7,0,1.8-0.3c0.7-1.6-0.9-1.7-1.8-2.5C38.5,269.5,38.5,270.3,39.3,271.3z M52,28.7
		c-0.5,0-0.9,0-1.4,0.1c-0.5,0.1-1,0.3-1.5,0.4c0,0,0.1,0.5,0.1,0.6c0.5,0.1,1.2,0.4,1.6,0.2C51.3,29.8,51.6,29.1,52,28.7
		c1.3-0.1,1.1-1.2,1.2-2.1c0-0.2-0.4-0.4-0.5-0.5c-0.2,0.6-0.5,1.3-0.7,1.9C51.9,28.2,52,28.5,52,28.7z M37.3,280.7
		c0-0.4,0.1-0.8,0-1.2c-0.1-0.4-0.3-0.8-0.5-1.2c-0.3,0.2-0.6,0.5-1,0.7c-0.4,0.2-0.8,0.5-1.3,0.7c-0.5,0.2-1,0.3-1.4,0.4
		c0,0.3,0.1,0.5,0.1,0.8C34.6,280.7,36,280.7,37.3,280.7c-0.3,1.5,1.2,2,1.8,3c0.7-0.5,1.6-0.9,2-1.6c0.4-0.5,0.2-1.4,0.2-2.1
		c-0.2-0.2-0.3-0.3-0.5-0.5C40.2,281.9,38.6,280.5,37.3,280.7z M40.1,31.4c0,0.7-0.1,1.4,0.1,2.1c0.1,0.4,0.7,0.9,1,0.8
		c1.6-0.2,2.3-2.4,1.3-3.6C41.6,31,40.8,31.2,40.1,31.4c0-0.2,0-0.7-0.1-0.8c-1.2-0.6-1.5-1.5-1.5-2.8c0-0.2-0.4-0.5-0.6-0.4
		c-0.2,0-0.5,0.3-0.5,0.6c-0.1,0.6-0.1,1.3-0.1,1.9c0,0.9-0.3,1.6-1.4,1.6c-0.5,0-0.9,0.4-1.4,0.7c0.5,0.2,1,0.5,1.5,0.7
		C37.8,33.4,38.7,31.6,40.1,31.4z M44.3,41.6c-1.6,0.7-3.1,1.4-4.9,2.3c0.5,0.3,0.7,0.4,0.9,0.5c0.5,0.3,1,0.5,1.4,0.8
		c-0.3,0.4-0.8,0.7-1,1.1c-0.2,0.3,0,0.8,0,1.2c0.7-0.2,1.9-0.3,2-0.7C43.4,45.1,43.8,43.3,44.3,41.6c0.4,0,0.8,0,1.2,0
		c0.6-0.1,1.2-0.3,1.7-0.5c-0.1-0.2-0.2-0.7-0.3-0.7c-0.7,0-1.5,0-2.2,0.1C44.5,40.6,44.4,41.3,44.3,41.6z M39,259.5
		c1.4,1.2,1.4,2.5,1.2,3.9c0,0.5,0.3,1.2,0.7,1.4c1,0.6,1.1,1,0,1.5c-1,0.5-1.1,0.9-0.1,1.5c0.3,0.2,0.6,0.5,0.9,0.8
		c1,1,1.9,2.1,3,3.1c0.2,0.2,0.6,0.3,0.9,0.3c0.2,0,0.4-0.5,0.4-0.7c-0.2-0.6-0.5-1.2-0.8-1.7c-0.2-0.3-0.6-0.5-0.7-0.9
		c-0.5-1.5-0.9-3-1.3-4.6c0-0.2-0.2-0.4-0.3-0.4c-1.5-0.3-1.2-1.2-1.1-2.3c0.1-0.6-0.4-1.5-0.9-1.9C40.4,259.1,39.6,259.4,39,259.5z
		 M35.6,34.2c-0.1,0.1-0.2,0.3-0.3,0.4c-1.5-0.3-2.6,0.1-2.4,1.8c0,0.4,0.9,1.1,1.3,1c1.2-0.2,3.2,0.7,3-1.7
		C37.1,35.2,36.2,34.7,35.6,34.2z M45.9,56.3c0.6,0,1.2,0.1,1.7,0c0.4-0.1,0.7-0.5,1.1-0.8C48.4,55.4,48,55,47.6,55
		c-0.8-0.1-1.6,0.1-1.8-1.1c-0.1-0.2-1.1-0.4-1.7-0.3c-0.3,0.1-0.8,0.6-0.9,1C42.9,57,44.7,56.2,45.9,56.3z M50.3,275.4
		c0.1,0,0.2,0.1,0.2,0.1c0,0.3-0.1,0.8,0,1c0.3,0.5,0.6,1.1,1.1,1.2c0.5,0.1,1.5-0.3,1.6-0.5c0.1-0.6-0.3-1.3-0.5-1.9
		c-0.1-0.2-0.4-0.2-0.6-0.3c-0.4-0.3-0.7-0.7-1.1-1.1C50.8,274.4,50.6,274.9,50.3,275.4z M41,25.9c0.3,0,0.5,0,0.8,0.1
		c0.4-0.6,1.2-1.2,1.3-1.8c0.2-1.3-1.1-1.2-1.8-1.2c-0.4,0-1,0.8-1,1.3C40.2,24.8,40.8,25.4,41,25.9z M49.8,46
		c0.1-0.2,0.6-0.7,0.7-1.2c0.1-1-0.4-1.5-1.5-1.4c-0.8,0-1.5,0.1-1.4,1.2C47.8,45.5,48.1,46.2,49.8,46z M56.1,254.4
		c0-0.3-0.1-0.6-0.1-0.9c-1.3,0.1-2.6,0.1-3.8,0.3c-0.2,0,0,1.5,0,2.3c0.2,0.1,0.5,0.2,0.7,0.3C53.1,254.1,54.9,254.7,56.1,254.4z
		 M51.8,23.6c0-0.2,0-0.3,0-0.5c-0.8,0-1.6-0.1-2.4-0.1c-0.6,0-1.2,0.2-1.9,0.3c0.4,0.4,0.8,0.7,1.2,1.1c0.3,0.3,0.6,0.7,0.9,1
		C50.4,24.7,51.1,24.1,51.8,23.6z M52.5,238.5C52.5,238.5,52.5,238.5,52.5,238.5c0.3,0,0.7,0.1,1,0c0.4-0.2,0.7-0.5,1-0.8
		c-0.4-0.2-0.8-0.5-1.2-0.5c-0.7,0-1.4,0.1-2,0.2c-0.2,0-0.5,0.3-0.5,0.5c0,0.2,0.3,0.5,0.5,0.5C51.7,238.5,52.1,238.5,52.5,238.5z
		 M58.8,265.2c-0.2-0.1-0.5-0.3-0.7-0.4c0.1,2.6-2.3,1.2-3,2.6c1.2,0.1,2.4,0.1,3.5-0.3C58.9,267.1,58.8,265.9,58.8,265.2z
		 M45.9,275.6c0.1-1.6-0.5-2-1.5-1.9c-0.4,0-0.7,0.4-1,0.6c0.6,0.6,1.3,1.3,1.9,1.9C45.6,275.9,45.9,275.6,45.9,275.6z M57,64
		c0.3-0.8,0.5-1.2,0.5-1.5c-0.1-0.5-0.4-1.3-0.7-1.5c-0.5-0.2-1.1,0.2-1.7,0.3c0.3,0.4,0.7,0.8,1,1.2C56.3,62.8,56.5,63.2,57,64z
		 M52.6,54.9c1-1,0.9-2,0.3-2.8c-0.4-0.6-1.2-0.8-2-1.3C51.6,52.3,52.1,53.5,52.6,54.9z M48.7,243.8c0,0.2,0,0.4,0.1,0.5
		c-0.1-0.9-0.1-1.8-0.2-2.6c-0.8,0.1-1.6,0.2-2.4,0.3c0.2-0.1,0.5-0.1,0.7-0.2C47.5,242.4,48.1,243.1,48.7,243.8z M46.3,258.6
		c-0.6,0.5-1.1,0.8-1.6,1.2c0.3,0.3,0.8,0.8,1,0.8c0.7-0.1,1.3-0.6,2-0.9C47.3,259.4,46.9,259.1,46.3,258.6z M53.5,35
		c0.5-0.5,0.9-0.9,1.2-1.3c-0.3-0.2-0.6-0.7-0.8-0.7c-0.6,0.2-1.1,0.6-1.7,0.9C52.5,34.2,52.9,34.5,53.5,35z M37.8,25.7
		c0.2,0,0.4,0,0.6,0c0-0.9,0-1.8,0-2.6c0-0.1-0.4-0.1-0.6-0.2c-0.1,0.8-0.2,1.6-0.3,2.4C37.5,25.4,37.7,25.5,37.8,25.7z M45.9,257.8
		c0.5-0.4,1-0.7,1.4-0.9c-0.4-0.3-0.8-0.8-1.2-0.7c-0.6,0.1-1.1,0.5-1.6,0.8C44.9,257.2,45.4,257.5,45.9,257.8z M47.6,57.4
		c-0.6,0.5-1,0.8-1.4,1.1c0.5,0.3,1,0.7,1.5,0.8c0.3,0.1,0.7-0.5,1.1-0.7C48.4,58.2,48.1,57.9,47.6,57.4z M37.3,249.8
		c-0.6,0.5-1,0.8-1.4,1.2c0.6,0.3,1.1,0.7,1.7,0.8c0.3,0.1,0.7-0.4,1-0.6C38.2,250.7,37.9,250.4,37.3,249.8z M55.8,241.2
		c0-0.2,0-0.4,0-0.6c-1.2,0-2.4,0-3.6,0c0,0.2,0,0.4,0,0.6C53.4,241.2,54.6,241.2,55.8,241.2z M47.2,263.4c0.1-0.3,0.1-0.6,0.2-1
		c-0.8-0.2-1.6-0.4-2.5-0.4c-0.1,0-0.2,0.6-0.4,1C45.5,263.1,46.4,263.2,47.2,263.4z M41.7,246.2c0.5-0.4,1-0.7,1.4-1
		c-0.4-0.2-0.8-0.6-1.2-0.5c-0.5,0.1-1,0.4-1.5,0.7C40.7,245.5,41.1,245.8,41.7,246.2z M53.6,37.7c0,0.3,0,0.6,0,0.9
		c0.8,0,1.5-0.1,2.3-0.2c0,0,0-0.7,0-0.7C55.1,37.7,54.3,37.7,53.6,37.7z M47.2,46.4c-0.3,0-0.6,0-1,0c0.1,0.8,0.1,1.5,0.2,2.3
		c0.3,0,0.7-0.1,0.7-0.1C47.2,47.9,47.2,47.1,47.2,46.4z M57.7,31.3c1-0.1,1.9-0.1,2.7-0.2c0,0,0-0.5,0-0.7
		c-0.8,0.1-1.6,0.2-2.4,0.3C58,30.7,57.9,30.9,57.7,31.3z M41.4,273.9c-0.3,0-0.6-0.1-0.9-0.1c0,0.8-0.1,1.5-0.1,2.3
		c0,0,0.5,0.1,0.7,0.1C41.2,275.4,41.3,274.7,41.4,273.9z M61.6,80c-0.2,0-0.5,0.1-0.7,0.1c0.1,0.7,0.2,1.4,0.2,2.2
		c0.3,0,0.7-0.1,0.7-0.1C61.8,81.4,61.7,80.7,61.6,80z M53,265.1c-0.3,0-0.6,0.1-0.9,0.1c0.1,0.7,0.3,1.5,0.4,2.2c0,0,0.6,0,0.6-0.1
		C53.1,266.6,53,265.9,53,265.1z M48.7,266.5c-0.3,0-0.6-0.1-0.8-0.1c-0.1,0.7-0.2,1.5-0.2,2.2c0,0,0.6,0.1,0.9,0.1
		C48.6,268,48.7,267.3,48.7,266.5z M55.9,270c-0.3,0-0.7,0-1,0c0.1,0.7,0.2,1.3,0.3,2c0,0,0.6,0,0.6-0.1
		C55.9,271.3,55.9,270.6,55.9,270z M55.7,231.7c-0.2,0-0.3,0-0.5,0c-0.1,0.4-0.3,0.9-0.2,1.3c0,0.3,0.4,0.6,0.5,0.9
		c0.2-0.4,0.6-0.7,0.6-1.2C56.1,232.4,55.8,232,55.7,231.7z M48.7,18.9c-0.3,0-0.6-0.1-0.8-0.1c-0.1,0.7-0.1,1.4-0.2,2.2
		c0,0,0.5,0.1,0.7,0.1C48.6,20.3,48.7,19.6,48.7,18.9z M58.9,225.7c-0.3,0-0.6-0.1-0.9-0.1c0,0.8-0.1,1.5-0.1,2.3
		c0.2,0,0.6,0.1,0.6,0C58.7,227.2,58.8,226.4,58.9,225.7z"/>
	<path d="M27.2,13.9c-2.3,0.1-1.7,1.8-1.6,3.1c0.1,1.1-0.3,1.6-1.3,1.5c-0.5,0-0.9-0.3-1.4-0.4c0.3-0.3,0.6-0.6,0.9-0.9
		c0.2-0.2,0.6-0.6,0.5-0.8c-0.1-0.3-0.4-0.7-0.7-0.8c-0.4-0.2-0.8,0-1.2-0.1c-0.4-0.1-0.7-0.5-1-0.7c0.4-0.2,0.7-0.4,1.1-0.6
		c0.6-0.3,1.8-0.5,1.8-0.7c-0.1-1.2-0.3-2.5-0.9-3.5c-0.4-0.7-1-3.4-0.4-3.9c0.2-0.1,0.7,0,1,0.1c0.4,0.3,0.7,0.7,1,1
		c1,1,1.8,1.6,3.1,0.2c0.4-0.5,1.8-0.3,1.9,1c0.1,1.4,0,2.8,0,4.2c-0.2,0-0.4,0.1-0.5,0.1c-1-0.9-1.9-1.7-3-2.7
		c-0.7,1-1,1.8,0.1,2.8C26.8,12.9,26.9,13.5,27.2,13.9C27.1,14,27.2,13.9,27.2,13.9z"/>
	<path d="M14.5,272.1c1.4,2.3,1.2,5-0.2,6.7c0.9,1.1,2.2,0.9,3.3,0.6c0.4-0.1,0.5-1.2,0.8-1.8c0.2-0.4,0.4-0.7,0.6-1.1
		c0.2,0.4,0.7,0.8,0.7,1.1c0.1,1.5,0.4,3.1-1.3,3.9c-0.7,0.3-1.7,0.7-2.3,0.4c-1.2-0.7-2.2-1.7-3.2-2.6c-0.2-0.2-0.3-1-0.2-1
		c1.8-1,0.9-3,1.4-4.4C14.3,273.5,14.4,272.9,14.5,272.1z"/>
	<path d="M37.3,263.4c-1,0-1.4,0.5-1.4,1.5c0,1.1,0,2.2-0.1,3.3c-0.1,0.4-0.5,0.7-0.8,1c-0.2-0.3-0.7-0.7-0.7-1c0.4-2-1-2.7-2.3-3.5
		c-0.2-0.1-0.2-0.6-0.4-1c2.3-0.6,0.9-2.3,1.1-3.5c0,0-0.1,0-0.1,0c0.6,0,1.2,0,1.8,0l0,0c-0.1,0.6-0.2,1.3-0.1,1.9
		c0,0.3,0.1,0.8,0.4,1c0.2,0.1,0.7-0.2,1-0.3c0.4-0.2,0.8-0.5,1.1-0.7C37,262.6,37.1,263,37.3,263.4L37.3,263.4z"/>
	<path d="M32.8,260.3c-3,0.4-5.8,0-8.3-2c1.5-1,3.1-0.9,4.8-0.3c0.6-0.4,1.2-0.8,1.8-1.2c0.2,0.9,0,2,1.2,2.5
		C32.6,259.3,32.6,260,32.8,260.3L32.8,260.3z"/>
	<path d="M19.2,28c0.4-2,1.8-2.4,3.6-2.2c0.5,0,1-0.5,1.5-0.8c0.3-0.2,0.5-0.4,0.8-0.4c0.1,0,0.5,0.4,0.5,0.6c-0.4,1.6-0.1,3,1.4,4
		c0.2,0.1,0.1,0.6,0.1,0.8c0,0,0,0,0,0c-0.8,0.3-1.7,0.5-2.5,0.8c0.7-1.2,0.7-2.1-1-2.2c-0.3,0-0.6-0.2-0.9-0.4
		C21.6,27,20.6,26.9,19.2,28z"/>
	<path d="M19.8,288.3c0.9-0.3,1.9-0.6,2.8-1c0.4-0.1,0.9-0.5,1.2-0.3c1,0.5,2,1.2,3.1,2c-1,0.8-3.5-0.6-3.2,2.5
		c-0.6-0.8-0.8-1.1-1-1.2c-0.4-0.1-1-0.2-1.4-0.1c-0.4,0.1-0.6,0.4-1,0.7c-0.1-0.4-0.3-0.8-0.4-1.2
		C19.8,289.2,19.9,288.8,19.8,288.3C19.8,288.3,19.8,288.3,19.8,288.3z"/>
	<path d="M15.8,22.2c0.5-0.6,0.9-1.1,1.3-1.5c0.4-0.3,1-0.8,1.3-0.7c0.5,0.1,1,0.7,1.3,1.2c0.3,0.4,0.3,0.9,0.5,1.4
		c0.2,0.4,0.5,0.6,0.8,1c-0.4,0.2-0.8,0.6-1.3,0.6c-1.1,0.2-2.3,0.4-2.9-1.1C16.8,22.7,16.2,22.5,15.8,22.2z"/>
	<path d="M9.8,20.7c0.7-0.7,1.3-1.3,2.1-2.2c0.6,1.4,1.3,2.8,1.9,4.2c0.2,0.5,0.4,1.1,0.6,1.6c0.2,0.4,0.4,0.7,0.7,1
		c-0.4,0.1-0.9,0.4-1.2,0.4c-0.4-0.1-0.8-0.4-1.2-0.7c-0.1-0.1,0-0.4,0-0.7c0.2-1.7-0.1-3-2.2-3.2C10.3,21.1,10,20.9,9.8,20.7z"/>
	<path d="M28.3,286.1c-2.1,0.9-2.4,0.7-2.7-1.1c-0.1-0.4-0.2-0.9-0.4-1.1c-1.1-0.7-0.8-0.8,0-1.8c1.5-2,2-0.1,2.9,0.4
		c0.1,0.1,0.2,0.8,0,1C26.9,284.9,26.9,284.8,28.3,286.1z"/>
	<path d="M21.2,29.9c1.1,0.5,2.1,0.9,3.2,1.4c0,0.5,0,0.9-0.1,1.4c-0.2,0.6-0.4,1.1-0.6,1.7c-0.4-0.3-0.8-0.7-1.2-0.9
		c-0.5-0.2-1-0.2-1.5-0.3c-0.3-0.1-0.8-0.3-0.9-0.6c-0.1-0.3,0.2-0.7,0.4-1C20.6,31,20.9,30.4,21.2,29.9z"/>
	<path d="M23.9,270.8c0.5,0.7,0.9,1.4,1.5,2.3c-2.2,0.2-1,2.6-2.1,3.7c0,0-0.1,0-0.1,0.1c-0.2-0.4-0.5-0.8-0.7-1.3
		c-0.3-0.9-0.4-1.8-0.7-3.1C22.4,272.2,23.2,271.5,23.9,270.8C24,270.9,23.9,270.8,23.9,270.8z"/>
	<path d="M23.3,276.9C23.3,276.9,23.4,276.9,23.3,276.9c0.9-0.2,1.7-0.4,2.4-0.5l-0.1-0.1c0.3,1.6-0.3,2.9-1.4,4
		c-0.3,0.2-0.7,0.4-1,0.4c-0.2,0-0.6-0.5-0.5-0.7C22.8,279,23.1,278,23.3,276.9z"/>
	<path d="M31.1,256.8c-0.6,0.4-1.2,0.8-1.8,1.2c-0.2-1.3-0.4-2.6-0.6-3.9c0,0,0.8-0.3,1.2-0.2c0.5,0.2,1,0.5,1.4,0.8
		c0,0,0-0.1,0-0.1C31.3,255.4,31.2,256.1,31.1,256.8z"/>
	<path d="M25.7,276.4c0.6-0.9,1.2-1.8,1.8-2.7c0.1-0.1,0.7,0.1,1,0.3c0.4,0.3,0.8,0.6,1,1c0.2,0.4,0.1,0.9-0.1,1.3
		c-0.1,0.3-0.7,0.4-0.9,0.7c-0.5,1-0.9,0.9-1.5,0.1C26.8,276.8,26.1,276.6,25.7,276.4C25.7,276.4,25.7,276.4,25.7,276.4z"/>
	<path d="M24,270.9c-0.1-1.9,0.3-3.5,2.8-4.1c0.1,0.7,0.5,1.6,0.2,2C26.2,269.7,25.5,271,24,270.9C23.9,270.8,24,270.9,24,270.9z"/>
	<path d="M16.3,13.7c-2-2.3-0.2-3.6,1.3-5C19,10.8,16.1,11.8,16.3,13.7z"/>
	<path d="M13.4,8.6c1.5,2.1-0.9,2.6-1.5,3.8C10.7,11.1,10.8,10.8,13.4,8.6z"/>
	<path d="M14.6,30c-0.2,0-0.6,0-0.9-0.1c-0.3-0.1-0.5-0.4-0.7-0.6c0.2-0.2,0.4-0.6,0.7-0.6c0.9-0.1,1.9,0.1,2.2-1.2
		c0-0.1,0.5-0.3,0.6-0.2c0.2,0.1,0.4,0.4,0.4,0.6C17.1,29.3,16.3,30.1,14.6,30z"/>
	<path d="M18.2,284.8c1.5-1.3,4-1.3,6,0C22,284.8,20.4,284.8,18.2,284.8z"/>
	<path d="M31.3,40.2c0.3,0.8,0.7,1.7,1.2,2.9c-0.5,0-1.2,0.3-1.8,0.1c-0.4-0.1-0.6-0.9-0.7-1.4c-0.1-0.5,0-1-0.1-1.6
		c0,0,0,0.1,0,0.1C30.4,40.2,30.9,40.2,31.3,40.2L31.3,40.2z"/>
	<path d="M23.8,263.3c-0.7-0.1-1.6-0.1-1.7-0.3c-0.4-1-0.5-2.1-0.7-3.2c0.2-0.1,0.4-0.1,0.6-0.2C22.6,260.7,23.1,261.8,23.8,263.3z"
		/>
	<path d="M16.9,288.2c-0.1,1.1-0.1,2.3-0.3,3.4c0,0.3-0.5,0.5-0.8,0.7c-0.2-0.3-0.5-0.6-0.4-0.8C15.7,290.4,14.9,288.6,16.9,288.2
		C16.9,288.3,16.9,288.2,16.9,288.2z"/>
	<path d="M12.7,26.1c-0.8,0.6-1.2,0.9-1.6,1.3c-0.4,0.3-0.7,0.7-1,1c-0.1-0.5-0.4-1-0.3-1.4c0.1-0.4,0.6-0.8,1-1
		C11.2,25.9,11.7,26,12.7,26.1z"/>
	<path d="M5.9,292.2c-0.7-1.9-0.3-2.7,1.3-2.4c0.3,0,0.5,0.3,0.8,0.5c-0.2,0.3-0.3,0.5-0.5,0.7C7,291.4,6.5,291.8,5.9,292.2z"/>
	<path d="M24.6,21.9c1-0.1,2-0.3,3-0.4c0.3,0,0.5,0.4,0.8,0.6c-0.3,0.2-0.5,0.7-0.8,0.7c-1-0.1-2-0.2-3-0.4
		C24.6,22.3,24.6,22.1,24.6,21.9z"/>
	<path d="M13.6,15.8c0.5,0.7,1,1.5,1.5,2.2c-0.4,0.1-0.8,0.4-1.2,0.3C12.7,18,12.6,17.2,13.6,15.8z"/>
	<path d="M27.1,30c0.6,0,1.3,0,1.9,0.1c0.3,0.1,0.6,0.4,0.9,0.6c-0.3,0.3-0.6,0.7-0.9,0.7C27.8,31.8,26.9,31.6,27.1,30
		C27.2,30,27.1,30,27.1,30z"/>
	<path d="M8.5,273.9c0.8,0,1.5,0,2.3,0c0,0.3,0,0.9,0,0.9c-0.7,0-1.5,0-2.2,0C8.5,274.5,8.5,274.2,8.5,273.9z"/>
	<path d="M19.8,288.3c-1,0-2,0-3-0.1c0,0,0,0,0,0c0.1-1,0.7-1.4,1.7-1.4C19.8,286.9,19.7,287.6,19.8,288.3
		C19.8,288.3,19.8,288.3,19.8,288.3z"/>
	<path d="M9.9,289.9c0.8,0,1.5,0.1,2.3,0.2c0,0,0,0.7,0,0.7c-0.8,0-1.5,0-2.3,0C9.9,290.5,9.9,290.2,9.9,289.9z"/>
	<path d="M20,12.8c-0.6-0.4-1-0.6-1.4-0.9c0.4-0.2,0.8-0.6,1.2-0.6c0.4,0,0.9,0.4,1.3,0.6C20.7,12.2,20.4,12.5,20,12.8z"/>
	<path d="M15.9,270.9c0.8,0.1,1.5,0.3,2.3,0.4c-0.1,0.2-0.2,0.7-0.3,0.7c-0.7,0-1.4,0-2.2-0.1C15.8,271.5,15.9,271.2,15.9,270.9z"/>
	<path d="M16.3,30.6c0.4-0.1,1-0.4,1.3-0.2c0.3,0.2,0.6,0.8,0.6,1.2c0,0.4-0.4,0.8-0.6,1.2c-0.3-0.4-0.5-0.9-0.8-1.3
		C16.7,31.1,16.5,30.9,16.3,30.6z"/>
	<path d="M8.6,286.4c0-0.7,0-1.4,0-2.1c0.2,0,0.4,0,0.6,0c0,0.7,0,1.4,0,2.1C9,286.4,8.8,286.4,8.6,286.4z"/>
	<path d="M2.7,18c0-0.7,0-1.4,0-2.1c0.2,0,0.5,0,0.7,0c0,0.7,0.1,1.4,0.1,2C3.2,18,3,18,2.7,18z"/>
	<path d="M29.1,286.4c0.5,0.8,0.8,1.1,0.8,1.4c-0.1,0.5-0.4,0.9-0.6,1.4c-0.2-0.3-0.6-0.6-0.7-1C28.5,287.8,28.8,287.4,29.1,286.4z"
		/>
	<path d="M19.6,6.2c-0.8,0.1-1.6,0.2-2.4,0.3c0-0.2,0-0.6,0-0.6c0.8-0.1,1.6-0.2,2.4-0.3C19.6,5.8,19.6,6,19.6,6.2z"/>
	<path d="M10.7,5.1C9.9,5,9.2,4.9,8.5,4.8c0,0,0-0.4,0-0.6c0.7,0,1.5,0.1,2.2,0.1C10.7,4.6,10.7,4.8,10.7,5.1z"/>
</g>
</svg>
