<?xml version="1.0" encoding="UTF-8" standalone="no"?>
<svg xmlns="http://www.w3.org/2000/svg" xml:space="preserve" height="96.4px" viewBox="0 0 310.3 96.4" width="310px" version="1.1" y="0px" x="0px" xmlns:xlink="http://www.w3.org/1999/xlink" enable-background="new 0 0 310.3 96.4">
	<g fill="#fff">
			<path d="m128 50c0 0.9 0.4 1.9 0.2 2.8-0.3 0.9-1.4 1.5-1.9 2.3s-1.1 1.5-1.8 2.2-1.5 1.2-2.4 1.8c-0.8 0.6-1.5 1.3-2.5 1.7-1 0.5-2.1 0.4-3.2 0.7-1 0.3-1.9 0.9-3 1.1s-1.9 1.7-3 1.8-2.3-0.3-3.5-0.4c-1.2 0-2.4 0.6-3.5 0.5s-1.8-2.1-2.9-2.3-2.6 0.7-3.7 0.3-2.3-0.6-3.2-1.1c-1-0.5-1.7-1.3-2.6-1.9s-0.7-2-1.4-2.7-2.2-0.8-2.8-1.4c-0.2 0.8 0.3 2-0.1 2.7-0.5 0.8-3.8 0.1-4.5 0.9-0.7 0.7-0.9 1.5-1.7 2.2-0.8 0.6-1.5 1.2-2.3 1.7-0.8 0.6-1.2 1.5-2.2 2-0.9 0.5-2.2 0.2-3.2 0.6s-1 2.7-2 3-2.6-0.7-3.7-0.4c-1 0.2-2.3-0.7-3.4-0.5s-1.7 2.9-2.8 3-2.3-2.2-3.4-2.2-2.3 1.4-3.3 1.4c-1.1-0.1-1.9-1.7-3-1.9s-2.1-0.1-3.2-0.3-2.3 0.1-3.3-0.2-2.4-0.1-3.3-0.5c-1-0.4-1.4-1.6-2.3-2.1s-2.7-0.1-3.5-0.7c-0.9-0.6-1-1.8-1.7-2.5-0.8-0.7-2.8-0.5-3.5-1.2s-1.6-1.5-2.1-2.3 0.6-2.3 0.3-3.2c-0.4-0.9-0.3-1.8-0.4-2.7 0-0.1-0.1-0.3-0.1-0.4 0 0.1-0.1 0.3-0.2 0.4-0.4 0.8-0.9 1.6-1.6 2.3s-1.6 1.2-2.5 1.7-1.9 0.8-2.9 1.2c-1 0.3-1.9 0.9-3 1.1-1 0.2-2.2 0.4-3.3 0.4s-2.2-0.4-3.2-0.6c-1.1-0.2-2.4 0-3.3-0.3-1-0.4-1.7-1.3-2.6-1.8-2-0.4-2.3-1.3-3-1.9-0.7-0.7-1.5-1.2-1.9-2-0.4-0.9-1.1-1.7-1.1-2.6s-0.2-2 0.2-2.8 1.8-1.2 2.5-1.9 0.8-1.9 1.7-2.5c0.9-0.5 2.3-0.3 3.4-0.6 1-0.3 2-0.6 3.1-0.8 1-0.2 2.1-0.9 3.2-0.9s2.3 0.4 3.3 0.5c1.1 0.2 1.9 1.1 2.8 1.4 1 0.4 2.3 0.2 3.2 0.7s1.7 1.2 2.4 1.9l0.9 0.9c0.5-0.4 1.1-0.8 1.3-1.2 0.4-0.8-0.5-2.3 0.1-3 0.5-0.8 3.5-0.3 4.2-1s-0.7-2.8 0.1-3.5c0.8-0.6 3.3 0.3 4.2-0.3 0.8-0.6 0.9-2 1.9-2.5 0.9-0.5 2.4-0.2 3.4-0.6s1.1-2.6 2.1-2.9 3 1.6 4 1.4 1.5-2.9 2.6-3c1.1-0.2 2.4 0.2 3.5 0.2 1.1-0.1 2.3 1.5 3.4 1.5s2.3-1.6 3.4-1.5 2 1.5 3.1 1.7 2 0.9 3 1.1c1.1 0.2 2.2 0.2 3.2 0.5s1.6 1.3 2.6 1.6c1 0.4 3.5-1.4 4.5-0.9 0.9 0.5 1.2 1.9 2.1 2.5s1.5 1.4 2.2 2.1c0.8 0.7 2.1 1 2.8 1.7s1.2 1.6 1.8 2.4c0.5 0.8-1.2 2.4-0.9 3.2 0.2 0.5 0.9 0.9 1.5 1.3 0.2-0.5 0.4-1.1 0.7-1.6 0.5-0.8-0.2-2.4 0.6-3.1 0.7-0.7 2.5-0.7 3.4-1.3 0.8-0.6 1.8-1.1 2.8-1.6s1.7-1.4 2.7-1.8c1-0.3 2-1.1 3.2-1.4 1.1-0.2 2.4-0.4 3.5-0.5s2.4 0.2 3.5 0.2c1.2 0 2.4-0.3 3.5-0.1 1.1 0.1 1.8 2.1 2.9 2.3s2.4-0.2 3.4 0.2c1.1 0.4 1.7 1.2 2.7 1.6 1 0.5 2.3 0.5 3.1 1.1 0.9 0.6 1.4 1.5 2.1 2.2s1.4 1.4 1.9 2.2 1.8 1.4 2.1 2.3c-1 0.9-2 1.9-2 2.9zm-41 2.4c-0.1-0.3-0.4-0.6-0.6-0.9-0.4 0.3-0.7 0.5-0.7 0.8-0.1 0.6 0.6 1.3 1 1.9 0.1-0.6 0.5-1.3 0.3-1.8z"/>
			<path d="m154 47.8c-0.4-0.8-0.7-1.4-1.4-2.1-0.6-0.6-1.3-1.1-2.2-1.6-0.8-0.5-1.4-1.2-2.4-1.5-0.9-0.3-1.9-0.3-3-0.5-1-0.2-1.9-0.6-3-0.6s-2.1-0.1-3.1 0c-1 0.2-2 0.6-2.9 0.9-1 0.3-1.7 0.9-2.6 1.4s-2.2 0.6-2.8 1.2c-0.7 0.7-0.3 1.8-0.7 2.6s-0.7 1.5-0.7 2.3c0 0.9-0.5 1.8-0.1 2.6s1.7 1.1 2.4 1.8c0.6 0.6 0.7 1.8 1.5 2.3s1.8 1 2.7 1.4c0.9 0.3 2.1 0.1 3.2 0.3 1 0.2 2 0 3.1 0s2.1 0.2 3.1 0 2.1-0.3 3-0.6c1-0.3 1.5-1.2 2.4-1.7s1.8-0.8 2.5-1.4c0.7-0.7 1.7-1.2 2.1-2s0.4-1.7 0.4-2.6c1-0.8 0-1.4 0-2.2z"/>
			<path d="m283 50.3c0 0.9 0.4 1.9 0.2 2.8-0.3 0.9-1.4 1.5-1.9 2.3s-1.1 1.5-1.8 2.2-1.5 1.2-2.4 1.8c-0.8 0.6-1.5 1.3-2.5 1.7-1 0.5-2.1 0.4-3.2 0.7-1 0.3-1.9 0.9-3 1.1s-1.9 1.7-3 1.8-2.3-0.3-3.5-0.4c-1.2 0-2.4 0.6-3.5 0.5s-1.8-2.1-2.9-2.3-2.6 0.7-3.7 0.3-2.3-0.6-3.2-1.1c-1-0.5-1.7-1.3-2.6-1.9s-0.7-2-1.4-2.7-2.2-0.8-2.8-1.4c-0.2 0.8 0.3 2-0.1 2.7-0.5 0.8-3.8 0.1-4.5 0.9-0.7 0.7-0.9 1.5-1.7 2.2-0.8 0.6-1.5 1.2-2.3 1.7-0.8 0.6-1.2 1.5-2.2 2-0.9 0.5-2.2 0.2-3.2 0.6s-1 2.7-2 3-2.6-0.7-3.7-0.4c-1 0.2-2.3-0.7-3.4-0.5s-1.7 2.9-2.8 3-2.3-2.2-3.4-2.2-2.3 1.4-3.3 1.4c-1.1-0.1-1.9-1.7-3-1.9s-2.1-0.1-3.2-0.3-2.3 0.1-3.3-0.2-2.4-0.1-3.3-0.5c-1-0.4-1.4-1.6-2.3-2.1s-2.7-0.1-3.5-0.7c-0.9-0.6-1-1.8-1.7-2.5-0.8-0.7-2.8-0.5-3.5-1.2s-1.6-1.5-2.1-2.3 0.6-2.3 0.3-3.2c-0.4-0.9-0.3-1.8-0.4-2.7 0-0.1-0.1-0.3-0.1-0.4 0 0.1-0.1 0.3-0.2 0.4-0.4 0.8-0.9 1.6-1.6 2.3s-1.6 1.2-2.5 1.7-1.9 0.8-2.9 1.2c-1 0.3-1.9 0.9-3 1.1-1 0.2-2.2 0.4-3.3 0.4s-2.2-0.4-3.2-0.6c-1.1-0.2-2.4 0-3.3-0.3-1-0.4-1.7-1.3-2.6-1.8s-1.2-1.5-1.9-2.1c-0.7-0.7-1.5-1.2-1.9-2s-1.1-1.6-1.1-2.5-0.2-2 0.2-2.8 1.8-1.2 2.5-1.9 0.8-1.9 1.7-2.5c0.9-0.5 2.3-0.3 3.4-0.6 1-0.3 2-0.6 3.1-0.8 1-0.2 2.1-0.9 3.2-0.9s2.3 0.4 3.3 0.5c1.1 0.2 1.9 1.1 2.8 1.4 1 0.4 2.3 0.2 3.2 0.7s1.7 1.2 2.4 1.9l0.9 0.9c0.5-0.4 1.1-0.8 1.3-1.2 0.4-0.8-0.5-2.3 0.1-3 0.5-0.8 3.5-0.3 4.2-1s-0.7-2.8 0.1-3.5c0.8-0.6 3.3 0.3 4.2-0.3 0.8-0.6 0.9-2 1.9-2.5 0.9-0.5 2.4-0.2 3.4-0.6s1.1-2.6 2.1-2.9 3 1.6 4 1.4 1.5-2.9 2.6-3c1.1-0.2 2.4 0.2 3.5 0.2 1.1-0.1 2.3 1.5 3.4 1.5s2.3-1.6 3.4-1.5 2 1.5 3.1 1.7 2 0.9 3 1.1c1.1 0.2 2.2 0.2 3.2 0.5s1.6 1.3 2.6 1.6c1 0.4 3.5-1.4 4.5-0.9 0.9 0.5 1.2 1.9 2.1 2.5s1.5 1.4 2.2 2.1c0.8 0.7 2.1 1 2.8 1.7s1.2 1.6 1.8 2.4c0.5 0.8-1.2 2.4-0.9 3.2 0.2 0.5 0.9 0.9 1.5 1.3 0.2-0.5 0.4-1.1 0.7-1.6 0.5-0.8-0.2-2.4 0.6-3.1 0.7-0.7 2.5-0.7 3.4-1.3 0.8-0.6 1.8-1.1 2.8-1.6s1.7-1.4 2.7-1.8c1-0.3 2-1.1 3.2-1.4 1.1-0.2 2.4-0.4 3.5-0.5s2.4 0.2 3.5 0.2c1.2 0 2.4-0.3 3.5-0.1 1.1 0.1 1.8 2.1 2.9 2.3s2.4-0.2 3.4 0.2c1.1 0.4 1.7 1.2 2.7 1.6 1 0.5 2.3 0.5 3.1 1.1 0.9 0.6 1.4 1.5 2.1 2.2s1.4 1.4 1.9 2.2 1.8 1.4 2.1 2.3c-2 1.1-3 2.1-3 3zm-41 2.5c-0.1-0.3-0.4-0.6-0.6-0.9-0.4 0.3-0.7 0.5-0.7 0.8-0.1 0.6 0.6 1.3 1 1.9 1-0.6 1-1.3 1-1.8z"/>
			<path d="m309 48.1c-0.4-0.8-0.7-1.4-1.4-2.1-0.6-0.6-1.3-1.1-2.2-1.6-0.8-0.5-1.4-1.2-2.4-1.5-0.9-0.3-1.9-0.3-3-0.5-1-0.2-1.9-0.6-3-0.6s-2.1-0.1-3.1 0c-1 0.2-2 0.6-2.9 0.9-1 0.3-1.7 0.9-2.6 1.4s-2.2 0.6-2.8 1.2c-0.7 0.7-0.3 1.8-0.7 2.6s-0.7 1.5-0.7 2.3c0 0.9-0.5 1.8-0.1 2.6s1.7 1.1 2.4 1.8c0.6 0.6 0.7 1.8 1.5 2.3s1.8 1 2.7 1.4c0.9 0.3 2.1 0.1 3.2 0.3 1 0.2 2 0 3.1 0s2.1 0.2 3.1 0 2.1-0.3 3-0.6c1-0.3 1.5-1.2 2.4-1.7s1.8-0.8 2.5-1.4c0.7-0.7 1.7-1.2 2.1-2s0.4-1.7 0.4-2.6c0-0.8-1-1.4-1-2.2z"/>
	</g>
</svg>
