<?xml version="1.0" encoding="UTF-8" standalone="no"?>
<svg style="enable-background:new 0 0 134.7 300" xmlns="http://www.w3.org/2000/svg" xml:space="preserve" viewBox="0 0 134.7 300" version="1.1" y="0px" x="0px" xmlns:xlink="http://www.w3.org/1999/xlink">
	<path d="m39.3 271c-2.3-1.1-2.7-3.1-1-5.1 0.2-0.2-0.1-0.9-0.2-1.3-0.2-0.5-0.5-0.9-0.7-1.4 0.4-0.2 0.9-0.4 1.3-0.6l-0.6-1.2c-0.7-1.6-2.1-1.5-3.5-1.4 0.6-1.5 1.3-2.7 3.1-2.8 1.5 0 3 0 4.5-0.1 0.3 0 0.6-0.4 0.9-0.6-0.3-0.2-0.6-0.7-1-0.7-1.2-0.1-2.5 0.1-3.6-0.1-0.9-0.2-1.8-0.9-2.7-1.4h4.7c0.9 0 1.4-0.4 1.3-1.4 0.3 0.1 0.6 0.3 0.9 0.4 0.5 0.3 0.9 0.5 1.4 0.8 0.2-0.5 0.3-1 0.5-1.5s0.5-1.3 0.6-1.3c1.6 0.4 2.1-0.8 2.9-1.6 1.1-1 0.8-1.7 0-2.6-0.2-0.3-0.7-0.5-0.7-0.7 0.4-1.5-0.9-2.2-1.5-3.1-0.1-0.2-0.5-0.5-0.6-0.4-0.3 0.1-0.6 0.5-0.6 0.7 0.1 0.7 0.2 1.5 0.7 1.9 0.8 0.7 0.9 1-0.1 1.5-0.2 0.1-0.3 0.9-0.2 1.2 0.1 0.5 0.6 0.8 0.9 1.2l-1.5 0.6c-1.3 0.5-2.5 1.3-2.6 2.9h-4.7c-1 0-1.4 0.5-1.3 1.4h-4.6v0.1c0-0.9-0.1-1.8 0-2.6 0.1-1.1 0.4-1.9 1.8-1.7 1.2 0.2 1.3-0.8 1.5-1.7 0.1-0.4 0.6-1 1-1.1 0.5-0.1 1.1 0.2 1.6 0.4 0.3 0.1 0.6 0.4 0.8 0.7 0.2-0.4 0.5-0.8 0.5-1.2-0.2-2.4 0.5-4.4 1.8-6.4 0.2-0.3 0.5-0.4 0.7-0.6l0.6 0.9c0.2 0.4 0.4 0.9 0.7 1.3 0.3-0.5 0.7-0.9 0.8-1.4 0.2-1 0.1-2 0.2-3 0-0.3 0.3-0.7 0.5-1 0.3 0.2 0.5 0.4 0.8 0.5l0.9 0.6c0.2-0.4 0.4-0.8 0.5-1.2 0.1-0.6 0.2-1.3 0.1-1.9-0.2-1.6 0.2-2.6 2.1-2.8 0.4 0 0.8-0.9 1-1.4 0.2-0.8 0.2-1.6 0.2-2.7 0.5 0.4 0.7 0.6 0.9 0.8 0.9 0.7 1.5 0.4 1.5-0.6 0.1-1.4 0-2.9 0-4.6 2.6 0.2 3.3-1.2 3-3.3 0-0.2 0-0.5 0.1-0.5 2-0.3 1-2.6 2.3-3.4 0.3-0.2 0.2-0.8 0.4-1.2 0.3-0.6 0.6-1.1 1-1.7 0.2-0.4 0.4-0.8 0.6-1.1 0.4-0.6 0.7-1.3 1-1.9 0.2-0.4 0.3-0.8 0.4-1.3 0.1-0.7-0.2-1.6 1-1.7 0.1 0 0.4-0.2 0.4-0.3-0.3-2 2.4-3.2 1.6-5.4-0.1-0.3 0.5-0.9 0.9-1.4 0.2-0.3 0.6-0.6 0.6-0.9 0-1.1-0.1-2.1 1.3-2.4 0.2 0 0.3-0.7 0.2-1.1 0-0.9-0.2-1.7-0.3-2.6 0.2 0.1 0.4 0.1 0.5 0.2l1.2-2.7c0.3-0.7 0.7-1.4 1-2.2 0.2-0.9 0.4-1.8 0.4-2.7 0.1-1.2-0.9-2.8 1.1-3.5 0.2-0.1 0.2-0.9 0.2-1.3 0-1.3 0-2.6 0.1-3.8 0-0.3-0.1-0.9 0.1-1 2.4-1.9 0.9-4.5 1.2-6.7 0.1-0.3 0-0.7 0-1.2 1.6-0.1 1.6-1 1.6-2.4-0.2-4.4 0-8.7 0-13.1v-15c0-3.1 0-6.2-0.1-9.3 0-0.5-0.6-1-0.8-1.6-0.2-0.4-0.5-0.9-0.5-1.3-0.1-1.3 0-2.6-0.1-3.8 0-0.8 0.4-1.9-1.1-2.2-0.2 0-0.3-0.8-0.3-1.2v-4c0-0.8 0.3-1.7-1-1.9-0.2 0-0.3-0.8-0.4-1.2-0.1-1 0.1-2 0-3-0.1-0.6-0.6-1.2-0.9-1.8-0.2-0.3-0.3-0.7-0.4-1.1-0.2-1.3 0.5-2.8-1.5-3.4-0.3-0.1-0.2-1.5-0.2-2.3s0.4-1.7-0.9-1.9c-0.2 0-0.4-0.7-0.4-1 0.1-1.1 0-2.1-1.6-1.8v-2.5c0-0.9 0.4-1.9-1-2.2-0.2 0-0.3-0.7-0.4-1.1-0.1-0.8 0.1-1.6-1.1-1.7-0.1 0-0.4-0.4-0.4-0.5 0.6-2-0.9-3.2-1.6-4.7-0.7-1.3-1.8-2.5-2.6-3.7-0.2-0.4-0.1-0.9-0.3-1.3-0.2-0.5-0.6-0.9-0.9-1.4-0.1-0.2-0.5-0.3-0.5-0.4 0.4-2.2-1.3-3.1-2.6-4.3-0.1-0.1-0.2-0.4-0.2-0.6 0.1-1.9-1.3-2.6-2.6-3.5-0.3-0.2-0.3-0.9-0.2-1.3 0.1-0.2 0.6-0.3 1.3-0.6-1.6-0.9-3-1.7-4.7-2.7l0.9-1.8c-0.9-0.7-1.8-1.5-2.7-2.4-0.3-0.3-0.6-0.8-0.9-1.1l-1.5-1.5c-0.6-0.6-1.3-1-1.7-1.7-0.6-1-1.7-2-0.2-3.5 0.6-0.6 0-1.7-1.3-2.1-1-0.3-1.9-1.2-2.7-1.9-0.2-0.2-0.2-0.8 0-1 1.2-1.4 0.9-2.8 0-4.2 0.4-0.1 0.8 0 1.2-0.2 0.5-0.2 0.9-0.5 1.4-0.8 0 0-0.2-0.5-0.3-0.5-0.6-0.1-1.4-0.3-1.8 0-0.1-2.4 0-1.5-0.1-1-1.2-0.3-2.8 0.2-3.4-1.6-0.1-0.2-0.8-0.2-1.3-0.3l0.1 0.1c0-0.5 0.1-0.9 0-1.4-0.2-0.5-0.5-0.9-0.8-1.4-0.2 0.5-0.5 0.9-0.6 1.4-0.1 0.4 0 0.9 0 1.4v-0.1c-1 0.2-1.5-0.2-1.4-1.3s0.1-2.2 0-3.3c0-0.4-0.5-0.7-0.7-1.1s-0.3-0.8-0.5-1.3c0.4 0.1 0.9 0.1 1.3 0.3 0.8 0.5 1.5 1 2.2 1.5 0.2-0.1 0.4-0.2 0.5-0.3-0.2-0.8-0.3-1.7-0.6-2.9 1.1-0.5 2.6-1.2 4-1.9l0.9-0.6c-0.2-0.2-0.4-0.6-0.6-0.7-1-0.5-0.9-0.9-0.1-1.5s1.3-3.3 0.7-4.1c-0.2-0.2-0.8-0.3-1-0.1-0.7 0.7-1.3 1.5-2 2.2-1.2 1.2-2.4 0.5-3.8 0.1 0.8-1.4 1.3-2.8 3.3-2.6 0.2 0 0.6-0.8 0.7-1.3 0.1-0.9-0.1-1.7-0.1-2.6-0.1-1.3 0.5-1.8 1.8-1.7 0.6 0.9 1.2 1.8 1.7 2.7 0.5-0.4 0.9-0.8 1.5-1.1 0.3-0.2 0.7-0.1 1-0.2 0.2 0.4 0.4 1.2 0.6 1.2 1.4 0.1 2.9 0.1 4.3 0 0.1 0 0.4-0.7 0.3-1-0.2-0.5-0.6-0.9-1-1.3-0.2-0.2-0.8-0.1-0.9-0.1-0.6 1.9-2.2 0.9-3.4 1.1-0.1-1-0.3-1.9-1.5-0.9-0.2 0.2-0.8 0.1-1.2 0-0.5-0.1-1-0.3-1.5-0.5 0-0.4 0-0.8 0.1-1.2 0.1-1.2-0.2-2-1.7-2-1.3 0-2.7-0.1-2.8 1.7 0 0.5 0.6 1 0.9 1.5 0.2 0.3 0.5 0.5 0.5 0.8 0 0.2-0.4 0.6-0.7 0.6-1.1 0.1-2.3 0.3-2.2-1.5 0-0.4-0.4-0.8-0.6-1.3-0.3-0.6-0.5-1.2-0.7-1.7 1.1-0.3 2.2-0.7 3.4-0.9 1-0.2 1.9-0.2 2.9-0.4 0.3-0.1 0.6-0.4 0.9-0.6-0.2-0.3-0.4-0.6-0.7-0.8-0.7-0.7-1.4-1.4-2.1-2.5 0.5 0.1 1 0.1 1.5 0.3 1 0.3 1.9 0.7 2.9 0.9s2.4-0.6 2.8 1.2c0 0.2 1 0.1 1.5 0.3 0.4 0.1 0.8 0.3 1.1 0.5-0.3 0.3-0.6 0.7-1 0.9-1.8 0.6-2.1 1.5-0.8 2.9 1.9-2.5 4-3.2 6.4-2.1-0.4 0.7-1 1.3-1.3 2.1-0.1 0.4 0.3 1 0.4 1.5l0.9-0.9c0.8-0.7 1.5-1.4 2.5-2.2 0.3 1.3 0.5 2.2 0.9 3.6 0.5-0.7 0.7-1.1 1-1.2 0.4-0.2 1.2-0.3 1.3-0.2 1.3 2.2 3.3 2.7 5.7 2.7 0.1 2.2 1.8 1.1 3 1.5 0.2 0.7 0.4 1.5 0.7 2.6 0.5-0.5 0.8-0.9 1.2-1 0.3-0.1 1.1 0 1.2 0.2 0.8 1.6 1.6 2.8 3.7 2.7 0.7 0 1.8 1 2.1 1.7 0.4 1 1.1 0.8 1.7 1.1 1 0.6 1.8 1.4 2.7 2.1 0.2 0.2 0.4 0.6 0.5 0.6 2.9-0.5 3.3 2.4 5.1 3.6 1 0.7 1.9 1.5 2.8 2.4 0.3 0.3 0.5 0.8 0.7 1.4 2-0.3 3 1.2 4.2 2.5s2.7 2.3 4 3.5c0.5 0.4 0.9 1 1.3 1.5 1.4 1.4 3.2 2.6 4.3 4.3 0.7 1.1 2.5 1.7 1.9 3.5-0.1 0.2 0.3 0.5 0.5 0.8 1.3 1.3 2.6 2.6 3.9 3.8 0.7 0.7 1.6 1.3 2.3 2 0.2 0.1 0.5 0.4 0.5 0.4-0.7 1.7 0.8 2.6 1.6 3.3 1.1 0.9 1.2 1.8 1.5 3 0.2 0.8 1.2 1.3 1.9 2 0.2 0.2 0.7 0.3 0.7 0.4-0.2 1.5 0.5 2.4 1.7 3.2 1.1 0.8 1.7 1.9 1.5 3.3 0 0.2 0.8 0.4 1.3 0.6 0.4 1.1-0.9 2.9 1.4 3 0.4 1.1-0.7 2.8 1.4 2.9 0 0.8 0.1 1.6 0.1 2.5 1.5-0.1 1.5 0.9 1.6 2.1 0 0.4 0.5 0.8 0.8 1.2 0.1 0.1 0.4 0.2 0.4 0.2-0.5 2 2.3 3.1 1.6 5.3-0.4 1.1 0 1.9 1.4 1.9 0.3 2.5 0.3 2.5 1.5 3.1 0 0.9-0.1 1.7 0 2.6 0.1 0.5 0.6 0.9 0.8 1.4s0.5 1 0.6 1.6c0.3 1.1-0.8 2.7 1.2 3.1 0.2 0 0.2 0.7 0.2 1.1 0 1 0 2.1 0.1 3.1 0 0.3 0 0.9 0.2 1 2.4 1 0.9 3.1 1.3 4.7 0.3 1.1-0.7 2.6 1.2 3.1 0.2 0 0.2 0.7 0.2 1.1 0 1.5-0.1 2.9 0 4.4 0.1 0.7 0.6 1.4 0.9 2 0.2-0.1 0.4-0.1 0.6-0.2v17.1c0 1-0.1 2 0.1 3 0.1 0.7 0.6 1.4 1.1 2 0 0.8 1 2.2-0.8 2.5-0.2 0-0.3 1-0.3 1.5v17.1c-1.4 0-1.5 0.9-1.5 2.1 0.1 1.2 0.1 2.5 0 3.7-0.1 0.6-0.6 1.2-0.9 1.8-0.2 0.3-0.4 0.7-0.4 1.1v6c-1.8 0.1-1.6 1.4-1.7 2.6-0.1 1.3 1 3.1-1.3 3.8-0.2 0.1-0.1 1.2-0.1 1.8v1.9c-0.2-0.1-0.4-0.1-0.5-0.2-0.3 0.7-0.7 1.4-0.9 2.1-0.3 1 0.7 2.5-1.2 2.9-0.2 0-0.2 0.8-0.2 1.3 0 0.7 0.1 1.3-0.9 1.6-0.4 0.1-0.5 1.5-0.6 2.3s0.5 2-1.1 2l-0.1 0.1c0.1 1.6-0.9 2.6-1.7 3.8-0.8 1.3-0.8 3.4-1.8 4.2-1.3 1-1.1 1.9-1.2 3 0 0.3-0.8 0.6-1.4 1v2.3c-0.5 0.1-1 0.2-0.9 0.2-0.8 1.5-1.2 3-2.1 3.7-1.1 0.9-1.5 1.6-1.5 3 0 0.6-0.9 1.6-1.6 1.7-1.9 0.4-0.9 1.8-1.2 2.7-1.8 0.8-2.8 2.3-2.9 4.2l-7.2 6.9c0.3 1.9-1.1 2.9-2.6 4.1-1.3 1-2.2 2.5-3.4 3.7-0.5 0.5-1 1-1.6 1.5-1.8 1.6-3.8 3.1-5.2 5-0.8 1.1-1.6 1.1-2.6 1.3-0.8 0.2-1.5 1.1-2.1 1.8-1.1 1.3-1.9 2.8-3.2 3.8-0.9 0.8-2.3 1-3.4 1.7-0.9 0.5-1.6 1.3-2.3 2-0.2 0.2-0.3 0.7-0.4 0.7-2.8-0.4-3.7 3.2-6.5 3.1-0.6 0-1.7 1-1.8 1.7-0.3 1.3-1.5 0.7-1.9 1.2-1.2 1.4-3.2 0.8-4.3 2.3-0.2 0.3-0.6 0.4-1 0.5-1.5 0.2-1.5 0.2-1.9 1.4-1.8 0.5-3.5 1-5.2 1.5-0.3 0.1-0.5 0.6-0.7 0.9-0.3 0.5-4.5 2.3-5 2.1h-0.2c-1.8-2.7-1.7 0-2.2 0.8-0.1 0.1-0.2 0.4-0.3 0.4-2.7 0.2-5 2.3-7.9 1.9-0.6-0.1-1.6-0.6-1.6-0.9 0-1.1 0.3-2.3 0.5-3.4 0.1-0.3 0.4-0.6 0.6-0.9-0.3-0.2-0.7-0.3-1-0.5-0.5-0.2-1.3-0.4-1.4-0.7-0.1-0.7 0.2-1.5 0.3-2.3 0.6 0.4 1.1 0.7 1.6 1.1 0.7-0.9 1.4-1.9 2.1-3 0.1-0.2 0.1-0.6 0-0.6-0.9-0.6-1.9-1.5-2.9-1.8-1.3-0.3-1.5-0.9-1.1-1.9 0.3-0.8 0.7-1.6 1.3-2.2 0.1-0.1 1 0.1 1.2 0.4 0.3 0.5 0.4 1.2 0.5 1.8 0.8-0.4 1.8-1.1 2-0.9 0.8 0.7 1.4 1.6 2 2.5 0.3 0.4 0.3 1 0.5 1.6 0.4-0.3 0.7-0.8 1.1-1 1.4-0.6 1.3-1.5 0.5-2.5 0.6-0.1 1.7 0 1.8-0.3 0.7-1.6-0.9-1.7-1.8-2.5-0.8-2-0.8-2 0-1zm12.7-242c-0.5 0-0.9 0-1.4 0.1s-1 0.3-1.5 0.4c0 0 0.1 0.5 0.1 0.6 0.5 0.1 1.2 0.4 1.6 0.2 0.5-0.2 0.8-0.9 1.2-1.3 1.3-0.1 1.1-1.2 1.2-2.1 0-0.2-0.4-0.4-0.5-0.5-0.2 0.6-0.5 1.3-0.7 1.9-0.1 0.2 0 0.5 0 0.7zm-14.7 252c0-0.4 0.1-0.8 0-1.2s-0.3-0.8-0.5-1.2c-0.3 0.2-0.6 0.5-1 0.7s-0.8 0.5-1.3 0.7-1 0.3-1.4 0.4c0 0.3 0.1 0.5 0.1 0.8 1.4-1 2.8-1 4.1-1-0.3 1.5 1.2 2 1.8 3 0.7-0.5 1.6-0.9 2-1.6 0.4-0.5 0.2-1.4 0.2-2.1l-0.5-0.5c-0.6 2-2.2 0-3.5 1zm2.8-250c0 0.7-0.1 1.4 0.1 2.1 0.1 0.4 0.7 0.9 1 0.8 1.6-0.2 2.3-2.4 1.3-3.6-0.9 0.3-1.7 0.5-2.4 0.7 0-0.2 0-0.7-0.1-0.8-1.2-0.6-1.5-1.5-1.5-2.8 0-0.2-0.4-0.5-0.6-0.4-0.2 0-0.5 0.3-0.5 0.6-0.1 0.6-0.1 1.3-0.1 1.9 0 0.9-0.3 1.6-1.4 1.6-0.5 0-0.9 0.4-1.4 0.7 0.5 0.2 1 0.5 1.5 0.7 1.8 0.5 2.7-1.3 4.1-1.5zm4.2 10.2c-1.6 0.7-3.1 1.4-4.9 2.3 0.5 0.3 0.7 0.4 0.9 0.5 0.5 0.3 1 0.5 1.4 0.8-0.3 0.4-0.8 0.7-1 1.1-0.2 0.3 0 0.8 0 1.2 0.7-0.2 1.9-0.3 2-0.7 0.7-1.7 1.1-3.5 1.6-5.2h1.2c0.6-0.1 1.2-0.3 1.7-0.5-0.1-0.2-0.2-0.7-0.3-0.7-0.7 0-1.5 0-2.2 0.1-0.2 0.1-0.3 0.8-0.4 1.1zm-5.3 218c1.4 1.2 1.4 2.5 1.2 3.9 0 0.5 0.3 1.2 0.7 1.4 1 0.6 1.1 1 0 1.5-1 0.5-1.1 0.9-0.1 1.5 0.3 0.2 0.6 0.5 0.9 0.8 1 1 1.9 2.1 3 3.1 0.2 0.2 0.6 0.3 0.9 0.3 0.2 0 0.4-0.5 0.4-0.7-0.2-0.6-0.5-1.2-0.8-1.7-0.2-0.3-0.6-0.5-0.7-0.9-0.5-1.5-0.9-3-1.3-4.6 0-0.2-0.2-0.4-0.3-0.4-1.5-0.3-1.2-1.2-1.1-2.3 0.1-0.6-0.4-1.5-0.9-1.9-0.5 0-1.3 0-1.9 1zm-3.4-226c-0.1 0.1-0.2 0.3-0.3 0.4-1.5-0.3-2.6 0.1-2.4 1.8 0 0.4 0.9 1.1 1.3 1 1.2-0.2 3.2 0.7 3-1.7-0.1-0.5-1-1-1.6-1.5zm10.3 22.1c0.6 0 1.2 0.1 1.7 0 0.4-0.1 0.7-0.5 1.1-0.8-0.3-0.1-0.7-0.5-1.1-0.5-0.8-0.1-1.6 0.1-1.8-1.1-0.1-0.2-1.1-0.4-1.7-0.3-0.3 0.1-0.8 0.6-0.9 1-0.3 2.4 1.5 1.6 2.7 1.7zm4.4 219c0.1 0 0.2 0.1 0.2 0.1 0 0.3-0.1 0.8 0 1 0.3 0.5 0.6 1.1 1.1 1.2s1.5-0.3 1.6-0.5c0.1-0.6-0.3-1.3-0.5-1.9-0.1-0.2-0.4-0.2-0.6-0.3-0.4-0.3-0.7-0.7-1.1-1.1-0.2 1-0.4 2-0.7 2zm-9.3-249c0.3 0 0.5 0 0.8 0.1 0.4-0.6 1.2-1.2 1.3-1.8 0.2-1.3-1.1-1.2-1.8-1.2-0.4 0-1 0.8-1 1.3-0.1 0.5 0.5 1.1 0.7 1.6zm8.8 20.1c0.1-0.2 0.6-0.7 0.7-1.2 0.1-1-0.4-1.5-1.5-1.4-0.8 0-1.5 0.1-1.4 1.2 0.2 0.9 0.5 1.6 2.2 1.4zm6.3 208c0-0.3-0.1-0.6-0.1-0.9-1.3 0.1-2.6 0.1-3.8 0.3-0.2 0 0 1.5 0 2.3 0.2 0.1 0.5 0.2 0.7 0.3 0.2-1 2 0 3.2-1zm-4.3-230v-0.5c-0.8 0-1.6-0.1-2.4-0.1-0.6 0-1.2 0.2-1.9 0.3 0.4 0.4 0.8 0.7 1.2 1.1 0.3 0.3 0.6 0.7 0.9 1 0.8-0.7 1.5-1.3 2.2-1.8zm0.7 214c0.3 0 0.7 0.1 1 0 0.4-0.2 0.7-0.5 1-0.8-0.4-0.2-0.8-0.5-1.2-0.5-0.7 0-1.4 0.1-2 0.2-0.2 0-0.5 0.3-0.5 0.5s0.3 0.5 0.5 0.5c0.4 2 0.8 2 1.2 2zm6.3 27c-0.2-0.1-0.5-0.3-0.7-0.4 0.1 2.6-2.3 1.2-3 2.6 1.2 0.1 2.4 0.1 3.5-0.3 0.3-1 0.2-2 0.2-3zm-12.9 11c0.1-1.6-0.5-2-1.5-1.9-0.4 0-0.7 0.4-1 0.6l1.9 1.9c0.3-1 0.6-1 0.6-1zm11.1-212c0.3-0.8 0.5-1.2 0.5-1.5-0.1-0.5-0.4-1.3-0.7-1.5-0.5-0.2-1.1 0.2-1.7 0.3 0.3 0.4 0.7 0.8 1 1.2 0.2 0.3 0.4 0.7 0.9 1.5zm-4.4-9.1c1-1 0.9-2 0.3-2.8-0.4-0.6-1.2-0.8-2-1.3 0.7 1.5 1.2 2.7 1.7 4.1zm-3.9 189c0 0.2 0 0.4 0.1 0.5-0.1-0.9-0.1-1.8-0.2-2.6l-2.4 0.3c0.2-0.1 0.5-0.1 0.7-0.2l1.8 3zm-2.4 15c-0.6 0.5-1.1 0.8-1.6 1.2 0.3 0.3 0.8 0.8 1 0.8 0.7-0.1 1.3-0.6 2-0.9-0.4-1-0.8-1-1.4-1zm7.2-224c0.5-0.5 0.9-0.9 1.2-1.3-0.3-0.2-0.6-0.7-0.8-0.7-0.6 0.2-1.1 0.6-1.7 0.9 0.3 0.3 0.7 0.6 1.3 1.1zm-15.7-9.3h0.6v-2.6c0-0.1-0.4-0.1-0.6-0.2l-0.3 2.4c0 0.1 0.2 0.2 0.3 0.4zm8.1 232c0.5-0.4 1-0.7 1.4-0.9-0.4-0.3-0.8-0.8-1.2-0.7-0.6 0.1-1.1 0.5-1.6 0.8 0.4 0 0.9 1 1.4 1zm1.7-201c-0.6 0.5-1 0.8-1.4 1.1 0.5 0.3 1 0.7 1.5 0.8 0.3 0.1 0.7-0.5 1.1-0.7l-1.2-1.2zm-10.3 193c-0.6 0.5-1 0.8-1.4 1.2 0.6 0.3 1.1 0.7 1.7 0.8 0.3 0.1 0.7-0.4 1-0.6-0.4 0-0.7-1-1.3-1zm18.5-9v-0.6h-3.6v0.6h3.6zm-8.6 22c0.1-0.3 0.1-0.6 0.2-1-0.8-0.2-1.6-0.4-2.5-0.4-0.1 0-0.2 0.6-0.4 1h2.7zm-5.5-17c0.5-0.4 1-0.7 1.4-1-0.4-0.2-0.8-0.6-1.2-0.5-0.5 0.1-1 0.4-1.5 0.7 0.3 1 0.7 1 1.3 1zm11.9-208v0.9c0.8 0 1.5-0.1 2.3-0.2v-0.7h-2.3zm-6.4 8.7h-1c0.1 0.8 0.1 1.5 0.2 2.3 0.3 0 0.7-0.1 0.7-0.1 0.1-0.7 0.1-1.5 0.1-2.2zm10.5-15.1c1-0.1 1.9-0.1 2.7-0.2v-0.7l-2.4 0.3-0.3 0.6zm-16.3 243c-0.3 0-0.6-0.1-0.9-0.1 0 0.8-0.1 1.5-0.1 2.3 0 0 0.5 0.1 0.7 0.1 0.1-1 0.2-1 0.3-2zm20.2-194c-0.2 0-0.5 0.1-0.7 0.1 0.1 0.7 0.2 1.4 0.2 2.2 0.3 0 0.7-0.1 0.7-0.1 0-0.8-0.1-1.5-0.2-2.2zm-8.6 185c-0.3 0-0.6 0.1-0.9 0.1 0.1 0.7 0.3 1.5 0.4 2.2 0 0 0.6 0 0.6-0.1 0 0-0.1-1-0.1-2zm-4.3 1c-0.3 0-0.6-0.1-0.8-0.1-0.1 0.7-0.2 1.5-0.2 2.2 0 0 0.6 0.1 0.9 0.1 0 0 0.1-1 0.1-2zm7.2 4h-1c0.1 0.7 0.2 1.3 0.3 2 0 0 0.6 0 0.6-0.1 0.1-1 0.1-1 0.1-2zm-0.2-38h-0.5c-0.1 0.4-0.3 0.9-0.2 1.3 0 0.3 0.4 0.6 0.5 0.9 0.2-0.4 0.6-0.7 0.6-1.2 0-1-0.3-1-0.4-1zm-7-213c-0.3 0-0.6-0.1-0.8-0.1-0.1 0.7-0.1 1.4-0.2 2.2 0 0 0.5 0.1 0.7 0.1 0.2-0.8 0.3-1.5 0.3-2.2zm10.2 207c-0.3 0-0.6-0.1-0.9-0.1 0 0.8-0.1 1.5-0.1 2.3 0.2 0 0.6 0.1 0.6 0 0.2-1 0.3-2 0.4-2z"/>
	<path d="m27.2 13.9c-2.3 0.1-1.7 1.8-1.6 3.1 0.1 1.1-0.3 1.6-1.3 1.5-0.5 0-0.9-0.3-1.4-0.4l0.9-0.9c0.2-0.2 0.6-0.6 0.5-0.8-0.1-0.3-0.4-0.7-0.7-0.8-0.4-0.2-0.8 0-1.2-0.1s-0.7-0.5-1-0.7c0.4-0.2 0.7-0.4 1.1-0.6 0.6-0.3 1.8-0.5 1.8-0.7-0.1-1.2-0.3-2.5-0.9-3.5-0.4-0.7-1-3.4-0.4-3.9 0.2-0.1 0.7 0 1 0.1 0.4 0.3 0.7 0.7 1 1 1 1 1.8 1.6 3.1 0.2 0.4-0.5 1.8-0.3 1.9 1 0.1 1.4 0 2.8 0 4.2-0.2 0-0.4 0.1-0.5 0.1-1-0.9-1.9-1.7-3-2.7-0.7 1-1 1.8 0.1 2.8 0.2 0.1 0.3 0.7 0.6 1.1-0.1 0.1 0 0 0 0z"/>
	<path d="m14.5 272c1.4 2.3 1.2 5-0.2 6.7 0.9 1.1 2.2 0.9 3.3 0.6 0.4-0.1 0.5-1.2 0.8-1.8 0.2-0.4 0.4-0.7 0.6-1.1 0.2 0.4 0.7 0.8 0.7 1.1 0.1 1.5 0.4 3.1-1.3 3.9-0.7 0.3-1.7 0.7-2.3 0.4-1.2-0.7-2.2-1.7-3.2-2.6-0.2-0.2-0.3-1-0.2-1 1.8-1 0.9-3 1.4-4.4 0.2 0 0.3-1 0.4-2z"/>
	<path d="m37.3 263c-1 0-1.4 0.5-1.4 1.5 0 1.1 0 2.2-0.1 3.3-0.1 0.4-0.5 0.7-0.8 1-0.2-0.3-0.7-0.7-0.7-1 0.4-2-1-2.7-2.3-3.5-0.2-0.1-0.2-0.6-0.4-1 2.3-0.6 0.9-2.3 1.1-3.5h-0.1 1.8c-0.1 0.6-0.2 1.3-0.1 1.9 0 0.3 0.1 0.8 0.4 1 0.2 0.1 0.7-0.2 1-0.3 0.4-0.2 0.8-0.5 1.1-0.7 0.2 1 0.3 1 0.5 1z"/>
	<path d="m32.8 260c-3 0.4-5.8 0-8.3-2 1.5-1 3.1-0.9 4.8-0.3l1.8-1.2c0.2 0.9 0 2 1.2 2.5 0.3-1 0.3 0 0.5 0z"/>
	<path d="m19.2 28c0.4-2 1.8-2.4 3.6-2.2 0.5 0 1-0.5 1.5-0.8 0.3-0.2 0.5-0.4 0.8-0.4 0.1 0 0.5 0.4 0.5 0.6-0.4 1.6-0.1 3 1.4 4 0.2 0.1 0.1 0.6 0.1 0.8-0.8 0.3-1.7 0.5-2.5 0.8 0.7-1.2 0.7-2.1-1-2.2-0.3 0-0.6-0.2-0.9-0.4-1.1-1.2-2.1-1.3-3.5-0.2z"/>
	<path d="m19.8 288c0.9-0.3 1.9-0.6 2.8-1 0.4-0.1 0.9-0.5 1.2-0.3 1 0.5 2 1.2 3.1 2-1 0.8-3.5-0.6-3.2 2.5-0.6-0.8-0.8-1.1-1-1.2-0.4-0.1-1-0.2-1.4-0.1s-0.6 0.4-1 0.7c-0.1-0.4-0.3-0.8-0.4-1.2-0.1-2 0-2-0.1-3z"/>
	<path d="m15.8 22.2c0.5-0.6 0.9-1.1 1.3-1.5 0.4-0.3 1-0.8 1.3-0.7 0.5 0.1 1 0.7 1.3 1.2 0.3 0.4 0.3 0.9 0.5 1.4 0.2 0.4 0.5 0.6 0.8 1-0.4 0.2-0.8 0.6-1.3 0.6-1.1 0.2-2.3 0.4-2.9-1.1 0-0.4-0.6-0.6-1-0.9z"/>
	<path d="m9.8 20.7c0.7-0.7 1.3-1.3 2.1-2.2 0.6 1.4 1.3 2.8 1.9 4.2 0.2 0.5 0.4 1.1 0.6 1.6 0.2 0.4 0.4 0.7 0.7 1-0.4 0.1-0.9 0.4-1.2 0.4-0.4-0.1-0.8-0.4-1.2-0.7-0.1-0.1 0-0.4 0-0.7 0.2-1.7-0.1-3-2.2-3.2-0.2 0-0.5-0.2-0.7-0.4z"/>
	<path d="m28.3 286c-2.1 0.9-2.4 0.7-2.7-1.1-0.1-0.4-0.2-0.9-0.4-1.1-1.1-0.7-0.8-0.8 0-1.8 1.5-2 2-0.1 2.9 0.4 0.1 0.1 0.2 0.8 0 1-1.2 2-1.2 2 0.2 3z"/>
	<path d="m21.2 29.9c1.1 0.5 2.1 0.9 3.2 1.4 0 0.5 0 0.9-0.1 1.4-0.2 0.6-0.4 1.1-0.6 1.7-0.4-0.3-0.8-0.7-1.2-0.9-0.5-0.2-1-0.2-1.5-0.3-0.3-0.1-0.8-0.3-0.9-0.6s0.2-0.7 0.4-1c0.1-0.6 0.4-1.2 0.7-1.7z"/>
	<path d="m23.9 271c0.5 0.7 0.9 1.4 1.5 2.3-2.2 0.2-1 2.6-2.1 3.7 0 0-0.1 0-0.1 0.1-0.2-0.4-0.5-0.8-0.7-1.3-0.3-0.9-0.4-1.8-0.7-3.1 0.6-1 1.4-1 2.1-2 0.1 0 0 0 0 0z"/>
	<path d="m23.3 277s0.1 0 0 0c0.9-0.2 1.7-0.4 2.4-0.5l-0.1-0.1c0.3 1.6-0.3 2.9-1.4 4-0.3 0.2-0.7 0.4-1 0.4-0.2 0-0.6-0.5-0.5-0.7 0.1 0 0.4-1 0.6-2z"/>
	<path d="m31.1 257l-1.8 1.2-0.6-3.9s0.8-0.3 1.2-0.2c0.5 0.2 1 0.5 1.4 0.8v-0.1l-0.2 2z"/>
	<path d="m25.7 276l1.8-2.7c0.1-0.1 0.7 0.1 1 0.3 0.4 0.3 0.8 0.6 1 1s0.1 0.9-0.1 1.3c-0.1 0.3-0.7 0.4-0.9 0.7-0.5 1-0.9 0.9-1.5 0.1-0.2 1-0.9 1-1.3 0z"/>
	<path d="m24 271c-0.1-1.9 0.3-3.5 2.8-4.1 0.1 0.7 0.5 1.6 0.2 2-0.8 1-1.5 2-3 2-0.1 0 0 0 0 0z"/>
	<path d="m16.3 13.7c-2-2.3-0.2-3.6 1.3-5 1.4 2.1-1.5 3.1-1.3 5z"/>
	<path d="m13.4 8.6c1.5 2.1-0.9 2.6-1.5 3.8-1.2-1.3-1.1-1.6 1.5-3.8z"/>
	<path d="m14.6 30c-0.2 0-0.6 0-0.9-0.1s-0.5-0.4-0.7-0.6c0.2-0.2 0.4-0.6 0.7-0.6 0.9-0.1 1.9 0.1 2.2-1.2 0-0.1 0.5-0.3 0.6-0.2 0.2 0.1 0.4 0.4 0.4 0.6 0.2 1.4-0.6 2.2-2.3 2.1z"/>
	<path d="m18.2 285c1.5-1.3 4-1.3 6 0h-6z"/>
	<path d="m31.3 40.2c0.3 0.8 0.7 1.7 1.2 2.9-0.5 0-1.2 0.3-1.8 0.1-0.4-0.1-0.6-0.9-0.7-1.4s0-1-0.1-1.6v0.1c0.5-0.1 1-0.1 1.4-0.1z"/>
	<path d="m23.8 263c-0.7-0.1-1.6-0.1-1.7-0.3-0.4-1-0.5-2.1-0.7-3.2 0.2-0.1 0.4-0.1 0.6-0.2 0.6 1 1.1 2 1.8 3z"/>
	<path d="m16.9 288c-0.1 1.1-0.1 2.3-0.3 3.4 0 0.3-0.5 0.5-0.8 0.7-0.2-0.3-0.5-0.6-0.4-0.8 0.3-1-0.5-2 1.5-3z"/>
	<path d="m12.7 26.1c-0.8 0.6-1.2 0.9-1.6 1.3-0.4 0.3-0.7 0.7-1 1-0.1-0.5-0.4-1-0.3-1.4s0.6-0.8 1-1c0.4-0.1 0.9 0 1.9 0.1z"/>
	<path d="m5.9 292c-0.7-1.9-0.3-2.7 1.3-2.4 0.3 0 0.5 0.3 0.8 0.5-0.2 0.3-0.3 0.5-0.5 0.7-0.5 0-1 1-1.6 1z"/>
	<path d="m24.6 21.9c1-0.1 2-0.3 3-0.4 0.3 0 0.5 0.4 0.8 0.6-0.3 0.2-0.5 0.7-0.8 0.7-1-0.1-2-0.2-3-0.4v-0.5z"/>
	<path d="m13.6 15.8c0.5 0.7 1 1.5 1.5 2.2-0.4 0.1-0.8 0.4-1.2 0.3-1.2-0.3-1.3-1.1-0.3-2.5z"/>
	<path d="m27.1 30c0.6 0 1.3 0 1.9 0.1 0.3 0.1 0.6 0.4 0.9 0.6-0.3 0.3-0.6 0.7-0.9 0.7-1.2 0.4-2.1 0.2-1.9-1.4 0.1 0 0 0 0 0z"/>
	<path d="m8.5 274h2.3v0.9h-2.2l-0.1-1z"/>
	<path d="m19.8 288c-1 0-2 0-3-0.1 0.1-1 0.7-1.4 1.7-1.4 1.3 0 1.2 1 1.3 1z"/>
	<path d="m9.9 290c0.8 0 1.5 0.1 2.3 0.2v0.7h-2.3v-1z"/>
	<path d="m20 12.8c-0.6-0.4-1-0.6-1.4-0.9 0.4-0.2 0.8-0.6 1.2-0.6s0.9 0.4 1.3 0.6c-0.4 0.3-0.7 0.6-1.1 0.9z"/>
	<path d="m15.9 271c0.8 0.1 1.5 0.3 2.3 0.4-0.1 0.2-0.2 0.7-0.3 0.7-0.7 0-1.4 0-2.2-0.1 0.1 0 0.2-1 0.2-1z"/>
	<path d="m16.3 30.6c0.4-0.1 1-0.4 1.3-0.2s0.6 0.8 0.6 1.2-0.4 0.8-0.6 1.2c-0.3-0.4-0.5-0.9-0.8-1.3-0.1-0.4-0.3-0.6-0.5-0.9z"/>
	<path d="m8.6 286v-2.1h0.6v2.1h-0.6z"/>
	<path d="m2.7 18v-2.1h0.7c0 0.7 0.1 1.4 0.1 2-0.3 0.1-0.5 0.1-0.8 0.1z"/>
	<path d="m29.1 286c0.5 0.8 0.8 1.1 0.8 1.4-0.1 0.5-0.4 0.9-0.6 1.4-0.2-0.3-0.6-0.6-0.7-1-0.1 1 0.2 0 0.5-1z"/>
	<path d="m19.6 6.2l-2.4 0.3v-0.6l2.4-0.3v0.6z"/>
	<path d="m10.7 5.1c-0.8-0.1-1.5-0.2-2.2-0.3v-0.6c0.7 0 1.5 0.1 2.2 0.1v0.8z"/>
</svg>
