<?xml version="1.0" encoding="UTF-8" standalone="no"?>
<svg xmlns="http://www.w3.org/2000/svg" xml:space="preserve" height="96.4px" viewBox="0 0 310.3 96.4" width="310px" version="1.1" y="0px" x="0px" xmlns:xlink="http://www.w3.org/1999/xlink" enable-background="new 0 0 310.3 96.4">
<path d="m296 70.1l-18.9-5.1 30-65h-18.8l-40.9 41.3c-7.8 7.9-18.5 12.4-29.7 12.4h-176c-8.9 0-16.7 4.6-21.2 11.6-1.7 2.6-4.2 4.7-7 5.9-4.1 2-6.8 4-6.8 6.7 0 8.3 20.1 11.3 21.5 11.3h180l-0.1 0.2 1.3-0.2h1.7l0.2-0.3 84.8-11.4c4-0.4 4-5.9 0-7.4z" fill="#E8E8E8"/>
<path d="m296 70.1l-18.9-5.1-15.6-5.2c-8.1-2.7-16.5-4.5-25-5.5l-8.7-1-0.8-0.9c-3.2 0.8-6.5 1.2-9.8 1.2h-175c-8.9 0-16.7 4.6-21.2 11.6-1.7 2.6-4.2 4.7-7 5.9-4.1 2.1-6.8 4.1-6.8 6.8 0 8.3 20.1 11.3 21.5 11.3h180l-0.1 0.2 1.3-0.2h1.7l0.2-0.3 84.8-11.4c4-0.4 4-5.9 0-7.4z" fill="none"/>
<path d="m289 0c-6.7 6.9-43.6 44.7-43.6 44.7-6 4.3-12.9 7.3-20.1 8.9l-1.3 0.3 0.1-0.6c-1.6 0.2-3.2 0.4-4.8 0.5h-178-1.4-0.1c-0.4 0-0.9 0.1-1.3 0.1h-0.2c-0.2 0.1-0.6 0.1-1 0.2h-0.2c-0.4 0.1-0.9 0.2-1.3 0.3h-0.1c-1.9 0.5-3.7 1.1-5.4 2-3.3 2.9-5.3 7.2-5.3 11.9v2.2c0 8.8 7.2 15.9 15.9 15.9h188 0.9l2.4-0.3c7.2-1.5 12.6-8 12.6-15.6v-2.2c0-5.9-3.3-11.1-8.1-13.9 8.5 1 16.9 2.8 25 5.5l15.6 5.2 29-65.1h-18z" fill="#fff"/>
<path d="m21 64.7h4.1l1.5 4.2s-2.5 0-3.8 0.8c-1.4 0.8-2 1.5-2 1.5s-1.4-1.9-2-2.3c-0.7-0.4-2.2-0.4-2.2-0.4l4.4-3.8zm22.3 4.5v-0.8c0-0.6-0.5-1-1-1-0.6 0-1 0.5-1 1v0.8c0 0.6 0.5 1 1 1 0.6 0 1-0.4 1-1zm37.3 1h-0.5c-0.4 0-0.8-0.3-0.8-0.8v-1.3c0-0.4 0.3-0.8 0.8-0.8h0.5c0.4 0 0.8 0.3 0.8 0.8v1.3c-0.1 0.5-0.4 0.8-0.8 0.8zm-3.7 0h-0.5c-0.4 0-0.8-0.3-0.8-0.8v-1.3c0-0.4 0.3-0.8 0.8-0.8h0.5c0.4 0 0.8 0.3 0.8 0.8v1.3c0 0.5-0.4 0.8-0.8 0.8zm-3.7 0h-0.5c-0.4 0-0.8-0.3-0.8-0.8v-1.3c0-0.4 0.3-0.8 0.8-0.8h0.5c0.4 0 0.8 0.3 0.8 0.8v1.3c0 0.5-0.4 0.8-0.8 0.8zm-3.7 0h-0.5c-0.4 0-0.8-0.3-0.8-0.8v-1.3c0-0.4 0.3-0.8 0.8-0.8h0.5c0.4 0 0.8 0.3 0.8 0.8v1.3c0 0.5-0.3 0.8-0.8 0.8zm-3.6 0h-0.5c-0.4 0-0.8-0.3-0.8-0.8v-1.3c0-0.4 0.3-0.8 0.8-0.8h0.5c0.4 0 0.8 0.3 0.8 0.8v1.3c-0.1 0.5-0.4 0.8-0.8 0.8zm-3.7 0h-0.5c-0.4 0-0.8-0.3-0.8-0.8v-1.3c0-0.4 0.3-0.8 0.8-0.8h0.5c0.4 0 0.8 0.3 0.8 0.8v1.3c-0.1 0.5-0.4 0.8-0.8 0.8zm-3.7 0h-0.5c-0.4 0-0.8-0.3-0.8-0.8v-1.3c0-0.4 0.3-0.8 0.8-0.8h0.5c0.4 0 0.8 0.3 0.8 0.8v1.3c0 0.5-0.4 0.8-0.8 0.8zm-3.7 0h-0.5c-0.4 0-0.8-0.3-0.8-0.8v-1.3c0-0.4 0.3-0.8 0.8-0.8h0.5c0.4 0 0.8 0.3 0.8 0.8v1.3c0 0.5-0.4 0.8-0.8 0.8zm-3.7 0h-0.5c-0.4 0-0.8-0.3-0.8-0.8v-1.3c0-0.4 0.3-0.8 0.8-0.8h0.5c0.4 0 0.8 0.3 0.8 0.8v1.3c0 0.5-0.3 0.8-0.8 0.8zm-5.1 0c-0.6 0-1-0.5-1-1v-0.8c0-0.6 0.5-1 1-1 0.6 0 1 0.5 1 1v0.8c0 0.6-0.5 1-1 1zm49.4 0c-0.6 0-1-0.5-1-1v-0.8c0-0.6 0.5-1 1-1 0.6 0 1 0.5 1 1v0.8c0.1 0.6-0.4 1-1 1zm35.6 0h-0.5c-0.4 0-0.8-0.3-0.8-0.8v-1.3c0-0.4 0.3-0.8 0.8-0.8h0.5c0.4 0 0.8 0.3 0.8 0.8v1.3c1 0.5 1 0.8 0 0.8zm-3 0h-0.5c-0.4 0-0.8-0.3-0.8-0.8v-1.3c0-0.4 0.3-0.8 0.8-0.8h0.5c0.4 0 0.8 0.3 0.8 0.8v1.3c-1 0.5-1 0.8-1 0.8zm-4 0h-0.5c-0.4 0-0.8-0.3-0.8-0.8v-1.3c0-0.4 0.3-0.8 0.8-0.8h0.5c0.4 0 0.8 0.3 0.8 0.8v1.3c0 0.5-1 0.8-1 0.8zm-4 0h-0.5c-0.4 0-0.8-0.3-0.8-0.8v-1.3c0-0.4 0.3-0.8 0.8-0.8h0.5c0.4 0 0.8 0.3 0.8 0.8v1.3c0 0.5 0 0.8-1 0.8zm-4 0c-0.4 0-0.8-0.3-0.8-0.8v-1.3c0-0.4 0.3-0.8 0.8-0.8h0.5c0.4 0 0.8 0.3 0.8 0.8v1.3c0 0.5 0 0.8-1 0.8zm-3 0h-0.5c-0.4 0-0.8-0.3-0.8-0.8v-1.3c0-0.4 0.3-0.8 0.8-0.8h0.5c0.4 0 0.8 0.3 0.8 0.8v1.3c1 0.5 0 0.8 0 0.8zm-4 0h-0.5c-0.4 0-0.8-0.3-0.8-0.8v-1.3c0-0.4 0.3-0.8 0.8-0.8h0.5c0.4 0 0.8 0.3 0.8 0.8v1.3c1 0.5 1 0.8 0 0.8zm-3 0h-1c-0.4 0-0.8-0.3-0.8-0.8v-1.3c0-0.4 0.3-0.8 0.8-0.8h0.5c0.4 0 0.8 0.3 0.8 0.8v1.3c-1 0.5-1 0.8-1 0.8zm-4 0h-0.5c-0.4 0-0.8-0.3-0.8-0.8v-1.3c0-0.4 0.3-0.8 0.8-0.8h0.5c0.4 0 0.8 0.3 0.8 0.8v1.3c0 0.5-1 0.8-1 0.8zm-14.7 0c-0.6 0-1-0.5-1-1v-0.8c0-0.6 0.5-1 1-1 0.6 0 1 0.5 1 1v0.8c0 0.6-0.5 1-1 1zm127 0h-0.5c-0.4 0-0.8-0.3-0.8-0.8v-1.3c0-0.4 0.3-0.8 0.8-0.8h0.5c0.4 0 0.8 0.3 0.8 0.8v1.3c0 0.5 0 0.8-1 0.8zm-4 0c-0.4 0-0.8-0.3-0.8-0.8v-1.3c0-0.4 0.3-0.8 0.8-0.8h0.5c0.4 0 0.8 0.3 0.8 0.8v1.3c0 0.5 0 0.8-1 0.8zm-3 0h-0.5c-0.4 0-0.8-0.3-0.8-0.8v-1.3c0-0.4 0.3-0.8 0.8-0.8h0.5c0.4 0 0.8 0.3 0.8 0.8v1.3c1 0.5 0 0.8 0 0.8zm-4 0h-0.5c-0.4 0-0.8-0.3-0.8-0.8v-1.3c0-0.4 0.3-0.8 0.8-0.8h0.5c0.4 0 0.8 0.3 0.8 0.8v1.3c1 0.5 1 0.8 0 0.8zm-4 0h-0.5c-0.4 0-0.8-0.3-0.8-0.8v-1.3c0-0.4 0.3-0.8 0.8-0.8h0.5c0.4 0 0.8 0.3 0.8 0.8v1.3c1 0.5 1 0.8 0 0.8zm-3 0h-0.5c-0.4 0-0.8-0.3-0.8-0.8v-1.3c0-0.4 0.3-0.8 0.8-0.8h0.5c0.4 0 0.8 0.3 0.8 0.8v1.3c-1 0.5-1 0.8-1 0.8zm-4 0h-0.5c-0.4 0-0.8-0.3-0.8-0.8v-1.3c0-0.4 0.3-0.8 0.8-0.8h0.5c0.4 0 0.8 0.3 0.8 0.8v1.3c0 0.5-1 0.8-1 0.8zm-4 0h-0.5c-0.4 0-0.8-0.3-0.8-0.8v-1.3c0-0.4 0.3-0.8 0.8-0.8h0.5c0.4 0 0.8 0.3 0.8 0.8v1.3c0 0.5 0 0.8-1 0.8zm-3 0h-0.5c-0.4 0-0.8-0.3-0.8-0.8v-1.3c0-0.4 0.3-0.8 0.8-0.8h0.5c0.4 0 0.8 0.3 0.8 0.8v1.3c1 0.5 0 0.8 0 0.8zm-4 0.1h-0.5c-0.4 0-0.8-0.3-0.8-0.8v-1.3c0-0.4 0.3-0.8 0.8-0.8h0.5c0.4 0 0.8 0.3 0.8 0.8v1.3c1 0.4 1 0.8 0 0.8z" fill="#565468"/>
<path d="m226 76.2h-220c0.1-0.4 0.2-0.8 0.4-1.2h220c9.1 0 17.8-3.8 24.1-10.4l49.7-54.6 0.9 0.8-49.7 54.6c-6 6.9-15 10.8-25 10.8zm0 2.9h-220c0.2 0.4 0.5 0.8 0.8 1.2h219c10.4 0 19-3.3 25-9.7l45.1-48.7 1.6-3.5-47.6 51.4c-5 6.1-14 9.3-24 9.3zm0 4.3h-215c6.1 3.4 15.4 4.7 16.4 4.7h180l-0.1 0.2 1.3-0.2h1.7l0.2-0.3 84.8-11.4c4-0.5 4.7-5.9 0.9-7.4l-18-5 15.6-34.5-43 44.4c-6 6.7-15 9.5-25 9.5z" fill="#62A50A"/>
<path d="m236 84.3c-1.2 0.6-2.5 1-3.8 1.3l-2.4 0.3h-0.9-5.4l12-1.6zm9-13.7v-0.6-0.9c-5.4 3.7-11.9 5.7-18.5 5.7h-201c0.1 0.4 0.3 0.8 0.5 1.2h200c7 0.1 14-1.8 19-5.4zm55-60.7l-43.6 47.9c0.4 0.1 0.9 0.3 1.3 0.4l43.2-47.5v-0.8zm-56 66.4c0.2-0.6 0.5-1.2 0.6-1.7-5 2.9-11 4.4-17.9 4.4h-199c0.3 0.4 0.6 0.8 0.9 1.2h198c6 0 12-1.3 17-3.9zm54-58l-38 40.7c0.4 0.1 0.9 0.3 1.3 0.4l34.8-37.6 2-3.5zm-5 11l-29.2 30.8 13.6 4.5 0.3-0.7-0.3-0.1 15-34.5zm-52 51.3c-4.5 1.8-9.4 2.7-14.5 2.7h-194c2.5 1.7 5.6 2.7 8.9 2.7h183l12.4-1.7c2-0.9 4-2.2 5-3.7z" fill="#A0CA23"/>
<path d="m114 74.1h-7.2l8 0.8c0-0.4 0-0.8-1-0.8z" fill="none"/>
<path d="m116 94h-28c-2.8 0-5-2.3-5-5v-9.9c0-2.8 2.3-5 5-5h83.5c0.4 0 0.8 0.4 0.8 0.8-1 10.5-46 19.1-57 19.1z" fill="#E8E8E8"/>
<path d="m85.4 92.6l-0.4 0.4c0.8 0.6 1.8 1 3 1h26.3c0.4 0 0.8-0.4 0.8-0.8v-18.3l-29.6 17.7z" fill="none"/>
<path d="m115 74.9l-8-0.8h-19c-2.8 0-5 2.3-5 5v9.9c0 1.6 0.8 3.1 2.1 4l0.4-0.4 29.5-17.7z" fill="#fff"/>
<path d="m164 82.3h-81v-1.6h84.3l-3 1.6zm-81 4.1h72.2l4.5-1.6h-77v1.6zm0.2 2h-0.2v0.6c0 2.8 2.3 5 5 5h26.3c0.4 0 33.9-0.4 33.9-0.8v-4.8c-0.1 0-33.3 0-33.3 0.1h-31.8z" fill="#62A50A"/>
<polygon points="83 88.4 83.2 88.4 92.5 88.4 95.9 86.4 83 86.4" fill="none"/>
<polygon points="83 84.7 98.7 84.7 103 82.3 83 82.3" fill="none"/>
<path d="m106 80.6l9.6-5.7-8-0.8h-20c-2.8 0-5 2.3-5 5v1.5h23z" fill="none"/>
<polygon points="83 82.3 103 82.3 106 80.6 83 80.6" fill="#A0CA23"/>
<polygon points="83 86.4 95.9 86.4 98.7 84.7 83 84.7" fill="#A0CA23"/>
<path d="m83 88.4v0.6c0 1.6 0.8 3.1 2.1 4l0.4-0.4 7.1-4.2h-9.6z" fill="#A0CA23"/>
<path d="m83 88.4h32s0.1-0.1 0.2-0.1v-2h-32v2.1z" fill="none"/>
<path d="m39.8 75.9h-9.4l-0.1-0.8c-0.6-4-0.6-8.6 0-12.6l0.1-0.8h9.4l-0.2 1.2c-0.6 3.8-0.6 8.2 0 12l0.2 1zm-7.6-2h5.3c-0.4-3.3-0.4-6.9 0-10.3h-5.3c-0.4 3.4-0.4 7 0 10.3zm190-1.6l0.2-1.2c0.6-3.8 0.6-8.2 0-12v-1.1h9.4l0.1 0.8c0.6 4 0.6 8.6 0 12.6l-0.1 0.8h-9zm2-2h5.3c0.4-3.3 0.4-7 0-10.3h-5.3c1 3.3 1 6.9 0 10.3zm-110 5.4l66-39s4.5-2.7 10.8-2.2c6.3 0.4 8.2 1.6 8.2 1.6l-51.7 44.8-26.8 0.2-6-5.4zm137-8.4l2.7 1.9 28.5 0.1 26.8-20.8h-13.6l-44 18.8z" fill="#E8E8E8"/>
<path d="m308 49.8l-11.9-1.3h13.6l-2 1.3zm-127-13.6h17.9l0.2-0.1s-1.8-1.2-8.2-1.6c-5-0.3-8 1-10 1.7z" fill="none"/>
</svg>
