<?xml version="1.0" encoding="utf-8"?>
<!-- Generator: Adobe Illustrator 19.2.1, SVG Export Plug-In . SVG Version: 6.00 Build 0)  -->
<svg version="1.1" id="Layer_1" xmlns="http://www.w3.org/2000/svg" xmlns:xlink="http://www.w3.org/1999/xlink" x="0px" y="0px"
	 width="310.3px" height="96.4px" viewBox="0 0 310.3 96.4" enable-background="new 0 0 310.3 96.4" xml:space="preserve">
<g>
	<g>
		<g>
			<path fill="#FFFFFF" d="M128.1,50c0,0.9,0.4,1.9,0.2,2.8c-0.3,0.9-1.4,1.5-1.9,2.3c-0.5,0.8-1.1,1.5-1.8,2.2
				c-0.7,0.7-1.5,1.2-2.4,1.8c-0.8,0.6-1.5,1.3-2.5,1.7c-1,0.5-2.1,0.4-3.2,0.7c-1,0.3-1.9,0.9-3,1.1c-1.1,0.2-1.9,1.7-3,1.8
				c-1.1,0.1-2.3-0.3-3.5-0.4c-1.2,0-2.4,0.6-3.5,0.5c-1.1-0.1-1.8-2.1-2.9-2.3c-1.1-0.2-2.6,0.7-3.7,0.3c-1.1-0.4-2.3-0.6-3.2-1.1
				c-1-0.5-1.7-1.3-2.6-1.9c-0.9-0.6-0.7-2-1.4-2.7c-0.7-0.7-2.2-0.8-2.8-1.4c-0.2,0.8,0.3,2-0.1,2.7c-0.5,0.8-3.8,0.1-4.5,0.9
				c-0.7,0.7-0.9,1.5-1.7,2.2c-0.8,0.6-1.5,1.2-2.3,1.7c-0.8,0.6-1.2,1.5-2.2,2c-0.9,0.5-2.2,0.2-3.2,0.6c-1,0.4-1,2.7-2,3
				c-1,0.3-2.6-0.7-3.7-0.4c-1,0.2-2.3-0.7-3.4-0.5c-1.1,0.2-1.7,2.9-2.8,3c-1.1,0.1-2.3-2.2-3.4-2.2c-1.1,0-2.3,1.4-3.3,1.4
				c-1.1-0.1-1.9-1.7-3-1.9c-1.1-0.2-2.1-0.1-3.2-0.3c-1.1-0.2-2.3,0.1-3.3-0.2c-1-0.3-2.4-0.1-3.3-0.5c-1-0.4-1.4-1.6-2.3-2.1
				c-0.9-0.5-2.7-0.1-3.5-0.7c-0.9-0.6-1-1.8-1.7-2.5c-0.8-0.7-2.8-0.5-3.5-1.2c-0.7-0.7-1.6-1.5-2.1-2.3c-0.5-0.8,0.6-2.3,0.3-3.2
				c-0.4-0.9-0.3-1.8-0.4-2.7c0-0.1-0.1-0.3-0.1-0.4c0,0.1-0.1,0.3-0.2,0.4c-0.4,0.8-0.9,1.6-1.6,2.3c-0.7,0.7-1.6,1.2-2.5,1.7
				c-0.9,0.5-1.9,0.8-2.9,1.2c-1,0.3-1.9,0.9-3,1.1c-1,0.2-2.2,0.4-3.3,0.4c-1.1,0-2.2-0.4-3.2-0.6c-1.1-0.2-2.4,0-3.3-0.3
				c-1-0.4-1.7-1.3-2.6-1.8C4,55.8,3.7,54.9,3,54.3c-0.7-0.7-1.5-1.2-1.9-2C0.7,51.4,0,50.6,0,49.7c0-0.9-0.2-2,0.2-2.8
				c0.4-0.8,1.8-1.2,2.5-1.9c0.7-0.7,0.8-1.9,1.7-2.5c0.9-0.5,2.3-0.3,3.4-0.6c1-0.3,2-0.6,3.1-0.8c1-0.2,2.1-0.9,3.2-0.9
				c1.1,0,2.3,0.4,3.3,0.5c1.1,0.2,1.9,1.1,2.8,1.4c1,0.4,2.3,0.2,3.2,0.7c0.9,0.5,1.7,1.2,2.4,1.9c0.3,0.3,0.6,0.6,0.9,0.9
				c0.5-0.4,1.1-0.8,1.3-1.2c0.4-0.8-0.5-2.3,0.1-3c0.5-0.8,3.5-0.3,4.2-1c0.7-0.7-0.7-2.8,0.1-3.5c0.8-0.6,3.3,0.3,4.2-0.3
				c0.8-0.6,0.9-2,1.9-2.5c0.9-0.5,2.4-0.2,3.4-0.6c1-0.4,1.1-2.6,2.1-2.9c1-0.3,3,1.6,4,1.4c1-0.2,1.5-2.9,2.6-3
				c1.1-0.2,2.4,0.2,3.5,0.2c1.1-0.1,2.3,1.5,3.4,1.5c1.1,0,2.3-1.6,3.4-1.5c1.1,0.1,2,1.5,3.1,1.7c1.1,0.2,2,0.9,3,1.1
				c1.1,0.2,2.2,0.2,3.2,0.5c1,0.3,1.6,1.3,2.6,1.6c1,0.4,3.5-1.4,4.5-0.9c0.9,0.5,1.2,1.9,2.1,2.5c0.9,0.6,1.5,1.4,2.2,2.1
				c0.8,0.7,2.1,1,2.8,1.7c0.7,0.7,1.2,1.6,1.8,2.4c0.5,0.8-1.2,2.4-0.9,3.2c0.2,0.5,0.9,0.9,1.5,1.3c0.2-0.5,0.4-1.1,0.7-1.6
				c0.5-0.8-0.2-2.4,0.6-3.1c0.7-0.7,2.5-0.7,3.4-1.3c0.8-0.6,1.8-1.1,2.8-1.6c1-0.5,1.7-1.4,2.7-1.8c1-0.3,2-1.1,3.2-1.4
				c1.1-0.2,2.4-0.4,3.5-0.5c1.1-0.1,2.4,0.2,3.5,0.2c1.2,0,2.4-0.3,3.5-0.1c1.1,0.1,1.8,2.1,2.9,2.3c1.1,0.2,2.4-0.2,3.4,0.2
				c1.1,0.4,1.7,1.2,2.7,1.6c1,0.5,2.3,0.5,3.1,1.1c0.9,0.6,1.4,1.5,2.1,2.2c0.7,0.7,1.4,1.4,1.9,2.2c0.5,0.8,1.8,1.4,2.1,2.3
				C129,48,128.1,49,128.1,50z M87,52.4c-0.1-0.3-0.4-0.6-0.6-0.9c-0.4,0.3-0.7,0.5-0.7,0.8c-0.1,0.6,0.6,1.3,1,1.9
				C86.8,53.6,87.2,52.9,87,52.4z"/>
			<path fill="#FFFFFF" d="M153.7,47.8c-0.4-0.8-0.7-1.4-1.4-2.1c-0.6-0.6-1.3-1.1-2.2-1.6c-0.8-0.5-1.4-1.2-2.4-1.5
				c-0.9-0.3-1.9-0.3-3-0.5c-1-0.2-1.9-0.6-3-0.6c-1.1,0-2.1-0.1-3.1,0c-1,0.2-2,0.6-2.9,0.9c-1,0.3-1.7,0.9-2.6,1.4
				c-0.9,0.5-2.2,0.6-2.8,1.2c-0.7,0.7-0.3,1.8-0.7,2.6c-0.4,0.8-0.7,1.5-0.7,2.3c0,0.9-0.5,1.8-0.1,2.6c0.4,0.8,1.7,1.1,2.4,1.8
				c0.6,0.6,0.7,1.8,1.5,2.3c0.8,0.5,1.8,1,2.7,1.4c0.9,0.3,2.1,0.1,3.2,0.3c1,0.2,2,0,3.1,0c1.1,0,2.1,0.2,3.1,0
				c1-0.2,2.1-0.3,3-0.6c1-0.3,1.5-1.2,2.4-1.7c0.9-0.5,1.8-0.8,2.5-1.4c0.7-0.7,1.7-1.2,2.1-2c0.4-0.8,0.4-1.7,0.4-2.6
				C155.2,49.2,154,48.6,153.7,47.8z"/>
		</g>
		<g>
			<path fill="#FFFFFF" d="M283.3,50.3c0,0.9,0.4,1.9,0.2,2.8c-0.3,0.9-1.4,1.5-1.9,2.3c-0.5,0.8-1.1,1.5-1.8,2.2
				c-0.7,0.7-1.5,1.2-2.4,1.8c-0.8,0.6-1.5,1.3-2.5,1.7c-1,0.5-2.1,0.4-3.2,0.7c-1,0.3-1.9,0.9-3,1.1c-1.1,0.2-1.9,1.7-3,1.8
				c-1.1,0.1-2.3-0.3-3.5-0.4c-1.2,0-2.4,0.6-3.5,0.5c-1.1-0.1-1.8-2.1-2.9-2.3c-1.1-0.2-2.6,0.7-3.7,0.3c-1.1-0.4-2.3-0.6-3.2-1.1
				c-1-0.5-1.7-1.3-2.6-1.9c-0.9-0.6-0.7-2-1.4-2.7c-0.7-0.7-2.2-0.8-2.8-1.4c-0.2,0.8,0.3,2-0.1,2.7c-0.5,0.8-3.8,0.1-4.5,0.9
				c-0.7,0.7-0.9,1.5-1.7,2.2c-0.8,0.6-1.5,1.2-2.3,1.7c-0.8,0.6-1.2,1.5-2.2,2c-0.9,0.5-2.2,0.2-3.2,0.6c-1,0.4-1,2.7-2,3
				c-1,0.3-2.6-0.7-3.7-0.4c-1,0.2-2.3-0.7-3.4-0.5c-1.1,0.2-1.7,2.9-2.8,3c-1.1,0.1-2.3-2.2-3.4-2.2c-1.1,0-2.3,1.4-3.3,1.4
				c-1.1-0.1-1.9-1.7-3-1.9c-1.1-0.2-2.1-0.1-3.2-0.3c-1.1-0.2-2.3,0.1-3.3-0.2c-1-0.3-2.4-0.1-3.3-0.5c-1-0.4-1.4-1.6-2.3-2.1
				c-0.9-0.5-2.7-0.1-3.5-0.7c-0.9-0.6-1-1.8-1.7-2.5c-0.8-0.7-2.8-0.5-3.5-1.2c-0.7-0.7-1.6-1.5-2.1-2.3c-0.5-0.8,0.6-2.3,0.3-3.2
				c-0.4-0.9-0.3-1.8-0.4-2.7c0-0.1-0.1-0.3-0.1-0.4c0,0.1-0.1,0.3-0.2,0.4c-0.4,0.8-0.9,1.6-1.6,2.3c-0.7,0.7-1.6,1.2-2.5,1.7
				c-0.9,0.5-1.9,0.8-2.9,1.2c-1,0.3-1.9,0.9-3,1.1c-1,0.2-2.2,0.4-3.3,0.4c-1.1,0-2.2-0.4-3.2-0.6c-1.1-0.2-2.4,0-3.3-0.3
				c-1-0.4-1.7-1.3-2.6-1.8c-0.9-0.5-1.2-1.5-1.9-2.1c-0.7-0.7-1.5-1.2-1.9-2c-0.4-0.8-1.1-1.6-1.1-2.5c0-0.9-0.2-2,0.2-2.8
				c0.4-0.8,1.8-1.2,2.5-1.9c0.7-0.7,0.8-1.9,1.7-2.5c0.9-0.5,2.3-0.3,3.4-0.6c1-0.3,2-0.6,3.1-0.8c1-0.2,2.1-0.9,3.2-0.9
				c1.1,0,2.3,0.4,3.3,0.5c1.1,0.2,1.9,1.1,2.8,1.4c1,0.4,2.3,0.2,3.2,0.7c0.9,0.5,1.7,1.2,2.4,1.9c0.3,0.3,0.6,0.6,0.9,0.9
				c0.5-0.4,1.1-0.8,1.3-1.2c0.4-0.8-0.5-2.3,0.1-3c0.5-0.8,3.5-0.3,4.2-1c0.7-0.7-0.7-2.8,0.1-3.5c0.8-0.6,3.3,0.3,4.2-0.3
				c0.8-0.6,0.9-2,1.9-2.5c0.9-0.5,2.4-0.2,3.4-0.6c1-0.4,1.1-2.6,2.1-2.9c1-0.3,3,1.6,4,1.4c1-0.2,1.5-2.9,2.6-3
				c1.1-0.2,2.4,0.2,3.5,0.2c1.1-0.1,2.3,1.5,3.4,1.5c1.1,0,2.3-1.6,3.4-1.5c1.1,0.1,2,1.5,3.1,1.7c1.1,0.2,2,0.9,3,1.1
				c1.1,0.2,2.2,0.2,3.2,0.5c1,0.3,1.6,1.3,2.6,1.6c1,0.4,3.5-1.4,4.5-0.9c0.9,0.5,1.2,1.9,2.1,2.5c0.9,0.6,1.5,1.4,2.2,2.1
				c0.8,0.7,2.1,1,2.8,1.7c0.7,0.7,1.2,1.6,1.8,2.4c0.5,0.8-1.2,2.4-0.9,3.2c0.2,0.5,0.9,0.9,1.5,1.3c0.2-0.5,0.4-1.1,0.7-1.6
				c0.5-0.8-0.2-2.4,0.6-3.1c0.7-0.7,2.5-0.7,3.4-1.3c0.8-0.6,1.8-1.1,2.8-1.6c1-0.5,1.7-1.4,2.7-1.8c1-0.3,2-1.1,3.2-1.4
				c1.1-0.2,2.4-0.4,3.5-0.5c1.1-0.1,2.4,0.2,3.5,0.2c1.2,0,2.4-0.3,3.5-0.1c1.1,0.1,1.8,2.1,2.9,2.3c1.1,0.2,2.4-0.2,3.4,0.2
				c1.1,0.4,1.7,1.2,2.7,1.6c1,0.5,2.3,0.5,3.1,1.1c0.9,0.6,1.4,1.5,2.1,2.2c0.7,0.7,1.4,1.4,1.9,2.2c0.5,0.8,1.8,1.4,2.1,2.3
				C284.2,48.4,283.3,49.4,283.3,50.3z M242.2,52.8c-0.1-0.3-0.4-0.6-0.6-0.9c-0.4,0.3-0.7,0.5-0.7,0.8c-0.1,0.6,0.6,1.3,1,1.9
				C242,54,242.3,53.3,242.2,52.8z"/>
			<path fill="#FFFFFF" d="M308.8,48.1c-0.4-0.8-0.7-1.4-1.4-2.1c-0.6-0.6-1.3-1.1-2.2-1.6c-0.8-0.5-1.4-1.2-2.4-1.5
				c-0.9-0.3-1.9-0.3-3-0.5c-1-0.2-1.9-0.6-3-0.6c-1.1,0-2.1-0.1-3.1,0c-1,0.2-2,0.6-2.9,0.9c-1,0.3-1.7,0.9-2.6,1.4
				c-0.9,0.5-2.2,0.6-2.8,1.2c-0.7,0.7-0.3,1.8-0.7,2.6c-0.4,0.8-0.7,1.5-0.7,2.3c0,0.9-0.5,1.8-0.1,2.6c0.4,0.8,1.7,1.1,2.4,1.8
				c0.6,0.6,0.7,1.8,1.5,2.3c0.8,0.5,1.8,1,2.7,1.4c0.9,0.3,2.1,0.1,3.2,0.3c1,0.2,2,0,3.1,0c1.1,0,2.1,0.2,3.1,0
				c1-0.2,2.1-0.3,3-0.6c1-0.3,1.5-1.2,2.4-1.7c0.9-0.5,1.8-0.8,2.5-1.4c0.7-0.7,1.7-1.2,2.1-2c0.4-0.8,0.4-1.7,0.4-2.6
				C310.3,49.5,309.2,48.9,308.8,48.1z"/>
		</g>
	</g>
</g>
</svg>
