<?xml version="1.0" encoding="utf-8"?>
<!-- Generator: Adobe Illustrator 19.2.1, SVG Export Plug-In . SVG Version: 6.00 Build 0)  -->
<svg version="1.1" id="Layer_1" xmlns="http://www.w3.org/2000/svg" xmlns:xlink="http://www.w3.org/1999/xlink" x="0px" y="0px"
	 width="310.3px" height="96.4px" viewBox="0 0 310.3 96.4" enable-background="new 0 0 310.3 96.4" xml:space="preserve">
<path fill="#E8E8E8" d="M296.4,70.1l-18.9-5.1L306.9,0h-18.8l-40.9,41.3c-7.8,7.9-18.5,12.4-29.7,12.4H41.3
	c-8.9,0-16.7,4.6-21.2,11.6c-1.7,2.6-4.2,4.7-7,5.9C8.7,73.2,6,75.2,6,77.9c0,8.3,20.1,11.3,21.5,11.3h180.1l-0.1,0.2l1.3-0.2h1.7
	l0.2-0.3l84.8-11.4C299.5,77.1,300.2,71.6,296.4,70.1z"/>
<path fill="none" d="M296.4,70.1l-18.9-5.1l-15.6-5.2c-8.1-2.7-16.5-4.5-25-5.5l-8.7-1l-0.8-0.9c-3.2,0.8-6.5,1.2-9.8,1.2H41.3
	c-8.9,0-16.7,4.6-21.2,11.6c-1.7,2.6-4.2,4.7-7,5.9C8.7,73.2,6,75.2,6,77.9c0,8.3,20.1,11.3,21.5,11.3h180.1l-0.1,0.2l1.3-0.2h1.7
	l0.2-0.3l84.8-11.4C299.5,77.1,300.2,71.6,296.4,70.1z"/>
<path fill="#FFFFFF" d="M288.9,0c-6.7,6.9-43.6,44.7-43.6,44.7h0c-6,4.3-12.9,7.3-20.1,8.9l-1.3,0.3l0.1-0.6
	c-1.6,0.2-3.2,0.4-4.8,0.5c0,0,0,0,0,0h-1.6H41.3c-0.5,0-0.9,0-1.4,0c0,0-0.1,0-0.1,0c-0.4,0-0.9,0.1-1.3,0.1c-0.1,0-0.1,0-0.2,0
	C37.8,54,37.4,54,37,54.1c-0.1,0-0.1,0-0.2,0c-0.4,0.1-0.9,0.2-1.3,0.3c0,0-0.1,0-0.1,0c-1.9,0.5-3.7,1.1-5.4,2
	c-3.3,2.9-5.3,7.2-5.3,11.9v2.2c0,8.8,7.2,15.9,15.9,15.9h188.4c0.3,0,0.6,0,0.9,0l2.4-0.3c7.2-1.5,12.6-8,12.6-15.6v-2.2
	c0-5.9-3.3-11.1-8.1-13.9l0,0c8.5,1,16.9,2.8,25,5.5l15.6,5.2L306.9,0H288.9z"/>
<path fill="#565468" d="M21,64.7h4.1l1.5,4.2c0,0-2.5,0-3.8,0.8c-1.4,0.8-2,1.5-2,1.5s-1.4-1.9-2-2.3c-0.7-0.4-2.2-0.4-2.2-0.4
	L21,64.7z M43.3,69.2v-0.8c0-0.6-0.5-1-1-1l0,0c-0.6,0-1,0.5-1,1v0.8c0,0.6,0.5,1,1,1l0,0C42.9,70.2,43.3,69.8,43.3,69.2z
	 M80.6,70.2h-0.5c-0.4,0-0.8-0.3-0.8-0.8v-1.3c0-0.4,0.3-0.8,0.8-0.8h0.5c0.4,0,0.8,0.3,0.8,0.8v1.3C81.3,69.9,81,70.2,80.6,70.2z
	 M76.9,70.2h-0.5c-0.4,0-0.8-0.3-0.8-0.8v-1.3c0-0.4,0.3-0.8,0.8-0.8h0.5c0.4,0,0.8,0.3,0.8,0.8v1.3C77.7,69.9,77.3,70.2,76.9,70.2z
	 M73.2,70.2h-0.5c-0.4,0-0.8-0.3-0.8-0.8v-1.3c0-0.4,0.3-0.8,0.8-0.8h0.5c0.4,0,0.8,0.3,0.8,0.8v1.3C74,69.9,73.6,70.2,73.2,70.2z
	 M69.5,70.2H69c-0.4,0-0.8-0.3-0.8-0.8v-1.3c0-0.4,0.3-0.8,0.8-0.8h0.5c0.4,0,0.8,0.3,0.8,0.8v1.3C70.3,69.9,70,70.2,69.5,70.2z
	 M65.9,70.2h-0.5c-0.4,0-0.8-0.3-0.8-0.8v-1.3c0-0.4,0.3-0.8,0.8-0.8h0.5c0.4,0,0.8,0.3,0.8,0.8v1.3C66.6,69.9,66.3,70.2,65.9,70.2z
	 M62.2,70.2h-0.5c-0.4,0-0.8-0.3-0.8-0.8v-1.3c0-0.4,0.3-0.8,0.8-0.8h0.5c0.4,0,0.8,0.3,0.8,0.8v1.3C62.9,69.9,62.6,70.2,62.2,70.2z
	 M58.5,70.2H58c-0.4,0-0.8-0.3-0.8-0.8v-1.3c0-0.4,0.3-0.8,0.8-0.8h0.5c0.4,0,0.8,0.3,0.8,0.8v1.3C59.3,69.9,58.9,70.2,58.5,70.2z
	 M54.8,70.2h-0.5c-0.4,0-0.8-0.3-0.8-0.8v-1.3c0-0.4,0.3-0.8,0.8-0.8h0.5c0.4,0,0.8,0.3,0.8,0.8v1.3C55.6,69.9,55.2,70.2,54.8,70.2z
	 M51.1,70.2h-0.5c-0.4,0-0.8-0.3-0.8-0.8v-1.3c0-0.4,0.3-0.8,0.8-0.8h0.5c0.4,0,0.8,0.3,0.8,0.8v1.3C51.9,69.9,51.6,70.2,51.1,70.2z
	 M46,70.2L46,70.2c-0.6,0-1-0.5-1-1v-0.8c0-0.6,0.5-1,1-1l0,0c0.6,0,1,0.5,1,1v0.8C47,69.8,46.5,70.2,46,70.2z M95.4,70.2L95.4,70.2
	c-0.6,0-1-0.5-1-1v-0.8c0-0.6,0.5-1,1-1l0,0c0.6,0,1,0.5,1,1v0.8C96.5,69.8,96,70.2,95.4,70.2z M131.2,70.2h-0.5
	c-0.4,0-0.8-0.3-0.8-0.8v-1.3c0-0.4,0.3-0.8,0.8-0.8h0.5c0.4,0,0.8,0.3,0.8,0.8v1.3C132,69.9,131.7,70.2,131.2,70.2z M127.6,70.2
	h-0.5c-0.4,0-0.8-0.3-0.8-0.8v-1.3c0-0.4,0.3-0.8,0.8-0.8h0.5c0.4,0,0.8,0.3,0.8,0.8v1.3C128.3,69.9,128,70.2,127.6,70.2z
	 M123.9,70.2h-0.5c-0.4,0-0.8-0.3-0.8-0.8v-1.3c0-0.4,0.3-0.8,0.8-0.8h0.5c0.4,0,0.8,0.3,0.8,0.8v1.3
	C124.7,69.9,124.3,70.2,123.9,70.2z M120.2,70.2h-0.5c-0.4,0-0.8-0.3-0.8-0.8v-1.3c0-0.4,0.3-0.8,0.8-0.8h0.5c0.4,0,0.8,0.3,0.8,0.8
	v1.3C121,69.9,120.6,70.2,120.2,70.2z M116.5,70.2H116c-0.4,0-0.8-0.3-0.8-0.8v-1.3c0-0.4,0.3-0.8,0.8-0.8h0.5
	c0.4,0,0.8,0.3,0.8,0.8v1.3C117.3,69.9,117,70.2,116.5,70.2z M112.9,70.2h-0.5c-0.4,0-0.8-0.3-0.8-0.8v-1.3c0-0.4,0.3-0.8,0.8-0.8
	h0.5c0.4,0,0.8,0.3,0.8,0.8v1.3C113.6,69.9,113.3,70.2,112.9,70.2z M109.2,70.2h-0.5c-0.4,0-0.8-0.3-0.8-0.8v-1.3
	c0-0.4,0.3-0.8,0.8-0.8h0.5c0.4,0,0.8,0.3,0.8,0.8v1.3C109.9,69.9,109.6,70.2,109.2,70.2z M105.5,70.2H105c-0.4,0-0.8-0.3-0.8-0.8
	v-1.3c0-0.4,0.3-0.8,0.8-0.8h0.5c0.4,0,0.8,0.3,0.8,0.8v1.3C106.3,69.9,105.9,70.2,105.5,70.2z M101.8,70.2h-0.5
	c-0.4,0-0.8-0.3-0.8-0.8v-1.3c0-0.4,0.3-0.8,0.8-0.8h0.5c0.4,0,0.8,0.3,0.8,0.8v1.3C102.6,69.9,102.2,70.2,101.8,70.2z M87.3,70.2
	L87.3,70.2c-0.6,0-1-0.5-1-1v-0.8c0-0.6,0.5-1,1-1l0,0c0.6,0,1,0.5,1,1v0.8C88.3,69.8,87.8,70.2,87.3,70.2z M214.1,70.2h-0.5
	c-0.4,0-0.8-0.3-0.8-0.8v-1.3c0-0.4,0.3-0.8,0.8-0.8h0.5c0.4,0,0.8,0.3,0.8,0.8v1.3C214.9,69.9,214.6,70.2,214.1,70.2z M210.5,70.2
	H210c-0.4,0-0.8-0.3-0.8-0.8v-1.3c0-0.4,0.3-0.8,0.8-0.8h0.5c0.4,0,0.8,0.3,0.8,0.8v1.3C211.2,69.9,210.9,70.2,210.5,70.2z
	 M206.8,70.2h-0.5c-0.4,0-0.8-0.3-0.8-0.8v-1.3c0-0.4,0.3-0.8,0.8-0.8h0.5c0.4,0,0.8,0.3,0.8,0.8v1.3
	C207.6,69.9,207.2,70.2,206.8,70.2z M203.1,70.2h-0.5c-0.4,0-0.8-0.3-0.8-0.8v-1.3c0-0.4,0.3-0.8,0.8-0.8h0.5c0.4,0,0.8,0.3,0.8,0.8
	v1.3C203.9,69.9,203.5,70.2,203.1,70.2z M199.4,70.2h-0.5c-0.4,0-0.8-0.3-0.8-0.8v-1.3c0-0.4,0.3-0.8,0.8-0.8h0.5
	c0.4,0,0.8,0.3,0.8,0.8v1.3C200.2,69.9,199.9,70.2,199.4,70.2z M195.8,70.2h-0.5c-0.4,0-0.8-0.3-0.8-0.8v-1.3c0-0.4,0.3-0.8,0.8-0.8
	h0.5c0.4,0,0.8,0.3,0.8,0.8v1.3C196.5,69.9,196.2,70.2,195.8,70.2z M192.1,70.2h-0.5c-0.4,0-0.8-0.3-0.8-0.8v-1.3
	c0-0.4,0.3-0.8,0.8-0.8h0.5c0.4,0,0.8,0.3,0.8,0.8v1.3C192.8,69.9,192.5,70.2,192.1,70.2z M188.4,70.2h-0.5c-0.4,0-0.8-0.3-0.8-0.8
	v-1.3c0-0.4,0.3-0.8,0.8-0.8h0.5c0.4,0,0.8,0.3,0.8,0.8v1.3C189.2,69.9,188.8,70.2,188.4,70.2z M184.7,70.2h-0.5
	c-0.4,0-0.8-0.3-0.8-0.8v-1.3c0-0.4,0.3-0.8,0.8-0.8h0.5c0.4,0,0.8,0.3,0.8,0.8v1.3C185.5,69.9,185.1,70.2,184.7,70.2z M181.1,70.3
	h-0.5c-0.4,0-0.8-0.3-0.8-0.8v-1.3c0-0.4,0.3-0.8,0.8-0.8h0.5c0.4,0,0.8,0.3,0.8,0.8v1.3C181.9,69.9,181.5,70.3,181.1,70.3z"/>
<path fill="#62A50A" d="M226.5,76.2H6.1c0.1-0.4,0.2-0.8,0.4-1.2h220c9.1,0,17.8-3.8,24.1-10.4l49.7-54.6l0.9,0.8l-49.7,54.6
	C245,72.3,235.9,76.2,226.5,76.2z M226.5,79.1H6.5c0.2,0.4,0.5,0.8,0.8,1.2h219.2c10.4,0,19-3.3,25-9.7l45.1-48.7l1.6-3.5
	l-47.6,51.4C244.8,75.9,236.5,79.1,226.5,79.1z M226.5,83.4H11.1c6.1,3.4,15.4,4.7,16.4,4.7h180.1l-0.1,0.2l1.3-0.2h1.7l0.2-0.3
	l84.8-11.4c4-0.5,4.7-5.9,0.9-7.4L277.5,64l15.6-34.5L251,73.9C244.6,80.6,235.7,83.4,226.5,83.4z"/>
<path fill="#A0CA23" d="M236.2,84.3c-1.2,0.6-2.5,1-3.8,1.3l-2.4,0.3c-0.3,0-0.6,0-0.9,0h-5.4L236.2,84.3z M245,70.6
	c0-0.2,0-0.4,0-0.6v-0.9c-5.4,3.7-11.9,5.7-18.5,5.7h-201c0.1,0.4,0.3,0.8,0.5,1.2h200.5C233.1,76.1,239.5,74.2,245,70.6z
	 M300.2,9.9l-43.6,47.9c0.4,0.1,0.9,0.3,1.3,0.4l43.2-47.5L300.2,9.9z M243.7,76.3c0.2-0.6,0.5-1.2,0.6-1.7c-5,2.9-11,4.4-17.9,4.4
	h-199c0.3,0.4,0.6,0.8,0.9,1.2h198.1C233,80.2,238.8,78.9,243.7,76.3z M298.1,18.3L260.4,59c0.4,0.1,0.9,0.3,1.3,0.4l34.8-37.6
	L298.1,18.3z M293.1,29.3l-29.2,30.8l13.6,4.5l0.3-0.7l-0.3-0.1L293.1,29.3z M241,80.6c-4.5,1.8-9.4,2.7-14.5,2.7H31.8
	c2.5,1.7,5.6,2.7,8.9,2.7h183l12.4-1.7C238,83.4,239.6,82.1,241,80.6z"/>
<path fill="none" d="M114.3,74.1h-7.2l8,0.8C115.1,74.5,114.8,74.1,114.3,74.1z"/>
<path fill="#E8E8E8" d="M116.5,94H88c-2.8,0-5-2.3-5-5v-9.9c0-2.8,2.3-5,5-5h83.5c0.4,0,0.8,0.4,0.8,0.8v0
	C172.3,85.4,127,94,116.5,94z"/>
<path fill="none" d="M85.4,92.6L85,93c0.8,0.6,1.8,1,3,1h26.3c0.4,0,0.8-0.4,0.8-0.8V74.9L85.4,92.6z"/>
<path fill="#FFFFFF" d="M115.1,74.9l-8-0.8H88c-2.8,0-5,2.3-5,5V89c0,1.6,0.8,3.1,2.1,4l0.4-0.4L115.1,74.9z"/>
<path fill="#62A50A" d="M164,82.3H83v-1.6h84.3L164,82.3z M83,86.4h72.2l4.5-1.6H83V86.4z M83.2,88.4H83V89c0,2.8,2.3,5,5,5h26.3
	c0.4,0,33.9-0.4,33.9-0.8v-4.8c-0.1,0-33.3,0-33.3,0.1H83.2z"/>
<polygon fill="none" points="83,88.4 83.2,88.4 92.5,88.4 95.9,86.4 83,86.4 "/>
<polygon fill="none" points="83,84.7 98.7,84.7 102.8,82.3 83,82.3 "/>
<path fill="none" d="M105.5,80.6l9.6-5.7l-8-0.8H88c-2.8,0-5,2.3-5,5v1.5H105.5z"/>
<polygon fill="#A0CA23" points="83,82.3 102.8,82.3 105.5,80.6 83,80.6 "/>
<polygon fill="#A0CA23" points="83,86.4 95.9,86.4 98.7,84.7 83,84.7 "/>
<path fill="#A0CA23" d="M83,88.4V89c0,1.6,0.8,3.1,2.1,4l0.4-0.4l7.1-4.2h-9.3H83z"/>
<path fill="none" d="M83,88.4h0.3h31.7c0,0,0.1-0.1,0.2-0.1v-2H83V88.4z"/>
<path fill="#E8E8E8" d="M39.8,75.9h-9.4l-0.1-0.8c-0.6-4-0.6-8.6,0-12.6l0.1-0.8h9.4l-0.2,1.2c-0.6,3.8-0.6,8.2,0,12L39.8,75.9z
	 M32.2,73.9h5.3c-0.4-3.3-0.4-6.9,0-10.3h-5.3C31.8,67,31.8,70.6,32.2,73.9z M222,72.3l0.2-1.2c0.6-3.8,0.6-8.2,0-12L222,58h9.4
	l0.1,0.8c0.6,4,0.6,8.6,0,12.6l-0.1,0.8H222z M224.3,70.3h5.3c0.4-3.3,0.4-7,0-10.3h-5.3C224.7,63.3,224.7,66.9,224.3,70.3z
	 M114.3,75.7l66-39c0,0,4.5-2.7,10.8-2.2c6.3,0.4,8.2,1.6,8.2,1.6l-51.7,44.8l-26.8,0.2L114.3,75.7z M251.4,67.3l2.7,1.9l28.5,0.1
	l26.8-20.8h-13.6L251.4,67.3z"/>
<path fill="none" d="M307.7,49.8l-11.9-1.3h13.6L307.7,49.8z M181.3,36.2h17.9l0.2-0.1c0,0-1.8-1.2-8.2-1.6
	C186.5,34.2,182.9,35.5,181.3,36.2z"/>
</svg>
