<?xml version="1.0" encoding="utf-8"?>
<!-- Generator: Adobe Illustrator 19.2.1, SVG Export Plug-In . SVG Version: 6.00 Build 0)  -->
<svg version="1.1" id="Pointer" xmlns="http://www.w3.org/2000/svg" xmlns:xlink="http://www.w3.org/1999/xlink" x="0px" y="0px" viewBox="0 0 50.7 43.7" style="enable-background:new 0 0 50.7 43.7;" xml:space="preserve">
<path id="Bubble" style="fill:#4014BA;" d="M29.8,0.9C22.5,0.8,15.9,4.5,12,10.1c-2.9,4.2-6.7,7.8-11.1,10.4L0,20.9l0.5,0.3
	c4.3,2.5,7.8,6.2,10,10.7c3.5,6.9,10.7,11.6,19,11.6c11.7,0,21.2-9.4,21.3-21.1C50.9,10.8,41.5,1.1,29.8,0.9z"/>
<path id="Texture" style="fill:#5818D3;" d="M38.7,31.6c-0.3-0.1-0.6-0.1-0.8-0.1C38.2,31.1,38.4,31.1,38.7,31.6z M48.8,25.8
	C48.8,25.8,48.8,25.8,48.8,25.8C48.8,25.8,48.8,25.8,48.8,25.8C48.8,25.8,48.8,25.8,48.8,25.8C48.8,25.8,48.8,25.8,48.8,25.8
	L48.8,25.8z M49.4,26.2c0-0.1,0-0.3-0.1-0.3c-0.1-0.1-0.3,0-0.4,0c0.1,0.1,0.3,0.3,0.4,0.4C49.3,26.2,49.3,26.2,49.4,26.2z M49.6,24
	c0,0.1-0.1,0.1-0.1,0.2c0,0,0.1,0,0.1,0c0.1-0.1,0.2-0.2,0.2-0.3c0,0,0,0-0.1-0.1C49.7,24,49.6,24,49.6,24z M50,20.5
	c0.2,0,0.3-0.1,0.4-0.3c-0.2,0-0.4,0-0.7,0.1C49.8,20.4,49.9,20.5,50,20.5z M49.9,18.7c0,0,0.1,0,0.1,0c0,0,0-0.1-0.1-0.1
	C49.9,18.5,49.9,18.6,49.9,18.7C49.9,18.6,49.9,18.7,49.9,18.7z M48.8,25.3c-0.2,0.2-0.2,0.3,0,0.5C48.9,25.6,49,25.5,48.8,25.3z
	 M49.1,23.2c0.2,0.1,0.4,0.1,0.6,0.2c0-0.1,0-0.1,0-0.2c-0.2-0.1-0.4-0.1-0.7-0.2C49.1,23.1,49.1,23.1,49.1,23.2z M48.8,25.3
	C48.8,25.3,48.8,25.3,48.8,25.3C48.8,25.3,48.8,25.3,48.8,25.3C48.8,25.3,48.8,25.3,48.8,25.3z M48.4,24.7c0.1,0.2,0.2,0.4,0.4,0.6
	C48.9,24.8,48.9,24.8,48.4,24.7z M48.8,25.3C48.8,25.3,48.8,25.3,48.8,25.3C48.8,25.3,48.8,25.3,48.8,25.3
	C48.8,25.3,48.8,25.3,48.8,25.3z M50,21.1c-0.1,0.2-0.2,0.3-0.3,0.6C50.3,21.5,50.4,21.4,50,21.1z M47.3,25.1c0,0,0.1,0,0.1,0.1
	c0,0,0-0.1,0-0.1C47.5,25,47.4,25,47.3,25.1C47.4,25,47.4,25,47.3,25.1z M47.5,18.9c-0.1-0.1-0.1-0.1-0.2-0.2c0,0-0.1,0.1-0.1,0.1
	C47.3,18.9,47.3,18.9,47.5,18.9C47.4,18.9,47.5,18.9,47.5,18.9z M49.2,21.7c0.1,0.1,0.2,0.1,0.3,0.2c0,0,0-0.1,0.1-0.1
	C49.4,21.8,49.3,21.7,49.2,21.7C49.2,21.7,49.2,21.7,49.2,21.7z M47.2,18.2c0.1,0,0.2,0.1,0.3,0.1c0-0.1,0-0.1,0.1-0.2
	c-0.1,0-0.2,0-0.3-0.1C47.2,18.2,47.2,18.2,47.2,18.2z M47.3,23.7c-0.2,0.3-0.2,0.3-0.1,0.7C47.7,24.2,47.7,24.1,47.3,23.7z
	 M47.3,17.5c0,0,0.1-0.1,0.1-0.1c0,0-0.1,0-0.1,0c0,0-0.1,0.1-0.1,0.1C47.2,17.4,47.3,17.5,47.3,17.5z M48.6,15.4
	C48.6,15.4,48.5,15.4,48.6,15.4c-0.1,0-0.1,0-0.2,0C48.4,15.5,48.5,15.5,48.6,15.4C48.5,15.5,48.6,15.5,48.6,15.4z M48.7,18.7
	c0.2-0.1,0.4-0.2,0.6-0.3C49,18.1,48.8,18.3,48.7,18.7z M47.8,28c0.3,0.6,0.5,0.7,1.1,0.5c-0.3,0.6-0.5,1.1-0.7,1.6
	c-0.1,0.2-0.2,0.4-0.1,0.7c0.3-0.5,0.5-1,0.7-1.5c0.1-0.3,0.3-0.6,0.7-0.7c0.1,0,0.2-0.2,0.2-0.3c-0.1-0.3-0.3,0-0.5-0.1
	c-0.1-0.2-0.2-0.4-0.3-0.7c0.3-0.3-0.1-0.6,0-0.9c0-0.1-0.2-0.2-0.2-0.3c-0.2,0.3-0.3,0.5-0.5,0.9c0.2,0.2,0.4,0.4,0.6,0.5
	C48.6,28.4,48.2,28.2,47.8,28z M48.9,24c-0.2,0-0.4,0.1-0.6,0.1C48.6,24.4,48.8,24.4,48.9,24z M46.3,27.5c0.3,0.5,0.6,0.9,0.9,1.3
	c0.1,0,0.2,0,0.4,0c-0.2-0.4-0.4-0.9-0.7-1.4C46.8,27.5,46.6,27.5,46.3,27.5z M45.7,30.8c-0.6,0-0.9,0.4-1.2,0.7
	c0.5,0.4,1,0.6,1.5,0.5C45.4,31.8,45.6,31.3,45.7,30.8z M42.8,25.7c0,0-0.1-0.1-0.1-0.1c0,0.1-0.1,0.2-0.1,0.2c0,0,0.1,0.1,0.1,0.1
	C42.7,25.8,42.7,25.8,42.8,25.7z M42.9,21.3c0.6,0.4,0.6,0.3,0.8-0.2C43.4,21.2,43.2,21.3,42.9,21.3z M44.5,28.1
	c-0.2-0.1-0.4-0.2-0.7,0c0.2,0.2,0.4,0.3,0.6,0.4C44.7,28.4,44.7,28.2,44.5,28.1z M44.1,29.3c-0.2,0.3-0.3,0.4,0,0.6
	C44.1,29.7,44.1,29.6,44.1,29.3z M43.3,29.9c-0.4-0.3-0.4-0.6-0.4-1c0-0.2,0-0.3-0.2-0.3c0,0.3,0,0.6,0,0.8
	C42.7,29.9,42.8,30,43.3,29.9z M43.4,28.9c0,0-0.1,0.1-0.1,0.1c0.1,0.1,0.1,0.2,0.2,0.3c0,0,0.1-0.1,0.1-0.1
	C43.5,29.1,43.5,29,43.4,28.9z M44.4,23.7c-0.2,0-0.4,0-0.6,0C44,24,44.1,23.9,44.4,23.7z M43.2,30.5c0,0,0.1,0.1,0.1,0.1
	c0,0,0-0.1,0.1-0.1C43.4,30.4,43.3,30.4,43.2,30.5C43.3,30.4,43.3,30.5,43.2,30.5z M43,23.2c-0.1,0.3,0.1,0.4,0.3,0.6
	c0.2-0.3,0.4-0.5,0.5-0.8c0,0-0.1-0.1-0.1-0.1C43.6,23.1,43.2,22.8,43,23.2z M45.1,33.4c0,0.1,0.1,0.3,0.2,0.4c0,0,0.1,0,0.1,0
	c0-0.2,0-0.4,0-0.7C45.2,33.3,45.1,33.4,45.1,33.4z M46.8,29.6c0,0,0-0.1,0-0.1c0,0-0.1-0.1-0.1-0.1c0,0-0.1,0.1,0,0.1
	C46.6,29.5,46.7,29.5,46.8,29.6z M47.7,28.9C47.6,28.9,47.6,28.9,47.7,28.9C47.6,28.9,47.6,28.9,47.7,28.9
	C47.6,28.9,47.6,28.9,47.7,28.9C47.7,28.9,47.7,28.9,47.7,28.9L47.7,28.9z M46.7,26c0.2,0.5,0.6,0.6,1.1,0c-0.3,0-0.5-0.1-0.7-0.1
	C47.1,26.4,46.9,25.9,46.7,26z M47.6,28.9c-0.1,0.1-0.2,0.2-0.4,0.4c0.8-0.2,0.8-0.2,0.8-0.7C47.9,28.8,47.8,28.8,47.6,28.9z
	 M46.8,25.4c-0.1-0.1-0.2-0.2-0.3-0.2c0,0-0.1,0.1-0.1,0.1c0.1,0.1,0.2,0.1,0.3,0.2C46.8,25.4,46.8,25.4,46.8,25.4z M46.8,30.6
	c-0.2,0.1-0.3,0.1-0.7,0.2c0.5,0.2,0.3,0.8,0.8,0.8c0.2-0.3,0.4-0.6,0.6-1c-0.2-0.2-0.4-0.3-0.6-0.5C46.8,30.3,46.8,30.4,46.8,30.6z
	 M46.5,26.7c-0.1,0.1-0.2,0.2-0.4,0.5C46.7,27.1,46.7,27.1,46.5,26.7z M46.4,25.8c0-0.1,0-0.1-0.1-0.1c0,0-0.1,0-0.1,0.1
	c0,0,0,0.1,0,0.1C46.3,25.8,46.3,25.8,46.4,25.8z M45.9,28.6c-0.1-0.2-0.1-0.4-0.2-0.6c-0.3,0.6-0.2,0.8,0.6,1
	C46.4,28.7,46.1,28.7,45.9,28.6z M49.6,27.8c-0.1,0-0.1,0-0.2,0.1c0.1,0,0.2,0,0.3,0.1C49.7,27.9,49.7,27.8,49.6,27.8z M41.8,30.3
	c0,0,0-0.1,0.1-0.1c-0.1,0-0.1,0-0.2,0C41.7,30.2,41.7,30.3,41.8,30.3C41.8,30.3,41.8,30.3,41.8,30.3z M41.6,26.2
	C41.6,26.2,41.6,26.2,41.6,26.2c-0.1,0.1,0,0.1,0,0.2C41.7,26.3,41.7,26.3,41.6,26.2C41.7,26.2,41.7,26.2,41.6,26.2z M41.7,31.6
	C41.7,31.6,41.7,31.6,41.7,31.6C41.7,31.6,41.7,31.6,41.7,31.6C41.7,31.6,41.7,31.6,41.7,31.6C41.7,31.6,41.7,31.6,41.7,31.6
	C41.7,31.6,41.7,31.6,41.7,31.6C41.7,31.6,41.7,31.6,41.7,31.6L41.7,31.6L41.7,31.6L41.7,31.6L41.7,31.6z M42.1,20.9
	c-0.1-0.1-0.2-0.2-0.3-0.3C41.8,20.7,41.8,21,42.1,20.9z M41.7,31.9c0.3,0.1,0.6,0.4,1,0.3c0-0.3-0.1-0.4-0.3-0.4
	c-0.2,0-0.5,0-0.6-0.2C41.7,31.7,41.7,31.9,41.7,31.9z M42.5,31.5c0-0.1-0.1-0.3-0.2-0.5c0,0-0.1,0-0.1-0.1
	c-0.1,0.2-0.2,0.4-0.4,0.6c0.1,0,0.2,0,0.2,0C42.2,31.7,42.4,31.7,42.5,31.5z M43,17.9c-0.1-0.4-0.1-0.6-0.2-0.9
	c-0.3,0.4-0.3,0.5-0.2,0.7C42.7,17.8,42.8,17.8,43,17.9z M41.9,22.2C41.9,22.2,41.9,22.2,41.9,22.2c0.1,0,0.2,0,0.2-0.1
	c0,0-0.1-0.1-0.1-0.1C41.9,22.1,41.9,22.1,41.9,22.2z M43.3,19.1C43.2,19.1,43.2,19.1,43.3,19.1c-0.1-0.1-0.1,0-0.1,0
	C43.2,19.1,43.2,19.2,43.3,19.1C43.2,19.2,43.2,19.1,43.3,19.1z M42.8,18.5c-0.1-0.2-0.2-0.3-0.3-0.4c-0.3,0.2-0.3,0.2-0.1,0.6
	C42.5,18.6,42.6,18.5,42.8,18.5z M39.4,24.5c0.2-0.1,0.3-0.1,0.5-0.2c0,0,0-0.1-0.1-0.1c-0.2,0.1-0.3,0.1-0.5,0.2
	C39.3,24.4,39.4,24.4,39.4,24.5z M40.3,22.6c-0.1,0-0.2,0.1-0.4,0.1c0.1,0.2,0.1,0.4,0.2,0.7C40.6,23.1,40,22.8,40.3,22.6z
	 M40.3,18.4c-0.1,0-0.1,0-0.2,0c0,0,0,0.1,0,0.1c0.1,0,0.1,0,0.2,0C40.3,18.5,40.3,18.4,40.3,18.4z M43.6,20.6
	C43.5,20.6,43.5,20.5,43.6,20.6c-0.1,0-0.1,0-0.2,0C43.4,20.6,43.5,20.7,43.6,20.6C43.5,20.7,43.5,20.6,43.6,20.6z M39.4,23.6
	c0,0.1,0.1,0.1,0.2,0.2c0.1-0.1,0.1-0.2,0.1-0.3c0,0-0.1-0.1-0.1-0.1C39.5,23.5,39.4,23.5,39.4,23.6z M41.4,23
	c0.1,0.1,0.2,0.1,0.3,0.2c0,0,0-0.1,0.1-0.1C41.6,23.1,41.5,23,41.4,23C41.4,22.9,41.4,23,41.4,23z M41.6,17.4
	c-0.1,0-0.1-0.1-0.2-0.1c0,0-0.1,0.1-0.1,0.1c0,0,0.1,0.1,0.1,0.1C41.5,17.6,41.6,17.5,41.6,17.4z M41.4,19
	C41.4,19,41.4,18.9,41.4,19c-0.1-0.1-0.2-0.1-0.2,0c0,0,0,0.1,0,0.1C41.3,19,41.4,19,41.4,19z M41,17.7c0,0,0-0.1-0.1-0.1
	c-0.1,0-0.2,0-0.2,0.1c-0.1,0.1-0.1,0.1-0.1,0.2c0,0,0.1,0,0.1,0.1C40.8,17.9,40.9,17.8,41,17.7z M40.7,21.4
	c0.3-0.1,0.5-0.2,0.7-0.2c-0.1-0.2-0.2-0.4-0.5-0.3C40.7,20.9,40.6,21.1,40.7,21.4z M46.3,19.8c0.1-0.2,0.2-0.4,0.3-0.6
	c-0.2,0-0.4,0-0.7,0C45.9,19.5,45.9,19.8,46.3,19.8z M46.9,18.4c-0.3,0.2-0.3,0.4-0.2,0.7C46.8,19,46.9,18.7,46.9,18.4z M46.9,22.4
	c0,0-0.1-0.1-0.1-0.1c-0.2,0.1-0.4,0.2-0.6,0.3C46.7,22.7,46.8,22.6,46.9,22.4z M45.3,24.3c-0.2,0.4-0.3,0.8-0.5,1.1
	c0.2,0.2,0.4,0.4,0.8,0.3c-0.2-0.1-0.3-0.2-0.4-0.3c0.1-0.2,0.3-0.3,0.4-0.4c0.1-0.1,0.1-0.2,0.1-0.3c-0.1-0.3,0.1-0.4,0.3-0.5
	c-0.1-0.1-0.1-0.2-0.2-0.2C45.6,24.1,45.3,24.1,45.3,24.3z M46.6,19.1L46.6,19.1C46.6,19.1,46.6,19.1,46.6,19.1
	C46.6,19.1,46.6,19.1,46.6,19.1z M46,24.1c0.2,0.1,0.4,0.3,0.7,0.5C46.5,24.2,46.3,24,46,24.1z M46,24.1C46,24.1,46,24.1,46,24.1
	L46,24.1C46,24.1,46,24.1,46,24.1C46,24.2,46,24.2,46,24.1C46,24.2,46,24.2,46,24.1z M46.6,16.5c-0.1-0.1-0.1-0.2-0.2-0.3
	c0,0-0.1,0-0.2,0c0.1,0.2,0.2,0.3,0.3,0.4C46.6,16.5,46.6,16.5,46.6,16.5z M43.9,17.4c0,0-0.1,0-0.1,0c0,0.1,0,0.2-0.1,0.2
	c0,0,0.1,0,0.1,0C43.8,17.6,43.8,17.5,43.9,17.4z M46.6,19.1C46.6,19.1,46.6,19.1,46.6,19.1C46.6,19.1,46.6,19.1,46.6,19.1
	L46.6,19.1z M46.2,17C46.2,17,46.2,17,46.2,17c-0.1,0-0.1,0-0.1,0C46.1,17.1,46.1,17.1,46.2,17C46.2,17.1,46.2,17,46.2,17z
	 M46.5,21.2c-0.1,0-0.2,0.1-0.3,0.1c0,0.1,0.1,0.2,0.1,0.2c0.1,0,0.2-0.1,0.3-0.1C46.5,21.3,46.5,21.2,46.5,21.2z M44.6,19.7
	C44.6,19.6,44.5,19.6,44.6,19.7c-0.1,0-0.1,0-0.2,0c0,0,0.1,0,0.1,0.1C44.6,19.7,44.6,19.7,44.6,19.7z M44.5,20.4c0,0,0-0.1,0-0.1
	c0,0,0-0.1-0.1-0.1C44.4,20.2,44.4,20.3,44.5,20.4C44.4,20.3,44.4,20.4,44.5,20.4z M44.2,21.8c0,0,0,0.1-0.1,0.1
	c0.2,0.1,0.3,0.1,0.4,0.2C44.5,21.8,44.5,21.8,44.2,21.8z M43.6,22.5c0.1,0,0.3,0,0.4,0c0,0,0-0.1,0.1-0.2c-0.2,0.1-0.4,0.1-0.5,0.1
	C43.5,22.4,43.6,22.5,43.6,22.5z M45.3,20.6C45.3,20.6,45.3,20.6,45.3,20.6c-0.1-0.1-0.2,0-0.2,0c0,0.1,0,0.1,0.1,0.2
	C45.3,20.7,45.3,20.6,45.3,20.6z M45.3,22.1c-0.1-0.1-0.1-0.2-0.2-0.3c0,0-0.1,0-0.1,0.1c0,0.1,0.1,0.2,0.1,0.3
	C45.2,22.2,45.2,22.2,45.3,22.1z M45.5,16.8c0-0.1-0.1-0.2-0.1-0.3c-0.1,0-0.1,0-0.2,0c0,0.1,0.1,0.2,0.1,0.3
	C45.4,16.8,45.5,16.8,45.5,16.8z M44.8,23.6c0-0.1,0.1-0.2,0.1-0.3c0,0-0.1,0-0.1,0c0,0.1-0.1,0.2-0.1,0.3
	C44.8,23.6,44.8,23.6,44.8,23.6z M44.5,22.7c0,0.1,0.1,0.1,0.1,0.2c0,0,0.1-0.1,0.1-0.1C44.7,22.7,44.6,22.7,44.5,22.7
	C44.5,22.6,44.5,22.7,44.5,22.7z M32.8,24.1c0,0.1,0,0.1,0.1,0.2c0.1,0,0.1,0,0.1-0.1C33,24.1,32.9,24,32.8,24.1
	C32.9,24,32.8,24,32.8,24.1z M39.7,28C39.7,28,39.7,28,39.7,28C39.7,28,39.7,28,39.7,28C39.7,28,39.7,28,39.7,28z M39.7,28
	c-0.1-0.1-0.2-0.2-0.2-0.3c-0.3,0.5-0.3,0.5,0.2,0.7C39.7,28.3,39.7,28.1,39.7,28L39.7,28L39.7,28C39.7,28,39.7,28,39.7,28z
	 M38.5,34c0,0,0.1,0.1,0.1,0.1c0,0,0-0.1,0.1-0.1C38.6,33.9,38.6,33.9,38.5,34C38.5,33.9,38.5,33.9,38.5,34z M40.1,27.6
	c-0.4,0-0.4,0.2-0.4,0.4C39.8,27.9,39.9,27.8,40.1,27.6z M38.7,31.9c0-0.1,0-0.1,0-0.2c-0.1,0-0.2,0-0.3,0c0,0,0,0.1,0,0.1
	C38.5,31.9,38.6,31.9,38.7,31.9z M38.8,33c-0.2,0.1-0.3,0.2-0.4,0.3c0,0,0,0.1,0.1,0.1c0.1-0.1,0.2-0.1,0.4-0.2
	C38.8,33.2,38.8,33.1,38.8,33z M41.4,29.6C41.4,29.6,41.5,29.6,41.4,29.6c0.1-0.1,0.1-0.1,0.1-0.2C41.4,29.5,41.4,29.5,41.4,29.6
	C41.4,29.5,41.4,29.6,41.4,29.6z M40.7,22.2c0.1,0,0.2,0.1,0.3,0.1c0,0,0-0.1,0.1-0.1C41,22.1,40.9,22.1,40.7,22.2
	C40.7,22.1,40.7,22.1,40.7,22.2z M40.4,26.6c0,0,0,0.1-0.1,0.1c0,0,0.1,0.1,0.1,0.1c0,0,0.1-0.1,0.1-0.1
	C40.5,26.7,40.5,26.6,40.4,26.6z M40.9,23.5C40.9,23.5,40.8,23.6,40.9,23.5c-0.1,0.1,0,0.1,0,0.2C40.9,23.6,40.9,23.6,40.9,23.5
	C40.9,23.5,40.9,23.5,40.9,23.5z M41.6,36.2c-0.1,0-0.3,0-0.3,0.1c-0.2,0.4-0.4,0.7-0.3,1.3c0.3-0.4,0.6-0.7,0.9-1.1
	C41.8,36.4,41.7,36.3,41.6,36.2z M36.3,32.9C36.2,32.9,36.2,32.9,36.3,32.9c-0.1,0.1,0,0.1,0,0.2C36.3,33,36.3,33,36.3,32.9
	C36.3,32.9,36.3,32.9,36.3,32.9z M35,30.6c0,0,0,0.1,0.1,0.1c0,0,0.1,0,0.2-0.1c0-0.1-0.1-0.1-0.1-0.2C35.1,30.5,35.1,30.5,35,30.6z
	 M35.4,31.4c-0.3,0.1-0.3,0.2-0.2,0.5c0.2,0,0.4,0,0.7,0C35.7,31.3,35.7,31.3,35.4,31.4z M40.5,35.1c-0.1,0.4-0.5,0.8,0,1.2
	C41.1,35.8,41.1,35.5,40.5,35.1z M36.6,33.5c0-0.1-0.1-0.1-0.1-0.1c-0.1,0-0.1,0.1-0.2,0.1c0,0,0,0.1,0.1,0.1
	C36.4,33.6,36.5,33.5,36.6,33.5z M36.6,32.1c-0.2,0.1-0.4,0.1-0.6,0.1c-0.2,0-0.4,0.1-0.6,0.1c0.1,0.3,0.3,0.5,0.5,0.9
	c0.1-0.6,0.5-0.8,1.1-0.8c0.3,0,0.6-0.1,1-0.2C37.4,32,37,32,36.6,32.1z M37.9,28.7c0,0.1-0.1,0.1-0.1,0.2c0.1,0,0.2-0.1,0.3-0.1
	C38,28.7,37.9,28.7,37.9,28.7z M38.5,32.5c0-0.1-0.1-0.2-0.1-0.2c-0.2,0-0.2,0.2-0.2,0.3C38.4,32.8,38.5,32.7,38.5,32.5z M37.6,34.2
	c0,0,0.1-0.1,0.1-0.1c-0.1-0.1-0.2-0.1-0.2-0.2c0,0-0.1,0.1-0.1,0.1C37.5,34,37.5,34.1,37.6,34.2z M40.5,28.5c0.1,0,0.2,0,0.3,0
	c0,0,0-0.1,0-0.1c-0.1,0-0.2,0-0.3,0C40.5,28.3,40.5,28.4,40.5,28.5z M33.1,26.8c0,0.1,0,0.2,0,0.3c0.1,0,0.1,0,0.2,0
	c0-0.1,0-0.2-0.1-0.3C33.3,26.8,33.2,26.8,33.1,26.8z M33.9,26c-0.1,0-0.1,0.1-0.1,0.2c0,0,0.1,0.1,0.1,0.1c0.1,0,0.1-0.1,0.2-0.2
	C34,26,33.9,25.9,33.9,26z M33.8,25.1c0.3,0.1,0.5,0.1,0.8,0.2c-0.1-0.3-0.2-0.4-0.3-0.5C34.1,24.9,34,25,33.8,25.1z M32.1,28.1
	c0.3-0.2,0.5-0.3,0.8-0.5c-0.4-0.1-0.6-0.2-0.9-0.2C32,27.7,32,27.9,32.1,28.1z M39.5,20.6c-0.2,0-0.3,0-0.6,0
	c0.1,0.4,0.3,0.4,0.5,0.4c0.1,0,0.2-0.1,0.2-0.2C39.6,20.8,39.6,20.7,39.5,20.6z M32.8,26.6C32.8,26.6,32.9,26.6,32.8,26.6
	c0.1-0.1,0-0.1,0-0.1C32.8,26.5,32.8,26.5,32.8,26.6C32.8,26.6,32.8,26.6,32.8,26.6z M34.6,31.1c-0.2-0.2-0.3-0.3-0.4-0.4
	C34.2,31,34.2,31,34.6,31.1z M41.1,28.5c0.1,0,0.2,0.1,0.2,0.1c0,0,0.1,0,0.1-0.1c0-0.1,0-0.1,0-0.2C41.3,28.4,41.3,28.4,41.1,28.5z
	 M34.3,26.9c-0.1,0-0.2,0-0.3,0c0,0,0,0.1,0,0.1c0.1,0,0.2,0,0.3,0C34.3,26.9,34.3,26.9,34.3,26.9z M34.8,26.6c-0.1,0-0.1,0-0.1,0
	c0,0,0,0.1,0,0.1c0,0,0.1,0,0.1,0.1C34.8,26.7,34.8,26.6,34.8,26.6z M33.4,24.8c0.1-0.1,0.2-0.1,0.2-0.2c-0.1,0-0.2,0-0.3,0
	C33.3,24.8,33.3,24.8,33.4,24.8z M40.3,27.6c0.2,0.2,0.3,0.3,0.5,0.4c0.2-0.3,0.4-0.5,0.6-0.8c0-0.1-0.1-0.2-0.2-0.4
	C40.7,27.5,40.7,27.5,40.3,27.6z M32.7,28.6c0,0.1,0,0.2,0,0.3c0,0,0.1,0,0.1,0c0-0.1,0-0.2,0-0.3C32.8,28.6,32.8,28.6,32.7,28.6z
	 M41.4,24c-0.1-0.1-0.1-0.1-0.2-0.2c0,0-0.1,0.1-0.1,0.1c0,0,0,0.1,0.1,0.1C41.2,24.1,41.3,24.1,41.4,24z M39.7,26.6
	c0.4-0.2,0.7-0.5,1-0.7c-0.2-0.2-0.4-0.5-0.8-0.4C39.9,25.9,39.8,26.3,39.7,26.6z M40.6,24.9c-0.2,0.1-0.4,0.2-0.7,0.3
	c0.3,0.1,0.4,0.2,0.6,0.3C40.6,25.2,40.6,25.1,40.6,24.9z M39.1,33.4c0.1,0,0.1,0,0.2,0c0-0.2,0.1-0.4,0.1-0.6
	c-0.1-0.1-0.3-0.2-0.5-0.4C39,32.8,39.1,33.1,39.1,33.4z M38.4,30.8c0.1-0.1,0.1-0.2,0.2-0.3c0.3,0,0.4,0.3,0.5,0.5
	c0.1,0.2,0.1,0.5,0.2,0.6c0.5,0.3,0.4,0.6,0.1,1c0,0,0,0.1,0,0.1c0.7-0.1,0.6-0.7,0.7-1.3c-0.2,0-0.3,0-0.5,0c0.4-0.4,0.7-0.7,1-1.1
	c-0.2-0.1-0.4-0.2-0.6-0.3c-0.2,0.4-0.2,0.8-0.7,0.6c-0.1-0.2-0.2-0.4-0.3-0.5c0.1-0.1,0.3-0.2,0.4-0.3c-0.2-0.2-0.1-0.6-0.6-0.7
	c0-0.1,0-0.3,0.1-0.5c-0.5,0.6-0.5,0.6,0,1.1c-0.3,0.3-0.6,0.7-1.2,0.7C38.1,30.6,38.2,30.7,38.4,30.8z M34.9,29.5
	c0,0-0.1,0-0.1,0.1c0,0,0.1,0,0.1,0.1C34.9,29.6,34.9,29.6,34.9,29.5C34.9,29.6,34.9,29.5,34.9,29.5z M39.4,32.8
	C39.4,32.8,39.4,32.8,39.4,32.8L39.4,32.8C39.4,32.8,39.4,32.8,39.4,32.8C39.4,32.8,39.4,32.8,39.4,32.8
	C39.4,32.8,39.4,32.8,39.4,32.8z M42.5,24.4C42.5,24.4,42.5,24.4,42.5,24.4C42.5,24.4,42.5,24.4,42.5,24.4
	C42.5,24.4,42.5,24.4,42.5,24.4C42.5,24.4,42.5,24.4,42.5,24.4z M43.8,24.8C43.8,24.8,43.8,24.8,43.8,24.8
	C43.8,24.8,43.8,24.8,43.8,24.8C43.8,24.8,43.8,24.8,43.8,24.8z M43.8,24.8C43.8,24.8,43.8,24.8,43.8,24.8
	C43.8,24.8,43.8,24.8,43.8,24.8L43.8,24.8z M42.8,19.6c0-0.1,0-0.1,0-0.1c-0.1,0-0.1,0-0.2,0c0,0,0,0.1,0,0.1
	C42.7,19.6,42.8,19.6,42.8,19.6z M43.6,31c0.1,0,0.3,0.1,0.4,0.1c0.1-0.2,0.2-0.3,0-0.5C43.8,30.7,43.6,30.7,43.6,31z M43.8,24.8
	c-0.1-0.1-0.1-0.2-0.2-0.2c-0.1-0.1-0.3-0.1-0.4-0.2c-0.2-0.2-0.4-0.2-0.6,0C42.9,24.5,43.3,24.9,43.8,24.8z M44.4,24.6
	c-0.2,0.1-0.4,0.1-0.6,0.2c0.2,0.1,0.3,0.3,0.6,0.5C44.4,25,44.4,24.8,44.4,24.6z M42.4,26.5C42.4,26.5,42.4,26.5,42.4,26.5
	C42.4,26.5,42.4,26.5,42.4,26.5C42.4,26.5,42.4,26.5,42.4,26.5z M42.3,26.2c0,0.1,0,0.2,0,0.3c0-0.1,0.1-0.2,0.1-0.3
	C42.4,26.2,42.4,26.2,42.3,26.2z M42.4,26.5c-0.1,0.1-0.1,0.3,0.2,0.5C42.5,26.7,42.4,26.6,42.4,26.5z M42.5,20.2c0,0,0.1,0,0.1,0.1
	c0,0,0-0.1,0-0.1C42.6,20.2,42.6,20.1,42.5,20.2C42.5,20.1,42.5,20.2,42.5,20.2z M42.4,26.5C42.4,26.5,42.4,26.5,42.4,26.5
	C42.4,26.5,42.4,26.5,42.4,26.5L42.4,26.5z M44.5,25.7c-0.2,0-0.4-0.1-0.6-0.1c0,0,0,0.1,0,0.1c0.2,0.1,0.3,0.3,0.5,0.5
	c-0.1,0.1-0.1,0.2-0.2,0.3c0.4,0.1,0.8,0.1,1,0.4c0.3-0.2,0.4-0.4,0.3-0.7C44.8,26.3,44.8,26.3,44.5,25.7z M42.5,24.7
	c0-0.1,0-0.2,0-0.3c0,0.1-0.1,0.1-0.1,0.2C42.4,24.7,42.4,24.7,42.5,24.7z M44,31.1c-0.1,0.1-0.2,0.3-0.4,0.5
	C44.1,31.4,44.1,31.4,44,31.1z M44,31.1C44,31.1,44,31.1,44,31.1L44,31.1C44,31.1,44,31.1,44,31.1C44,31.1,44,31.1,44,31.1
	C44,31.1,44,31.1,44,31.1z M43.2,27.2c0,0.2-0.1,0.4-0.2,0.6c0,0,0.1,0,0.1,0.1c0.3-0.4,0.7-0.9,1-1.3c-0.3,0-0.6,0-0.9,0
	C43.3,26.8,43.2,27,43.2,27.2z M45.3,30.1c0,0,0,0.1,0.1,0.2c0,0,0.1-0.1,0.2-0.1c0-0.1-0.1-0.1-0.1-0.2
	C45.4,30.1,45.3,30.1,45.3,30.1z M44.2,26.5C44.2,26.5,44.2,26.5,44.2,26.5C44.2,26.5,44.2,26.5,44.2,26.5
	C44.2,26.5,44.2,26.5,44.2,26.5z M45.2,27.6c0.3,0.1,0.5,0.1,0.8,0.2C45.8,27.1,45.7,27.1,45.2,27.6z M44.2,26.5
	C44.2,26.5,44.2,26.5,44.2,26.5C44.2,26.5,44.2,26.5,44.2,26.5L44.2,26.5z M40.6,33.2C40.6,33.2,40.6,33.2,40.6,33.2
	C40.6,33.2,40.6,33.2,40.6,33.2C40.6,33.2,40.6,33.2,40.6,33.2C40.6,33.2,40.6,33.2,40.6,33.2z M41,32.8C41,32.8,41,32.8,41,32.8
	c0.1,0,0.1,0.1,0.2,0.1c0.5,0.1,0.7,0.4,0.6,0.8c0.3-0.1,0.4-0.2,0.3-0.5c-0.1-0.2,0-0.4,0.1-0.5c-0.3-0.3-0.7-0.4-1.1-0.1
	c0-0.4,0-0.7,0-1.1c-0.6,0-0.6,0.1-0.6,0.5c0.1,0,0.3,0,0.5-0.1c-0.2,0.3-0.2,0.5-0.3,0.6c0,0.1,0.1,0.1,0.1,0.2
	C40.8,32.8,40.9,32.8,41,32.8z M41.7,34.2C41.7,34.2,41.7,34.2,41.7,34.2C41.7,34.2,41.7,34.2,41.7,34.2
	C41.7,34.2,41.7,34.2,41.7,34.2z M39.7,36.5C39.7,36.5,39.7,36.5,39.7,36.5C39.7,36.5,39.7,36.5,39.7,36.5L39.7,36.5z M41.1,30.5
	c-0.3,0.4-0.3,0.7-0.1,1C41.3,31.2,41.3,30.9,41.1,30.5z M40.6,32.5c-0.2,0.2-0.1,0.4,0,0.6c0-0.1,0.1-0.3,0.1-0.4
	C40.7,32.7,40.6,32.6,40.6,32.5z M41.7,33.7C41.7,33.7,41.7,33.7,41.7,33.7C41.7,33.7,41.7,33.7,41.7,33.7
	C41.7,33.7,41.7,33.7,41.7,33.7L41.7,33.7z M41.1,31.5C41.1,31.5,41.1,31.5,41.1,31.5C41.1,31.5,41.1,31.5,41.1,31.5
	C41.1,31.5,41.1,31.5,41.1,31.5z M41.8,26.9c0.1,0.2,0.2,0.3,0.3,0.4c0,0,0.1,0.1,0.3,0.1C42.1,27,42.1,27,41.8,26.9z M39.7,36.5
	C39.7,36.5,39.7,36.5,39.7,36.5C39.7,36.5,39.7,36.5,39.7,36.5C39.7,36.5,39.7,36.5,39.7,36.5z M41.1,31.5
	C41.1,31.5,41.1,31.5,41.1,31.5C41.1,31.5,41.1,31.5,41.1,31.5L41.1,31.5z M40.2,36.5c-0.2,0-0.4,0-0.6,0
	C39.8,36.8,40,36.8,40.2,36.5z M42.7,30.8c-0.1,0.3,0.1,0.4,0.3,0.6C43,31.2,43.1,30.9,42.7,30.8z M41.7,33.7
	C41.7,33.7,41.7,33.7,41.7,33.7C41.7,33.7,41.7,33.7,41.7,33.7C41.7,33.7,41.7,33.7,41.7,33.7L41.7,33.7c-0.4-0.2-0.8-0.3-1.2-0.5
	c-0.1,0.2-0.1,0.3,0,0.4c0.3,0.3,0.1,0.5-0.3,0.6c-0.2,0-0.3,0.1-0.5,0.2c-0.1-0.1-0.2-0.3-0.4-0.4c0,0.1-0.4,0.3-0.5,0.4
	c-0.2,0.2-0.4,0.3-0.6,0.2c-0.1,0.5-0.2,0.9-0.8,0.8c-0.1,0-0.2,0.1-0.3,0.2c-0.3,0.3-0.3,0.8-0.1,1.1c0.3,0.5,0.3,0.5,1.1,0.4
	c-0.2-0.1-0.3-0.3-0.4-0.3c-0.2,0-0.5-0.1-0.4-0.4c0-0.1,0.2-0.3,0.4-0.3c0.1-0.1,0.3-0.1,0.4-0.1c0.1,0.3,0.3,0.5,0.2,0.7
	c-0.1,0.4,0.1,0.5,0.3,0.7c0.2,0.2,0.4,0.5,0.7,0.4c-0.1-0.3-0.1-0.5-0.2-0.8c-0.1,0-0.2-0.1-0.4-0.2c0.3-0.4,0.5-0.2,0.7,0
	c0.1-0.2,0.1-0.4,0.2-0.6c-0.2,0-0.4,0-0.6,0c-0.1-0.2-0.2-0.4-0.3-0.6c0.1-0.2,0.2-0.4,0.4-0.7c0.6,0,0.6,0,1.3-0.3
	c0.1,0,0.2,0,0.3-0.1c0.4,0.3,0.2,0.8,0.3,1.3c0.2-0.3,0.4-0.5,0.5-0.8c-0.3-0.2-0.4-0.4-0.1-0.7c-0.2,0-0.3,0-0.5,0
	c0.2-0.3,0.3-0.2,0.5,0c0,0,0,0,0,0C42.1,34,42.1,34,41.7,33.7z M42.5,29.2c0,0-0.1-0.1-0.1-0.1c0,0-0.1,0-0.1,0.1
	c0,0,0,0.1,0.1,0.3C42.4,29.3,42.5,29.2,42.5,29.2z M43,31.4C43,31.4,43,31.4,43,31.4C43,31.4,43,31.4,43,31.4
	C43,31.4,43,31.4,43,31.4z M43.4,31.6c0-0.1-0.2-0.2-0.4-0.2c0,0.2,0,0.3,0,0.5c0,0.2-0.1,0.4-0.1,0.6c0,0,0,0.1,0.1,0.1
	c0.1-0.1,0.2-0.2,0.4-0.3c0,0.2,0.1,0.4,0.1,0.5c0.3-0.1,0.5-0.3,0.7-0.4c-0.1-0.1-0.1-0.1-0.2-0.1C43.6,32.2,43.3,32,43.4,31.6z
	 M43,31.4C43,31.4,43,31.4,43,31.4C43,31.4,43,31.4,43,31.4L43,31.4z M42.8,35.4c0,0,0.1-0.2,0.1-0.2c-0.2-0.3-0.3-0.2-0.5,0
	C42.5,35.5,42.6,35.6,42.8,35.4z M42.5,36.5c0-0.1,0-0.1,0.1-0.2c0,0-0.1,0-0.1,0c-0.1,0.1-0.1,0.2-0.2,0.4c0,0,0.1,0,0.1,0
	C42.4,36.6,42.4,36.6,42.5,36.5z M42.2,36c0-0.2,0-0.3,0-0.4C42,35.8,42,35.8,42.2,36z M9.5,17.9c0,0,0-0.1-0.1-0.1
	c-0.2,0.1-0.3,0.2-0.5,0.3c0,0,0,0.1,0.1,0.1C9.2,18.1,9.3,18,9.5,17.9z M15.3,31.7c0,0,0.1,0,0.1,0.1c0.1-0.1,0.1-0.3,0.2-0.4
	c0,0-0.1,0-0.1-0.1C15.4,31.4,15.3,31.5,15.3,31.7z M15.3,29.9c0,0,0.1,0,0.1-0.1c0,0-0.1-0.1-0.1-0.1
	C15.4,29.8,15.3,29.8,15.3,29.9C15.3,29.9,15.3,29.9,15.3,29.9z M16.5,27.6C16.5,27.6,16.5,27.6,16.5,27.6
	C16.5,27.6,16.5,27.6,16.5,27.6C16.5,27.6,16.5,27.6,16.5,27.6L16.5,27.6C16.5,27.6,16.5,27.6,16.5,27.6
	C16.5,27.6,16.5,27.6,16.5,27.6C16.5,27.6,16.5,27.6,16.5,27.6z M15.1,15.1c0-0.1,0-0.1,0-0.2c0,0-0.1,0-0.1,0c0,0-0.1,0.1,0,0.1
	C15,15,15.1,15.1,15.1,15.1z M15.3,19.3c0-0.1,0-0.2,0-0.2c-0.1,0-0.1,0-0.2,0C15.2,19.2,15.2,19.2,15.3,19.3z M16.2,16.2
	c-0.1,0.1-0.2,0.2-0.4,0.3C16.2,16.5,16.2,16.5,16.2,16.2z M15,16.4c0.1,0,0.1-0.1,0.2-0.2c-0.1-0.1-0.3-0.1-0.5-0.3
	C14.8,16.2,14.8,16.4,15,16.4z M16.3,21C16.3,21,16.4,20.9,16.3,21c0.1-0.1,0-0.2,0-0.2c0,0-0.1,0.1-0.1,0.1
	C16.2,20.9,16.3,20.9,16.3,21z M16.8,17.1c0,0,0-0.2,0-0.2c-0.1-0.2-0.3-0.2-0.5,0C16.5,17.1,16.6,17.3,16.8,17.1z M16.5,27.2
	c0-0.3-0.1-0.5-0.3-0.6c-0.3-0.1-0.5,0.2-0.5,0.4c0.3,0.2,0.6,0.5,0.8,0.7C16.5,27.5,16.5,27.3,16.5,27.2z M16.8,28.1
	c0.1-0.4-0.2-0.4-0.3-0.5c-0.1,0.1-0.2,0.1-0.4,0.2C16.4,28,16.6,28,16.8,28.1z M13.5,18.3c-0.2,0.1-0.3,0.1-0.4,0.2
	C13.4,18.6,13.4,18.6,13.5,18.3z M12.3,27.5c0.3,0.1,0.5,0.1,0.8,0.2C12.9,27.1,12.8,27.1,12.3,27.5z M14.3,21.9
	c-0.3,0.2-0.6-0.3-0.8,0.3C14.2,22.4,14.2,22.4,14.3,21.9z M12,23.8c-0.5-0.1-0.5-0.1-0.8,0.4c0.2,0,0.5,0,0.8-0.1
	c0.1,0.3,0.3,0.6,0.9,0.7c-0.2-0.2-0.3-0.4-0.4-0.6c0-0.1,0.1-0.2,0.1-0.4C12.4,23.9,12.2,23.9,12,23.8z M12.1,23.1
	C12.1,23.1,12.1,23.1,12.1,23.1c0.1,0.1,0.1,0,0.2,0C12.2,23.1,12.2,23,12.1,23.1C12.2,23,12.1,23.1,12.1,23.1z M14.3,19.7
	c0.1,0,0.2,0,0.2-0.1c0-0.1-0.1-0.2-0.1-0.2c-0.1,0-0.1,0-0.3,0.1C14.2,19.6,14.2,19.7,14.3,19.7z M13.8,20.8c0,0,0.1,0.1,0.1,0.1
	c0.1,0,0.1-0.1,0.2-0.2c-0.1,0-0.2-0.1-0.2-0.1C13.9,20.7,13.9,20.8,13.8,20.8z M15.2,21.1c-0.5-0.1-0.5-0.1-0.9,0.5
	C14.6,21.6,14.6,21.6,15.2,21.1z M14,16.3c0-0.2,0-0.4,0-0.5C13.9,15.9,13.6,16,14,16.3z M21.3,21.3C21.3,21.3,21.3,21.3,21.3,21.3
	c0-0.1,0-0.1,0-0.1C21.2,21.2,21.2,21.2,21.3,21.3C21.2,21.3,21.2,21.3,21.3,21.3z M18.1,25c0-0.1-0.2-0.2-0.3-0.2
	c0,0-0.2,0.1-0.2,0.2c0,0.2,0,0.4,0.1,0.7C18.1,25.4,18.2,25.3,18.1,25z M19.8,21.8C19.8,21.8,19.8,21.8,19.8,21.8
	c0.1,0,0.1-0.1,0.1-0.1c0,0-0.1,0-0.1,0C19.7,21.7,19.7,21.8,19.8,21.8z M18.6,23.4c0.4,0.1,0.8,0.2,1.2,0.3c0-0.2,0-0.5,0.1-0.7
	c-0.3,0-0.6,0.1-0.9,0.1C18.8,23.1,18.7,23.2,18.6,23.4z M18.9,19.8c-0.3-0.1-0.5-0.2-0.8-0.3c0,0.1,0,0.3,0,0.3
	C18.4,20,18.6,20.1,18.9,19.8z M16.7,19.2c0,0.1-0.1,0.1-0.1,0.2c0,0,0.1,0,0.1,0.1c0-0.1,0.1-0.1,0.1-0.2
	C16.8,19.3,16.8,19.2,16.7,19.2z M19.5,16.9c0.1,0.1,0.1,0.2,0.2,0.4C19.8,17,19.8,17,19.5,16.9z M20.4,21.7c0,0,0.1-0.1,0.1-0.1
	c-0.1-0.1-0.1-0.1-0.1-0.1c0,0-0.1,0.1-0.1,0.1C20.3,21.6,20.3,21.7,20.4,21.7z M21,16.3c0,0,0.1,0,0.1-0.1
	c-0.1-0.1-0.2-0.2-0.4-0.3C20.6,16.2,20.8,16.2,21,16.3z M19.1,20.5c-0.4,0.1-0.4,0.4-0.6,0.5c-0.2,0.2-0.5,0.2-0.8,0.3
	C18.6,21.5,18.6,21.5,19.1,20.5z M21,20.4c0.1,0,0.1,0.1,0.2,0.1c0,0,0.1-0.1,0.1-0.1c0,0-0.1-0.1-0.1-0.1C21,20.3,21,20.3,21,20.4z
	 M20.7,20.1c0,0,0-0.1,0-0.2c-0.3,0.1-0.4,0.2-0.3,0.6C20.6,20.3,20.6,20.2,20.7,20.1z M20.4,23C20.4,23,20.3,23,20.4,23
	c-0.1,0-0.2,0.1-0.2,0.2c0,0,0.1,0,0.1,0C20.3,23.2,20.4,23.1,20.4,23z M17.1,18c0.1,0,0.1-0.1,0.2-0.1c-0.1-0.1-0.1-0.1-0.2-0.1
	c-0.1,0-0.1,0.1-0.1,0.1C17,17.9,17.1,18,17.1,18z M17.3,19.8c0,0,0.1,0,0.1,0c0-0.1-0.1-0.2-0.1-0.2c0,0-0.1,0-0.1,0
	C17.3,19.6,17.3,19.7,17.3,19.8z M39.6,19.4c-0.9,0.4-0.9,0.4-0.7,0.8C39.1,20,39.3,19.7,39.6,19.4z M16.6,21.5
	c0.1,0.1,0.3,0.2,0.5,0.4c0.1-0.2,0.2-0.4,0.1-0.5c-0.2-0.2-0.2-0.6-0.5-0.7C16.7,21,16.7,21.3,16.6,21.5z M16.8,25.5
	c0.3,0,0.5,0.1,0.7,0.1c-0.1-0.3-0.2-0.4-0.3-0.7C17,25.1,16.9,25.3,16.8,25.5z M18.1,27.1c0,0,0-0.1,0-0.2c-0.1,0-0.2,0-0.3,0
	c-0.1-0.2-0.2-0.4-0.3-0.4c-0.2,0-0.3,0.2-0.6,0.4C17.5,27,17.7,27.4,18.1,27.1z M12.4,19.3c0-0.1,0-0.1,0-0.2
	c-0.1,0-0.1,0.1-0.2,0.2C12.3,19.3,12.4,19.3,12.4,19.3z M15.9,24.9c0.1,0.1,0.2,0.3,0.3,0.4c0.2,0.1,0.4,0,0.4-0.3
	c-0.2-0.1-0.4-0.2-0.6-0.2C15.9,24.8,15.9,24.9,15.9,24.9z M16.9,23.3c-0.1-0.1-0.2-0.1-0.3-0.2c0,0,0,0.1-0.1,0.1
	c0.1,0.1,0.2,0.1,0.2,0.2C16.8,23.4,16.9,23.4,16.9,23.3z M14.1,14.7c-0.1-0.1-0.1-0.1-0.2-0.2c0,0,0,0-0.1,0.1
	C13.9,14.6,14,14.7,14.1,14.7C14,14.7,14.1,14.7,14.1,14.7z M6.8,18.8c-0.4,0-0.4,0-0.6,0.2c0.1,0,0.3,0,0.4,0
	C6.6,18.9,6.6,18.9,6.8,18.8z M6.2,20.9c0,0.2,0.1,0.4,0.1,0.6c0,0,0.1,0,0.1,0c0.1-0.3,0.1-0.5,0.2-0.9C6.5,20.7,6.4,20.8,6.2,20.9
	z M4.9,19.5c-0.1,0-0.1,0-0.2,0c0,0.2,0,0.3,0,0.5c0.1,0,0.1,0,0.2,0C4.9,19.9,4.9,19.7,4.9,19.5z M6.2,23.6c0,0,0.1-0.1,0.2-0.1
	c-0.1,0-0.1-0.1-0.2-0.1c0,0-0.1,0.1-0.1,0.1C6.1,23.6,6.1,23.6,6.2,23.6z M5,18.7c0-0.1,0.1-0.1,0.1-0.2c0-0.1-0.1-0.1-0.2-0.2
	c-0.1,0.1-0.1,0.2-0.1,0.3C4.9,18.6,5,18.6,5,18.7z M6.6,25.3c0,0,0.1,0.1,0.1,0.1c0,0,0.1,0,0.1-0.1C6.8,25.3,6.7,25.3,6.6,25.3
	C6.6,25.2,6.6,25.3,6.6,25.3z M7.7,22.4C7.8,22.3,7.9,22.2,8,22c0,0-0.1,0-0.1-0.1c-0.1,0.1-0.2,0.3-0.3,0.4
	C7.6,22.4,7.7,22.4,7.7,22.4z M8,25.2C8,25.2,8.1,25.2,8,25.2c0.1,0,0.1-0.1,0.2-0.1c0,0,0-0.1-0.1-0.1C8,24.9,8,25,8,25
	C8,25,8,25.1,8,25.2z M7.8,21.1C7.5,21,7.3,21,7.1,21.2C7.4,21.2,7.6,21.2,7.8,21.1z M7,20.8c0,0,0.1-0.1,0.1-0.1
	c0,0-0.1-0.1-0.1-0.1C7,20.7,7,20.7,7,20.8C7,20.8,7,20.9,7,20.8z M8.2,23.5c0,0-0.1,0-0.1,0c0,0.1,0,0.2,0,0.3c0,0,0.1,0,0.1,0
	C8.2,23.6,8.2,23.6,8.2,23.5z M3.2,21.6C3.2,21.6,3.2,21.6,3.2,21.6L3.2,21.6C3.2,21.6,3.2,21.6,3.2,21.6z M3.2,21.6
	C3.2,21.6,3.2,21.6,3.2,21.6C3.2,21.6,3.2,21.6,3.2,21.6L3.2,21.6z M3.3,21c0,0.2,0,0.4-0.1,0.6C3.5,21.4,3.5,21.2,3.3,21z
	 M3.4,21.9c-0.1-0.2-0.2-0.3-0.2-0.4C3.1,21.8,3.1,21.8,3.4,21.9z M4.4,19C4.4,19,4.4,19,4.4,19C4.4,19,4.4,19,4.4,19L4.4,19z
	 M4.2,18.7c0,0-0.1,0.1-0.1,0.1c0.1,0.1,0.2,0.1,0.2,0.2C4.3,18.9,4.3,18.8,4.2,18.7z M4.4,21.8c0,0.1,0.1,0.1,0.1,0.2
	c0,0,0.1,0,0.2-0.1c0-0.1-0.1-0.2-0.1-0.2C4.5,21.8,4.4,21.8,4.4,21.8z M4.4,19C4.4,19,4.4,19,4.4,19C4.4,19,4.4,19,4.4,19
	C4.4,19,4.4,19,4.4,19z M4.5,19.3c0-0.1-0.1-0.2-0.1-0.3c0,0.1,0,0.2,0,0.3C4.4,19.3,4.5,19.3,4.5,19.3z M8.5,26.6
	c0,0,0,0.1,0.1,0.2c0.1-0.1,0.1-0.2,0.2-0.3c0,0-0.1-0.1-0.1-0.1C8.6,26.5,8.6,26.6,8.5,26.6z M11.1,16.5c0,0-0.1-0.1-0.1-0.1
	c0,0-0.1,0.1-0.1,0.1c0,0,0.1,0.1,0.1,0.1C11,16.6,11.1,16.5,11.1,16.5z M11.9,16.3c0.2-0.2,0.4-0.4,0.7-0.6c-0.5,0-0.9,0-1.1,0
	c0.1,0.2,0.2,0.5,0.3,0.7C11.8,16.4,11.8,16.3,11.9,16.3z M10.4,19.5c0,0,0-0.1-0.1-0.1c-0.2,0.1-0.5,0.1-0.5,0.5
	C10.1,19.7,10.3,19.6,10.4,19.5z M10.6,25.6c0.2,0.1,0.4,0.2,0.7,0.3c-0.1-0.2-0.1-0.4-0.2-0.6c0.2,0,0.4,0,0.7,0
	c-0.3-0.2-0.5-0.4-0.7-0.6c-0.3-0.3-0.2-0.4-0.7,0C10.7,24.9,10.9,25.2,10.6,25.6z M10.7,18.4c0-0.3,0-0.4-0.1-0.5
	c0-0.1-0.1-0.2-0.2-0.3c0,0-0.1,0-0.1,0.1c0,0.1-0.1,0.3,0,0.3C10.3,18.2,10.5,18.2,10.7,18.4z M11.3,16.9
	C11.3,16.9,11.3,16.9,11.3,16.9c-0.1-0.1-0.1,0-0.2,0C11.2,16.9,11.2,17,11.3,16.9C11.2,17,11.3,17,11.3,16.9z M11.6,22.8
	c0,0,0.1,0,0.1,0c0,0,0-0.1-0.1-0.1C11.6,22.7,11.5,22.7,11.6,22.8C11.5,22.8,11.5,22.8,11.6,22.8z M11.4,19.8
	c0.2-0.1,0.4-0.1,0.6-0.1C11.6,19.4,11.6,19.4,11.4,19.8z M11,18.8c0,0,0,0.1-0.1,0.1c0.2,0.1,0.4,0.2,0.5,0.3c0,0,0-0.1,0.1-0.1
	C11.4,18.8,11.2,18.8,11,18.8z M7.4,22.8c0.1,0,0.2,0,0.3,0c0,0,0-0.1,0-0.1c-0.1,0-0.2-0.1-0.3-0.1C7.4,22.7,7.4,22.7,7.4,22.8z
	 M12.3,15.1c0-0.1,0-0.1,0-0.2c0,0-0.1,0-0.1-0.1C12.2,14.9,12.2,15,12.3,15.1C12.2,15.1,12.2,15.1,12.3,15.1z M7.1,24.8
	c0,0-0.1,0-0.1,0c0,0,0.1,0.1,0.1,0.1C7.1,24.9,7.2,24.9,7.1,24.8C7.2,24.9,7.2,24.8,7.1,24.8z M7.2,25.6
	C7.2,25.7,7.3,25.7,7.2,25.6c0.1,0,0.1,0,0.1,0C7.3,25.6,7.3,25.6,7.2,25.6C7.3,25.6,7.2,25.6,7.2,25.6z M7,21.6
	c0,0,0.1,0.1,0.1,0.1c0,0,0-0.1,0.1-0.1C7.2,21.6,7.1,21.6,7,21.6C7.1,21.6,7,21.6,7,21.6z M7.7,24c-0.1-0.2-0.1-0.4-0.2-0.7
	C7.3,24,7.3,24,7.7,24z M8.4,27.2C8.4,27.1,8.4,27.1,8.4,27.2c-0.1-0.1-0.1,0-0.2,0C8.3,27.2,8.3,27.2,8.4,27.2
	C8.4,27.2,8.4,27.2,8.4,27.2z M11.7,21.5c0,0.1,0.2,0.2,0.3,0.3c0-0.2,0.1-0.4,0.1-0.5C11.9,21.2,11.7,21.2,11.7,21.5z M10,15.8
	c0,0,0-0.1,0-0.1c-0.2,0.1-0.4,0.1-0.7,0.2c0,0.1,0,0.1,0,0.2C9.5,16,9.8,15.9,10,15.8z M33.6,24.7C33.6,24.7,33.6,24.7,33.6,24.7
	C33.6,24.7,33.6,24.7,33.6,24.7C33.6,24.7,33.6,24.7,33.6,24.7z M8.7,22.8c0,0-0.1-0.1-0.1-0.1c0,0-0.1,0.1-0.1,0.1
	c0,0,0.1,0.1,0.1,0.1C8.6,22.9,8.7,22.9,8.7,22.8z M16.9,22.7c0-0.4,0-0.6-0.4-0.7C16.3,22.3,16.5,22.5,16.9,22.7z M32.2,22.7
	c0.1-0.1,0.2-0.2,0.3-0.2c0,0,0-0.1-0.1-0.1c-0.1,0.1-0.2,0.1-0.3,0.2C32.1,22.6,32.1,22.6,32.2,22.7z M32.9,22.2
	c-0.1,0.2-0.2,0.4-0.2,0.6c0.3-0.1,0.5-0.2,0.7-0.2C33.2,22.5,33.1,22.4,32.9,22.2z M32.2,24.5c0.1,0.1,0.3,0.3,0.4,0.4
	c0,0,0.1-0.1,0.1-0.1c-0.1-0.3-0.2-0.6-0.2-0.9c-0.1,0-0.1,0-0.2,0C32.3,24.2,32.3,24.3,32.2,24.5z M31.7,22.1
	C31.7,22.1,31.7,22.1,31.7,22.1c-0.1-0.1-0.1,0-0.2,0C31.6,22.2,31.6,22.2,31.7,22.1C31.7,22.2,31.7,22.2,31.7,22.1z M32.4,26.1
	c0-0.1,0.1-0.1,0.1-0.2c-0.4,0-0.2-0.6-0.7-0.6c0,0.2-0.1,0.4-0.1,0.7C31.9,26,32.2,26,32.4,26.1z M32.2,20.6
	c-0.1-0.1-0.1-0.1-0.2-0.1c0,0-0.1,0.1-0.1,0.1c0,0,0,0.1,0.1,0.1C32,20.8,32.1,20.7,32.2,20.6z M34.9,28.3
	C34.9,28.3,34.9,28.3,34.9,28.3C34.9,28.3,34.9,28.3,34.9,28.3C34.9,28.3,34.9,28.3,34.9,28.3z M33.3,21.7c-0.1,0-0.1-0.1-0.2-0.1
	c0,0-0.1,0.1-0.1,0.1c0,0.1,0.1,0.1,0.2,0.1C33.2,21.8,33.3,21.8,33.3,21.7z M34.9,28.3C34.9,28.3,34.9,28.3,34.9,28.3
	C34.9,28.3,34.9,28.3,34.9,28.3c0.1,0.2,0.3,0.3,0.4,0.5c0-0.2,0-0.4,0-0.7c0.4,0.3,0.8,0.5,1.2,0.8c-0.1,0.2-0.2,0.5-0.3,0.7
	c0.4,0,0.4,0,0.7,0.4c0.3-0.4,0.3-0.4,0.2-0.7c-0.2-0.5-0.5-0.9-0.2-1.6c-0.8,0.4-0.9,0.4-1.3-0.1C35.4,27.8,34.9,27.7,34.9,28.3
	L34.9,28.3z M34.9,21.6c0-0.1-0.1-0.1-0.1-0.2c-0.2,0.5-0.7-0.2-0.9,0.3c0.2,0.1,0.4,0.2,0.7,0.4C34.7,21.9,34.8,21.8,34.9,21.6z
	 M30.8,21c-0.2-0.1-0.3-0.1-0.5-0.2c-0.1,0-0.2,0-0.3,0c0,0.1,0.1,0.2,0.2,0.3C30.4,21.3,30.6,21.3,30.8,21z M21.5,15.6
	c0,0-0.1-0.1-0.1-0.1c0,0-0.1,0.1-0.1,0.1c0,0,0,0.1,0.1,0.3C21.5,15.7,21.5,15.6,21.5,15.6z M30.8,28.8c-0.1,0.2-0.1,0.4-0.2,0.6
	c0.5-0.4,0.5-0.4,0.3-0.8c-0.1-0.1-0.1-0.2-0.2-0.3c-0.1,0-0.3,0-0.4,0c-0.1,0.2-0.2,0.4-0.3,0.5c-0.1,0.1-0.4,0.1-0.6,0.1
	C30,29.7,30.3,28.8,30.8,28.8z M31.5,20.1C31.5,20.1,31.4,20,31.5,20.1c-0.1,0-0.1,0-0.1,0C31.4,20.1,31.4,20.1,31.5,20.1
	C31.4,20.1,31.5,20.1,31.5,20.1z M29.1,25.4C29.2,25.4,29.2,25.3,29.1,25.4c0.1-0.1,0-0.1,0-0.1C29.1,25.3,29.1,25.3,29.1,25.4
	C29.1,25.3,29.1,25.4,29.1,25.4z M31,27.6c-0.1,0.2-0.1,0.5-0.2,0.7C31.3,28,31.4,27.9,31,27.6z M30.8,28.3L30.8,28.3
	C30.8,28.3,30.8,28.3,30.8,28.3C30.8,28.3,30.8,28.3,30.8,28.3z M34.9,28.9c0-0.2,0-0.4,0-0.6C34.7,28.6,34.7,28.6,34.9,28.9z
	 M30.7,22.5c0.2-0.2,0.3-0.5,0.5-0.7c-0.1,0-0.1-0.1-0.2-0.1c-0.2,0.2-0.4,0.5-0.4,0.8C30.6,22.4,30.7,22.4,30.7,22.5z M30.8,28.3
	C30.8,28.3,30.8,28.3,30.8,28.3C30.8,28.3,30.8,28.3,30.8,28.3L30.8,28.3z M29.7,25.1c-0.1-0.1-0.1-0.4-0.5-0.4
	c0.2,0.2,0.3,0.4,0.4,0.5C29.6,25.1,29.6,25.1,29.7,25.1z M36.7,31.4C36.7,31.4,36.7,31.4,36.7,31.4L36.7,31.4
	C36.7,31.4,36.7,31.4,36.7,31.4z M35.9,29.7c-0.2,0.7,0.2,1.2,0.5,1.6c0,0.1,0.2,0,0.3,0c-0.1-0.3-0.2-0.5-0.2-0.8
	C36.4,30.2,36.2,29.9,35.9,29.7z M37.4,22c-0.3-0.2-0.5-0.4-0.9-0.1C37.2,22.2,37.2,22.2,37.4,22z M37.5,31.2
	c-0.3,0.1-0.6,0.1-0.8,0.2C37.2,31.7,37.3,31.7,37.5,31.2z M36.7,31.4C36.7,31.4,36.7,31.4,36.7,31.4C36.7,31.4,36.7,31.4,36.7,31.4
	L36.7,31.4z M37.2,20.3c0.1,0,0.1,0,0.2-0.1c0,0-0.1-0.1-0.1-0.2C37.2,20.1,37.1,20.1,37.2,20.3C37.1,20.2,37.2,20.3,37.2,20.3z
	 M38.8,26.9c0-0.2,0-0.3,0-0.4c-0.3-0.2-0.4-0.5-0.2-1c-0.2,0.1-0.4,0.1-0.4,0.2c0.1,0.5-0.4,0.6-0.6,0.9
	C38.4,26.5,38.4,26.5,38.8,26.9z M38.5,22.9c-0.1,0-0.1-0.1-0.2-0.1c0,0,0,0.1-0.1,0.1C38.3,22.9,38.3,22.9,38.5,22.9
	C38.4,22.9,38.4,22.9,38.5,22.9z M38.9,23.8c0-0.1,0-0.1,0-0.2c-0.1,0-0.2,0.1-0.3,0.1c0,0,0,0.1,0,0.1
	C38.7,23.8,38.8,23.8,38.9,23.8z M38.2,24.2c0,0,0-0.1-0.1-0.1c0,0-0.1,0.1-0.1,0.1C38,24.2,38.1,24.2,38.2,24.2
	C38.1,24.3,38.2,24.2,38.2,24.2z M36.8,26c0.1,0,0.1,0.1,0.2,0.1c0.1,0,0.1-0.1,0.3-0.1c-0.2-0.1-0.2-0.2-0.3-0.2
	C36.9,25.8,36.8,25.9,36.8,26z M35.9,24c-0.1,0.1-0.2,0.2-0.2,0.3c0,0,0.1,0.1,0.1,0.1c0.1-0.1,0.2-0.1,0.3-0.2
	C35.9,24.1,35.9,24,35.9,24z M36.1,22.4c0,0-0.1,0.1-0.1,0.1c0,0,0,0.1,0.1,0.2c0.1-0.1,0.2-0.2,0.1-0.2
	C36.2,22.5,36.1,22.4,36.1,22.4z M35.8,26.8C35.8,26.9,35.9,26.9,35.8,26.8c0.1,0,0.2,0,0.2,0c0,0-0.1-0.1-0.1-0.1
	C35.9,26.8,35.8,26.8,35.8,26.8z M36.1,23c-0.3,0.1-0.5,0.1-0.7,0.2C35.7,23.4,35.7,23.4,36.1,23z M36.6,20.7c0-0.1,0-0.1-0.1-0.1
	c0,0-0.1,0.1-0.1,0.1c0,0,0,0.1,0,0.1C36.5,20.8,36.5,20.8,36.6,20.7z M35.1,19.7C35.1,19.7,35.1,19.7,35.1,19.7
	C35,19.8,35,19.9,35,20c0,0,0,0,0.1,0C35.1,19.9,35.1,19.8,35.1,19.7z M36.4,23.8C36.4,23.8,36.4,23.7,36.4,23.8
	c0.1-0.1,0.1-0.2,0.1-0.3c0,0-0.1,0-0.1,0C36.4,23.5,36.4,23.6,36.4,23.8z M36.1,25.6c-0.2,0-0.4,0.2-0.5,0.6
	c0.3-0.2,0.4-0.3,0.6-0.4C36.1,25.7,36.1,25.6,36.1,25.6z M36.4,21.7c-0.4-0.1-0.6-0.1-0.9,0C35.8,22,36,22.1,36.4,21.7z M29.1,29.6
	C29.1,29.6,29.1,29.5,29.1,29.6c0-0.1,0-0.2,0-0.2c0,0-0.1,0-0.1,0.1C29,29.5,29.1,29.6,29.1,29.6z M24.2,24.2c-0.2,0-0.5,0-0.8,0
	c-0.1,0-0.2,0.1-0.2,0.2C23.9,24.5,23.9,24.5,24.2,24.2z M23,24.6c0.1,0,0.1-0.1,0.2-0.1c-0.1,0-0.2,0-0.2,0
	C22.9,24.5,23,24.5,23,24.6z M23.3,20.9c-0.3,0.4-0.3,0.5-0.1,0.8C23.3,21.4,23.3,21.1,23.3,20.9z M23.2,24.4
	C23.2,24.4,23.2,24.4,23.2,24.4L23.2,24.4C23.2,24.4,23.2,24.4,23.2,24.4C23.2,24.4,23.2,24.4,23.2,24.4
	C23.2,24.4,23.2,24.4,23.2,24.4z M28.8,28.4c0.1,0,0.2,0,0.3,0c0-0.1,0-0.1,0-0.2c-0.1,0-0.2,0-0.3,0C28.8,28.3,28.8,28.4,28.8,28.4
	z M24,23.5c0,0,0.1,0.1,0.2,0c0.2-0.1,0.2-0.3,0-0.4C24,23.2,23.9,23.3,24,23.5z M24,20.9c-0.1,0-0.2-0.1-0.2-0.1c0,0,0,0.1-0.1,0.1
	c0.1,0,0.2,0.1,0.3,0.1C24,21,24,20.9,24,20.9z M24.3,25c0,0,0.1,0,0.1,0c0-0.1,0-0.2-0.1-0.3c0,0-0.1,0-0.1,0
	C24.3,24.8,24.3,24.9,24.3,25z M24.9,25.9C24.9,26,24.9,26,24.9,25.9c0.1,0,0.1,0,0.1,0C25,25.9,24.9,25.9,24.9,25.9
	C24.9,25.9,24.9,25.9,24.9,25.9z M23,16.9c0,0-0.1,0-0.1,0c0,0.1,0,0.2,0,0.3c0,0,0.1,0,0.1,0C23,17.1,23,17,23,16.9z M25.1,28.3
	c0.2-0.8,0.2-0.9-0.5-0.8C25,27.6,24.7,28.2,25.1,28.3z M22.3,20.5C22.3,20.5,22.3,20.4,22.3,20.5c-0.1-0.1-0.1,0-0.2,0
	C22.2,20.5,22.2,20.6,22.3,20.5C22.3,20.6,22.3,20.5,22.3,20.5z M21.9,18.3C21.9,18.3,21.9,18.3,21.9,18.3c-0.1-0.1-0.1,0-0.2,0
	C21.8,18.3,21.8,18.4,21.9,18.3C21.9,18.4,21.9,18.4,21.9,18.3z M22.1,15.8c0,0-0.1,0-0.2,0c0,0.1,0.1,0.1,0.1,0.2
	C22.1,15.9,22.1,15.9,22.1,15.8z M21.9,23.8C21.9,23.8,21.8,23.8,21.9,23.8c-0.1,0-0.2,0.1-0.3,0.2c0,0,0.1,0.1,0.1,0.1
	C21.8,24,21.9,23.9,21.9,23.8z M22.5,22.9L22.5,22.9L22.5,22.9C22.5,22.9,22.5,22.9,22.5,22.9L22.5,22.9z M22.2,23.2
	c0.3,0.1,0.3-0.2,0.4-0.3C22.4,22.9,22.2,22.9,22.2,23.2z M22.5,22.9C22.5,22.9,22.5,22.9,22.5,22.9C22.5,22.9,22.5,22.9,22.5,22.9
	C22.5,22.9,22.5,22.9,22.5,22.9z M22,22.5c0.2,0.1,0.4,0.3,0.6,0.4c0,0,0,0,0,0c0.1,0,0.2-0.1,0.3-0.1C22.5,22,22.3,22,22,22.5z
	 M22.9,25.5C22.9,25.4,22.9,25.4,22.9,25.5c0-0.1,0-0.1,0-0.1C22.8,25.4,22.8,25.4,22.9,25.5C22.8,25.4,22.8,25.5,22.9,25.5z
	 M23.8,21.7C23.7,21.7,23.7,21.7,23.8,21.7c-0.1,0-0.1,0-0.2,0C23.6,21.8,23.7,21.8,23.8,21.7C23.7,21.8,23.7,21.8,23.8,21.7z
	 M26.6,21.6c-0.2,0.1-0.4,0.1-0.6,0.2c0.2,0.4,0.5,0.6,0.9,0.6c0.2,0,0.3,0.2,0.5,0.3c0,0,0,0,0,0c0.1,0,0.1,0,0.3-0.1
	c-0.5-0.3-0.9-0.6-1.2-0.9C26.5,21.7,26.6,21.6,26.6,21.6z M26.9,23.1c0.2-0.1,0.3-0.3,0.5-0.4C27.1,22.7,27,22.8,26.9,23.1z
	 M27.2,23.8c-0.1-0.3-0.2-0.5-0.3-0.6C26.7,23.5,26.7,23.5,27.2,23.8z M27.4,22.7C27.4,22.7,27.4,22.7,27.4,22.7
	C27.4,22.7,27.4,22.7,27.4,22.7C27.4,22.7,27.4,22.7,27.4,22.7z M25,21.8c0.3-0.2,0.4-0.3,0.1-0.6C25.1,21.4,25.1,21.6,25,21.8z
	 M26.9,23.1C26.9,23.1,26.9,23.1,26.9,23.1C26.9,23.1,26.9,23.1,26.9,23.1C26.9,23.1,26.9,23.1,26.9,23.1
	C26.9,23.1,26.9,23.1,26.9,23.1z M28.2,20.8C28.2,20.8,28.1,20.7,28.2,20.8c-0.1,0-0.1,0-0.2,0.1c0,0,0.1,0.1,0.1,0.1
	C28.1,20.9,28.2,20.9,28.2,20.8z M27.6,24.7c0.2,0,0.3-0.1,0.4-0.1C27.9,24.5,27.7,24.4,27.6,24.7z M28.8,24.5
	c-0.2,0.2-0.4,0.4-0.6,0.6C28.8,25.2,28.8,25.2,28.8,24.5z M28.4,21.9c0-0.3-0.1-0.5-0.5-0.5C28.1,21.8,28.1,21.8,28.4,21.9z
	 M27.4,22.7C27.4,22.7,27.4,22.7,27.4,22.7C27.4,22.7,27.4,22.7,27.4,22.7S27.4,22.7,27.4,22.7L27.4,22.7z M25.4,27c0,0,0,0.1,0,0.1
	c0,0,0.1,0,0.1-0.1C25.5,27,25.5,27,25.4,27C25.4,27,25.4,27,25.4,27z M25.5,29.5c0,0-0.1-0.1-0.1-0.1c0,0-0.1,0.1,0,0.1
	c0,0,0.1,0.1,0.1,0.1C25.5,29.6,25.5,29.5,25.5,29.5z M25.8,23.7c-0.2-0.1-0.3-0.2-0.5-0.4C25.4,23.8,25.4,23.8,25.8,23.7z
	 M25.3,20.6c-0.1,0-0.1-0.1-0.2-0.1c-0.1,0.1-0.2,0.3-0.3,0.5C25.2,20.9,25.3,20.8,25.3,20.6z M26.2,20.3
	C26.3,20.3,26.3,20.3,26.2,20.3c0-0.1,0-0.1,0-0.2C26.2,20.2,26.2,20.2,26.2,20.3C26.2,20.3,26.2,20.3,26.2,20.3z M26.1,21.3
	c0.1,0,0.2,0,0.3-0.1c0,0,0-0.1,0-0.1C26.3,21.2,26.2,21.2,26.1,21.3C26.1,21.2,26.1,21.3,26.1,21.3z M26.6,18.1
	C26.6,18.1,26.6,18,26.6,18.1c-0.1,0-0.1,0-0.1,0C26.6,18.1,26.6,18.1,26.6,18.1C26.6,18.1,26.6,18.1,26.6,18.1z M27.3,20.8
	c0,0-0.1-0.1-0.1-0.1c-0.1,0-0.2,0.1-0.2,0.1c0,0.1-0.1,0.2-0.1,0.2c0,0,0.1,0,0.1,0C27.1,21,27.2,20.9,27.3,20.8z M26,19.5
	c0.3-0.5,0.2-0.9,0-1.3c-0.3,0.1-0.4,0.3-0.3,0.6C25.8,19,25.9,19.2,26,19.5z M24.6,40.5C24.6,40.5,24.6,40.5,24.6,40.5
	C24.6,40.5,24.6,40.5,24.6,40.5L24.6,40.5z M44.4,37c0.1,0.1,0.1,0.2,0.2,0.2c-0.4,0.4-0.9,0.9-1.3,1.2c0,0,0,0,0,0
	c-0.2-0.1-0.3-0.1-0.4,0.2c0,0,0.1,0,0.1,0.1c-0.7,0.6-1.5,1.2-2.4,1.7c-0.1-0.1-0.1-0.3-0.3-0.2c-0.2,0.1-0.3,0.4-0.4,0.6
	c0,0,0,0,0,0c-0.1,0.1-0.2,0.1-0.3,0.2c0,0-0.1,0-0.1,0c0,0,0,0,0,0c-0.1,0-0.2,0.1-0.2,0.1c0,0,0-0.1,0-0.1
	c-0.2-0.3-0.4-0.3-0.6-0.1c0.1,0.2,0.1,0.3,0.2,0.4c-0.3,0.2-0.6,0.3-0.9,0.4c0.1-0.2,0.2-0.4,0.3-0.7c-0.6,0.1-0.9,0-0.9-0.3
	c-0.1-0.2,0.1-0.5,0.1-0.7c0.2,0,0.3,0,0.5,0c-0.1-0.2-0.2-0.3-0.3-0.5c0,0,0,0,0,0c0,0,0,0,0,0c0.2,0,0.4,0,0.6,0
	c0.2,0,0.3-0.1,0.3-0.3c0.1,0,0.3,0,0.4-0.1c0.3-0.2,0.5-0.5,0.7-0.7c-0.1-0.3-0.5-0.1-0.7-0.2c0-0.1-0.1-0.2-0.2-0.4
	c-0.2,0.1-0.3,0.1-0.5,0.2c-0.1-0.2-0.2-0.3-0.3-0.5c-0.2,0.3-0.3,0.6-0.5,0.8c0,0,0,0,0,0l0,0h0h0c0,0,0,0,0,0c0,0,0,0,0,0
	c-0.1,0.2-0.2,0.3-0.4,0.5c-0.1,0-0.2-0.1-0.3-0.1c-0.1,0.3-0.2,0.5-0.3,0.8c0.2,0.1,0.4,0.2,0.6,0.3c-0.2,0.3-0.6,0.3-0.9,0.2
	c-0.2,0-0.4,0-0.4,0.3c0.6,0,0.8,0.1,1.1,0.8c-0.2,0.4-0.4,0-0.7,0c0,0.2,0,0.3,0.1,0.4c0.1,0.1,0.3,0.2,0.4,0.2
	c0.2,0.1,0.4,0.1,0.6,0.1c-0.5,0.2-1,0.4-1.5,0.5c-0.1-0.2-0.1-0.2-0.3-0.4c-0.1,0.3-0.2,0.4,0.1,0.4c-0.2,0.1-0.4,0.1-0.5,0.2
	c-0.4-0.3-0.9-0.4-1.3-0.2c-0.3,0.1-0.5-0.1-0.7,0c-0.1,0.2-0.1,0.4-0.2,0.6c-0.9,0.1-1.7,0.2-2.6,0.3c0,0,0,0,0-0.1
	c0,0-0.1,0.1-0.1,0.1c0,0,0,0,0,0c-0.2,0-0.4,0-0.7,0c-0.9,0-1.9-0.1-2.8-0.2c-0.1,0-0.1-0.1-0.2-0.1c0,0,0,0,0,0.1
	c-0.5-0.1-1-0.2-1.5-0.3c0,0,0.1,0,0.1,0c0.2-0.1,0.3-0.2,0.4-0.3c0-0.3-0.1-0.6-0.1-0.8c-0.1-0.1-0.2-0.2-0.4-0.3
	c-0.1,0-0.3,0.1-0.4,0.1c0.1,0.3,0.2,0.6,0.3,1c-0.3,0-0.4-0.1-0.6-0.1c0,0.1,0.1,0.2,0.1,0.3c-0.2,0-0.3-0.1-0.5-0.1
	c0-0.1-0.1-0.1-0.1-0.2c-0.2,0-0.3,0-0.5,0c-0.7-0.2-1.4-0.5-2.1-0.8c0,0,0.1-0.1,0.1-0.1c-0.2-0.2-0.3-0.5-0.5-0.8
	c-0.2-0.1-0.6-0.1-0.8,0.2c0.1,0.1,0.2,0.2,0.3,0.2c-0.1-0.1-0.3-0.1-0.4-0.2c0,0,0.1,0,0.1-0.1c-0.1-0.1-0.3-0.2-0.4-0.2
	c0,0.1,0,0.1,0,0.2c-0.1,0-0.1-0.1-0.2-0.1c0,0,0.1-0.1,0.1-0.1c-0.1-0.1-0.2-0.2-0.3-0.3c-0.1,0-0.3,0-0.4,0
	c-0.2,0-0.5-0.4-0.4-0.5c0.1-0.3,0.3-0.3,0.6-0.2c0,0,0.1,0,0.1,0c0.1-0.4,0.1-0.8,0.1-1.2c-0.4,0-0.3,0.3-0.4,0.5
	c-0.3,0-0.5-0.1-0.8-0.1c0.1-0.1,0.2-0.2,0.3-0.3c-0.3-0.1-0.5-0.2-0.7-0.3c-0.1,0.5-0.2,1,0,1.5c-0.3-0.2-0.7-0.5-1-0.7
	c0-0.1,0.1-0.1,0.1-0.2c0.2,0,0.4,0,0.7,0c-0.1-0.3-0.1-0.5-0.2-0.8c0.7-0.1,1.4-0.2,2.2-0.3c0,0.1-0.1,0.2-0.1,0.2
	c-0.3,0.2,0,0.4,0,0.6c0.3,0.1,0.3,0.4,0.2,0.6c-0.1,0.3,0.1,0.4,0.4,0.6c0.2-0.2,0.3-0.5,0.5-0.8c0.1,0.1,0.3,0.2,0.6,0.3
	c-0.2,0-0.3,0.1-0.5,0.1c0.1,0.3,0.1,0.6,0.2,0.9c0.4,0.2,0.4,0.2,0.7,0.2c0.1-0.2-0.6-0.4-0.1-0.7c0.4,0.4,0.4,0.4,0.9,0.1
	c-0.2-0.2-0.3-0.3-0.4-0.4c-0.1-0.1-0.2-0.4,0-0.4c0.4-0.1,0.3-0.5,0.4-0.8c0.2,0,0.4-0.1,0.6-0.1c-0.2-0.3-0.4-0.2-0.5-0.2
	c-0.5,0-0.6,0-0.7-0.7c0.2,0,0.3,0.3,0.5,0.1c0,0,0.2,0,0.2,0c0.3,0.5,0.6,0.2,0.9,0c0.1,0,0.2-0.1,0.3-0.1
	c-0.1-0.2-0.1-0.3-0.1-0.4c0.3,0.1,0.5,0.5,1,0.3c0,0,0.1,0.2,0.2,0.3c0.1-0.2,0.2-0.4,0.3-0.6c0.1,0.1,0.2,0.1,0.3,0.2
	c0-0.1,0.1-0.1,0.1-0.2c-0.1-0.1-0.1-0.2-0.2-0.3c-0.5-0.4-0.8-1.1-0.5-1.7c0,0,0.1-0.1,0.1-0.1c0.1,0.3,0.1,0.3,0.4,0.4
	c0,0.2-0.1,0.3-0.1,0.5c0,0.3,0.1,0.6,0.4,0.7c0.1,0,0.1,0.1,0.2,0.1c0.1,0.1,0.3,0.3,0.4,0.3c0.2,0,0.5-0.1,0.7-0.2
	c0.1-0.1,0.1-0.3,0.2-0.4c0-0.1,0-0.3,0-0.5c0.2,0.1,0.2,0.2,0.3,0.2c0.1,0.1,0.1,0.3,0.2,0.4c0,0.1,0.1,0.2,0.1,0.2
	c-0.2,0.2-0.1,0.4-0.1,0.7c0,0.2-0.1,0.3-0.3,0.5c0.2,0,0.4,0.1,0.6,0.1c0.1-0.2,0.2-0.3,0.2-0.5c0.1,0.4-0.2,0.9,0.1,1.3
	c0-0.4,0.1-0.8,0.1-1.2c0.5,0.1,0.9-0.1,1.1-0.6c0.2-0.1,0.4-0.2,0.7-0.3c0.4,0.1,0.2,0.9,0.8,0.9c0.2-0.2,0.2-0.3,0-0.5
	c-0.3-0.4-0.3-0.7,0-1c0.1-0.1,0.1-0.2,0.1-0.3c0.3,0.2,0.4,0.5,0.2,0.8c0.2,0.1,0.4,0.1,0.5,0.2c0.5,0.3,0.6,0.3,0.7-0.3
	c0.6-0.1,0.7,0.4,0.9,0.8c0.2-0.1,0.3-0.1,0.5-0.2c-0.1,0.3-0.3,0.2-0.5,0.3c0.2,0.1,0.4,0.2,0.6,0.3c-0.3,0.3-1,0.2-1,0.9
	c0.2,0,0.3,0,0.5,0.1c0.1-0.2,0.2-0.4,0.3-0.6c0,0,0.1,0,0.1,0.1c0,0.1-0.1,0.2-0.1,0.3c0.2,0.5,0.8,0.2,1.1,0.6
	c0-0.3,0-0.4,0.1-0.6c0-0.2,0.2-0.3,0.4-0.2c0.1,0,0.2,0.2,0.2,0.3c0.3-0.2,0.6-0.4,0.9-0.6c0,0.1,0,0.2,0,0.2
	c0.1,0.2,0.2,0.4,0.4,0.3c0.2,0,0.4-0.2,0.4-0.4c0-0.2,0-0.4,0-0.6c0.2-0.1,0.3-0.3,0.6-0.1c0.2,0.1,0.4-0.1,0.7-0.1
	c0,0.1,0,0.2,0,0.3c0.3,0.1,0.7,0.3,1,0.4c0.1,0.1,0.2,0.2,0.2,0.3c0.1,0.2,0.3,0.4,0.4,0.7c-0.3,0.2-0.6,0.4-0.9,0.6
	c0.5,0,0.9-0.1,1.3-0.1c0.1-0.1,0.2-0.2,0.4-0.4c-0.2-0.1-0.4-0.1-0.4-0.1c0.1-0.4,0.3-0.7,0.4-1c0.3,0,0.6-0.1,0.8-0.1
	c0.2,0,0.5,0.3,0.7-0.1c-0.2-0.2-0.6,0-0.6-0.5c0.3,0,0.7,0.1,1,0.1c0.1,0.2,0.2,0.4,0.2,0.5c0.1-0.2,0.2-0.4,0.3-0.5
	c0.1-0.1,0.2-0.2,0.4-0.3c0,0.3,0,0.6-0.1,0.9c0.2-0.1,0.3-0.1,0.5-0.1c-0.1-0.1-0.1-0.2-0.1-0.3C44.1,37.1,44.3,37,44.4,37z
	 M20.2,40.5c-0.1-0.1-0.1-0.1-0.2-0.1c0,0-0.1,0.1-0.1,0.1c0,0,0.1,0.1,0.1,0.1C20.1,40.5,20.1,40.5,20.2,40.5z M36.1,41.9
	c0,0.2,0.1,0.4,0.3,0.4c0-0.2,0-0.4-0.1-0.6C36.2,41.8,36.1,41.8,36.1,41.9z M35,41.2c0.1,0,0.3,0,0.4,0c-0.2-0.2-0.3-0.4-0.5-0.6
	C34.7,41,34.7,41.1,35,41.2z M33.3,39.1c0.1,0.1,0.1,0.2,0.2,0.3c0,0,0.1,0,0.1-0.1c-0.1-0.1-0.1-0.2-0.2-0.3
	C33.4,39,33.3,39,33.3,39.1z M33.3,39.9C33.3,39.9,33.3,40,33.3,39.9c0.1,0.1,0.2,0.1,0.3,0.1c0,0,0-0.1,0-0.1
	C33.5,39.9,33.4,39.9,33.3,39.9z M32.6,39.4c0,0.1,0.2,0.1,0.4,0.2C33,39.2,33,39,33,38.7C32.7,39,32.6,39.2,32.6,39.4z M31.5,37.6
	c0.6,0.4,0.6,0.4,0.9,0.3C31.9,37.3,31.9,37.3,31.5,37.6z M31.2,38.8c0-0.3,0.2-0.2,0.3-0.3c0,0,0.1-0.1,0.1-0.2
	c-0.1-0.1-0.3-0.2-0.4-0.4c-0.1,0.2-0.2,0.4-0.3,0.6C30.9,38.8,31,38.8,31.2,38.8z M30.6,40c0.1-0.4,0.1-0.7-0.1-1.1
	C30.5,39.2,30.2,39.6,30.6,40z M29.9,38.7c0,0-0.1,0-0.1,0.1c0,0.1,0.1,0.1,0.1,0.3c0.1-0.1,0.1-0.1,0.1-0.2
	C30,38.8,29.9,38.7,29.9,38.7z M29.4,37.3c0.2,0.5,0.3,0.6,0.5,0.4c0-0.1,0-0.3-0.1-0.5C29.7,37.2,29.5,37.2,29.4,37.3z M28.4,38.5
	c0.3,0.2,0.5,0.3,0.7,0.4c0,0,0,0,0,0c0.1,0,0.2-0.1,0.2-0.1c0-0.2,0-0.5,0-0.8c-0.3-0.1-0.5-0.4-1-0.3
	C28.4,38.1,28.4,38.3,28.4,38.5z M27.1,38.4C27.1,38.4,27.1,38.5,27.1,38.4c0.1,0,0.1,0,0.2-0.1c0,0-0.1,0-0.1-0.1
	C27.1,38.3,27.1,38.4,27.1,38.4z M26.4,39c0.1,0.2,0.3,0.4,0.4,0.6c0.2,0.3,0.1,0.6,0.1,0.9c0,0.1,0.1,0.2,0.2,0.3
	c0.1-0.2,0.1-0.3,0.1-0.4c0.1,0.1,0.2,0.2,0.3,0.3c0-0.2,0-0.4,0.1-0.6c-0.1-0.1-0.2-0.2-0.4-0.3c0.3-0.1,0.5-0.2,0.7-0.3
	c0.3,0.6,0.8,0.6,1.3,0.8c0.1-0.2,0.2-0.3,0.3-0.4c0.1,0.5,0.2,1,0.3,1.5c0.2,0.1,0.5,0.3,0.7,0.4c0.1-0.1,0.2-0.3,0.4-0.5
	c-0.5-0.4-0.9-0.9-1-1.7c-0.4,0.1-0.6-0.1-0.7-0.4c-0.5,0.5-0.5,0.5-1.1,0.2c-0.3-0.2-0.6-0.1-0.8,0.1C26.9,39.1,26.7,39,26.4,39z
	 M27.9,40.1c0,0.1-0.1,0.1-0.1,0.2c0,0,0.1,0.1,0.1,0.1c0,0,0.1-0.1,0.1-0.1C28,40.2,28,40.2,27.9,40.1z M26.6,37.6
	c0.3-0.1,0.3-0.3,0.2-0.6C26.7,37.2,26.6,37.4,26.6,37.6z M25.8,38.4c0.2,0.2,0.4,0.3,0.6,0.5C26.4,38.4,26.3,38.3,25.8,38.4z
	 M26.1,37.9c0-0.1-0.1-0.2-0.2-0.4C25.8,37.7,25.7,37.9,26.1,37.9z M25.5,39.1c-0.2,0-0.4,0.1-0.5,0.2c0.1,0.2,0.2,0.3,0.4,0.5
	c0.1,0.1,0.3,0.1,0.5,0c0.1,0,0.1-0.3,0.1-0.4C25.8,39.2,25.7,39.1,25.5,39.1z M23.1,38.2C23.1,38.2,23.2,38.2,23.1,38.2
	c0.1,0,0.1-0.1,0.2-0.1c0,0-0.1,0-0.1,0C23.1,38.1,23.1,38.1,23.1,38.2z M22.5,41.9c0-0.3-0.1-0.5-0.1-0.8c-0.4,0.1-0.8-0.3-1.2,0
	c0,0.2,0,0.4,0,0.6c0.3,0,0.6-0.2,0.8,0.1C22.2,42,22.4,41.9,22.5,41.9z M24.3,41.2C24.3,41.2,24.3,41.2,24.3,41.2
	c0.1-0.2,0.2-0.5,0.3-0.7c0.2,0,0.3,0,0.5,0c0-0.2-0.1-0.4-0.1-0.6c0-0.1-0.1-0.1-0.1-0.1c-0.3-0.2-0.2-0.4,0.1-0.5
	c0.2-0.5,0.3-1,0.5-1.4c-0.2-0.1-0.3-0.2-0.5,0c-0.3,0.4-1,0.2-1.3,0.7c-0.1,0.1-0.4,0-0.6,0c0.1,0.5,0.2,0.9,0.3,1.4
	c-0.3-0.2-0.5-0.3-0.8-0.4c0-0.2,0-0.4,0-0.6c-0.5,0.4-0.5,0.8,0,1.1c0.2,0.1,0.4,0.1,0.4,0.3c-0.3,0.1-0.5,0.1-0.7,0.2
	c0,0,0,0.1,0,0.1c0.2,0,0.3,0.1,0.5,0.1c0,0.2-0.1,0.4-0.1,0.6c0.4,0.3,0.7-0.3,1.1,0c-0.2,0.1-0.3,0.3-0.5,0.3
	c-0.2,0.1-0.4,0.2-0.2,0.5c0.2-0.1,0.5-0.2,0.7-0.3C24.1,41.7,24.2,41.4,24.3,41.2z M26.1,41.4c0-0.2,0.1-0.4,0.3-0.6
	c0.1-0.2,0.2-0.5,0.2-0.8c0,0-0.1-0.1-0.1-0.1c-0.3,0.2-0.7,0.4-1,0.7c0.1,0.2,0.2,0.4,0.2,0.5c-0.5,0-0.9,0.1-1.4,0.1
	c0.2,0.1,0.4,0.3,0.6,0.4c0,0,0,0,0,0C25.4,41.5,25.7,41.4,26.1,41.4z M26.2,41.9c0,0.1-0.1,0.2-0.1,0.3c0,0,0.1,0,0.1,0
	c0-0.1,0.1-0.2,0.1-0.3C26.2,41.9,26.2,41.9,26.2,41.9z M27.7,42.3c0,0,0-0.1-0.1-0.1c0,0-0.1,0.1-0.1,0.1
	C27.5,42.3,27.6,42.3,27.7,42.3C27.6,42.3,27.7,42.3,27.7,42.3z M28.1,42.7c0,0-0.1-0.1-0.1-0.1c-0.1,0.1-0.2,0.1-0.3,0.2
	c0,0,0.1,0.1,0.1,0.1C27.9,42.8,28,42.8,28.1,42.7z M28.4,42.1C28.4,42.1,28.4,42.1,28.4,42.1c-0.1-0.1-0.2,0-0.4,0
	c0.1,0.1,0.2,0.1,0.2,0.1C28.3,42.2,28.4,42.2,28.4,42.1z M29.6,41.8c0.1-0.1,0.3-0.1,0.4-0.2c-0.1-0.2-0.2-0.3-0.3-0.5
	c-0.1,0-0.2,0-0.2,0c-0.3-0.4-0.8-0.3-1.2-0.3c-0.5,0-0.8,0.1-1,0.5c0,0-0.1,0.1-0.1,0.1c-0.1-0.1-0.3-0.1-0.4-0.2
	c-0.1,0.2-0.3,0.4,0.1,0.6c0.1,0,0.1,0.3,0.1,0.4c-0.1,0.2-0.3,0.3-0.5,0.4c-0.1,0.1-0.2,0.1-0.4,0.2c0.8,0.2,1.2,0,1.3-0.7
	c0-0.2,0.2-0.4,0.4-0.5c0.4-0.1,0.8-0.3,1.2-0.4c0.2,0.3-0.2,0.4-0.3,0.6c0.4,0.2,0.3,0.5,0,0.7c-0.2,0.2-0.2,0.4,0,0.6
	c0.2,0.2,0.4,0.1,0.6,0c-0.1-0.2-0.2-0.3-0.3-0.5C29.7,42.7,29.7,42.7,29.6,41.8z M30.5,42.6c0-0.4-0.1-0.7-0.5-0.9
	c0,0.3,0.1,0.5,0.1,0.8C30.3,42.5,30.4,42.5,30.5,42.6z M31.3,43.1c-0.3-0.2-0.5-0.3-0.8-0.5c0,0.2-0.2,0.5,0.1,0.7
	C30.9,43.4,31.1,43.3,31.3,43.1z M32.3,41.7c-0.1-0.2-0.2-0.3-0.3-0.5c-0.3,0-0.5,0-0.8,0.1c-0.1,0.2-0.1,0.5-0.2,0.8
	C31.4,41.9,31.9,42.1,32.3,41.7z M33.4,42.1c-0.1-0.1-0.2-0.1-0.2-0.2c0,0,0,0-0.1,0.1C33.2,42,33.2,42.1,33.4,42.1
	C33.3,42.2,33.4,42.1,33.4,42.1z M34.8,42.2c0.2-0.2,0.3-0.3,0.5-0.4c-0.3-0.1-0.6-0.3-0.9-0.3c-0.3-0.1-0.3-0.2-0.3-0.5l0,0
	c0,0,0,0,0,0c0,0,0,0,0,0c0,0,0,0,0,0c0.3-0.3,0.5-0.7,0.6-1.2c-0.3,0.2-0.6,0.4-0.8,0.6c-0.2,0.2-0.4,0.2-0.7,0
	c-0.4-0.3-0.9-0.6-1.3-0.9c0-0.1,0-0.3,0.1-0.6c-0.3,0.1-0.5,0.2-0.6,0.3c0,0.2-0.6,0.2-0.3,0.6c0.1,0,0.2,0,0.4-0.1
	c-0.1,0.4-0.2,0.8-0.3,1.2c0.3,0.3,0.4-0.2,0.7-0.3c0,0.2,0,0.4-0.1,0.6c0.5-0.1,0.9-0.4,1.4-0.8c-0.1,0.3-0.1,0.4-0.1,0.6
	c0.3,0.3,0.8,0.4,0.9,0.9c0,0.1,0.2,0.1,0.3,0.1C34.6,42.2,34.7,42.2,34.8,42.2z M35.3,41.8c0.1,0.1,0.2,0.2,0.2,0.4
	C35.6,41.9,35.5,41.8,35.3,41.8z M35.7,41.4c0-0.1-0.1-0.2-0.2-0.2c0,0-0.1,0-0.1,0c0,0,0,0.1,0,0.1c0,0.1,0.1,0.2,0.2,0.2
	C35.6,41.5,35.7,41.4,35.7,41.4z M36.1,38.5c-0.2,0.4-1,0.1-1,0.6c0.2,0.3,0.4,0.6,0.7,0.9c0-0.1,0.1-0.2,0.1-0.4
	c0.1-0.3,0-0.6,0.3-0.8C36.2,38.8,36.1,38.6,36.1,38.5z M39.1,39.9c0,0.1,0,0.2,0.1,0.3c0-0.1,0.1-0.2,0.1-0.3
	C39.2,39.9,39.1,39.9,39.1,39.9z M37.9,40.5c-0.2-0.1-0.3-0.1-0.5,0.2C37.6,40.6,37.7,40.5,37.9,40.5z M39.4,40.5
	c-0.1-0.1-0.2-0.2-0.2-0.3c-0.4-0.2-0.8-0.5-1.3-0.1c0,0.1,0.2,0.3,0,0.4c0.1,0.1,0.2,0.3,0.4,0.2c0.3-0.2,0.5-0.4,0.9-0.1
	C39.1,40.6,39.3,40.6,39.4,40.5z M41,39.6c0,0-0.1-0.1-0.1-0.1c0,0-0.1,0-0.1,0.1C40.8,39.5,40.9,39.6,41,39.6
	C40.9,39.6,40.9,39.6,41,39.6z M42.1,38.9c0,0,0-0.1,0-0.1C42.1,38.8,42,38.8,42.1,38.9c-0.1,0-0.2,0-0.2,0.1c0,0,0.1,0.1,0.1,0.1
	C42,39,42,39,42.1,38.9z M42.6,38.8c-0.1-0.2-0.1-0.4-0.2-0.5c-0.1-0.1-0.2-0.1-0.3-0.1c-0.1,0-0.1,0.2-0.1,0.3
	c0,0.1,0.1,0.2,0.2,0.3C42.3,38.8,42.4,38.8,42.6,38.8z M33.8,40.8C33.8,40.9,33.8,40.9,33.8,40.8C33.9,41,34,41,34.1,41
	c0-0.1,0-0.2,0-0.3C34,40.8,33.9,40.8,33.8,40.8z M31.8,40.1c0,0,0.1,0.1,0.1,0.1c0.1,0,0.1-0.1,0.2-0.1c0,0,0-0.1,0.1-0.2
	c0,0-0.1-0.1-0.1-0.1C32,40,31.9,40,31.8,40.1z M32.4,40.6c0,0,0.1,0.1,0.1,0.1c0.1,0,0.1-0.1,0.2-0.2c-0.1-0.1-0.2-0.1-0.2-0.1
	C32.5,40.4,32.4,40.5,32.4,40.6z M24.6,40.5C24.6,40.5,24.6,40.5,24.6,40.5C24.6,40.5,24.6,40.5,24.6,40.5
	C24.6,40.5,24.6,40.5,24.6,40.5z M23.8,39.1C23.9,39.1,23.9,39.1,23.8,39.1c0.1,0,0.2,0,0.2-0.1C24,39,23.9,39,23.8,39.1z
	 M24.1,38.9C24.1,38.9,24.1,38.9,24.1,38.9L24.1,38.9C24.1,39,24.1,38.9,24.1,38.9z M24.1,38.9c0.2-0.1,0.3-0.3,0.5-0.4
	C24.2,38.5,24.1,38.7,24.1,38.9z M24.1,39C24.1,39,24.1,39,24.1,39C24.1,39,24.1,39,24.1,39C24.1,39,24.1,39,24.1,39z M24.4,39.4
	c-0.1,0-0.1,0-0.2,0c-0.1,0.3-0.1,0.6-0.2,0.9c0.2,0.1,0.4,0.1,0.6,0.2C24.5,40.1,24.5,39.7,24.4,39.4z M29.2,42.2
	C29.3,42.2,29.3,42.3,29.2,42.2c0.1,0.1,0.2,0.1,0.2,0c0,0,0-0.1,0-0.1C29.3,42.2,29.3,42.2,29.2,42.2z M49.6,29.3
	C49.6,29.3,49.6,29.3,49.6,29.3C49.5,29.3,49.5,29.3,49.6,29.3C49.5,29.3,49.5,29.3,49.6,29.3z M50.4,26.2
	C50.4,26.2,50.4,26.1,50.4,26.2c0.1-0.2,0.1-0.3,0.1-0.5c0,0-0.1,0-0.1,0C50.4,25.8,50.4,26,50.4,26.2z M50.4,25.7L50.4,25.7
	L50.4,25.7L50.4,25.7z M50.4,25.7L50.4,25.7C50.3,25.7,50.4,25.7,50.4,25.7L50.4,25.7z M49.3,29.9C49.3,29.9,49.3,29.9,49.3,29.9
	C49.3,29.9,49.4,29.9,49.3,29.9C49.4,29.8,49.3,29.8,49.3,29.9C49.3,29.8,49.3,29.9,49.3,29.9z M50.4,25.1c0-0.4,0-0.4-0.5-0.5
	c0,0.3,0.1,0.5,0.1,0.8c0,0.2-0.2,0.5-0.3,0.7c0,0,0.1,0.1,0.1,0.1c0.1,0,0.2-0.1,0.3-0.1c0.1-0.1,0.2-0.3,0.3-0.4c0,0,0,0,0,0
	C50.4,25.5,50.4,25.3,50.4,25.1z M43,35.8c-0.2,0.3-0.3,0.6-0.2,1.1c0.2-0.4,0.4-0.8,0.6-1.1C43.3,35.7,43,35.7,43,35.8z M43.4,35.7
	C43.4,35.7,43.4,35.7,43.4,35.7L43.4,35.7C43.4,35.7,43.4,35.7,43.4,35.7C43.4,35.7,43.4,35.7,43.4,35.7
	C43.4,35.7,43.4,35.7,43.4,35.7z M46.8,34.2c0.1-0.1,0.2-0.1,0.3-0.1c-0.1,0.2-0.3,0.4-0.4,0.6c-0.1,0-0.2,0-0.3,0
	c-0.1,0-0.3,0-0.5,0c0.1,0.2,0.2,0.4,0.3,0.6c0,0,0,0,0,0c0,0,0,0,0,0c0,0,0,0,0,0c-0.2,0-0.4,0-0.7,0.1c-0.3-0.4-0.9-0.7-1.2-1.2
	c-0.4,0-0.7,0-1.1,0c0,0.3,0,0.4,0.3,0.3c0.2,0,0.5,0,0.6,0.3c0,0.3,0.4,0.6-0.1,0.9c-0.1-0.1-0.2-0.2-0.3-0.3
	c-0.1,0.1-0.2,0.3-0.3,0.4c0-0.1,0-0.3-0.1-0.5c0.1-0.1,0.3-0.1,0.4-0.2c0,0-0.1-0.1-0.1-0.1c-0.3-0.1-0.8,0-0.8-0.5
	c0,0-0.2-0.1-0.3-0.1c-0.1,0-0.3,0.1-0.4,0.2c0-0.4,0-0.5,0.7-0.5c-0.4-0.4-0.5-0.9-0.3-1.4c0.2,0.3,0.4,0.5,0.6,0.8
	c0.5-0.3,1.3-0.2,1.7-0.9c0.1-0.2,0.2-0.2,0.6-0.1c-0.3,0.3-0.6,0.5-0.9,0.8c-0.2,0.2-0.4,0.5-0.8,0.3c0,0-0.2,0.1-0.3,0.2
	c0.3,0.4,0.7,0,0.9,0.3c0.3,0.1,0.7,0.2,1,0.3c0.2-0.3,0.4-0.6,0.6-0.9c0,0,0.1,0,0.1,0.1c-0.1,0.2-0.1,0.3-0.2,0.5
	C46.3,34.6,46.3,34.6,46.8,34.2z M45.3,34.5c0.1,0.1,0.1,0.3,0.2,0.4C45.7,34.5,45.5,34.5,45.3,34.5z M47.7,31.9
	c0.2,0,0.5,0,0.8,0.1c-0.1,0.3-0.3,0.6-0.4,0.8c-0.1,0-0.1,0.1-0.2,0.1c-0.3,0.2-0.6,0.4-0.8,0c0-0.1-0.2,0-0.3-0.1
	c-0.1,0-0.2-0.1-0.3-0.2c0.1-0.1,0.1-0.3,0.3-0.3C47,32.1,47.3,32,47.7,31.9z M47.7,32.3c-0.2-0.1-0.3,0-0.4,0.2
	c0.2,0.1,0.3,0.2,0.4,0C47.8,32.4,47.7,32.3,47.7,32.3z M45.5,36.2c0.1-0.1,0.1-0.1,0.2-0.2c-0.1,0-0.1,0-0.2,0
	C45.5,36.1,45.5,36.1,45.5,36.2z M39.8,38.2C39.8,38.2,39.8,38.2,39.8,38.2C39.8,38.2,39.8,38.2,39.8,38.2L39.8,38.2z M37.3,37.4
	L37.3,37.4C37.3,37.4,37.3,37.4,37.3,37.4C37.3,37.4,37.3,37.4,37.3,37.4z M39.8,38.2C39.8,38.2,39.8,38.2,39.8,38.2
	C39.8,38.2,39.8,38.2,39.8,38.2C39.8,38.2,39.8,38.2,39.8,38.2z M30.8,34.2L30.8,34.2C30.8,34.2,30.8,34.2,30.8,34.2
	C30.8,34.2,30.8,34.2,30.8,34.2z M37.3,37.4C37.3,37.4,37.3,37.4,37.3,37.4C37.3,37.4,37.3,37.4,37.3,37.4L37.3,37.4z M30.9,35.7
	L30.9,35.7L30.9,35.7C30.9,35.7,30.9,35.7,30.9,35.7C30.9,35.7,30.9,35.7,30.9,35.7C30.9,35.7,30.9,35.7,30.9,35.7z M31,33.8
	c-0.1,0.1-0.1,0.2-0.2,0.4c0.1-0.1,0.2-0.2,0.3-0.3C31.1,33.9,31,33.9,31,33.8z M30.7,35c0.3-0.3,0.1-0.5,0-0.8
	c-0.2,0.2-0.4,0.2-0.7,0c-0.1-0.1-0.2-0.1-0.3-0.2c0.3,0.5,0.5,1,0.4,1.6c0,0.1,0,0.1,0.1,0.4c0.1-0.3,0.1-0.4,0.2-0.4
	c0.2,0.1,0.4,0.1,0.6,0.1C30.9,35.5,31,35.2,30.7,35z M30.9,35.7C30.9,35.7,30.9,35.7,30.9,35.7L30.9,35.7
	C30.9,35.7,30.9,35.7,30.9,35.7z M37.3,37.4c-0.1-0.2-0.3-0.3-0.4-0.6c-0.1,0.2-0.2,0.4-0.3,0.6c-0.3,0-0.3,0-0.3,0.1
	c0,0.1,0.1,0.2,0.1,0.3c0.2,0,0.3,0,0.5,0C37,37.7,37.2,37.5,37.3,37.4z M38.5,39c0-0.1,0-0.2,0-0.4c-0.4,0.2-0.7,0.3-1,0.5
	c-0.2,0.2-0.2,0.4,0.1,0.4c0,0,0,0,0,0c0,0,0,0,0,0C37.8,39.2,38.1,39.1,38.5,39z M37.9,38.6c-0.2-0.1-0.3-0.1-0.4-0.1
	C37.6,38.7,37.6,38.7,37.9,38.6z M23.6,39.6c0.1,0.1,0.1,0.1,0.2,0.2c0,0,0-0.1,0.1-0.1C23.8,39.6,23.8,39.5,23.6,39.6
	C23.7,39.5,23.7,39.5,23.6,39.6z M36.4,37.8C36.4,37.8,36.4,37.8,36.4,37.8C36.4,37.8,36.4,37.8,36.4,37.8
	C36.4,37.8,36.4,37.8,36.4,37.8C36.4,37.8,36.4,37.8,36.4,37.8z M2.1,22.3c0.1,0,0.1,0.1,0.2,0.1C2.3,22.3,2.2,22.3,2.1,22.3
	C2.2,22.2,2.1,22.2,2.1,22.3z M33.8,43.1c0.1,0,0.1,0,0.2,0C33.9,43,33.8,43,33.8,43.1C33.8,43,33.8,43.1,33.8,43.1z M18.1,40
	c-0.1,0-0.1,0.1-0.2,0.1c0.1,0,0.1,0.1,0.2,0.1C18.2,40.2,18.2,40.1,18.1,40z M16.7,39C16.7,39,16.7,39,16.7,39
	C16.7,39,16.7,39,16.7,39C16.7,39,16.7,39,16.7,39C16.7,39,16.7,39,16.7,39C16.7,39,16.7,39,16.7,39L16.7,39z M17.3,38.2
	C17.3,38.2,17.3,38.2,17.3,38.2C17.3,38.2,17.3,38.2,17.3,38.2C17.3,38.2,17.3,38.2,17.3,38.2C17.3,38.2,17.3,38.2,17.3,38.2
	C17.3,38.2,17.3,38.2,17.3,38.2z M17.3,38.2C17.3,38.2,17.3,38.2,17.3,38.2C17.3,38.2,17.3,38.2,17.3,38.2
	C17.3,38.2,17.3,38.2,17.3,38.2c0.1-0.1,0.1-0.5,0.4-0.3c0.1-0.2,0.5-0.3,0.5-0.7c0-0.2,0-0.3,0-0.5c-0.3,0.1-0.5,0-0.7-0.2
	c-0.2-0.2-0.4-0.1-0.5,0.1c0.3,0.1,0.5,0.3,0.8,0.4c0,0.1,0,0.1,0,0.2c-0.2,0-0.5-0.1-0.7-0.1c-0.2,0.1-0.4,0.3-0.6,0.4
	c-0.2-0.3-0.3-0.7-0.8-0.6c0,0.2-0.1,0.4-0.1,0.6c0,0.1,0.3,0.2,0.4,0.3c0.2,0.2,0.5,0.4,0.5,0.8c-0.1,0.1-0.2,0.1-0.3,0.1
	c0.1,0.1,0.3,0.2,0.4,0.3c0.1,0,0.2-0.1,0.3-0.1C16.9,38.7,17.1,38.4,17.3,38.2z M40.3,38.1c-0.2,0.1-0.4-0.5-0.5,0.1
	C40,38.2,40.2,38.3,40.3,38.1z M10.9,27.5c0,0-0.1-0.1-0.1-0.1c0,0-0.1,0.1-0.1,0.1c0,0,0,0.1,0.1,0.1
	C10.8,27.6,10.9,27.6,10.9,27.5z M11.2,28.6C11.1,28.8,11,28.9,11,29c0.2,0,0.3,0,0.6,0C11.4,28.8,11.3,28.7,11.2,28.6z M50.4,25.7
	C50.4,25.7,50.4,25.7,50.4,25.7C50.4,25.7,50.4,25.7,50.4,25.7C50.4,25.7,50.4,25.7,50.4,25.7z M10.9,29c-0.2,0.1-0.2,0.2,0.1,0.4
	C11,29.3,11,29.2,10.9,29z M10.9,29C10.9,29,10.9,29,10.9,29C11,29,11,29,10.9,29L10.9,29z M9.5,22C9.4,22,9.4,22,9.5,22
	c-0.1,0.1,0,0.1,0,0.2C9.5,22.1,9.5,22.1,9.5,22C9.5,22,9.5,22,9.5,22z M10.5,23.9C10.5,23.9,10.5,23.9,10.5,23.9
	c0.1-0.1,0.1-0.1,0-0.1C10.5,23.8,10.5,23.8,10.5,23.9C10.5,23.9,10.5,23.9,10.5,23.9z M9,21.2c0.1,0.1,0.2,0.2,0.3,0.3
	c0.2-0.3,0.2-0.6,0.1-0.9C9.3,20.8,9.2,21,9,21.2z M9.6,29.4c0,0.1,0,0.1,0,0.2c0.3,0.2,0.7,0.3,1.1,0.5c-0.1-0.3-0.1-0.6-0.2-0.9
	C10.1,29.3,9.9,29.4,9.6,29.4z M10.5,22C10.4,22,10.4,22,10.5,22c-0.1,0-0.1,0.1-0.1,0.1C10.4,22.1,10.5,22,10.5,22
	C10.5,22,10.5,22,10.5,22z M11,29C11,29,10.9,29,11,29L11,29C11,29,11,29,11,29z M14.2,28.9C14.2,28.9,14.2,28.9,14.2,28.9
	C14.2,28.9,14.2,28.9,14.2,28.9C14.2,28.9,14.2,28.9,14.2,28.9C14.2,28.9,14.2,28.9,14.2,28.9z M11.6,29.3c0,0.1,0,0.1,0,0.2
	c0.4,0.1,0.6,0.9,1.3,0.3c-0.2-0.3-0.4-0.5-0.6-0.7C12.1,29.1,11.8,29.2,11.6,29.3z M13.6,30.1c0.2,0.4,0.3,0.7,0.4,1
	c0,0,0.1,0,0.1,0C14.2,30.6,14.2,30.6,13.6,30.1z M14.2,28.9c0-0.3-0.3-0.2-0.5-0.3c0.4-0.5,0.4-0.5,0-0.7c-0.2,0.3-0.4,0.6-0.5,0.8
	c-0.4-0.2-0.4-0.2-0.7-0.1c0.3,0.2,0.5,0.5,0.8,0.6c0.3,0.1,0.6,0.5,0.9,0c-0.1,0-0.2-0.1-0.2-0.1C14,29,14.1,29,14.2,28.9z
	 M11.5,29.9c0,0,0,0.1,0.1,0.1c0,0,0.1,0,0.1-0.1C11.6,29.9,11.6,29.9,11.5,29.9C11.6,29.9,11.5,29.9,11.5,29.9z M12.1,28.8
	c-0.1-0.4-0.3-0.4-0.7-0.5C11.6,28.6,11.7,28.8,12.1,28.8z M11.6,26.3c0,0-0.1,0.1-0.1,0.1c0,0.1,0.1,0.1,0.1,0.2
	c0.1,0,0.1-0.1,0.2-0.2C11.7,26.4,11.6,26.3,11.6,26.3z M12.8,25.6c-0.2-0.3-0.4-0.5-0.6-0.8c-0.2,0.4,0,0.7,0.1,0.9
	C12.4,25.7,12.6,25.7,12.8,25.6z M11,30.8C11,30.8,11.1,30.8,11,30.8c0.1-0.1,0.1-0.2,0.1-0.3c0,0-0.1,0-0.1,0
	C10.9,30.7,11,30.7,11,30.8z M10.5,28.1C10.5,28.1,10.5,28.2,10.5,28.1c0.1,0.1,0.1,0,0.2,0C10.6,28.1,10.6,28.1,10.5,28.1
	C10.6,28.1,10.5,28.1,10.5,28.1z M19.9,39C19.9,39,19.9,39.1,19.9,39c0.1,0.1,0.1,0.1,0.2,0c0-0.1,0-0.1,0-0.1
	C20,38.9,19.9,39,19.9,39z M24.5,33.2c0,0.1,0,0.2,0.1,0.3c0,0,0.1,0,0.1,0c0-0.1,0-0.2-0.1-0.3C24.6,33.2,24.6,33.2,24.5,33.2z
	 M23.3,34.6c-0.2,0.1-0.4,0.1-0.5,0.2c0.1,0.1,0.3,0.2,0.5,0.4C23.3,34.9,23.3,34.7,23.3,34.6z M22.8,34.7c0-0.2-0.1-0.3-0.1-0.5
	C22.5,34.5,22.5,34.5,22.8,34.7z M22.8,34.7C22.8,34.7,22.8,34.7,22.8,34.7C22.8,34.7,22.8,34.7,22.8,34.7
	C22.8,34.7,22.8,34.7,22.8,34.7C22.8,34.7,22.8,34.7,22.8,34.7L22.8,34.7z M21.7,38.9c0-0.3,0.2-0.6-0.2-0.7c-0.1,0-0.2,0.1-0.3,0.2
	C21.1,38.7,21.3,38.8,21.7,38.9z M50.1,19.7c0.2,0.1,0.4,0.2,0.5,0.1c0-0.1,0-0.3-0.1-0.4c0-0.1-0.1-0.1-0.1-0.2
	C50.3,19.4,50.2,19.5,50.1,19.7z M50.5,22.6c0.1,0,0.2-0.1,0.2-0.1c0-0.1,0-0.1,0-0.2C50.7,22.2,50.6,22.3,50.5,22.6z M17.9,34.8
	c0,0.1-0.1,0.1-0.1,0.2c0,0,0.1,0.1,0.2,0.1c0-0.1,0.1-0.2,0.1-0.3C18.1,34.9,18,34.9,17.9,34.8z M15.3,34.1
	C15.3,34.1,15.3,34.1,15.3,34.1c-0.1,0-0.1,0-0.1,0C15.2,34.2,15.2,34.2,15.3,34.1C15.3,34.2,15.3,34.1,15.3,34.1z M29.8,35.9
	c0,0,0-0.1,0-0.2c-0.1,0.1-0.1,0.1-0.1,0.1c0,0,0,0.1,0.1,0.1C29.7,35.9,29.7,35.9,29.8,35.9z M9.4,26.2c0.1-0.2,0.3-0.3,0.4-0.6
	c-0.4,0.1-0.6,0.2-0.6,0.5C9.3,26.2,9.4,26.2,9.4,26.2z M9.3,22.7C9.3,22.7,9.3,22.8,9.3,22.7c-0.1,0.1,0,0.2,0,0.3
	c0.1-0.1,0.1-0.1,0.1-0.2C9.4,22.8,9.4,22.7,9.3,22.7z M9,27.8c0.5-0.1,0.5-0.1,0.4-0.6C9.3,27.4,9.1,27.6,9,27.8z M10,28.4
	c0,0,0-0.1,0-0.1c-0.1,0-0.2,0-0.3,0.1c0,0,0,0.1,0,0.1C9.8,28.4,9.9,28.4,10,28.4z M8.6,28.5c0,0.1,0,0.1,0,0.2c0,0,0.1,0,0.1,0
	c0,0,0-0.1,0-0.1C8.7,28.5,8.6,28.5,8.6,28.5z M44.9,35.4c0,0.3-0.1,0.6-0.1,1C45.3,36.1,45.4,35.9,44.9,35.4z M9.4,24.3
	c0.1,0.3,0.1,0.6,0.5,0.6C9.8,24.2,9.8,24.2,9.4,24.3z M47.4,33.7c0-0.1,0-0.2-0.1-0.3c-0.1-0.1-0.2-0.1-0.5-0.2
	c0.1,0.2,0.2,0.4,0.2,0.4C47.1,33.8,47.2,33.7,47.4,33.7z M25.2,33.7c0,0-0.1,0-0.1,0c0,0,0,0.1,0.1,0.1
	C25.2,33.9,25.2,33.8,25.2,33.7C25.2,33.8,25.2,33.7,25.2,33.7z M20.5,33.6c0,0.1,0,0.2,0,0.3c0.2-0.1,0.3-0.3,0.5-0.4
	C20.7,33.4,20.6,33.3,20.5,33.6z M12.1,32.8c0.1,0.1,0.3-0.1,0.4-0.1h0c0,0,0,0,0,0l0,0c0,0,0,0,0,0c0,0,0,0,0,0
	c-0.1-0.2-0.2-1.1-0.1-1.4c-0.2,0.2-0.4,0.3-0.6,0.4c0,0.1,0.1,0.3,0.1,0.4c-0.3,0.1-0.6,0.2-0.9,0.3c0-0.2-0.1-0.3-0.1-0.4
	c-0.1,0.1-0.2,0.1-0.2,0.2c0.1,0.3,0.3,0.5,0.4,0.8C11.4,32.7,11.7,32.6,12.1,32.8z M12.1,33.3c-0.2,0.3-0.3,0.5-0.4,0.7
	c0.1,0.1,0.1,0.2,0.2,0.2C12.1,34,12.3,33.7,12.1,33.3z M13.8,35.5c0.2,0,0.2-0.1,0.3-0.3c0,0,0,0,0,0c0,0,0,0,0,0c0,0,0,0,0,0
	c-0.1-0.3-0.5-0.2-0.5-0.3c-0.2-0.5-0.7-0.1-0.9-0.3c-0.1,0.1-0.2,0.1-0.3,0.1c0.1,0.2,0.3,0.3,0.4,0.5c0.1-0.1,0.2-0.2,0.3-0.2
	c0,0.2,0,0.4-0.1,0.6c0,0,0.1,0.1,0.1,0.1c0.2,0,0.3,0,0.4,0C13.5,35.6,13.6,35.4,13.8,35.5z M13.5,35.7
	C13.5,35.7,13.5,35.7,13.5,35.7C13.5,35.7,13.5,35.7,13.5,35.7L13.5,35.7z M13.5,35.7C13.5,35.7,13.5,35.7,13.5,35.7
	C13.5,35.7,13.5,35.7,13.5,35.7C13.5,35.7,13.5,35.7,13.5,35.7z M14.7,35.1L14.7,35.1L14.7,35.1C14.7,35.1,14.7,35.1,14.7,35.1
	C14.7,35.1,14.7,35.1,14.7,35.1C14.7,35.1,14.7,35.1,14.7,35.1z M13.9,36.6c0.1-0.2,0.1-0.4,0.2-0.6c-0.2-0.1-0.4-0.1-0.5-0.2
	C13.7,36,13.4,36.4,13.9,36.6z M14.7,35.1C14.7,35.1,14.7,35.1,14.7,35.1L14.7,35.1C14.7,35.1,14.7,35.1,14.7,35.1z M14,35.2
	C14,35.2,14,35.2,14,35.2C14,35.2,14,35.2,14,35.2C14,35.2,14,35.2,14,35.2z M12.9,33c-0.1-0.1-0.3-0.3-0.4-0.4
	c0.1-0.2,0.3-0.3,0.5-0.5c-0.1-0.2-0.2-0.3-0.4-0.6c0.3,0,0.6,0.1,0.9,0.1c0.1,0,0.1-0.1,0.2-0.1c0.1,0.1,0.3,0.2,0.4,0.3
	c0.1,0.1,0.2,0.3,0.1,0.4c-0.2,0.4-0.1,0.7,0.1,1c-0.1,0.1-0.2,0.2-0.4,0.3c0,0.1,0,0.1,0,0.1c0.2,0.3,0.3,0.8,0.5,0.8
	c0.5,0.1,1,0.2,1.6,0c0,0,0,0,0,0c0,0,0,0,0,0l0,0c0.1,0.1,0.3,0.1,0.4,0.2c0.3,0.2,0.5,0.1,0.7-0.3c-0.1-0.1-0.1-0.2-0.2-0.3
	c0.3,0.1,0.5,0.2,0.9,0.3c-0.4,0.3-0.4,0.6-0.2,0.8c-0.2,0.1-0.4,0.2-0.6,0.2c0,0,0,0,0,0c0,0,0,0,0,0c0,0,0,0,0,0l0,0l0,0
	c-0.1-0.1-0.1-0.1-0.2-0.1c-0.2,0.2-0.3,0.4-0.5,0.5c0,0,0,0,0,0c-0.1,0.1-0.1,0.3-0.2,0.5c-0.3-0.1-0.5-0.2-0.7-0.3
	c0-0.3-0.2-0.7,0.2-0.9c0,0,0,0,0,0c0.1-0.1,0.2-0.2,0.3-0.3c-0.5-0.1-0.9-0.2-1.2,0.2c-0.2,0-0.4,0.1-0.6,0.1
	c0.1-0.3,0-0.5-0.3-0.6c-0.2-0.1-0.5-0.2-0.7-0.3c-0.3-0.2-0.5-0.4-0.4-0.8c0.5-0.3,0.5,0.3,0.9,0.4c0.2-0.2,0.2-0.5,0.1-0.7
	C13.4,32.9,13.1,32.8,12.9,33z M16.2,35.6c0,0.1,0.1,0.3,0.1,0.4c0-0.1,0-0.3,0-0.4C16.3,35.5,16.3,35.5,16.2,35.6z M15.8,35.5
	c0-0.2-0.1-0.2-0.3-0.3C15.6,35.4,15.6,35.5,15.8,35.5z M15.8,35.5c0,0.2-0.1,0.4,0.1,0.6C16,35.8,16.1,35.6,15.8,35.5z M13.5,32.4
	c0.1,0.1,0.2,0.2,0.2,0.3c0,0,0.1-0.1,0.1-0.1c-0.1-0.1-0.1-0.2-0.2-0.3C13.6,32.3,13.5,32.3,13.5,32.4z M22.9,36.9
	C22.9,36.9,22.9,36.9,22.9,36.9C22.9,36.9,22.9,36.9,22.9,36.9C22.9,36.9,22.9,36.9,22.9,36.9C22.9,36.9,22.9,36.9,22.9,36.9z
	 M20.5,33.9L20.5,33.9L20.5,33.9L20.5,33.9C20.5,33.9,20.5,33.9,20.5,33.9C20.5,33.9,20.5,33.9,20.5,33.9
	C20.5,33.9,20.5,33.9,20.5,33.9L20.5,33.9C20.5,33.9,20.5,33.9,20.5,33.9C20.5,33.9,20.5,33.9,20.5,33.9L20.5,33.9z M18.2,36.8
	C18.2,36.8,18.2,36.8,18.2,36.8C18.2,36.8,18.2,36.8,18.2,36.8C18.2,36.8,18.2,36.8,18.2,36.8C18.2,36.8,18.2,36.8,18.2,36.8z
	 M14.2,29.2L14.2,29.2C14.2,29.2,14.2,29.2,14.2,29.2C14.2,29.2,14.2,29.2,14.2,29.2L14.2,29.2C14.2,29.2,14.2,29.2,14.2,29.2
	C14.2,29.2,14.2,29.2,14.2,29.2C14.2,29.2,14.2,29.2,14.2,29.2z M14.8,35.8c0-0.3,0.1-0.5-0.1-0.7c-0.1,0.2-0.2,0.4-0.3,0.7
	C14.5,35.8,14.7,35.8,14.8,35.8z M15.4,36.8c-0.2-0.2-0.3-0.3-0.5-0.6c0,0.4,0,0.6,0,0.9c-0.1,0-0.2,0-0.3-0.1
	c-0.1,0.1-0.1,0.1-0.2,0.2c0.3,0.3,0.7,0.6,1,0.9C15.1,37.7,15,37.3,15.4,36.8z M14.6,37C14.6,37,14.6,37,14.6,37
	C14.6,37,14.6,37,14.6,37L14.6,37z M18.8,36.9c0,0.2,0.1,0.4,0.1,0.5c0.2-0.1,0.3-0.1,0.5-0.2c0.1,0,0.2-0.1,0.3-0.1
	c0,0,0,0.1,0,0.1c-0.1,0.1-0.2,0.1-0.3,0.2c0.2,0.1,0.3,0.3,0.5,0.4c0,0,0,0,0,0c-0.1,0.1-0.3,0.2-0.4,0.3c0.1,0.2,0.3,0.3,0.5,0.2
	c0.2-0.1,0.5-0.3,0.7-0.4c-0.2-0.4-0.5-0.1-0.8-0.1c0-0.2-0.1-0.5-0.1-0.7c0.1-0.9-0.8-0.7-1.2-1.1c0,0,0,0-0.1,0c0,0,0,0,0,0
	c-0.1,0.2-0.2,0.3-0.4,0.5c-0.2-0.3-0.3-0.5-0.5-0.8c-0.2,0.6,0.3,0.7,0.3,1c0.2,0,0.4,0,0.6-0.1C18.8,36.8,18.8,36.9,18.8,36.9z
	 M22.7,36.2c0,0,0.1,0.1,0.1,0.1c0,0,0.1-0.1,0.1-0.1C22.9,36.2,22.8,36.2,22.7,36.2C22.8,36.2,22.7,36.2,22.7,36.2z M14.1,36.9
	c0.1,0.1,0.1,0.2,0.2,0.2c0.1-0.1,0.1-0.1,0.2-0.1C14.4,36.8,14.3,36.8,14.1,36.9z M14.6,37C14.6,37,14.6,37,14.6,37
	C14.6,37,14.6,37,14.6,37C14.6,37,14.6,37,14.6,37z M15.1,33.4c0.2,0.3,0.3,0.4,0.6,0.5C15.5,33.5,15.5,33.5,15.1,33.4z M13.3,31.5
	c0,0.1,0.1,0.2,0.1,0.2c0.1,0,0.1-0.1,0.2-0.1c0-0.1-0.1-0.2-0.1-0.3C13.4,31.4,13.4,31.5,13.3,31.5z M7.9,27.6L7.9,27.6L7.9,27.6
	C7.9,27.6,7.9,27.6,7.9,27.6C7.8,27.6,7.8,27.6,7.9,27.6c0,0.1,0.1,0.2,0.1,0.2c0.1,0,0.2-0.1,0.2-0.1C8,27.7,7.9,27.7,7.9,27.6z
	 M15.7,33.9C15.7,33.9,15.7,33.9,15.7,33.9L15.7,33.9C15.7,33.9,15.7,33.9,15.7,33.9z M15.7,33.9C15.7,33.9,15.7,33.9,15.7,33.9
	C15.7,33.9,15.7,33.9,15.7,33.9C15.7,33.9,15.7,33.9,15.7,33.9z M7.7,27.2c-0.1,0.1-0.1,0.2-0.1,0.2c0.1,0.1,0.1,0.1,0.2,0.2
	c0,0,0,0,0.1,0C7.8,27.5,7.8,27.4,7.7,27.2z M5.4,24.9C5.4,24.9,5.4,25,5.4,24.9C5.6,25,5.8,25,6,25C5.6,24.7,5.6,24.7,5.4,24.9z
	 M7.9,27.6C7.9,27.6,7.9,27.6,7.9,27.6C7.9,27.6,7.9,27.6,7.9,27.6C7.9,27.6,7.9,27.6,7.9,27.6z M16.7,36.8c0.1-0.2,0.3-0.5,0.4-0.7
	c0.1-0.2,0.2-0.4-0.1-0.5c-0.1,0.2-0.3,0.4-0.4,0.6C16.4,36.5,16.4,36.6,16.7,36.8z M15.7,33.9c-0.1,0.3,0,0.5,0.3,0.6
	C15.9,34.3,16.2,34,15.7,33.9z M4.9,24.5C5,24.5,5,24.5,4.9,24.5C5,24.5,5,24.5,4.9,24.5C4.9,24.5,4.9,24.5,4.9,24.5z M16.9,34.2
	C16.9,34.2,16.9,34.2,16.9,34.2L16.9,34.2C16.9,34.2,16.9,34.2,16.9,34.2z M17.5,33.6c0,0.1,0,0.3-0.1,0.4
	C17.8,33.8,17.7,33.7,17.5,33.6z M17.5,33.5c0-0.1,0-0.2,0-0.3c-0.4,0.1-0.7,0.4-0.9,0.8c0.1,0,0.2,0.1,0.3,0.1
	C17,33.9,17.2,33.6,17.5,33.5z M18.8,34c-0.2-0.3-0.3-0.6-0.1-1c-0.2,0-0.4,0-0.5,0c0,0,0-0.1,0-0.1c0.2-0.1,0.3-0.2,0.5-0.4
	c-0.1-0.2-0.3-0.4-0.5-0.2c-0.3,0.3-0.7,0.4-0.7,0.9c0.2,0.1,0.4,0.1,0.5,0.2C18.3,34.2,18.3,34.2,18.8,34z M16.9,34.2L16.9,34.2
	L16.9,34.2C16.9,34.2,16.9,34.2,16.9,34.2C16.9,34.2,16.9,34.2,16.9,34.2C16.9,34.2,16.9,34.2,16.9,34.2z M17.5,33.3
	C17.5,33.3,17.5,33.3,17.5,33.3C17.5,33.3,17.5,33.3,17.5,33.3C17.5,33.3,17.5,33.3,17.5,33.3z M17.5,33.3
	C17.5,33.3,17.5,33.3,17.5,33.3C17.5,33.3,17.5,33.3,17.5,33.3C17.5,33.3,17.5,33.3,17.5,33.3z M17.5,33.5
	C17.5,33.5,17.5,33.5,17.5,33.5C17.5,33.5,17.5,33.5,17.5,33.5L17.5,33.5z M17.5,33.5C17.5,33.5,17.5,33.5,17.5,33.5
	C17.5,33.6,17.5,33.6,17.5,33.5C17.5,33.6,17.5,33.5,17.5,33.5z M29.7,34.1C29.7,34.1,29.8,34.1,29.7,34.1
	C29.8,34.1,29.7,34.1,29.7,34.1C29.7,34.1,29.7,34.1,29.7,34.1z M27,36C27,36,27,36,27,36C27,36,27,36,27,36L27,36z M27.8,37.4
	L27.8,37.4C27.8,37.4,27.8,37.4,27.8,37.4C27.8,37.4,27.8,37.4,27.8,37.4z M27.8,37.4C27.8,37.4,27.8,37.4,27.8,37.4
	C27.8,37.4,27.8,37.4,27.8,37.4L27.8,37.4z M27.3,35.8c-0.1,0.1-0.2,0.1-0.2,0.2c0.1,0,0.2,0,0.3-0.1C27.3,35.9,27.3,35.9,27.3,35.8
	z M24.6,35C24.6,35,24.6,35,24.6,35C24.6,35,24.6,35,24.6,35C24.6,35,24.6,35,24.6,35C24.6,35,24.6,35,24.6,35z M27,36
	C27,36,27,36,27,36C27.1,36,27.1,36,27,36C27.1,36,27.1,36,27,36z M24.6,35C24.6,35,24.6,35,24.6,35C24.6,35,24.6,35,24.6,35
	C24.6,35,24.6,35,24.6,35C24.6,35,24.6,35,24.6,35z M24.6,35L24.6,35L24.6,35L24.6,35z M25.2,34.2c-0.2,0-0.5,0.1-0.7,0.1
	c0,0,0,0,0,0c0,0.2,0.1,0.4,0.1,0.6c0.2-0.2,0.4-0.4,0.7-0.6C25.2,34.3,25.2,34.2,25.2,34.2z M24.6,35L24.6,35L24.6,35L24.6,35z
	 M27.8,37.4c0.2-0.1,0.4-0.2,0.7-0.3C28.2,37,27.9,37,27.8,37.4z M29.1,33.9C29.1,33.9,29.1,33.9,29.1,33.9L29.1,33.9
	C29.1,33.9,29.1,33.9,29.1,33.9z M28.6,34c0.2,0.1,0.4,0.2,0.6,0.2c0-0.1,0-0.1,0-0.2c0-0.1,0-0.1-0.1-0.2
	C28.9,33.8,28.8,33.7,28.6,34z M29.1,33.9C29.1,33.9,29.1,33.9,29.1,33.9C29.1,33.9,29.1,33.9,29.1,33.9
	C29.1,33.9,29.1,33.9,29.1,33.9z M29.1,33.9c0.2,0,0.4,0.1,0.6,0.1C29.6,33.8,29.4,33.7,29.1,33.9z M28.8,36.8
	c0.2,0,0.3,0.1,0.4,0.1C29.1,36.8,29.1,36.5,28.8,36.8z M29.2,36.9C29.2,36.9,29.2,36.9,29.2,36.9C29.2,36.9,29.2,36.9,29.2,36.9
	C29.2,36.9,29.2,36.9,29.2,36.9C29.2,36.9,29.2,36.9,29.2,36.9z M24.5,34.3C24.5,34.3,24.5,34.3,24.5,34.3
	C24.5,34.3,24.5,34.3,24.5,34.3C24.5,34.3,24.5,34.3,24.5,34.3C24.5,34.3,24.5,34.3,24.5,34.3C24.5,34.3,24.5,34.3,24.5,34.3z
	 M30.8,34.2C30.8,34.2,30.8,34.2,30.8,34.2C30.8,34.2,30.8,34.2,30.8,34.2L30.8,34.2z M29.7,34.1C29.8,34.1,29.8,34.1,29.7,34.1
	C29.8,34.1,29.8,34.1,29.7,34.1C29.8,34.1,29.7,34.1,29.7,34.1z M24.2,34.5C24.2,34.5,24.2,34.4,24.2,34.5
	C24.2,34.4,24.2,34.5,24.2,34.5C24.2,34.5,24.2,34.5,24.2,34.5z M22.2,33.7c0.1,0.3,0.2,0.2,0.4,0.1C22.4,33.7,22.3,33.6,22.2,33.7z
	 M23.1,32.4C23.1,32.4,23.1,32.4,23.1,32.4C23.1,32.4,23.1,32.4,23.1,32.4L23.1,32.4z M22.5,33.8C22.5,33.8,22.5,33.8,22.5,33.8
	C22.5,33.8,22.5,33.8,22.5,33.8C22.5,33.8,22.5,33.8,22.5,33.8z M22.4,31.8c-0.3-0.1-0.5-0.2-0.7-0.3c0.2,0.3,0.4,0.7,0.7,0.7
	c0.3-0.3,0.6-0.5,0.8-0.7c-0.1-0.1-0.2-0.2-0.3-0.4C22.7,31.4,22.6,31.6,22.4,31.8z M23.1,32.4C23.1,32.4,23.1,32.4,23.1,32.4
	C23.1,32.4,23.1,32.4,23.1,32.4C23.1,32.4,23.1,32.4,23.1,32.4z M24.5,34.3C24.5,34.3,24.5,34.3,24.5,34.3
	C24.5,34.3,24.5,34.3,24.5,34.3z M24.2,34.5C24.2,34.4,24.2,34.4,24.2,34.5C24.2,34.4,24.2,34.4,24.2,34.5L24.2,34.5z M22.5,33.8
	C22.5,33.8,22.5,33.8,22.5,33.8C22.5,33.8,22.5,33.8,22.5,33.8L22.5,33.8z M23.3,37C23.3,37,23.3,37,23.3,37
	C23.3,37,23.3,37,23.3,37C23.3,37,23.3,37,23.3,37C23.3,37,23.3,37,23.3,37c-0.2,0.2-0.3,0-0.4-0.1c0-0.1,0.1-0.2,0.1-0.2
	c0.3-0.6,0.3-0.7-0.3-0.9c-0.3,0.1-0.6,0.2-0.9,0.3c0,0,0,0,0,0c0.2,0.5,0.7,0.5,1.1,0.8c0,0.1,0,0.1-0.1,0.3
	c-0.3-0.2-0.7,0-0.9-0.4c-0.1-0.1-0.4,0-0.7,0c0.1-0.3,0.2-0.6,0.5-0.7c-0.1-0.1-0.1-0.3-0.2-0.5c-0.3,0.4-0.5,0.8-0.8,1.2
	c-0.1-0.3-0.2-0.5-0.3-0.6c-0.4-0.1-0.7-0.1-1-0.2c0,0,0-0.1,0-0.1c-0.1,0.1-0.3,0.1-0.4,0.2c-0.1,0-0.1-0.1-0.1-0.1
	c-0.2-0.3-0.3-0.6-0.5-0.9c-0.1-0.2-0.1-0.4,0.1-0.6c0.1-0.1,0.3-0.1,0.4-0.1c0.1,0.1,0.2,0.3,0.2,0.4c0,0.2-0.1,0.3-0.2,0.6
	c0.8,0,1.4,0.4,2.2,0.2c-0.2-0.4-0.4-0.4-0.7-0.3c-0.3,0-0.5-0.2-0.7-0.4c0.3-0.4,0.6,0.2,0.8,0c-0.2-0.3-0.4-0.6-0.7-0.8
	c-0.1-0.1-0.3-0.2-0.1-0.4c0.2,0.1,0.4,0.2,0.6,0.4c-0.1,0.3,0.1,0.4,0.4,0.5c0.3,0.1,0.6,0.2,0.9,0.5c-0.1,0-0.2,0.1-0.3,0.1
	c0.3,0.1,0.6,0.3,0.9,0.4c0-0.2-0.2-0.5,0-0.7c0.2,0.2,0.3,0.4,0.4,0.6c0.1-0.1,0.2-0.1,0.4-0.2c0.3,0.2,0.5,0.5,0.4,0.9
	c0,0.2,0.2,0.5,0.4,0.7C23.7,36.8,23.5,36.9,23.3,37z M22.3,35.5c-0.1,0.1-0.2,0.2-0.2,0.3C22.2,35.7,22.3,35.6,22.3,35.5z
	 M23.9,35.2c0.1-0.3,0.2-0.5,0.3-0.7c-0.2,0.1-0.3,0.1-0.5,0.2C23.8,34.8,23.8,35,23.9,35.2z M23.2,31.6
	C23.2,31.6,23.2,31.6,23.2,31.6C23.2,31.6,23.2,31.6,23.2,31.6C23.2,31.6,23.2,31.6,23.2,31.6C23.2,31.6,23.2,31.6,23.2,31.6
	C23.2,31.6,23.2,31.6,23.2,31.6C23.2,31.6,23.2,31.6,23.2,31.6L23.2,31.6z M23.7,32.3c0,0.1,0.1,0.2,0.1,0.5
	C24,32.4,23.9,32.3,23.7,32.3z M23.7,32.3C23.7,32.3,23.7,32.3,23.7,32.3C23.7,32.3,23.7,32.3,23.7,32.3
	C23.7,32.3,23.7,32.3,23.7,32.3C23.7,32.3,23.7,32.3,23.7,32.3C23.7,32.3,23.7,32.3,23.7,32.3C23.7,32.3,23.7,32.3,23.7,32.3
	L23.7,32.3z M23.7,32.3c0-0.4-0.1-0.8-0.1-1.1c-0.1,0.2-0.3,0.3-0.4,0.5c0.1,0.1,0.2,0.2,0.3,0.3c-0.1,0.2-0.3,0.3-0.4,0.5
	c0.2,0,0.3-0.1,0.5-0.1C23.6,32.2,23.7,32.2,23.7,32.3z M24.5,34.3c-0.1,0-0.2,0.1-0.3,0.1c-0.2-0.2-0.3-0.4-0.7-0.4
	c-0.3,0-0.7-0.2-1-0.3c0.5-0.3,0.6-0.4,0.5-0.9C23,32.9,22.9,33,22.9,33c-0.1-0.1-0.2-0.1-0.1-0.2c0.1-0.2,0.2-0.3,0.3-0.5
	c0,0.1,0,0.3,0,0.4c0.1-0.1,0.2-0.1,0.4-0.2c0.1,0.4,0.2,0.7,0.3,1c0.4,0,0.7,0.1,0.6,0.6C24.3,34.2,24.4,34.3,24.5,34.3z
	 M23.7,33.6c-0.1,0-0.2,0-0.4-0.1C23.4,33.7,23.6,34,23.7,33.6z M24.2,31.1c-0.1-0.4,0.2-0.8-0.2-1.1c-0.2,0.4-0.3,0.7-0.4,1.1
	C23.8,30.9,24,30.9,24.2,31.1z M24.2,31.1C24.2,31.1,24.2,31.1,24.2,31.1C24.2,31.1,24.2,31.1,24.2,31.1
	C24.2,31.1,24.2,31.1,24.2,31.1z M24.2,31.1C24.2,31.1,24.2,31.1,24.2,31.1C24.2,31.1,24.2,31.1,24.2,31.1
	C24.2,31.1,24.2,31.1,24.2,31.1L24.2,31.1z M24.4,31.5c0.1,0.5,0.3,0.7,0.8,0.6c0.3,0,0.6-0.1,0.9-0.2c0.1,0,0.1,0,0.2-0.1
	c-0.2-0.1-0.4-0.1-0.5-0.2c0.2-0.3,0.5-0.5,0.7-0.7c-0.6,0-0.7,0.5-1.1,0.9c-0.2-0.1-0.4-0.1-0.4-0.5c0.2-0.1,0.3-0.1,0.4-0.2
	c0,0,0.1-0.1,0.1-0.1c-0.6,0-0.5-0.4-0.6-0.8c-0.2,0.2-0.2,0.3-0.3,0.5c-0.1,0.1-0.2,0.3-0.3,0.4c0,0,0,0,0,0
	C24.3,31.2,24.3,31.4,24.4,31.5z M23.6,31.1C23.6,31.1,23.6,31.1,23.6,31.1C23.6,31.1,23.6,31.1,23.6,31.1
	C23.6,31.1,23.6,31.1,23.6,31.1C23.6,31.1,23.6,31.1,23.6,31.1L23.6,31.1z M19.5,29.3c0.1,0.2,0.2,0.3,0.2,0.5
	c0.1-0.2,0.1-0.3,0.2-0.6C19.7,29.3,19.6,29.3,19.5,29.3z M30.2,32.3c0.2,0.4,0.2,0.6,0.4,0.8c0,0,0.2,0.1,0.2,0.1
	c0.1,0,0.1-0.2,0.1-0.2C30.8,32.8,30.7,32.4,30.2,32.3z M34.9,34.3C34.9,34.3,34.9,34.3,34.9,34.3C34.9,34.3,34.9,34.3,34.9,34.3
	C34.9,34.3,34.9,34.3,34.9,34.3z M32,33.1c-0.2-0.2-0.3-0.4-0.5-0.6c-0.1,0.2-0.1,0.3-0.2,0.6C31.5,32.9,31.6,33.4,32,33.1z
	 M31.6,34.2c0,0,0.1,0,0.1,0c0,0,0-0.1,0.1-0.1c-0.1,0-0.1,0-0.2,0C31.6,34.2,31.6,34.2,31.6,34.2z M31.5,35.7
	c0.2-0.1,0.3-0.1,0.4-0.2C31.6,35.4,31.6,35.4,31.5,35.7z M29.7,32.7C29.7,32.7,29.8,32.7,29.7,32.7c0.1,0,0.2-0.1,0.3-0.2
	c0,0,0,0-0.1-0.1C29.8,32.5,29.8,32.6,29.7,32.7z M29.9,30.9c0.1-0.4,0.4-0.4,0.7-0.6c-0.2-0.2-0.4-0.4-0.7-0.7
	c-0.1,0.6-0.1,1-0.5,1.3C29.7,30.8,29.9,30.9,29.9,30.9z M29.5,30.8c-0.1-0.1-0.1-0.4-0.2-0.4c-0.3,0-0.4-0.2-0.5-0.3
	c-0.1-0.1-0.3-0.3-0.4-0.4c0,0-0.1,0-0.1,0.1c0,0.3,0.1,0.5,0.1,0.8C28.8,30.6,29.1,31,29.5,30.8z M29.3,31.9
	c-0.1,0.3-0.4,0.4-0.2,0.7c0.2-0.1,0.4-0.2,0.6-0.3C29.6,32.1,29.5,32,29.3,31.9z M28.7,31.9C28.8,31.9,28.8,31.9,28.7,31.9
	c0.1,0,0.2-0.1,0.2-0.2c0,0-0.1,0-0.1-0.1C28.8,31.7,28.8,31.8,28.7,31.9z M29.5,30.8C29.5,30.8,29.5,30.8,29.5,30.8
	C29.5,30.8,29.5,30.8,29.5,30.8C29.5,30.8,29.5,30.8,29.5,30.8z M35.1,37c-0.3,0-0.7,0.3-1,0c0.2,0.6,0.7,0.7,1.1,0.9
	c0.2-0.1,0.3-0.3,0.5-0.4c0.2-0.1,0.5-0.1,0.5-0.3C35.7,37.1,35.4,36.9,35.1,37z M34,36C34,36,34,36,34,36L34,36C34,36,34,36,34,36
	C34,36,34,36,34,36C34,36,34,36,34,36z M33.5,35.4c-0.1-0.2-0.2-0.5-0.6-0.4c0.2,0.2,0.3,0.4,0.4,0.6c-0.1,0.1-0.2,0.2-0.3,0.2
	c0.1,0.2,0.3,0.5,0.4,0.7c0.4-0.1,0.5-0.4,0.7-0.6C33.7,35.9,33.6,35.6,33.5,35.4z M34.9,34.3C34.9,34.3,34.9,34.3,34.9,34.3
	C34.9,34.3,34.9,34.3,34.9,34.3C34.9,34.3,34.9,34.3,34.9,34.3z M31.9,35.9c0,0,0.1,0.1,0.1,0.1c0,0,0-0.1,0-0.1
	C32,35.9,32,35.8,31.9,35.9C31.9,35.8,31.9,35.9,31.9,35.9z M34.4,38.2c-0.1,0-0.1,0.1-0.2,0.1c0,0,0,0.1,0.1,0.1
	C34.4,38.3,34.4,38.3,34.4,38.2C34.5,38.2,34.4,38.2,34.4,38.2z M32.4,34.5c0,0,0.1,0,0.1,0c0-0.1-0.1-0.2-0.1-0.3
	C32.4,34.3,32.4,34.4,32.4,34.5z M32,35.1c0.2,0.1,0.4,0.2,0.5,0.2C32.5,34.9,32.5,34.9,32,35.1z M32.4,34.2
	C32.5,34.2,32.5,34.2,32.4,34.2C32.5,34.2,32.5,34.2,32.4,34.2C32.5,34.2,32.4,34.2,32.4,34.2z M30.5,31.1c-0.3,0-0.6,0-0.9,0
	c0.2,0.3,0.2,0.8,0.8,0.6C30.4,31.6,30.5,31.4,30.5,31.1z M26.7,29.9c0.1,0,0.2-0.1,0.4-0.1c0-0.1-0.1-0.1-0.1-0.2
	c-0.1,0.1-0.2,0.1-0.3,0.2C26.6,29.8,26.7,29.9,26.7,29.9z M26.5,32.2C26.5,32.2,26.5,32.1,26.5,32.2c-0.1,0-0.2,0-0.3,0
	c0,0,0,0.1,0.1,0.1C26.4,32.3,26.5,32.2,26.5,32.2z M25.9,35.7C25.9,35.7,25.9,35.7,25.9,35.7L25.9,35.7
	C25.9,35.7,25.9,35.7,25.9,35.7C25.9,35.7,25.9,35.7,25.9,35.7C25.9,35.7,25.9,35.7,25.9,35.7z M25.9,33.8c0.2,0.1,0.5,0.1,0.6-0.1
	c-0.4-0.3-0.7-0.5-1.1-0.7C25.5,33.3,25.5,33.7,25.9,33.8z M27.6,29.8c0,0.3-0.1,0.5-0.1,0.7C27.8,30.3,27.8,30.1,27.6,29.8z
	 M25.3,35.4c0.1,0.3,0.3,0.4,0.5,0.3C25.7,35.6,25.7,35.4,25.3,35.4z M27.3,30.7c-0.1,0-0.2-0.1-0.4-0.1c0,0.1,0,0.2,0,0.3
	c0,0.1-0.1,0.2-0.1,0.3c0,0,0.1,0,0.1,0c0-0.1,0.1-0.2,0.1-0.3c0.1,0,0.2,0,0.2-0.1C27.3,30.8,27.3,30.7,27.3,30.7z M27.8,32
	c0.1-0.3,0.3-0.5,0-0.7c-0.1,0-0.3,0-0.4,0.1C27.3,31.7,27.5,31.9,27.8,32z M26.9,31.6c0,0.1,0,0.2,0,0.3c0,0,0.1,0,0.1,0
	C27,31.8,27,31.7,26.9,31.6C27,31.6,27,31.6,26.9,31.6z M27.5,33.1c-0.1-0.2-0.1-0.2-0.4-0.2c0.1,0.1,0.2,0.2,0.3,0.2
	C27.4,33.1,27.5,33.1,27.5,33.1z M28.3,35.3c0.5,0.6-0.3,0.7-0.1,1.4c0.3-0.4,0.6-0.7,0.9-1c-0.2-0.1-0.3-0.2-0.5-0.3
	C28.4,35.3,28.4,35.3,28.3,35.3z M27.2,34.3c-0.1,0-0.1-0.1-0.2-0.2c0,0.3-0.1,0.4-0.4,0.3c0.1,0.1,0.3,0.2,0.4,0.4
	c0.1,0.1,0.2,0.3,0.2,0.4c0.2-0.2,0.4-0.4,0.5-0.7C27.5,34.4,27.2,34.8,27.2,34.3z M27.5,35.4c0,0.3,0.1,0.5,0.1,0.6
	c0,0.1,0.1,0.2,0.1,0.2C28.1,35.6,28.1,35.6,27.5,35.4z M29.5,30.8C29.5,30.8,29.5,30.8,29.5,30.8C29.5,30.8,29.5,30.8,29.5,30.8
	L29.5,30.8z M27.9,35c0.3,0,0.7-0.1,0.8-0.5C28.2,34.3,28.1,34.7,27.9,35z M27.2,34.3C27.2,34.3,27.2,34.3,27.2,34.3
	C27.2,34.3,27.2,34.3,27.2,34.3L27.2,34.3z M25.8,34.7c0,0.4,0.1,0.7,0.1,1c0.1,0.1,0.2,0.3,0.4,0.5c0.1-0.4,0.1-0.6,0.2-0.9
	c0.1,0,0.2,0.1,0.3,0.1c-0.1-0.1-0.2-0.2-0.3-0.3c-0.3-0.2-0.3-0.2,0-0.6C26.1,34.3,26,34.7,25.8,34.7z M26.5,34.5
	C26.5,34.5,26.5,34.5,26.5,34.5C26.5,34.5,26.5,34.5,26.5,34.5C26.5,34.5,26.5,34.4,26.5,34.5C26.5,34.4,26.5,34.4,26.5,34.5z
	 M27.3,33.8c0,0.2-0.1,0.3-0.1,0.5C27.3,34.2,27.5,34,27.3,33.8z M27.2,34.3C27.2,34.3,27.2,34.3,27.2,34.3
	C27.2,34.3,27.2,34.3,27.2,34.3C27.2,34.3,27.2,34.3,27.2,34.3z M37.1,34.3c-0.1,0.1-0.1,0.1-0.2,0.2c0.1,0.1,0.1,0.3,0.2,0.4
	c0.2,0,0.4,0,0.6-0.1C37.8,34.2,37.1,34.6,37.1,34.3z M36.8,34.5C36.8,34.5,36.8,34.5,36.8,34.5C36.8,34.4,36.8,34.4,36.8,34.5
	C36.8,34.4,36.8,34.5,36.8,34.5z M28.4,33.8c0-0.2-0.1-0.3-0.1-0.6C28,33.5,28,33.7,28.4,33.8z M36.5,34.3c-0.2,0.1-0.3,0.2-0.4,0.3
	c-0.4-0.1-0.8-0.2-1.2-0.2c0.3,0.2,0.5,0.4,0.8,0.6c-0.1,0.1-0.1,0.3-0.2,0.5c0.3,0.3,0.4-0.1,0.5-0.1c0.1,0.2,0.2,0.4,0.2,0.6
	c-0.6,0.5-1.1,0.1-1.7,0c-0.3,0-0.3-0.3,0-0.6c0.2,0.1,0.3,0.3,0.5,0.4c0.1,0,0.2-0.2,0.4-0.3c-0.4-0.8-0.6-0.9-1.2-0.5
	c-0.3,0.2-0.4,0.4-0.2,0.7c0,0.1,0,0.2,0,0.3c0.6,0.5,1.3,0.9,2.1,0.5c0.2,0.1,0.3,0.2,0.5,0.3c0.4-0.3,0.1-0.6,0.1-0.8
	c0-0.5-0.1-0.5-0.6-0.6c0.1-0.1,0.2-0.4,0.3-0.4c0.4,0,0.4-0.3,0.5-0.5c0,0,0,0,0,0C36.8,34.3,36.7,34.1,36.5,34.3z M30.5,27.4
	c0,0,0-0.2,0-0.2c-0.2-0.2-0.3-0.1-0.4,0.1C30.2,27.4,30.3,27.5,30.5,27.4z M30.2,24.8c-0.1,0.1-0.1,0.2-0.2,0.3c0,0,0.1,0,0.1,0.1
	c0.1-0.1,0.1-0.2,0.2-0.3C30.3,24.8,30.3,24.8,30.2,24.8z M30.3,26c-0.1-0.1-0.1-0.1-0.2-0.1c-0.1,0-0.1,0.1-0.2,0.1
	C30.1,26,30.2,26,30.3,26z M33,32.6C33,32.6,33,32.6,33,32.6C33,32.7,33,32.7,33,32.6C33,32.7,33,32.7,33,32.6
	C33,32.6,33,32.6,33,32.6C33,32.6,33,32.6,33,32.6z M34.5,33.9c-0.3,0-0.3-0.3-0.3-0.4c0-0.2,0-0.3,0.1-0.6
	c-0.2,0.2-0.3,0.3-0.5,0.4c-0.1,0-0.2,0-0.3,0c0,0.1,0,0.2-0.1,0.4c0.1,0.1,0.3,0.1,0.4,0.2c0.3,0.2,0.3,0.4,0,0.6
	c0.1,0,0.1,0.1,0.2,0.1c0.3-0.1,0.6-0.2,0.8-0.3C34.8,34.2,34.7,33.9,34.5,33.9z M32.8,32.4C32.8,32.4,32.8,32.4,32.8,32.4
	C32.8,32.4,32.8,32.4,32.8,32.4C32.8,32.4,32.8,32.4,32.8,32.4C32.8,32.4,32.8,32.4,32.8,32.4z M33,32.7c0.2,0.2,0.3,0.4,0.5,0.6
	C33.4,32.7,33.4,32.7,33,32.7z M32.4,28.7c-0.3-0.2-0.6-0.4-0.9-0.6c-0.1,0.1-0.2,0.2-0.3,0.4C31.7,28.7,32,28.8,32.4,28.7z
	 M33.1,26c0.1,0,0.2-0.1,0.3-0.3c-0.1-0.1-0.2-0.2-0.2-0.1c-0.1,0.1-0.2,0.2-0.3,0.2C32.9,25.9,33,26,33.1,26z M33.1,23.1
	c0,0-0.1,0.1-0.1,0.1c0,0,0.1,0,0.1,0C33.1,23.2,33.2,23.2,33.1,23.1C33.2,23.1,33.1,23.1,33.1,23.1z M33.4,24.2
	c0.1,0.2,0.2,0.4,0.3,0.5c0.1-0.1,0.2-0.2,0.4-0.4C33.7,24.2,33.6,24.2,33.4,24.2z M33.5,32.3C33.5,32.3,33.5,32.3,33.5,32.3
	C33.5,32.3,33.5,32.3,33.5,32.3C33.5,32.3,33.5,32.3,33.5,32.3C33.5,32.3,33.5,32.3,33.5,32.3z M31.3,27.1C31.2,27,31,27,30.9,26.9
	C31,27.2,31,27.2,31.3,27.1z M31.4,26.5c0.1,0,0.1-0.1,0.2-0.1c0,0-0.1-0.1-0.2-0.2c0,0.1-0.1,0.1-0.1,0.2
	C31.3,26.5,31.4,26.6,31.4,26.5z M31.6,23.2c-0.1-0.2-0.3-0.2-0.6,0c0.3,0.1,0.4,0.1,0.6,0.1C31.6,23.3,31.6,23.3,31.6,23.2z
	 M30.9,25.4C30.9,25.4,31,25.4,30.9,25.4c0.1,0,0.1,0,0.1,0c0,0,0-0.1-0.1-0.1C30.9,25.3,30.9,25.4,30.9,25.4z M30.9,24.8
	c0.2,0,0.2-0.2,0.1-0.3c-0.1-0.1-0.1-0.1-0.2-0.2c0-0.1,0-0.3,0-0.4c0,0-0.1,0-0.1,0c0,0.1,0,0.3,0,0.4c0,0.1-0.2,0.3-0.1,0.4
	C30.6,24.7,30.8,24.8,30.9,24.8z M32.2,32.7c0.1,0,0.2,0,0.2,0.1C32.4,32.7,32.3,32.7,32.2,32.7C32.2,32.6,32.2,32.7,32.2,32.7z
	 M32.5,32.8C32.5,32.8,32.5,32.8,32.5,32.8C32.5,32.8,32.5,32.8,32.5,32.8L32.5,32.8z M32.5,32.8L32.5,32.8
	C32.5,32.8,32.4,32.8,32.5,32.8C32.4,32.8,32.4,32.8,32.5,32.8z M32.5,32.8c0.1,0.3,0.2,0.3,0.4,0.1c0.1-0.1,0.1-0.1,0.1-0.2
	c0-0.1-0.1-0.2-0.1-0.3C32.7,32.5,32.6,32.6,32.5,32.8z M31.7,31.1C31.7,31.1,31.7,31.1,31.7,31.1C31.7,31.1,31.7,31.1,31.7,31.1
	L31.7,31.1z M33.9,34.5C33.9,34.4,33.9,34.4,33.9,34.5C33.9,34.4,33.9,34.4,33.9,34.5L33.9,34.5z M33.5,33.3
	C33.5,33.3,33.5,33.3,33.5,33.3C33.5,33.3,33.5,33.3,33.5,33.3C33.5,33.3,33.5,33.3,33.5,33.3z M32.5,34.2
	C32.5,34.2,32.5,34.2,32.5,34.2C32.5,34.2,32.5,34.2,32.5,34.2L32.5,34.2z M33.9,34.5C33.9,34.5,33.9,34.4,33.9,34.5
	C33.9,34.4,33.9,34.4,33.9,34.5C33.9,34.4,33.9,34.5,33.9,34.5z M33.5,34.1C33.2,34,32.9,34,32.6,34c0,0-0.1,0.1-0.2,0.2
	c0.1,0,0.3,0.1,0.3,0.1c0.3,0.4,0.7,0.3,1.1,0.1C33.8,34.3,33.7,34.2,33.5,34.1z M33.5,33.3C33.5,33.3,33.5,33.3,33.5,33.3
	C33.5,33.3,33.5,33.3,33.5,33.3C33.5,33.3,33.5,33.3,33.5,33.3z M33.1,31.8c0.2-0.2,0.4-0.3,0.6-0.4c0,0,0-0.1,0-0.1
	c-0.5,0-1,0.2-1.5,0.3c0-0.3,0-0.5,0-0.8c0.5-0.1,0.6-0.7,0.9-1c0.1,0.3,0.3,0.6,0.4,1c0.1-0.6,0.1-1,0.2-1.5
	c-0.3,0.2-0.5,0.2-0.6-0.1c-0.2,0.2-0.4,0.4-0.6,0.5l0,0c0,0,0,0,0,0c0.1,0.5,0,0.6-0.3,0.7c-0.2,0-0.3,0.1-0.3,0.3
	c0,0.1-0.2,0.2-0.3,0.2c0,0.1,0.1,0.2,0.1,0.3c0.2,0.1,0.2,0.3,0.2,0.5c0,0.2-0.1,0.4,0.2,0.4c0,0.1,0,0.2-0.1,0.4
	c0.2-0.1,0.3-0.2,0.4-0.2c0.3-0.1,0.4,0,0.4,0.3c0.2,0,0.4-0.1,0.6-0.1C33.4,32.1,33.3,31.9,33.1,31.8z M31.7,31.1
	C31.7,31.1,31.7,31.1,31.7,31.1C31.7,31.1,31.7,31.1,31.7,31.1C31.7,31.1,31.7,31.1,31.7,31.1z M32.5,29.7
	C32.5,29.7,32.5,29.7,32.5,29.7L32.5,29.7L32.5,29.7z M31.2,29.4c0.2,0.1,0.5,0.1,0.6,0.2c0.2,0.3,0.4,0.2,0.7,0
	c-0.3-0.2-0.6-0.5-1-0.5C31.4,29.2,31.3,29.3,31.2,29.4z M34.6,32.4c0.1,0,0.2,0,0.4,0c0,0,0-0.1,0-0.1c-0.3-0.1-0.7-0.3-1-0.4
	c-0.2,0.1-0.3,0.2-0.5,0.3c0.1,0.1,0.2,0.3,0.2,0.5C34.1,32.3,34.1,32.3,34.6,32.4z M32.5,29.7C32.5,29.7,32.5,29.7,32.5,29.7
	C32.5,29.7,32.5,29.7,32.5,29.7C32.5,29.7,32.5,29.7,32.5,29.7z M31.2,30.2c-0.1,0-0.2,0.1-0.2,0.2c0,0.1,0,0.2,0.1,0.3
	c0.1,0.1,0.3,0.1,0.5,0.2c0-0.1,0-0.3-0.1-0.4C31.4,30.3,31.3,30.3,31.2,30.2z M31.6,30.8C31.6,30.8,31.6,30.8,31.6,30.8
	C31.6,30.8,31.6,30.8,31.6,30.8L31.6,30.8z M31.3,31.7c0.1-0.2,0.2-0.4,0.4-0.6c-0.2,0-0.4,0-0.6,0C31,31.4,31,31.6,31.3,31.7z
	 M31.6,30.8C31.6,30.8,31.6,30.8,31.6,30.8C31.6,30.8,31.6,30.8,31.6,30.8C31.6,30.8,31.6,30.8,31.6,30.8z M33.6,24.7
	C33.6,24.7,33.6,24.7,33.6,24.7C33.6,24.7,33.6,24.7,33.6,24.7L33.6,24.7z M16.9,31c-0.1,0.1-0.2,0.2-0.2,0.3c0.4,0.4-0.2,0.6-0.2,1
	c0.2-0.1,0.3-0.2,0.6-0.3c0.1,0.3,0.2,0.5,0.2,0.8c0,0,0.1,0,0.1,0c0-0.4,0-0.7,0-1.1c0.1,0,0.3,0.1,0.4,0.1c-0.2-0.3-0.5-0.6-0.7-1
	C17,30.9,16.9,30.9,16.9,31z M15.9,32.2c0.2-0.2,0.3-0.3,0.4-0.4c0.1-0.1,0.2-0.3,0.3-0.5C15.9,31.6,15.8,31.7,15.9,32.2z
	 M16.6,31.4C16.6,31.4,16.6,31.4,16.6,31.4C16.6,31.4,16.6,31.4,16.6,31.4C16.6,31.4,16.6,31.4,16.6,31.4z M18.1,31.4
	c0,0,0,0.1,0,0.1c0.1,0,0.2-0.1,0.3-0.1c0-0.1,0-0.1,0-0.2C18.3,31.3,18.2,31.3,18.1,31.4z M18,31c-0.1-0.3-0.2-0.5-0.3-0.8
	C17.5,30.8,17.5,30.8,18,31z M16.6,31.4C16.6,31.4,16.6,31.4,16.6,31.4C16.6,31.4,16.6,31.4,16.6,31.4L16.6,31.4z M18.3,26
	c0.1,0,0.1,0.1,0.2,0.1c0.1-0.2,0.2-0.3,0.3-0.5c0,0-0.1-0.1-0.1-0.1C18.6,25.7,18.4,25.8,18.3,26z M18.5,30.4
	c0.1,0.1,0.1,0.2,0.2,0.2c0,0,0.1-0.1,0.1-0.1c0-0.1-0.1-0.1-0.1-0.2C18.7,30.3,18.6,30.3,18.5,30.4z M18.1,22.4
	c0,0.4,0.1,0.6,0.6,0.4C18.5,22.7,18.4,22.6,18.1,22.4z M16,33.3c0.1,0.1,0.2,0.1,0.3,0.2c0,0,0-0.1,0.1-0.1
	c-0.1-0.1-0.2-0.2-0.2-0.2C16,33.3,16,33.3,16,33.3z M16.2,30.3c0,0.2,0,0.5-0.1,0.7c0,0,0.1,0.1,0.1,0.1c0.1-0.1,0.2-0.2,0.2-0.2
	c-0.1-0.5,0.3-0.7,0.7-0.9C16.7,30,16.7,30,16.2,30.3z M20.5,24c-0.3,0.3-0.5,0.5-0.8,0.7c0.2,0.4,0.6,0.6,1,0.6
	c0.1,0,0.1-0.1,0.2-0.2c-0.1-0.1-0.1-0.2-0.2-0.2c-0.1,0-0.2,0-0.3,0.1c0,0-0.1,0-0.1-0.1c0.1-0.1,0.3-0.2,0.4-0.3
	C20.5,24.4,20.7,24.1,20.5,24z M19.1,28.5C19.1,28.5,19.1,28.5,19.1,28.5C19.1,28.5,19.1,28.5,19.1,28.5
	C19.1,28.5,19.1,28.5,19.1,28.5z M21.9,25.9C21.9,25.9,21.9,26,21.9,25.9C21.9,26,21.9,26,21.9,25.9C21.9,26,21.9,26,21.9,25.9z
	 M19.3,28.4C19.3,28.4,19.3,28.4,19.3,28.4L19.3,28.4L19.3,28.4z M19.3,28.4L19.3,28.4C19.3,28.4,19.3,28.4,19.3,28.4
	c-0.1,0-0.2,0.1-0.2,0.1c0,0.1,0.1,0.3,0.1,0.4C19.6,28.6,19.6,28.6,19.3,28.4z M19.1,28.5L19.1,28.5C19.1,28.5,19.1,28.5,19.1,28.5
	C19.1,28.5,19.1,28.5,19.1,28.5z M19.3,28.4C19.3,28.4,19.3,28.4,19.3,28.4C19.3,28.4,19.3,28.4,19.3,28.4
	C19.3,28.4,19.3,28.4,19.3,28.4z M18.3,28.8c0.3-0.1,0.5-0.2,0.8-0.3C18.7,28.3,18.5,28.5,18.3,28.8z M19.3,28.4
	c0.1-0.2,0.2-0.4,0.2-0.6C19.2,27.9,19.2,28.1,19.3,28.4z M22.8,26c-0.4,0-0.6,0-0.9-0.1c0.1,0.2,0.3,0.3,0.4,0.5
	C22.5,26.3,22.6,26.2,22.8,26z M14.7,25.4c0,0-0.1-0.1-0.2-0.1c0,0,0,0.1-0.1,0.1c0.1,0,0.1,0.1,0.2,0.1
	C14.6,25.5,14.6,25.4,14.7,25.4z M14.3,23.2c0-0.1-0.1-0.2-0.1-0.2c-0.1,0-0.2,0.1-0.2,0.1c0,0.1,0.1,0.1,0.1,0.2
	C14.2,23.3,14.2,23.3,14.3,23.2z M15.3,22.2c-0.2,0.1-0.3,0.3-0.5,0.5C15.2,22.8,15.3,22.7,15.3,22.2z M14.9,30.6
	c0-0.1,0-0.1,0.1-0.2c-0.1,0.1-0.1,0.1-0.2,0.2C14.8,30.6,14.9,30.6,14.9,30.6z M14.7,31.7c0,0,0.1,0.1,0.1,0.1c0.1,0,0.1,0,0.2-0.1
	c-0.2-0.1-0.2-0.1-0.2-0.1C14.7,31.6,14.7,31.6,14.7,31.7z M13.8,27.3c0.2,0.1,0.3,0.1,0.5,0.2c0.1-0.2,0.2-0.4,0.3-0.6
	C13.9,26.6,13.9,26.7,13.8,27.3z M13.8,25c0.4,0,0.8,0,1.3,0c-0.1-0.1-0.1-0.2-0.2-0.3c-0.1,0.2-0.3,0.2-0.5,0
	c-0.1-0.2-0.1-0.3,0.1-0.4c-0.2-0.3-0.4,0.1-0.5,0c0-0.1,0-0.3,0-0.5C13.7,24.2,13.7,24.2,13.8,25z M14.9,24.7
	c0.1-0.1,0.2-0.3,0.4-0.5c-0.4,0.1-0.5,0.1-0.7,0.1C14.5,24.5,14.7,24.6,14.9,24.7z M18.4,24c0.2,0.2,0.3,0.4,0.4,0.5
	c0.1,0,0.1-0.1,0.2-0.1C18.9,24.2,18.8,24,18.4,24z M14.6,24.3C14.6,24.3,14.6,24.3,14.6,24.3C14.6,24.3,14.6,24.3,14.6,24.3
	C14.6,24.3,14.6,24.3,14.6,24.3C14.6,24.3,14.6,24.3,14.6,24.3z M14.9,24.7C14.9,24.7,14.9,24.7,14.9,24.7
	C14.9,24.7,14.9,24.7,14.9,24.7L14.9,24.7C14.9,24.7,14.9,24.7,14.9,24.7C14.9,24.7,14.9,24.7,14.9,24.7
	C14.9,24.7,14.9,24.7,14.9,24.7L14.9,24.7z M16.3,28.9c0.4,0.2,0.5-0.1,0.7-0.2c-0.4-0.1-0.8-0.1-1.3-0.2c0,0.2,0,0.4-0.1,0.7
	C16,29.1,16.2,28.9,16.3,28.9z M27.9,25.5c0,0-0.1,0.1-0.1,0.1c0,0,0,0.1,0.1,0.1c0,0,0.1-0.1,0.1-0.1C28,25.5,27.9,25.5,27.9,25.5z
	 M15.1,25.4c0,0.1,0,0.3,0,0.4c0,0,0.1,0,0.1,0c0-0.1,0-0.3,0-0.4C15.2,25.5,15.2,25.4,15.1,25.4z M17.6,27.8c0.2,0,0.3,0,0.5,0
	C17.8,27.6,17.8,27.6,17.6,27.8z M14.7,34.2c0,0-0.1,0-0.1,0.1c0,0,0.1,0.1,0.1,0.1c0,0,0.1,0,0.2-0.1
	C14.8,34.2,14.8,34.2,14.7,34.2z M14.4,31c0.2,0.1,0.3,0.2,0.4,0.2C14.8,31,14.7,30.9,14.4,31z M14.6,33.5c0,0-0.1,0.1-0.1,0.1
	c0,0,0,0.1,0.1,0.1c0,0,0.1,0,0.2-0.1C14.7,33.6,14.6,33.6,14.6,33.5z M14.9,32.1c0,0,0.1,0.1,0.1,0.1c0,0,0-0.1,0.1-0.1
	C15,32.1,15,32.1,14.9,32.1C14.9,32.1,14.9,32.1,14.9,32.1z M14.9,26.7c0,0,0.1,0.1,0.1,0.2c0.1-0.1,0.1-0.1,0.1-0.2
	c0,0,0-0.1-0.1-0.1C15,26.6,14.9,26.6,14.9,26.7z M18.4,29.5c0,0,0.1-0.1,0.1-0.1c-0.2-0.2-0.4-0.5-0.6-0.8
	c-0.2,0.2-0.4,0.3-0.7,0.5C17.6,29.2,18,29.3,18.4,29.5z M22.3,29.3c0,0,0.1,0.1,0.1,0.1c0.2-0.1,0.3-0.3,0.5-0.4
	C22.6,29,22.5,29.1,22.3,29.3z M24.2,28.9C24.2,28.9,24.2,28.9,24.2,28.9C24.2,28.9,24.2,28.9,24.2,28.9
	C24.2,28.9,24.2,28.9,24.2,28.9C24.2,28.9,24.2,28.9,24.2,28.9L24.2,28.9z M21.3,33.3c0,0.3,0.1,0.3,0.3,0.4
	C21.6,33.5,21.6,33.3,21.3,33.3z M23.4,28.4c-0.2,0.2-0.3,0.5-0.5,0.7c0,0.2,0,0.3,0,0.5c0,0.1,0,0.2,0,0.2c0.4,0.1,0.1,0.5,0.3,0.7
	c0.4-0.4,0.7-0.7,0.2-1.3c0,0,0-0.1,0-0.2c0.2,0,0.4,0,0.7,0c-0.1-0.2-0.2-0.4-0.3-0.6C23.8,28.3,23.6,28.3,23.4,28.4z M22.9,29
	C22.9,29,22.9,29,22.9,29C22.9,29,22.9,29,22.9,29C22.9,29,22.9,29,22.9,29z M22.9,29C22.9,29,22.9,29,22.9,29
	C22.9,29,22.9,29,22.9,29C22.9,29,22.9,29,22.9,29z M21.6,33.7c0,0.2,0,0.3,0,0.6C21.9,34,21.9,34,21.6,33.7z M21.8,33.3
	c0.1-0.2,0.2-0.2,0.2-0.4c0,0-0.1-0.2-0.1-0.2c-0.1,0.1-0.2,0.1-0.2,0.2C21.6,33,21.7,33.1,21.8,33.3z M21.4,29.8
	c0.1,0.3,0.3,0.3,0.6,0.1C21.8,29.8,21.6,29.7,21.4,29.8z M21.5,28.9C21.5,28.8,21.5,28.8,21.5,28.9c0.1-0.2,0.2-0.3,0.4-0.3
	c0.3-0.2,0.3-0.2,0-0.5c-0.2,0.2-0.5,0.4-0.7,0.6c-0.2,0.2-0.3,0.4-0.1,0.7c0.5-0.2,0.9-0.3,1.3-0.5c0,0,0-0.1,0-0.1
	C22,28.8,21.7,28.8,21.5,28.9z M24.3,29.5c0,0,0.1,0,0.1,0c0.1-0.2,0.2-0.3,0.4-0.6c-0.3,0-0.5,0-0.6,0
	C24.2,29.1,24.3,29.3,24.3,29.5z M27,24.9c-0.1,0.4,0.1,0.6,0.3,0.7C27.4,25.3,27.3,25.1,27,24.9z M27.4,26.5c0,0,0.1,0,0.1,0
	c0-0.1-0.1-0.2-0.1-0.3c0,0-0.1,0-0.1,0C27.3,26.3,27.3,26.4,27.4,26.5z M27.2,28.9c0.1-0.1,0.2-0.1,0.3-0.2c0,0.1,0,0.2,0,0.3
	c0.4,0.2,0.5-0.2,0.8-0.2c-0.2-0.2-0.4-0.3-0.5-0.4c0.2-0.4,0.7-0.7,0.5-1.2c-0.2,0.5-0.7,0.4-1,0.6c0.1,0.1,0.2,0.1,0.4,0.2
	c-0.3,0-0.5,0.1-0.7,0.1C27,28.5,27.1,28.7,27.2,28.9z M25.7,25.1c0.4,0.3,0.7,0.5,1,0.7C26.7,25.2,26.7,25.1,25.7,25.1z M21.2,25.3
	c0.1,0.3,0.2,0.6,0.3,0.9c0.1-0.1,0.3-0.2,0.4-0.3C21.7,25.7,21.5,25.5,21.2,25.3C21.3,25.3,21.2,25.3,21.2,25.3z M24.3,26.1
	c0,0,0-0.1,0.1-0.1c-0.1,0-0.1-0.1-0.2-0.1c0,0-0.1,0.1-0.1,0.1C24.2,26,24.2,26,24.3,26.1z M23.5,26.6c0,0,0.1-0.1,0.1-0.1
	c0,0-0.1-0.1-0.1-0.1c0,0-0.1,0.1-0.1,0.1C23.4,26.5,23.5,26.5,23.5,26.6z M26.1,23.3C26.1,23.3,26,23.4,26.1,23.3
	c0,0.1,0,0.1,0,0.1C26.1,23.4,26.1,23.4,26.1,23.3C26.1,23.3,26.1,23.3,26.1,23.3z M25.7,24.3c0.2,0.2,0.3,0.2,0.6,0.2
	C26.1,24.1,25.9,24.2,25.7,24.3z M23.3,27.8c0,0,0.1-0.1,0.1-0.1c-0.1,0-0.2,0-0.3,0.1C23.2,27.7,23.3,27.8,23.3,27.8z M21,24.2
	c0,0,0.1,0,0.1,0c0-0.1,0-0.2,0-0.3c0,0-0.1,0-0.1,0C21.1,24,21,24.1,21,24.2z M20.4,27C20.4,27,20.4,26.9,20.4,27
	c-0.1-0.1-0.1,0-0.2,0C20.3,27,20.3,27.1,20.4,27C20.4,27.1,20.4,27,20.4,27z M20.9,23c0,0,0,0.1,0.1,0.1c0,0,0.1,0,0.1-0.1
	C21,23,21,23,20.9,23C20.9,23,20.9,23,20.9,23z M21.6,33.7C21.6,33.7,21.6,33.7,21.6,33.7C21.6,33.7,21.6,33.7,21.6,33.7
	C21.6,33.7,21.6,33.7,21.6,33.7z M19.8,27.8c0,0.1,0,0.1,0,0.2c0.1,0,0.3,0,0.4-0.1c0-0.1,0-0.1,0-0.2C20.1,27.7,20,27.8,19.8,27.8z
	 M21.9,26C21.9,26,21.9,26,21.9,26L21.9,26C21.9,25.9,21.9,26,21.9,26z M20.6,29c0-0.3,0-0.5,0-0.7c0,0-0.1,0-0.1,0
	C20.5,28.5,20.3,28.7,20.6,29z M22,27.4c0.1,0.1,0.2,0.1,0.3,0.2c0-0.1,0.1-0.1,0.1-0.2c-0.1-0.1-0.2-0.1-0.3-0.2
	C22,27.3,22,27.3,22,27.4z M21.1,28.2C21.1,28.2,21.2,28.3,21.1,28.2c0.1,0.1,0.1,0,0.2,0C21.2,28.2,21.2,28.1,21.1,28.2
	C21.2,28.1,21.1,28.2,21.1,28.2z M21.2,27C21.2,27.1,21.2,27.1,21.2,27c0.1,0,0.1,0,0.1,0C21.3,27,21.2,27,21.2,27
	C21.2,27,21.2,27,21.2,27z M20.5,25.7c-0.1,0.1-0.2,0.1-0.3,0.2c0,0,0.1,0.1,0.1,0.1C20.4,26,20.5,25.9,20.5,25.7
	C20.6,25.8,20.6,25.8,20.5,25.7z M19.6,27.4c0.1,0,0.1,0,0.2,0c0,0,0-0.1,0-0.1c-0.1,0-0.2-0.1-0.4-0.1
	C19.6,27.3,19.6,27.4,19.6,27.4z M19.7,29.8C19.7,29.8,19.7,29.8,19.7,29.8c-0.2,0.1-0.4,0.1-0.5,0.5c0.7,0.1,1,0.7,1.6,0.9
	C20.5,30.7,20.3,30.1,19.7,29.8z M19.7,29.8C19.7,29.8,19.7,29.8,19.7,29.8C19.7,29.8,19.7,29.8,19.7,29.8
	C19.7,29.8,19.7,29.8,19.7,29.8C19.7,29.8,19.7,29.8,19.7,29.8z M21.6,33.7C21.6,33.7,21.6,33.7,21.6,33.7
	C21.6,33.7,21.6,33.7,21.6,33.7L21.6,33.7z M20.9,26.4C20.9,26.4,20.9,26.5,20.9,26.4c-0.1,0.1-0.1,0.1-0.1,0.1
	C20.9,26.6,21,26.5,20.9,26.4C21,26.5,21,26.4,20.9,26.4z M14.2,28.9c0,0.1,0,0.2,0,0.3c0.2,0.1,0.4,0.2,0.7,0.3
	C14.7,29.1,14.6,28.8,14.2,28.9z M19.1,33.6c0,0,0.1,0.1,0.1,0.1c0.2-0.1,0.3-0.2,0.3-0.5C19.3,33.4,19.2,33.5,19.1,33.6z
	 M19.1,31.3c0.1,0.2,0.2,0.4,0.3,0.7c0.1-0.1,0.2-0.2,0.4-0.3c0.1,0.2,0.1,0.3,0.2,0.5c-0.2,0.2-0.3,0.4-0.5,0.6
	c0.2,0.2,0.4,0.3,0.5,0.4c0.1-0.3,0.2-0.6,0.3-1c0.1-0.1,0.2-0.3,0.4-0.4C19.8,31.1,19.6,31.1,19.1,31.3z M19.7,29.8L19.7,29.8
	C19.7,29.8,19.7,29.8,19.7,29.8C19.7,29.8,19.7,29.8,19.7,29.8z"/>
</svg>
