<?xml version="1.0" encoding="UTF-8" standalone="no"?>
<svg id="Pointer" style="enable-background:new 0 0 50.7 43.7" xmlns="http://www.w3.org/2000/svg" xml:space="preserve" viewBox="0 0 50.7 43.7" version="1.1" y="0px" x="0px" xmlns:xlink="http://www.w3.org/1999/xlink">
<path id="Bubble" fill="#4014BA" d="m29.8 0.9c-7.3-0.1-13.9 3.6-17.8 9.2-2.9 4.2-6.7 7.8-11.1 10.4l-0.9 0.4 0.5 0.3c4.3 2.5 7.8 6.2 10 10.7 3.5 6.9 10.7 11.6 19 11.6 11.7 0 21.2-9.4 21.3-21.1 0.1-11.6-9.3-21.3-21-21.5z"/>
<path id="Texture" fill="#5818D3" d="m38.7 31.6c-0.3-0.1-0.6-0.1-0.8-0.1 0.3-0.4 0.5-0.4 0.8 0.1zm10.1-5.8zm0.6 0.4c0-0.1 0-0.3-0.1-0.3-0.1-0.1-0.3 0-0.4 0l0.4 0.4c0-0.1 0-0.1 0.1-0.1zm0.2-2.2c0 0.1-0.1 0.1-0.1 0.2h0.1c0.1-0.1 0.2-0.2 0.2-0.3l-0.1-0.1c0 0.2-0.1 0.2-0.1 0.2zm0.4-3.5c0.2 0 0.3-0.1 0.4-0.3-0.2 0-0.4 0-0.7 0.1 0.1 0.1 0.2 0.2 0.3 0.2zm-0.1-1.8h0.1s0-0.1-0.1-0.1v0.1 0zm-1.1 6.6c-0.2 0.2-0.2 0.3 0 0.5 0.1-0.2 0.2-0.3 0-0.5zm0.3-2.1c0.2 0.1 0.4 0.1 0.6 0.2v-0.2c-0.2-0.1-0.4-0.1-0.7-0.2 0.1 0.1 0.1 0.1 0.1 0.2zm-0.3 2.1zm-0.4-0.6c0.1 0.2 0.2 0.4 0.4 0.6 0.1-0.5 0.1-0.5-0.4-0.6zm0.4 0.6zm1.2-4.2c-0.1 0.2-0.2 0.3-0.3 0.6 0.6-0.2 0.7-0.3 0.3-0.6zm-2.7 4s0.1 0 0.1 0.1v-0.1c0.1-0.1 0-0.1-0.1 0 0.1-0.1 0.1-0.1 0 0zm0.2-6.2l-0.2-0.2-0.1 0.1c0.1 0.1 0.1 0.1 0.3 0.1-0.1 0 0 0 0 0zm1.7 2.8c0.1 0.1 0.2 0.1 0.3 0.2 0 0 0-0.1 0.1-0.1-0.2 0-0.3-0.1-0.4-0.1zm-2-3.5c0.1 0 0.2 0.1 0.3 0.1 0-0.1 0-0.1 0.1-0.2-0.1 0-0.2 0-0.3-0.1l-0.1 0.2zm0.1 5.5c-0.2 0.3-0.2 0.3-0.1 0.7 0.5-0.2 0.5-0.3 0.1-0.7zm0-6.2l0.1-0.1h-0.1l-0.1 0.1c0-0.1 0.1 0 0.1 0zm1.3-2.1s-0.1 0 0 0h-0.2c0 0.1 0.1 0.1 0.2 0-0.1 0.1 0 0.1 0 0zm0.1 3.3l0.6-0.3c-0.3-0.3-0.5-0.1-0.6 0.3zm-0.9 9.3c0.3 0.6 0.5 0.7 1.1 0.5-0.3 0.6-0.5 1.1-0.7 1.6-0.1 0.2-0.2 0.4-0.1 0.7 0.3-0.5 0.5-1 0.7-1.5 0.1-0.3 0.3-0.6 0.7-0.7 0.1 0 0.2-0.2 0.2-0.3-0.1-0.3-0.3 0-0.5-0.1-0.1-0.2-0.2-0.4-0.3-0.7 0.3-0.3-0.1-0.6 0-0.9 0-0.1-0.2-0.2-0.2-0.3-0.2 0.3-0.3 0.5-0.5 0.9 0.2 0.2 0.4 0.4 0.6 0.5-0.2 0.7-0.6 0.5-1 0.3zm1.1-4c-0.2 0-0.4 0.1-0.6 0.1 0.3 0.3 0.5 0.3 0.6-0.1zm-2.6 3.5c0.3 0.5 0.6 0.9 0.9 1.3h0.4c-0.2-0.4-0.4-0.9-0.7-1.4-0.1 0.1-0.3 0.1-0.6 0.1zm-0.6 3.3c-0.6 0-0.9 0.4-1.2 0.7 0.5 0.4 1 0.6 1.5 0.5-0.6-0.2-0.4-0.7-0.3-1.2zm-2.9-5.1l-0.1-0.1c0 0.1-0.1 0.2-0.1 0.2l0.1 0.1c0-0.1 0-0.1 0.1-0.2zm0.1-4.4c0.6 0.4 0.6 0.3 0.8-0.2-0.3 0.1-0.5 0.2-0.8 0.2zm1.6 6.8c-0.2-0.1-0.4-0.2-0.7 0 0.2 0.2 0.4 0.3 0.6 0.4 0.3-0.1 0.3-0.3 0.1-0.4zm-0.4 1.2c-0.2 0.3-0.3 0.4 0 0.6v-0.6zm-0.8 0.6c-0.4-0.3-0.4-0.6-0.4-1 0-0.2 0-0.3-0.2-0.3v0.8c0 0.5 0.1 0.6 0.6 0.5zm0.1-1l-0.1 0.1c0.1 0.1 0.1 0.2 0.2 0.3l0.1-0.1c-0.1-0.1-0.1-0.2-0.2-0.3zm1-5.2h-0.6c0.2 0.3 0.3 0.2 0.6 0zm-1.2 6.8l0.1 0.1s0-0.1 0.1-0.1c0-0.1-0.1-0.1-0.2 0 0.1-0.1 0.1 0 0 0zm-0.2-7.3c-0.1 0.3 0.1 0.4 0.3 0.6 0.2-0.3 0.4-0.5 0.5-0.8l-0.1-0.1c-0.1 0.2-0.5-0.1-0.7 0.3zm2.1 10.2c0 0.1 0.1 0.3 0.2 0.4h0.1v-0.7l-0.3 0.3zm1.7-3.8v-0.1l-0.1-0.1s-0.1 0.1 0 0.1c-0.1 0 0 0 0.1 0.1zm0.9-0.7c-0.1 0-0.1 0 0 0-0.1 0-0.1 0 0 0-0.1 0-0.1 0 0 0zm-1-2.9c0.2 0.5 0.6 0.6 1.1 0-0.3 0-0.5-0.1-0.7-0.1 0 0.5-0.2 0-0.4 0.1zm0.9 2.9l-0.4 0.4c0.8-0.2 0.8-0.2 0.8-0.7-0.1 0.2-0.2 0.2-0.4 0.3zm-0.8-3.5c-0.1-0.1-0.2-0.2-0.3-0.2l-0.1 0.1c0.1 0.1 0.2 0.1 0.3 0.2l0.1-0.1zm0 5.2c-0.2 0.1-0.3 0.1-0.7 0.2 0.5 0.2 0.3 0.8 0.8 0.8 0.2-0.3 0.4-0.6 0.6-1-0.2-0.2-0.4-0.3-0.6-0.5-0.1 0.2-0.1 0.3-0.1 0.5zm-0.3-3.9c-0.1 0.1-0.2 0.2-0.4 0.5 0.6-0.1 0.6-0.1 0.4-0.5zm-0.1-0.9c0-0.1 0-0.1-0.1-0.1 0 0-0.1 0-0.1 0.1v0.1c0.1-0.1 0.1-0.1 0.2-0.1zm-0.5 2.8c-0.1-0.2-0.1-0.4-0.2-0.6-0.3 0.6-0.2 0.8 0.6 1 0.1-0.3-0.2-0.3-0.4-0.4zm3.7-0.8c-0.1 0-0.1 0-0.2 0.1 0.1 0 0.2 0 0.3 0.1 0-0.1 0-0.2-0.1-0.2zm-7.8 2.5s0-0.1 0.1-0.1h-0.2s0 0.1 0.1 0.1zm-0.2-4.1c-0.1 0.1 0 0.1 0 0.2 0.1-0.1 0.1-0.1 0-0.2 0.1 0 0.1 0 0 0zm0.1 5.4zm0.4-10.7l-0.3-0.3c0 0.1 0 0.4 0.3 0.3zm-0.4 11c0.3 0.1 0.6 0.4 1 0.3 0-0.3-0.1-0.4-0.3-0.4s-0.5 0-0.6-0.2c-0.1 0.1-0.1 0.3-0.1 0.3zm0.8-0.4c0-0.1-0.1-0.3-0.2-0.5 0 0-0.1 0-0.1-0.1-0.1 0.2-0.2 0.4-0.4 0.6h0.2c0.2 0.2 0.4 0.2 0.5 0zm0.5-13.6c-0.1-0.4-0.1-0.6-0.2-0.9-0.3 0.4-0.3 0.5-0.2 0.7 0.1 0.1 0.2 0.1 0.4 0.2zm-1.1 4.3c0.1 0 0.2 0 0.2-0.1l-0.1-0.1c-0.1 0.1-0.1 0.1-0.1 0.2zm1.4-3.1c-0.1 0-0.1 0 0 0-0.1-0.1-0.1 0-0.1 0s0 0.1 0.1 0c-0.1 0.1-0.1 0 0 0zm-0.5-0.6c-0.1-0.2-0.2-0.3-0.3-0.4-0.3 0.2-0.3 0.2-0.1 0.6 0.1-0.1 0.2-0.2 0.4-0.2zm-3.4 6c0.2-0.1 0.3-0.1 0.5-0.2 0 0 0-0.1-0.1-0.1-0.2 0.1-0.3 0.1-0.5 0.2 0 0 0.1 0 0.1 0.1zm0.9-1.9c-0.1 0-0.2 0.1-0.4 0.1 0.1 0.2 0.1 0.4 0.2 0.7 0.5-0.3-0.1-0.6 0.2-0.8zm0-4.2h-0.2v0.1h0.2v-0.1zm3.3 2.2c-0.1 0-0.1-0.1 0 0h-0.2s0.1 0.1 0.2 0c-0.1 0.1-0.1 0 0 0zm-4.2 3c0 0.1 0.1 0.1 0.2 0.2 0.1-0.1 0.1-0.2 0.1-0.3l-0.1-0.1c-0.1 0.1-0.2 0.1-0.2 0.2zm2-0.6c0.1 0.1 0.2 0.1 0.3 0.2 0 0 0-0.1 0.1-0.1-0.2 0-0.3-0.1-0.4-0.1v0zm0.2-5.6c-0.1 0-0.1-0.1-0.2-0.1l-0.1 0.1 0.1 0.1c0.1 0.1 0.2 0 0.2-0.1zm-0.2 1.6v0c-0.1-0.1-0.2-0.1-0.2 0v0.1c0.1-0.1 0.2-0.1 0.2-0.1zm-0.4-1.3s0-0.1-0.1-0.1-0.2 0-0.2 0.1c-0.1 0.1-0.1 0.1-0.1 0.2 0 0 0.1 0 0.1 0.1l0.3-0.3zm-0.3 3.7c0.3-0.1 0.5-0.2 0.7-0.2-0.1-0.2-0.2-0.4-0.5-0.3-0.2 0-0.3 0.2-0.2 0.5zm5.6-1.6l0.3-0.6h-0.7c0 0.3 0 0.6 0.4 0.6zm0.6-1.4c-0.3 0.2-0.3 0.4-0.2 0.7 0.1-0.1 0.2-0.4 0.2-0.7zm0 4l-0.1-0.1-0.6 0.3c0.5 0.1 0.6 0 0.7-0.2zm-1.6 1.9c-0.2 0.4-0.3 0.8-0.5 1.1 0.2 0.2 0.4 0.4 0.8 0.3-0.2-0.1-0.3-0.2-0.4-0.3 0.1-0.2 0.3-0.3 0.4-0.4s0.1-0.2 0.1-0.3c-0.1-0.3 0.1-0.4 0.3-0.5-0.1-0.1-0.1-0.2-0.2-0.2-0.2 0.1-0.5 0.1-0.5 0.3zm1.3-5.2zm-0.6 5c0.2 0.1 0.4 0.3 0.7 0.5-0.2-0.4-0.4-0.6-0.7-0.5zv0 0zm0.6-7.6c-0.1-0.1-0.1-0.2-0.2-0.3h-0.2c0.1 0.2 0.2 0.3 0.3 0.4l0.1-0.1zm-2.7 0.9h-0.1c0 0.1 0 0.2-0.1 0.2h0.1s0-0.1 0.1-0.2zm2.7 1.7zm-0.4-2.1h-0.1c0 0.1 0 0.1 0.1 0v0zm0.3 4.2c-0.1 0-0.2 0.1-0.3 0.1 0 0.1 0.1 0.2 0.1 0.2 0.1 0 0.2-0.1 0.3-0.1-0.1-0.1-0.1-0.2-0.1-0.2zm-1.9-1.5c0-0.1-0.1-0.1 0 0h-0.2s0.1 0 0.1 0.1l0.1-0.1zm-0.1 0.7v-0.1s0-0.1-0.1-0.1c0 0 0 0.1 0.1 0.2-0.1-0.1-0.1 0 0 0zm-0.3 1.4s0 0.1-0.1 0.1c0.2 0.1 0.3 0.1 0.4 0.2 0-0.3 0-0.3-0.3-0.3zm-0.6 0.7h0.4s0-0.1 0.1-0.2c-0.2 0.1-0.4 0.1-0.5 0.1s0 0.1 0 0.1zm1.7-1.9c-0.1-0.1-0.2 0-0.2 0 0 0.1 0 0.1 0.1 0.2 0.1-0.1 0.1-0.2 0.1-0.2zm0 1.5c-0.1-0.1-0.1-0.2-0.2-0.3 0 0-0.1 0-0.1 0.1s0.1 0.2 0.1 0.3c0.1 0 0.1 0 0.2-0.1zm0.2-5.3c0-0.1-0.1-0.2-0.1-0.3h-0.2c0 0.1 0.1 0.2 0.1 0.3h0.2zm-0.7 6.8c0-0.1 0.1-0.2 0.1-0.3h-0.1c0 0.1-0.1 0.2-0.1 0.3h0.1zm-0.3-0.9c0 0.1 0.1 0.1 0.1 0.2l0.1-0.1c0-0.1-0.1-0.1-0.2-0.1v0zm-11.7 1.4c0 0.1 0 0.1 0.1 0.2 0.1 0 0.1 0 0.1-0.1s-0.1-0.2-0.2-0.1c0.1-0.1 0-0.1 0 0zm6.9 3.9zc-0.1-0.1-0.2-0.2-0.2-0.3-0.3 0.5-0.3 0.5 0.2 0.7v-0.4zm-1.2 6l0.1 0.1s0-0.1 0.1-0.1c-0.1-0.1-0.1-0.1-0.2 0v0zm1.6-6.4c-0.4 0-0.4 0.2-0.4 0.4l0.4-0.4zm-1.4 4.3v-0.2h-0.3v0.1c0.1 0.1 0.2 0.1 0.3 0.1zm0.1 1.1c-0.2 0.1-0.3 0.2-0.4 0.3 0 0 0 0.1 0.1 0.1 0.1-0.1 0.2-0.1 0.4-0.2-0.1 0-0.1-0.1-0.1-0.2zm2.6-3.4s0.1 0 0 0c0.1-0.1 0.1-0.1 0.1-0.2-0.1 0.1-0.1 0.1-0.1 0.2v0zm-0.7-7.4c0.1 0 0.2 0.1 0.3 0.1 0 0 0-0.1 0.1-0.1-0.1-0.1-0.2-0.1-0.4 0v0zm-0.3 4.4s0 0.1-0.1 0.1l0.1 0.1 0.1-0.1s0-0.1-0.1-0.1zm0.5-3.1s-0.1 0.1 0 0c-0.1 0.1 0 0.1 0 0.2v-0.2zm0.7 12.7c-0.1 0-0.3 0-0.3 0.1-0.2 0.4-0.4 0.7-0.3 1.3 0.3-0.4 0.6-0.7 0.9-1.1l-0.3-0.3zm-5.3-3.3c-0.1 0-0.1 0 0 0-0.1 0.1 0 0.1 0 0.2v-0.2zm-1.3-2.3s0 0.1 0.1 0.1c0 0 0.1 0 0.2-0.1 0-0.1-0.1-0.1-0.1-0.2l-0.2 0.2zm0.4 0.8c-0.3 0.1-0.3 0.2-0.2 0.5h0.7c-0.2-0.6-0.2-0.6-0.5-0.5zm5.1 3.7c-0.1 0.4-0.5 0.8 0 1.2 0.6-0.5 0.6-0.8 0-1.2zm-3.9-1.6c0-0.1-0.1-0.1-0.1-0.1-0.1 0-0.1 0.1-0.2 0.1 0 0 0 0.1 0.1 0.1 0 0 0.1-0.1 0.2-0.1zm0-1.4c-0.2 0.1-0.4 0.1-0.6 0.1s-0.4 0.1-0.6 0.1c0.1 0.3 0.3 0.5 0.5 0.9 0.1-0.6 0.5-0.8 1.1-0.8 0.3 0 0.6-0.1 1-0.2-0.6-0.2-1-0.2-1.4-0.1zm1.3-3.4c0 0.1-0.1 0.1-0.1 0.2 0.1 0 0.2-0.1 0.3-0.1-0.1-0.1-0.2-0.1-0.2-0.1zm0.6 3.8c0-0.1-0.1-0.2-0.1-0.2-0.2 0-0.2 0.2-0.2 0.3 0.2 0.2 0.3 0.1 0.3-0.1zm-0.9 1.7l0.1-0.1c-0.1-0.1-0.2-0.1-0.2-0.2l-0.1 0.1c0.1 0 0.1 0.1 0.2 0.2zm2.9-5.7h0.3v-0.1h-0.3v0.1zm-7.4-1.7v0.3h0.2c0-0.1 0-0.2-0.1-0.3h-0.1zm0.8-0.8c-0.1 0-0.1 0.1-0.1 0.2l0.1 0.1c0.1 0 0.1-0.1 0.2-0.2-0.1-0.1-0.2-0.2-0.2-0.1zm-0.1-0.9c0.3 0.1 0.5 0.1 0.8 0.2-0.1-0.3-0.2-0.4-0.3-0.5-0.2 0.1-0.3 0.2-0.5 0.3zm-1.7 3c0.3-0.2 0.5-0.3 0.8-0.5-0.4-0.1-0.6-0.2-0.9-0.2 0 0.3 0 0.5 0.1 0.7zm7.4-7.5h-0.6c0.1 0.4 0.3 0.4 0.5 0.4 0.1 0 0.2-0.1 0.2-0.2 0 0 0-0.1-0.1-0.2zm-6.7 6s0.1 0 0 0c0.1-0.1 0-0.1 0-0.1v0.1zm1.8 4.5l-0.4-0.4c0 0.3 0 0.3 0.4 0.4zm6.5-2.6c0.1 0 0.2 0.1 0.2 0.1s0.1 0 0.1-0.1v-0.2c-0.1 0.1-0.1 0.1-0.3 0.2zm-6.8-1.6h-0.3v0.1h0.3v-0.1zm0.5-0.3h-0.1v0.1s0.1 0 0.1 0.1v-0.2zm-1.4-1.8c0.1-0.1 0.2-0.1 0.2-0.2h-0.3c0 0.2 0 0.2 0.1 0.2zm6.9 2.8c0.2 0.2 0.3 0.3 0.5 0.4 0.2-0.3 0.4-0.5 0.6-0.8 0-0.1-0.1-0.2-0.2-0.4-0.5 0.7-0.5 0.7-0.9 0.8zm-7.6 1v0.3h0.1v-0.3h-0.1zm8.7-4.6l-0.2-0.2-0.1 0.1s0 0.1 0.1 0.1c0 0.1 0.1 0.1 0.2 0zm-1.7 2.6c0.4-0.2 0.7-0.5 1-0.7-0.2-0.2-0.4-0.5-0.8-0.4 0 0.4-0.1 0.8-0.2 1.1zm0.9-1.7c-0.2 0.1-0.4 0.2-0.7 0.3 0.3 0.1 0.4 0.2 0.6 0.3 0.1-0.3 0.1-0.4 0.1-0.6zm-1.5 8.5h0.2c0-0.2 0.1-0.4 0.1-0.6-0.1-0.1-0.3-0.2-0.5-0.4 0.1 0.4 0.2 0.7 0.2 1zm-0.7-2.6c0.1-0.1 0.1-0.2 0.2-0.3 0.3 0 0.4 0.3 0.5 0.5s0.1 0.5 0.2 0.6c0.5 0.3 0.4 0.6 0.1 1v0.1c0.7-0.1 0.6-0.7 0.7-1.3h-0.5c0.4-0.4 0.7-0.7 1-1.1l-0.6-0.3c-0.2 0.4-0.2 0.8-0.7 0.6-0.1-0.2-0.2-0.4-0.3-0.5 0.1-0.1 0.3-0.2 0.4-0.3-0.2-0.2-0.1-0.6-0.6-0.7 0-0.1 0-0.3 0.1-0.5-0.5 0.6-0.5 0.6 0 1.1-0.3 0.3-0.6 0.7-1.2 0.7 0.4 0.2 0.5 0.3 0.7 0.4zm-3.5-1.3s-0.1 0-0.1 0.1c0 0 0.1 0 0.1 0.1v-0.2 0zm4.5 3.3zm3.1-8.4zm1.3 0.4zm-1-5.2v-0.1h-0.2v0.1h0.2zm0.8 11.4c0.1 0 0.3 0.1 0.4 0.1 0.1-0.2 0.2-0.3 0-0.5-0.2 0.1-0.4 0.1-0.4 0.4zm0.2-6.2c-0.1-0.1-0.1-0.2-0.2-0.2-0.1-0.1-0.3-0.1-0.4-0.2-0.2-0.2-0.4-0.2-0.6 0 0.3 0.1 0.7 0.5 1.2 0.4zm0.6-0.2c-0.2 0.1-0.4 0.1-0.6 0.2 0.2 0.1 0.3 0.3 0.6 0.5v-0.7zm-2 1.9zm-0.1-0.3v0.3c0-0.1 0.1-0.2 0.1-0.3h-0.1zm0.1 0.3c-0.1 0.1-0.1 0.3 0.2 0.5-0.1-0.3-0.2-0.4-0.2-0.5zm0.1-6.3s0.1 0 0.1 0.1v-0.1s0-0.1-0.1 0v0zm-0.1 6.3zm2.1-0.8c-0.2 0-0.4-0.1-0.6-0.1v0.1c0.2 0.1 0.3 0.3 0.5 0.5-0.1 0.1-0.1 0.2-0.2 0.3 0.4 0.1 0.8 0.1 1 0.4 0.3-0.2 0.4-0.4 0.3-0.7-0.7 0.1-0.7 0.1-1-0.5zm-2-1v-0.3c0 0.1-0.1 0.1-0.1 0.2s0 0.1 0.1 0.1zm1.5 6.4c-0.1 0.1-0.2 0.3-0.4 0.5 0.5-0.2 0.5-0.2 0.4-0.5zm-0.8-3.9c0 0.2-0.1 0.4-0.2 0.6 0 0 0.1 0 0.1 0.1 0.3-0.4 0.7-0.9 1-1.3h-0.9c0.1 0.2 0 0.4 0 0.6zm2.1 2.9s0 0.1 0.1 0.2c0 0 0.1-0.1 0.2-0.1 0-0.1-0.1-0.1-0.1-0.2-0.1 0.1-0.2 0.1-0.2 0.1zm-1.1-3.6zm1 1.1c0.3 0.1 0.5 0.1 0.8 0.2-0.2-0.7-0.3-0.7-0.8-0.2zm-1-1.1zm-3.6 6.7zm0.4-0.4c0.1 0 0.1 0.1 0.2 0.1 0.5 0.1 0.7 0.4 0.6 0.8 0.3-0.1 0.4-0.2 0.3-0.5-0.1-0.2 0-0.4 0.1-0.5-0.3-0.3-0.7-0.4-1.1-0.1v-1.1c-0.6 0-0.6 0.1-0.6 0.5 0.1 0 0.3 0 0.5-0.1-0.2 0.3-0.2 0.5-0.3 0.6 0 0.1 0.1 0.1 0.1 0.2s0.1 0.1 0.2 0.1zm0.7 1.4zm-2 2.3zm1.4-6c-0.3 0.4-0.3 0.7-0.1 1 0.3-0.3 0.3-0.6 0.1-1zm-0.5 2c-0.2 0.2-0.1 0.4 0 0.6 0-0.1 0.1-0.3 0.1-0.4 0 0-0.1-0.1-0.1-0.2zm1.1 1.2zm-0.6-2.2zm0.7-4.6c0.1 0.2 0.2 0.3 0.3 0.4 0 0 0.1 0.1 0.3 0.1-0.3-0.4-0.3-0.4-0.6-0.5zm-2.1 9.6zm1.4-5zm-0.9 5h-0.6c0.2 0.3 0.4 0.3 0.6 0zm2.5-5.7c-0.1 0.3 0.1 0.4 0.3 0.6 0-0.2 0.1-0.5-0.3-0.6zm-1 2.9c-0.4-0.2-0.8-0.3-1.2-0.5-0.1 0.2-0.1 0.3 0 0.4 0.3 0.3 0.1 0.5-0.3 0.6-0.2 0-0.3 0.1-0.5 0.2-0.1-0.1-0.2-0.3-0.4-0.4 0 0.1-0.4 0.3-0.5 0.4-0.2 0.2-0.4 0.3-0.6 0.2-0.1 0.5-0.2 0.9-0.8 0.8-0.1 0-0.2 0.1-0.3 0.2-0.3 0.3-0.3 0.8-0.1 1.1 0.3 0.5 0.3 0.5 1.1 0.4-0.2-0.1-0.3-0.3-0.4-0.3-0.2 0-0.5-0.1-0.4-0.4 0-0.1 0.2-0.3 0.4-0.3 0.1-0.1 0.3-0.1 0.4-0.1 0.1 0.3 0.3 0.5 0.2 0.7-0.1 0.4 0.1 0.5 0.3 0.7s0.4 0.5 0.7 0.4c-0.1-0.3-0.1-0.5-0.2-0.8-0.1 0-0.2-0.1-0.4-0.2 0.3-0.4 0.5-0.2 0.7 0 0.1-0.2 0.1-0.4 0.2-0.6h-0.6l-0.3-0.6c0.1-0.2 0.2-0.4 0.4-0.7 0.6 0 0.6 0 1.3-0.3 0.1 0 0.2 0 0.3-0.1 0.4 0.3 0.2 0.8 0.3 1.3 0.2-0.3 0.4-0.5 0.5-0.8-0.3-0.2-0.4-0.4-0.1-0.7h-0.5c0.2-0.3 0.3-0.2 0.5 0 0.7-0.3 0.7-0.3 0.3-0.6zm0.8-4.5l-0.1-0.1s-0.1 0-0.1 0.1c0 0 0 0.1 0.1 0.3 0-0.2 0.1-0.3 0.1-0.3zm0.5 2.2zm0.4 0.2c0-0.1-0.2-0.2-0.4-0.2v0.5c0 0.2-0.1 0.4-0.1 0.6 0 0 0 0.1 0.1 0.1 0.1-0.1 0.2-0.2 0.4-0.3 0 0.2 0.1 0.4 0.1 0.5 0.3-0.1 0.5-0.3 0.7-0.4-0.1-0.1-0.1-0.1-0.2-0.1-0.4-0.1-0.7-0.3-0.6-0.7zm-0.4-0.2zm-0.2 4l0.1-0.2c-0.2-0.3-0.3-0.2-0.5 0 0.1 0.3 0.2 0.4 0.4 0.2zm-0.3 1.1c0-0.1 0-0.1 0.1-0.2h-0.1c-0.1 0.1-0.1 0.2-0.2 0.4h0.1c0-0.1 0-0.1 0.1-0.2zm-0.3-0.5v-0.4c-0.2 0.2-0.2 0.2 0 0.4zm-32.7-18.1s0-0.1-0.1-0.1c-0.2 0.1-0.3 0.2-0.5 0.3 0 0 0 0.1 0.1 0.1 0.2-0.1 0.3-0.2 0.5-0.3zm5.8 13.8s0.1 0 0.1 0.1c0.1-0.1 0.1-0.3 0.2-0.4 0 0-0.1 0-0.1-0.1-0.1 0.1-0.2 0.2-0.2 0.4zm0-1.8s0.1 0 0.1-0.1l-0.1-0.1c0.1 0.1 0 0.1 0 0.2zm1.2-2.3zm-1.4-12.5v-0.2h-0.1s-0.1 0.1 0 0.1l0.1 0.1zm0.2 4.2v-0.2h-0.2l0.2 0.2zm0.9-3.1c-0.1 0.1-0.2 0.2-0.4 0.3 0.4 0 0.4 0 0.4-0.3zm-1.2 0.2c0.1 0 0.1-0.1 0.2-0.2-0.1-0.1-0.3-0.1-0.5-0.3 0.1 0.3 0.1 0.5 0.3 0.5zm1.3 4.6s0.1-0.1 0 0c0.1-0.1 0-0.2 0-0.2l-0.1 0.1s0.1 0 0.1 0.1zm0.5-3.9v-0.2c-0.1-0.2-0.3-0.2-0.5 0 0.2 0.2 0.3 0.4 0.5 0.2zm-0.3 10.1c0-0.3-0.1-0.5-0.3-0.6-0.3-0.1-0.5 0.2-0.5 0.4 0.3 0.2 0.6 0.5 0.8 0.7v-0.5zm0.3 0.9c0.1-0.4-0.2-0.4-0.3-0.5-0.1 0.1-0.2 0.1-0.4 0.2 0.3 0.2 0.5 0.2 0.7 0.3zm-3.3-9.8c-0.2 0.1-0.3 0.1-0.4 0.2 0.3 0.1 0.3 0.1 0.4-0.2zm-1.2 9.2c0.3 0.1 0.5 0.1 0.8 0.2-0.2-0.6-0.3-0.6-0.8-0.2zm2-5.6c-0.3 0.2-0.6-0.3-0.8 0.3 0.7 0.2 0.7 0.2 0.8-0.3zm-2.3 1.9c-0.5-0.1-0.5-0.1-0.8 0.4 0.2 0 0.5 0 0.8-0.1 0.1 0.3 0.3 0.6 0.9 0.7-0.2-0.2-0.3-0.4-0.4-0.6 0-0.1 0.1-0.2 0.1-0.4-0.2 0.1-0.4 0.1-0.6 0zm0.1-0.7c0.1 0.1 0.1 0 0.2 0-0.1 0-0.1-0.1-0.2 0 0.1-0.1 0 0 0 0zm2.2-3.4c0.1 0 0.2 0 0.2-0.1s-0.1-0.2-0.1-0.2c-0.1 0-0.1 0-0.3 0.1 0.1 0.1 0.1 0.2 0.2 0.2zm-0.5 1.1l0.1 0.1c0.1 0 0.1-0.1 0.2-0.2-0.1 0-0.2-0.1-0.2-0.1 0 0.1 0 0.2-0.1 0.2zm1.4 0.3c-0.5-0.1-0.5-0.1-0.9 0.5 0.3 0 0.3 0 0.9-0.5zm-1.2-4.8v-0.5c-0.1 0.1-0.4 0.2 0 0.5zm7.3 5v-0.1c-0.1 0-0.1 0 0 0.1-0.1 0-0.1 0 0 0zm-3.2 3.7c0-0.1-0.2-0.2-0.3-0.2 0 0-0.2 0.1-0.2 0.2 0 0.2 0 0.4 0.1 0.7 0.4-0.3 0.5-0.4 0.4-0.7zm1.7-3.2c0.1 0 0.1-0.1 0.1-0.1h-0.1c-0.1 0-0.1 0.1 0 0.1zm-1.2 1.6l1.2 0.3c0-0.2 0-0.5 0.1-0.7-0.3 0-0.6 0.1-0.9 0.1-0.2 0-0.3 0.1-0.4 0.3zm0.3-3.6c-0.3-0.1-0.5-0.2-0.8-0.3v0.3c0.3 0.2 0.5 0.3 0.8 0zm-2.2-0.6c0 0.1-0.1 0.1-0.1 0.2 0 0 0.1 0 0.1 0.1 0-0.1 0.1-0.1 0.1-0.2 0 0 0-0.1-0.1-0.1zm2.8-2.3c0.1 0.1 0.1 0.2 0.2 0.4 0.1-0.3 0.1-0.3-0.2-0.4zm0.9 4.8l0.1-0.1-0.1-0.1-0.1 0.1s0 0.1 0.1 0.1zm0.6-5.4s0.1 0 0.1-0.1c-0.1-0.1-0.2-0.2-0.4-0.3-0.1 0.3 0.1 0.3 0.3 0.4zm-1.9 4.2c-0.4 0.1-0.4 0.4-0.6 0.5-0.2 0.2-0.5 0.2-0.8 0.3 0.9 0.2 0.9 0.2 1.4-0.8zm1.9-0.1c0.1 0 0.1 0.1 0.2 0.1l0.1-0.1-0.1-0.1c-0.2 0-0.2 0-0.2 0.1zm-0.3-0.3v-0.2c-0.3 0.1-0.4 0.2-0.3 0.6 0.2-0.2 0.2-0.3 0.3-0.4zm-0.3 2.9s-0.1 0 0 0c-0.1 0-0.2 0.1-0.2 0.2h0.1s0.1-0.1 0.1-0.2zm-3.3-5c0.1 0 0.1-0.1 0.2-0.1-0.1-0.1-0.1-0.1-0.2-0.1s-0.1 0.1-0.1 0.1l0.1 0.1zm0.2 1.8h0.1c0-0.1-0.1-0.2-0.1-0.2h-0.1c0.1 0 0.1 0.1 0.1 0.2zm22.3-0.4c-0.9 0.4-0.9 0.4-0.7 0.8 0.2-0.2 0.4-0.5 0.7-0.8zm-23 2.1c0.1 0.1 0.3 0.2 0.5 0.4 0.1-0.2 0.2-0.4 0.1-0.5-0.2-0.2-0.2-0.6-0.5-0.7 0 0.3 0 0.6-0.1 0.8zm0.2 4c0.3 0 0.5 0.1 0.7 0.1-0.1-0.3-0.2-0.4-0.3-0.7-0.2 0.2-0.3 0.4-0.4 0.6zm1.3 1.6v-0.2h-0.3c-0.1-0.2-0.2-0.4-0.3-0.4-0.2 0-0.3 0.2-0.6 0.4 0.6 0.1 0.8 0.5 1.2 0.2zm-5.7-7.8v-0.2c-0.1 0-0.1 0.1-0.2 0.2h0.2zm3.5 5.6c0.1 0.1 0.2 0.3 0.3 0.4 0.2 0.1 0.4 0 0.4-0.3-0.2-0.1-0.4-0.2-0.6-0.2-0.1 0-0.1 0.1-0.1 0.1zm1-1.6c-0.1-0.1-0.2-0.1-0.3-0.2 0 0 0 0.1-0.1 0.1 0.1 0.1 0.2 0.1 0.2 0.2 0.1 0 0.2 0 0.2-0.1zm-2.8-8.6l-0.2-0.2-0.1 0.1c0.1 0 0.2 0.1 0.3 0.1-0.1 0 0 0 0 0zm-7.3 4.1c-0.4 0-0.4 0-0.6 0.2h0.4c0-0.1 0-0.1 0.2-0.2zm-0.6 2.1c0 0.2 0.1 0.4 0.1 0.6h0.1c0.1-0.3 0.1-0.5 0.2-0.9-0.1 0.1-0.2 0.2-0.4 0.3zm-1.3-1.4h-0.2v0.5h0.2v-0.5zm1.3 4.1s0.1-0.1 0.2-0.1c-0.1 0-0.1-0.1-0.2-0.1l-0.1 0.1c0 0.1 0 0.1 0.1 0.1zm-1.2-4.9c0-0.1 0.1-0.1 0.1-0.2s-0.1-0.1-0.2-0.2c-0.1 0.1-0.1 0.2-0.1 0.3 0.1 0 0.2 0 0.2 0.1zm1.6 6.6l0.1 0.1s0.1 0 0.1-0.1h-0.2v0zm1.1-2.9c0.1-0.1 0.2-0.2 0.3-0.4 0 0-0.1 0-0.1-0.1-0.1 0.1-0.2 0.3-0.3 0.4 0 0.1 0.1 0.1 0.1 0.1zm0.3 2.8s0.1 0 0 0c0.1 0 0.1-0.1 0.2-0.1 0 0 0-0.1-0.1-0.1-0.1-0.1-0.1 0-0.1 0v0.2zm-0.2-4.1c-0.3-0.1-0.5-0.1-0.7 0.1 0.3 0 0.5 0 0.7-0.1zm-0.8-0.3l0.1-0.1-0.1-0.1v0.2 0zm1.2 2.7h-0.1v0.3h0.1v-0.3zm-5-1.9zm0.1-0.6c0 0.2 0 0.4-0.1 0.6 0.3-0.2 0.3-0.4 0.1-0.6zm0.1 0.9c-0.1-0.2-0.2-0.3-0.2-0.4-0.1 0.3-0.1 0.3 0.2 0.4zm1-2.9zm-0.2-0.3l-0.1 0.1c0.1 0.1 0.2 0.1 0.2 0.2 0-0.1 0-0.2-0.1-0.3zm0.2 3.1c0 0.1 0.1 0.1 0.1 0.2 0 0 0.1 0 0.2-0.1 0-0.1-0.1-0.2-0.1-0.2-0.1 0.1-0.2 0.1-0.2 0.1zm0-2.8zm0.1 0.3c0-0.1-0.1-0.2-0.1-0.3v0.3h0.1zm4 7.3s0 0.1 0.1 0.2c0.1-0.1 0.1-0.2 0.2-0.3l-0.1-0.1c-0.1 0.1-0.1 0.2-0.2 0.2zm2.6-10.1l-0.1-0.1-0.1 0.1 0.1 0.1 0.1-0.1zm0.8-0.2c0.2-0.2 0.4-0.4 0.7-0.6h-1.1c0.1 0.2 0.2 0.5 0.3 0.7 0 0 0-0.1 0.1-0.1zm-1.5 3.2s0-0.1-0.1-0.1c-0.2 0.1-0.5 0.1-0.5 0.5 0.3-0.2 0.5-0.3 0.6-0.4zm0.2 6.1c0.2 0.1 0.4 0.2 0.7 0.3-0.1-0.2-0.1-0.4-0.2-0.6h0.7c-0.3-0.2-0.5-0.4-0.7-0.6-0.3-0.3-0.2-0.4-0.7 0 0.3 0.2 0.5 0.5 0.2 0.9zm0.1-7.2c0-0.3 0-0.4-0.1-0.5 0-0.1-0.1-0.2-0.2-0.3 0 0-0.1 0-0.1 0.1s-0.1 0.3 0 0.3c0 0.2 0.2 0.2 0.4 0.4zm0.6-1.5c-0.1-0.1-0.1 0-0.2 0 0.1 0 0.1 0.1 0.2 0-0.1 0.1 0 0.1 0 0zm0.3 5.9h0.1s0-0.1-0.1-0.1c0 0-0.1 0 0 0.1-0.1 0-0.1 0 0 0zm-0.2-3c0.2-0.1 0.4-0.1 0.6-0.1-0.4-0.3-0.4-0.3-0.6 0.1zm-0.4-1s0 0.1-0.1 0.1c0.2 0.1 0.4 0.2 0.5 0.3 0 0 0-0.1 0.1-0.1-0.1-0.3-0.3-0.3-0.5-0.3zm-3.6 4h0.3v-0.1c-0.1 0-0.2-0.1-0.3-0.1v0.2zm4.9-7.7v-0.2s-0.1 0-0.1-0.1c0 0.1 0 0.2 0.1 0.3-0.1 0-0.1 0 0 0zm-5.2 9.7h-0.1l0.1 0.1s0.1 0 0-0.1c0.1 0.1 0.1 0 0 0zm0.1 0.8c0 0.1 0.1 0.1 0 0h0.1-0.1c0.1 0 0 0 0 0zm-0.2-4l0.1 0.1s0-0.1 0.1-0.1h-0.2c0.1 0 0 0 0 0zm0.7 2.4c-0.1-0.2-0.1-0.4-0.2-0.7-0.2 0.7-0.2 0.7 0.2 0.7zm0.7 3.2v0c-0.1-0.1-0.1 0-0.2 0h0.2zm3.3-5.7c0 0.1 0.2 0.2 0.3 0.3 0-0.2 0.1-0.4 0.1-0.5-0.2-0.1-0.4-0.1-0.4 0.2zm-1.7-5.7v-0.1c-0.2 0.1-0.4 0.1-0.7 0.2v0.2c0.2-0.1 0.5-0.2 0.7-0.3zm23.6 8.9zm-24.9-1.9l-0.1-0.1-0.1 0.1 0.1 0.1s0.1 0 0.1-0.1zm8.2-0.1c0-0.4 0-0.6-0.4-0.7-0.2 0.3 0 0.5 0.4 0.7zm15.3 0c0.1-0.1 0.2-0.2 0.3-0.2 0 0 0-0.1-0.1-0.1-0.1 0.1-0.2 0.1-0.3 0.2l0.1 0.1zm0.7-0.5c-0.1 0.2-0.2 0.4-0.2 0.6 0.3-0.1 0.5-0.2 0.7-0.2-0.2-0.1-0.3-0.2-0.5-0.4zm-0.7 2.3l0.4 0.4 0.1-0.1c-0.1-0.3-0.2-0.6-0.2-0.9h-0.2c0 0.3 0 0.4-0.1 0.6zm-0.5-2.4c-0.1-0.1-0.1 0-0.2 0 0.1 0.1 0.1 0.1 0.2 0v0zm0.7 4c0-0.1 0.1-0.1 0.1-0.2-0.4 0-0.2-0.6-0.7-0.6 0 0.2-0.1 0.4-0.1 0.7 0.2 0 0.5 0 0.7 0.1zm-0.2-5.5c-0.1-0.1-0.1-0.1-0.2-0.1l-0.1 0.1s0 0.1 0.1 0.1c0 0.1 0.1 0 0.2-0.1zm2.7 7.7zm-1.6-6.6c-0.1 0-0.1-0.1-0.2-0.1l-0.1 0.1c0 0.1 0.1 0.1 0.2 0.1 0 0 0.1 0 0.1-0.1zm1.6 6.6c0.1 0.2 0.3 0.3 0.4 0.5v-0.7c0.4 0.3 0.8 0.5 1.2 0.8-0.1 0.2-0.2 0.5-0.3 0.7 0.4 0 0.4 0 0.7 0.4 0.3-0.4 0.3-0.4 0.2-0.7-0.2-0.5-0.5-0.9-0.2-1.6-0.8 0.4-0.9 0.4-1.3-0.1-0.2 0.2-0.7 0.1-0.7 0.7zm0-6.7c0-0.1-0.1-0.1-0.1-0.2-0.2 0.5-0.7-0.2-0.9 0.3 0.2 0.1 0.4 0.2 0.7 0.4 0.1-0.2 0.2-0.3 0.3-0.5zm-4.1-0.6c-0.2-0.1-0.3-0.1-0.5-0.2h-0.3c0 0.1 0.1 0.2 0.2 0.3 0.2 0.2 0.4 0.2 0.6-0.1zm-9.3-5.4l-0.1-0.1-0.1 0.1s0 0.1 0.1 0.3c0.1-0.2 0.1-0.3 0.1-0.3zm9.3 13.2c-0.1 0.2-0.1 0.4-0.2 0.6 0.5-0.4 0.5-0.4 0.3-0.8-0.1-0.1-0.1-0.2-0.2-0.3h-0.4c-0.1 0.2-0.2 0.4-0.3 0.5s-0.4 0.1-0.6 0.1c0.6 0.8 0.9-0.1 1.4-0.1zm0.7-8.7s-0.1-0.1 0 0h-0.1 0.1c-0.1 0 0 0 0 0zm-2.4 5.3c0.1 0 0.1-0.1 0 0 0.1-0.1 0-0.1 0-0.1v0.1 0zm1.9 2.2c-0.1 0.2-0.1 0.5-0.2 0.7 0.5-0.3 0.6-0.4 0.2-0.7zm-0.2 0.7zm4.1 0.6v-0.6c-0.2 0.3-0.2 0.3 0 0.6zm-4.2-6.4c0.2-0.2 0.3-0.5 0.5-0.7-0.1 0-0.1-0.1-0.2-0.1-0.2 0.2-0.4 0.5-0.4 0.8 0-0.1 0.1-0.1 0.1 0zm0.1 5.8zm-1.1-3.2c-0.1-0.1-0.1-0.4-0.5-0.4 0.2 0.2 0.3 0.4 0.4 0.5 0-0.1 0-0.1 0.1-0.1zm7 6.3zm-0.8-1.7c-0.2 0.7 0.2 1.2 0.5 1.6 0 0.1 0.2 0 0.3 0-0.1-0.3-0.2-0.5-0.2-0.8-0.1-0.3-0.3-0.6-0.6-0.8zm1.5-7.7c-0.3-0.2-0.5-0.4-0.9-0.1 0.7 0.3 0.7 0.3 0.9 0.1zm0.1 9.2c-0.3 0.1-0.6 0.1-0.8 0.2 0.5 0.3 0.6 0.3 0.8-0.2zm-0.8 0.2zm0.5-11.1c0.1 0 0.1 0 0.2-0.1 0 0-0.1-0.1-0.1-0.2-0.1 0.1-0.2 0.1-0.1 0.3-0.1-0.1 0 0 0 0zm1.6 6.6v-0.4c-0.3-0.2-0.4-0.5-0.2-1-0.2 0.1-0.4 0.1-0.4 0.2 0.1 0.5-0.4 0.6-0.6 0.9 0.8-0.1 0.8-0.1 1.2 0.3zm-0.3-4c-0.1 0-0.1-0.1-0.2-0.1 0 0 0 0.1-0.1 0.1h0.3c-0.1 0-0.1 0 0 0zm0.4 0.9v-0.2c-0.1 0-0.2 0.1-0.3 0.1v0.1h0.3zm-0.7 0.4s0-0.1-0.1-0.1l-0.1 0.1h0.2c-0.1 0.1 0 0 0 0zm-1.4 1.8c0.1 0 0.1 0.1 0.2 0.1s0.1-0.1 0.3-0.1c-0.2-0.1-0.2-0.2-0.3-0.2s-0.2 0.1-0.2 0.2zm-0.9-2c-0.1 0.1-0.2 0.2-0.2 0.3l0.1 0.1c0.1-0.1 0.2-0.1 0.3-0.2-0.2-0.1-0.2-0.2-0.2-0.2zm0.2-1.6l-0.1 0.1s0 0.1 0.1 0.2c0.1-0.1 0.2-0.2 0.1-0.2l-0.1-0.1zm-0.3 4.4c0 0.1 0.1 0.1 0 0h0.2l-0.1-0.1c0 0.1-0.1 0.1-0.1 0.1zm0.3-3.8c-0.3 0.1-0.5 0.1-0.7 0.2 0.3 0.2 0.3 0.2 0.7-0.2zm0.5-2.3c0-0.1 0-0.1-0.1-0.1l-0.1 0.1v0.1c0.1 0 0.1 0 0.2-0.1zm-1.5-1c-0.1 0.1-0.1 0.2-0.1 0.3h0.1v-0.3zm1.3 4.1v0c0.1-0.1 0.1-0.2 0.1-0.3h-0.1v0.3zm-0.3 1.8c-0.2 0-0.4 0.2-0.5 0.6 0.3-0.2 0.4-0.3 0.6-0.4-0.1-0.1-0.1-0.2-0.1-0.2zm0.3-3.9c-0.4-0.1-0.6-0.1-0.9 0 0.3 0.3 0.5 0.4 0.9 0zm-7.3 7.9v0-0.2s-0.1 0-0.1 0.1l0.1 0.1zm-4.9-5.4h-0.8c-0.1 0-0.2 0.1-0.2 0.2 0.7 0.1 0.7 0.1 1-0.2zm-1.2 0.4c0.1 0 0.1-0.1 0.2-0.1h-0.2c-0.1 0 0 0 0 0.1zm0.3-3.7c-0.3 0.4-0.3 0.5-0.1 0.8 0.1-0.3 0.1-0.6 0.1-0.8zm-0.1 3.5zm5.6 4h0.3v-0.2h-0.3v0.2zm-4.8-4.9s0.1 0.1 0.2 0c0.2-0.1 0.2-0.3 0-0.4-0.2 0.1-0.3 0.2-0.2 0.4zm0-2.6c-0.1 0-0.2-0.1-0.2-0.1s0 0.1-0.1 0.1c0.1 0 0.2 0.1 0.3 0.1v-0.1zm0.3 4.1h0.1c0-0.1 0-0.2-0.1-0.3h-0.1c0.1 0.1 0.1 0.2 0.1 0.3zm0.6 0.9v0h0.1-0.1zm-1.9-9h-0.1v0.3h0.1v-0.3zm2.1 11.4c0.2-0.8 0.2-0.9-0.5-0.8 0.4 0.1 0.1 0.7 0.5 0.8zm-2.8-7.8v0c-0.1-0.1-0.1 0-0.2 0 0.1 0 0.1 0.1 0.2 0v0zm-0.4-2.2c-0.1-0.1-0.1 0-0.2 0 0.1 0 0.1 0.1 0.2 0v0zm0.2-2.5h-0.2c0 0.1 0.1 0.1 0.1 0.2 0.1-0.1 0.1-0.1 0.1-0.2zm-0.2 8s-0.1 0 0 0c-0.1 0-0.2 0.1-0.3 0.2l0.1 0.1c0.1-0.1 0.2-0.2 0.2-0.3zm0.6-0.9zm-0.3 0.3c0.3 0.1 0.3-0.2 0.4-0.3-0.2 0-0.4 0-0.4 0.3zm0.3-0.3zm-0.5-0.4c0.2 0.1 0.4 0.3 0.6 0.4 0.1 0 0.2-0.1 0.3-0.1-0.4-0.8-0.6-0.8-0.9-0.3zm0.9 3v0-0.1c-0.1 0-0.1 0 0 0.1-0.1-0.1-0.1 0 0 0zm0.9-3.8c-0.1 0-0.1 0 0 0h-0.2c0 0.1 0.1 0.1 0.2 0-0.1 0.1-0.1 0.1 0 0zm2.8-0.1c-0.2 0.1-0.4 0.1-0.6 0.2 0.2 0.4 0.5 0.6 0.9 0.6 0.2 0 0.3 0.2 0.5 0.3 0.1 0 0.1 0 0.3-0.1-0.5-0.3-0.9-0.6-1.2-0.9l0.1-0.1zm0.3 1.5c0.2-0.1 0.3-0.3 0.5-0.4-0.3 0-0.4 0.1-0.5 0.4zm0.3 0.7c-0.1-0.3-0.2-0.5-0.3-0.6-0.2 0.3-0.2 0.3 0.3 0.6zm0.2-1.1zm-2.4-0.9c0.3-0.2 0.4-0.3 0.1-0.6 0 0.2 0 0.4-0.1 0.6zm1.9 1.3zm1.3-2.3s-0.1-0.1 0 0c-0.1 0-0.1 0-0.2 0.1l0.1 0.1c0-0.1 0.1-0.1 0.1-0.2zm-0.6 3.9c0.2 0 0.3-0.1 0.4-0.1-0.1-0.1-0.3-0.2-0.4 0.1zm1.2-0.2l-0.6 0.6c0.6 0.1 0.6 0.1 0.6-0.6zm-0.4-2.6c0-0.3-0.1-0.5-0.5-0.5 0.2 0.4 0.2 0.4 0.5 0.5zm-1 0.8s0 0 0 0zm-2 4.3v0.1s0.1 0 0.1-0.1h-0.1zm0.1 2.5l-0.1-0.1s-0.1 0.1 0 0.1l0.1 0.1v-0.1zm0.3-5.8c-0.2-0.1-0.3-0.2-0.5-0.4 0.1 0.5 0.1 0.5 0.5 0.4zm-0.5-3.1c-0.1 0-0.1-0.1-0.2-0.1-0.1 0.1-0.2 0.3-0.3 0.5 0.4-0.1 0.5-0.2 0.5-0.4zm0.9-0.3c0.1 0 0.1 0 0 0v-0.2 0.2zm-0.1 1c0.1 0 0.2 0 0.3-0.1v-0.1c-0.1 0.1-0.2 0.1-0.3 0.2v0zm0.5-3.2v0h-0.1 0.1zm0.7 2.7l-0.1-0.1c-0.1 0-0.2 0.1-0.2 0.1 0 0.1-0.1 0.2-0.1 0.2h0.1c0.1 0 0.2-0.1 0.3-0.2zm-1.3-1.3c0.3-0.5 0.2-0.9 0-1.3-0.3 0.1-0.4 0.3-0.3 0.6 0.1 0.2 0.2 0.4 0.3 0.7zm-1.4 21zm19.8-3.5c0.1 0.1 0.1 0.2 0.2 0.2-0.4 0.4-0.9 0.9-1.3 1.2-0.2-0.1-0.3-0.1-0.4 0.2 0 0 0.1 0 0.1 0.1-0.7 0.6-1.5 1.2-2.4 1.7-0.1-0.1-0.1-0.3-0.3-0.2s-0.3 0.4-0.4 0.6c-0.1 0.1-0.2 0.1-0.3 0.2h-0.1c-0.1 0-0.2 0.1-0.2 0.1v-0.1c-0.2-0.3-0.4-0.3-0.6-0.1 0.1 0.2 0.1 0.3 0.2 0.4-0.3 0.2-0.6 0.3-0.9 0.4 0.1-0.2 0.2-0.4 0.3-0.7-0.6 0.1-0.9 0-0.9-0.3-0.1-0.2 0.1-0.5 0.1-0.7h0.5c-0.1-0.2-0.2-0.3-0.3-0.5h0.6c0.2 0 0.3-0.1 0.3-0.3 0.1 0 0.3 0 0.4-0.1 0.3-0.2 0.5-0.5 0.7-0.7-0.1-0.3-0.5-0.1-0.7-0.2 0-0.1-0.1-0.2-0.2-0.4-0.2 0.1-0.3 0.1-0.5 0.2-0.1-0.2-0.2-0.3-0.3-0.5-0.2 0.3-0.3 0.6-0.5 0.8-0.1 0.2-0.2 0.3-0.4 0.5-0.1 0-0.2-0.1-0.3-0.1-0.1 0.3-0.2 0.5-0.3 0.8l0.6 0.3c-0.2 0.3-0.6 0.3-0.9 0.2-0.2 0-0.4 0-0.4 0.3 0.6 0 0.8 0.1 1.1 0.8-0.2 0.4-0.4 0-0.7 0 0 0.2 0 0.3 0.1 0.4s0.3 0.2 0.4 0.2c0.2 0.1 0.4 0.1 0.6 0.1-0.5 0.2-1 0.4-1.5 0.5-0.1-0.2-0.1-0.2-0.3-0.4-0.1 0.3-0.2 0.4 0.1 0.4-0.2 0.1-0.4 0.1-0.5 0.2-0.4-0.3-0.9-0.4-1.3-0.2-0.3 0.1-0.5-0.1-0.7 0-0.1 0.2-0.1 0.4-0.2 0.6-0.9 0.1-1.7 0.2-2.6 0.3v-0.1l-0.1 0.1h-0.7c-0.9 0-1.9-0.1-2.8-0.2-0.1 0-0.1-0.1-0.2-0.1v0.1l-1.5-0.3h0.1c0.2-0.1 0.3-0.2 0.4-0.3 0-0.3-0.1-0.6-0.1-0.8-0.1-0.1-0.2-0.2-0.4-0.3-0.1 0-0.3 0.1-0.4 0.1 0.1 0.3 0.2 0.6 0.3 1-0.3 0-0.4-0.1-0.6-0.1 0 0.1 0.1 0.2 0.1 0.3-0.2 0-0.3-0.1-0.5-0.1 0-0.1-0.1-0.1-0.1-0.2h-0.5c-0.7-0.2-1.4-0.5-2.1-0.8l0.1-0.1c-0.2-0.2-0.3-0.5-0.5-0.8-0.2-0.1-0.6-0.1-0.8 0.2 0.1 0.1 0.2 0.2 0.3 0.2-0.1-0.1-0.3-0.1-0.4-0.2 0 0 0.1 0 0.1-0.1-0.1-0.1-0.3-0.2-0.4-0.2v0.2c-0.1 0-0.1-0.1-0.2-0.1l0.1-0.1-0.3-0.3h-0.4c-0.2 0-0.5-0.4-0.4-0.5 0.1-0.3 0.3-0.3 0.6-0.2h0.1c0.1-0.4 0.1-0.8 0.1-1.2-0.4 0-0.3 0.3-0.4 0.5-0.3 0-0.5-0.1-0.8-0.1l0.3-0.3c-0.3-0.1-0.5-0.2-0.7-0.3-0.1 0.5-0.2 1 0 1.5-0.3-0.2-0.7-0.5-1-0.7 0-0.1 0.1-0.1 0.1-0.2h0.7c-0.1-0.3-0.1-0.5-0.2-0.8 0.7-0.1 1.4-0.2 2.2-0.3 0 0.1-0.1 0.2-0.1 0.2-0.3 0.2 0 0.4 0 0.6 0.3 0.1 0.3 0.4 0.2 0.6-0.1 0.3 0.1 0.4 0.4 0.6 0.2-0.2 0.3-0.5 0.5-0.8 0.1 0.1 0.3 0.2 0.6 0.3-0.2 0-0.3 0.1-0.5 0.1 0.1 0.3 0.1 0.6 0.2 0.9 0.4 0.2 0.4 0.2 0.7 0.2 0.1-0.2-0.6-0.4-0.1-0.7 0.4 0.4 0.4 0.4 0.9 0.1l-0.4-0.4c-0.1-0.1-0.2-0.4 0-0.4 0.4-0.1 0.3-0.5 0.4-0.8 0.2 0 0.4-0.1 0.6-0.1-0.2-0.3-0.4-0.2-0.5-0.2-0.5 0-0.6 0-0.7-0.7 0.2 0 0.3 0.3 0.5 0.1h0.2c0.3 0.5 0.6 0.2 0.9 0 0.1 0 0.2-0.1 0.3-0.1-0.1-0.2-0.1-0.3-0.1-0.4 0.3 0.1 0.5 0.5 1 0.3 0 0 0.1 0.2 0.2 0.3l0.3-0.6c0.1 0.1 0.2 0.1 0.3 0.2 0-0.1 0.1-0.1 0.1-0.2-0.1-0.1-0.1-0.2-0.2-0.3-0.5-0.4-0.8-1.1-0.5-1.7l0.1-0.1c0.1 0.3 0.1 0.3 0.4 0.4 0 0.2-0.1 0.3-0.1 0.5 0 0.3 0.1 0.6 0.4 0.7 0.1 0 0.1 0.1 0.2 0.1 0.1 0.1 0.3 0.3 0.4 0.3 0.2 0 0.5-0.1 0.7-0.2 0.1-0.1 0.1-0.3 0.2-0.4v-0.5c0.2 0.1 0.2 0.2 0.3 0.2 0.1 0.1 0.1 0.3 0.2 0.4 0 0.1 0.1 0.2 0.1 0.2-0.2 0.2-0.1 0.4-0.1 0.7 0 0.2-0.1 0.3-0.3 0.5 0.2 0 0.4 0.1 0.6 0.1 0.1-0.2 0.2-0.3 0.2-0.5 0.1 0.4-0.2 0.9 0.1 1.3 0-0.4 0.1-0.8 0.1-1.2 0.5 0.1 0.9-0.1 1.1-0.6 0.2-0.1 0.4-0.2 0.7-0.3 0.4 0.1 0.2 0.9 0.8 0.9 0.2-0.2 0.2-0.3 0-0.5-0.3-0.4-0.3-0.7 0-1 0.1-0.1 0.1-0.2 0.1-0.3 0.3 0.2 0.4 0.5 0.2 0.8 0.2 0.1 0.4 0.1 0.5 0.2 0.5 0.3 0.6 0.3 0.7-0.3 0.6-0.1 0.7 0.4 0.9 0.8 0.2-0.1 0.3-0.1 0.5-0.2-0.1 0.3-0.3 0.2-0.5 0.3l0.6 0.3c-0.3 0.3-1 0.2-1 0.9 0.2 0 0.3 0 0.5 0.1l0.3-0.6s0.1 0 0.1 0.1-0.1 0.2-0.1 0.3c0.2 0.5 0.8 0.2 1.1 0.6 0-0.3 0-0.4 0.1-0.6 0-0.2 0.2-0.3 0.4-0.2 0.1 0 0.2 0.2 0.2 0.3l0.9-0.6v0.2c0.1 0.2 0.2 0.4 0.4 0.3 0.2 0 0.4-0.2 0.4-0.4v-0.6c0.2-0.1 0.3-0.3 0.6-0.1 0.2 0.1 0.4-0.1 0.7-0.1v0.3c0.3 0.1 0.7 0.3 1 0.4 0.1 0.1 0.2 0.2 0.2 0.3 0.1 0.2 0.3 0.4 0.4 0.7l-0.9 0.6c0.5 0 0.9-0.1 1.3-0.1l0.4-0.4c-0.2-0.1-0.4-0.1-0.4-0.1 0.1-0.4 0.3-0.7 0.4-1 0.3 0 0.6-0.1 0.8-0.1s0.5 0.3 0.7-0.1c-0.2-0.2-0.6 0-0.6-0.5 0.3 0 0.7 0.1 1 0.1 0.1 0.2 0.2 0.4 0.2 0.5 0.1-0.2 0.2-0.4 0.3-0.5s0.2-0.2 0.4-0.3c0 0.3 0 0.6-0.1 0.9 0.2-0.1 0.3-0.1 0.5-0.1-0.1-0.1-0.1-0.2-0.1-0.3 0.3-0.1 0.5-0.2 0.6-0.2zm-24.2 3.5c-0.1-0.1-0.1-0.1-0.2-0.1l-0.1 0.1 0.1 0.1c0.1-0.1 0.1-0.1 0.2-0.1zm15.9 1.4c0 0.2 0.1 0.4 0.3 0.4 0-0.2 0-0.4-0.1-0.6-0.1 0.1-0.2 0.1-0.2 0.2zm-1.1-0.7h0.4c-0.2-0.2-0.3-0.4-0.5-0.6-0.2 0.4-0.2 0.5 0.1 0.6zm-1.7-2.1c0.1 0.1 0.1 0.2 0.2 0.3 0 0 0.1 0 0.1-0.1-0.1-0.1-0.1-0.2-0.2-0.3 0 0-0.1 0-0.1 0.1zm0 0.8v0c0.1 0.1 0.2 0.1 0.3 0.1v-0.1h-0.3zm-0.7-0.5c0 0.1 0.2 0.1 0.4 0.2v-0.9c-0.3 0.3-0.4 0.5-0.4 0.7zm-1.1-1.8c0.6 0.4 0.6 0.4 0.9 0.3-0.5-0.6-0.5-0.6-0.9-0.3zm-0.3 1.2c0-0.3 0.2-0.2 0.3-0.3 0 0 0.1-0.1 0.1-0.2-0.1-0.1-0.3-0.2-0.4-0.4l-0.3 0.6c0 0.3 0.1 0.3 0.3 0.3zm-0.6 1.2c0.1-0.4 0.1-0.7-0.1-1.1 0 0.3-0.3 0.7 0.1 1.1zm-0.7-1.3s-0.1 0-0.1 0.1 0.1 0.1 0.1 0.3c0.1-0.1 0.1-0.1 0.1-0.2s-0.1-0.2-0.1-0.2zm-0.5-1.4c0.2 0.5 0.3 0.6 0.5 0.4 0-0.1 0-0.3-0.1-0.5-0.1 0-0.3 0-0.4 0.1zm-1 1.2c0.3 0.2 0.5 0.3 0.7 0.4 0.1 0 0.2-0.1 0.2-0.1v-0.8c-0.3-0.1-0.5-0.4-1-0.3 0.1 0.4 0.1 0.6 0.1 0.8zm-1.3-0.1v0c0.1 0 0.1 0 0.2-0.1 0 0-0.1 0-0.1-0.1-0.1 0.1-0.1 0.2-0.1 0.2zm-0.7 0.6c0.1 0.2 0.3 0.4 0.4 0.6 0.2 0.3 0.1 0.6 0.1 0.9 0 0.1 0.1 0.2 0.2 0.3 0.1-0.2 0.1-0.3 0.1-0.4l0.3 0.3c0-0.2 0-0.4 0.1-0.6-0.1-0.1-0.2-0.2-0.4-0.3 0.3-0.1 0.5-0.2 0.7-0.3 0.3 0.6 0.8 0.6 1.3 0.8 0.1-0.2 0.2-0.3 0.3-0.4l0.3 1.5c0.2 0.1 0.5 0.3 0.7 0.4 0.1-0.1 0.2-0.3 0.4-0.5-0.5-0.4-0.9-0.9-1-1.7-0.4 0.1-0.6-0.1-0.7-0.4-0.5 0.5-0.5 0.5-1.1 0.2-0.3-0.2-0.6-0.1-0.8 0.1-0.4-0.4-0.6-0.5-0.9-0.5zm1.5 1.1c0 0.1-0.1 0.1-0.1 0.2l0.1 0.1 0.1-0.1c0-0.1 0-0.1-0.1-0.2zm-1.3-2.5c0.3-0.1 0.3-0.3 0.2-0.6-0.1 0.2-0.2 0.4-0.2 0.6zm-0.8 0.8c0.2 0.2 0.4 0.3 0.6 0.5 0-0.5-0.1-0.6-0.6-0.5zm0.3-0.5c0-0.1-0.1-0.2-0.2-0.4-0.1 0.2-0.2 0.4 0.2 0.4zm-0.6 1.2c-0.2 0-0.4 0.1-0.5 0.2 0.1 0.2 0.2 0.3 0.4 0.5 0.1 0.1 0.3 0.1 0.5 0 0.1 0 0.1-0.3 0.1-0.4-0.2-0.2-0.3-0.3-0.5-0.3zm-2.4-0.9s0.1 0 0 0c0.1 0 0.1-0.1 0.2-0.1h-0.1c-0.1 0-0.1 0-0.1 0.1zm-0.6 3.7c0-0.3-0.1-0.5-0.1-0.8-0.4 0.1-0.8-0.3-1.2 0v0.6c0.3 0 0.6-0.2 0.8 0.1 0.2 0.2 0.4 0.1 0.5 0.1zm1.8-0.7c0.1-0.2 0.2-0.5 0.3-0.7h0.5c0-0.2-0.1-0.4-0.1-0.6 0-0.1-0.1-0.1-0.1-0.1-0.3-0.2-0.2-0.4 0.1-0.5 0.2-0.5 0.3-1 0.5-1.4-0.2-0.1-0.3-0.2-0.5 0-0.3 0.4-1 0.2-1.3 0.7-0.1 0.1-0.4 0-0.6 0 0.1 0.5 0.2 0.9 0.3 1.4-0.3-0.2-0.5-0.3-0.8-0.4v-0.6c-0.5 0.4-0.5 0.8 0 1.1 0.2 0.1 0.4 0.1 0.4 0.3-0.3 0.1-0.5 0.1-0.7 0.2v0.1c0.2 0 0.3 0.1 0.5 0.1 0 0.2-0.1 0.4-0.1 0.6 0.4 0.3 0.7-0.3 1.1 0-0.2 0.1-0.3 0.3-0.5 0.3-0.2 0.1-0.4 0.2-0.2 0.5 0.2-0.1 0.5-0.2 0.7-0.3 0.3-0.2 0.4-0.5 0.5-0.7zm1.8 0.2c0-0.2 0.1-0.4 0.3-0.6 0.1-0.2 0.2-0.5 0.2-0.8l-0.1-0.1c-0.3 0.2-0.7 0.4-1 0.7 0.1 0.2 0.2 0.4 0.2 0.5-0.5 0-0.9 0.1-1.4 0.1 0.2 0.1 0.4 0.3 0.6 0.4 0.5-0.1 0.8-0.2 1.2-0.2zm0.1 0.5c0 0.1-0.1 0.2-0.1 0.3h0.1c0-0.1 0.1-0.2 0.1-0.3h-0.1zm1.5 0.4s0-0.1-0.1-0.1l-0.1 0.1h0.2c-0.1 0 0 0 0 0zm0.4 0.4l-0.1-0.1c-0.1 0.1-0.2 0.1-0.3 0.2l0.1 0.1c0.1-0.1 0.2-0.1 0.3-0.2zm0.3-0.6c-0.1-0.1-0.2 0-0.4 0 0.1 0.1 0.2 0.1 0.2 0.1 0.1 0 0.2 0 0.2-0.1zm1.2-0.3c0.1-0.1 0.3-0.1 0.4-0.2-0.1-0.2-0.2-0.3-0.3-0.5h-0.2c-0.3-0.4-0.8-0.3-1.2-0.3-0.5 0-0.8 0.1-1 0.5l-0.1 0.1c-0.1-0.1-0.3-0.1-0.4-0.2-0.1 0.2-0.3 0.4 0.1 0.6 0.1 0 0.1 0.3 0.1 0.4-0.1 0.2-0.3 0.3-0.5 0.4-0.1 0.1-0.2 0.1-0.4 0.2 0.8 0.2 1.2 0 1.3-0.7 0-0.2 0.2-0.4 0.4-0.5 0.4-0.1 0.8-0.3 1.2-0.4 0.2 0.3-0.2 0.4-0.3 0.6 0.4 0.2 0.3 0.5 0 0.7-0.2 0.2-0.2 0.4 0 0.6s0.4 0.1 0.6 0c-0.1-0.2-0.2-0.3-0.3-0.5 0.7 0.1 0.7 0.1 0.6-0.8zm0.9 0.8c0-0.4-0.1-0.7-0.5-0.9 0 0.3 0.1 0.5 0.1 0.8 0.2 0 0.3 0 0.4 0.1zm0.8 0.5c-0.3-0.2-0.5-0.3-0.8-0.5 0 0.2-0.2 0.5 0.1 0.7 0.3 0.1 0.5 0 0.7-0.2zm1-1.4c-0.1-0.2-0.2-0.3-0.3-0.5-0.3 0-0.5 0-0.8 0.1-0.1 0.2-0.1 0.5-0.2 0.8 0.4-0.2 0.9 0 1.3-0.4zm1.1 0.4c-0.1-0.1-0.2-0.1-0.2-0.2l-0.1 0.1c0.1 0 0.1 0.1 0.3 0.1-0.1 0.1 0 0 0 0zm1.4 0.1c0.2-0.2 0.3-0.3 0.5-0.4-0.3-0.1-0.6-0.3-0.9-0.3-0.3-0.1-0.3-0.2-0.3-0.5 0.3-0.3 0.5-0.7 0.6-1.2-0.3 0.2-0.6 0.4-0.8 0.6s-0.4 0.2-0.7 0c-0.4-0.3-0.9-0.6-1.3-0.9 0-0.1 0-0.3 0.1-0.6-0.3 0.1-0.5 0.2-0.6 0.3 0 0.2-0.6 0.2-0.3 0.6 0.1 0 0.2 0 0.4-0.1l-0.3 1.2c0.3 0.3 0.4-0.2 0.7-0.3 0 0.2 0 0.4-0.1 0.6 0.5-0.1 0.9-0.4 1.4-0.8-0.1 0.3-0.1 0.4-0.1 0.6 0.3 0.3 0.8 0.4 0.9 0.9 0 0.1 0.2 0.1 0.3 0.1 0.3 0.2 0.4 0.2 0.5 0.2zm0.5-0.4c0.1 0.1 0.2 0.2 0.2 0.4 0.1-0.3 0-0.4-0.2-0.4zm0.4-0.4c0-0.1-0.1-0.2-0.2-0.2h-0.1v0.1c0 0.1 0.1 0.2 0.2 0.2l0.1-0.1zm0.4-2.9c-0.2 0.4-1 0.1-1 0.6 0.2 0.3 0.4 0.6 0.7 0.9 0-0.1 0.1-0.2 0.1-0.4 0.1-0.3 0-0.6 0.3-0.8 0 0-0.1-0.2-0.1-0.3zm3 1.4c0 0.1 0 0.2 0.1 0.3 0-0.1 0.1-0.2 0.1-0.3h-0.2zm-1.2 0.6c-0.2-0.1-0.3-0.1-0.5 0.2 0.2-0.1 0.3-0.2 0.5-0.2zm1.5 0c-0.1-0.1-0.2-0.2-0.2-0.3-0.4-0.2-0.8-0.5-1.3-0.1 0 0.1 0.2 0.3 0 0.4 0.1 0.1 0.2 0.3 0.4 0.2 0.3-0.2 0.5-0.4 0.9-0.1-0.1 0 0.1 0 0.2-0.1zm1.6-0.9l-0.1-0.1s-0.1 0-0.1 0.1c0-0.1 0.1 0 0.2 0-0.1 0-0.1 0 0 0zm1.1-0.7v-0.1s-0.1 0 0 0.1c-0.1 0-0.2 0-0.2 0.1l0.1 0.1c0-0.1 0-0.1 0.1-0.2zm0.5-0.1c-0.1-0.2-0.1-0.4-0.2-0.5s-0.2-0.1-0.3-0.1-0.1 0.2-0.1 0.3 0.1 0.2 0.2 0.3h0.4zm-8.8 2v0c0.1 0.2 0.2 0.2 0.3 0.2v-0.3c-0.1 0.1-0.2 0.1-0.3 0.1zm-2-0.7l0.1 0.1c0.1 0 0.1-0.1 0.2-0.1 0 0 0-0.1 0.1-0.2l-0.1-0.1c-0.1 0.2-0.2 0.2-0.3 0.3zm0.6 0.5l0.1 0.1c0.1 0 0.1-0.1 0.2-0.2-0.1-0.1-0.2-0.1-0.2-0.1s-0.1 0.1-0.1 0.2zm-7.8-0.1zm-0.8-1.4c0.1 0 0.1 0 0 0 0.1 0 0.2 0 0.2-0.1 0 0-0.1 0-0.2 0.1zm0.3-0.2v0zc0.2-0.1 0.3-0.3 0.5-0.4-0.4 0-0.5 0.2-0.5 0.4zm0 0.1zm0.3 0.4h-0.2c-0.1 0.3-0.1 0.6-0.2 0.9 0.2 0.1 0.4 0.1 0.6 0.2-0.1-0.4-0.1-0.8-0.2-1.1zm4.8 2.8c0.1 0 0.1 0.1 0 0 0.1 0.1 0.2 0.1 0.2 0v-0.1c-0.1 0.1-0.1 0.1-0.2 0.1zm20.4-12.9c-0.1 0-0.1 0 0 0-0.1 0-0.1 0 0 0zm0.8-3.1v0c0.1-0.2 0.1-0.3 0.1-0.5h-0.1v0.5zm0-0.5zc-0.1 0 0 0 0 0zm-1.1 4.2s0.1 0 0 0c0.1-0.1 0-0.1 0 0v0zm1.1-4.8c0-0.4 0-0.4-0.5-0.5 0 0.3 0.1 0.5 0.1 0.8 0 0.2-0.2 0.5-0.3 0.7l0.1 0.1c0.1 0 0.2-0.1 0.3-0.1 0.1-0.1 0.2-0.3 0.3-0.4v-0.6zm-7.4 10.7c-0.2 0.3-0.3 0.6-0.2 1.1 0.2-0.4 0.4-0.8 0.6-1.1-0.1-0.1-0.4-0.1-0.4 0zm0.4-0.1zm3.4-1.5c0.1-0.1 0.2-0.1 0.3-0.1-0.1 0.2-0.3 0.4-0.4 0.6h-0.3-0.5l0.3 0.6c-0.2 0-0.4 0-0.7 0.1-0.3-0.4-0.9-0.7-1.2-1.2h-1.1c0 0.3 0 0.4 0.3 0.3 0.2 0 0.5 0 0.6 0.3 0 0.3 0.4 0.6-0.1 0.9l-0.3-0.3c-0.1 0.1-0.2 0.3-0.3 0.4 0-0.1 0-0.3-0.1-0.5 0.1-0.1 0.3-0.1 0.4-0.2l-0.1-0.1c-0.3-0.1-0.8 0-0.8-0.5 0 0-0.2-0.1-0.3-0.1s-0.3 0.1-0.4 0.2c0-0.4 0-0.5 0.7-0.5-0.4-0.4-0.5-0.9-0.3-1.4 0.2 0.3 0.4 0.5 0.6 0.8 0.5-0.3 1.3-0.2 1.7-0.9 0.1-0.2 0.2-0.2 0.6-0.1-0.3 0.3-0.6 0.5-0.9 0.8-0.2 0.2-0.4 0.5-0.8 0.3 0 0-0.2 0.1-0.3 0.2 0.3 0.4 0.7 0 0.9 0.3 0.3 0.1 0.7 0.2 1 0.3l0.6-0.9s0.1 0 0.1 0.1c-0.1 0.2-0.1 0.3-0.2 0.5 0.5 0.5 0.5 0.5 1 0.1zm-1.5 0.3c0.1 0.1 0.1 0.3 0.2 0.4 0.2-0.4 0-0.4-0.2-0.4zm2.4-2.6c0.2 0 0.5 0 0.8 0.1-0.1 0.3-0.3 0.6-0.4 0.8-0.1 0-0.1 0.1-0.2 0.1-0.3 0.2-0.6 0.4-0.8 0 0-0.1-0.2 0-0.3-0.1-0.1 0-0.2-0.1-0.3-0.2 0.1-0.1 0.1-0.3 0.3-0.3 0.2-0.2 0.5-0.3 0.9-0.4zm0 0.4c-0.2-0.1-0.3 0-0.4 0.2 0.2 0.1 0.3 0.2 0.4 0 0.1-0.1 0-0.2 0-0.2zm-2.2 3.9l0.2-0.2h-0.2v0.2zm-5.7 2zm-2.5-0.8zm2.5 0.8zm-9-4zm6.5 3.2zm-6.4-1.7zm0.1-1.9c-0.1 0.1-0.1 0.2-0.2 0.4l0.3-0.3s-0.1 0-0.1-0.1zm-0.3 1.2c0.3-0.3 0.1-0.5 0-0.8-0.2 0.2-0.4 0.2-0.7 0-0.1-0.1-0.2-0.1-0.3-0.2 0.3 0.5 0.5 1 0.4 1.6 0 0.1 0 0.1 0.1 0.4 0.1-0.3 0.1-0.4 0.2-0.4 0.2 0.1 0.4 0.1 0.6 0.1-0.1-0.2 0-0.5-0.3-0.7zm0.2 0.7zm6.4 1.7c-0.1-0.2-0.3-0.3-0.4-0.6l-0.3 0.6c-0.3 0-0.3 0-0.3 0.1s0.1 0.2 0.1 0.3h0.5l0.4-0.4zm1.2 1.6v-0.4c-0.4 0.2-0.7 0.3-1 0.5-0.2 0.2-0.2 0.4 0.1 0.4 0.2-0.3 0.5-0.4 0.9-0.5zm-0.6-0.4c-0.2-0.1-0.3-0.1-0.4-0.1 0.1 0.2 0.1 0.2 0.4 0.1zm-14.3 1l0.2 0.2s0-0.1 0.1-0.1c-0.1-0.1-0.1-0.2-0.3-0.1 0.1-0.1 0.1-0.1 0 0zm12.8-1.8zm-34.3-15.5c0.1 0 0.1 0.1 0.2 0.1 0-0.1-0.1-0.1-0.2-0.1 0.1-0.1 0-0.1 0 0zm31.7 20.8h0.2c-0.1-0.1-0.2-0.1-0.2 0v0zm-15.7-3.1c-0.1 0-0.1 0.1-0.2 0.1 0.1 0 0.1 0.1 0.2 0.1s0.1-0.1 0-0.2zm-1.4-1zm0.6-0.8zc0.1-0.1 0.1-0.5 0.4-0.3 0.1-0.2 0.5-0.3 0.5-0.7v-0.5c-0.3 0.1-0.5 0-0.7-0.2s-0.4-0.1-0.5 0.1c0.3 0.1 0.5 0.3 0.8 0.4v0.2c-0.2 0-0.5-0.1-0.7-0.1-0.2 0.1-0.4 0.3-0.6 0.4-0.2-0.3-0.3-0.7-0.8-0.6 0 0.2-0.1 0.4-0.1 0.6 0 0.1 0.3 0.2 0.4 0.3 0.2 0.2 0.5 0.4 0.5 0.8-0.1 0.1-0.2 0.1-0.3 0.1 0.1 0.1 0.3 0.2 0.4 0.3 0.1 0 0.2-0.1 0.3-0.1 0-0.2 0.2-0.5 0.4-0.7zm23-0.1c-0.2 0.1-0.4-0.5-0.5 0.1 0.2 0 0.4 0.1 0.5-0.1zm-29.4-10.6l-0.1-0.1-0.1 0.1s0 0.1 0.1 0.1c0 0 0.1 0 0.1-0.1zm0.3 1.1c-0.1 0.2-0.2 0.3-0.2 0.4h0.6l-0.4-0.4zm39.2-2.9zm-39.5 3.3c-0.2 0.1-0.2 0.2 0.1 0.4 0-0.1 0-0.2-0.1-0.4zc0.1 0 0.1 0 0 0zm-1.4-7c-0.1 0-0.1 0 0 0-0.1 0.1 0 0.1 0 0.2v-0.2zm1 1.9c0.1-0.1 0.1-0.1 0-0.1v0.1zm-1.5-2.7l0.3 0.3c0.2-0.3 0.2-0.6 0.1-0.9-0.1 0.2-0.2 0.4-0.4 0.6zm0.6 8.2v0.2c0.3 0.2 0.7 0.3 1.1 0.5-0.1-0.3-0.1-0.6-0.2-0.9-0.4 0.1-0.6 0.2-0.9 0.2zm0.9-7.4c-0.1 0-0.1 0 0 0-0.1 0-0.1 0.1-0.1 0.1l0.1-0.1zm0.5 7s-0.1 0 0 0zm3.2-0.1zm-2.6 0.4v0.2c0.4 0.1 0.6 0.9 1.3 0.3-0.2-0.3-0.4-0.5-0.6-0.7-0.2 0-0.5 0.1-0.7 0.2zm2 0.8c0.2 0.4 0.3 0.7 0.4 1h0.1c0.1-0.5 0.1-0.5-0.5-1zm0.6-1.2c0-0.3-0.3-0.2-0.5-0.3 0.4-0.5 0.4-0.5 0-0.7-0.2 0.3-0.4 0.6-0.5 0.8-0.4-0.2-0.4-0.2-0.7-0.1 0.3 0.2 0.5 0.5 0.8 0.6s0.6 0.5 0.9 0c-0.1 0-0.2-0.1-0.2-0.1 0-0.1 0.1-0.1 0.2-0.2zm-2.7 1s0 0.1 0.1 0.1c0 0 0.1 0 0.1-0.1h-0.2c0.1 0 0 0 0 0zm0.6-1.1c-0.1-0.4-0.3-0.4-0.7-0.5 0.2 0.3 0.3 0.5 0.7 0.5zm-0.5-2.5l-0.1 0.1c0 0.1 0.1 0.1 0.1 0.2 0.1 0 0.1-0.1 0.2-0.2-0.1 0-0.2-0.1-0.2-0.1zm1.2-0.7c-0.2-0.3-0.4-0.5-0.6-0.8-0.2 0.4 0 0.7 0.1 0.9 0.1 0 0.3 0 0.5-0.1zm-1.8 5.2s0.1 0 0 0c0.1-0.1 0.1-0.2 0.1-0.3h-0.1c-0.1 0.2 0 0.2 0 0.3zm-0.5-2.7v0c0.1 0.1 0.1 0 0.2 0h-0.2c0.1 0 0 0 0 0zm9.4 10.9v0c0.1 0.1 0.1 0.1 0.2 0v-0.1c-0.1 0-0.2 0.1-0.2 0.1zm4.6-5.8c0 0.1 0 0.2 0.1 0.3h0.1c0-0.1 0-0.2-0.1-0.3h-0.1zm-1.2 1.4c-0.2 0.1-0.4 0.1-0.5 0.2 0.1 0.1 0.3 0.2 0.5 0.4v-0.6zm-0.5 0.1c0-0.2-0.1-0.3-0.1-0.5-0.2 0.3-0.2 0.3 0.1 0.5zm-1.1 4.2c0-0.3 0.2-0.6-0.2-0.7-0.1 0-0.2 0.1-0.3 0.2-0.1 0.3 0.1 0.4 0.5 0.5zm28.4-19.2c0.2 0.1 0.4 0.2 0.5 0.1 0-0.1 0-0.3-0.1-0.4 0-0.1-0.1-0.1-0.1-0.2-0.1 0.2-0.2 0.3-0.3 0.5zm0.4 2.9c0.1 0 0.2-0.1 0.2-0.1v-0.2c0-0.1-0.1 0-0.2 0.3zm-32.6 12.2c0 0.1-0.1 0.1-0.1 0.2 0 0 0.1 0.1 0.2 0.1 0-0.1 0.1-0.2 0.1-0.3 0 0.1-0.1 0.1-0.2 0zm-2.6-0.7h-0.1c0 0.1 0 0.1 0.1 0v0zm14.5 1.8v-0.2l-0.1 0.1s0 0.1 0.1 0.1c-0.1 0-0.1 0 0 0zm-20.4-9.7c0.1-0.2 0.3-0.3 0.4-0.6-0.4 0.1-0.6 0.2-0.6 0.5 0.1 0.1 0.2 0.1 0.2 0.1zm-0.1-3.5v0c-0.1 0.1 0 0.2 0 0.3 0.1-0.1 0.1-0.1 0.1-0.2 0 0 0-0.1-0.1-0.1zm-0.3 5.1c0.5-0.1 0.5-0.1 0.4-0.6-0.1 0.2-0.3 0.4-0.4 0.6zm1 0.6v-0.1c-0.1 0-0.2 0-0.3 0.1v0.1c0.1-0.1 0.2-0.1 0.3-0.1zm-1.4 0.1v0.2h0.1v-0.1c0-0.1-0.1-0.1-0.1-0.1zm36.3 6.9c0 0.3-0.1 0.6-0.1 1 0.5-0.3 0.6-0.5 0.1-1zm-35.5-11.1c0.1 0.3 0.1 0.6 0.5 0.6-0.1-0.7-0.1-0.7-0.5-0.6zm38 9.4c0-0.1 0-0.2-0.1-0.3s-0.2-0.1-0.5-0.2l0.2 0.4c0.1 0.2 0.2 0.1 0.4 0.1zm-22.2 0h-0.1s0 0.1 0.1 0.1v-0.1 0zm-4.7-0.1v0.3c0.2-0.1 0.3-0.3 0.5-0.4-0.3-0.1-0.4-0.2-0.5 0.1zm-8.4-0.8c0.1 0.1 0.3-0.1 0.4-0.1-0.1-0.2-0.2-1.1-0.1-1.4-0.2 0.2-0.4 0.3-0.6 0.4 0 0.1 0.1 0.3 0.1 0.4-0.3 0.1-0.6 0.2-0.9 0.3 0-0.2-0.1-0.3-0.1-0.4-0.1 0.1-0.2 0.1-0.2 0.2 0.1 0.3 0.3 0.5 0.4 0.8 0.3-0.3 0.6-0.4 1-0.2zm0 0.5c-0.2 0.3-0.3 0.5-0.4 0.7 0.1 0.1 0.1 0.2 0.2 0.2 0.2-0.2 0.4-0.5 0.2-0.9zm1.7 2.2c0.2 0 0.2-0.1 0.3-0.3-0.1-0.3-0.5-0.2-0.5-0.3-0.2-0.5-0.7-0.1-0.9-0.3-0.1 0.1-0.2 0.1-0.3 0.1 0.1 0.2 0.3 0.3 0.4 0.5 0.1-0.1 0.2-0.2 0.3-0.2 0 0.2 0 0.4-0.1 0.6l0.1 0.1h0.4c0-0.1 0.1-0.3 0.3-0.2zm-0.3 0.2zm1.2-0.6zm-0.8 1.5c0.1-0.2 0.1-0.4 0.2-0.6-0.2-0.1-0.4-0.1-0.5-0.2 0.1 0.2-0.2 0.6 0.3 0.8zm0.8-1.5zm-0.7 0.1zm-1.1-2.2l-0.4-0.4c0.1-0.2 0.3-0.3 0.5-0.5-0.1-0.2-0.2-0.3-0.4-0.6 0.3 0 0.6 0.1 0.9 0.1 0.1 0 0.1-0.1 0.2-0.1 0.1 0.1 0.3 0.2 0.4 0.3s0.2 0.3 0.1 0.4c-0.2 0.4-0.1 0.7 0.1 1-0.1 0.1-0.2 0.2-0.4 0.3v0.1c0.2 0.3 0.3 0.8 0.5 0.8 0.5 0.1 1 0.2 1.6 0 0.1 0.1 0.3 0.1 0.4 0.2 0.3 0.2 0.5 0.1 0.7-0.3-0.1-0.1-0.1-0.2-0.2-0.3 0.3 0.1 0.5 0.2 0.9 0.3-0.4 0.3-0.4 0.6-0.2 0.8-0.2 0.1-0.4 0.2-0.6 0.2-0.1-0.1-0.1-0.1-0.2-0.1-0.2 0.2-0.3 0.4-0.5 0.5-0.1 0.1-0.1 0.3-0.2 0.5-0.3-0.1-0.5-0.2-0.7-0.3 0-0.3-0.2-0.7 0.2-0.9l0.3-0.3c-0.5-0.1-0.9-0.2-1.2 0.2-0.2 0-0.4 0.1-0.6 0.1 0.1-0.3 0-0.5-0.3-0.6-0.2-0.1-0.5-0.2-0.7-0.3-0.3-0.2-0.5-0.4-0.4-0.8 0.5-0.3 0.5 0.3 0.9 0.4 0.2-0.2 0.2-0.5 0.1-0.7-0.3-0.1-0.6-0.2-0.8 0zm3.3 2.6c0 0.1 0.1 0.3 0.1 0.4v-0.4c0-0.1 0-0.1-0.1 0zm-0.4-0.1c0-0.2-0.1-0.2-0.3-0.3 0.1 0.2 0.1 0.3 0.3 0.3zc0 0.2-0.1 0.4 0.1 0.6 0.1-0.3 0.2-0.5-0.1-0.6zm-2.3-3.1c0.1 0.1 0.2 0.2 0.2 0.3l0.1-0.1c-0.1-0.1-0.1-0.2-0.2-0.3 0 0-0.1 0-0.1 0.1zm9.4 4.5zm-2.4-3zm-2.3 2.9zm-4-7.6zm0.6 6.6c0-0.3 0.1-0.5-0.1-0.7-0.1 0.2-0.2 0.4-0.3 0.7h0.4zm0.6 1c-0.2-0.2-0.3-0.3-0.5-0.6v0.9c-0.1 0-0.2 0-0.3-0.1l-0.2 0.2c0.3 0.3 0.7 0.6 1 0.9-0.3-0.4-0.4-0.8 0-1.3zm-0.8 0.2zm4.2-0.1c0 0.2 0.1 0.4 0.1 0.5 0.2-0.1 0.3-0.1 0.5-0.2 0.1 0 0.2-0.1 0.3-0.1v0.1c-0.1 0.1-0.2 0.1-0.3 0.2 0.2 0.1 0.3 0.3 0.5 0.4-0.1 0.1-0.3 0.2-0.4 0.3 0.1 0.2 0.3 0.3 0.5 0.2s0.5-0.3 0.7-0.4c-0.2-0.4-0.5-0.1-0.8-0.1 0-0.2-0.1-0.5-0.1-0.7 0.1-0.9-0.8-0.7-1.2-1.1h-0.1c-0.1 0.2-0.2 0.3-0.4 0.5-0.2-0.3-0.3-0.5-0.5-0.8-0.2 0.6 0.3 0.7 0.3 1 0.2 0 0.4 0 0.6-0.1 0.3 0.2 0.3 0.3 0.3 0.3zm3.9-0.7l0.1 0.1 0.1-0.1h-0.2c0.1 0 0 0 0 0zm-8.6 0.7c0.1 0.1 0.1 0.2 0.2 0.2 0.1-0.1 0.1-0.1 0.2-0.1-0.1-0.2-0.2-0.2-0.4-0.1zm0.5 0.1zm0.5-3.6c0.2 0.3 0.3 0.4 0.6 0.5-0.2-0.4-0.2-0.4-0.6-0.5zm-1.8-1.9c0 0.1 0.1 0.2 0.1 0.2 0.1 0 0.1-0.1 0.2-0.1 0-0.1-0.1-0.2-0.1-0.3-0.1 0.1-0.1 0.2-0.2 0.2zm-5.4-3.9c-0.1 0-0.1 0 0 0 0 0.1 0.1 0.2 0.1 0.2 0.1 0 0.2-0.1 0.2-0.1-0.2 0-0.3 0-0.3-0.1zm7.8 6.3zm-8-6.7c-0.1 0.1-0.1 0.2-0.1 0.2l0.2 0.2h0.1c-0.1-0.1-0.1-0.2-0.2-0.4zm-2.3-2.3v0c0.2 0.1 0.4 0.1 0.6 0.1-0.4-0.3-0.4-0.3-0.6-0.1zm2.5 2.7zm8.8 9.2c0.1-0.2 0.3-0.5 0.4-0.7s0.2-0.4-0.1-0.5c-0.1 0.2-0.3 0.4-0.4 0.6-0.2 0.3-0.2 0.4 0.1 0.6zm-1-2.9c-0.1 0.3 0 0.5 0.3 0.6-0.1-0.2 0.2-0.5-0.3-0.6zm-10.8-9.4c0.1 0 0.1 0 0 0 0.1 0 0.1 0 0 0zm12 9.7zm0.6-0.6c0 0.1 0 0.3-0.1 0.4 0.4-0.2 0.3-0.3 0.1-0.4zm0-0.1v-0.3c-0.4 0.1-0.7 0.4-0.9 0.8 0.1 0 0.2 0.1 0.3 0.1 0.1-0.2 0.3-0.5 0.6-0.6zm1.3 0.5c-0.2-0.3-0.3-0.6-0.1-1h-0.5v-0.1c0.2-0.1 0.3-0.2 0.5-0.4-0.1-0.2-0.3-0.4-0.5-0.2-0.3 0.3-0.7 0.4-0.7 0.9 0.2 0.1 0.4 0.1 0.5 0.2 0.3 0.8 0.3 0.8 0.8 0.6zm-1.9 0.2zm0.6-0.9zm0 0.2zv0 0zm12.2 0.6s0.1 0 0 0c0.1 0 0 0 0 0zm-2.7 1.9zm0.8 1.4zm-0.5-1.6c-0.1 0.1-0.2 0.1-0.2 0.2 0.1 0 0.2 0 0.3-0.1-0.1 0-0.1 0-0.1-0.1zm-2.7-0.8zm2.4 1c0.1 0 0.1 0 0 0 0.1 0 0.1 0 0 0zm-2.4-1zm0.6-0.8c-0.2 0-0.5 0.1-0.7 0.1 0 0.2 0.1 0.4 0.1 0.6 0.2-0.2 0.4-0.4 0.7-0.6-0.1 0-0.1-0.1-0.1-0.1zm-0.6 0.8zm3.2 2.4c0.2-0.1 0.4-0.2 0.7-0.3-0.3-0.1-0.6-0.1-0.7 0.3zm1.3-3.5zm-0.5 0.1c0.2 0.1 0.4 0.2 0.6 0.2v-0.2c0-0.1 0-0.1-0.1-0.2-0.2 0-0.3-0.1-0.5 0.2zm0.5-0.1zc0.2 0 0.4 0.1 0.6 0.1-0.1-0.2-0.3-0.3-0.6-0.1zm-0.3 2.9c0.2 0 0.3 0.1 0.4 0.1-0.1-0.1-0.1-0.4-0.4-0.1zm0.4 0.1zm-4.7-2.6zm6.3-0.1zm-1.1-0.1c0.1 0 0.1 0 0 0 0.1 0 0.1 0 0 0 0.1 0 0 0 0 0zm-5.5 0.4v0 0zm-2-0.8c0.1 0.3 0.2 0.2 0.4 0.1-0.2-0.1-0.3-0.2-0.4-0.1zm0.9-1.3zm-0.6 1.4zm-0.1-2c-0.3-0.1-0.5-0.2-0.7-0.3 0.2 0.3 0.4 0.7 0.7 0.7 0.3-0.3 0.6-0.5 0.8-0.7-0.1-0.1-0.2-0.2-0.3-0.4-0.2 0.3-0.3 0.5-0.5 0.7zm0.7 0.6zm1.4 1.9zm-0.3 0.2v0 0zm-1.7-0.7zm0.8 3.2c-0.2 0.2-0.3 0-0.4-0.1 0-0.1 0.1-0.2 0.1-0.2 0.3-0.6 0.3-0.7-0.3-0.9-0.3 0.1-0.6 0.2-0.9 0.3 0.2 0.5 0.7 0.5 1.1 0.8 0 0.1 0 0.1-0.1 0.3-0.3-0.2-0.7 0-0.9-0.4-0.1-0.1-0.4 0-0.7 0 0.1-0.3 0.2-0.6 0.5-0.7-0.1-0.1-0.1-0.3-0.2-0.5-0.3 0.4-0.5 0.8-0.8 1.2-0.1-0.3-0.2-0.5-0.3-0.6-0.4-0.1-0.7-0.1-1-0.2v-0.1c-0.1 0.1-0.3 0.1-0.4 0.2-0.1 0-0.1-0.1-0.1-0.1-0.2-0.3-0.3-0.6-0.5-0.9-0.1-0.2-0.1-0.4 0.1-0.6 0.1-0.1 0.3-0.1 0.4-0.1 0.1 0.1 0.2 0.3 0.2 0.4 0 0.2-0.1 0.3-0.2 0.6 0.8 0 1.4 0.4 2.2 0.2-0.2-0.4-0.4-0.4-0.7-0.3-0.3 0-0.5-0.2-0.7-0.4 0.3-0.4 0.6 0.2 0.8 0-0.2-0.3-0.4-0.6-0.7-0.8-0.1-0.1-0.3-0.2-0.1-0.4 0.2 0.1 0.4 0.2 0.6 0.4-0.1 0.3 0.1 0.4 0.4 0.5s0.6 0.2 0.9 0.5c-0.1 0-0.2 0.1-0.3 0.1 0.3 0.1 0.6 0.3 0.9 0.4 0-0.2-0.2-0.5 0-0.7 0.2 0.2 0.3 0.4 0.4 0.6 0.1-0.1 0.2-0.1 0.4-0.2 0.3 0.2 0.5 0.5 0.4 0.9 0 0.2 0.2 0.5 0.4 0.7-0.1-0.1-0.3 0-0.5 0.1zm-1-1.5c-0.1 0.1-0.2 0.2-0.2 0.3 0.1-0.1 0.2-0.2 0.2-0.3zm1.6-0.3c0.1-0.3 0.2-0.5 0.3-0.7-0.2 0.1-0.3 0.1-0.5 0.2 0.1 0.1 0.1 0.3 0.2 0.5zm-0.7-3.6zm0.5 0.7c0 0.1 0.1 0.2 0.1 0.5 0.2-0.4 0.1-0.5-0.1-0.5zc0-0.4-0.1-0.8-0.1-1.1-0.1 0.2-0.3 0.3-0.4 0.5l0.3 0.3c-0.1 0.2-0.3 0.3-0.4 0.5 0.2 0 0.3-0.1 0.5-0.1 0-0.2 0.1-0.2 0.1-0.1zm0.8 2c-0.1 0-0.2 0.1-0.3 0.1-0.2-0.2-0.3-0.4-0.7-0.4-0.3 0-0.7-0.2-1-0.3 0.5-0.3 0.6-0.4 0.5-0.9 0 0.1-0.1 0.2-0.1 0.2-0.1-0.1-0.2-0.1-0.1-0.2 0.1-0.2 0.2-0.3 0.3-0.5v0.4c0.1-0.1 0.2-0.1 0.4-0.2 0.1 0.4 0.2 0.7 0.3 1 0.4 0 0.7 0.1 0.6 0.6-0.1 0.1 0 0.2 0.1 0.2zm-0.8-0.7c-0.1 0-0.2 0-0.4-0.1 0.1 0.2 0.3 0.5 0.4 0.1zm0.5-2.5c-0.1-0.4 0.2-0.8-0.2-1.1-0.2 0.4-0.3 0.7-0.4 1.1 0.2-0.2 0.4-0.2 0.6 0zm0.2 0.4c0.1 0.5 0.3 0.7 0.8 0.6 0.3 0 0.6-0.1 0.9-0.2 0.1 0 0.1 0 0.2-0.1-0.2-0.1-0.4-0.1-0.5-0.2 0.2-0.3 0.5-0.5 0.7-0.7-0.6 0-0.7 0.5-1.1 0.9-0.2-0.1-0.4-0.1-0.4-0.5 0.2-0.1 0.3-0.1 0.4-0.2l0.1-0.1c-0.6 0-0.5-0.4-0.6-0.8-0.2 0.2-0.2 0.3-0.3 0.5-0.1 0.1-0.2 0.3-0.3 0.4 0 0.1 0 0.3 0.1 0.4zm-0.8-0.4zm-4.1-1.8c0.1 0.2 0.2 0.3 0.2 0.5 0.1-0.2 0.1-0.3 0.2-0.6-0.2 0.1-0.3 0.1-0.4 0.1zm10.7 3c0.2 0.4 0.2 0.6 0.4 0.8l0.2 0.1c0.1 0 0.1-0.2 0.1-0.2-0.1-0.2-0.2-0.6-0.7-0.7zm4.7 2zm-2.9-1.2c-0.2-0.2-0.3-0.4-0.5-0.6-0.1 0.2-0.1 0.3-0.2 0.6 0.2-0.2 0.3 0.3 0.7 0zm-0.4 1.1h0.1s0-0.1 0.1-0.1h-0.2v0.1zm-0.1 1.5c0.2-0.1 0.3-0.1 0.4-0.2-0.3-0.1-0.3-0.1-0.4 0.2zm-1.8-3s0.1 0 0 0c0.1 0 0.2-0.1 0.3-0.2l-0.1-0.1c-0.1 0.1-0.1 0.2-0.2 0.3zm0.2-1.8c0.1-0.4 0.4-0.4 0.7-0.6l-0.7-0.7c-0.1 0.6-0.1 1-0.5 1.3 0.3-0.1 0.5 0 0.5 0zm-0.4-0.1c-0.1-0.1-0.1-0.4-0.2-0.4-0.3 0-0.4-0.2-0.5-0.3l-0.4-0.4s-0.1 0-0.1 0.1c0 0.3 0.1 0.5 0.1 0.8 0.4 0 0.7 0.4 1.1 0.2zm-0.2 1.1c-0.1 0.3-0.4 0.4-0.2 0.7l0.6-0.3c-0.1-0.2-0.2-0.3-0.4-0.4zm-0.6 0c0.1 0 0.1 0 0 0 0.1 0 0.2-0.1 0.2-0.2 0 0-0.1 0-0.1-0.1 0 0.1 0 0.2-0.1 0.3zm0.8-1.1zm5.6 6.2c-0.3 0-0.7 0.3-1 0 0.2 0.6 0.7 0.7 1.1 0.9 0.2-0.1 0.3-0.3 0.5-0.4s0.5-0.1 0.5-0.3c-0.5-0.1-0.8-0.3-1.1-0.2zm-1.1-1zm-0.5-0.6c-0.1-0.2-0.2-0.5-0.6-0.4 0.2 0.2 0.3 0.4 0.4 0.6-0.1 0.1-0.2 0.2-0.3 0.2 0.1 0.2 0.3 0.5 0.4 0.7 0.4-0.1 0.5-0.4 0.7-0.6-0.4 0-0.5-0.3-0.6-0.5zm1.4-1.1zm-3 1.6l0.1 0.1v-0.1s0-0.1-0.1 0v0zm2.5 2.3c-0.1 0-0.1 0.1-0.2 0.1 0 0 0 0.1 0.1 0.1 0.1-0.1 0.1-0.1 0.1-0.2 0.1 0 0 0 0 0zm-2-3.7h0.1c0-0.1-0.1-0.2-0.1-0.3v0.3zm-0.4 0.6c0.2 0.1 0.4 0.2 0.5 0.2 0-0.4 0-0.4-0.5-0.2zm0.4-0.9c0.1 0 0.1 0 0 0 0.1 0 0.1 0 0 0 0.1 0 0 0 0 0zm-1.9-3.1h-0.9c0.2 0.3 0.2 0.8 0.8 0.6 0-0.1 0.1-0.3 0.1-0.6zm-3.8-1.2c0.1 0 0.2-0.1 0.4-0.1 0-0.1-0.1-0.1-0.1-0.2-0.1 0.1-0.2 0.1-0.3 0.2-0.1 0 0 0.1 0 0.1zm-0.2 2.3v0h-0.3s0 0.1 0.1 0.1 0.2-0.1 0.2-0.1zm-0.6 3.5zm0-1.9c0.2 0.1 0.5 0.1 0.6-0.1-0.4-0.3-0.7-0.5-1.1-0.7 0.1 0.3 0.1 0.7 0.5 0.8zm1.7-4c0 0.3-0.1 0.5-0.1 0.7 0.3-0.2 0.3-0.4 0.1-0.7zm-2.3 5.6c0.1 0.3 0.3 0.4 0.5 0.3-0.1-0.1-0.1-0.3-0.5-0.3zm2-4.7c-0.1 0-0.2-0.1-0.4-0.1v0.3c0 0.1-0.1 0.2-0.1 0.3h0.1c0-0.1 0.1-0.2 0.1-0.3 0.1 0 0.2 0 0.2-0.1 0.1 0 0.1-0.1 0.1-0.1zm0.5 1.3c0.1-0.3 0.3-0.5 0-0.7-0.1 0-0.3 0-0.4 0.1-0.1 0.3 0.1 0.5 0.4 0.6zm-0.9-0.4v0.3h0.1c0-0.1 0-0.2-0.1-0.3 0.1 0 0.1 0 0 0zm0.6 1.5c-0.1-0.2-0.1-0.2-0.4-0.2 0.1 0.1 0.2 0.2 0.3 0.2h0.1zm0.8 2.2c0.5 0.6-0.3 0.7-0.1 1.4 0.3-0.4 0.6-0.7 0.9-1-0.2-0.1-0.3-0.2-0.5-0.3s-0.2-0.1-0.3-0.1zm-1.1-1c-0.1 0-0.1-0.1-0.2-0.2 0 0.3-0.1 0.4-0.4 0.3 0.1 0.1 0.3 0.2 0.4 0.4 0.1 0.1 0.2 0.3 0.2 0.4 0.2-0.2 0.4-0.4 0.5-0.7-0.2-0.1-0.5 0.3-0.5-0.2zm0.3 1.1c0 0.3 0.1 0.5 0.1 0.6s0.1 0.2 0.1 0.2c0.4-0.6 0.4-0.6-0.2-0.8zm2-4.6zm-1.6 4.2c0.3 0 0.7-0.1 0.8-0.5-0.5-0.2-0.6 0.2-0.8 0.5zm-0.7-0.7zm-1.4 0.4c0 0.4 0.1 0.7 0.1 1 0.1 0.1 0.2 0.3 0.4 0.5 0.1-0.4 0.1-0.6 0.2-0.9 0.1 0 0.2 0.1 0.3 0.1l-0.3-0.3c-0.3-0.2-0.3-0.2 0-0.6-0.4-0.2-0.5 0.2-0.7 0.2zm0.7-0.2v0 0zm0.8-0.7c0 0.2-0.1 0.3-0.1 0.5 0.1-0.1 0.3-0.3 0.1-0.5zm-0.1 0.5zm9.9 0l-0.2 0.2c0.1 0.1 0.1 0.3 0.2 0.4 0.2 0 0.4 0 0.6-0.1 0.1-0.6-0.6-0.2-0.6-0.5zm-0.3 0.2v0 0zm-8.4-0.7c0-0.2-0.1-0.3-0.1-0.6-0.3 0.3-0.3 0.5 0.1 0.6zm8.1 0.5c-0.2 0.1-0.3 0.2-0.4 0.3-0.4-0.1-0.8-0.2-1.2-0.2 0.3 0.2 0.5 0.4 0.8 0.6-0.1 0.1-0.1 0.3-0.2 0.5 0.3 0.3 0.4-0.1 0.5-0.1 0.1 0.2 0.2 0.4 0.2 0.6-0.6 0.5-1.1 0.1-1.7 0-0.3 0-0.3-0.3 0-0.6 0.2 0.1 0.3 0.3 0.5 0.4 0.1 0 0.2-0.2 0.4-0.3-0.4-0.8-0.6-0.9-1.2-0.5-0.3 0.2-0.4 0.4-0.2 0.7v0.3c0.6 0.5 1.3 0.9 2.1 0.5 0.2 0.1 0.3 0.2 0.5 0.3 0.4-0.3 0.1-0.6 0.1-0.8 0-0.5-0.1-0.5-0.6-0.6 0.1-0.1 0.2-0.4 0.3-0.4 0.4 0 0.4-0.3 0.5-0.5-0.1-0.2-0.2-0.4-0.4-0.2zm-6-6.9v-0.2c-0.2-0.2-0.3-0.1-0.4 0.1 0.1 0.1 0.2 0.2 0.4 0.1zm-0.3-2.6c-0.1 0.1-0.1 0.2-0.2 0.3 0 0 0.1 0 0.1 0.1 0.1-0.1 0.1-0.2 0.2-0.3 0-0.1 0-0.1-0.1-0.1zm0.1 1.2c-0.1-0.1-0.1-0.1-0.2-0.1s-0.1 0.1-0.2 0.1h0.4zm2.7 6.6v0 0zm1.5 1.3c-0.3 0-0.3-0.3-0.3-0.4 0-0.2 0-0.3 0.1-0.6-0.2 0.2-0.3 0.3-0.5 0.4h-0.3c0 0.1 0 0.2-0.1 0.4 0.1 0.1 0.3 0.1 0.4 0.2 0.3 0.2 0.3 0.4 0 0.6 0.1 0 0.1 0.1 0.2 0.1 0.3-0.1 0.6-0.2 0.8-0.3 0-0.1-0.1-0.4-0.3-0.4zm-1.7-1.5zm0.2 0.3c0.2 0.2 0.3 0.4 0.5 0.6-0.1-0.6-0.1-0.6-0.5-0.6zm-0.6-4l-0.9-0.6c-0.1 0.1-0.2 0.2-0.3 0.4 0.5 0.2 0.8 0.3 1.2 0.2zm0.7-2.7c0.1 0 0.2-0.1 0.3-0.3-0.1-0.1-0.2-0.2-0.2-0.1-0.1 0.1-0.2 0.2-0.3 0.2 0 0.1 0.1 0.2 0.2 0.2zm0-2.9l-0.1 0.1h0.1s0.1 0 0-0.1c0.1 0 0 0 0 0zm0.3 1.1c0.1 0.2 0.2 0.4 0.3 0.5l0.4-0.4c-0.4-0.1-0.5-0.1-0.7-0.1zm0.1 8.1zm-2.2-5.2c-0.1-0.1-0.3-0.1-0.4-0.2 0.1 0.3 0.1 0.3 0.4 0.2zm0.1-0.6c0.1 0 0.1-0.1 0.2-0.1l-0.2-0.2c0 0.1-0.1 0.1-0.1 0.2s0.1 0.2 0.1 0.1zm0.2-3.3c-0.1-0.2-0.3-0.2-0.6 0 0.3 0.1 0.4 0.1 0.6 0.1v-0.1zm-0.7 2.2s0.1 0 0 0h0.1s0-0.1-0.1-0.1v0.1zm0-0.6c0.2 0 0.2-0.2 0.1-0.3l-0.2-0.2v-0.4h-0.1v0.4c0 0.1-0.2 0.3-0.1 0.4 0 0 0.2 0.1 0.3 0.1zm1.3 7.9c0.1 0 0.2 0 0.2 0.1 0-0.1-0.1-0.1-0.2-0.1v0zm0.3 0.1zs-0.1 0 0 0c-0.1 0-0.1 0 0 0zc0.1 0.3 0.2 0.3 0.4 0.1 0.1-0.1 0.1-0.1 0.1-0.2s-0.1-0.2-0.1-0.3c-0.2 0.1-0.3 0.2-0.4 0.4zm-0.8-1.7zm2.2 3.4v0 0zm-0.4-1.2zm-1 0.9zm1.4 0.3v0 0 0zm-0.4-0.4c-0.3-0.1-0.6-0.1-0.9-0.1l-0.2 0.2c0.1 0 0.3 0.1 0.3 0.1 0.3 0.4 0.7 0.3 1.1 0.1 0-0.1-0.1-0.2-0.3-0.3zm0-0.8zm-0.4-1.5c0.2-0.2 0.4-0.3 0.6-0.4v-0.1c-0.5 0-1 0.2-1.5 0.3v-0.8c0.5-0.1 0.6-0.7 0.9-1 0.1 0.3 0.3 0.6 0.4 1 0.1-0.6 0.1-1 0.2-1.5-0.3 0.2-0.5 0.2-0.6-0.1-0.2 0.2-0.4 0.4-0.6 0.5 0.1 0.5 0 0.6-0.3 0.7-0.2 0-0.3 0.1-0.3 0.3 0 0.1-0.2 0.2-0.3 0.2 0 0.1 0.1 0.2 0.1 0.3 0.2 0.1 0.2 0.3 0.2 0.5s-0.1 0.4 0.2 0.4c0 0.1 0 0.2-0.1 0.4 0.2-0.1 0.3-0.2 0.4-0.2 0.3-0.1 0.4 0 0.4 0.3 0.2 0 0.4-0.1 0.6-0.1 0-0.4-0.1-0.6-0.3-0.7zm-1.4-0.7zm0.8-1.4zm-1.3-0.3c0.2 0.1 0.5 0.1 0.6 0.2 0.2 0.3 0.4 0.2 0.7 0-0.3-0.2-0.6-0.5-1-0.5l-0.3 0.3zm3.4 3h0.4v-0.1c-0.3-0.1-0.7-0.3-1-0.4-0.2 0.1-0.3 0.2-0.5 0.3 0.1 0.1 0.2 0.3 0.2 0.5 0.4-0.4 0.4-0.4 0.9-0.3zm-2.1-2.7zm-1.3 0.5c-0.1 0-0.2 0.1-0.2 0.2s0 0.2 0.1 0.3 0.3 0.1 0.5 0.2c0-0.1 0-0.3-0.1-0.4-0.1-0.2-0.2-0.2-0.3-0.3zm0.4 0.6zm-0.3 0.9c0.1-0.2 0.2-0.4 0.4-0.6h-0.6c-0.1 0.3-0.1 0.5 0.2 0.6zm0.3-0.9zm2-6.1zm-16.7 6.3c-0.1 0.1-0.2 0.2-0.2 0.3 0.4 0.4-0.2 0.6-0.2 1 0.2-0.1 0.3-0.2 0.6-0.3 0.1 0.3 0.2 0.5 0.2 0.8h0.1v-1.1c0.1 0 0.3 0.1 0.4 0.1-0.2-0.3-0.5-0.6-0.7-1-0.1 0.1-0.2 0.1-0.2 0.2zm-1 1.2l0.4-0.4c0.1-0.1 0.2-0.3 0.3-0.5-0.7 0.3-0.8 0.4-0.7 0.9zm0.7-0.8zm1.5 0v0.1c0.1 0 0.2-0.1 0.3-0.1v-0.2c-0.1 0.1-0.2 0.1-0.3 0.2zm-0.1-0.4c-0.1-0.3-0.2-0.5-0.3-0.8-0.2 0.6-0.2 0.6 0.3 0.8zm-1.4 0.4zm1.7-5.4c0.1 0 0.1 0.1 0.2 0.1 0.1-0.2 0.2-0.3 0.3-0.5l-0.1-0.1c-0.1 0.2-0.3 0.3-0.4 0.5zm0.2 4.4c0.1 0.1 0.1 0.2 0.2 0.2l0.1-0.1c0-0.1-0.1-0.1-0.1-0.2 0 0-0.1 0-0.2 0.1zm-0.4-8c0 0.4 0.1 0.6 0.6 0.4-0.2-0.1-0.3-0.2-0.6-0.4zm-2.1 10.9c0.1 0.1 0.2 0.1 0.3 0.2 0 0 0-0.1 0.1-0.1l-0.2-0.2-0.2 0.1zm0.2-3c0 0.2 0 0.5-0.1 0.7l0.1 0.1 0.2-0.2c-0.1-0.5 0.3-0.7 0.7-0.9-0.4 0-0.4 0-0.9 0.3zm4.3-6.3c-0.3 0.3-0.5 0.5-0.8 0.7 0.2 0.4 0.6 0.6 1 0.6 0.1 0 0.1-0.1 0.2-0.2-0.1-0.1-0.1-0.2-0.2-0.2s-0.2 0-0.3 0.1c0 0-0.1 0-0.1-0.1 0.1-0.1 0.3-0.2 0.4-0.3-0.2-0.2 0-0.5-0.2-0.6zm-1.4 4.5zm2.8-2.6v0 0 0zm-2.6 2.5zc-0.1 0-0.2 0.1-0.2 0.1 0 0.1 0.1 0.3 0.1 0.4 0.4-0.3 0.4-0.3 0.1-0.5zm-0.2 0.1zm0.2-0.1zm-1 0.4c0.3-0.1 0.5-0.2 0.8-0.3-0.4-0.2-0.6 0-0.8 0.3zm1-0.4c0.1-0.2 0.2-0.4 0.2-0.6-0.3 0.1-0.3 0.3-0.2 0.6zm3.5-2.4c-0.4 0-0.6 0-0.9-0.1 0.1 0.2 0.3 0.3 0.4 0.5 0.2-0.1 0.3-0.2 0.5-0.4zm-8.1-0.6s-0.1-0.1-0.2-0.1c0 0 0 0.1-0.1 0.1 0.1 0 0.1 0.1 0.2 0.1 0 0 0-0.1 0.1-0.1zm-0.4-2.2c0-0.1-0.1-0.2-0.1-0.2-0.1 0-0.2 0.1-0.2 0.1 0 0.1 0.1 0.1 0.1 0.2 0.1 0 0.1 0 0.2-0.1zm1-1c-0.2 0.1-0.3 0.3-0.5 0.5 0.4 0.1 0.5 0 0.5-0.5zm-0.4 8.4c0-0.1 0-0.1 0.1-0.2l-0.2 0.2h0.1zm-0.2 1.1l0.1 0.1c0.1 0 0.1 0 0.2-0.1l-0.2-0.1c-0.1 0-0.1 0-0.1 0.1zm-0.9-4.4c0.2 0.1 0.3 0.1 0.5 0.2l0.3-0.6c-0.7-0.3-0.7-0.2-0.8 0.4zm0-2.3h1.3c-0.1-0.1-0.1-0.2-0.2-0.3-0.1 0.2-0.3 0.2-0.5 0-0.1-0.2-0.1-0.3 0.1-0.4-0.2-0.3-0.4 0.1-0.5 0v-0.5c-0.3 0.4-0.3 0.4-0.2 1.2zm1.1-0.3c0.1-0.1 0.2-0.3 0.4-0.5-0.4 0.1-0.5 0.1-0.7 0.1-0.1 0.2 0.1 0.3 0.3 0.4zm3.5-0.7c0.2 0.2 0.3 0.4 0.4 0.5 0.1 0 0.1-0.1 0.2-0.1-0.1-0.2-0.2-0.4-0.6-0.4zm-3.8 0.3zm0.3 0.4zm1.4 4.2c0.4 0.2 0.5-0.1 0.7-0.2-0.4-0.1-0.8-0.1-1.3-0.2 0 0.2 0 0.4-0.1 0.7 0.4-0.1 0.6-0.3 0.7-0.3zm11.6-3.4l-0.1 0.1s0 0.1 0.1 0.1l0.1-0.1c0-0.1-0.1-0.1-0.1-0.1zm-12.8-0.1v0.4h0.1v-0.4c0 0.1 0 0-0.1 0zm2.5 2.4h0.5c-0.3-0.2-0.3-0.2-0.5 0zm-2.9 6.4s-0.1 0-0.1 0.1l0.1 0.1s0.1 0 0.2-0.1c-0.1-0.1-0.1-0.1-0.2-0.1zm-0.3-3.2c0.2 0.1 0.3 0.2 0.4 0.2 0-0.2-0.1-0.3-0.4-0.2zm0.2 2.5l-0.1 0.1s0 0.1 0.1 0.1c0 0 0.1 0 0.2-0.1-0.1 0-0.2 0-0.2-0.1zm0.3-1.4l0.1 0.1s0-0.1 0.1-0.1h-0.2zm0-5.4s0.1 0.1 0.1 0.2c0.1-0.1 0.1-0.1 0.1-0.2 0 0 0-0.1-0.1-0.1 0 0-0.1 0-0.1 0.1zm3.5 2.8l0.1-0.1c-0.2-0.2-0.4-0.5-0.6-0.8-0.2 0.2-0.4 0.3-0.7 0.5 0.4 0.1 0.8 0.2 1.2 0.4zm3.9-0.2l0.1 0.1c0.2-0.1 0.3-0.3 0.5-0.4-0.3 0-0.4 0.1-0.6 0.3zm1.9-0.4zm-2.9 4.4c0 0.3 0.1 0.3 0.3 0.4 0-0.2 0-0.4-0.3-0.4zm2.1-4.9c-0.2 0.2-0.3 0.5-0.5 0.7v0.5 0.2c0.4 0.1 0.1 0.5 0.3 0.7 0.4-0.4 0.7-0.7 0.2-1.3v-0.2h0.7l-0.3-0.6c0-0.1-0.2-0.1-0.4 0zm-0.5 0.6zm-1.3 4.7v0.6c0.3-0.3 0.3-0.3 0-0.6zm0.2-0.4c0.1-0.2 0.2-0.2 0.2-0.4l-0.1-0.2c-0.1 0.1-0.2 0.1-0.2 0.2-0.1 0.1 0 0.2 0.1 0.4zm-0.4-3.5c0.1 0.3 0.3 0.3 0.6 0.1-0.2-0.1-0.4-0.2-0.6-0.1zm0.1-0.9v0c0.1-0.2 0.2-0.3 0.4-0.3 0.3-0.2 0.3-0.2 0-0.5-0.2 0.2-0.5 0.4-0.7 0.6s-0.3 0.4-0.1 0.7c0.5-0.2 0.9-0.3 1.3-0.5v-0.1c-0.4 0-0.7 0-0.9 0.1zm2.8 0.6h0.1c0.1-0.2 0.2-0.3 0.4-0.6h-0.6c0 0.2 0.1 0.4 0.1 0.6zm2.7-4.6c-0.1 0.4 0.1 0.6 0.3 0.7 0.1-0.3 0-0.5-0.3-0.7zm0.4 1.6h0.1c0-0.1-0.1-0.2-0.1-0.3h-0.1c0 0.1 0 0.2 0.1 0.3zm-0.2 2.4c0.1-0.1 0.2-0.1 0.3-0.2v0.3c0.4 0.2 0.5-0.2 0.8-0.2-0.2-0.2-0.4-0.3-0.5-0.4 0.2-0.4 0.7-0.7 0.5-1.2-0.2 0.5-0.7 0.4-1 0.6 0.1 0.1 0.2 0.1 0.4 0.2-0.3 0-0.5 0.1-0.7 0.1 0 0.4 0.1 0.6 0.2 0.8zm-1.5-3.8c0.4 0.3 0.7 0.5 1 0.7 0-0.6 0-0.7-1-0.7zm-4.5 0.2l0.3 0.9c0.1-0.1 0.3-0.2 0.4-0.3-0.2-0.2-0.4-0.4-0.7-0.6 0.1 0 0 0 0 0zm3.1 0.8s0-0.1 0.1-0.1c-0.1 0-0.1-0.1-0.2-0.1l-0.1 0.1c0.1 0 0.1 0 0.2 0.1zm-0.8 0.5l0.1-0.1-0.1-0.1-0.1 0.1s0.1 0 0.1 0.1zm2.6-3.3s-0.1 0.1 0 0v0.1-0.1zm-0.4 1c0.2 0.2 0.3 0.2 0.6 0.2-0.2-0.4-0.4-0.3-0.6-0.2zm-2.4 3.5l0.1-0.1c-0.1 0-0.2 0-0.3 0.1 0.1-0.1 0.2 0 0.2 0zm-2.3-3.6h0.1v-0.3h-0.1c0.1 0.1 0 0.2 0 0.3zm-0.6 2.8v0c-0.1-0.1-0.1 0-0.2 0 0.1 0 0.1 0.1 0.2 0v0zm0.5-4s0 0.1 0.1 0.1c0 0 0.1 0 0.1-0.1h-0.2zm0.7 10.7zm-1.8-5.9v0.2c0.1 0 0.3 0 0.4-0.1v-0.2c-0.1 0-0.2 0.1-0.4 0.1zm2.1-1.8v0zm-1.3 3v-0.7h-0.1c0 0.2-0.2 0.4 0.1 0.7zm1.4-1.6c0.1 0.1 0.2 0.1 0.3 0.2 0-0.1 0.1-0.1 0.1-0.2-0.1-0.1-0.2-0.1-0.3-0.2-0.1 0.1-0.1 0.1-0.1 0.2zm-0.9 0.8s0.1 0.1 0 0c0.1 0.1 0.1 0 0.2 0-0.1 0-0.1-0.1-0.2 0 0.1-0.1 0 0 0 0zm0.1-1.2v0h0.1-0.1zm-0.7-1.3c-0.1 0.1-0.2 0.1-0.3 0.2l0.1 0.1c0.1 0 0.2-0.1 0.2-0.3 0.1 0.1 0.1 0.1 0 0zm-0.9 1.7h0.2v-0.1c-0.1 0-0.2-0.1-0.4-0.1 0.2 0.1 0.2 0.2 0.2 0.2zm0.1 2.4c-0.2 0.1-0.4 0.1-0.5 0.5 0.7 0.1 1 0.7 1.6 0.9-0.3-0.5-0.5-1.1-1.1-1.4zm1.9 3.9zm-0.7-7.3v0l-0.1 0.1c0.1 0.1 0.2 0 0.1-0.1 0.1 0.1 0.1 0 0 0zm-6.7 2.5v0.3c0.2 0.1 0.4 0.2 0.7 0.3-0.2-0.4-0.3-0.7-0.7-0.6zm4.9 4.7l0.1 0.1c0.2-0.1 0.3-0.2 0.3-0.5l-0.4 0.4zm0-2.3c0.1 0.2 0.2 0.4 0.3 0.7 0.1-0.1 0.2-0.2 0.4-0.3 0.1 0.2 0.1 0.3 0.2 0.5-0.2 0.2-0.3 0.4-0.5 0.6 0.2 0.2 0.4 0.3 0.5 0.4 0.1-0.3 0.2-0.6 0.3-1 0.1-0.1 0.2-0.3 0.4-0.4-0.9-0.7-1.1-0.7-1.6-0.5zm0.6-1.5z"/>
</svg>
