<?xml version="1.0" encoding="utf-8"?>
<!-- Generator: Adobe Illustrator 19.2.1, SVG Export Plug-In . SVG Version: 6.00 Build 0)  -->
<svg version="1.1" id="Redeemer_Container" xmlns="http://www.w3.org/2000/svg" xmlns:xlink="http://www.w3.org/1999/xlink" x="0px"
	 y="0px" viewBox="0 0 48.1 58.2" enable-background="new 0 0 48.1 58.2" xml:space="preserve">
<g id="Redeemer">
	<g id="Rock">
		<path id="Rock_Shadow" fill="#8E7E72" d="M48,57.9H11.8H0l2.7-9.4c0,0,0.7-1.1,0.8-1.7c0.1-0.6,0.3-1.6,0.5-2.3
			C4.2,43.9,5.9,38,6,37.1s1.2-6.5,1.2-6.5L7.3,30c0,0,3.5-2.3,4.3-3.2c0.8-1,1.7-3.2,1.7-3.2s0.8-3.4,1.2-4.9
			c0.4-1.5,1.2-3.4,1.2-3.4l0.6-1l7.5-0.2c0,0,4,1.9,4.5,2.3c0.5,0.4,1.1,1,1.4,1.7c0.3,0.7,0.8,1.9,0.8,1.9l0.5,0.7l0.4,0.8
			l3.2,7.1l2.5,3l2.7,0.9c0,0,1,3.5,1.4,4.7c0.4,1.2,1.1,2.5,1.9,3.4c0.8,0.9,1.1,1.9,2.2,3.3c1.1,1.4,1.8,2.7,1.8,2.7l0.9,0.8V57.9
			z"/>
		<path id="Rock_Lighting" fill="#C9AE8D" d="M24.2,27.1l0.6,22.9l-2.3-0.4V26.2L24.2,27.1z M33.9,45.5l1.7-2.3l-4-11l-3.8,0.8
			l0.1,1.4l-0.9,1c0,0,0.7,1.4,1,2.6c0.3,1.2-0.4,3.4-0.5,4c-0.1,0.6-0.1,4.5-0.1,4.5l2,1.7l1.4,0.2c0,0,0.3,0.5,0.4,0.8
			c0.1,0.2,0.7,2.6,0.7,2.6l1-0.7c0,0,0.5-0.6,1-1.3c0.5-0.7,1.4-0.6,1.4-0.6L34,47.4L33.9,45.5z M24.1,21c0.1-0.2,0.4-0.3,0.5-0.5
			c0.1-0.3-0.2-0.5-0.4-0.7c-0.4-0.7-0.2-1-0.1-1.7c0.1-0.7-0.2-1.3-0.3-1.8c-0.1,0.5-0.1,0.9-0.4,1.4c-0.3,0.4-0.7,0.4-1,0.8
			c-0.6,0.7-0.3,2.3-1.5,2.4c0,0.6,0.2,1.4,0.3,2.1c0.1,0.6,0.2,1.2,0.2,1.9c0.8-0.3,1.4-0.8,2.2-1c0.7-0.1,1.4-0.2,2.1-0.3
			C25.8,22.8,23.8,22.1,24.1,21z M37,36c0,0.8,0.6,1.7,0.6,1.7s0.5,0.7,0.9,1.2c0.4,0.5,1.1,0.5,1.4,1s2,0.2,2,0.2l-0.8-2l-1.6-5.5
			l-0.8,0.1l-1.2-0.2c0,0-0.3,0.3-0.5,0.8c-0.3,0.4-1,0.2-1,0.2l0.3,1C36.4,34.5,37,35.2,37,36z M17.4,28.5
			c-0.4,0.8-1.4,1.7-1.5,2.5c-0.1,0.7,0,0.8-0.4,1.4c-0.3,0.5-0.4,0.8-0.6,1.3c-0.2,0.6-1,2.3-0.2,2.7c0-0.3,0.3-2.4,0.8-2.1
			c0.8,0.5-1.3,3.3,0.2,3.5c0-0.5-0.1-1-0.1-1.6c0-0.6,0.3-1.2,0.3-1.9c0.1-0.8,0.2-1.8,1.1-2.1c0.1,0.5-0.4,0.9-0.3,1.4
			c0.9-0.4,0.3-2.5,1.1-2.5c0.2-0.8,0.8-2,1.8-1.8c0.2,0.5,0.7-0.1,1.1-0.1c0.2,0,0.4,0.3,0.7,0.4c0.3-0.5,0.9-0.7,0.5-1.4
			c0.1,0,0.3-0.1,0.4-0.1c0.2-0.5,0.1-1.1,0-2C20.6,26.6,18.3,26.8,17.4,28.5z M47,46.4c-0.5-0.5-0.9-1.1-1.4-1.6
			c-0.5-0.5-1.1-0.9-1.5-1.5c-0.3-0.4-0.5-0.8-0.7-1.2c-0.4-0.5-0.3-0.8-1.1-0.6c-0.5,0.1-0.6,0.2-1,0.2c-0.9,0-1.1,0.6-1.8,0.9
			c-0.8,0.3-1.8,0.2-2.6,0.3c-1,0.1-1,0.9-1.5,1.5c-0.5,0.7-1.2,0.8-1.1,1.7c0.1,0,0.2,0,0.3,0c-0.1,0.2-0.2,0.4-0.3,0.7
			c0.4,0.1,0.9,0.4,1.2,0.7c0.4,0.5,0.2,1,0.3,1.6c0.1,0.4,0,1,0.2,1.5c0.2,0.7,0.5,1.4,0.7,2.1c0.3,1.1,0.4,2.2,0.8,3.2
			c0.3,0.7,0.6,1.5,1,2.1l9.5,0V47.1C47.7,46.9,47.3,46.7,47,46.4z"/>
		<g id="Trees">
			<path id="Trees_Light" fill="#86CE74" d="M40.4,41.7c0.3,0.4-0.2,1.2-0.4,1.5C39.3,44,38.7,43.4,38,43c-0.4-0.3-0.4-0.2-0.8-0.1
				c-0.3,0.1-0.3,0.1-0.6,0.3c-0.1,0.1-0.2,0.1-0.3,0.1c0,0.2,0.1,0.4,0,0.6c-0.1,0.2-0.3,0.3-0.4,0.4c-0.1,0.2,0,0.4-0.2,0.6
				c-0.5,0.7-2,0.1-1.7,1.5c0,0,0.1,0,0.1,0c0,0.1,0,0.2,0,0.3c0.5,0.2,1.3,0.1,1,0.9c0.1,0,0.2,0.1,0.4,0.1c0,0.2,0,0.4,0.1,0.5
				c0.1,0.1,0.2,0,0.3,0.3c0.1,0.2-0.1,0.5-0.1,0.7c0.1,0.2,0.1,0.4,0,0.6c-0.1,0.3-0.3,0.5-0.2,0.9c0.1,0.4,0.4,0.7,0.4,1.1
				c0,0.5-0.8,1.5-1.1,1.9c-0.3,0.3-0.5,0.4-0.9,0.7c-0.7,0.5-0.6,0.4-1.1-0.1c-0.3-0.3-0.5-0.3-0.9-0.4c0-0.3,0.2-0.7,0.1-0.9
				c-0.1-0.3-0.3,0-0.5-0.2c-0.3-0.3-0.1-0.7-0.5-1.1c-0.3-0.3-0.6-0.5-0.9-0.7c-0.6-0.6-0.6-1.6-0.5-2.4c-0.1-0.5-0.2-1.1-0.2-1.5
				c0-0.6,0.2-1,0.6-1.4c0.6-0.7,1.1-0.5,1.9-0.5c0-0.3-0.3-0.5-0.3-0.8c0-0.2,0.4-0.4,0.1-0.6c0-0.5,0.5-0.6,0.9-0.6
				c0.2,0,0.4,0.1,0.6,0c0.2-0.1,0.4-0.4,0.2-0.6c0.1,0,0.2,0,0.3,0c0.1-0.4-0.3-0.4-0.5-0.5c0-0.2,0.4-0.3,0.6-0.3
				c0-0.1,0.1-0.1,0.1-0.2c0.3,0,0.6-0.3,0.6-0.7c-0.1-0.4-0.4-0.4-0.7-0.5c0.3-0.2,0.5-0.3,0.8-0.4c0,0,0-0.1,0-0.1
				c0.4,0.1,0.1,0.6,0.3,0.7c0.3,0.2,0.4-0.2,0.5-0.3c0.1-0.1,0.6-0.1,0.7-0.3c0.3-0.4-0.1-0.3-0.3-0.6c-0.1-0.2,0.1-0.9,0.3-1.1
				c0.1-0.2,0.4-0.3,0.5-0.4c0.3-0.2,0.4-0.4,0.8-0.4c0,0.3-0.1,0.9,0.3,0.9c0,0.1,0,0.3,0,0.4c0.2,0.1,0.3,0.1,0.5,0
				c0.1,0.5,1.6-0.3,0.9,1c0.3,0.1,0.7,0.3,0.7,0.7c0,0.3-0.3,0.5-0.2,0.8C40,41.6,40.3,41.5,40.4,41.7z M15.1,12.6
				C15.1,12.6,15,12.6,15.1,12.6C15,12.6,15.1,12.6,15.1,12.6z M25.5,12.4c0.1,0.1,0.2,0.1,0.2,0.2C25.7,12.5,25.6,12.4,25.5,12.4z
				 M47.8,44.1c-0.3-0.4-0.5-0.7-1-1c-0.3-0.2-0.8-0.3-1-0.6c-0.1-0.2,0-0.5-0.1-0.8c-0.1-0.2-0.4-0.2-0.5-0.4
				c-0.2-0.2-0.1-0.6-0.2-0.9c-0.2-0.4-0.7-0.8-1-1.2c-0.3-0.3-0.5-0.3-0.8-0.6c-0.2-0.1-0.2-0.3-0.3-0.5c-0.1-0.2-0.4-0.2-0.5-0.3
				c-0.4-0.4-0.4-0.8-0.5-1.3c-0.1-0.4-0.3-0.6-0.2-1c0.1-0.5,0.6-0.8,0.6-1.3c0-0.3-0.1-0.4-0.1-0.8c0-0.1,0-0.3,0-0.5
				c-0.1-0.3-0.4-0.2-0.5-0.4c-0.3-0.3-0.3-0.5-0.6-0.7c-0.4-0.2-0.7-0.2-1.1-0.2c0.1-1.1-1.4-0.2-1.8-0.2c0-0.4,0.3-0.7,0.2-1.1
				c-0.1-0.6-0.6-0.4-0.9-0.6c-0.7-0.4-0.4-1.3-1.5-1.2c0-0.4-0.1-0.8-0.4-1.1c-0.2-0.2-0.4-0.2-0.5-0.5c-0.1-0.2,0.1-0.6-0.1-0.8
				c-0.2-0.4-0.9-0.3-1.1-0.7c-0.1-0.3,0-1.1-0.1-1.4c0-0.5,0-0.9-0.3-1.2c-0.2-0.2-0.4-0.3-0.6-0.6c-0.2-0.3-0.4-0.7-0.6-1
				c-0.1-0.1-0.8-0.8-1-0.5c-0.1,0.2,0.2,0.3,0.2,0.4c0.1,0.8-0.8,0.5-1.1,0.9c0.3,0.2-0.1,0.4-0.4,0.5c0,0.3,0.2,0.4,0.2,0.7
				c0,0.2-0.1,0.4-0.1,0.6c-0.2,0-0.4,0-0.6,0c-0.2,0-0.4,0.1-0.7,0.1c-0.3,0-0.6-0.2-1-0.3c-0.3,0-0.5,0-0.9-0.1
				c-0.6-0.1-1,0.1-1.6,0.1c-0.4,0-0.7-0.3-1.1-0.2c-0.2,0-0.4,0.2-0.6,0.2c-0.1,0-0.4,0-0.5,0c-0.1-0.1-0.1-0.3-0.2-0.3
				c-0.1-0.1-0.3,0-0.5-0.1c-0.1-0.1-0.1-0.2-0.2-0.3c-0.5-0.4-0.9,0.5-1.5,0.2c-0.2-0.1-0.2-0.4-0.4-0.5c0,0-0.1,0-0.2,0
				c0.1-0.5,0.6-1.1,1-1.3c-0.1,0-0.1,0-0.2-0.1c0.2-0.6,1.1-0.1,1.2-0.8c-0.5-0.2-0.1-0.8,0.3-0.8c-0.1-0.1-0.1-0.1-0.1-0.1
				c0.3-0.1,0.5-0.2,0.7-0.4c-0.1-0.2-0.4-0.4-0.2-0.7c-0.5-0.3,0.6-0.5,0.7-0.7c0.2-0.3,0.1-0.6,0.2-0.9c0.1-0.6,0.3-0.9,0.9-0.4
				c0.2,0.2,0.1,0.4,0.4,0.6c0.2,0.1,0.4,0,0.6,0.1c0,0,0,0.1,0,0.1c0.6,0,0.3,0.4,0.2,0.7c-0.2,0.3-0.1,0.4,0,0.8
				c0.1,0.3,0.3,0.6,0.3,0.8c0.1,0.3-0.1,0.4-0.2,0.8c0.4,0.3,0.9,0.4,1.4,0.5c0.5,0,0.9,0,1,0.6c0.7-0.1,0.4,1.1,1,0.5
				c0.3-0.3,0-0.8-0.4-0.9c0.1-0.2,0.1-0.7-0.2-0.7c0-0.2,0.1-0.5,0-0.7c-0.3-0.1,0.1-0.4-0.1-0.7c-0.1-0.1-0.3,0.1-0.3,0
				c-0.2-0.2,0-0.1,0-0.4c0-0.4,0-0.6,0.2-1c0.1-0.2,0.2-0.5,0.2-0.6c0.1-0.1,0.3-0.3,0.4-0.4c0.1-0.1,0.3-0.4,0-0.5
				c-0.2,0-0.2,0.3-0.3,0.3c-0.3,0-0.1-0.1-0.2-0.2c0,0,0-0.2,0-0.2c-0.1-0.1-0.2,0-0.2-0.1c-0.3-0.2-0.7-0.2-1-0.4c0,0-0.1,0-0.2,0
				C27,15.1,27,15,27,15c-0.1-0.1-0.2-0.2-0.3-0.2c0-0.4,0.7-0.4,0.8-0.8c-0.3-0.2-0.4-0.3-0.8-0.2c0.1-0.6-0.4-0.2-0.6-0.4
				c-0.2-0.2,0-0.2,0-0.3c-0.1-0.2-0.2-0.4-0.3-0.6c0.1,0.2,0,0.5-0.3,0.5c0-0.8-1.2-0.8-1.8-0.9c0.1,0,0.3-0.2,0.2-0.3
				c-0.2-0.3-0.4-0.2-0.8-0.1c-0.3,0-0.8,0.4-1.1,0.3c0-0.1,0-0.2,0-0.3c-0.3-0.1-0.5-0.1-0.8-0.1c0,0,0.1,0,0.1,0.1
				c0.1,0.5-0.4,0.5-0.7,0.3c-0.3,0.4-0.5-0.1-0.8-0.1c-0.2,0-0.3,0.1-0.4,0.1c-0.1,0-0.2-0.1-0.4-0.1c-0.3,0-1.3-0.3-1.3,0.2
				c-0.4-0.1-0.6,0.2-1,0.3c-0.8,0.4-0.4-0.3-1.1-0.3c0-0.2-0.1-0.3-0.3-0.2c0.1,0.2-0.1,0.4-0.3,0.4c0.5,0,0,0.7-0.3,0.8
				c-0.3,0.1-0.4-0.1-0.6,0.2c-0.1,0.2,0,0.4,0,0.6c0,0-0.1,0-0.2,0c0.1,0.3-0.1,0.4-0.4,0.5c0.1,0,0.3,0,0.4,0c0.1,0.3,0,0.4,0,0.7
				c0,0.2,0.1,0.6,0,0.8c-0.1,0-0.3,0-0.4,0c-0.1,0.1-0.1,0.3-0.2,0.4c-0.1-0.1-0.3-0.2-0.5-0.1c0.1,0,0.1,0.1,0.2,0.1
				c0,0.1,0,0.2,0,0.3c-0.1,0-0.1,0-0.2,0c-0.3,0.4,0.2,0.8,0.6,0.7c0,0.1,0,0.2,0,0.2c0.2,0,0.4,0,0.6,0c-0.1,0.6,0,0.7,0.6,0.7
				c0-0.1,0.1,0,0.1,0.2c0.2-0.1,0.7-0.3,0.8-0.6c0.1-0.3,0-0.2,0-0.5c0-0.1,0.1-0.4,0.1-0.6c0-0.2-0.3-0.5,0-0.7
				c0.1-0.1,0.5,0,0.6-0.2c-0.3-0.1-0.2-0.5,0.1-0.7c0.4-0.2,0.5,0,0.7,0.2c0.3,0.3,0.7,1.4,1.2,1.2c0.3-0.1,0.4-1.1,0.7-1.1
				c0.4,0,0,0.7,0.1,0.8c0.1,0.3,0.6,0.3,0.6,0.6c0.1,0.6-1,0.3-1.3,0.5c0.4,0.4,1.1,0.5,1.4,1c-0.1,0.1-0.3,0.1-0.4,0.3
				c0.2,0.4,0.6,0.7,0.1,1.2c-0.5,0.5-1.5,0.4-1.7,1.1c0.3,0.1,0.8,0.3,0.8,0.7c-0.1,0.1-0.3,0.2-0.4,0.2c0.1,0.4,0,0.7-0.5,0.7
				c-0.1,0.3-0.6,0.2-0.8,0.5c-0.4-0.2-0.9-0.5-0.9,0.1c-0.1,0-0.8,0.2-1,0.4c0.7,0.3-0.7,0.8-0.8,0.9c-0.5,0.3-1.1,0.6-1.7,0.1
				C12.4,25,12.3,25,12.1,25c-0.2,0-0.3-0.1-0.5-0.1c0.1,0-0.4,0.2-0.4,0.2c-0.2,0.2-0.3,0.4-0.4,0.6c0,0.1,0,0.2-0.1,0.3
				c-0.1,0.1-0.2,0.1-0.3,0.2c-0.1,0.2,0.1,0.4,0.2,0.7C10.4,26.9,10,27,9.8,27c-0.2,0-0.6,0-0.8,0.1c0.1,0.1,0,0.2,0.2,0.3
				c-0.4,0.3-0.3,0.5-0.5,0.8c-0.2,0.2-0.4,0.1-0.5,0.3c0,0,0.1,0.2,0,0.3C8,29.1,8,29,7.7,29.2c0,0-0.2,0-0.3,0
				c-0.3,0.1-0.7,0.7-0.7,1c0,0.4,0.5,0.5,0.7,0.5c0.2,0,0.8,0,1-0.1c0.2,0,0.5-0.1,0.7-0.2c0.6-0.4,0.3-0.3,0.9,0
				c0.2-0.6,1.2-0.7,1.7-0.5c0.2-0.6,1.1-0.2,1.5-0.2c0.3,0,0.9-0.2,1.1-0.4c0.1-0.1,0.1-0.2,0.1-0.2c0.2-0.1,0.1-0.1,0.3-0.2
				c0.1,0,0.2,0.1,0.3,0.1c0.1-0.1,0.2-0.4,0.3-0.4c0.1-0.1,0.5-0.2,0.7-0.3c0.4-0.1,0.8-0.1,0.8-0.5c0.2-0.1,0.5-0.2,0.7-0.3
				c0.1,0,0.1-0.1,0.2-0.1c0,0,0,0,0,0c0.3-0.2,0.6-0.4,0.8-0.4c0.2,0,0.3,0.2,0.6,0.2c0.2,0,0.4-0.2,0.5-0.3
				c0.2-0.1,0.3-0.1,0.5-0.1c0.2,0,0.5-0.1,0.7-0.2c0.2-0.1,0.2-0.3,0.4-0.4c0.3-0.1,1.2,0.1,1.5,0.2c0.3,0.1,0.5,0.3,0.8,0.5
				c0.4,0.3,0.5,0.3,0.6,0.8c0.1,0.6-0.1,1.2-0.1,1.9c0,1.3,0.2,2.5,0.2,3.8c0.5,0.6,0.8-0.3,1.1-0.6c0.2-0.3,0.8-0.7,1.1-0.6
				c0.4,0.2,0.7,1,1,1.4c0-0.1,0.2-0.2,0.2-0.2c0.4,0.2,0.7,0.7,1.2,0.8c0,0.4,0.8,0.8,1.2,0.6c0.2-0.1,0.2-0.3,0.4-0.5
				c0.3-0.3,0.2,0,0.5-0.1c0.4-0.1,0.5-0.5,0.7-0.9c0.1-0.2,0.1-0.5,0.3-0.6c0.3-0.2,0.9,0.3,1.2,0.3c0,0.1,0,0.2,0,0.2
				c0.3,0,0.6,0.3,1,0.2c0-0.2,0.1-0.3,0.2-0.5c0.1,0,0.2,0,0.2,0.1c0-0.1,0-0.3,0-0.4c0.7,0.3,1.1,1,1.8,1.4
				c0.3,0.1,0.1,0.2,0.5,0.1c0.2-0.1,0.6-0.5,0.7-0.7c0.2-0.2,0.2-0.6,0.5-0.8c0.5,0.7,1.5,0.8,1.9,1.6c0.1,0.1,0,0.3,0.1,0.5
				c0.1,0.1,0.3,0.3,0.4,0.5c0.4,0.6,0.7,0.8,0.5,1.4c-0.2,0.6-0.2,0.8,0,1.4c0.2,0.5,0.1,1.1,0.1,1.7c0,0.6,0.2,0.9,0.4,1.4
				c0.1,0.3,0.1,0.4,0.3,0.6c0.2,0.2,0.6,0.6,0.9,0.6c0.2,0,0.4-0.3,0.7-0.1c0.1,0.1,0.1,0.4,0.2,0.5c0.1,0.2,0.3,0.3,0.4,0.5
				c0.2,0.6-0.2,0.8,0.4,1c0.1,0,0.3,0,0.4,0.1c0.3,0.2,0.3,0.4,0.3,0.8c0.1,0.3,0.2,0.4,0.4,0.7c0.3,0.5,0.4,1,0.9,1.4
				c0.4,0.3,0.8,0.6,1.3,0.4c0.2,0.4,0.4,0.8,0.6,1.1v-4.1C48,44.4,47.9,44.3,47.8,44.1z"/>
			<path id="Trees_Shadow" fill="#76A474" d="M13.1,16.8c0-0.1,0-0.2,0-0.3c-0.1,0-0.1-0.1-0.2-0.1c0.2,0,0.4,0,0.5,0.1
				c0.1-0.1,0.2-0.3,0.2-0.4c0.1,0,0.3,0,0.4,0c0.1-0.2,0-0.6,0-0.8c0-0.2,0.1-0.4,0-0.7c-0.1,0-0.3,0-0.4,0
				c0.3-0.1,0.4-0.2,0.4-0.5c0,0,0.1,0,0.2,0c0-0.1,0-0.2,0-0.4c0.7,0.5,0.3,1.3,0.3,2c0.6-0.1,0.9-3,1.8-1.6
				c0.5-0.5,0.7-0.2,1.1-0.2c0.2,0,0.3,0.1,0.5,0c0.1,0,0.1-0.4,0.2-0.4c0.6-0.2,0.6,0.3,0.8,0.7c0.3,0.5,0.3,0.5,0.9,0.6
				c-0.1,0.3-0.2,1,0.2,1.1c0-0.1,0-0.2,0-0.3c0.1,0,0.1,0,0.2,0.1c-0.3,0.4,0.1,0.9-0.4,1.2c0.1,0.1,0,0.2,0.1,0.3
				c-0.3,0.1-0.6,0.2-0.8,0.1c0.3,0,0.7-0.1,0.7-0.4c0-0.3-0.5-0.3-0.6-0.6c-0.1-0.2,0.4-0.8-0.1-0.8c-0.3,0-0.4,0.9-0.7,1.1
				c-0.5,0.2-0.9-0.9-1.2-1.2c-0.2-0.2-0.3-0.4-0.7-0.2c-0.2,0.1-0.4,0.5-0.1,0.7c-0.1,0.2-0.4,0.1-0.6,0.2c-0.2,0.3,0,0.5,0,0.7
				c0,0.2-0.1,0.5-0.1,0.6c0,0.2,0.1,0.2,0,0.5c-0.1,0.2-0.6,0.5-0.8,0.6c-0.1-0.1-0.1-0.3-0.1-0.2c-0.6,0-0.7-0.1-0.6-0.7
				c-0.2,0-0.4,0-0.6,0c0-0.1,0-0.2,0-0.2c-0.4,0.1-0.9-0.3-0.6-0.7C13,16.8,13.1,16.8,13.1,16.8z M40,41.4c0-0.1,0-0.2,0-0.3
				c0,0-0.1,0-0.1,0c-0.7,0.1-0.5,0.2-1,0.7c-0.8,0.9-0.9-0.2-1.5-0.2c-0.1,0-0.4,0.4-0.5,0.4c-0.2,0.1-0.5,0.1-0.8,0.3
				c-0.1,0.1-0.8,0.8-0.9,0.9c-0.2,0.4,0.1,0.7-0.5,1.1c-0.7,0.4-1.1,0.2-1.4,1c-0.2,0.4,0,0.8-0.2,1.3c-0.1,0.3-0.5,0.4-0.5,0.7
				c-0.1,0.2,0.1,0.5,0.1,0.7c-0.2,1-1.2,0.9-1.5,0c-0.1-0.3-0.2-0.8-0.2-1c0.1-1.2,2.3-1.9,2.3-2.9c-0.1,0-0.3,0-0.4,0
				c0-0.3,0.1-0.5,0.3-0.6c0.1,0.1,0,0.1,0.1,0.1c0.4-0.1,1-0.4,1.4-0.3c0-0.3,0.1-0.6,0.3-0.9c-0.1,0-0.2,0-0.3,0
				c0-0.2,0-0.4,0.1-0.5c0.2,0,0.5-0.1,0.6-0.2c0,0-0.1,0-0.1-0.1c0-0.2,0.2-0.4,0.2-0.6c0-0.2-0.2-0.6,0-0.8c0-0.2,0-0.3-0.2-0.4
				c0,0,0,0.1,0,0.1c-0.3,0-0.6,0.2-0.8,0.4c0.3,0.1,0.6,0.1,0.7,0.5c0,0.3-0.3,0.7-0.6,0.7c0,0.1-0.1,0.1-0.1,0.2
				c-0.2,0-0.6,0.1-0.6,0.3c0.3,0.1,0.7,0.1,0.5,0.5c-0.1,0-0.2,0-0.3,0c0.2,0.2,0,0.5-0.2,0.6c-0.2,0.1-0.4,0-0.6,0
				c-0.2,0-0.3,0-0.5,0.1c-0.1,0.1-0.2,0.2-0.4,0.2c0,0.1-0.1,0.2-0.1,0.3c0.4,0.2,0,0.3-0.1,0.6c0,0.3,0.2,0.5,0.3,0.8
				c-0.8,0-1.4-0.2-1.9,0.5C30,46,29.7,46.4,29.8,47c0,0.5,0.1,1.1,0.2,1.5c-0.1,0.8-0.1,1.8,0.5,2.4c0.3,0.3,0.6,0.4,0.9,0.7
				c0.3,0.4,0.2,0.8,0.5,1.1c0.2,0.2,0.4-0.1,0.5,0.2c0.1,0.2-0.2,0.7-0.1,0.9c0.4,0.1,0.6,0.1,0.9,0.4c0.5,0.5,0.4,0.6,1.1,0.1
				c0.3-0.2,0.6-0.4,0.9-0.7c0.3-0.4,1.1-1.4,1.1-1.9c0-0.4-0.4-0.7-0.4-1.1c0-0.3,0.2-0.6,0.2-0.9c0-0.2,0.1-0.4,0-0.6
				c0-0.2,0.2-0.5,0.1-0.7c-0.1-0.3-0.3-0.2-0.3-0.3c-0.1-0.2-0.1-0.3-0.1-0.5c-0.1,0-0.2-0.1-0.4-0.1c0.3-0.8-0.5-0.7-1-0.9
				c0-0.1,0-0.2,0-0.3c0,0-0.1,0-0.1,0c-0.3-1.4,1.2-0.8,1.7-1.5c0.1-0.2,0.1-0.4,0.2-0.6c0.1-0.2,0.3-0.2,0.4-0.4
				c0-0.2-0.1-0.4,0-0.6c0.1,0,0.2,0,0.3-0.1c0.3-0.2,0.3-0.2,0.6-0.3c0.4-0.1,0.4-0.2,0.8,0.1c0.7,0.4,1.2,1,1.9,0.2
				c0.3-0.3,0.7-1,0.4-1.5C40.3,41.5,40,41.6,40,41.4z M24.5,16.6c0.2,0.2,0.1,0.4,0.4,0.6c0.2,0.1,0.4,0,0.6,0.1c0,0,0,0.1,0,0.1
				c0.6,0,0.3,0.4,0.2,0.7c-0.2,0.3-0.1,0.4,0,0.8c0.1,0.3,0.3,0.6,0.3,0.8c0.1,0.3-0.1,0.4-0.2,0.8c0.4,0.3,0.9,0.4,1.4,0.5
				c0.5,0,0.9,0,1,0.6c0.7-0.1,0.4,1.1,1,0.5c0.3-0.3,0-0.8-0.4-0.9c0.1-0.2,0.1-0.7-0.2-0.7c0-0.2,0.1-0.5,0-0.7c0,0,0,0,0,0
				c0,0,0,0,0,0c-0.2-0.1-0.1-0.2,0-0.4c0-0.1-0.1-0.2-0.2-0.3c-0.1,0-0.2,0-0.2,0c0,0,0,0,0,0c0,0,0,0.1-0.1,0.1
				c0,0.1,0.4,0.5,0.3,0.9c-0.2-0.2-0.3-0.1-0.5-0.2c0.1,0.1,0.1,0.4,0.2,0.5c-0.2-0.1-0.4-0.2-0.7-0.3c0,0,0.2,0.2,0.2,0.2
				c-0.1,0-0.2,0-0.3,0c0-0.1,0-0.3,0-0.4c0,0-0.1,0-0.2,0c0.1-0.2,0.1-0.5-0.1-0.6c0,0.7-1,0.2-0.5-0.5c-0.7,0-0.1-0.5-0.1-0.8
				c0.1-0.4-0.2-1.2-0.7-1.3c-0.4-0.1-0.7,0.2-1.1,0.1c-0.1,0,0-0.3-0.2-0.4c-0.2,0-0.5,0-0.6,0c0,0.1,0,0.1,0,0.2c0,0,0,0,0,0.1
				C23.9,16.3,24.2,16.3,24.5,16.6z M48.1,47.3c-0.2,0-0.3,0-0.5-0.1c-0.1,0,0-0.2-0.1-0.3c0,0-0.3-0.2-0.3-0.3
				c-0.1-0.1-0.3,0-0.4,0c-0.4-0.2-0.2-0.3-0.4-0.8c-0.2-0.6-0.7-1-1-1.5c-0.2-0.5-0.3-1.2-0.7-1.6c-0.2-0.2-0.5-0.3-0.7-0.5
				c-0.2-0.1-0.5-0.4-0.8-0.5c-0.3-0.2-0.7-0.7-0.9-0.1c-0.7,0.1-0.4-0.4-0.5-0.7c-0.3-0.6-0.4-0.6-0.3-1.4c0.1-0.6-0.1-0.6-0.1-1.2
				c-0.1-0.7,0.3-1.5,0.2-2.2c-0.1-0.5-0.2-0.5-0.4-0.9c-0.1-0.3-0.1-0.6-0.2-0.9c-0.2-0.6-0.5-0.8-1.1-1.2
				c-0.2-0.1-0.4-0.2-0.5-0.3c-0.2-0.1-0.1-0.5-0.3-0.6c-0.5-0.3-1.3,0.2-1.6-0.6c0,0.1,0,0.3,0,0.4c-0.3,0-0.6-0.1-0.9-0.1
				c0,0.2,0,0.5,0,0.7c-0.3,0.1-0.6-0.1-0.9-0.2c0,0.1,0,0.2,0,0.3c-1,0-1-1.2-2-1.2c0.1,0.1,0.1,0.2,0.1,0.3
				c-0.5-0.3-0.7-0.8-1.4-0.6c0-0.5-0.4-0.9-0.8-1.2c-0.2-0.4,0.6-0.5,1-0.6c-0.4-0.3-1.5-0.3-1.4-1.2c0,0,0.2,0,0.2,0
				c-0.5,0-0.5-0.5-0.7-0.8c-0.2-0.3-0.3,0-0.5-0.4c0-0.1,0.1-0.5,0.1-0.6c-0.3,0-0.6,0-0.8-0.1c0.3-0.5,1-0.1,1.4-0.6
				c-0.2-0.1-0.6,0-0.8-0.1c-0.1-0.1,0.1-0.5,0-0.6c-0.2-0.2-1-0.4-1.3-0.5c-0.8-0.3-1.6-0.1-2.4-0.2c0,0,0,0.1,0.1,0.1
				c0.4,0.3,0.7,0.1,1.2,0c-0.1,0.3,0.1,0.2-0.3,0.3c0.1,0,0.4,0.1,0.5,0.1c-0.1,0.1-0.1,0.3-0.1,0.4c0.5,0.3,1.3-0.1,1.7,0.3
				c-0.2,0.2-0.6,0.4-0.8,0.7c0.2,0,0.3,0,0.5-0.1c-0.1,0.2-0.2,0.4-0.3,0.6c0.4,0.1,1.4,0.2,0.9,0.8c0.2,0.2,0.1,0.5-0.1,0.6
				c0.2,0.2,0.2,0.3,0.3,0.5c-0.2,0.1-0.1,0.2-0.3,0.3c0.6,0,1-0.2,0.8,0.6c0.1,0,0.2,0,0.3,0c0.3,0.4,0.7,0.8,0.6,1.2
				c0,0-0.1,0.1-0.1,0.1c1.1,1.3-0.9,0.4-1.4,0.1c0.6,0.6-0.5,0.6-0.9,0.5c0-0.4,0.2-0.7,0.1-1.1c-0.8,0-0.2-1.3-1-1
				c0.3,0.3,0.7,1.4,0.1,1.7c-0.1,0.1-0.8-0.2-0.8-0.2c-0.1-0.2,0.1-0.8,0.1-1c-0.3-0.1-1-0.2-1.3-0.1c-0.3,0.1-0.2,0.2-0.3,0.3
				c-0.2,0.2-0.2,0.5-0.7,0.4c0,0,0-0.1,0-0.2c-0.1,0-0.3,0-0.4,0c0-0.6,0.3-0.5,0.4-0.9c0.1-0.3,0.2-0.8,0.3-1.1
				c0.2-0.8-0.2-0.5-0.5-1.1c-0.2-0.4,0.3-1,0.3-1.5c-0.3-0.1-0.6,0-0.9-0.1c0.4-0.5-0.9-1.1-0.7-0.1c-0.4,0-0.5-0.3-0.8-0.5
				c-0.3-0.1-0.7-0.2-1-0.3c-0.5-0.2-1.6-0.5-2-0.4c-0.6,0.1-0.3,0.4-0.8,0.7c-0.3,0.2-0.9,0-1.2,0c-0.4,0-1-0.1-1.4,0.3
				c-0.4,0.3-0.3,1-1.1,0.8c0-0.1,0.1-0.1,0.1-0.2c-0.6,0.1-1,0-1.4,0.4c-0.4,0.3-0.2,0.6-0.9,0.6c-0.2-0.2-0.8-0.1-0.6,0.3
				c-0.3,0.5-0.1,0.8-0.9,0.6c-0.4-0.1-0.7-0.6-1.1-0.2c-0.7-0.6-1.5-0.6-1.3,0.5c-0.2,0.1-1,0.1-1.2,0.2c0,0-0.1,0.1-0.1,0.1
				C8,29,8,29,8,29c-0.1,0.1,0,0.3-0.1,0.4c-0.2,0.3-0.6,0.4-1,0.4c0,0,0,0,0,0c0,0.1-0.1,0.2-0.1,0.3c0,0.4,0.5,0.5,0.7,0.5
				c0.2,0,0.8,0,1-0.1c0.2,0,0.5-0.1,0.7-0.2c0.6-0.4,0.3-0.3,0.9,0c0.2-0.6,1.2-0.7,1.7-0.5c0.2-0.6,1.1-0.2,1.5-0.2
				c0.3,0,0.9-0.2,1.1-0.4c0.1-0.1,0.1-0.2,0.1-0.2c0.2-0.1,0.1-0.1,0.3-0.2c0.1,0,0.2,0.1,0.3,0.1c0.1-0.1,0.2-0.4,0.3-0.4
				c0.1-0.1,0.5-0.2,0.7-0.3c0.4-0.1,0.8-0.1,0.8-0.5c0.2-0.1,0.5-0.2,0.7-0.3c0.1,0,0.1-0.1,0.2-0.1c0,0,0,0,0,0
				c0.3-0.2,0.6-0.4,0.8-0.4c0.2,0,0.3,0.2,0.6,0.2c0.2,0,0.4-0.2,0.5-0.3c0.2-0.1,0.3-0.1,0.5-0.1c0.2,0,0.5-0.1,0.7-0.2
				c0.2-0.1,0.2-0.3,0.4-0.4c0.3-0.1,1.2,0.1,1.5,0.2c0.3,0.1,0.5,0.3,0.8,0.5c0.4,0.3,0.5,0.3,0.6,0.8c0.1,0.6-0.1,1.2-0.1,1.9
				c0,1.3,0.2,2.5,0.2,3.8c0.5,0.6,0.8-0.3,1.1-0.6c0.2-0.3,0.8-0.7,1.1-0.6c0.4,0.2,0.7,1,1,1.4c0-0.1,0.2-0.2,0.2-0.2
				c0.4,0.2,0.7,0.7,1.2,0.8c0,0.4,0.8,0.8,1.2,0.6c0.2-0.1,0.2-0.3,0.4-0.5c0.3-0.3,0.2,0,0.5-0.1c0.4-0.1,0.5-0.5,0.7-0.9
				c0.1-0.2,0.1-0.5,0.3-0.6c0.3-0.2,0.9,0.3,1.2,0.3c0,0.1,0,0.2,0,0.2c0.3,0,0.6,0.3,1,0.2c0-0.2,0.1-0.3,0.2-0.5
				c0.1,0,0.2,0,0.2,0.1c0-0.1,0-0.3,0-0.4c0.7,0.3,1.1,1,1.8,1.4c0.3,0.1,0.1,0.2,0.5,0.1c0.2-0.1,0.6-0.5,0.7-0.7
				c0.2-0.2,0.2-0.6,0.5-0.8c0.5,0.7,1.5,0.8,1.9,1.6c0.1,0.1,0,0.3,0.1,0.5c0.1,0.1,0.3,0.3,0.4,0.5c0.4,0.6,0.7,0.8,0.5,1.4
				c-0.2,0.6-0.2,0.8,0,1.4c0.2,0.5,0.1,1.1,0.1,1.7c0,0.6,0.2,0.9,0.4,1.4c0.1,0.3,0.1,0.4,0.3,0.6c0.2,0.2,0.6,0.6,0.9,0.6
				c0.2,0,0.4-0.3,0.7-0.1c0.1,0.1,0.1,0.4,0.2,0.5c0.1,0.2,0.3,0.3,0.4,0.5c0.2,0.6-0.2,0.8,0.4,1c0.1,0,0.3,0,0.4,0.1
				c0.3,0.2,0.3,0.4,0.3,0.8c0.1,0.3,0.2,0.4,0.4,0.7c0.3,0.5,0.4,1,0.9,1.4c0.4,0.3,0.8,0.6,1.3,0.4c0.2,0.4,0.4,0.8,0.6,1.1V47.3z
				 M26.3,24.3c0.1,0,0.2,0.1,0.3,0.1C26.4,24.2,26.3,24.2,26.3,24.3z"/>
		</g>
	</g>
	<path id="Staute_Shadow" fill="#B1D5E5" d="M24.2,3.6c-0.1,0-0.3,0-0.4,0l-2,0c0,0,0.1-0.1,0.1-0.1c-0.1-0.2-0.3-0.1-0.4-0.1
		c-0.1,0-0.2,0-0.3,0c0-0.2,0.1-0.3,0.1-0.5c0-0.9-0.4-1.6-1-1.6c-0.5,0-1,0.7-1,1.6c0,0.2,0,0.4,0.1,0.6l-0.2,0l-3,0.9h-0.7
		c-0.1,0-0.2,0.1-0.2,0.2c0,0.1,0.1,0.3,0.3,0.2l0.7,0l0.7,1.5l1.7,0.2c0.4,0,0.8,0.4,0.8,0.9l0,4.8l2.5,1.9V7
		c0-0.4,0.2-0.7,0.6-0.8l1.6-0.6l0.1-1.4c0,0,0,0,0,0c0.4,0,0.8-0.1,0.8-0.3C25,3.7,24.6,3.6,24.2,3.6z"/>
	<path id="Statue_Light" fill="#DEF2F9" d="M20,7.1l0.1,0.4v5.1l-0.2-0.1l0-5L20,7.1z M20.3,7.6l-0.1,5.3l0.2,0.2l0-5.4l-0.1-0.3
		L20.3,7.6z M16.9,4.6l-0.1-0.3l-0.6,0.2c0,0,0.4,1.1,0.5,1.4s0.3,0.3,0.3,0.3l1.6,0.1l0.3-0.9c0,0-1-0.3-1.2-0.4
		C17.3,4.9,16.9,4.6,16.9,4.6z M19.6,7l-0.1,0.3l0,4.9l0.3,0.2l-0.1-5.1L19.6,7z M21.1,7.9L21,13.3l0.3,0.2l0-5.6l-0.1-0.3L21.1,7.9
		z M21.8,7.9c0-0.1-0.1-0.2-0.2-0.2c-0.1,0-0.2-0.1-0.3-0.1c0,0,0.1,0.1,0.1,0.2c-0.4-0.2-0.7-0.5-1.1-0.6C20,7,19.8,6.9,19.5,6.8
		c-0.1,0-0.2-0.1-0.3-0.2c0-0.1,0-0.3,0-0.4c0-0.1,0-0.3,0-0.4c0-0.2,0-0.4,0-0.6c0,0.2,0,1.5-0.1,1.5c0-0.1,0-0.3,0-0.4
		c0-0.4,0-0.8,0-1.2c0-0.3,0-0.6,0-0.9c0-0.1,0-0.3,0.1-0.4c-0.2,0.5-0.3,1-0.3,1.5c-0.2-0.1-0.3-0.2-0.5-0.2
		c-0.2-0.1-0.5-0.1-0.7-0.2C17.4,4.8,17,4.6,17,4.2c0.1,0,0.3-0.1,0.4-0.1C17.6,4.1,17.8,4,18,4c0.4-0.1,0.8-0.2,1.2-0.4
		c0,0,0,0.1-0.1,0.1c0,0,0-0.1,0.1-0.1c0,0,0,0,0.1,0c0,0,0,0,0,0l0.1,0c0,0.1,0,0.3,0,0.4c0,0.2-0.1,0.4-0.1,0.6c0,0,0.1,0,0.1,0
		c0-0.7,0-1.7,0-1.9c0-0.3,0.1-0.4,0.2-0.6c0-0.1,0.1-0.1,0.1-0.2c0.1-0.3,0.4-0.4,0.5-0.5l0,0c0,0,0,0,0,0l0,0c0,0,0,0,0,0l0,0
		c0,0,0,0,0,0l0,0c0,0,0,0,0,0l0,0c0,0,0,0,0,0l0,0c0,0,0,0,0,0l0,0c0,0,0,0,0,0l0,0c0,0,0,0,0,0l0,0c0,0,0,0,0,0l0,0c0,0,0,0,0,0
		l0,0c0,0,0,0,0,0l0,0c0,0,0,0,0,0l0,0c0,0,0,0,0,0l0,0c0,0,0,0,0,0l0,0c0,0,0,0,0,0l0,0c0,0,0,0,0,0l0,0c0,0,0,0,0,0l0,0
		c0,0,0,0,0,0l0,0c0,0,0,0,0,0l0,0c0,0,0,0,0,0l0,0c0,0,0,0,0,0l0,0c0,0,0.3,0.2,0.4,0.7c0.1,0.5,0,1.3,0,1.3l0,1
		c0.1-0.1,0.1-0.2,0.1-0.3c0-0.1,0-0.3,0-0.4c0-0.1,0-0.3,0-0.4l0.5,0c0,0,0.1,0,0.1,0c0,0,0,0,0,0c0,0-0.1,0.1-0.1,0.1
		c0.5,0,1,0,1.4,0c0.1,0,0.4,0,0.3,0.1c0,0-0.2,0.1-0.2,0.1c-0.1,0-0.3,0.1-0.4,0.1c-0.3,0.1-0.5,0.3-0.7,0.4
		c-0.2,0.1-0.5,0.2-0.7,0.4c-0.1,0-0.2,0.1-0.3,0.1c0,0,0,0.1,0,0.1c0,0.5,0,1,0.1,1.5c0,0.1,0.1,0.3,0.1,0.4
		c0.1,0.1,0.1,0.1,0.2,0.2C21.8,7.2,21.7,7.6,21.8,7.9z M21,2.2C21,2,21,1.9,20.9,1.8C20.9,1.9,21,2,21,2.2c0,0.5,0,1.3,0,1.3
		c0,0,0,0.7,0,1.2c0,0,0,0,0,0l0-1.1C21.1,3.6,21.1,2.7,21,2.2z M21,4.7c0-0.4,0-1.2,0-1.2c0,0,0-0.8,0-1.3c0-0.2-0.1-0.3-0.1-0.5
		c0,0.1,0.1,0.3,0.1,0.4c0,0.5,0,1.2,0,1.3C20.9,3.5,20.9,4.2,21,4.7C20.9,4.7,20.9,4.7,21,4.7z M20.8,3.4c0,0,0,1.1,0,1.5
		c0,0,0,0,0,0C20.8,4.4,20.8,3.5,20.8,3.4c0,0,0.1-0.7,0.1-1.2c0-0.2-0.1-0.4-0.1-0.5c0,0.1,0.1,0.3,0.1,0.5
		C20.8,2.6,20.8,3.3,20.8,3.4z M20.8,4.8C20.8,4.8,20.9,4.8,20.8,4.8C20.9,4.8,20.9,4.8,20.8,4.8c0-0.4,0.1-1.3,0.1-1.3
		c0,0,0-0.8,0-1.3c0-0.2-0.1-0.4-0.1-0.5c0,0.1,0.1,0.3,0.1,0.5c0,0.5,0,1.2,0,1.3C20.9,3.5,20.8,4.3,20.8,4.8z M20.7,1.7
		c0,0.1,0.1,0.3,0.1,0.5c0,0.5,0,1.1,0,1.2c0,0.1,0,1.2,0,1.5c0,0,0,0,0,0c0-0.4,0-1.4,0-1.5c0-0.1,0-0.7,0-1.2
		C20.8,1.9,20.7,1.8,20.7,1.7z M20.5,1.6c0,0.1,0,0.3,0,0.5c0,0.4-0.1,0.8-0.1,1l0,0.1c0,0.1,0,1.4,0,1.7c0,0,0,0,0,0
		c0-0.3,0-1.6,0-1.7c0-0.5,0.1-0.9,0.1-1.1C20.6,1.9,20.6,1.7,20.5,1.6z M20.5,1.6c0,0.1,0,0.2,0,0.5c0,0.3-0.1,0.7-0.1,0.9
		c0,0.1,0,0.1,0,0.2c0,0.1,0,1.4,0,1.8c0,0,0,0,0,0c0-0.3,0-1.6,0-1.7l0-0.1c0-0.2,0.1-0.7,0.1-1C20.5,1.9,20.5,1.7,20.5,1.6z
		 M20.2,3.1c0-0.1,0-0.3,0.1-0.5c0-0.2,0-0.4,0.1-0.6c0-0.2,0-0.4,0.1-0.5c0,0.1,0,0.2-0.1,0.5c0,0.1,0,0.3-0.1,0.4
		C20.2,2.7,20.2,2.9,20.2,3.1c-0.1,0.1-0.1,1.4-0.1,1.9c0,0,0,0,0,0C20.2,4.6,20.2,3.2,20.2,3.1z M20.3,1.6c0,0.1-0.1,0.2-0.1,0.4
		c0,0.1,0,0.2,0,0.2c0,0.3-0.1,0.6-0.1,0.7c0,0.2,0,1.5,0,1.9c0,0,0,0,0,0c0-0.4,0-1.7,0-1.9c0-0.1,0-0.3,0.1-0.6
		c0-0.1,0-0.3,0.1-0.4C20.3,1.8,20.3,1.7,20.3,1.6z M20.3,1.6c0,0.1-0.1,0.2-0.1,0.4l0,0.2C20.1,2.5,20,2.8,20,3c0,0.2,0,1.5,0,2
		c0,0,0,0,0,0c0-0.5,0-1.8,0-1.9c0-0.2,0.1-0.4,0.1-0.7c0-0.1,0-0.2,0-0.2C20.2,1.8,20.3,1.7,20.3,1.6z M20.2,1.6
		c0,0.1-0.1,0.2-0.1,0.4l0,0.1C20,2.4,20,2.7,19.9,2.9c0,0.2,0,1.4,0,2c0,0,0,0,0,0c0-0.5,0-1.8,0-1.9c0-0.2,0.1-0.5,0.1-0.8l0-0.2
		C20.2,1.8,20.2,1.7,20.2,1.6z M20.2,1.6C20.1,1.7,20.1,1.8,20,2l0,0.1c-0.1,0.3-0.1,0.6-0.2,0.8c0,0.2,0,1.4,0,2c0,0,0,0,0,0
		c0-0.5,0-1.8,0-1.9c0-0.2,0.1-0.5,0.1-0.8l0-0.1C20.1,1.8,20.2,1.7,20.2,1.6z M20.2,1.6C20.1,1.7,20,1.8,20,2l0,0.1
		c-0.1,0.3-0.1,0.5-0.2,0.7c0,0.2,0,1.4,0,2c0,0,0,0,0,0c0-0.6,0-1.8,0-1.9c0-0.2,0.1-0.5,0.2-0.8L20,2C20,1.8,20.1,1.7,20.2,1.6z
		 M19.5,4.7C19.5,4.7,19.6,4.7,19.5,4.7c0-0.6,0-1.7,0.1-1.9c0-0.2,0.1-0.4,0.2-0.7c0-0.1,0-0.1,0.1-0.2c0-0.1,0.1-0.2,0.2-0.3
		c-0.1,0.1-0.1,0.2-0.2,0.3c0,0.1,0,0.1-0.1,0.2c-0.1,0.2-0.1,0.4-0.2,0.6C19.5,2.9,19.5,4,19.5,4.7z M19.6,4.7
		C19.6,4.7,19.6,4.7,19.6,4.7c0-0.6,0-1.7,0.1-1.9c0-0.2,0.1-0.4,0.2-0.7c0,0,0-0.1,0-0.1c0-0.1,0.1-0.2,0.2-0.3
		c-0.1,0.1-0.1,0.2-0.2,0.3c0,0.1,0,0.1-0.1,0.2c-0.1,0.2-0.1,0.4-0.2,0.7C19.6,2.9,19.6,4.1,19.6,4.7z M19.7,4.7
		C19.7,4.8,19.7,4.8,19.7,4.7c0-0.6,0-1.7,0.1-1.9c0-0.2,0.1-0.5,0.2-0.8l0-0.1c0-0.2,0.1-0.3,0.2-0.3C20,1.7,20,1.8,19.9,1.9
		c0,0.1,0,0.1,0,0.1c-0.1,0.3-0.1,0.5-0.2,0.7C19.7,3,19.7,4.1,19.7,4.7z M19.5,4.6C19.5,4.6,19.5,4.6,19.5,4.6c0-0.6,0-1.7,0.1-1.9
		c0-0.3,0.1-0.4,0.2-0.6c0-0.1,0-0.1,0.1-0.2c0-0.1,0.1-0.2,0.2-0.3c-0.1,0.1-0.2,0.2-0.2,0.3c0,0.1-0.1,0.1-0.1,0.2
		c-0.1,0.2-0.1,0.3-0.2,0.6C19.5,2.9,19.5,3.9,19.5,4.6z M20.3,5c0-0.4,0-1.7,0-1.8c0-0.1,0-0.2,0-0.3c0-0.2,0.1-0.5,0.1-0.8
		c0-0.2,0-0.4,0-0.5c0,0.1,0,0.2-0.1,0.5c0,0.2,0,0.4-0.1,0.6c0,0.2,0,0.4-0.1,0.5C20.2,3.2,20.2,4.6,20.3,5C20.2,5,20.3,5,20.3,5z
		 M20.3,5c0-0.4,0-1.7,0-1.8c0,0,0-0.1,0-0.2c0-0.2,0.1-0.6,0.1-0.9c0-0.2,0-0.4,0-0.5c0,0.1,0,0.2,0,0.5c0,0.3-0.1,0.5-0.1,0.8
		c0,0.1,0,0.2,0,0.3C20.3,3.3,20.3,4.6,20.3,5C20.3,5,20.3,5,20.3,5z M20.5,4.9C20.6,4.9,20.6,5,20.5,4.9c0-0.3,0-1.5,0.1-1.6
		c0,0,0.1-0.7,0.1-1.2c0-0.2,0-0.4-0.1-0.5c0,0.1,0,0.3,0,0.5c0,0.3,0,0.7-0.1,1.1C20.5,3.4,20.5,4.6,20.5,4.9
		C20.5,4.9,20.5,4.9,20.5,4.9z M21,5.5c0-0.2-0.1-0.3-0.1-0.4c0,0,0-0.1-0.1-0.1l0,0c0,0,0,0,0,0c0,0,0,0,0,0c0,0,0,0.1,0,0.1l0,0
		c0,0,0,0,0-0.1c0,0,0,0,0,0c0,0,0,0,0,0c0-0.4,0-1.5,0-1.6c0-0.1,0-0.7,0-1.2c0-0.2,0-0.4-0.1-0.5c0,0.1,0.1,0.3,0.1,0.5
		c0,0.5-0.1,1.2-0.1,1.2c0,0.1,0,1.5,0,1.7C20.8,5.1,20.9,5.3,21,5.5z M23.7,4.3c0-0.2,0.2-0.6-0.1-0.6c-0.1,0.1-0.1,0.2-0.3,0.3
		C23.2,4,23.1,4,23,4c-0.4,0.2-0.8,0.5-1.2,0.7c-0.1,0.1-0.4,0.2-0.5,0.3c-0.1,0.1-0.1,0.3-0.1,0.4c0,0.4,0,1,0.4,1.2
		c0.2-0.2,0.4-0.4,0.6-0.6c0.3-0.2,0.7-0.3,1.1-0.4c0.3-0.1,0.5-0.1,0.5-0.4C23.7,4.9,23.7,4.6,23.7,4.3z M21.4,8.1l-0.1,5.5
		l0.2,0.3l0-5.7l-0.1-0.3L21.4,8.1z M20.6,7.7l-0.1,5.5l0.2,0.1l0.1-5.6l-0.1-0.2L20.6,7.7z"/>
</g>
</svg>
