<?xml version="1.0" encoding="UTF-8" standalone="no"?>
<svg id="Trees_Container" xmlns="http://www.w3.org/2000/svg" xml:space="preserve" viewBox="0 0 64.4 18" version="1.1" y="0px" x="0px" xmlns:xlink="http://www.w3.org/1999/xlink" enable-background="new 0 0 64.4 18">
<g id="Front_Trees">
		<g fill="#7EB974">
			<path d="m48.2 7.4l0.1 0.1c-0.1 0-0.1-0.1-0.1-0.1z"/>
			<path d="m35.3 0c-0.4 0-0.9-0.1-1.3 0 0.1 0.2 0.4 0.3 0.7 0.4 0.2 0 0.4-0.2 0.6-0.4z"/>
			<path d="m62.8 15.8c0.1-0.1 0.1-0.4 0.2-0.6-0.7 0.1-1.1-0.1-1.7 0.3-0.3-0.5-0.6-0.9-1-1.2 0-0.5 0.3-1.3-0.4-1.3 0.1 0 0.3 0.2 0.4 0.2-0.2 0.3-0.7 0.5-1.1 0.4-0.6-0.2-0.7-0.8-0.8-1.4-0.4-1.9-0.5-0.6-1.6-0.9 0.2-1.2-0.7-0.6-1.2-1.1-0.4-0.4-0.1-1.3-0.8-1.8 0.3 1.5-0.5 0.5-1.3 0.8 0.3-0.2 0.6-0.5 0.7-0.9-0.5-0.4-0.6 0.2-1 0.2-0.3 0-0.7-0.4-1.1-0.5 0.1-1.3-1.5-0.1-1.6-1.1-0.1 0-0.2 0-0.3-0.1 0.3-0.5 0.5-1.9 0.1-2.4 0 0.1-0.1 0.2-0.1 0.3-1.1-0.3-0.7 1.2-1.4 1.4-0.9 0.2-0.9-1.1-1-1.6-0.1 0.3-0.3 0.4-0.6 0.6-0.1 0-0.1-0.1-0.2-0.1-0.4 0.5 1.4 1.3 1.4 2.2 0.1 0.1 0.1 0.2 0.2 0.2-0.5 0-1 0.2-1.4 0.4-0.8 0.3-1.1 0.3-1.5 0.9-0.3 0.5 0.2 0.5-0.5 0.4-0.5-0.1-0.9-0.7-1.2-1.1-0.2-0.3-0.4-0.4-0.6-0.7-0.1-0.3 0-0.7-0.2-0.9-0.3-0.3-0.7 0-1-0.2-0.2-0.2-0.1-0.5-0.3-0.7-0.5-0.4-0.7-0.2-1.4-0.4-0.2-0.1-0.2-0.3-0.4-0.4-0.3-0.1-0.7-0.2-1-0.1 0-0.6-0.1-0.9-0.6-1.3-0.2-0.2-0.5-0.1-0.8-0.3s-0.4-0.6-0.7-0.8-1.3-0.2-1.5-0.7c-0.1-0.4 0.3-0.6 0.1-1-0.1-0.3-0.4-0.4-0.8-0.5-0.4 0.7-0.8 0.8-1 1-0.2 0-0.3 0-0.5 0.1-0.1-0.7-1.2-1.1-1.8-0.7 0.1 0.6 0.5 0.2 0.9 0.4s0.5 0.4 0.8 0.7c-0.6 0.2-3.8 1.6-2 2.7-0.3 0.2-0.8 0.3-1 0.5-0.4 0.4 0 0.1-0.2 0.6-0.1 0.2 0.1 0.7-0.3 0.7-0.3 0-1.1-0.9-1.4-1.1 0.1-0.1 0.1-0.4 0.2-0.5-0.2 0-0.5-0.1-0.7-0.1 0.3-0.4 0.6-0.8 0.6-1.3-0.3-0.1-0.6 0-0.8-0.1 0.1-0.1 0.2-0.2 0.3-0.2-0.7 0.2-1.5-0.1-2.2-0.1 0.3 0.5 0.7 0.5 1.3 0.5-0.3 0.1-0.7 0.2-1 0.2 0 0.3-0.1 0.8-0.6 0.7v-0.1c-0.5 0-1 0-1.4-0.1v-0.2c-0.4 0.1-0.9 0.1-1.2-0.1-0.2-0.1 0-0.3-0.2-0.5-0.4-0.3-0.7-0.5-1.3-0.4 0.3 0 0.6 0.1 0.8 0.1-0.1 0-0.1 0.1-0.1 0.2 0.1 0.1 0.2 0.3 0.3 0.4-0.3 0-0.6 0-0.9 0.1 0.1 0.2 0 0.4 0.1 0.5-0.2-0.1-0.3 0-0.5-0.3-0.5 0.1-0.9 0.7-0.3 1-0.2 0-0.4 0.1-0.6 0.1 0.2 0 0.2 0.1 0.4 0.2-0.5 0.9-0.7 0.6-1.2 0.2-0.2-0.2-0.3-0.7-0.9-0.4-0.1 0-0.2 0.6-0.2 0.7-0.3-0.3-0.8-1.1-1.4-0.8 1.1 0.4-0.6 1-0.8 1.2-0.1 0.2-0.1 0.4 0 0.5-0.3-0.2-0.6-0.5-1-0.4v-0.3c-0.3 0.4-0.8 0.3-1.2 0.5 0.5-1-1.2-1.3-1.9-1.3 0.5 0 1.3 0.3 1.6 0.6h-0.4c0.3 0.2 0.5 0.5 0.6 0.9-0.3 0-0.6 0-0.8 0.1 0.2 0.1 0.3 0.3 0.5 0.4-0.3 0.2-0.5 0.2-0.8 0.2 0.2 0.8-1 0.4-1.2 0.9-0.8-0.1-1.6 0.6-2.3 0.9l0.1 0.1c-0.5 0-2 0.2-1.3 1-0.3 0.1-0.7 0.3-1 0.4 0.1 0 0.1 0.1 0.2 0.1-0.3 0.2-1.1 0.9-1.2 1.2-0.1 0.4 0.3 1.3-0.5 1.1v-1c-0.2 0-0.3 0.1-0.5 0.2 0.1 0.2 0.1 0.4 0.2 0.5-0.3 0-0.6 0.1-0.7 0.4 0.2 0 0.5 0.1 0.8 0.2 0.1 0.5-0.5 0.6-0.9 0.6-0.2 0.6-1.4 0.8-1.9 1 0.1 0.1 0.1 0 0.1 0.1-0.4 0.5-0.9 0.5-1.3 0.8 0.1 0.1 0 0.3 0.1 0.5-0.3-0.1-0.4 0-0.6 0.1 0.7 0.4-0.7 1.4-0.7 1.9h63.5v-2.3c-0.2-0.1-0.5 0-0.7 0.1z"/>
			<path d="m12.1 7h0.5-0.5z"/>
			<path d="m9.1 8.8s0.1 0 0 0z"/>
		</g>
		<g fill="#698373">
			<path d="m9.9 10.4v0z"/>
			<path d="m51.5 8.3c0-0.2-0.2-0.4-0.3-0.6l0.3 0.6z"/>
			<path d="m51.1 7.7l-0.1-0.1c0.1 0 0.1 0.1 0.1 0.1z"/>
			<path d="m62.2 17.3c-0.3-0.2-0.6 0.1-0.8-0.2-0.3-0.4-0.3-1.7-1.2-1-0.1-0.2-0.1-0.4-0.2-0.5-0.2-0.4-0.5-0.4-0.9-0.7s-0.7-0.9-1.1-1.2c-0.3-0.2-0.6-0.3-0.9-0.5-0.4-0.3-0.5-1-1-1.3-0.2-0.1-0.5-0.1-0.7-0.2-0.1-0.1 0-0.3-0.1-0.4-0.3-0.3-0.4-0.4-0.8-0.3-0.2-0.8-1-0.9-1.5-1.4-0.2-0.1-0.2-0.5-0.4-0.6-0.1-0.1-0.2 0-0.3-0.1-0.1 0-0.3 0-0.4-0.1l-0.3-0.3c0 0.2 0 0.4-0.1 0.6-0.3-0.4-0.5-0.8-0.8-1.2-0.5 0.5-1-0.2-1.3-0.5-0.2 0.4-0.4 0.6-0.6 1-0.2 0.3-0.1 0.7-0.4 1-0.3-0.8-1.6-0.1-1.9 0.4-0.1 0.1 0.1 0.2 0.1 0.3-0.1 0.3-0.5 0.5-0.8 0.7-0.4 0.4-0.4 0.4-0.3 0.8-0.3-0.1-0.7-0.2-1 0-0.2-0.1-0.4-0.3-0.6-0.6-0.1-0.1-0.5-0.4-0.6-0.5-0.1-0.2 0.1-0.4 0.1-0.6-0.1-0.4-0.4-0.4-0.6-0.8-0.2-0.7-0.1-1-1-1 0-0.5-0.6-0.6-1-0.6-0.4-0.1-0.5-0.1-0.9-0.3-0.2-0.1-0.7-0.1-0.9-0.2s-0.2-0.3-0.3-0.5c-0.3-0.4-0.8-0.4-1.1-0.8-0.1-0.1 0.1-0.3-0.1-0.5s-0.6-0.1-0.8-0.3c-0.3-0.3-0.1-0.5-0.7-0.7-0.3-0.1-0.5-0.1-0.8-0.2-0.3-0.2-0.5-0.5-0.8-0.7-0.1-0.1-0.2 0-0.4-0.1-0.1-0.1-0.1-0.4-0.3-0.5-0.3 0.1-0.3 0.3-0.1 0.4-0.4 0.2-0.9 0.4-1.3 0.6 0.2 0.2-0.1 0.4-0.1 0.7 0 0.4 0.3 0.5 0.4 0.8-0.3 0.3-1.2 0.6-1.6 0.8 0.1 0.2 0.2 0.5 0.2 0.7-0.1 0.2-0.4 0.2-0.4 0.4s0.2 0.4 0.2 0.5c0.1 0.3 0 0.5 0 0.8-0.4 0-2-0.8-1.7 0.1-0.8 0.2-0.8-1-1.3-1.3-0.2-0.2-0.5-0.1-0.7-0.3s-0.2-0.6-0.4-0.7-0.5 0-0.7-0.2-0.1-0.4-0.5-0.5c-0.3-0.1-0.6 0.1-0.9 0.1s-0.5-0.3-0.8-0.2c-0.1 0.7-1.1-0.2-1.4-0.1 0 0.3 0.1 0.5 0.1 0.7-0.3 0-0.7-0.2-1-0.3-0.3-0.2 0-0.3-0.4-0.3-0.1 0-0.5 0.2-0.6 0.3 0.1 0 0.2 0.2 0.2 0.2-0.3 0-0.3 0.3-0.2 0.5-0.7 0-0.3 1-0.9 1.2-0.6 0.1-0.9-1.1-1.3-0.6 0.1-0.5-0.5-0.5-0.4 0h-0.5c0.1 0.4-0.1 0.6-0.4 0.5s-0.2-0.6-0.6-0.6c0 0.4 0.2 0.6-0.2 1.1-0.4-0.3-0.3-0.4-0.9-0.4 0.1 0.9-0.8-0.2-0.9-0.2-0.4-0.2-1.1 0.2-1.2 0.5-0.1 0.2-0.2 0.5-0.2 0.7s0.1 0.3 0.2 0.4c-0.2-0.1-0.6 0.1-1.2 0.6 0.2 0 0.4 0 0.6-0.1-0.6 0.2-1.2 0.5-1.8 0.8 0.1-0.1 0.2-0.2 0.3-0.4-0.5 0.1-0.9 0.4-1.4 0.7 0 0 0.1 0.1 0.2 0.1-0.3 0.4-0.7 0.3-0.9 0.7 0.1-1.6-2.1-0.4-1.3 0.3-0.3 0.1-1.7 0.5-0.8 0.8-0.3 0.2-0.5 0.6 0.1 0.6-0.3 0.2-0.2 0.3-0.3 0.5 0 0.2 0.1 0.4 0.3 0.4-0.1 0.1-0.1 0.4-0.1 0.4 0.4 0 0.8 0.1 0.7 0.5-0.6 0.1-1.5-0.1-2 0.1h0.2c-0.1 0.3-0.3 0.6-0.6 0.6l-0.5-0.5c-0.3 0-0.2 0-0.3 0.2 0.4 0 0.6 0.4 0.6 0.8-0.9 0.3-1.8-0.6-2.6-0.2 0.1 0.3 0.1 0.5 0.3 0.6-0.4 0.3-0.9 0.1-1.4 0.3-0.3 0.1-0.9 0.5-1 0.6h0.3l-0.3 0.6h62.2c-0.2-0.2-0.2-0.5-0.5-0.7z"/>
		</g>
</g>
</svg>
