<?xml version="1.0" encoding="UTF-8" standalone="no"?>
<svg id="Redeemer_Container" xmlns="http://www.w3.org/2000/svg" xml:space="preserve" viewBox="0 0 48.1 58.2" version="1.1" y="0px" x="0px" xmlns:xlink="http://www.w3.org/1999/xlink" enable-background="new 0 0 48.1 58.2">
<g id="Redeemer">
	<g id="Rock">
		<path id="Rock_Shadow" d="m48 57.9h-48l2.7-9.4s0.7-1.1 0.8-1.7 0.3-1.6 0.5-2.3c0.2-0.6 1.9-6.5 2-7.4s1.2-6.5 1.2-6.5l0.1-0.6s3.5-2.3 4.3-3.2c0.8-1 1.7-3.2 1.7-3.2s0.8-3.4 1.2-4.9c0.4-1.5 1.2-3.4 1.2-3.4l0.6-1 7.5-0.2s4 1.9 4.5 2.3 1.1 1 1.4 1.7 0.8 1.9 0.8 1.9l0.5 0.7 0.4 0.8 3.2 7.1 2.5 3 2.7 0.9s1 3.5 1.4 4.7 1.1 2.5 1.9 3.4 1.1 1.9 2.2 3.3 1.8 2.7 1.8 2.7l0.9 0.8v10.5z" fill="#8E7E72"/>
		<path id="Rock_Lighting" d="m24.2 27.1l0.6 22.9-2.3-0.4v-23.4l1.7 0.9zm9.7 18.4l1.7-2.3-4-11-3.8 0.8 0.1 1.4-0.9 1s0.7 1.4 1 2.6-0.4 3.4-0.5 4-0.1 4.5-0.1 4.5l2 1.7 1.4 0.2s0.3 0.5 0.4 0.8c0.1 0.2 0.7 2.6 0.7 2.6l1-0.7s0.5-0.6 1-1.3 1.4-0.6 1.4-0.6l-1.3-1.8-0.1-1.9zm-9.8-24.5c0.1-0.2 0.4-0.3 0.5-0.5 0.1-0.3-0.2-0.5-0.4-0.7-0.4-0.7-0.2-1-0.1-1.7s-0.2-1.3-0.3-1.8c-0.1 0.5-0.1 0.9-0.4 1.4-0.3 0.4-0.7 0.4-1 0.8-0.6 0.7-0.3 2.3-1.5 2.4 0 0.6 0.2 1.4 0.3 2.1 0.1 0.6 0.2 1.2 0.2 1.9 0.8-0.3 1.4-0.8 2.2-1l2.1-0.3c0.1-0.8-1.9-1.5-1.6-2.6zm12.9 15c0 0.8 0.6 1.7 0.6 1.7s0.5 0.7 0.9 1.2c0.4 0.5 1.1 0.5 1.4 1s2 0.2 2 0.2l-0.8-2-1.6-5.5-0.8 0.1-1.2-0.2s-0.3 0.3-0.5 0.8c-0.3 0.4-1 0.2-1 0.2l0.3 1c0.1 0 0.7 0.7 0.7 1.5zm-19.6-7.5c-0.4 0.8-1.4 1.7-1.5 2.5-0.1 0.7 0 0.8-0.4 1.4-0.3 0.5-0.4 0.8-0.6 1.3-0.2 0.6-1 2.3-0.2 2.7 0-0.3 0.3-2.4 0.8-2.1 0.8 0.5-1.3 3.3 0.2 3.5 0-0.5-0.1-1-0.1-1.6s0.3-1.2 0.3-1.9c0.1-0.8 0.2-1.8 1.1-2.1 0.1 0.5-0.4 0.9-0.3 1.4 0.9-0.4 0.3-2.5 1.1-2.5 0.2-0.8 0.8-2 1.8-1.8 0.2 0.5 0.7-0.1 1.1-0.1 0.2 0 0.4 0.3 0.7 0.4 0.3-0.5 0.9-0.7 0.5-1.4 0.1 0 0.3-0.1 0.4-0.1 0.2-0.5 0.1-1.1 0-2-1.7 0.5-4 0.7-4.9 2.4zm29.6 17.9c-0.5-0.5-0.9-1.1-1.4-1.6s-1.1-0.9-1.5-1.5c-0.3-0.4-0.5-0.8-0.7-1.2-0.4-0.5-0.3-0.8-1.1-0.6-0.5 0.1-0.6 0.2-1 0.2-0.9 0-1.1 0.6-1.8 0.9-0.8 0.3-1.8 0.2-2.6 0.3-1 0.1-1 0.9-1.5 1.5-0.5 0.7-1.2 0.8-1.1 1.7h0.3c-0.1 0.2-0.2 0.4-0.3 0.7 0.4 0.1 0.9 0.4 1.2 0.7 0.4 0.5 0.2 1 0.3 1.6 0.1 0.4 0 1 0.2 1.5 0.2 0.7 0.5 1.4 0.7 2.1 0.3 1.1 0.4 2.2 0.8 3.2 0.3 0.7 0.6 1.5 1 2.1h9.5v-10.9c-0.3-0.2-0.7-0.4-1-0.7z" fill="#C9AE8D"/>
		<g id="Trees">
			<path id="Trees_Light" d="m40.4 41.7c0.3 0.4-0.2 1.2-0.4 1.5-0.7 0.8-1.3 0.2-2-0.2-0.4-0.3-0.4-0.2-0.8-0.1-0.3 0.1-0.3 0.1-0.6 0.3-0.1 0.1-0.2 0.1-0.3 0.1 0 0.2 0.1 0.4 0 0.6s-0.3 0.3-0.4 0.4c-0.1 0.2 0 0.4-0.2 0.6-0.5 0.7-2 0.1-1.7 1.5h0.1v0.3c0.5 0.2 1.3 0.1 1 0.9 0.1 0 0.2 0.1 0.4 0.1 0 0.2 0 0.4 0.1 0.5s0.2 0 0.3 0.3c0.1 0.2-0.1 0.5-0.1 0.7 0.1 0.2 0.1 0.4 0 0.6-0.1 0.3-0.3 0.5-0.2 0.9s0.4 0.7 0.4 1.1c0 0.5-0.8 1.5-1.1 1.9-0.3 0.3-0.5 0.4-0.9 0.7-0.7 0.5-0.6 0.4-1.1-0.1-0.3-0.3-0.5-0.3-0.9-0.4 0-0.3 0.2-0.7 0.1-0.9-0.1-0.3-0.3 0-0.5-0.2-0.3-0.3-0.1-0.7-0.5-1.1-0.3-0.3-0.6-0.5-0.9-0.7-0.6-0.6-0.6-1.6-0.5-2.4-0.1-0.5-0.2-1.1-0.2-1.5 0-0.6 0.2-1 0.6-1.4 0.6-0.7 1.1-0.5 1.9-0.5 0-0.3-0.3-0.5-0.3-0.8 0-0.2 0.4-0.4 0.1-0.6 0-0.5 0.5-0.6 0.9-0.6 0.2 0 0.4 0.1 0.6 0s0.4-0.4 0.2-0.6h0.3c0.1-0.4-0.3-0.4-0.5-0.5 0-0.2 0.4-0.3 0.6-0.3 0-0.1 0.1-0.1 0.1-0.2 0.3 0 0.6-0.3 0.6-0.7-0.1-0.4-0.4-0.4-0.7-0.5 0.3-0.2 0.5-0.3 0.8-0.4v-0.1c0.4 0.1 0.1 0.6 0.3 0.7 0.3 0.2 0.4-0.2 0.5-0.3s0.6-0.1 0.7-0.3c0.3-0.4-0.1-0.3-0.3-0.6-0.1-0.2 0.1-0.9 0.3-1.1 0.1-0.2 0.4-0.3 0.5-0.4 0.3-0.2 0.4-0.4 0.8-0.4 0 0.3-0.1 0.9 0.3 0.9v0.4c0.2 0.1 0.3 0.1 0.5 0 0.1 0.5 1.6-0.3 0.9 1 0.3 0.1 0.7 0.3 0.7 0.7 0 0.3-0.3 0.5-0.2 0.8 0.3 0.3 0.6 0.2 0.7 0.4zm-25.3-29.1s-0.1 0 0 0c-0.1 0 0 0 0 0zm10.4-0.2c0.1 0.1 0.2 0.1 0.2 0.2 0-0.1-0.1-0.2-0.2-0.2zm22.3 31.7c-0.3-0.4-0.5-0.7-1-1-0.3-0.2-0.8-0.3-1-0.6-0.1-0.2 0-0.5-0.1-0.8-0.1-0.2-0.4-0.2-0.5-0.4-0.2-0.2-0.1-0.6-0.2-0.9-0.2-0.4-0.7-0.8-1-1.2-0.3-0.3-0.5-0.3-0.8-0.6-0.2-0.1-0.2-0.3-0.3-0.5s-0.4-0.2-0.5-0.3c-0.4-0.4-0.4-0.8-0.5-1.3-0.1-0.4-0.3-0.6-0.2-1 0.1-0.5 0.6-0.8 0.6-1.3 0-0.3-0.1-0.4-0.1-0.8v-0.5c-0.1-0.3-0.4-0.2-0.5-0.4-0.3-0.3-0.3-0.5-0.6-0.7-0.4-0.2-0.7-0.2-1.1-0.2 0.1-1.1-1.4-0.2-1.8-0.2 0-0.4 0.3-0.7 0.2-1.1-0.1-0.6-0.6-0.4-0.9-0.6-0.7-0.4-0.4-1.3-1.5-1.2 0-0.4-0.1-0.8-0.4-1.1-0.2-0.2-0.4-0.2-0.5-0.5-0.1-0.2 0.1-0.6-0.1-0.8-0.2-0.4-0.9-0.3-1.1-0.7-0.1-0.3 0-1.1-0.1-1.4 0-0.5 0-0.9-0.3-1.2-0.2-0.2-0.4-0.3-0.6-0.6s-0.4-0.7-0.6-1c-0.1-0.1-0.8-0.8-1-0.5-0.1 0.2 0.2 0.3 0.2 0.4 0.1 0.8-0.8 0.5-1.1 0.9 0.3 0.2-0.1 0.4-0.4 0.5 0 0.3 0.2 0.4 0.2 0.7 0 0.2-0.1 0.4-0.1 0.6h-0.6c-0.2 0-0.4 0.1-0.7 0.1s-0.6-0.2-1-0.3c-0.3 0-0.5 0-0.9-0.1-0.6-0.1-1 0.1-1.6 0.1-0.4 0-0.7-0.3-1.1-0.2-0.2 0-0.4 0.2-0.6 0.2h-0.5c-0.1-0.1-0.1-0.3-0.2-0.3-0.1-0.1-0.3 0-0.5-0.1-0.1-0.1-0.1-0.2-0.2-0.3-0.5-0.4-0.9 0.5-1.5 0.2-0.2-0.1-0.2-0.4-0.4-0.5h-0.2c0.1-0.5 0.6-1.1 1-1.3-0.1 0-0.1 0-0.2-0.1 0.2-0.6 1.1-0.1 1.2-0.8-0.5-0.2-0.1-0.8 0.3-0.8l-0.1-0.1c0.3-0.1 0.5-0.2 0.7-0.4-0.1-0.2-0.4-0.4-0.2-0.7-0.5-0.3 0.6-0.5 0.7-0.7 0.2-0.3 0.1-0.6 0.2-0.9 0.1-0.6 0.3-0.9 0.9-0.4 0.2 0.2 0.1 0.4 0.4 0.6 0.2 0.1 0.4 0 0.6 0.1v0.1c0.6 0 0.3 0.4 0.2 0.7-0.2 0.3-0.1 0.4 0 0.8 0.1 0.3 0.3 0.6 0.3 0.8 0.1 0.3-0.1 0.4-0.2 0.8 0.4 0.3 0.9 0.4 1.4 0.5 0.5 0 0.9 0 1 0.6 0.7-0.1 0.4 1.1 1 0.5 0.3-0.3 0-0.8-0.4-0.9 0.1-0.2 0.1-0.7-0.2-0.7 0-0.2 0.1-0.5 0-0.7-0.3-0.1 0.1-0.4-0.1-0.7-0.1-0.1-0.3 0.1-0.3 0-0.2-0.2 0-0.1 0-0.4 0-0.4 0-0.6 0.2-1 0.1-0.2 0.2-0.5 0.2-0.6l0.4-0.4c0.1-0.1 0.3-0.4 0-0.5-0.2 0-0.2 0.3-0.3 0.3-0.3 0-0.1-0.1-0.2-0.2v-0.2c-0.1-0.1-0.2 0-0.2-0.1-0.3-0.2-0.7-0.2-1-0.4h-0.2c-0.2-0.3-0.2-0.4-0.2-0.4-0.1-0.1-0.2-0.2-0.3-0.2 0-0.4 0.7-0.4 0.8-0.8-0.3-0.2-0.4-0.3-0.8-0.2 0.1-0.6-0.4-0.2-0.6-0.4s0-0.2 0-0.3l-0.3-0.6c0.1 0.2 0 0.5-0.3 0.5 0-0.8-1.2-0.8-1.8-0.9 0.1 0 0.3-0.2 0.2-0.3-0.2-0.3-0.4-0.2-0.8-0.1-0.3 0-0.8 0.4-1.1 0.3v-0.3c-0.3-0.1-0.5-0.1-0.8-0.1 0 0 0.1 0 0.1 0.1 0.1 0.5-0.4 0.5-0.7 0.3-0.3 0.4-0.5-0.1-0.8-0.1-0.2 0-0.3 0.1-0.4 0.1s-0.2-0.1-0.4-0.1c-0.3 0-1.3-0.3-1.3 0.2-0.4-0.1-0.6 0.2-1 0.3-0.8 0.4-0.4-0.3-1.1-0.3 0-0.2-0.1-0.3-0.3-0.2 0.1 0.2-0.1 0.4-0.3 0.4 0.5 0 0 0.7-0.3 0.8s-0.4-0.1-0.6 0.2c-0.1 0.2 0 0.4 0 0.6h-0.2c0.1 0.3-0.1 0.4-0.4 0.5h0.4c0.1 0.3 0 0.4 0 0.7 0 0.2 0.1 0.6 0 0.8h-0.4c-0.1 0.1-0.1 0.3-0.2 0.4-0.1-0.1-0.3-0.2-0.5-0.1 0.1 0 0.1 0.1 0.2 0.1v0.3h-0.2c-0.3 0.4 0.2 0.8 0.6 0.7v0.2h0.6c-0.1 0.6 0 0.7 0.6 0.7 0-0.1 0.1 0 0.1 0.2 0.2-0.1 0.7-0.3 0.8-0.6s0-0.2 0-0.5c0-0.1 0.1-0.4 0.1-0.6s-0.3-0.5 0-0.7c0.1-0.1 0.5 0 0.6-0.2-0.3-0.1-0.2-0.5 0.1-0.7 0.4-0.2 0.5 0 0.7 0.2 0.3 0.3 0.7 1.4 1.2 1.2 0.3-0.1 0.4-1.1 0.7-1.1 0.4 0 0 0.7 0.1 0.8 0.1 0.3 0.6 0.3 0.6 0.6 0.1 0.6-1 0.3-1.3 0.5 0.4 0.4 1.1 0.5 1.4 1-0.1 0.1-0.3 0.1-0.4 0.3 0.2 0.4 0.6 0.7 0.1 1.2s-1.5 0.4-1.7 1.1c0.3 0.1 0.8 0.3 0.8 0.7-0.1 0.1-0.3 0.2-0.4 0.2 0.1 0.4 0 0.7-0.5 0.7-0.1 0.3-0.6 0.2-0.8 0.5-0.4-0.2-0.9-0.5-0.9 0.1-0.1 0-0.8 0.2-1 0.4 0.7 0.3-0.7 0.8-0.8 0.9-0.5 0.3-1.1 0.6-1.7 0.1 0 0.5-0.1 0.5-0.3 0.5s-0.3-0.1-0.5-0.1c0.1 0-0.4 0.2-0.4 0.2-0.2 0.2-0.3 0.4-0.4 0.6 0 0.1 0 0.2-0.1 0.3s-0.2 0.1-0.3 0.2c-0.1 0.2 0.1 0.4 0.2 0.7-0.2 0-0.6 0.1-0.8 0.1s-0.6 0-0.8 0.1c0.1 0.1 0 0.2 0.2 0.3-0.4 0.3-0.3 0.5-0.5 0.8-0.2 0.2-0.4 0.1-0.5 0.3 0 0 0.1 0.2 0 0.3-0.2 0.3-0.2 0.2-0.5 0.4h-0.3c-0.3 0.1-0.7 0.7-0.7 1 0 0.4 0.5 0.5 0.7 0.5s0.8 0 1-0.1c0.2 0 0.5-0.1 0.7-0.2 0.6-0.4 0.3-0.3 0.9 0 0.2-0.6 1.2-0.7 1.7-0.5 0.2-0.6 1.1-0.2 1.5-0.2 0.3 0 0.9-0.2 1.1-0.4 0.1-0.1 0.1-0.2 0.1-0.2 0.2-0.1 0.1-0.1 0.3-0.2 0.1 0 0.2 0.1 0.3 0.1 0.1-0.1 0.2-0.4 0.3-0.4 0.1-0.1 0.5-0.2 0.7-0.3 0.4-0.1 0.8-0.1 0.8-0.5 0.2-0.1 0.5-0.2 0.7-0.3 0.1 0 0.1-0.1 0.2-0.1 0.3-0.2 0.6-0.4 0.8-0.4s0.3 0.2 0.6 0.2c0.2 0 0.4-0.2 0.5-0.3 0.2-0.1 0.3-0.1 0.5-0.1s0.5-0.1 0.7-0.2 0.2-0.3 0.4-0.4c0.3-0.1 1.2 0.1 1.5 0.2s0.5 0.3 0.8 0.5c0.4 0.3 0.5 0.3 0.6 0.8 0.1 0.6-0.1 1.2-0.1 1.9 0 1.3 0.2 2.5 0.2 3.8 0.5 0.6 0.8-0.3 1.1-0.6 0.2-0.3 0.8-0.7 1.1-0.6 0.4 0.2 0.7 1 1 1.4 0-0.1 0.2-0.2 0.2-0.2 0.4 0.2 0.7 0.7 1.2 0.8 0 0.4 0.8 0.8 1.2 0.6 0.2-0.1 0.2-0.3 0.4-0.5 0.3-0.3 0.2 0 0.5-0.1 0.4-0.1 0.5-0.5 0.7-0.9 0.1-0.2 0.1-0.5 0.3-0.6 0.3-0.2 0.9 0.3 1.2 0.3v0.2c0.3 0 0.6 0.3 1 0.2 0-0.2 0.1-0.3 0.2-0.5 0.1 0 0.2 0 0.2 0.1v-0.4c0.7 0.3 1.1 1 1.8 1.4 0.3 0.1 0.1 0.2 0.5 0.1 0.2-0.1 0.6-0.5 0.7-0.7 0.2-0.2 0.2-0.6 0.5-0.8 0.5 0.7 1.5 0.8 1.9 1.6 0.1 0.1 0 0.3 0.1 0.5 0.1 0.1 0.3 0.3 0.4 0.5 0.4 0.6 0.7 0.8 0.5 1.4s-0.2 0.8 0 1.4c0.2 0.5 0.1 1.1 0.1 1.7s0.2 0.9 0.4 1.4c0.1 0.3 0.1 0.4 0.3 0.6s0.6 0.6 0.9 0.6c0.2 0 0.4-0.3 0.7-0.1 0.1 0.1 0.1 0.4 0.2 0.5 0.1 0.2 0.3 0.3 0.4 0.5 0.2 0.6-0.2 0.8 0.4 1 0.1 0 0.3 0 0.4 0.1 0.3 0.2 0.3 0.4 0.3 0.8 0.1 0.3 0.2 0.4 0.4 0.7 0.3 0.5 0.4 1 0.9 1.4 0.4 0.3 0.8 0.6 1.3 0.4 0.2 0.4 0.4 0.8 0.6 1.1v-4.1c-0.2-0.2-0.3-0.3-0.4-0.5z" fill="#86CE74"/>
			<path id="Trees_Shadow" d="m13.1 16.8v-0.3c-0.1 0-0.1-0.1-0.2-0.1 0.2 0 0.4 0 0.5 0.1 0.1-0.1 0.2-0.3 0.2-0.4h0.4c0.1-0.2 0-0.6 0-0.8s0.1-0.4 0-0.7h-0.4c0.3-0.1 0.4-0.2 0.4-0.5h0.2v-0.4c0.7 0.5 0.3 1.3 0.3 2 0.6-0.1 0.9-3 1.8-1.6 0.5-0.5 0.7-0.2 1.1-0.2 0.2 0 0.3 0.1 0.5 0 0.1 0 0.1-0.4 0.2-0.4 0.6-0.2 0.6 0.3 0.8 0.7 0.3 0.5 0.3 0.5 0.9 0.6-0.1 0.3-0.2 1 0.2 1.1v-0.3c0.1 0 0.1 0 0.2 0.1-0.3 0.4 0.1 0.9-0.4 1.2 0.1 0.1 0 0.2 0.1 0.3-0.3 0.1-0.6 0.2-0.8 0.1 0.3 0 0.7-0.1 0.7-0.4s-0.5-0.3-0.6-0.6c-0.1-0.2 0.4-0.8-0.1-0.8-0.3 0-0.4 0.9-0.7 1.1-0.5 0.2-0.9-0.9-1.2-1.2-0.2-0.2-0.3-0.4-0.7-0.2-0.2 0.1-0.4 0.5-0.1 0.7-0.1 0.2-0.4 0.1-0.6 0.2-0.2 0.3 0 0.5 0 0.7s-0.1 0.5-0.1 0.6c0 0.2 0.1 0.2 0 0.5-0.1 0.2-0.6 0.5-0.8 0.6-0.1-0.1-0.1-0.3-0.1-0.2-0.6 0-0.7-0.1-0.6-0.7h-0.6v-0.2c-0.4 0.1-0.9-0.3-0.6-0.7 0 0.1 0.1 0.1 0.1 0.1zm26.9 24.6v-0.3h-0.1c-0.7 0.1-0.5 0.2-1 0.7-0.8 0.9-0.9-0.2-1.5-0.2-0.1 0-0.4 0.4-0.5 0.4-0.2 0.1-0.5 0.1-0.8 0.3l-0.9 0.9c-0.2 0.4 0.1 0.7-0.5 1.1-0.7 0.4-1.1 0.2-1.4 1-0.2 0.4 0 0.8-0.2 1.3-0.1 0.3-0.5 0.4-0.5 0.7-0.1 0.2 0.1 0.5 0.1 0.7-0.2 1-1.2 0.9-1.5 0-0.1-0.3-0.2-0.8-0.2-1 0.1-1.2 2.3-1.9 2.3-2.9h-0.4c0-0.3 0.1-0.5 0.3-0.6 0.1 0.1 0 0.1 0.1 0.1 0.4-0.1 1-0.4 1.4-0.3 0-0.3 0.1-0.6 0.3-0.9h-0.3c0-0.2 0-0.4 0.1-0.5 0.2 0 0.5-0.1 0.6-0.2 0 0-0.1 0-0.1-0.1 0-0.2 0.2-0.4 0.2-0.6s-0.2-0.6 0-0.8c0-0.2 0-0.3-0.2-0.4v0.1c-0.3 0-0.6 0.2-0.8 0.4 0.3 0.1 0.6 0.1 0.7 0.5 0 0.3-0.3 0.7-0.6 0.7 0 0.1-0.1 0.1-0.1 0.2-0.2 0-0.6 0.1-0.6 0.3 0.3 0.1 0.7 0.1 0.5 0.5h-0.3c0.2 0.2 0 0.5-0.2 0.6s-0.4 0-0.6 0-0.3 0-0.5 0.1c-0.1 0.1-0.2 0.2-0.4 0.2 0 0.1-0.1 0.2-0.1 0.3 0.4 0.2 0 0.3-0.1 0.6 0 0.3 0.2 0.5 0.3 0.8-0.8 0-1.4-0.2-1.9 0.5-0.6 0.4-0.9 0.8-0.8 1.4 0 0.5 0.1 1.1 0.2 1.5-0.1 0.8-0.1 1.8 0.5 2.4 0.3 0.3 0.6 0.4 0.9 0.7 0.3 0.4 0.2 0.8 0.5 1.1 0.2 0.2 0.4-0.1 0.5 0.2 0.1 0.2-0.2 0.7-0.1 0.9 0.4 0.1 0.6 0.1 0.9 0.4 0.5 0.5 0.4 0.6 1.1 0.1 0.3-0.2 0.6-0.4 0.9-0.7 0.3-0.4 1.1-1.4 1.1-1.9 0-0.4-0.4-0.7-0.4-1.1 0-0.3 0.2-0.6 0.2-0.9 0-0.2 0.1-0.4 0-0.6 0-0.2 0.2-0.5 0.1-0.7-0.1-0.3-0.3-0.2-0.3-0.3-0.1-0.2-0.1-0.3-0.1-0.5-0.1 0-0.2-0.1-0.4-0.1 0.3-0.8-0.5-0.7-1-0.9v-0.3h-0.1c-0.3-1.4 1.2-0.8 1.7-1.5 0.1-0.2 0.1-0.4 0.2-0.6s0.3-0.2 0.4-0.4c0-0.2-0.1-0.4 0-0.6 0.1 0 0.2 0 0.3-0.1 0.3-0.2 0.3-0.2 0.6-0.3 0.4-0.1 0.4-0.2 0.8 0.1 0.7 0.4 1.2 1 1.9 0.2 0.3-0.3 0.7-1 0.4-1.5-0.3-0.1-0.6 0-0.6-0.2zm-15.5-24.8c0.2 0.2 0.1 0.4 0.4 0.6 0.2 0.1 0.4 0 0.6 0.1v0.1c0.6 0 0.3 0.4 0.2 0.7-0.2 0.3-0.1 0.4 0 0.8 0.1 0.3 0.3 0.6 0.3 0.8 0.1 0.3-0.1 0.4-0.2 0.8 0.4 0.3 0.9 0.4 1.4 0.5 0.5 0 0.9 0 1 0.6 0.7-0.1 0.4 1.1 1 0.5 0.3-0.3 0-0.8-0.4-0.9 0.1-0.2 0.1-0.7-0.2-0.7 0-0.2 0.1-0.5 0-0.7-0.2-0.1-0.1-0.2 0-0.4 0-0.1-0.1-0.2-0.2-0.3h-0.2s0 0.1-0.1 0.1c0 0.1 0.4 0.5 0.3 0.9-0.2-0.2-0.3-0.1-0.5-0.2 0.1 0.1 0.1 0.4 0.2 0.5-0.2-0.1-0.4-0.2-0.7-0.3l0.2 0.2h-0.3v-0.4h-0.2c0.1-0.2 0.1-0.5-0.1-0.6 0 0.7-1 0.2-0.5-0.5-0.7 0-0.1-0.5-0.1-0.8 0.1-0.4-0.2-1.2-0.7-1.3-0.4-0.1-0.7 0.2-1.1 0.1-0.1 0 0-0.3-0.2-0.4h-0.6v0.2 0.1c0.1-0.4 0.4-0.4 0.7-0.1zm23.6 30.7c-0.2 0-0.3 0-0.5-0.1-0.1 0 0-0.2-0.1-0.3 0 0-0.3-0.2-0.3-0.3-0.1-0.1-0.3 0-0.4 0-0.4-0.2-0.2-0.3-0.4-0.8-0.2-0.6-0.7-1-1-1.5-0.2-0.5-0.3-1.2-0.7-1.6-0.2-0.2-0.5-0.3-0.7-0.5-0.2-0.1-0.5-0.4-0.8-0.5-0.3-0.2-0.7-0.7-0.9-0.1-0.7 0.1-0.4-0.4-0.5-0.7-0.3-0.6-0.4-0.6-0.3-1.4 0.1-0.6-0.1-0.6-0.1-1.2-0.1-0.7 0.3-1.5 0.2-2.2-0.1-0.5-0.2-0.5-0.4-0.9-0.1-0.3-0.1-0.6-0.2-0.9-0.2-0.6-0.5-0.8-1.1-1.2-0.2-0.1-0.4-0.2-0.5-0.3-0.2-0.1-0.1-0.5-0.3-0.6-0.5-0.3-1.3 0.2-1.6-0.6v0.4c-0.3 0-0.6-0.1-0.9-0.1v0.7c-0.3 0.1-0.6-0.1-0.9-0.2v0.3c-1 0-1-1.2-2-1.2 0.1 0.1 0.1 0.2 0.1 0.3-0.5-0.3-0.7-0.8-1.4-0.6 0-0.5-0.4-0.9-0.8-1.2-0.2-0.4 0.6-0.5 1-0.6-0.4-0.3-1.5-0.3-1.4-1.2h0.2c-0.5 0-0.5-0.5-0.7-0.8s-0.3 0-0.5-0.4c0-0.1 0.1-0.5 0.1-0.6-0.3 0-0.6 0-0.8-0.1 0.3-0.5 1-0.1 1.4-0.6-0.2-0.1-0.6 0-0.8-0.1-0.1-0.1 0.1-0.5 0-0.6-0.2-0.2-1-0.4-1.3-0.5-0.8-0.3-1.6-0.1-2.4-0.2 0 0 0 0.1 0.1 0.1 0.4 0.3 0.7 0.1 1.2 0-0.1 0.3 0.1 0.2-0.3 0.3 0.1 0 0.4 0.1 0.5 0.1-0.1 0.1-0.1 0.3-0.1 0.4 0.5 0.3 1.3-0.1 1.7 0.3-0.2 0.2-0.6 0.4-0.8 0.7 0.2 0 0.3 0 0.5-0.1l-0.3 0.6c0.4 0.1 1.4 0.2 0.9 0.8 0.2 0.2 0.1 0.5-0.1 0.6 0.2 0.2 0.2 0.3 0.3 0.5-0.2 0.1-0.1 0.2-0.3 0.3 0.6 0 1-0.2 0.8 0.6h0.3c0.3 0.4 0.7 0.8 0.6 1.2l-0.1 0.1c1.1 1.3-0.9 0.4-1.4 0.1 0.6 0.6-0.5 0.6-0.9 0.5 0-0.4 0.2-0.7 0.1-1.1-0.8 0-0.2-1.3-1-1 0.3 0.3 0.7 1.4 0.1 1.7-0.1 0.1-0.8-0.2-0.8-0.2-0.1-0.2 0.1-0.8 0.1-1-0.3-0.1-1-0.2-1.3-0.1s-0.2 0.2-0.3 0.3c-0.2 0.2-0.2 0.5-0.7 0.4v-0.2h-0.4c0-0.6 0.3-0.5 0.4-0.9 0.1-0.3 0.2-0.8 0.3-1.1 0.2-0.8-0.2-0.5-0.5-1.1-0.2-0.4 0.3-1 0.3-1.5-0.3-0.1-0.6 0-0.9-0.1 0.4-0.5-0.9-1.1-0.7-0.1-0.4 0-0.5-0.3-0.8-0.5-0.3-0.1-0.7-0.2-1-0.3-0.5-0.2-1.6-0.5-2-0.4-0.6 0.1-0.3 0.4-0.8 0.7-0.3 0.2-0.9 0-1.2 0-0.4 0-1-0.1-1.4 0.3-0.4 0.3-0.3 1-1.1 0.8 0-0.1 0.1-0.1 0.1-0.2-0.6 0.1-1 0-1.4 0.4-0.4 0.3-0.2 0.6-0.9 0.6-0.2-0.2-0.8-0.1-0.6 0.3-0.3 0.5-0.1 0.8-0.9 0.6-0.4-0.1-0.7-0.6-1.1-0.2-0.7-0.6-1.5-0.6-1.3 0.5-0.2 0.1-1 0.1-1.2 0.2l-0.1 0.1v0.7c-0.1 0.1 0 0.3-0.1 0.4-0.2 0.3-0.6 0.4-1 0.4 0 0.1-0.1 0.2-0.1 0.3 0 0.4 0.5 0.5 0.7 0.5s0.8 0 1-0.1c0.2 0 0.5-0.1 0.7-0.2 0.6-0.4 0.3-0.3 0.9 0 0.2-0.6 1.2-0.7 1.7-0.5 0.2-0.6 1.1-0.2 1.5-0.2 0.3 0 0.9-0.2 1.1-0.4 0.1-0.1 0.1-0.2 0.1-0.2 0.2-0.1 0.1-0.1 0.3-0.2 0.1 0 0.2 0.1 0.3 0.1 0.1-0.1 0.2-0.4 0.3-0.4 0.1-0.1 0.5-0.2 0.7-0.3 0.4-0.1 0.8-0.1 0.8-0.5 0.2-0.1 0.5-0.2 0.7-0.3 0.1 0 0.1-0.1 0.2-0.1 0.3-0.2 0.6-0.4 0.8-0.4s0.3 0.2 0.6 0.2c0.2 0 0.4-0.2 0.5-0.3 0.2-0.1 0.3-0.1 0.5-0.1s0.5-0.1 0.7-0.2 0.2-0.3 0.4-0.4c0.3-0.1 1.2 0.1 1.5 0.2s0.5 0.3 0.8 0.5c0.4 0.3 0.5 0.3 0.6 0.8 0.1 0.6-0.1 1.2-0.1 1.9 0 1.3 0.2 2.5 0.2 3.8 0.5 0.6 0.8-0.3 1.1-0.6 0.2-0.3 0.8-0.7 1.1-0.6 0.4 0.2 0.7 1 1 1.4 0-0.1 0.2-0.2 0.2-0.2 0.4 0.2 0.7 0.7 1.2 0.8 0 0.4 0.8 0.8 1.2 0.6 0.2-0.1 0.2-0.3 0.4-0.5 0.3-0.3 0.2 0 0.5-0.1 0.4-0.1 0.5-0.5 0.7-0.9 0.1-0.2 0.1-0.5 0.3-0.6 0.3-0.2 0.9 0.3 1.2 0.3v0.2c0.3 0 0.6 0.3 1 0.2 0-0.2 0.1-0.3 0.2-0.5 0.1 0 0.2 0 0.2 0.1v-0.4c0.7 0.3 1.1 1 1.8 1.4 0.3 0.1 0.1 0.2 0.5 0.1 0.2-0.1 0.6-0.5 0.7-0.7 0.2-0.2 0.2-0.6 0.5-0.8 0.5 0.7 1.5 0.8 1.9 1.6 0.1 0.1 0 0.3 0.1 0.5 0.1 0.1 0.3 0.3 0.4 0.5 0.4 0.6 0.7 0.8 0.5 1.4s-0.2 0.8 0 1.4c0.2 0.5 0.1 1.1 0.1 1.7s0.2 0.9 0.4 1.4c0.1 0.3 0.1 0.4 0.3 0.6s0.6 0.6 0.9 0.6c0.2 0 0.4-0.3 0.7-0.1 0.1 0.1 0.1 0.4 0.2 0.5 0.1 0.2 0.3 0.3 0.4 0.5 0.2 0.6-0.2 0.8 0.4 1 0.1 0 0.3 0 0.4 0.1 0.3 0.2 0.3 0.4 0.3 0.8 0.1 0.3 0.2 0.4 0.4 0.7 0.3 0.5 0.4 1 0.9 1.4 0.4 0.3 0.8 0.6 1.3 0.4 0.2 0.4 0.4 0.8 0.6 1.1v-1.3zm-21.8-23c0.1 0 0.2 0.1 0.3 0.1-0.2-0.2-0.3-0.2-0.3-0.1z" fill="#76A474"/>
		</g>
	</g>
	<path id="Staute_Shadow" d="m24.2 3.6h-0.4-2l0.1-0.1c-0.1-0.2-0.3-0.1-0.4-0.1h-0.3c0-0.2 0.1-0.3 0.1-0.5 0-0.9-0.4-1.6-1-1.6-0.5 0-1 0.7-1 1.6 0 0.2 0 0.4 0.1 0.6h-0.2l-3 0.9h-0.7c-0.1 0-0.2 0.1-0.2 0.2s0.1 0.3 0.3 0.2h0.7l0.7 1.5 1.7 0.2c0.4 0 0.8 0.4 0.8 0.9v4.8l2.5 1.9v-7.1c0-0.4 0.2-0.7 0.6-0.8l1.6-0.6 0.1-1.4c0.4 0 0.8-0.1 0.8-0.3-0.1-0.2-0.5-0.3-0.9-0.3z" fill="#B1D5E5"/>
	<path id="Statue_Light" d="m20 7.1l0.1 0.4v5.1l-0.2-0.1v-5l0.1-0.4zm0.3 0.5l-0.1 5.3 0.2 0.2v-5.4l-0.1-0.3v0.2zm-3.4-3l-0.1-0.3-0.6 0.2s0.4 1.1 0.5 1.4 0.3 0.3 0.3 0.3l1.6 0.1 0.3-0.9s-1-0.3-1.2-0.4c-0.4-0.1-0.8-0.4-0.8-0.4zm2.7 2.4l-0.1 0.3v4.9l0.3 0.2-0.1-5.1-0.1-0.3zm1.5 0.9l-0.1 5.4 0.3 0.2v-5.6l-0.1-0.3-0.1 0.3zm0.7 0c0-0.1-0.1-0.2-0.2-0.2s-0.2-0.1-0.3-0.1c0 0 0.1 0.1 0.1 0.2-0.4-0.2-0.7-0.5-1.1-0.6-0.3-0.2-0.5-0.3-0.8-0.4-0.1 0-0.2-0.1-0.3-0.2v-0.4-0.4-0.6c0 0.2 0 1.5-0.1 1.5v-0.4-1.2-0.9c0-0.1 0-0.3 0.1-0.4-0.2 0.5-0.3 1-0.3 1.5-0.2-0.1-0.3-0.2-0.5-0.2-0.2-0.1-0.5-0.1-0.7-0.2-0.3-0.1-0.7-0.3-0.7-0.7 0.1 0 0.3-0.1 0.4-0.1 0.2 0 0.4-0.1 0.6-0.1 0.4-0.1 0.8-0.2 1.2-0.4 0 0 0 0.1-0.1 0.1 0 0 0-0.1 0.1-0.1h0.1 0.1v0.4c0 0.2-0.1 0.4-0.1 0.6h0.1v-1.9c0-0.3 0.1-0.4 0.2-0.6 0-0.1 0.1-0.1 0.1-0.2 0.1-0.3 0.4-0.4 0.5-0.5 0 0 0.3 0.2 0.4 0.7s0 1.3 0 1.3v1c0.1-0.1 0.1-0.2 0.1-0.3v-0.4-0.4h0.5 0.1l-0.1 0.1h1.4c0.1 0 0.4 0 0.3 0.1l-0.2 0.1c-0.1 0-0.3 0.1-0.4 0.1-0.3 0.1-0.5 0.3-0.7 0.4s-0.5 0.2-0.7 0.4c-0.1 0-0.2 0.1-0.3 0.1v0.1c0 0.5 0 1 0.1 1.5 0 0.1 0.1 0.3 0.1 0.4l0.2 0.2c0.8 0.4 0.7 0.8 0.8 1.1zm-0.8-5.7c0-0.2 0-0.3-0.1-0.4 0 0.1 0.1 0.2 0.1 0.4v1.3 1.2-1.1c0.1 0 0.1-0.9 0-1.4zm0 2.5v-1.2-1.3c0-0.2-0.1-0.3-0.1-0.5 0 0.1 0.1 0.3 0.1 0.4v1.3c-0.1 0.1-0.1 0.8 0 1.3-0.1 0-0.1 0 0 0zm-0.2-1.3v1.5-1.5s0.1-0.7 0.1-1.2c0-0.2-0.1-0.4-0.1-0.5 0 0.1 0.1 0.3 0.1 0.5-0.1 0.4-0.1 1.1-0.1 1.2zm0 1.4s0.1 0 0 0c0.1 0 0.1 0 0 0 0-0.4 0.1-1.3 0.1-1.3v-1.3c0-0.2-0.1-0.4-0.1-0.5 0 0.1 0.1 0.3 0.1 0.5v1.3s-0.1 0.8-0.1 1.3zm-0.1-3.1c0 0.1 0.1 0.3 0.1 0.5v1.2 1.5-1.5-1.2c0-0.3-0.1-0.4-0.1-0.5zm-0.2-0.1v0.5c0 0.4-0.1 0.8-0.1 1v0.1 1.7-1.7c0-0.5 0.1-0.9 0.1-1.1 0.1-0.2 0.1-0.4 0-0.5zv0.5c0 0.3-0.1 0.7-0.1 0.9v0.2 1.8-1.7-0.1c0-0.2 0.1-0.7 0.1-1v-0.6zm-0.3 1.5c0-0.1 0-0.3 0.1-0.5 0-0.2 0-0.4 0.1-0.6 0-0.2 0-0.4 0.1-0.5 0 0.1 0 0.2-0.1 0.5 0 0.1 0 0.3-0.1 0.4-0.1 0.3-0.1 0.5-0.1 0.7-0.1 0.1-0.1 1.4-0.1 1.9 0.1-0.4 0.1-1.8 0.1-1.9zm0.1-1.5c0 0.1-0.1 0.2-0.1 0.4v0.2c0 0.3-0.1 0.6-0.1 0.7v1.9-1.9c0-0.1 0-0.3 0.1-0.6 0-0.1 0-0.3 0.1-0.4v-0.3zc0 0.1-0.1 0.2-0.1 0.4v0.2c-0.1 0.3-0.2 0.6-0.2 0.8v2-1.9c0-0.2 0.1-0.4 0.1-0.7v-0.2c0.1-0.4 0.2-0.5 0.2-0.6zm-0.1 0c0 0.1-0.1 0.2-0.1 0.4v0.1c-0.1 0.3-0.1 0.6-0.2 0.8v2-1.9c0-0.2 0.1-0.5 0.1-0.8v-0.2c0.2-0.2 0.2-0.3 0.2-0.4zc-0.1 0.1-0.1 0.2-0.2 0.4v0.1c-0.1 0.3-0.1 0.6-0.2 0.8v2-1.9c0-0.2 0.1-0.5 0.1-0.8v-0.1c0.2-0.3 0.3-0.4 0.3-0.5zc-0.1 0.1-0.2 0.2-0.2 0.4v0.1c-0.1 0.3-0.1 0.5-0.2 0.7v2-1.9c0-0.2 0.1-0.5 0.2-0.8v-0.1c0-0.2 0.1-0.3 0.2-0.4zm-0.7 3.1s0.1 0 0 0c0-0.6 0-1.7 0.1-1.9 0-0.2 0.1-0.4 0.2-0.7 0-0.1 0-0.1 0.1-0.2 0-0.1 0.1-0.2 0.2-0.3-0.1 0.1-0.1 0.2-0.2 0.3 0 0.1 0 0.1-0.1 0.2-0.1 0.2-0.1 0.4-0.2 0.6s-0.1 1.3-0.1 2zm0.1 0c0-0.6 0-1.7 0.1-1.9 0-0.2 0.1-0.4 0.2-0.7v-0.1c0-0.1 0.1-0.2 0.2-0.3-0.1 0.1-0.1 0.2-0.2 0.3 0 0.1 0 0.1-0.1 0.2-0.1 0.2-0.1 0.4-0.2 0.7v1.8zm0.1 0v0c0-0.6 0-1.7 0.1-1.9 0-0.2 0.1-0.5 0.2-0.8v-0.1c0-0.2 0.1-0.3 0.2-0.3-0.2 0.1-0.2 0.2-0.3 0.3v0.1c-0.1 0.3-0.1 0.5-0.2 0.7v2zm-0.2-0.1c0-0.6 0-1.7 0.1-1.9 0-0.3 0.1-0.4 0.2-0.6 0-0.1 0-0.1 0.1-0.2 0-0.1 0.1-0.2 0.2-0.3-0.1 0.1-0.2 0.2-0.2 0.3s-0.1 0.1-0.1 0.2c-0.1 0.2-0.1 0.3-0.2 0.6-0.1 0.2-0.1 1.2-0.1 1.9zm0.8 0.4v-1.8-0.3c0-0.2 0.1-0.5 0.1-0.8v-0.5c0 0.1 0 0.2-0.1 0.5 0 0.2 0 0.4-0.1 0.6 0 0.2 0 0.4-0.1 0.5 0.1 0 0.1 1.4 0.2 1.8-0.1 0 0 0 0 0zv-1.8-0.2c0-0.2 0.1-0.6 0.1-0.9v-0.5 0.5c0 0.3-0.1 0.5-0.1 0.8v0.3 1.8zm0.2-0.1c0.1 0 0.1 0.1 0 0 0-0.3 0-1.5 0.1-1.6 0 0 0.1-0.7 0.1-1.2 0-0.2 0-0.4-0.1-0.5v0.5c0 0.3 0 0.7-0.1 1.1v1.7zm0.5 0.6c0-0.2-0.1-0.3-0.1-0.4 0 0 0-0.1-0.1-0.1v0.1-0.1-1.6-1.2c0-0.2 0-0.4-0.1-0.5 0 0.1 0.1 0.3 0.1 0.5 0 0.5-0.1 1.2-0.1 1.2v1.7c0.1 0 0.2 0.2 0.3 0.4zm2.7-1.2c0-0.2 0.2-0.6-0.1-0.6-0.1 0.1-0.1 0.2-0.3 0.3h-0.3c-0.4 0.2-0.8 0.5-1.2 0.7-0.1 0.1-0.4 0.2-0.5 0.3s-0.1 0.3-0.1 0.4c0 0.4 0 1 0.4 1.2l0.6-0.6c0.3-0.2 0.7-0.3 1.1-0.4 0.3-0.1 0.5-0.1 0.5-0.4-0.1-0.3-0.1-0.6-0.1-0.9zm-2.3 3.8l-0.1 5.5 0.2 0.3v-5.7l-0.1-0.3v0.2zm-0.8-0.4l-0.1 5.5 0.2 0.1 0.1-5.6-0.1-0.2-0.1 0.2z" fill="#DEF2F9"/>
</g>
</svg>
