<?xml version="1.0" encoding="utf-8"?>
<!-- Generator: Adobe Illustrator 19.2.1, SVG Export Plug-In . SVG Version: 6.00 Build 0)  -->
<svg version="1.1" id="Trees_Container" xmlns="http://www.w3.org/2000/svg" xmlns:xlink="http://www.w3.org/1999/xlink" x="0px"
	 y="0px" viewBox="0 0 64.4 18" enable-background="new 0 0 64.4 18" xml:space="preserve">
<g id="Front_Trees">
	<g>
		<g>
			<path fill="#7EB974" d="M48.2,7.4c0,0,0.1,0.1,0.1,0.1C48.2,7.5,48.2,7.4,48.2,7.4z"/>
			<path fill="#7EB974" d="M35.3,0c-0.4,0-0.9-0.1-1.3,0c0.1,0.2,0.4,0.3,0.7,0.4C34.9,0.4,35.1,0.2,35.3,0z"/>
			<path fill="#7EB974" d="M62.8,15.8c0.1-0.1,0.1-0.4,0.2-0.6c-0.7,0.1-1.1-0.1-1.7,0.3c-0.3-0.5-0.6-0.9-1-1.2
				c0-0.5,0.3-1.3-0.4-1.3c0.1,0,0.3,0.2,0.4,0.2c-0.2,0.3-0.7,0.5-1.1,0.4c-0.6-0.2-0.7-0.8-0.8-1.4c-0.4-1.9-0.5-0.6-1.6-0.9
				c0.2-1.2-0.7-0.6-1.2-1.1c-0.4-0.4-0.1-1.3-0.8-1.8c0.3,1.5-0.5,0.5-1.3,0.8c0.3-0.2,0.6-0.5,0.7-0.9c-0.5-0.4-0.6,0.2-1,0.2
				c-0.3,0-0.7-0.4-1.1-0.5c0.1-1.3-1.5-0.1-1.6-1.1c-0.1,0-0.2,0-0.3-0.1c0.3-0.5,0.5-1.9,0.1-2.4c0,0.1-0.1,0.2-0.1,0.3
				c-1.1-0.3-0.7,1.2-1.4,1.4c-0.9,0.2-0.9-1.1-1-1.6c-0.1,0.3-0.3,0.4-0.6,0.6c-0.1,0-0.1-0.1-0.2-0.1c-0.4,0.5,1.4,1.3,1.4,2.2
				c0,0,0,0,0,0c0.1,0.1,0.1,0.2,0.2,0.2c-0.5,0-1,0.2-1.4,0.4c-0.8,0.3-1.1,0.3-1.5,0.9c-0.3,0.5,0.2,0.5-0.5,0.4
				c-0.5-0.1-0.9-0.7-1.2-1.1c-0.2-0.3-0.4-0.4-0.6-0.7c-0.1-0.3,0-0.7-0.2-0.9c-0.3-0.3-0.7,0-1-0.2c-0.2-0.2-0.1-0.5-0.3-0.7
				c-0.5-0.4-0.7-0.2-1.4-0.4c-0.2-0.1-0.2-0.3-0.4-0.4c-0.3-0.1-0.7-0.2-1-0.1c0-0.6-0.1-0.9-0.6-1.3c-0.2-0.2-0.5-0.1-0.8-0.3
				c-0.3-0.2-0.4-0.6-0.7-0.8c-0.3-0.2-1.3-0.2-1.5-0.7c-0.1-0.4,0.3-0.6,0.1-1c-0.1-0.3-0.4-0.4-0.8-0.5C34.4,0.7,34,0.8,33.8,1
				c-0.2,0-0.3,0-0.5,0.1c-0.1-0.7-1.2-1.1-1.8-0.7C31.6,1,32,0.6,32.4,0.8c0.4,0.2,0.5,0.4,0.8,0.7c-0.6,0.2-3.8,1.6-2,2.7
				c-0.3,0.2-0.8,0.3-1,0.5c-0.4,0.4,0,0.1-0.2,0.6C29.9,5.5,30.1,6,29.7,6c-0.3,0-1.1-0.9-1.4-1.1c0.1-0.1,0.1-0.4,0.2-0.5
				c-0.2,0-0.5-0.1-0.7-0.1c0.3-0.4,0.6-0.8,0.6-1.3c-0.3-0.1-0.6,0-0.8-0.1c0.1-0.1,0.2-0.2,0.3-0.2c-0.7,0.2-1.5-0.1-2.2-0.1
				C26,3.1,26.4,3.1,27,3.1c-0.3,0.1-0.7,0.2-1,0.2C26,3.6,25.9,4.1,25.4,4c0,0,0-0.1,0-0.1c-0.5,0-1,0-1.4-0.1c0-0.1,0-0.1,0-0.2
				c-0.4,0.1-0.9,0.1-1.2-0.1c-0.2-0.1,0-0.3-0.2-0.5c-0.4-0.3-0.7-0.5-1.3-0.4c0.3,0,0.6,0.1,0.8,0.1c-0.1,0-0.1,0.1-0.1,0.2
				c0.1,0.1,0.2,0.3,0.3,0.4c-0.3,0-0.6,0-0.9,0.1c0.1,0.2,0,0.4,0.1,0.5c-0.2-0.1-0.3,0-0.5-0.3c-0.5,0.1-0.9,0.7-0.3,1
				c-0.2,0-0.4,0.1-0.6,0.1c0.2,0,0.2,0.1,0.4,0.2c-0.5,0.9-0.7,0.6-1.2,0.2c-0.2-0.2-0.3-0.7-0.9-0.4c-0.1,0-0.2,0.6-0.2,0.7
				c-0.3-0.3-0.8-1.1-1.4-0.8c1.1,0.4-0.6,1-0.8,1.2C15.9,6,15.9,6.2,16,6.3c-0.3-0.2-0.6-0.5-1-0.4c0-0.1,0-0.2,0-0.3
				c-0.3,0.4-0.8,0.3-1.2,0.5c0.5-1-1.2-1.3-1.9-1.3c0.5,0,1.3,0.3,1.6,0.6c-0.1,0-0.3,0-0.4,0c0.3,0.2,0.5,0.5,0.6,0.9
				c-0.3,0-0.6,0-0.8,0.1c0.2,0.1,0.3,0.3,0.5,0.4C13.1,7,12.9,7,12.6,7c0,0,0,0,0,0c0.2,0.8-1,0.4-1.2,0.9
				c-0.8-0.1-1.6,0.6-2.3,0.9c0,0,0.1,0.1,0.1,0.1c-0.5,0-2,0.2-1.3,1c-0.3,0.1-0.7,0.3-1,0.4c0.1,0,0.1,0.1,0.2,0.1
				c-0.3,0.2-1.1,0.9-1.2,1.2c-0.1,0.4,0.3,1.3-0.5,1.1c0-0.3,0-0.7,0-1c-0.2,0-0.3,0.1-0.5,0.2c0.1,0.2,0.1,0.4,0.2,0.5
				c-0.3,0-0.6,0.1-0.7,0.4c0.2,0,0.5,0.1,0.8,0.2c0.1,0.5-0.5,0.6-0.9,0.6c-0.2,0.6-1.4,0.8-1.9,1c0.1,0.1,0.1,0,0.1,0.1
				c-0.4,0.5-0.9,0.5-1.3,0.8c0.1,0.1,0,0.3,0.1,0.5c-0.3-0.1-0.4,0-0.6,0.1C1.4,16.5,0,17.5,0,18h63.5v-2.3
				C63.3,15.6,63,15.7,62.8,15.8z"/>
			<path fill="#7EB974" d="M12.1,7c0.2,0,0.3,0,0.5,0C12.5,7,12.3,7,12.1,7z"/>
			<path fill="#7EB974" d="M9.1,8.8C9.1,8.8,9.2,8.8,9.1,8.8C9.1,8.8,9.1,8.8,9.1,8.8z"/>
		</g>
	</g>
	<g>
		<g>
			<path fill="#698373" d="M9.9,10.4C9.9,10.4,9.9,10.4,9.9,10.4C9.9,10.3,9.9,10.3,9.9,10.4z"/>
			<path fill="#698373" d="M51.5,8.3c0-0.2-0.2-0.4-0.3-0.6C51.3,7.9,51.4,8.1,51.5,8.3z"/>
			<path fill="#698373" d="M51.1,7.7c0,0-0.1-0.1-0.1-0.1C51.1,7.6,51.1,7.7,51.1,7.7z"/>
			<path fill="#698373" d="M62.2,17.3c-0.3-0.2-0.6,0.1-0.8-0.2c-0.3-0.4-0.3-1.7-1.2-1c-0.1-0.2-0.1-0.4-0.2-0.5
				c-0.2-0.4-0.5-0.4-0.9-0.7c-0.4-0.3-0.7-0.9-1.1-1.2c-0.3-0.2-0.6-0.3-0.9-0.5c-0.4-0.3-0.5-1-1-1.3c-0.2-0.1-0.5-0.1-0.7-0.2
				c-0.1-0.1,0-0.3-0.1-0.4c-0.3-0.3-0.4-0.4-0.8-0.3c-0.2-0.8-1-0.9-1.5-1.4c-0.2-0.1-0.2-0.5-0.4-0.6c-0.1-0.1-0.2,0-0.3-0.1
				c-0.1,0-0.3,0-0.4-0.1c-0.1-0.1-0.2-0.2-0.3-0.3c0,0.2,0,0.4-0.1,0.6c-0.3-0.4-0.5-0.8-0.8-1.2c-0.5,0.5-1-0.2-1.3-0.5
				C49.2,7.8,49,8,48.8,8.4c-0.2,0.3-0.1,0.7-0.4,1c-0.3-0.8-1.6-0.1-1.9,0.4c-0.1,0.1,0.1,0.2,0.1,0.3c-0.1,0.3-0.5,0.5-0.8,0.7
				c-0.4,0.4-0.4,0.4-0.3,0.8c-0.3-0.1-0.7-0.2-1,0c-0.2-0.1-0.4-0.3-0.6-0.6c-0.1-0.1-0.5-0.4-0.6-0.5c-0.1-0.2,0.1-0.4,0.1-0.6
				c-0.1-0.4-0.4-0.4-0.6-0.8c-0.2-0.7-0.1-1-1-1c0-0.5-0.6-0.6-1-0.6c-0.4-0.1-0.5-0.1-0.9-0.3c-0.2-0.1-0.7-0.1-0.9-0.2
				c-0.2-0.1-0.2-0.3-0.3-0.5c-0.3-0.4-0.8-0.4-1.1-0.8c-0.1-0.1,0.1-0.3-0.1-0.5c-0.2-0.2-0.6-0.1-0.8-0.3
				c-0.3-0.3-0.1-0.5-0.7-0.7c-0.3-0.1-0.5-0.1-0.8-0.2c-0.3-0.2-0.5-0.5-0.8-0.7c-0.1-0.1-0.2,0-0.4-0.1c-0.1-0.1-0.1-0.4-0.3-0.5
				c-0.3,0.1-0.3,0.3-0.1,0.4c-0.4,0.2-0.9,0.4-1.3,0.6c0.2,0.2-0.1,0.4-0.1,0.7c0,0.4,0.3,0.5,0.4,0.8c-0.3,0.3-1.2,0.6-1.6,0.8
				c0.1,0.2,0.2,0.5,0.2,0.7c-0.1,0.2-0.4,0.2-0.4,0.4c0,0.2,0.2,0.4,0.2,0.5c0.1,0.3,0,0.5,0,0.8c-0.4,0-2-0.8-1.7,0.1
				c-0.8,0.2-0.8-1-1.3-1.3c-0.2-0.2-0.5-0.1-0.7-0.3c-0.2-0.2-0.2-0.6-0.4-0.7c-0.2-0.1-0.5,0-0.7-0.2c-0.2-0.2-0.1-0.4-0.5-0.5
				c-0.3-0.1-0.6,0.1-0.9,0.1c-0.3,0-0.5-0.3-0.8-0.2c-0.1,0.7-1.1-0.2-1.4-0.1c0,0.3,0.1,0.5,0.1,0.7c-0.3,0-0.7-0.2-1-0.3
				c-0.3-0.2,0-0.3-0.4-0.3c-0.1,0-0.5,0.2-0.6,0.3c0.1,0,0.2,0.2,0.2,0.2c-0.3,0-0.3,0.3-0.2,0.5c-0.7,0-0.3,1-0.9,1.2
				c-0.6,0.1-0.9-1.1-1.3-0.6C18.6,6.5,18,6.5,18.1,7c-0.2,0-0.3,0-0.5,0c0.1,0.4-0.1,0.6-0.4,0.5c-0.3-0.1-0.2-0.6-0.6-0.6
				c0,0.4,0.2,0.6-0.2,1.1c-0.4-0.3-0.3-0.4-0.9-0.4c0.1,0.9-0.8-0.2-0.9-0.2c-0.4-0.2-1.1,0.2-1.2,0.5c-0.1,0.2-0.2,0.5-0.2,0.7
				c0,0.2,0.1,0.3,0.2,0.4c-0.2-0.1-0.6,0.1-1.2,0.6c0.2,0,0.4,0,0.6-0.1c-0.6,0.2-1.2,0.5-1.8,0.8c0.1-0.1,0.2-0.2,0.3-0.4
				c-0.5,0.1-0.9,0.4-1.4,0.7c0,0,0.1,0.1,0.2,0.1c-0.3,0.4-0.7,0.3-0.9,0.7c0.1-1.6-2.1-0.4-1.3,0.3c-0.3,0.1-1.7,0.5-0.8,0.8
				c-0.3,0.2-0.5,0.6,0.1,0.6c-0.3,0.2-0.2,0.3-0.3,0.5C6.9,13.8,7,14,7.2,14c-0.1,0.1-0.1,0.4-0.1,0.4c0.4,0,0.8,0.1,0.7,0.5
				c-0.6,0.1-1.5-0.1-2,0.1c0.1,0,0.2,0,0.2,0c-0.1,0.3-0.3,0.6-0.6,0.6c-0.2-0.2-0.3-0.3-0.5-0.5c-0.3,0-0.2,0-0.3,0.2
				c0.4,0,0.6,0.4,0.6,0.8c-0.9,0.3-1.8-0.6-2.6-0.2c0.1,0.3,0.1,0.5,0.3,0.6c-0.4,0.3-0.9,0.1-1.4,0.3c-0.3,0.1-0.9,0.5-1,0.6
				l0.3,0L0.5,18h62.2C62.5,17.8,62.5,17.5,62.2,17.3z"/>
		</g>
	</g>
</g>
</svg>
