<?xml version="1.0" encoding="UTF-8" standalone="no"?>
<svg id="Euromillions" xmlns="http://www.w3.org/2000/svg" xml:space="preserve" viewBox="0 0 300 108.5" version="1.1" y="0px" x="0px" xmlns:xlink="http://www.w3.org/1999/xlink" enable-background="new 0 0 300 108.5">
<path id="Tickets" d="m118 25.9l45.4 47.8-67.6 33.6-53.1-69.4 44.3-18.5c0.1 0.3 0.2 0.4 0.2 0.4l0.3 0.1-0.3-0.5 19-4 11 9.5h0.2l0.9 1v0.3zm137-15.6h-35.4l-53.2 37 40.8 13.1 52.8-42.3-6-7.8z" fill="#FFFCEE"/>
<path id="Lines" d="m72.2 67.1l-0.4-1 55.8-23.9 0.4 1-55.8 23.9zm-12-15.4l-0.4-1 55.8-23.9 0.4 1-55.8 23.9zm173-16.8l-35.1-5.5 0.2-1 35.1 5.5v1zm13-10.9l-36.5-3.5 0.1-1.1 36 3.6v1z" fill="#333F47"/>
<path id="Ticket_Shadows" d="m86.8 19.6s-0.1-0.1-0.2-0.4l18.4-2.3 12.1 7.9-30.2-5.2zm9.3 87.4l67.3-33.4-1-1.1-66.2 32.6-52.1-68-1.4 0.6 53.8 69.4zm159-96.7l4.9 7.8-4-12-1 4.2zm-48 50.4l52.8-42.3-0.7-0.8-52.6 42.1-40.5-13-0.3 1 40.8 13.1h0.2v-0.1z" fill="#D3D8E5"/>
<path id="Lottery_Numbers" d="m69.4 54.2c1 0.8 1.5 1.1 2.4 1.7 1.1-0.4 1.7-0.6 3-0.9-0.6 0.9-0.8 1.4-1.2 2.4 0.7 0.8 1 1.3 1.7 2.6-1.1-0.3-1.6-0.4-2.7-0.4-0.6 0.9-0.8 1.4-1.5 2.4-0.4-1.2-0.7-1.7-1.1-2.7-1.3-0.2-1.9-0.2-3.4-0.5 1.3-0.7 1.9-1 2.9-1.8-0.1-0.9-0.1-1.5-0.1-2.8zm9.2-1.4c-1 0.7-1.5 1.1-2.9 1.8 1.5 0.3 2.1 0.3 3.4 0.5 0.4 1 0.7 1.4 1.1 2.7 0.7-1.1 1-1.5 1.5-2.5 1.1 0 1.6 0.1 2.7 0.4-0.7-1.3-1-1.7-1.7-2.6 0.4-1 0.6-1.5 1.2-2.4-1.3 0.3-1.8 0.5-3 0.9-1-0.6-1.5-0.8-2.4-1.7 0 1.3 0 1.9 0.1 2.9zm8.8-4.1c-1 0.7-1.5 1.1-2.9 1.8 1.5 0.3 2.1 0.3 3.4 0.5 0.4 1 0.7 1.4 1.1 2.7 0.7-1.1 1-1.5 1.5-2.5 1.1 0 1.6 0.1 2.7 0.4-0.7-1.3-1-1.7-1.7-2.6 0.4-1 0.6-1.5 1.2-2.4-1.3 0.3-1.8 0.5-3 0.9-1-0.6-1.5-0.8-2.4-1.7 0.1 1.3 0.1 1.8 0.1 2.9zm9.2-4.3c-1 0.7-1.5 1.1-2.9 1.8 1.5 0.3 2.1 0.3 3.4 0.5 0.4 1 0.7 1.4 1.1 2.7 0.7-1.1 1-1.5 1.5-2.5 1.1 0 1.6 0.1 2.7 0.4-0.7-1.3-1-1.7-1.7-2.6 0.4-1 0.6-1.5 1.2-2.4-1.3 0.3-1.8 0.5-3 0.9-1-0.6-1.5-0.8-2.4-1.7 1 1.2 1 1.8 1 2.9zm9.4-4.3c-1 0.7-1.5 1.1-2.9 1.8 1.5 0.3 2.1 0.3 3.4 0.5 0.4 1 0.7 1.4 1.1 2.7 0.7-1.1 1-1.5 1.5-2.5 1.1 0 1.6 0.1 2.7 0.4-0.7-1.3-1-1.7-1.7-2.6 0.4-1 0.6-1.5 1.2-2.4-1.3 0.3-1.8 0.5-3 0.9-1-0.6-1.5-0.8-2.4-1.7 1 1.2 1 1.8 1 2.9zm9-4.2c-1 0.7-1.5 1.1-2.9 1.8 1.5 0.3 2.1 0.3 3.4 0.5 0.4 1 0.7 1.4 1.1 2.7 0.7-1.1 1-1.5 1.5-2.5 1.1 0 1.6 0.1 2.7 0.4-0.7-1.3-1-1.7-1.7-2.6 0.4-1 0.6-1.5 1.2-2.4-1.3 0.3-1.8 0.5-3 0.9-1-0.6-1.5-0.8-2.4-1.7v2.9zm89-13.9c0.6 0.5 1 0.7 1.6 1 0.7-0.3 1-0.4 1.9-0.6-0.3 0.6-0.5 0.9-0.7 1.5 0.4 0.5 0.7 0.8 1.1 1.6-0.7-0.1-1-0.2-1.7-0.2-0.3 0.6-0.5 0.9-0.9 1.6-0.3-0.8-0.5-1.1-0.8-1.7-0.8-0.1-1.2-0.1-2.2-0.2 0.8-0.5 1.2-0.7 1.8-1.2v-1.8zm7 2.9c-0.6 0.5-1 0.7-1.8 1.2 0.9 0.1 1.4 0.1 2.2 0.2 0.3 0.6 0.5 0.9 0.8 1.7 0.4-0.7 0.6-1 0.9-1.6 0.7 0 1 0 1.7 0.2-0.5-0.8-0.7-1.1-1.1-1.6 0.2-0.6 0.4-1 0.7-1.5-0.8 0.2-1.2 0.3-1.9 0.6-0.6-0.3-0.9-0.5-1.6-1v1.8zm6 1.1c-0.6 0.5-1 0.7-1.8 1.2 0.9 0.1 1.4 0.1 2.2 0.2 0.3 0.6 0.5 0.9 0.8 1.7 0.4-0.7 0.6-1 0.9-1.6 0.7 0 1 0 1.7 0.2-0.5-0.8-0.7-1.1-1.1-1.6 0.2-0.6 0.4-1 0.7-1.5-0.8 0.2-1.2 0.3-1.9 0.6-0.6-0.3-0.9-0.5-1.6-1v1.8zm6 0.9c-0.6 0.5-1 0.7-1.8 1.2 0.9 0.1 1.4 0.1 2.2 0.2 0.3 0.6 0.5 0.9 0.8 1.7 0.4-0.7 0.6-1 0.9-1.6 0.7 0 1 0 1.7 0.2-0.5-0.8-0.7-1.1-1.1-1.6 0.2-0.6 0.4-1 0.7-1.5-0.8 0.2-1.2 0.3-1.9 0.6-0.6-0.3-0.9-0.5-1.6-1v1.8zm6 0.6c-0.6 0.5-1 0.7-1.8 1.2 0.9 0.1 1.4 0.1 2.2 0.2 0.3 0.6 0.5 0.9 0.8 1.7 0.4-0.7 0.6-1 0.9-1.6 0.7 0 1 0 1.7 0.2-0.5-0.8-0.7-1.1-1.1-1.6 0.2-0.6 0.4-1 0.7-1.5-0.8 0.2-1.2 0.3-1.9 0.6-0.6-0.3-0.9-0.5-1.6-1v1.8zm6 0.9c-0.6 0.5-1 0.7-1.8 1.2 0.9 0.1 1.4 0.1 2.2 0.2 0.3 0.6 0.5 0.9 0.8 1.7 0.4-0.7 0.6-1 0.9-1.6 0.7 0 1 0 1.7 0.2-0.5-0.8-0.7-1.1-1.1-1.6 0.2-0.6 0.4-1 0.7-1.5-0.8 0.2-1.2 0.3-1.9 0.6-0.6-0.3-0.9-0.5-1.6-1v1.8z" fill="#E7DE8F"/>
</svg>
